<?xml version="1.0" encoding="UTF-8"?>
<svg width="912px" height="179px" viewBox="0 0 912 179" version="1.1" xmlns="http://www.w3.org/2000/svg" xmlns:xlink="http://www.w3.org/1999/xlink">
    <!-- Generator: Sketch 54.1 (76490) - https://sketchapp.com -->
    <title>Tabelle06</title>
    <desc>Created with Sketch.</desc>
    <g id="Tabelle06" stroke="none" stroke-width="1" fill="none" fill-rule="evenodd">
        <polygon id="Rectangle" fill-opacity="0.75" fill="#00B482" points="300 0 601 0 601 169 300 169"></polygon>
        <path d="M321.553711,21.2626953 L324.076172,22.0625 C323.689451,23.468757 323.046391,24.5131802 322.146973,25.1958008 C321.247554,25.8784214 320.106452,26.2197266 318.723633,26.2197266 C317.012687,26.2197266 315.606451,25.6352598 314.504883,24.4663086 C313.403315,23.2973574 312.852539,21.6992289 312.852539,19.671875 C312.852539,17.527333 313.406244,15.8618223 314.513672,14.675293 C315.621099,13.4887636 317.077139,12.8955078 318.881836,12.8955078 C320.458016,12.8955078 321.738276,13.3613235 322.722656,14.2929688 C323.308597,14.8437528 323.748045,15.6347605 324.041016,16.6660156 L321.46582,17.28125 C321.313476,16.6132779 320.995608,16.0859394 320.512207,15.6992188 C320.028806,15.3124981 319.44141,15.1191406 318.75,15.1191406 C317.794917,15.1191406 317.020023,15.4619106 316.425293,16.1474609 C315.830563,16.8330112 315.533203,17.9433517 315.533203,19.4785156 C315.533203,21.10743 315.826169,22.2675747 316.412109,22.9589844 C316.99805,23.6503941 317.759761,23.9960938 318.697266,23.9960938 C319.388675,23.9960938 319.983396,23.7763694 320.481445,23.3369141 C320.979495,22.8974587 321.336913,22.2060594 321.553711,21.2626953 Z M326.291016,15.4003906 L326.291016,13.1152344 L328.760742,13.1152344 L328.760742,15.4003906 L326.291016,15.4003906 Z M326.291016,26 L326.291016,16.6660156 L328.760742,16.6660156 L328.760742,26 L326.291016,26 Z M335.572266,16.6660156 L335.572266,18.6347656 L333.884766,18.6347656 L333.884766,22.3964844 C333.884766,23.1582069 333.900879,23.6020502 333.933105,23.7280273 C333.965332,23.8540045 334.038574,23.9580074 334.152832,24.0400391 C334.26709,24.1220707 334.406249,24.1630859 334.570312,24.1630859 C334.798829,24.1630859 335.129881,24.0839852 335.563477,23.9257812 L335.774414,25.8417969 C335.200192,26.0878919 334.549808,26.2109375 333.823242,26.2109375 C333.377927,26.2109375 332.976564,26.1362312 332.619141,25.9868164 C332.261717,25.8374016 331.999513,25.6440442 331.83252,25.4067383 C331.665527,25.1694324 331.549805,24.8486348 331.485352,24.4443359 C331.432617,24.1572251 331.40625,23.5771528 331.40625,22.7041016 L331.40625,18.6347656 L330.272461,18.6347656 L330.272461,16.6660156 L331.40625,16.6660156 L331.40625,14.8115234 L333.884766,13.3701172 L333.884766,16.6660156 L335.572266,16.6660156 Z M339.650391,26 L337.180664,26 L337.180664,16.6660156 L339.474609,16.6660156 L339.474609,17.9931641 C339.867189,17.3662078 340.220213,16.953126 340.533691,16.7539062 C340.84717,16.5546865 341.203123,16.4550781 341.601562,16.4550781 C342.164065,16.4550781 342.706052,16.61035 343.227539,16.9208984 L342.462891,19.0742188 C342.046873,18.8046862 341.660158,18.6699219 341.302734,18.6699219 C340.95703,18.6699219 340.664064,18.7651358 340.423828,18.9555664 C340.183593,19.145997 339.99463,19.4902319 339.856934,19.9882812 C339.719238,20.4863306 339.650391,21.5292889 339.650391,23.1171875 L339.650391,26 Z M346.136719,19.5136719 L343.895508,19.109375 C344.147462,18.2070267 344.581052,17.5390647 345.196289,17.1054688 C345.811527,16.6718728 346.72558,16.4550781 347.938477,16.4550781 C349.040045,16.4550781 349.860349,16.5854479 350.399414,16.8461914 C350.938479,17.1069349 351.31787,17.4379863 351.537598,17.8393555 C351.757325,18.2407247 351.867188,18.9775337 351.867188,20.0498047 L351.84082,22.9326172 C351.84082,23.7529338 351.880371,24.3579082 351.959473,24.7475586 C352.038575,25.137209 352.186522,25.5546853 352.40332,26 L349.959961,26 C349.895507,25.8359367 349.816407,25.592775 349.722656,25.2705078 C349.68164,25.1240227 349.652344,25.027344 349.634766,24.9804688 C349.212889,25.3906271 348.761721,25.6982412 348.28125,25.9033203 C347.800779,26.1083995 347.288089,26.2109375 346.743164,26.2109375 C345.782222,26.2109375 345.024905,25.9501979 344.471191,25.4287109 C343.917478,24.907224 343.640625,24.2480509 343.640625,23.4511719 C343.640625,22.9238255 343.7666,22.4536153 344.018555,22.0405273 C344.270509,21.6274393 344.623533,21.3110363 345.077637,21.0913086 C345.531741,20.8715809 346.186519,20.6796883 347.041992,20.515625 C348.196295,20.298827 348.996092,20.0966806 349.441406,19.9091797 L349.441406,19.6630859 C349.441406,19.1884742 349.32422,18.8500987 349.089844,18.6479492 C348.855468,18.4457998 348.413089,18.3447266 347.762695,18.3447266 C347.32324,18.3447266 346.98047,18.4311515 346.734375,18.6040039 C346.48828,18.7768563 346.289063,19.080076 346.136719,19.5136719 Z M349.441406,21.5175781 C349.124998,21.6230474 348.624027,21.7490227 347.938477,21.8955078 C347.252926,22.0419929 346.804689,22.1855462 346.59375,22.3261719 C346.271483,22.5546886 346.110352,22.8447248 346.110352,23.1962891 C346.110352,23.5419939 346.239257,23.8408191 346.49707,24.0927734 C346.754884,24.3447278 347.083006,24.4707031 347.481445,24.4707031 C347.92676,24.4707031 348.35156,24.3242202 348.755859,24.03125 C349.054689,23.8085926 349.250976,23.5361344 349.344727,23.2138672 C349.40918,23.0029286 349.441406,22.6015655 349.441406,22.0097656 L349.441406,21.5175781 Z M353.660156,21.8076172 L356.191406,21.5615234 C356.343751,22.4111371 356.65283,23.0351543 357.118652,23.4335938 C357.584475,23.8320332 358.212887,24.03125 359.003906,24.03125 C359.841801,24.03125 360.473142,23.8540057 360.897949,23.4995117 C361.322756,23.1450178 361.535156,22.7304711 361.535156,22.2558594 C361.535156,21.9511704 361.445802,21.6918956 361.26709,21.4780273 C361.088378,21.2641591 360.776369,21.0781258 360.331055,20.9199219 C360.026366,20.8144526 359.332037,20.6269545 358.248047,20.3574219 C356.853509,20.011717 355.875003,19.5869166 355.3125,19.0830078 C354.52148,18.3740199 354.125977,17.5097707 354.125977,16.4902344 C354.125977,15.8339811 354.31201,15.2202177 354.684082,14.6489258 C355.056154,14.0776339 355.592282,13.6425796 356.29248,13.34375 C356.992679,13.0449204 357.837886,12.8955078 358.828125,12.8955078 C360.445321,12.8955078 361.662594,13.2499965 362.47998,13.9589844 C363.297367,14.6679723 363.726562,15.6142519 363.767578,16.7978516 L361.166016,16.9121094 C361.054687,16.2499967 360.81592,15.7739272 360.449707,15.4838867 C360.083494,15.1938462 359.534183,15.0488281 358.801758,15.0488281 C358.045895,15.0488281 357.454104,15.2041 357.026367,15.5146484 C356.750975,15.7138682 356.613281,15.9804671 356.613281,16.3144531 C356.613281,16.6191421 356.742186,16.8798817 357,17.0966797 C357.328127,17.3720717 358.124994,17.6591782 359.390625,17.9580078 C360.656256,18.2568374 361.592282,18.5659164 362.19873,18.8852539 C362.805179,19.2045914 363.279783,19.6411105 363.622559,20.1948242 C363.965334,20.7485379 364.136719,21.4326131 364.136719,22.2470703 C364.136719,22.9853553 363.931643,23.6767546 363.521484,24.3212891 C363.111326,24.9658235 362.531254,25.4448227 361.78125,25.7583008 C361.031246,26.0717789 360.096685,26.2285156 358.977539,26.2285156 C357.348625,26.2285156 356.097661,25.8520545 355.224609,25.0991211 C354.351558,24.3461876 353.830079,23.2490306 353.660156,21.8076172 Z M371.712891,23.0292969 L374.173828,23.4423828 C373.85742,24.3447311 373.357914,25.0317359 372.675293,25.503418 C371.992672,25.9751 371.138677,26.2109375 370.113281,26.2109375 C368.490226,26.2109375 367.289066,25.6806694 366.509766,24.6201172 C365.894528,23.7705036 365.586914,22.6982487 365.586914,21.4033203 C365.586914,19.8564376 365.991207,18.6450239 366.799805,17.769043 C367.608402,16.893062 368.630853,16.4550781 369.867188,16.4550781 C371.255866,16.4550781 372.351558,16.9135696 373.154297,17.8305664 C373.957035,18.7475632 374.34082,20.1523343 374.305664,22.0449219 L368.118164,22.0449219 C368.135742,22.7773474 368.334959,23.3471659 368.71582,23.7543945 C369.096682,24.1616231 369.571286,24.3652344 370.139648,24.3652344 C370.526369,24.3652344 370.851561,24.2597667 371.115234,24.0488281 C371.378908,23.8378896 371.578124,23.4980492 371.712891,23.0292969 Z M371.853516,20.5332031 C371.835937,19.8183558 371.651369,19.2749042 371.299805,18.902832 C370.94824,18.5307599 370.52051,18.3447266 370.016602,18.3447266 C369.477536,18.3447266 369.032228,18.5410137 368.680664,18.9335938 C368.3291,19.3261738 368.15625,19.8593716 368.162109,20.5332031 L371.853516,20.5332031 Z M378.164062,19.5136719 L375.922852,19.109375 C376.174806,18.2070267 376.608395,17.5390647 377.223633,17.1054688 C377.83887,16.6718728 378.752924,16.4550781 379.96582,16.4550781 C381.067388,16.4550781 381.887693,16.5854479 382.426758,16.8461914 C382.965823,17.1069349 383.345214,17.4379863 383.564941,17.8393555 C383.784669,18.2407247 383.894531,18.9775337 383.894531,20.0498047 L383.868164,22.9326172 C383.868164,23.7529338 383.907714,24.3579082 383.986816,24.7475586 C384.065918,25.137209 384.213866,25.5546853 384.430664,26 L381.987305,26 C381.922851,25.8359367 381.84375,25.592775 381.75,25.2705078 C381.708984,25.1240227 381.679688,25.027344 381.662109,24.9804688 C381.240232,25.3906271 380.789065,25.6982412 380.308594,25.9033203 C379.828123,26.1083995 379.315432,26.2109375 378.770508,26.2109375 C377.809566,26.2109375 377.052249,25.9501979 376.498535,25.4287109 C375.944821,24.907224 375.667969,24.2480509 375.667969,23.4511719 C375.667969,22.9238255 375.793944,22.4536153 376.045898,22.0405273 C376.297853,21.6274393 376.650877,21.3110363 377.10498,21.0913086 C377.559084,20.8715809 378.213863,20.6796883 379.069336,20.515625 C380.223639,20.298827 381.023435,20.0966806 381.46875,19.9091797 L381.46875,19.6630859 C381.46875,19.1884742 381.351564,18.8500987 381.117188,18.6479492 C380.882811,18.4457998 380.440433,18.3447266 379.790039,18.3447266 C379.350584,18.3447266 379.007814,18.4311515 378.761719,18.6040039 C378.515624,18.7768563 378.316407,19.080076 378.164062,19.5136719 Z M381.46875,21.5175781 C381.152342,21.6230474 380.651371,21.7490227 379.96582,21.8955078 C379.28027,22.0419929 378.832032,22.1855462 378.621094,22.3261719 C378.298827,22.5546886 378.137695,22.8447248 378.137695,23.1962891 C378.137695,23.5419939 378.2666,23.8408191 378.524414,24.0927734 C378.782228,24.3447278 379.11035,24.4707031 379.508789,24.4707031 C379.954104,24.4707031 380.378904,24.3242202 380.783203,24.03125 C381.082033,23.8085926 381.27832,23.5361344 381.37207,23.2138672 C381.436524,23.0029286 381.46875,22.6015655 381.46875,22.0097656 L381.46875,21.5175781 Z M386.329102,26 L386.329102,13.1152344 L388.798828,13.1152344 L388.798828,26 L386.329102,26 Z M395.212891,8.7734375 C396.110682,8.7734375 396.972001,8.99788187 397.796875,9.44677734 C398.621749,9.89567282 399.270017,10.5393838 399.741699,11.3779297 C400.213381,12.2164755 400.449219,13.0937454 400.449219,14.0097656 C400.449219,14.9212285 400.217939,15.7905232 399.755371,16.6176758 C399.292804,17.4448284 398.647953,18.0896787 397.820801,18.5522461 C396.993648,19.0148135 396.124354,19.2460938 395.212891,19.2460938 C394.301428,19.2460938 393.432133,19.0148135 392.60498,18.5522461 C391.777828,18.0896787 391.132978,17.4448284 390.67041,16.6176758 C390.207843,15.7905232 389.976562,14.9212285 389.976562,14.0097656 C389.976562,13.0937454 390.2124,12.2164755 390.684082,11.3779297 C391.155764,10.5393838 391.804032,9.89567282 392.628906,9.44677734 C393.45378,8.99788187 394.3151,8.7734375 395.212891,8.7734375 Z M395.219727,9.79882812 C394.499671,9.79882812 393.809248,9.97883935 393.148438,10.3388672 C392.487627,10.698895 391.966962,11.2161425 391.586426,11.890625 C391.20589,12.5651075 391.015625,13.2714807 391.015625,14.0097656 C391.015625,14.7434933 391.201333,15.4430305 391.572754,16.1083984 C391.944175,16.7737663 392.462562,17.2932924 393.12793,17.6669922 C393.793298,18.040692 394.490556,18.2275391 395.219727,18.2275391 C395.953454,18.2275391 396.651852,18.040692 397.314941,17.6669922 C397.978031,17.2932924 398.496417,16.7737663 398.870117,16.1083984 C399.243817,15.4430305 399.430664,14.7434933 399.430664,14.0097656 C399.430664,13.2714807 399.240399,12.5651075 398.859863,11.890625 C398.479328,11.2161425 397.957523,10.698895 397.294434,10.3388672 C396.631344,9.97883935 395.939782,9.79882812 395.219727,9.79882812 Z M395.861594,14.381233 C396.027238,14.4443973 396.155078,14.5131198 396.245117,14.5874023 C396.336263,14.662598 396.461588,14.805012 396.621094,15.0146484 C396.66211,15.0693362 396.798827,15.2949199 397.03125,15.6914062 L397.6875,16.8125 L396.292969,16.8125 L395.828125,15.9101562 C395.51367,15.3040334 395.253907,14.9223641 395.048828,14.7651367 C394.843749,14.6079094 394.583986,14.5292969 394.269531,14.5292969 L393.975586,14.5292969 L393.975586,16.8125 L392.847656,16.8125 L392.847656,11.2548828 L393.975586,11.2548828 C395.032883,11.2548828 395.625325,11.2594401 395.75293,11.2685547 C396.126629,11.3004559 396.417154,11.3745111 396.624512,11.4907227 C396.83187,11.6069342 397.005045,11.7846668 397.144043,12.0239258 C397.283041,12.2631848 397.352539,12.5286444 397.352539,12.8203125 C397.352539,13.2213562 397.221518,13.5642889 396.959473,13.8491211 C396.697429,14.1339509 396.329435,14.3105437 395.85548,14.3789046 L395.861594,14.381233 Z M393.975586,13.6542969 L394.433594,13.6542969 C395.08529,13.6542969 395.489745,13.629232 395.646973,13.5791016 C395.8042,13.5289711 395.928385,13.4412441 396.019531,13.315918 C396.110678,13.1905918 396.15625,13.0481779 396.15625,12.8886719 C396.15625,12.7337232 396.111817,12.5958665 396.022949,12.4750977 C395.934082,12.3543288 395.807618,12.2677411 395.643555,12.215332 C395.479491,12.1629229 395.076175,12.1367188 394.433594,12.1367188 L393.975586,12.1367188 L393.975586,13.6542969 Z" id="CitraSeal®" fill="#FFFFFF" fill-rule="nonzero"></path>
        <text id="Trisodium-Citrate-4%" font-family="ArialMT, Arial" font-size="18" font-weight="normal" fill="#FFFFFF">
            <tspan x="312" y="69">Trisodium Citrate 4%/30%/46,7%</tspan>
        </text>
        <text id="TEGO-valve-+-NaCl" font-family="ArialMT, Arial" font-size="18" font-weight="normal" fill="#373737">
            <tspan x="620" y="69">TEGO valve + NaCl</tspan>
        </text>
        <text id="Needleless-Catheter" font-family="ArialMT, Arial" font-size="18" font-weight="normal" fill="#373737">
            <tspan x="620" y="112">Needleless Catheter Valve</tspan>
        </text>
        <text id="N/A" font-family="ArialMT, Arial" font-size="18" font-weight="normal" fill="#373737">
            <tspan x="620" y="155">N/A</tspan>
        </text>
        <path d="M624.209961,26 L624.209961,15.2949219 L620.386719,15.2949219 L620.386719,13.1152344 L630.625977,13.1152344 L630.625977,15.2949219 L626.811523,15.2949219 L626.811523,26 L624.209961,26 Z M632.304688,26 L632.304688,13.1152344 L641.858398,13.1152344 L641.858398,15.2949219 L634.90625,15.2949219 L634.90625,18.1513672 L641.375,18.1513672 L641.375,20.3222656 L634.90625,20.3222656 L634.90625,23.8291016 L642.104492,23.8291016 L642.104492,26 L632.304688,26 Z M650.304688,21.2626953 L650.304688,19.0917969 L655.912109,19.0917969 L655.912109,24.2246094 C655.367185,24.7519558 654.577642,25.2163066 653.543457,25.6176758 C652.509272,26.019045 651.461919,26.2197266 650.401367,26.2197266 C649.053704,26.2197266 647.878911,25.9370145 646.876953,25.371582 C645.874995,24.8061495 645.122073,23.9975639 644.618164,22.9458008 C644.114255,21.8940377 643.862305,20.7500062 643.862305,19.5136719 C643.862305,18.1718683 644.143552,16.9794974 644.706055,15.9365234 C645.268558,14.8935495 646.091791,14.0937528 647.175781,13.5371094 C648.001957,13.1093729 649.030267,12.8955078 650.260742,12.8955078 C651.86036,12.8955078 653.109859,13.2309537 654.009277,13.9018555 C654.908696,14.5727573 655.487303,15.4999941 655.745117,16.6835938 L653.161133,17.1669922 C652.979491,16.5341765 652.638186,16.0346698 652.137207,15.668457 C651.636228,15.3022443 651.010746,15.1191406 650.260742,15.1191406 C649.124018,15.1191406 648.220218,15.4794886 647.549316,16.2001953 C646.878415,16.920902 646.542969,17.9902273 646.542969,19.4082031 C646.542969,20.9375076 646.882809,22.0844688 647.5625,22.8491211 C648.242191,23.6137734 649.132807,23.9960938 650.234375,23.9960938 C650.7793,23.9960938 651.325681,23.8891612 651.873535,23.675293 C652.421389,23.4614247 652.8916,23.20215 653.28418,22.8974609 L653.28418,21.2626953 L650.304688,21.2626953 Z M657.78418,19.6367188 C657.78418,18.3242122 657.980467,17.2226607 658.373047,16.3320312 C658.666017,15.675778 659.065915,15.0869167 659.572754,14.5654297 C660.079592,14.0439427 660.634763,13.6572278 661.238281,13.4052734 C662.04102,13.065428 662.966792,12.8955078 664.015625,12.8955078 C665.914072,12.8955078 667.4331,13.4843691 668.572754,14.6621094 C669.712408,15.8398496 670.282227,17.4775286 670.282227,19.5751953 C670.282227,21.6552838 669.716803,23.282709 668.585938,24.4575195 C667.455072,25.6323301 665.943369,26.2197266 664.050781,26.2197266 C662.134756,26.2197266 660.611334,25.6352598 659.480469,24.4663086 C658.349604,23.2973574 657.78418,21.6875103 657.78418,19.6367188 Z M660.464844,19.5488281 C660.464844,21.0078198 660.801754,22.1137658 661.475586,22.8666992 C662.149417,23.6196327 663.004878,23.9960938 664.041992,23.9960938 C665.079107,23.9960938 665.930172,23.6225623 666.595215,22.8754883 C667.260257,22.1284142 667.592773,21.00782 667.592773,19.5136719 C667.592773,18.037102 667.269046,16.9355505 666.621582,16.2089844 C665.974118,15.4824182 665.114263,15.1191406 664.041992,15.1191406 C662.969721,15.1191406 662.105472,15.4868127 661.449219,16.222168 C660.792965,16.9575232 660.464844,18.0663988 660.464844,19.5488281 Z M676.177734,8.7734375 C677.075525,8.7734375 677.936845,8.99788187 678.761719,9.44677734 C679.586593,9.89567282 680.234861,10.5393838 680.706543,11.3779297 C681.178225,12.2164755 681.414062,13.0937454 681.414062,14.0097656 C681.414062,14.9212285 681.182782,15.7905232 680.720215,16.6176758 C680.257647,17.4448284 679.612797,18.0896787 678.785645,18.5522461 C677.958492,19.0148135 677.089197,19.2460938 676.177734,19.2460938 C675.266271,19.2460938 674.396977,19.0148135 673.569824,18.5522461 C672.742672,18.0896787 672.097821,17.4448284 671.635254,16.6176758 C671.172686,15.7905232 670.941406,14.9212285 670.941406,14.0097656 C670.941406,13.0937454 671.177244,12.2164755 671.648926,11.3779297 C672.120608,10.5393838 672.768876,9.89567282 673.59375,9.44677734 C674.418624,8.99788187 675.279943,8.7734375 676.177734,8.7734375 Z M676.18457,9.79882812 C675.464515,9.79882812 674.774092,9.97883935 674.113281,10.3388672 C673.452471,10.698895 672.931805,11.2161425 672.55127,11.890625 C672.170734,12.5651075 671.980469,13.2714807 671.980469,14.0097656 C671.980469,14.7434933 672.166177,15.4430305 672.537598,16.1083984 C672.909019,16.7737663 673.427406,17.2932924 674.092773,17.6669922 C674.758141,18.040692 675.4554,18.2275391 676.18457,18.2275391 C676.918298,18.2275391 677.616696,18.040692 678.279785,17.6669922 C678.942874,17.2932924 679.461261,16.7737663 679.834961,16.1083984 C680.208661,15.4430305 680.395508,14.7434933 680.395508,14.0097656 C680.395508,13.2714807 680.205243,12.5651075 679.824707,11.890625 C679.444171,11.2161425 678.922367,10.698895 678.259277,10.3388672 C677.596188,9.97883935 676.904626,9.79882812 676.18457,9.79882812 Z M676.826438,14.381233 C676.992082,14.4443973 677.119921,14.5131198 677.209961,14.5874023 C677.301107,14.662598 677.426431,14.805012 677.585938,15.0146484 C677.626953,15.0693362 677.763671,15.2949199 677.996094,15.6914062 L678.652344,16.8125 L677.257812,16.8125 L676.792969,15.9101562 C676.478514,15.3040334 676.218751,14.9223641 676.013672,14.7651367 C675.808593,14.6079094 675.54883,14.5292969 675.234375,14.5292969 L674.94043,14.5292969 L674.94043,16.8125 L673.8125,16.8125 L673.8125,11.2548828 L674.94043,11.2548828 C675.997727,11.2548828 676.590169,11.2594401 676.717773,11.2685547 C677.091473,11.3004559 677.381998,11.3745111 677.589355,11.4907227 C677.796713,11.6069342 677.969889,11.7846668 678.108887,12.0239258 C678.247885,12.2631848 678.317383,12.5286444 678.317383,12.8203125 C678.317383,13.2213562 678.186362,13.5642889 677.924316,13.8491211 C677.662273,14.1339509 677.294279,14.3105437 676.820324,14.3789046 L676.826438,14.381233 Z M674.94043,13.6542969 L675.398438,13.6542969 C676.050133,13.6542969 676.454589,13.629232 676.611816,13.5791016 C676.769044,13.5289711 676.893229,13.4412441 676.984375,13.315918 C677.075521,13.1905918 677.121094,13.0481779 677.121094,12.8886719 C677.121094,12.7337232 677.076661,12.5958665 676.987793,12.4750977 C676.898925,12.3543288 676.772462,12.2677411 676.608398,12.215332 C676.444335,12.1629229 676.041019,12.1367188 675.398438,12.1367188 L674.94043,12.1367188 L674.94043,13.6542969 Z" id="TEGO®" fill="#373737" fill-rule="nonzero"></path>
        <path d="M313.335938,112 L313.335938,99.1152344 L315.902344,99.1152344 L318.952148,108.238281 C319.2334,109.087895 319.438476,109.723631 319.567383,110.145508 C319.713868,109.676755 319.942381,108.988286 320.25293,108.080078 L323.337891,99.1152344 L325.631836,99.1152344 L325.631836,112 L323.988281,112 L323.988281,101.21582 L320.244141,112 L318.706055,112 L314.979492,101.03125 L314.979492,112 L313.335938,112 Z M328.189453,100.93457 L328.189453,99.1152344 L329.771484,99.1152344 L329.771484,100.93457 L328.189453,100.93457 Z M328.189453,112 L328.189453,102.666016 L329.771484,102.666016 L329.771484,112 L328.189453,112 Z M332.179688,112 L332.179688,102.666016 L333.603516,102.666016 L333.603516,103.993164 C334.289066,102.967768 335.27929,102.455078 336.574219,102.455078 C337.136722,102.455078 337.653806,102.556151 338.125488,102.758301 C338.59717,102.96045 338.950194,103.225584 339.18457,103.553711 C339.418946,103.881838 339.583007,104.271482 339.676758,104.722656 C339.735352,105.015626 339.764648,105.528317 339.764648,106.260742 L339.764648,112 L338.182617,112 L338.182617,106.322266 C338.182617,105.677731 338.121094,105.195802 337.998047,104.876465 C337.874999,104.557127 337.65674,104.302247 337.343262,104.111816 C337.029784,103.921386 336.662111,103.826172 336.240234,103.826172 C335.566403,103.826172 334.984866,104.040037 334.495605,104.467773 C334.006345,104.89551 333.761719,105.707025 333.761719,106.902344 L333.761719,112 L332.179688,112 Z M342.199219,100.93457 L342.199219,99.1152344 L343.78125,99.1152344 L343.78125,100.93457 L342.199219,100.93457 Z M342.199219,112 L342.199219,102.666016 L343.78125,102.666016 L343.78125,112 L342.199219,112 Z M345.574219,108.132812 L345.574219,106.541992 L350.43457,106.541992 L350.43457,108.132812 L345.574219,108.132812 Z M352.385742,112 L352.385742,99.1152344 L357.246094,99.1152344 C358.101567,99.1152344 358.754881,99.1562496 359.206055,99.2382812 C359.83887,99.3437505 360.369138,99.5444321 360.796875,99.840332 C361.224612,100.136232 361.568846,100.550779 361.82959,101.083984 C362.090333,101.61719 362.220703,102.203122 362.220703,102.841797 C362.220703,103.937505 361.872074,104.864742 361.174805,105.623535 C360.477536,106.382328 359.217783,106.761719 357.395508,106.761719 L354.09082,106.761719 L354.09082,112 L352.385742,112 Z M354.09082,105.241211 L357.421875,105.241211 C358.523443,105.241211 359.305662,105.036135 359.768555,104.625977 C360.231448,104.215818 360.462891,103.638676 360.462891,102.894531 C360.462891,102.355466 360.326662,101.894045 360.054199,101.510254 C359.781737,101.126463 359.422854,100.873047 358.977539,100.75 C358.690428,100.673828 358.16016,100.635742 357.386719,100.635742 L354.09082,100.635742 L354.09082,105.241211 Z M364.154297,112 L364.154297,99.1152344 L365.736328,99.1152344 L365.736328,112 L364.154297,112 Z M374.279297,110.848633 C373.693356,111.346682 373.129397,111.698241 372.587402,111.90332 C372.045407,112.108399 371.46387,112.210938 370.842773,112.210938 C369.817378,112.210938 369.0293,111.960452 368.478516,111.459473 C367.927732,110.958494 367.652344,110.318363 367.652344,109.539062 C367.652344,109.082029 367.756347,108.664553 367.964355,108.286621 C368.172364,107.90869 368.444823,107.60547 368.781738,107.376953 C369.118654,107.148436 369.498045,106.975587 369.919922,106.858398 C370.23047,106.776367 370.699216,106.697266 371.326172,106.621094 C372.603522,106.468749 373.543942,106.28711 374.147461,106.076172 C374.15332,105.859374 374.15625,105.72168 374.15625,105.663086 C374.15625,105.018551 374.006837,104.564454 373.708008,104.300781 C373.303709,103.943358 372.703129,103.764648 371.90625,103.764648 C371.162106,103.764648 370.612795,103.895018 370.258301,104.155762 C369.903807,104.416505 369.641602,104.877926 369.47168,105.540039 L367.924805,105.329102 C368.06543,104.666989 368.296873,104.132326 368.619141,103.725098 C368.941408,103.317869 369.407224,103.004396 370.016602,102.784668 C370.62598,102.56494 371.332027,102.455078 372.134766,102.455078 C372.931645,102.455078 373.579099,102.548827 374.077148,102.736328 C374.575198,102.923829 374.941405,103.159667 375.175781,103.443848 C375.410157,103.728029 375.574218,104.086912 375.667969,104.520508 C375.720703,104.79004 375.74707,105.276364 375.74707,105.979492 L375.74707,108.088867 C375.74707,109.559578 375.780761,110.489744 375.848145,110.879395 C375.915528,111.269045 376.048827,111.642576 376.248047,112 L374.595703,112 C374.43164,111.671873 374.326172,111.288088 374.279297,110.848633 Z M374.147461,107.31543 C373.573239,107.549806 372.71192,107.749023 371.563477,107.913086 C370.913083,108.006836 370.453126,108.112304 370.183594,108.229492 C369.914061,108.34668 369.706055,108.518065 369.55957,108.743652 C369.413085,108.969239 369.339844,109.219725 369.339844,109.495117 C369.339844,109.916994 369.49951,110.268553 369.818848,110.549805 C370.138185,110.831056 370.605466,110.97168 371.220703,110.97168 C371.830081,110.97168 372.372068,110.83838 372.84668,110.571777 C373.321291,110.305174 373.669921,109.940432 373.892578,109.477539 C374.062501,109.120115 374.147461,108.592777 374.147461,107.895508 L374.147461,107.31543 Z M377.566406,109.213867 L379.130859,108.967773 C379.21875,109.59473 379.463377,110.075194 379.864746,110.40918 C380.266115,110.743166 380.827145,110.910156 381.547852,110.910156 C382.274418,110.910156 382.813475,110.762209 383.165039,110.466309 C383.516603,110.170409 383.692383,109.823244 383.692383,109.424805 C383.692383,109.067381 383.537111,108.786134 383.226562,108.581055 C383.009765,108.440429 382.470707,108.26172 381.609375,108.044922 C380.449213,107.751952 379.645022,107.498536 379.196777,107.284668 C378.748533,107.0708 378.408693,106.774904 378.177246,106.396973 C377.9458,106.019041 377.830078,105.601565 377.830078,105.144531 C377.830078,104.728514 377.925292,104.343263 378.115723,103.98877 C378.306153,103.634276 378.565428,103.339845 378.893555,103.105469 C379.13965,102.923827 379.475096,102.77002 379.899902,102.644043 C380.324709,102.518066 380.780271,102.455078 381.266602,102.455078 C381.999027,102.455078 382.642087,102.560546 383.195801,102.771484 C383.749514,102.982423 384.158202,103.268065 384.421875,103.628418 C384.685548,103.988771 384.867187,104.4707 384.966797,105.074219 L383.419922,105.285156 C383.349609,104.804685 383.145998,104.429689 382.809082,104.160156 C382.472166,103.890624 381.996097,103.755859 381.380859,103.755859 C380.654293,103.755859 380.135744,103.875975 379.825195,104.116211 C379.514647,104.356447 379.359375,104.637694 379.359375,104.959961 C379.359375,105.16504 379.423827,105.349609 379.552734,105.513672 C379.681641,105.683595 379.883788,105.824218 380.15918,105.935547 C380.317384,105.994141 380.783199,106.128905 381.556641,106.339844 C382.675787,106.638673 383.456541,106.8833 383.898926,107.07373 C384.341311,107.264161 384.688475,107.541014 384.94043,107.904297 C385.192384,108.26758 385.318359,108.718747 385.318359,109.257812 C385.318359,109.785159 385.164552,110.281736 384.856934,110.747559 C384.549315,111.213381 384.105472,111.573729 383.525391,111.828613 C382.94531,112.083497 382.289066,112.210938 381.556641,112.210938 C380.343744,112.210938 379.419437,111.958987 378.783691,111.455078 C378.147946,110.951169 377.742188,110.204107 377.566406,109.213867 Z M393.290039,108.581055 L394.845703,108.783203 C394.67578,109.855474 394.240726,110.694821 393.540527,111.30127 C392.840329,111.907718 391.980474,112.210938 390.960938,112.210938 C389.683587,112.210938 388.656742,111.793461 387.880371,110.958496 C387.104,110.123531 386.71582,108.926766 386.71582,107.368164 C386.71582,106.360347 386.882811,105.478519 387.216797,104.722656 C387.550783,103.966793 388.059079,103.399904 388.741699,103.021973 C389.42432,102.644041 390.166988,102.455078 390.969727,102.455078 C391.983404,102.455078 392.812497,102.711423 393.457031,103.224121 C394.101566,103.736819 394.514648,104.464839 394.696289,105.408203 L393.158203,105.645508 C393.011718,105.018552 392.752443,104.546877 392.380371,104.230469 C392.008299,103.914061 391.558596,103.755859 391.03125,103.755859 C390.234371,103.755859 389.586917,104.041501 389.088867,104.612793 C388.590818,105.184085 388.341797,106.087884 388.341797,107.324219 C388.341797,108.578131 388.582029,109.489255 389.0625,110.057617 C389.542971,110.625979 390.169918,110.910156 390.943359,110.910156 C391.564456,110.910156 392.083006,110.719728 392.499023,110.338867 C392.915041,109.958006 393.17871,109.372074 393.290039,108.581055 Z M395.610352,107.333008 C395.610352,105.604484 396.090816,104.324223 397.051758,103.492188 C397.854496,102.800778 398.833002,102.455078 399.987305,102.455078 C401.270514,102.455078 402.319332,102.875484 403.133789,103.716309 C403.948246,104.557133 404.355469,105.718743 404.355469,107.201172 C404.355469,108.40235 404.175295,109.347165 403.814941,110.035645 C403.454588,110.724125 402.930179,111.258787 402.241699,111.639648 C401.553219,112.02051 400.801762,112.210938 399.987305,112.210938 C398.680658,112.210938 397.624516,111.791996 396.818848,110.954102 C396.01318,110.116207 395.610352,108.909188 395.610352,107.333008 Z M397.236328,107.333008 C397.236328,108.528326 397.497068,109.423337 398.018555,110.018066 C398.540042,110.612796 399.196285,110.910156 399.987305,110.910156 C400.772465,110.910156 401.425779,110.611331 401.947266,110.013672 C402.468753,109.416013 402.729492,108.504889 402.729492,107.280273 C402.729492,106.125971 402.467288,105.251468 401.942871,104.656738 C401.418454,104.062009 400.766605,103.764648 399.987305,103.764648 C399.196285,103.764648 398.540042,104.060544 398.018555,104.652344 C397.497068,105.244144 397.236328,106.137689 397.236328,107.333008 Z M420.606445,107.482422 L422.311523,107.913086 C421.9541,109.313484 421.31104,110.381344 420.382324,111.116699 C419.453609,111.852054 418.318366,112.219727 416.976562,112.219727 C415.587884,112.219727 414.4585,111.937015 413.588379,111.371582 C412.718257,110.80615 412.056155,109.98731 411.602051,108.915039 C411.147947,107.842768 410.920898,106.691412 410.920898,105.460938 C410.920898,104.119134 411.177244,102.948735 411.689941,101.949707 C412.202639,100.950679 412.932124,100.191897 413.878418,99.6733398 C414.824712,99.1547826 415.866205,98.8955078 417.00293,98.8955078 C418.291999,98.8955078 419.375972,99.2236295 420.254883,99.8798828 C421.133793,100.536136 421.746092,101.458978 422.091797,102.648438 L420.413086,103.043945 C420.114256,102.106441 419.680667,101.42383 419.112305,100.996094 C418.543942,100.568357 417.829106,100.354492 416.967773,100.354492 C415.977534,100.354492 415.149906,100.591795 414.484863,101.066406 C413.819821,101.541018 413.35254,102.178219 413.083008,102.978027 C412.813475,103.777836 412.678711,104.602535 412.678711,105.452148 C412.678711,106.547857 412.838377,107.50439 413.157715,108.321777 C413.477052,109.139164 413.973629,109.749998 414.647461,110.154297 C415.321292,110.558596 416.050777,110.760742 416.835938,110.760742 C417.79102,110.760742 418.599606,110.485354 419.261719,109.93457 C419.923831,109.383786 420.372069,108.566412 420.606445,107.482422 Z M423.621094,107.333008 C423.621094,105.604484 424.101558,104.324223 425.0625,103.492188 C425.865238,102.800778 426.843744,102.455078 427.998047,102.455078 C429.281256,102.455078 430.330074,102.875484 431.144531,103.716309 C431.958988,104.557133 432.366211,105.718743 432.366211,107.201172 C432.366211,108.40235 432.186037,109.347165 431.825684,110.035645 C431.46533,110.724125 430.940921,111.258787 430.252441,111.639648 C429.563961,112.02051 428.812504,112.210938 427.998047,112.210938 C426.6914,112.210938 425.635258,111.791996 424.82959,110.954102 C424.023922,110.116207 423.621094,108.909188 423.621094,107.333008 Z M425.24707,107.333008 C425.24707,108.528326 425.50781,109.423337 426.029297,110.018066 C426.550784,110.612796 427.207027,110.910156 427.998047,110.910156 C428.783207,110.910156 429.436521,110.611331 429.958008,110.013672 C430.479495,109.416013 430.740234,108.504889 430.740234,107.280273 C430.740234,106.125971 430.47803,105.251468 429.953613,104.656738 C429.429197,104.062009 428.777348,103.764648 427.998047,103.764648 C427.207027,103.764648 426.550784,104.060544 426.029297,104.652344 C425.50781,105.244144 425.24707,106.137689 425.24707,107.333008 Z M434.220703,112 L434.220703,102.666016 L435.644531,102.666016 L435.644531,103.993164 C436.330082,102.967768 437.320306,102.455078 438.615234,102.455078 C439.177737,102.455078 439.694822,102.556151 440.166504,102.758301 C440.638186,102.96045 440.99121,103.225584 441.225586,103.553711 C441.459962,103.881838 441.624023,104.271482 441.717773,104.722656 C441.776367,105.015626 441.805664,105.528317 441.805664,106.260742 L441.805664,112 L440.223633,112 L440.223633,106.322266 C440.223633,105.677731 440.16211,105.195802 440.039062,104.876465 C439.916015,104.557127 439.697755,104.302247 439.384277,104.111816 C439.070799,103.921386 438.703127,103.826172 438.28125,103.826172 C437.607419,103.826172 437.025881,104.040037 436.536621,104.467773 C436.047361,104.89551 435.802734,105.707025 435.802734,106.902344 L435.802734,112 L434.220703,112 Z M444.231445,112 L444.231445,102.666016 L445.655273,102.666016 L445.655273,103.993164 C446.340824,102.967768 447.331048,102.455078 448.625977,102.455078 C449.188479,102.455078 449.705564,102.556151 450.177246,102.758301 C450.648928,102.96045 451.001952,103.225584 451.236328,103.553711 C451.470704,103.881838 451.634765,104.271482 451.728516,104.722656 C451.78711,105.015626 451.816406,105.528317 451.816406,106.260742 L451.816406,112 L450.234375,112 L450.234375,106.322266 C450.234375,105.677731 450.172852,105.195802 450.049805,104.876465 C449.926757,104.557127 449.708498,104.302247 449.39502,104.111816 C449.081541,103.921386 448.713869,103.826172 448.291992,103.826172 C447.618161,103.826172 447.036624,104.040037 446.547363,104.467773 C446.058103,104.89551 445.813477,105.707025 445.813477,106.902344 L445.813477,112 L444.231445,112 Z M460.631836,108.994141 L462.266602,109.196289 C462.008788,110.151372 461.531253,110.892575 460.833984,111.419922 C460.136715,111.947268 459.246099,112.210938 458.162109,112.210938 C456.796868,112.210938 455.714359,111.790532 454.914551,110.949707 C454.114742,110.108883 453.714844,108.929695 453.714844,107.412109 C453.714844,105.841789 454.119137,104.623051 454.927734,103.755859 C455.736332,102.888668 456.78515,102.455078 458.074219,102.455078 C459.322272,102.455078 460.341793,102.879879 461.132812,103.729492 C461.923832,104.579106 462.319336,105.774406 462.319336,107.31543 C462.319336,107.40918 462.316406,107.549804 462.310547,107.737305 L455.349609,107.737305 C455.408203,108.7627 455.69824,109.547849 456.219727,110.092773 C456.741214,110.637698 457.391598,110.910156 458.170898,110.910156 C458.750979,110.910156 459.246092,110.757814 459.65625,110.453125 C460.066408,110.148436 460.3916,109.662113 460.631836,108.994141 Z M455.4375,106.436523 L460.649414,106.436523 C460.579101,105.651363 460.379884,105.062502 460.051758,104.669922 C459.547849,104.060544 458.894535,103.755859 458.091797,103.755859 C457.365231,103.755859 456.754397,103.999021 456.259277,104.485352 C455.764158,104.971682 455.490235,105.622066 455.4375,106.436523 Z M470.34375,108.581055 L471.899414,108.783203 C471.729491,109.855474 471.294437,110.694821 470.594238,111.30127 C469.894039,111.907718 469.034185,112.210938 468.014648,112.210938 C466.737298,112.210938 465.710453,111.793461 464.934082,110.958496 C464.157711,110.123531 463.769531,108.926766 463.769531,107.368164 C463.769531,106.360347 463.936522,105.478519 464.270508,104.722656 C464.604494,103.966793 465.11279,103.399904 465.79541,103.021973 C466.478031,102.644041 467.220699,102.455078 468.023438,102.455078 C469.037114,102.455078 469.866208,102.711423 470.510742,103.224121 C471.155277,103.736819 471.568358,104.464839 471.75,105.408203 L470.211914,105.645508 C470.065429,105.018552 469.806154,104.546877 469.434082,104.230469 C469.06201,103.914061 468.612307,103.755859 468.084961,103.755859 C467.288082,103.755859 466.640627,104.041501 466.142578,104.612793 C465.644529,105.184085 465.395508,106.087884 465.395508,107.324219 C465.395508,108.578131 465.63574,109.489255 466.116211,110.057617 C466.596682,110.625979 467.223629,110.910156 467.99707,110.910156 C468.618167,110.910156 469.136717,110.719728 469.552734,110.338867 C469.968752,109.958006 470.232421,109.372074 470.34375,108.581055 Z M476.707031,110.584961 L476.935547,111.982422 C476.490232,112.076172 476.091799,112.123047 475.740234,112.123047 C475.166013,112.123047 474.720705,112.032227 474.404297,111.850586 C474.087889,111.668944 473.865235,111.430177 473.736328,111.134277 C473.607421,110.838377 473.542969,110.215825 473.542969,109.266602 L473.542969,103.896484 L472.382812,103.896484 L472.382812,102.666016 L473.542969,102.666016 L473.542969,100.354492 L475.116211,99.4052734 L475.116211,102.666016 L476.707031,102.666016 L476.707031,103.896484 L475.116211,103.896484 L475.116211,109.354492 C475.116211,109.805666 475.144043,110.095702 475.199707,110.224609 C475.255371,110.353516 475.346191,110.456054 475.472168,110.532227 C475.598145,110.608399 475.778319,110.646484 476.012695,110.646484 C476.188477,110.646484 476.41992,110.625977 476.707031,110.584961 Z M482.249023,94.8076172 C483.114913,94.8076172 483.960282,95.0297829 484.785156,95.4741211 C485.61003,95.9184593 486.252602,96.5541951 486.712891,97.3813477 C487.173179,98.2085002 487.40332,99.0709591 487.40332,99.96875 C487.40332,100.857426 487.176597,101.71191 486.723145,102.532227 C486.269692,103.352543 485.633956,103.989418 484.815918,104.442871 C483.99788,104.896324 483.142257,105.123047 482.249023,105.123047 C481.35579,105.123047 480.500167,104.896324 479.682129,104.442871 C478.864091,103.989418 478.227216,103.352543 477.771484,102.532227 C477.315753,101.71191 477.087891,100.857426 477.087891,99.96875 C477.087891,99.0709591 477.319171,98.2085002 477.781738,97.3813477 C478.244306,96.5541951 478.888017,95.9184593 479.712891,95.4741211 C480.537765,95.0297829 481.383134,94.8076172 482.249023,94.8076172 Z M482.249023,95.6621094 C481.52441,95.6621094 480.819177,95.8478172 480.133301,96.2192383 C479.447425,96.5906594 478.910809,97.1215786 478.523438,97.8120117 C478.136066,98.5024449 477.942383,99.2213504 477.942383,99.96875 C477.942383,100.711592 478.132648,101.423662 478.513184,102.10498 C478.893719,102.786299 479.425778,103.317218 480.109375,103.697754 C480.792972,104.07829 481.506181,104.268555 482.249023,104.268555 C482.991866,104.268555 483.705075,104.07829 484.388672,103.697754 C485.072269,103.317218 485.603188,102.786299 485.981445,102.10498 C486.359702,101.423662 486.548828,100.711592 486.548828,99.96875 C486.548828,99.2213504 486.356284,98.5024449 485.971191,97.8120117 C485.586098,97.1215786 485.049483,96.5906594 484.361328,96.2192383 C483.673174,95.8478172 482.969079,95.6621094 482.249023,95.6621094 Z M479.986328,102.819336 L479.986328,97.2685547 L481.893555,97.2685547 C482.545251,97.2685547 483.016926,97.3198237 483.308594,97.4223633 C483.600262,97.5249029 483.832681,97.7037748 484.005859,97.9589844 C484.179037,98.214194 484.265625,98.4853501 484.265625,98.7724609 C484.265625,99.1780619 484.120932,99.5312485 483.831543,99.8320312 C483.542154,100.132814 483.158206,100.301432 482.679688,100.337891 C482.875652,100.419922 483.032877,100.517903 483.151367,100.631836 C483.374676,100.850587 483.64811,101.217445 483.97168,101.732422 L484.648438,102.819336 L483.554688,102.819336 L483.0625,101.944336 C482.675128,101.256181 482.362957,100.825522 482.125977,100.652344 C481.961913,100.524739 481.722658,100.460938 481.408203,100.460938 L480.881836,100.460938 L480.881836,102.819336 L479.986328,102.819336 Z M480.881836,99.6953125 L481.96875,99.6953125 C482.488284,99.6953125 482.84261,99.6178393 483.031738,99.4628906 C483.220867,99.3079419 483.31543,99.1028659 483.31543,98.8476562 C483.31543,98.6835929 483.269857,98.5366217 483.178711,98.4067383 C483.087565,98.2768548 482.961101,98.1800133 482.799316,98.1162109 C482.637532,98.0524085 482.337893,98.0205078 481.900391,98.0205078 L480.881836,98.0205078 L480.881836,99.6953125 Z M491.364258,112 L496.3125,99.1152344 L498.149414,99.1152344 L503.422852,112 L501.480469,112 L499.977539,108.097656 L494.589844,108.097656 L493.174805,112 L491.364258,112 Z M495.082031,106.708984 L499.450195,106.708984 L498.105469,103.140625 C497.69531,102.056635 497.390626,101.166019 497.191406,100.46875 C497.027343,101.294926 496.7959,102.11523 496.49707,102.929688 L495.082031,106.708984 Z M504.583008,112 L504.583008,102.666016 L505.998047,102.666016 L505.998047,103.975586 C506.291017,103.518552 506.680662,103.15088 507.166992,102.872559 C507.653323,102.594237 508.207028,102.455078 508.828125,102.455078 C509.519535,102.455078 510.086424,102.598631 510.528809,102.885742 C510.971194,103.172853 511.283202,103.574216 511.464844,104.089844 C512.203129,102.999995 513.164057,102.455078 514.347656,102.455078 C515.273442,102.455078 515.985349,102.711423 516.483398,103.224121 C516.981448,103.736819 517.230469,104.526362 517.230469,105.592773 L517.230469,112 L515.657227,112 L515.657227,106.120117 C515.657227,105.487302 515.605958,105.03174 515.503418,104.753418 C515.400878,104.475096 515.214845,104.250977 514.945312,104.081055 C514.67578,103.911132 514.359377,103.826172 513.996094,103.826172 C513.33984,103.826172 512.794924,104.044431 512.361328,104.480957 C511.927732,104.917483 511.710938,105.616206 511.710938,106.577148 L511.710938,112 L510.128906,112 L510.128906,105.935547 C510.128906,105.232418 510.000001,104.70508 509.742188,104.353516 C509.484374,104.001951 509.062503,103.826172 508.476562,103.826172 C508.031248,103.826172 507.619631,103.943358 507.241699,104.177734 C506.863768,104.412111 506.589845,104.754881 506.419922,105.206055 C506.249999,105.657229 506.165039,106.307613 506.165039,107.157227 L506.165039,112 L504.583008,112 Z M519.577148,115.577148 L519.577148,102.666016 L521.018555,102.666016 L521.018555,103.878906 C521.3584,103.404295 521.742185,103.048341 522.169922,102.811035 C522.597658,102.573729 523.116208,102.455078 523.725586,102.455078 C524.522465,102.455078 525.225583,102.660154 525.834961,103.070312 C526.444339,103.480471 526.904295,104.059078 527.214844,104.806152 C527.525392,105.553226 527.680664,106.372066 527.680664,107.262695 C527.680664,108.217778 527.509279,109.077633 527.166504,109.842285 C526.823729,110.606937 526.325687,111.192869 525.672363,111.600098 C525.01904,112.007326 524.332035,112.210938 523.611328,112.210938 C523.083982,112.210938 522.610842,112.09961 522.191895,111.876953 C521.772947,111.654296 521.428712,111.373049 521.15918,111.033203 L521.15918,115.577148 L519.577148,115.577148 Z M521.009766,107.385742 C521.009766,108.58692 521.252927,109.474607 521.739258,110.048828 C522.225588,110.62305 522.81445,110.910156 523.505859,110.910156 C524.208988,110.910156 524.811033,110.612796 525.312012,110.018066 C525.812991,109.423337 526.063477,108.501959 526.063477,107.253906 C526.063477,106.064447 525.81885,105.173831 525.32959,104.582031 C524.84033,103.990231 524.255863,103.694336 523.576172,103.694336 C522.90234,103.694336 522.306155,104.009274 521.787598,104.63916 C521.26904,105.269046 521.009766,106.184564 521.009766,107.385742 Z M528.999023,107.333008 C528.999023,105.604484 529.479487,104.324223 530.44043,103.492188 C531.243168,102.800778 532.221674,102.455078 533.375977,102.455078 C534.659186,102.455078 535.708004,102.875484 536.522461,103.716309 C537.336918,104.557133 537.744141,105.718743 537.744141,107.201172 C537.744141,108.40235 537.563967,109.347165 537.203613,110.035645 C536.84326,110.724125 536.318851,111.258787 535.630371,111.639648 C534.941891,112.02051 534.190434,112.210938 533.375977,112.210938 C532.069329,112.210938 531.013188,111.791996 530.20752,110.954102 C529.401851,110.116207 528.999023,108.909188 528.999023,107.333008 Z M530.625,107.333008 C530.625,108.528326 530.88574,109.423337 531.407227,110.018066 C531.928714,110.612796 532.584957,110.910156 533.375977,110.910156 C534.161137,110.910156 534.814451,110.611331 535.335938,110.013672 C535.857424,109.416013 536.118164,108.504889 536.118164,107.280273 C536.118164,106.125971 535.85596,105.251468 535.331543,104.656738 C534.807126,104.062009 534.155277,103.764648 533.375977,103.764648 C532.584957,103.764648 531.928714,104.060544 531.407227,104.652344 C530.88574,105.244144 530.625,106.137689 530.625,107.333008 Z M545.71582,112 L545.71582,110.628906 C544.989254,111.683599 544.001959,112.210938 542.753906,112.210938 C542.203122,112.210938 541.688967,112.10547 541.211426,111.894531 C540.733884,111.683593 540.379396,111.418459 540.147949,111.099121 C539.916503,110.779784 539.753907,110.388674 539.660156,109.925781 C539.595703,109.615233 539.563477,109.12305 539.563477,108.449219 L539.563477,102.666016 L541.145508,102.666016 L541.145508,107.842773 C541.145508,108.668949 541.177734,109.225585 541.242188,109.512695 C541.341797,109.928713 541.552733,110.25537 541.875,110.492676 C542.197267,110.729982 542.595701,110.848633 543.070312,110.848633 C543.544924,110.848633 543.990232,110.727052 544.40625,110.483887 C544.822268,110.240721 545.116698,109.90967 545.289551,109.490723 C545.462403,109.071775 545.548828,108.463871 545.548828,107.666992 L545.548828,102.666016 L547.130859,102.666016 L547.130859,112 L545.71582,112 Z M549.574219,112 L549.574219,99.1152344 L551.15625,99.1152344 L551.15625,112 L549.574219,112 Z M559.998047,108.994141 L561.632812,109.196289 C561.374999,110.151372 560.897464,110.892575 560.200195,111.419922 C559.502926,111.947268 558.61231,112.210938 557.52832,112.210938 C556.163079,112.210938 555.08057,111.790532 554.280762,110.949707 C553.480953,110.108883 553.081055,108.929695 553.081055,107.412109 C553.081055,105.841789 553.485348,104.623051 554.293945,103.755859 C555.102543,102.888668 556.151361,102.455078 557.44043,102.455078 C558.688483,102.455078 559.708004,102.879879 560.499023,103.729492 C561.290043,104.579106 561.685547,105.774406 561.685547,107.31543 C561.685547,107.40918 561.682617,107.549804 561.676758,107.737305 L554.71582,107.737305 C554.774414,108.7627 555.064451,109.547849 555.585938,110.092773 C556.107424,110.637698 556.757809,110.910156 557.537109,110.910156 C558.11719,110.910156 558.612303,110.757814 559.022461,110.453125 C559.432619,110.148436 559.757811,109.662113 559.998047,108.994141 Z M554.803711,106.436523 L560.015625,106.436523 C559.945312,105.651363 559.746095,105.062502 559.417969,104.669922 C558.91406,104.060544 558.260746,103.755859 557.458008,103.755859 C556.731442,103.755859 556.120608,103.999021 555.625488,104.485352 C555.130369,104.971682 554.856446,105.622066 554.803711,106.436523 Z" id="Mini-PlascoConnect®Ampoule" fill="#FFFFFF" fill-rule="nonzero"></path>
        <text id="Luer-Lock-/-Luer-Sli" font-family="ArialMT, Arial" font-size="18" font-weight="normal" fill="#FFFFFF">
            <tspan x="312" y="155">Luer Lock / Luer Slip Syringe</tspan>
        </text>
        <text id="Lock-Solution" font-family="ArialMT, Arial" font-size="18" font-weight="normal" fill="#373737">
            <tspan x="1" y="69">Lock Solution</tspan>
        </text>
        <text id="Container" font-family="ArialMT, Arial" font-size="18" font-weight="normal" fill="#373737">
            <tspan x="0" y="112">Container</tspan>
        </text>
        <text id="Draw-up-Device-per-T" font-family="ArialMT, Arial" font-size="18" font-weight="normal" fill="#373737">
            <tspan x="1" y="155">Draw-up Device per Treatment</tspan>
        </text>
        <path d="M0.5,84.5 L911.59275,84.5" id="Line" stroke="#FFFFFF" stroke-linecap="square"></path>
        <path d="M0.5,127.5 L911.59275,127.5" id="Line" stroke="#FFFFFF" stroke-linecap="square"></path>
        <path d="M0.5,41.5 L911.59275,41.5" id="Line" stroke="#FFFFFF" stroke-linecap="square"></path>
    </g>
</svg>