<?xml version="1.0" encoding="UTF-8"?>
<svg width="65px" height="68px" viewBox="0 0 65 68" version="1.1" xmlns="http://www.w3.org/2000/svg" xmlns:xlink="http://www.w3.org/1999/xlink">
    <!-- Generator: Sketch 48.2 (47327) - http://www.bohemiancoding.com/sketch -->
    <title>icons/white/employees</title>
    <desc>Created with Sketch.</desc>
    <defs></defs>
    <g id="y.Symbols" stroke="none" stroke-width="1" fill="none" fill-rule="evenodd">
        <g id="icons/white/employees" fill="#FFFFFF" fill-rule="nonzero">
            <path d="M9.39978829,5.00078125 C11.0976904,5.00723954 11.9854744,5.91910879 11.9889217,7.65555618 C11.9950052,10.0755409 12.0152835,16.617583 11.9785797,17.4682027 C11.9497845,18.1646566 11.4629026,18.6186121 10.8336669,18.6196537 C10.1957116,18.6215287 9.73356911,18.1731982 9.67577595,17.4796609 C9.65772826,17.2686206 9.67577595,12.4805258 9.65772826,10.2997062 C9.65772826,9.78991773 9.08628576,9.90158369 9.08628576,10.3161644 C9.08628576,10.590121 9.07695774,23.7146216 9.07594383,30.1772892 C9.07594383,31.3162404 8.55986109,31.9810279 7.67958007,31.9995694 C6.74758939,32.0179026 6.22339533,31.36999 6.22035359,30.164581 C6.21467566,28.4702167 6.20534764,20.7115156 6.20433373,19.3277743 C6.20433373,19.0421511 5.79491485,19.0431927 5.79491485,19.3277743 C5.79268423,20.7115156 5.78457291,28.4712583 5.77889499,30.164581 C5.77585324,31.3701984 5.25165918,32.0191526 4.3196685,31.9995694 C3.43938749,31.9810279 2.92391309,31.3162404 2.92391309,30.1772892 C2.92127692,23.7144133 2.91296281,10.590121 2.91296281,10.3161644 C2.91296281,9.90137536 2.34152031,9.7897094 2.34152031,10.2997062 C2.32347262,12.4805258 2.34152031,17.2686206 2.32347262,17.4796609 C2.26588225,18.1731982 1.80394257,18.6206954 1.16558168,18.6196537 C0.536548804,18.6186121 0.0494640317,18.1648649 0.0206688453,17.4682027 C-0.0150209632,16.617583 0.00525733711,10.0755409 0.0103269122,7.65555618 C0.0153964872,5.91910879 0.903586039,5.00723954 2.60108255,5.00078125 C3.16056086,4.99973958 8.84112111,4.99973958 9.39978829,5.00078125 Z M6.25846072,4.99982054 C4.91254946,4.98346754 3.80969561,3.87146343 3.80005222,2.51858403 C3.79106632,1.13786034 4.92635705,0.00110574176 6.31412941,8.09218439e-07 C7.70146344,-0.00110412332 8.80979649,1.12946285 8.79993392,2.53493704 C8.79029053,3.94262109 7.68414916,5.01595255 6.25846072,4.99982054 Z M26.3988973,5.00078125 C28.0963186,5.00723954 28.9838605,5.91910879 28.9893354,7.65555618 C28.9956214,10.0755409 29.0146821,16.617583 28.9785884,17.4682027 C28.9504028,18.1646566 28.4633396,18.6186121 27.8337263,18.6196537 C27.1947853,18.6215287 26.7340827,18.1731982 26.6758866,17.4796609 C26.6578397,17.2686206 26.6758866,12.4805258 26.6578397,10.2997062 C26.6578397,9.78991773 26.0864225,9.90158369 26.0864225,10.3161644 C26.0864225,10.590121 26.0770949,23.7146216 26.076081,30.1772892 C26.076081,31.3162404 25.5602239,31.9810279 24.6797791,31.9995694 C23.7468159,32.0179026 23.2228478,31.36999 23.2196034,30.164581 C23.215548,28.4702167 23.2058148,20.7115156 23.2048009,19.3277743 C23.2048009,19.0421511 22.7960085,19.0431927 22.7960085,19.3277743 C22.7933724,20.7115156 22.7850587,28.4712583 22.7799894,30.164581 C22.7759339,31.3701984 22.251763,32.0191526 21.3194081,31.9995694 C20.4391661,31.9810279 19.9237145,31.3162404 19.9237145,30.1772892 C19.9227006,23.7144133 19.9129675,10.590121 19.9129675,10.3161644 C19.9129675,9.90137536 19.3415503,9.7897094 19.3415503,10.2997062 C19.3235034,12.4805258 19.3415503,17.2686206 19.3235034,17.4796609 C19.2657128,18.1731982 18.8039964,18.6206954 18.1660693,18.6196537 C17.536456,18.6186121 17.0504067,18.1648649 17.0210044,17.4682027 C16.9849106,16.617583 17.005188,10.0755409 17.0102574,7.65555618 C17.0145157,5.91910879 17.903477,5.00723954 19.5998844,5.00078125 C20.1599462,4.99973958 25.8386327,4.99973958 26.3988973,5.00078125 Z M23.0576703,4.99982054 C21.712231,4.98346754 20.60773,3.87146343 20.6000568,2.51858403 C20.5906297,1.13786034 21.7251659,0.00110574176 23.1144519,8.09218439e-07 C24.5008879,-0.00110412332 25.6115275,1.12946285 25.5999081,2.53493704 C25.5909195,3.94262109 24.4826915,5.01595255 23.0576703,4.99982054 Z M45.3957459,5.00078125 C47.0934269,5.00723954 47.9818002,5.91910879 47.9911259,7.65555618 C47.9951806,10.0755409 48.0146429,16.617583 47.9785565,17.4682027 C47.9499712,18.1646566 47.4628053,18.6186121 46.8329158,18.6196537 C46.1967416,18.6215287 45.7345117,18.1731982 45.6757193,17.4796609 C45.659298,17.2686206 45.6757193,12.4805258 45.659298,10.2997062 C45.659298,9.78991773 45.0869845,9.90158369 45.0869845,10.3161644 C45.0869845,10.590121 45.0766451,23.7146216 45.0766451,30.1772892 C45.0766451,31.3162404 44.5608939,31.9810279 43.6806299,31.9995694 C42.7488719,32.0179026 42.2229841,31.36999 42.2209567,30.164581 C42.2136584,28.4702167 42.2075764,20.7115156 42.2055491,19.3277743 C42.2055491,19.0421511 41.7958269,19.0431927 41.7958269,19.3277743 C41.7927859,20.7115156 41.7854876,28.4712583 41.7783919,30.164581 C41.7763646,31.3701984 41.2514905,32.0191526 40.3207461,31.9995694 C39.4394684,31.9810279 38.9237172,31.3162404 38.9237172,30.1772892 C38.9237172,23.7144133 38.9143915,10.590121 38.9143915,10.3161644 C38.9143915,9.90137536 38.3430917,9.7897094 38.3430917,10.2997062 C38.3244403,12.4805258 38.3430917,17.2686206 38.3244403,17.4796609 C38.2658506,18.1731982 37.8044317,18.6206954 37.1662302,18.6196537 C36.5373543,18.6186121 36.0495802,18.1648649 36.0216031,17.4682027 C35.9855167,16.617583 36.0041681,10.0755409 36.0102501,7.65555618 C36.0163321,5.91910879 36.9036917,5.00723954 38.5993454,5.00078125 C39.1590895,4.99973958 44.83661,4.99973958 45.3957459,5.00078125 Z M42.0561686,4.99982054 C40.7119646,4.98346754 39.6081571,3.87146343 39.6000489,2.51858403 C39.5912833,1.13786034 40.7264278,0.00110574176 42.1140215,8.09218439e-07 C43.5005195,-0.00110412332 44.608929,1.12946285 44.5999442,2.53493704 C44.5911786,3.94262109 43.484084,5.01595255 42.0561686,4.99982054 Z M54.1613734,18.6196537 C53.5310938,18.6196537 53.0439858,18.1659066 53.0214758,17.4682027 C52.9865955,16.6177914 53.0030217,10.0755409 53.0101194,7.65555618 C53.0143781,5.91910879 53.9042323,5.00723954 55.5991735,5.00078125 C56.1592868,4.99973958 61.8395096,4.99973958 62.3998257,5.00078125 C64.0945641,5.00723954 64.9844183,5.91910879 64.9905021,7.65555618 C64.9955719,10.0755409 65.0142288,16.617583 64.9791457,17.4682027 C64.9505519,18.1646566 64.4632411,18.6186121 63.8319476,18.6196537 C63.193759,18.6217371 62.7332169,18.1731982 62.6746098,17.4798693 C62.6571696,17.2686206 62.6746098,12.4807341 62.6571696,10.2997062 C62.6571696,9.78991773 62.0856999,9.90137536 62.0856999,10.3161644 C62.0856999,10.590121 62.0763714,23.7146216 62.0731267,30.1772892 C62.0731267,31.3160321 61.5604668,31.9810279 60.6789271,31.9995694 C59.7446613,32.0179026 59.2226729,31.3699901 59.2165891,30.163956 C59.2125333,28.4702167 59.2032048,20.7115156 59.2032048,19.3277743 C59.2032048,19.0421511 58.7933608,19.0431927 58.7933608,19.3277743 C58.7911301,20.7115156 58.7818017,28.4712583 58.7767318,30.163956 C58.7738927,31.3701984 58.2486597,32.0191526 57.3176386,31.9995694 C56.4360988,31.9810279 55.9201943,31.3160321 55.9201943,30.1772892 C55.9201943,23.7144133 55.9108658,10.590121 55.9108658,10.3161644 C55.9108658,9.90137536 55.3373681,9.78991773 55.3373681,10.2997062 C55.319928,12.4807341 55.3373681,17.2686206 55.319928,17.4798693 C55.262132,18.1731982 54.7997647,18.6206954 54.1613734,18.6196537 Z M58.8594264,4.99982054 C57.5135537,4.98346754 56.4090567,3.87146343 56.4000682,2.51858403 C56.3899834,1.13786034 57.5256115,0.00110574176 58.9151116,8.09218439e-07 C60.2997886,-0.00110412332 61.4121779,1.12946285 61.3999009,2.53493704 C61.3909123,3.94262109 60.2844423,5.01595255 58.8594264,4.99982054 Z M9.39978829,41.0009375 C11.0976904,41.0071878 11.9854744,41.9191004 11.9889217,43.6552137 C11.9950052,46.0767718 12.0152835,52.619125 11.9785797,53.469785 C11.9497845,54.1648137 11.4629026,54.6185824 10.8336669,54.6206658 C10.1957116,54.6206658 9.73356911,54.1741891 9.67577595,53.4802021 C9.65772826,53.2685267 9.67577595,48.4802043 9.65772826,46.298656 C9.65772826,45.7888433 9.08628576,45.9009313 9.08628576,46.31574 C9.08628576,46.5895013 9.07695774,59.7146259 9.07594383,66.1776007 C9.07594383,67.315981 8.55986109,67.9803834 7.67958007,67.9995509 C6.74758939,68.0193434 6.22339533,67.3709833 6.22035359,66.1648919 C6.21467566,64.471072 6.20534764,56.7120021 6.20433373,55.3292367 C6.20433373,55.0415165 5.79491485,55.0435999 5.79491485,55.3292367 C5.79268423,56.7120021 5.78457291,64.471072 5.77889499,66.1648919 C5.77585324,67.3709833 5.25165918,68.0195517 4.3196685,67.9995509 C3.43938749,67.9803834 2.92391309,67.315981 2.92391309,66.1776007 C2.92127692,59.7146259 2.91296281,46.5895013 2.91296281,46.31574 C2.91296281,45.9009313 2.34152031,45.7878016 2.34152031,46.298656 C2.32347262,48.4802043 2.34152031,53.2685267 2.32347262,53.4802021 C2.26588225,54.1741891 1.80394257,54.6206658 1.16558168,54.6206658 C0.536548804,54.6198325 0.0494640317,54.1658554 0.0206688453,53.469785 C-0.0150209632,52.6172499 0.00525733711,46.0746884 0.0103269122,43.6552137 C0.0153964872,41.9191004 0.903586039,41.0071878 2.60108255,41.0009375 C3.16056086,40.9996875 8.84112111,40.9996875 9.39978829,41.0009375 Z M8.79993392,38.5340622 C8.78941386,39.9414308 7.68414916,41.0155217 6.25846072,40.9998303 C4.9136453,40.9852438 3.80947644,39.8707087 3.80005222,38.5183708 C3.79106632,37.135755 4.92635705,36.0000032 6.31412941,36.0000032 C7.70146344,35.9977932 8.80979649,37.1291248 8.79993392,38.5340622 Z M26.3988973,41.0009375 C28.0963186,41.0071878 28.9838605,41.9191004 28.9893354,43.6552137 C28.9956214,46.0767718 29.0146821,52.619125 28.9785884,53.469785 C28.9504028,54.1648137 28.4633396,54.6185824 27.8337263,54.6206658 C27.1947853,54.6206658 26.7340827,54.1741891 26.6758866,53.4802021 C26.6578397,53.2685267 26.6758866,48.4802043 26.6578397,46.298656 C26.6578397,45.7888433 26.0864225,45.9009313 26.0864225,46.31574 C26.0864225,46.5895013 26.0770949,59.7146259 26.076081,66.1776007 C26.076081,67.315981 25.5602239,67.9803834 24.6797791,67.9995509 C23.7468159,68.0193434 23.2228478,67.3709833 23.2196034,66.1648919 C23.215548,64.471072 23.2058148,56.7120021 23.2048009,55.3292367 C23.2048009,55.0415165 22.7960085,55.0435999 22.7960085,55.3292367 C22.7933724,56.7120021 22.7850587,64.471072 22.7799894,66.1648919 C22.7759339,67.3709833 22.251763,68.0195517 21.3194081,67.9995509 C20.4391661,67.9803834 19.9237145,67.315981 19.9237145,66.1776007 C19.9227006,59.7146259 19.9129675,46.5895013 19.9129675,46.31574 C19.9129675,45.9009313 19.3415503,45.7878016 19.3415503,46.298656 C19.3235034,48.4802043 19.3415503,53.2685267 19.3235034,53.4802021 C19.2657128,54.1741891 18.8039964,54.6206658 18.1660693,54.6206658 C17.536456,54.6198325 17.0504067,54.1658554 17.0210044,53.469785 C16.9849106,52.6172499 17.005188,46.0746884 17.0102574,43.6552137 C17.0145157,41.9191004 17.903477,41.0071878 19.5998844,41.0009375 C20.1599462,40.9996875 25.8386327,40.9996875 26.3988973,41.0009375 Z M25.5999242,38.5340622 C25.5909376,39.9414308 24.484264,41.0155217 23.0582354,40.9998303 C21.7119908,40.9852438 20.6079475,39.8707087 20.6000568,38.5183708 C20.5906318,37.135755 21.7249229,36.0000032 23.1139089,36.0000032 C24.5013606,35.9977932 25.6104452,37.1291248 25.5999242,38.5340622 Z M45.3957459,41.0009375 C47.0934269,41.0071878 47.9818002,41.9191004 47.9911259,43.6552137 C47.9951806,46.0767718 48.0146429,52.619125 47.9785565,53.469785 C47.9499712,54.1648137 47.4628053,54.6185824 46.8329158,54.6206658 C46.1967416,54.6206658 45.7345117,54.1741891 45.6757193,53.4802021 C45.659298,53.2685267 45.6757193,48.4802043 45.659298,46.298656 C45.659298,45.7888433 45.0869845,45.9009313 45.0869845,46.31574 C45.0869845,46.5895013 45.0766451,59.7146259 45.0766451,66.1776007 C45.0766451,67.315981 44.5608939,67.9803834 43.6806299,67.9995509 C42.7488719,68.0193434 42.2229841,67.3709833 42.2209567,66.1648919 C42.2136584,64.471072 42.2075764,56.7120021 42.2055491,55.3292367 C42.2055491,55.0415165 41.7958269,55.0435999 41.7958269,55.3292367 C41.7927859,56.7120021 41.7854876,64.471072 41.7783919,66.1648919 C41.7763646,67.3709833 41.2514905,68.0195517 40.3207461,67.9995509 C39.4394684,67.9803834 38.9237172,67.315981 38.9237172,66.1776007 C38.9237172,59.7146259 38.9143915,46.5895013 38.9143915,46.31574 C38.9143915,45.9009313 38.3430917,45.7878016 38.3430917,46.298656 C38.3244403,48.4802043 38.3430917,53.2685267 38.3244403,53.4802021 C38.2658506,54.1741891 37.8044317,54.6206658 37.1662302,54.6206658 C36.5373543,54.6198325 36.0495802,54.1658554 36.0216031,53.469785 C35.9855167,52.6172499 36.0041681,46.0746884 36.0102501,43.6552137 C36.0163321,41.9191004 36.9036917,41.0071878 38.5993454,41.0009375 C39.1590895,40.9996875 44.83661,40.9996875 45.3957459,41.0009375 Z M44.5999442,38.5340622 C44.5911806,39.9414308 43.4841094,41.0155217 42.0554114,40.9998303 C40.7125974,40.9852438 39.6090317,39.8707087 39.6000489,38.5183708 C39.5912853,37.135755 40.7248665,36.0000032 42.1134707,36.0000032 C43.5007604,35.9977932 44.608927,37.1291248 44.5999442,38.5340622 Z M62.3963258,41.0009375 C64.0918575,41.0071878 64.9811806,41.9191004 64.9905056,43.6552137 C64.9955735,46.0767718 65.0142236,52.619125 64.9791534,53.469785 C64.9505702,54.1648137 64.4634393,54.6185824 63.8323788,54.6206658 C63.1944258,54.6206658 62.7340537,54.1741891 62.6754682,53.4802021 C62.6580345,53.2685267 62.6754682,48.4802043 62.6580345,46.298656 C62.6580345,45.7888433 62.0867757,45.9009313 62.0867757,46.31574 C62.0867757,46.5895013 62.0774507,59.7146259 62.0742072,66.1776007 C62.0742072,67.315981 61.5617366,67.9803834 60.6805223,67.9995509 C59.7466013,68.0193434 59.2248057,67.3709833 59.2187241,66.1648919 C59.2146698,64.471072 59.2053448,56.7120021 59.2053448,55.3292367 C59.2053448,55.0415165 58.7956521,55.0435999 58.7956521,55.3292367 C58.7934222,56.7120021 58.7840971,64.471072 58.7790292,66.1648919 C58.7761912,67.3709833 58.251152,68.0195517 57.3204746,67.9995509 C56.4392602,67.9803834 55.9235461,67.315981 55.9235461,66.1776007 C55.9235461,59.7146259 55.9142211,46.5895013 55.9142211,46.31574 C55.9142211,45.9009313 55.3409352,45.7878016 55.3409352,46.298656 C55.3235014,48.4802043 55.3409352,53.2685267 55.3235014,53.4802021 C55.2657268,54.1741891 54.8035302,54.6206658 54.1653746,54.6206658 C53.5351249,54.6198325 53.0483995,54.1658554 53.0216407,53.469785 C52.9865705,52.6172499 53.0029907,46.0746884 53.0100858,43.6552137 C53.0143429,41.9191004 53.902855,41.0071878 55.5981841,41.0009375 C56.1582934,40.9996875 61.8362165,40.9996875 62.3963258,41.0009375 Z M58.9151116,36.0000026 C60.3000078,35.9980136 61.4121779,37.1291243 61.3999009,38.5342829 C61.3909123,39.9416516 60.2844423,41.0155217 58.8594264,40.9998302 C57.5144306,40.9852438 56.4101529,39.8707086 56.4000682,38.5183705 C56.3899834,37.1357545 57.5256115,36.0000026 58.9151116,36.0000026 Z" id="Combined-Shape"></path>
        </g>
    </g>
</svg>