<?xml version="1.0" encoding="UTF-8"?>
<svg width="81px" height="42px" viewBox="0 0 81 42" version="1.1" xmlns="http://www.w3.org/2000/svg" xmlns:xlink="http://www.w3.org/1999/xlink">
    <!-- Generator: Sketch 48.2 (47327) - http://www.bohemiancoding.com/sketch -->
    <title>icons/white/patient</title>
    <desc>Created with Sketch.</desc>
    <defs></defs>
    <g id="y.Symbols" stroke="none" stroke-width="1" fill="none" fill-rule="evenodd">
        <g id="icons/white/patient" fill="#FFFFFF" fill-rule="nonzero">
            <path d="M3.33030078,15.0362657 L3.33030078,17.6162378 L20.6386201,17.6162378 C18.8768231,17.2552513 17.6235009,15.7046944 17.6564177,13.9486928 L17.7793184,7.38888139 C17.7793184,7.38871937 17.7793184,7.38855734 17.7793184,7.38855734 C17.8168668,5.39729885 19.4961234,3.74013108 21.6036302,3.77804439 L31.2171761,3.95092256 C30.2834287,5.51152483 29.5741445,7.17776586 29.0378807,8.86863434 L25.1919,8.20417941 L34.4673449,12.3681618 L42.3566422,7.58185038 C43.6051675,6.82439444 45.2654018,7.19186183 46.0497828,8.43182125 C46.8761782,9.84854739 46.3324709,11.3521177 45.1818691,12.0499493 L36.0696852,17.5781624 C35.3087927,18.039765 34.3518877,18.0977691 33.5392215,17.7330561 L23.296616,13.134853 L27.6740636,16.4652288 C27.5908617,17.7865236 27.5683657,19.3549029 27.6320491,20.928305 C27.7309652,23.3716067 29.7638714,25.3288404 32.3054177,25.3288404 C34.1605067,25.3288404 69.115577,25.3288404 70.532822,25.3288404 C70.532822,26.9727223 70.532822,31.925755 70.532822,33.577252 C70.8836596,33.4879775 71.2515346,33.4403429 71.6304922,33.4403429 C74.0398748,33.4403429 76,35.3603114 76,37.7201714 C76,40.0800315 74.0398748,42 71.6306576,42 C69.1216973,42 67.2039174,39.9497653 67.2039174,37.5570146 L67.2039174,28.7032864 L3.33030078,28.7032864 C3.33030078,30.8575396 3.33030078,30.4425996 3.33030078,33.5667205 C3.66774006,33.4847371 4.02023178,33.4403429 4.38330983,33.4403429 C6.79252704,33.4403429 8.75265226,35.3603114 8.75265226,37.7201714 C8.75265226,40.0800315 6.79252704,42 4.38330983,42 C1.98633306,42 0.0346438157,40.0993122 0.0147944464,37.7559784 C-0.00446670188,37.600554 0.000288483645,39.3930813 0.00112056127,9.61749017 C0.000374566586,9.57840996 0,9.5392456 0,9.5 C0,9.460641 0.000376734338,9.42136371 0.00112703724,9.38217106 C0.00119148406,7.00362822 0.0012307106,4.42531649 0.0012307106,1.63043403 C0.0012307106,0.729912083 0.74640912,0 1.66576575,0 C2.58512237,0 3.33030078,0.729912083 3.33030078,1.63043403 L3.33030078,3.96373434 C4.39730816,3.35260096 5.65430942,3 7,3 C10.8659932,3 14,5.91014913 14,9.5 C14,13.0898509 10.8659932,16 7,16 C5.65430942,16 4.39730816,15.647399 3.33030078,15.0362657 Z M42.0933092,3.35300726 L33.6279039,8.4083615 L31.7083243,8.08181444 C33.6995655,2.23918702 36.7208686,0.0113551327 36.7208686,0.0113551327 C44.1270313,-0.190774816 59.2936947,2.32857593 71.5325527,5.73645624 C77.5713872,7.41800131 81.8615581,12.4708672 80.8527367,18.4532246 L79.9187531,21.8402411 C79.7301698,22.523961 79.0881925,23 78.3543057,23 L31.6584987,23 C30.7898244,23 30.0765825,22.3377182 30.042042,21.5008695 C30.0110746,20.7444135 29.997576,20.0115011 30.0003551,19.3017493 L31.2432184,20.2327721 C32.5007712,21.1745139 35.3743838,21.6802216 37.8033368,20.2297095 L48.7387864,13.6987684 C51.7116533,11.9238148 52.6077218,8.16622667 50.7806473,5.32205156 C48.9241935,2.43174642 45.0258789,1.6017886 42.0933092,3.35300726 Z" id="Combined-Shape"></path>
        </g>
    </g>
</svg>