<?xml version="1.0" encoding="UTF-8"?>
<svg width="102px" height="94px" viewBox="0 0 102 94" version="1.1" xmlns="http://www.w3.org/2000/svg" xmlns:xlink="http://www.w3.org/1999/xlink">
    <!-- Generator: Sketch 48.2 (47327) - http://www.bohemiancoding.com/sketch -->
    <title>icons/white/quotation-marks-big</title>
    <desc>Created with Sketch.</desc>
    <defs></defs>
    <g id="y.Symbols" stroke="none" stroke-width="1" fill="none" fill-rule="evenodd">
        <g id="icons/white/quotation-marks-big" fill="#D8D8D8" fill-rule="nonzero">
            <path d="M98.861244,53.0708333 L98.861244,94 L61,94 L61,61.6875 C61,44.1929681 63.0924831,31.5292058 67.277512,23.6958333 C72.7703624,13.2513367 81.4672451,5.35280454 93.3684211,0 L102,13.7083333 C94.8069816,16.7111261 89.5103838,21.1826092 86.1100478,27.1229167 C82.7097119,33.0632241 80.8133991,41.7124432 80.4210526,53.0708333 L98.861244,53.0708333 Z" id="Path"></path>
            <path d="M37.861244,53.0708333 L37.861244,94 L0,94 L0,61.6875 C0,44.1929681 2.09248306,31.5292058 6.27751196,23.6958333 C11.7703624,13.2513367 20.4672451,5.35280454 32.3684211,0 L41,13.7083333 C33.8069816,16.7111261 28.5103838,21.1826092 25.1100478,27.1229167 C21.7097119,33.0632241 19.8133991,41.7124432 19.4210526,53.0708333 L37.861244,53.0708333 Z" id="Path"></path>
        </g>
    </g>
</svg>