<?xml version="1.0" encoding="UTF-8"?>
<svg width="47px" height="60px" viewBox="0 0 47 60" version="1.1" xmlns="http://www.w3.org/2000/svg" xmlns:xlink="http://www.w3.org/1999/xlink">
    <!-- Generator: Sketch 48.2 (47327) - http://www.bohemiancoding.com/sketch -->
    <title>icons/white/saving-potential</title>
    <desc>Created with Sketch.</desc>
    <defs></defs>
    <g id="y.Symbols" stroke="none" stroke-width="1" fill="none" fill-rule="evenodd">
        <g id="icons/white/saving-potential" fill="#FFFFFF">
            <path d="M36.5,35 C34.016,35 32,32.984 32,30.5 C32,28.016 34.016,26 36.5,26 C38.984,26 41,28.016 41,30.5 C41,32.984 38.984,35 36.5,35 Z M36.5,45 C34.016,45 32,42.984 32,40.5 C32,38.016 34.016,36 36.5,36 C38.984,36 41,38.016 41,40.5 C41,42.984 38.984,45 36.5,45 Z M36.5,56 C34.016,56 32,53.984 32,51.5 C32,49.016 34.016,47 36.5,47 C38.984,47 41,49.016 41,51.5 C41,53.984 38.984,56 36.5,56 Z M23.5,35 C21.016,35 19,32.984 19,30.5 C19,28.016 21.016,26 23.5,26 C25.984,26 28,28.016 28,30.5 C28,32.984 25.984,35 23.5,35 Z M23.5,45 C21.016,45 19,42.984 19,40.5 C19,38.016 21.016,36 23.5,36 C25.984,36 28,38.016 28,40.5 C28,42.984 25.984,45 23.5,45 Z M23.5,56 C21.016,56 19,53.984 19,51.5 C19,49.016 21.016,47 23.5,47 C25.984,47 28,49.016 28,51.5 C28,53.984 25.984,56 23.5,56 Z M10.5,35 C8.016,35 6,32.984 6,30.5 C6,28.016 8.016,26 10.5,26 C12.984,26 15,28.016 15,30.5 C15,32.984 12.984,35 10.5,35 Z M10.5,45 C8.016,45 6,42.984 6,40.5 C6,38.016 8.016,36 10.5,36 C12.984,36 15,38.016 15,40.5 C15,42.984 12.984,45 10.5,45 Z M10.5,56 C8.016,56 6,53.984 6,51.5 C6,49.016 8.016,47 10.5,47 C12.984,47 15,49.016 15,51.5 C15,53.984 12.984,56 10.5,56 Z M6,21 L41,21 L41,6 L6,6 L6,21 Z M42.7272727,0 L4.27272727,0 C1.91418182,0 0,1.92 0,4.28571429 L0,55.7142857 C0,58.08 1.91418182,60 4.27272727,60 L42.7272727,60 C45.0858182,60 47,58.08 47,55.7142857 L47,4.28571429 C47,1.92 45.0858182,0 42.7272727,0 Z" id="Page-1"></path>
        </g>
    </g>
</svg>