<?xml version="1.0" encoding="UTF-8"?>
<svg width="53px" height="70px" viewBox="0 0 53 70" version="1.1" xmlns="http://www.w3.org/2000/svg" xmlns:xlink="http://www.w3.org/1999/xlink">
    <!-- Generator: Sketch 48.2 (47327) - http://www.bohemiancoding.com/sketch -->
    <title>icons/white/time-pressure</title>
    <desc>Created with Sketch.</desc>
    <defs></defs>
    <g id="y.Symbols" stroke="none" stroke-width="1" fill="none" fill-rule="evenodd">
        <g id="icons/white/time-pressure" fill="#FEFEFE" fill-rule="nonzero">
            <path d="M44.2244935,4.78032376 L52.9154378,0 L52.8416381,9.68293251 L52.7729633,19.3668841 L47.5608567,16.4024923 C43.6238457,21.1308449 27.6544022,38.2079427 0,41.3160193 C0,41.3160193 26.5299811,34.4558318 40.6093313,12.4506493 L35.5407243,9.56166657 L44.2244935,4.78032376 Z M2.19810472,70 L2.19810472,48.9466022 L11.3297974,48.9466022 L11.3297974,70 L2.19810472,70 Z M16.0888556,70 L16.0888556,43.1523321 L25.2195233,43.1523321 L25.2195233,70 L16.0888556,70 Z M29.9785814,70 L29.9785814,36.005794 L39.1102741,36.005794 L39.1102741,70 L29.9785814,70 Z M43.8693323,70 L43.8693323,29.4390904 L53,29.4390904 L53,70 L43.8693323,70 Z" id="Combined-Shape"></path>
        </g>
    </g>
</svg>