<?xml version="1.0" encoding="UTF-8"?>
<svg width="831px" height="453px" viewBox="0 0 831 453" version="1.1" xmlns="http://www.w3.org/2000/svg" xmlns:xlink="http://www.w3.org/1999/xlink">
    <!-- Generator: Sketch 49.1 (51147) - http://www.bohemiancoding.com/sketch -->
    <title>Balkendiagramm</title>
    <desc>Created with Sketch.</desc>
    <defs>
        <path d="M594,0 L704,0 L704,138 L594,138 L594,0 Z" id="path-1"></path>
        <mask id="mask-2" maskContentUnits="userSpaceOnUse" maskUnits="objectBoundingBox" x="0" y="0" width="110" height="138" fill="white">
            <use xlink:href="#path-1"></use>
        </mask>
    </defs>
    <g id="Balkendiagramm" stroke="none" stroke-width="1" fill="none" fill-rule="evenodd">
        <path d="M173,394.104492 L173,381.219727 L175.566406,381.219727 L178.616211,390.342773 C178.897462,391.192387 179.102538,391.828123 179.231445,392.25 C179.37793,391.781248 179.606444,391.092778 179.916992,390.18457 L183.001953,381.219727 L185.295898,381.219727 L185.295898,394.104492 L183.652344,394.104492 L183.652344,383.320312 L179.908203,394.104492 L178.370117,394.104492 L174.643555,383.135742 L174.643555,394.104492 L173,394.104492 Z M193.961914,394.104492 L193.961914,392.733398 C193.235348,393.788091 192.248053,394.31543 191,394.31543 C190.449216,394.31543 189.935061,394.209962 189.45752,393.999023 C188.979978,393.788085 188.625489,393.522951 188.394043,393.203613 C188.162596,392.884276 188,392.493166 187.90625,392.030273 C187.841797,391.719725 187.80957,391.227542 187.80957,390.553711 L187.80957,384.770508 L189.391602,384.770508 L189.391602,389.947266 C189.391602,390.773442 189.423828,391.330077 189.488281,391.617188 C189.587891,392.033205 189.798827,392.359862 190.121094,392.597168 C190.443361,392.834474 190.841795,392.953125 191.316406,392.953125 C191.791018,392.953125 192.236326,392.831544 192.652344,392.588379 C193.068361,392.345214 193.362792,392.014162 193.535645,391.595215 C193.708497,391.176267 193.794922,390.568363 193.794922,389.771484 L193.794922,384.770508 L195.376953,384.770508 L195.376953,394.104492 L193.961914,394.104492 Z M197.820312,394.104492 L197.820312,381.219727 L199.402344,381.219727 L199.402344,394.104492 L197.820312,394.104492 Z M205.308594,392.689453 L205.537109,394.086914 C205.091795,394.180665 204.693361,394.227539 204.341797,394.227539 C203.767575,394.227539 203.322267,394.13672 203.005859,393.955078 C202.689452,393.773437 202.466798,393.534669 202.337891,393.23877 C202.208984,392.94287 202.144531,392.320317 202.144531,391.371094 L202.144531,386.000977 L200.984375,386.000977 L200.984375,384.770508 L202.144531,384.770508 L202.144531,382.458984 L203.717773,381.509766 L203.717773,384.770508 L205.308594,384.770508 L205.308594,386.000977 L203.717773,386.000977 L203.717773,391.458984 C203.717773,391.910159 203.745605,392.200195 203.80127,392.329102 C203.856934,392.458008 203.947753,392.560546 204.07373,392.636719 C204.199708,392.712891 204.379882,392.750977 204.614258,392.750977 C204.79004,392.750977 205.021483,392.730469 205.308594,392.689453 Z M206.864258,383.039062 L206.864258,381.219727 L208.446289,381.219727 L208.446289,383.039062 L206.864258,383.039062 Z M206.864258,394.104492 L206.864258,384.770508 L208.446289,384.770508 L208.446289,394.104492 L206.864258,394.104492 Z M210.239258,390.237305 L210.239258,388.646484 L215.099609,388.646484 L215.099609,390.237305 L210.239258,390.237305 Z M216.980469,394.104492 L216.980469,381.219727 L221.814453,381.219727 C222.798833,381.219727 223.588376,381.350096 224.183105,381.61084 C224.777835,381.871583 225.243651,382.272947 225.580566,382.814941 C225.917482,383.356936 226.085938,383.923825 226.085938,384.515625 C226.085938,385.066409 225.936525,385.584959 225.637695,386.071289 C225.338866,386.55762 224.887698,386.950194 224.28418,387.249023 C225.06348,387.47754 225.662596,387.867185 226.081543,388.417969 C226.50049,388.968753 226.709961,389.619137 226.709961,390.369141 C226.709961,390.972659 226.582521,391.533689 226.327637,392.052246 C226.072753,392.570803 225.757814,392.970702 225.382812,393.251953 C225.007811,393.533205 224.5376,393.745605 223.972168,393.88916 C223.406735,394.032716 222.713871,394.104492 221.893555,394.104492 L216.980469,394.104492 Z M218.685547,386.633789 L221.47168,386.633789 C222.227543,386.633789 222.76953,386.583985 223.097656,386.484375 C223.531252,386.355468 223.857909,386.141603 224.077637,385.842773 C224.297364,385.543944 224.407227,385.168948 224.407227,384.717773 C224.407227,384.290037 224.304689,383.913576 224.099609,383.588379 C223.89453,383.263182 223.601564,383.040528 223.220703,382.92041 C222.839842,382.800292 222.186528,382.740234 221.260742,382.740234 L218.685547,382.740234 L218.685547,386.633789 Z M218.685547,392.583984 L221.893555,392.583984 C222.444339,392.583984 222.831054,392.563477 223.053711,392.522461 C223.446291,392.452148 223.774413,392.334962 224.038086,392.170898 C224.301759,392.006835 224.518554,391.768068 224.688477,391.45459 C224.858399,391.141112 224.943359,390.779299 224.943359,390.369141 C224.943359,389.888669 224.820314,389.471193 224.574219,389.116699 C224.328124,388.762205 223.986819,388.513184 223.550293,388.369629 C223.113767,388.226074 222.485356,388.154297 221.665039,388.154297 L218.685547,388.154297 L218.685547,392.583984 Z M228.265625,389.4375 C228.265625,387.708976 228.746089,386.428715 229.707031,385.59668 C230.50977,384.90527 231.488275,384.55957 232.642578,384.55957 C233.925788,384.55957 234.974605,384.979976 235.789062,385.820801 C236.60352,386.661625 237.010742,387.823235 237.010742,389.305664 C237.010742,390.506842 236.830568,391.451657 236.470215,392.140137 C236.109861,392.828617 235.585453,393.363279 234.896973,393.744141 C234.208493,394.125002 233.457035,394.31543 232.642578,394.31543 C231.335931,394.31543 230.279789,393.896489 229.474121,393.058594 C228.668453,392.220699 228.265625,391.01368 228.265625,389.4375 Z M229.891602,389.4375 C229.891602,390.632818 230.152341,391.527829 230.673828,392.122559 C231.195315,392.717288 231.851559,393.014648 232.642578,393.014648 C233.427738,393.014648 234.081052,392.715823 234.602539,392.118164 C235.124026,391.520505 235.384766,390.609381 235.384766,389.384766 C235.384766,388.230463 235.122561,387.35596 234.598145,386.76123 C234.073728,386.166501 233.421879,385.869141 232.642578,385.869141 C231.851559,385.869141 231.195315,386.165036 230.673828,386.756836 C230.152341,387.348636 229.891602,388.242182 229.891602,389.4375 Z M242.319336,392.689453 L242.547852,394.086914 C242.102537,394.180665 241.704103,394.227539 241.352539,394.227539 C240.778317,394.227539 240.333009,394.13672 240.016602,393.955078 C239.700194,393.773437 239.47754,393.534669 239.348633,393.23877 C239.219726,392.94287 239.155273,392.320317 239.155273,391.371094 L239.155273,386.000977 L237.995117,386.000977 L237.995117,384.770508 L239.155273,384.770508 L239.155273,382.458984 L240.728516,381.509766 L240.728516,384.770508 L242.319336,384.770508 L242.319336,386.000977 L240.728516,386.000977 L240.728516,391.458984 C240.728516,391.910159 240.756347,392.200195 240.812012,392.329102 C240.867676,392.458008 240.958495,392.560546 241.084473,392.636719 C241.21045,392.712891 241.390624,392.750977 241.625,392.750977 C241.800782,392.750977 242.032225,392.730469 242.319336,392.689453 Z M247.320312,392.689453 L247.548828,394.086914 C247.103513,394.180665 246.70508,394.227539 246.353516,394.227539 C245.779294,394.227539 245.333986,394.13672 245.017578,393.955078 C244.70117,393.773437 244.478516,393.534669 244.349609,393.23877 C244.220702,392.94287 244.15625,392.320317 244.15625,391.371094 L244.15625,386.000977 L242.996094,386.000977 L242.996094,384.770508 L244.15625,384.770508 L244.15625,382.458984 L245.729492,381.509766 L245.729492,384.770508 L247.320312,384.770508 L247.320312,386.000977 L245.729492,386.000977 L245.729492,391.458984 C245.729492,391.910159 245.757324,392.200195 245.812988,392.329102 C245.868653,392.458008 245.959472,392.560546 246.085449,392.636719 C246.211426,392.712891 246.3916,392.750977 246.625977,392.750977 C246.801759,392.750977 247.033202,392.730469 247.320312,392.689453 Z M248.832031,394.104492 L248.832031,381.219727 L250.414062,381.219727 L250.414062,394.104492 L248.832031,394.104492 Z M259.255859,391.098633 L260.890625,391.300781 C260.632811,392.255864 260.155277,392.997068 259.458008,393.524414 C258.760739,394.05176 257.870123,394.31543 256.786133,394.31543 C255.420892,394.31543 254.338383,393.895024 253.538574,393.054199 C252.738766,392.213375 252.338867,391.034187 252.338867,389.516602 C252.338867,387.946281 252.74316,386.727543 253.551758,385.860352 C254.360356,384.99316 255.409173,384.55957 256.698242,384.55957 C257.946295,384.55957 258.965816,384.984371 259.756836,385.833984 C260.547856,386.683598 260.943359,387.878899 260.943359,389.419922 C260.943359,389.513672 260.94043,389.654296 260.93457,389.841797 L253.973633,389.841797 C254.032227,390.867193 254.322263,391.652341 254.84375,392.197266 C255.365237,392.74219 256.015621,393.014648 256.794922,393.014648 C257.375003,393.014648 257.870115,392.862306 258.280273,392.557617 C258.690432,392.252928 259.015624,391.766605 259.255859,391.098633 Z M254.061523,388.541016 L259.273438,388.541016 C259.203125,387.755855 259.003908,387.166994 258.675781,386.774414 C258.171872,386.165036 257.518559,385.860352 256.71582,385.860352 C255.989254,385.860352 255.37842,386.103513 254.883301,386.589844 C254.388181,387.076174 254.114258,387.726558 254.061523,388.541016 Z M267.5,389.964844 L269.108398,389.824219 C269.184571,390.468753 269.361815,390.997557 269.640137,391.410645 C269.918458,391.823733 270.350583,392.157714 270.936523,392.412598 C271.522464,392.667482 272.181637,392.794922 272.914062,392.794922 C273.564456,392.794922 274.138669,392.698243 274.636719,392.504883 C275.134768,392.311522 275.50537,392.046388 275.748535,391.709473 C275.9917,391.372557 276.113281,391.004885 276.113281,390.606445 C276.113281,390.202146 275.996095,389.849123 275.761719,389.547363 C275.527343,389.245604 275.140628,388.992189 274.601562,388.787109 C274.255858,388.652343 273.491217,388.442873 272.307617,388.158691 C271.124018,387.87451 270.294924,387.606447 269.820312,387.354492 C269.205075,387.032225 268.746584,386.632327 268.444824,386.154785 C268.143065,385.677244 267.992188,385.142581 267.992188,384.550781 C267.992188,383.900387 268.176756,383.292483 268.545898,382.727051 C268.915041,382.161618 269.454098,381.732423 270.163086,381.439453 C270.872074,381.146483 271.660152,381 272.527344,381 C273.482427,381 274.324703,381.153807 275.054199,381.461426 C275.783695,381.769045 276.344725,382.221677 276.737305,382.819336 C277.129885,383.416995 277.34082,384.093746 277.370117,384.849609 L275.735352,384.972656 C275.64746,384.158199 275.3501,383.542971 274.843262,383.126953 C274.336423,382.710935 273.587896,382.50293 272.597656,382.50293 C271.566401,382.50293 270.814944,382.691893 270.343262,383.069824 C269.87158,383.447756 269.635742,383.903318 269.635742,384.436523 C269.635742,384.899416 269.802733,385.280272 270.136719,385.579102 C270.464845,385.877931 271.32177,386.18408 272.70752,386.497559 C274.093269,386.811037 275.043943,387.08496 275.55957,387.319336 C276.309574,387.665041 276.863279,388.103025 277.220703,388.633301 C277.578127,389.163577 277.756836,389.774411 277.756836,390.46582 C277.756836,391.151371 277.560549,391.79736 277.167969,392.403809 C276.775389,393.010257 276.211429,393.481932 275.476074,393.818848 C274.740719,394.155763 273.913091,394.324219 272.993164,394.324219 C271.827143,394.324219 270.850102,394.154299 270.062012,393.814453 C269.273922,393.474608 268.655764,392.963382 268.20752,392.280762 C267.759275,391.598141 267.523438,390.826176 267.5,389.964844 Z M279.813477,397.699219 L279.637695,396.213867 C279.9834,396.307618 280.285155,396.354492 280.542969,396.354492 C280.894533,396.354492 281.17578,396.295899 281.386719,396.178711 C281.597657,396.061523 281.770507,395.897462 281.905273,395.686523 C282.004883,395.52832 282.166015,395.135745 282.388672,394.508789 C282.417969,394.420898 282.464843,394.291993 282.529297,394.12207 L278.987305,384.770508 L280.692383,384.770508 L282.634766,390.175781 C282.88672,390.861332 283.112304,391.582027 283.311523,392.337891 C283.493165,391.611324 283.70996,390.902347 283.961914,390.210938 L285.957031,384.770508 L287.539062,384.770508 L283.988281,394.262695 C283.60742,395.288091 283.311524,395.994139 283.100586,396.380859 C282.819335,396.902346 282.497072,397.284667 282.133789,397.527832 C281.770506,397.770997 281.336917,397.892578 280.833008,397.892578 C280.528319,397.892578 280.188478,397.828126 279.813477,397.699219 Z M288.250977,391.318359 L289.81543,391.072266 C289.903321,391.699222 290.147947,392.179686 290.549316,392.513672 C290.950686,392.847658 291.511715,393.014648 292.232422,393.014648 C292.958988,393.014648 293.498045,392.866701 293.849609,392.570801 C294.201174,392.274901 294.376953,391.927736 294.376953,391.529297 C294.376953,391.171873 294.221681,390.890626 293.911133,390.685547 C293.694335,390.544921 293.155278,390.366212 292.293945,390.149414 C291.133783,389.856444 290.329592,389.603028 289.881348,389.38916 C289.433103,389.175292 289.093263,388.879396 288.861816,388.501465 C288.63037,388.123533 288.514648,387.706057 288.514648,387.249023 C288.514648,386.833006 288.609862,386.447756 288.800293,386.093262 C288.990724,385.738768 289.249998,385.444337 289.578125,385.209961 C289.82422,385.028319 290.159666,384.874512 290.584473,384.748535 C291.009279,384.622558 291.464841,384.55957 291.951172,384.55957 C292.683597,384.55957 293.326657,384.665038 293.880371,384.875977 C294.434085,385.086915 294.842772,385.372557 295.106445,385.73291 C295.370119,386.093264 295.551757,386.575192 295.651367,387.178711 L294.104492,387.389648 C294.034179,386.909177 293.830568,386.534181 293.493652,386.264648 C293.156737,385.995116 292.680667,385.860352 292.06543,385.860352 C291.338864,385.860352 290.820314,385.980468 290.509766,386.220703 C290.199217,386.460939 290.043945,386.742186 290.043945,387.064453 C290.043945,387.269532 290.108398,387.454101 290.237305,387.618164 C290.366212,387.788087 290.568358,387.92871 290.84375,388.040039 C291.001954,388.098633 291.46777,388.233397 292.241211,388.444336 C293.360357,388.743166 294.141111,388.987792 294.583496,389.178223 C295.025881,389.368653 295.373046,389.645506 295.625,390.008789 C295.876954,390.372072 296.00293,390.823239 296.00293,391.362305 C296.00293,391.889651 295.849123,392.386228 295.541504,392.852051 C295.233885,393.317873 294.790042,393.678221 294.209961,393.933105 C293.62988,394.18799 292.973636,394.31543 292.241211,394.31543 C291.028314,394.31543 290.104007,394.063479 289.468262,393.55957 C288.832516,393.055662 288.426759,392.308599 288.250977,391.318359 Z M301.337891,392.689453 L301.566406,394.086914 C301.121092,394.180665 300.722658,394.227539 300.371094,394.227539 C299.796872,394.227539 299.351564,394.13672 299.035156,393.955078 C298.718748,393.773437 298.496094,393.534669 298.367188,393.23877 C298.238281,392.94287 298.173828,392.320317 298.173828,391.371094 L298.173828,386.000977 L297.013672,386.000977 L297.013672,384.770508 L298.173828,384.770508 L298.173828,382.458984 L299.74707,381.509766 L299.74707,384.770508 L301.337891,384.770508 L301.337891,386.000977 L299.74707,386.000977 L299.74707,391.458984 C299.74707,391.910159 299.774902,392.200195 299.830566,392.329102 C299.886231,392.458008 299.97705,392.560546 300.103027,392.636719 C300.229005,392.712891 300.409179,392.750977 300.643555,392.750977 C300.819337,392.750977 301.05078,392.730469 301.337891,392.689453 Z M309.274414,391.098633 L310.90918,391.300781 C310.651366,392.255864 310.173832,392.997068 309.476562,393.524414 C308.779293,394.05176 307.888677,394.31543 306.804688,394.31543 C305.439446,394.31543 304.356938,393.895024 303.557129,393.054199 C302.75732,392.213375 302.357422,391.034187 302.357422,389.516602 C302.357422,387.946281 302.761715,386.727543 303.570312,385.860352 C304.37891,384.99316 305.427728,384.55957 306.716797,384.55957 C307.96485,384.55957 308.984371,384.984371 309.775391,385.833984 C310.56641,386.683598 310.961914,387.878899 310.961914,389.419922 C310.961914,389.513672 310.958984,389.654296 310.953125,389.841797 L303.992188,389.841797 C304.050782,390.867193 304.340818,391.652341 304.862305,392.197266 C305.383792,392.74219 306.034176,393.014648 306.813477,393.014648 C307.393558,393.014648 307.88867,392.862306 308.298828,392.557617 C308.708986,392.252928 309.034178,391.766605 309.274414,391.098633 Z M304.080078,388.541016 L309.291992,388.541016 C309.221679,387.755855 309.022463,387.166994 308.694336,386.774414 C308.190427,386.165036 307.537113,385.860352 306.734375,385.860352 C306.007809,385.860352 305.396975,386.103513 304.901855,386.589844 C304.406736,387.076174 304.132813,387.726558 304.080078,388.541016 Z M312.895508,394.104492 L312.895508,384.770508 L314.310547,384.770508 L314.310547,386.080078 C314.603517,385.623045 314.993162,385.255372 315.479492,384.977051 C315.965823,384.698729 316.519528,384.55957 317.140625,384.55957 C317.832035,384.55957 318.398924,384.703124 318.841309,384.990234 C319.283694,385.277345 319.595702,385.678708 319.777344,386.194336 C320.515629,385.104487 321.476557,384.55957 322.660156,384.55957 C323.585942,384.55957 324.297849,384.815915 324.795898,385.328613 C325.293948,385.841311 325.542969,386.630854 325.542969,387.697266 L325.542969,394.104492 L323.969727,394.104492 L323.969727,388.224609 C323.969727,387.591794 323.918458,387.136232 323.815918,386.85791 C323.713378,386.579588 323.527345,386.35547 323.257812,386.185547 C322.98828,386.015624 322.671877,385.930664 322.308594,385.930664 C321.65234,385.930664 321.107424,386.148924 320.673828,386.585449 C320.240232,387.021975 320.023438,387.720698 320.023438,388.681641 L320.023438,394.104492 L318.441406,394.104492 L318.441406,388.040039 C318.441406,387.336911 318.312501,386.809572 318.054688,386.458008 C317.796874,386.106444 317.375003,385.930664 316.789062,385.930664 C316.343748,385.930664 315.932131,386.04785 315.554199,386.282227 C315.176268,386.516603 314.902345,386.859373 314.732422,387.310547 C314.562499,387.761721 314.477539,388.412105 314.477539,389.261719 L314.477539,394.104492 L312.895508,394.104492 Z" id="Multi-Bottle-System" fill="#6E6E6E"></path>
        <path d="M522,393.736328 L522,380.851562 L523.749023,380.851562 L530.516602,390.967773 L530.516602,380.851562 L532.151367,380.851562 L532.151367,393.736328 L530.402344,393.736328 L523.634766,383.611328 L523.634766,393.736328 L522,393.736328 Z M540.931641,393.736328 L540.931641,392.365234 C540.205074,393.419927 539.21778,393.947266 537.969727,393.947266 C537.418943,393.947266 536.904788,393.841798 536.427246,393.630859 C535.949705,393.419921 535.595216,393.154787 535.36377,392.835449 C535.132323,392.516112 534.969727,392.125002 534.875977,391.662109 C534.811523,391.351561 534.779297,390.859378 534.779297,390.185547 L534.779297,384.402344 L536.361328,384.402344 L536.361328,389.579102 C536.361328,390.405278 536.393554,390.961913 536.458008,391.249023 C536.557618,391.665041 536.768553,391.991698 537.09082,392.229004 C537.413088,392.46631 537.811521,392.584961 538.286133,392.584961 C538.760745,392.584961 539.206053,392.46338 539.62207,392.220215 C540.038088,391.97705 540.332519,391.645998 540.505371,391.227051 C540.678224,390.808103 540.764648,390.200199 540.764648,389.40332 L540.764648,384.402344 L542.34668,384.402344 L542.34668,393.736328 L540.931641,393.736328 Z M548.305664,393.736328 L548.305664,382.37207 L544.060547,382.37207 L544.060547,380.851562 L554.273438,380.851562 L554.273438,382.37207 L550.010742,382.37207 L550.010742,393.736328 L548.305664,393.736328 Z M556.048828,393.736328 L556.048828,380.851562 L561.761719,380.851562 C562.910162,380.851562 563.7832,380.967284 564.380859,381.19873 C564.978519,381.430177 565.456053,381.838864 565.813477,382.424805 C566.1709,383.010745 566.349609,383.6582 566.349609,384.367188 C566.349609,385.281255 566.053714,386.051755 565.461914,386.678711 C564.870114,387.305667 563.956061,387.704101 562.719727,387.874023 C563.170901,388.090821 563.513671,388.304686 563.748047,388.515625 C564.246096,388.972659 564.717771,389.543942 565.163086,390.229492 L567.404297,393.736328 L565.259766,393.736328 L563.554688,391.055664 C563.056638,390.282223 562.646486,389.690432 562.324219,389.280273 C562.001952,388.870115 561.71338,388.583009 561.458496,388.418945 C561.203612,388.254882 560.944337,388.140625 560.680664,388.076172 C560.487304,388.035156 560.170901,388.014648 559.731445,388.014648 L557.753906,388.014648 L557.753906,393.736328 L556.048828,393.736328 Z M557.753906,386.538086 L561.418945,386.538086 C562.198246,386.538086 562.807615,386.45752 563.24707,386.296387 C563.686526,386.135253 564.020507,385.877443 564.249023,385.522949 C564.47754,385.168455 564.591797,384.783205 564.591797,384.367188 C564.591797,383.757809 564.370608,383.256838 563.928223,382.864258 C563.485838,382.471678 562.787114,382.275391 561.832031,382.275391 L557.753906,382.275391 L557.753906,386.538086 Z M569.311523,393.736328 L569.311523,380.851562 L571.016602,380.851562 L571.016602,393.736328 L569.311523,393.736328 Z M574.198242,393.736328 L574.198242,385.632812 L572.800781,385.632812 L572.800781,384.402344 L574.198242,384.402344 L574.198242,383.40918 C574.198242,382.782223 574.253906,382.316408 574.365234,382.011719 C574.517579,381.60156 574.785643,381.269044 575.169434,381.01416 C575.553225,380.759276 576.090817,380.631836 576.782227,380.631836 C577.227541,380.631836 577.719724,380.68457 578.258789,380.790039 L578.021484,382.169922 C577.693358,382.111328 577.382814,382.082031 577.089844,382.082031 C576.609373,382.082031 576.269532,382.184569 576.070312,382.389648 C575.871093,382.594728 575.771484,382.978513 575.771484,383.541016 L575.771484,384.402344 L577.59082,384.402344 L577.59082,385.632812 L575.771484,385.632812 L575.771484,393.736328 L574.198242,393.736328 Z M578.786133,393.736328 L578.786133,380.851562 L580.368164,380.851562 L580.368164,393.736328 L578.786133,393.736328 Z M589.209961,390.730469 L590.844727,390.932617 C590.586913,391.8877 590.109378,392.628904 589.412109,393.15625 C588.71484,393.683596 587.824224,393.947266 586.740234,393.947266 C585.374993,393.947266 584.292484,393.52686 583.492676,392.686035 C582.692867,391.845211 582.292969,390.666023 582.292969,389.148438 C582.292969,387.578117 582.697262,386.359379 583.505859,385.492188 C584.314457,384.624996 585.363275,384.191406 586.652344,384.191406 C587.900397,384.191406 588.919918,384.616207 589.710938,385.46582 C590.501957,386.315434 590.897461,387.510734 590.897461,389.051758 C590.897461,389.145508 590.894531,389.286132 590.888672,389.473633 L583.927734,389.473633 C583.986328,390.499029 584.276365,391.284177 584.797852,391.829102 C585.319339,392.374026 585.969723,392.646484 586.749023,392.646484 C587.329104,392.646484 587.824217,392.494142 588.234375,392.189453 C588.644533,391.884764 588.969725,391.398441 589.209961,390.730469 Z M584.015625,388.172852 L589.227539,388.172852 C589.157226,387.387691 588.958009,386.79883 588.629883,386.40625 C588.125974,385.796872 587.47266,385.492188 586.669922,385.492188 C585.943356,385.492188 585.332522,385.735349 584.837402,386.22168 C584.342283,386.70801 584.06836,387.358394 584.015625,388.172852 Z M591.776367,393.736328 L595.186523,388.884766 L592.03125,384.402344 L594.008789,384.402344 L595.441406,386.59082 C595.710939,387.006838 595.927734,387.355467 596.091797,387.636719 C596.349611,387.249998 596.586913,386.907228 596.803711,386.608398 L598.376953,384.402344 L600.266602,384.402344 L597.041016,388.796875 L600.512695,393.736328 L598.570312,393.736328 L596.654297,390.835938 L596.144531,390.053711 L593.692383,393.736328 L591.776367,393.736328 Z M605.085938,379 C605.828129,379 606.552731,379.190428 607.259766,379.571289 C607.9668,379.95215 608.517576,380.497067 608.912109,381.206055 C609.306643,381.915043 609.503906,382.654293 609.503906,383.423828 C609.503906,384.185551 609.309572,384.917965 608.920898,385.621094 C608.532225,386.324222 607.987308,386.870115 607.286133,387.258789 C606.584957,387.647463 605.851566,387.841797 605.085938,387.841797 C604.320309,387.841797 603.586918,387.647463 602.885742,387.258789 C602.184567,386.870115 601.638674,386.324222 601.248047,385.621094 C600.85742,384.917965 600.662109,384.185551 600.662109,383.423828 C600.662109,382.654293 600.86035,381.915043 601.256836,381.206055 C601.653322,380.497067 602.205075,379.95215 602.912109,379.571289 C603.619144,379.190428 604.343746,379 605.085938,379 Z M605.085938,379.732422 C604.464841,379.732422 603.860355,379.8916 603.272461,380.209961 C602.684567,380.528322 602.224611,380.983395 601.892578,381.575195 C601.560545,382.166995 601.394531,382.7832 601.394531,383.423828 C601.394531,384.06055 601.557616,384.670896 601.883789,385.254883 C602.209963,385.83887 602.666013,386.293944 603.251953,386.620117 C603.837894,386.946291 604.449216,387.109375 605.085938,387.109375 C605.722659,387.109375 606.333981,386.946291 606.919922,386.620117 C607.505862,386.293944 607.960936,385.83887 608.285156,385.254883 C608.609377,384.670896 608.771484,384.06055 608.771484,383.423828 C608.771484,382.7832 608.606447,382.166995 608.276367,381.575195 C607.946287,380.983395 607.486331,380.528322 606.896484,380.209961 C606.306638,379.8916 605.703128,379.732422 605.085938,379.732422 Z M605.45511,383.740232 C605.455099,383.740233 605.455089,383.740234 605.455078,383.740232 C605.457917,383.741423 605.460747,383.742615 605.463567,383.743812 L605.45511,383.740232 Z M605.463567,383.743812 C605.627594,383.81339 605.759529,383.896181 605.859375,383.992188 C606.050782,384.179688 606.285155,384.494138 606.5625,384.935547 L607.142578,385.867188 L606.205078,385.867188 L605.783203,385.117188 C605.45117,384.527341 605.183595,384.158204 604.980469,384.009766 C604.839843,383.90039 604.634767,383.845703 604.365234,383.845703 L603.914062,383.845703 L603.914062,385.867188 L603.146484,385.867188 L603.146484,381.109375 L604.78125,381.109375 C605.339847,381.109375 605.744139,381.15332 605.994141,381.241211 C606.244142,381.329102 606.443359,381.482421 606.591797,381.701172 C606.740235,381.919923 606.814453,382.152343 606.814453,382.398438 C606.814453,382.746095 606.690431,383.048827 606.442383,383.306641 C606.194341,383.564448 605.865253,383.708977 605.45511,383.740232 L605.463567,383.743812 Z M603.914062,383.189453 L604.845703,383.189453 C605.291018,383.189453 605.594726,383.123048 605.756836,382.990234 C605.918946,382.857421 606,382.681642 606,382.462891 C606,382.322265 605.960938,382.19629 605.882812,382.084961 C605.804687,381.973632 605.69629,381.890625 605.557617,381.835938 C605.418945,381.78125 605.162111,381.753906 604.787109,381.753906 L603.914062,381.753906 L603.914062,383.189453 Z M615.805664,393.736328 L615.805664,380.851562 L617.510742,380.851562 L617.510742,392.21582 L623.856445,392.21582 L623.856445,393.736328 L615.805664,393.736328 Z M625.693359,382.670898 L625.693359,380.851562 L627.275391,380.851562 L627.275391,382.670898 L625.693359,382.670898 Z M625.693359,393.736328 L625.693359,384.402344 L627.275391,384.402344 L627.275391,393.736328 L625.693359,393.736328 Z M629.683594,397.313477 L629.683594,384.402344 L631.125,384.402344 L631.125,385.615234 C631.464845,385.140623 631.848631,384.784669 632.276367,384.547363 C632.704104,384.310057 633.222653,384.191406 633.832031,384.191406 C634.62891,384.191406 635.332028,384.396482 635.941406,384.806641 C636.550784,385.216799 637.010741,385.795406 637.321289,386.54248 C637.631837,387.289555 637.787109,388.108394 637.787109,388.999023 C637.787109,389.954106 637.615724,390.813961 637.272949,391.578613 C636.930174,392.343266 636.432132,392.929197 635.778809,393.336426 C635.125485,393.743654 634.43848,393.947266 633.717773,393.947266 C633.190427,393.947266 632.717287,393.835939 632.29834,393.613281 C631.879392,393.390624 631.535158,393.109377 631.265625,392.769531 L631.265625,397.313477 L629.683594,397.313477 Z M631.116211,389.12207 C631.116211,390.323248 631.359373,391.210935 631.845703,391.785156 C632.332034,392.359378 632.920895,392.646484 633.612305,392.646484 C634.315433,392.646484 634.917478,392.349124 635.418457,391.754395 C635.919436,391.159665 636.169922,390.238287 636.169922,388.990234 C636.169922,387.800775 635.925295,386.910159 635.436035,386.318359 C634.946775,385.72656 634.362308,385.430664 633.682617,385.430664 C633.008786,385.430664 632.4126,385.745602 631.894043,386.375488 C631.375486,387.005374 631.116211,387.920892 631.116211,389.12207 Z M639.703125,382.670898 L639.703125,380.851562 L641.285156,380.851562 L641.285156,382.670898 L639.703125,382.670898 Z M639.703125,393.736328 L639.703125,384.402344 L641.285156,384.402344 L641.285156,393.736328 L639.703125,393.736328 Z M649.749023,393.736328 L649.749023,392.558594 C649.157224,393.48438 648.287115,393.947266 647.138672,393.947266 C646.394528,393.947266 645.710452,393.74219 645.086426,393.332031 C644.462399,392.921873 643.979006,392.349125 643.63623,391.61377 C643.293455,390.878414 643.12207,390.033208 643.12207,389.078125 C643.12207,388.14648 643.277342,387.301273 643.587891,386.54248 C643.898439,385.783688 644.364255,385.20215 644.985352,384.797852 C645.606448,384.393553 646.300777,384.191406 647.068359,384.191406 C647.630862,384.191406 648.131834,384.310057 648.571289,384.547363 C649.010744,384.784669 649.368163,385.093748 649.643555,385.474609 L649.643555,380.851562 L651.216797,380.851562 L651.216797,393.736328 L649.749023,393.736328 Z M644.748047,389.078125 C644.748047,390.273443 644.999997,391.166989 645.503906,391.758789 C646.007815,392.350589 646.602536,392.646484 647.288086,392.646484 C647.979496,392.646484 648.566892,392.363772 649.050293,391.79834 C649.533694,391.232907 649.775391,390.370123 649.775391,389.209961 C649.775391,387.932611 649.529299,386.99512 649.037109,386.397461 C648.544919,385.799802 647.93848,385.500977 647.217773,385.500977 C646.514645,385.500977 645.927248,385.788083 645.455566,386.362305 C644.983884,386.936526 644.748047,387.841791 644.748047,389.078125 Z M658.274414,390.334961 L659.856445,390.124023 C660.038087,391.020512 660.347166,391.666502 660.783691,392.062012 C661.220217,392.457522 661.75195,392.655273 662.378906,392.655273 C663.123051,392.655273 663.751462,392.397464 664.26416,391.881836 C664.776858,391.366208 665.033203,390.727543 665.033203,389.96582 C665.033203,389.239254 664.795901,388.640139 664.321289,388.168457 C663.846677,387.696775 663.243168,387.460938 662.510742,387.460938 C662.211913,387.460938 661.839846,387.519531 661.394531,387.636719 L661.570312,386.248047 C661.675782,386.259766 661.760742,386.265625 661.825195,386.265625 C662.499027,386.265625 663.105466,386.089846 663.644531,385.738281 C664.183596,385.386717 664.453125,384.84473 664.453125,384.112305 C664.453125,383.532224 664.256838,383.05176 663.864258,382.670898 C663.471678,382.290037 662.964847,382.099609 662.34375,382.099609 C661.728513,382.099609 661.215822,382.292967 660.805664,382.679688 C660.395506,383.066408 660.131837,383.646481 660.014648,384.419922 L658.432617,384.138672 C658.625978,383.07812 659.065426,382.256351 659.750977,381.67334 C660.436527,381.090329 661.289057,380.798828 662.308594,380.798828 C663.011722,380.798828 663.659177,380.949706 664.250977,381.251465 C664.842776,381.553224 665.295409,381.964841 665.608887,382.486328 C665.922365,383.007815 666.079102,383.561521 666.079102,384.147461 C666.079102,384.704104 665.929689,385.210935 665.630859,385.667969 C665.33203,386.125002 664.889651,386.48828 664.303711,386.757812 C665.065433,386.933595 665.657224,387.298337 666.079102,387.852051 C666.500979,388.405764 666.711914,389.098629 666.711914,389.930664 C666.711914,391.05567 666.301762,392.009273 665.481445,392.791504 C664.661129,393.573734 663.62403,393.964844 662.370117,393.964844 C661.239252,393.964844 660.300297,393.627933 659.553223,392.954102 C658.806149,392.28027 658.379883,391.407232 658.274414,390.334961 Z M668.100586,389.869141 L668.100586,388.27832 L672.960938,388.27832 L672.960938,389.869141 L668.100586,389.869141 Z M684.105469,389.21875 L685.810547,389.649414 C685.453123,391.049812 684.810063,392.117672 683.881348,392.853027 C682.952632,393.588383 681.81739,393.956055 680.475586,393.956055 C679.086907,393.956055 677.957524,393.673343 677.087402,393.10791 C676.217281,392.542478 675.555178,391.723638 675.101074,390.651367 C674.64697,389.579096 674.419922,388.427741 674.419922,387.197266 C674.419922,385.855462 674.676267,384.685064 675.188965,383.686035 C675.701663,382.687007 676.431148,381.928225 677.377441,381.409668 C678.323735,380.891111 679.365229,380.631836 680.501953,380.631836 C681.791022,380.631836 682.874996,380.959958 683.753906,381.616211 C684.632817,382.272464 685.245115,383.195307 685.59082,384.384766 L683.912109,384.780273 C683.61328,383.842769 683.17969,383.160158 682.611328,382.732422 C682.042966,382.304685 681.328129,382.09082 680.466797,382.09082 C679.476558,382.09082 678.648929,382.328123 677.983887,382.802734 C677.318844,383.277346 676.851564,383.914547 676.582031,384.714355 C676.312499,385.514164 676.177734,386.338863 676.177734,387.188477 C676.177734,388.284185 676.337401,389.240719 676.656738,390.058105 C676.976076,390.875492 677.472653,391.486326 678.146484,391.890625 C678.820316,392.294924 679.549801,392.49707 680.334961,392.49707 C681.290044,392.49707 682.09863,392.221682 682.760742,391.670898 C683.422855,391.120114 683.871093,390.30274 684.105469,389.21875 Z M687.708984,393.736328 L687.708984,380.851562 L689.291016,380.851562 L689.291016,385.474609 C690.029301,384.619136 690.960932,384.191406 692.085938,384.191406 C692.777347,384.191406 693.377927,384.327635 693.887695,384.600098 C694.397463,384.87256 694.762206,385.249021 694.981934,385.729492 C695.201661,386.209963 695.311523,386.907222 695.311523,387.821289 L695.311523,393.736328 L693.729492,393.736328 L693.729492,387.821289 C693.729492,387.030269 693.558107,386.454592 693.215332,386.094238 C692.872557,385.733885 692.387698,385.553711 691.760742,385.553711 C691.29199,385.553711 690.851076,385.675292 690.437988,385.918457 C690.0249,386.161622 689.73047,386.491209 689.554688,386.907227 C689.378905,387.323244 689.291016,387.897457 689.291016,388.629883 L689.291016,393.736328 L687.708984,393.736328 Z M703.810547,392.584961 C703.224606,393.08301 702.660647,393.434569 702.118652,393.639648 C701.576657,393.844728 700.99512,393.947266 700.374023,393.947266 C699.348628,393.947266 698.56055,393.69678 698.009766,393.195801 C697.458982,392.694822 697.183594,392.054691 697.183594,391.275391 C697.183594,390.818357 697.287597,390.400881 697.495605,390.022949 C697.703614,389.645018 697.976073,389.341798 698.312988,389.113281 C698.649904,388.884764 699.029295,388.711915 699.451172,388.594727 C699.76172,388.512695 700.230466,388.433594 700.857422,388.357422 C702.134772,388.205077 703.075192,388.023439 703.678711,387.8125 C703.68457,387.595702 703.6875,387.458008 703.6875,387.399414 C703.6875,386.75488 703.538087,386.300783 703.239258,386.037109 C702.834959,385.679686 702.234379,385.500977 701.4375,385.500977 C700.693356,385.500977 700.144045,385.631346 699.789551,385.89209 C699.435057,386.152833 699.172852,386.614255 699.00293,387.276367 L697.456055,387.06543 C697.59668,386.403317 697.828123,385.868654 698.150391,385.461426 C698.472658,385.054197 698.938474,384.740724 699.547852,384.520996 C700.15723,384.301268 700.863277,384.191406 701.666016,384.191406 C702.462895,384.191406 703.110349,384.285155 703.608398,384.472656 C704.106448,384.660157 704.472655,384.895995 704.707031,385.180176 C704.941407,385.464357 705.105468,385.82324 705.199219,386.256836 C705.251953,386.526369 705.27832,387.012692 705.27832,387.71582 L705.27832,389.825195 C705.27832,391.295906 705.312011,392.226072 705.379395,392.615723 C705.446778,393.005373 705.580077,393.378904 705.779297,393.736328 L704.126953,393.736328 C703.96289,393.408201 703.857422,393.024416 703.810547,392.584961 Z M703.678711,389.051758 C703.104489,389.286134 702.24317,389.485351 701.094727,389.649414 C700.444333,389.743165 699.984376,389.848632 699.714844,389.96582 C699.445311,390.083008 699.237305,390.254393 699.09082,390.47998 C698.944335,390.705568 698.871094,390.956053 698.871094,391.231445 C698.871094,391.653322 699.03076,392.004881 699.350098,392.286133 C699.669435,392.567384 700.136716,392.708008 700.751953,392.708008 C701.361331,392.708008 701.903318,392.574708 702.37793,392.308105 C702.852541,392.041503 703.201171,391.67676 703.423828,391.213867 C703.593751,390.856444 703.678711,390.329105 703.678711,389.631836 L703.678711,389.051758 Z M707.730469,393.736328 L707.730469,384.402344 L709.145508,384.402344 L709.145508,385.711914 C709.438478,385.254881 709.828123,384.887208 710.314453,384.608887 C710.800784,384.330565 711.354489,384.191406 711.975586,384.191406 C712.666996,384.191406 713.233885,384.33496 713.67627,384.62207 C714.118655,384.909181 714.430663,385.310544 714.612305,385.826172 C715.35059,384.736323 716.311518,384.191406 717.495117,384.191406 C718.420903,384.191406 719.13281,384.447751 719.630859,384.960449 C720.128909,385.473147 720.37793,386.26269 720.37793,387.329102 L720.37793,393.736328 L718.804688,393.736328 L718.804688,387.856445 C718.804688,387.22363 718.753418,386.768068 718.650879,386.489746 C718.548339,386.211424 718.362306,385.987306 718.092773,385.817383 C717.823241,385.64746 717.506838,385.5625 717.143555,385.5625 C716.487301,385.5625 715.942385,385.78076 715.508789,386.217285 C715.075193,386.653811 714.858398,387.352534 714.858398,388.313477 L714.858398,393.736328 L713.276367,393.736328 L713.276367,387.671875 C713.276367,386.968746 713.147462,386.441408 712.889648,386.089844 C712.631835,385.738279 712.209964,385.5625 711.624023,385.5625 C711.178709,385.5625 710.767092,385.679686 710.38916,385.914062 C710.011229,386.148439 709.737306,386.491209 709.567383,386.942383 C709.39746,387.393557 709.3125,388.043941 709.3125,388.893555 L709.3125,393.736328 L707.730469,393.736328 Z M724.183594,393.736328 L722.71582,393.736328 L722.71582,380.851562 L724.297852,380.851562 L724.297852,385.448242 C724.965824,384.610347 725.818354,384.191406 726.855469,384.191406 C727.42969,384.191406 727.973142,384.307128 728.48584,384.538574 C728.998538,384.770021 729.420409,385.095213 729.751465,385.51416 C730.082521,385.933108 730.341796,386.438474 730.529297,387.030273 C730.716798,387.622073 730.810547,388.254879 730.810547,388.928711 C730.810547,390.528328 730.415043,391.764644 729.624023,392.637695 C728.833004,393.510747 727.883795,393.947266 726.776367,393.947266 C725.674799,393.947266 724.81055,393.487309 724.183594,392.567383 L724.183594,393.736328 Z M724.166016,388.999023 C724.166016,390.11817 724.318358,390.926755 724.623047,391.424805 C725.121096,392.239262 725.794918,392.646484 726.644531,392.646484 C727.335941,392.646484 727.933591,392.346194 728.4375,391.745605 C728.941409,391.145017 729.193359,390.250006 729.193359,389.060547 C729.193359,387.841791 728.951663,386.942386 728.468262,386.362305 C727.984861,385.782224 727.400394,385.492188 726.714844,385.492188 C726.023434,385.492188 725.425784,385.792477 724.921875,386.393066 C724.417966,386.993655 724.166016,387.862299 724.166016,388.999023 Z M739.125,390.730469 L740.759766,390.932617 C740.501952,391.8877 740.024418,392.628904 739.327148,393.15625 C738.629879,393.683596 737.739263,393.947266 736.655273,393.947266 C735.290032,393.947266 734.207524,393.52686 733.407715,392.686035 C732.607906,391.845211 732.208008,390.666023 732.208008,389.148438 C732.208008,387.578117 732.612301,386.359379 733.420898,385.492188 C734.229496,384.624996 735.278314,384.191406 736.567383,384.191406 C737.815436,384.191406 738.834957,384.616207 739.625977,385.46582 C740.416996,386.315434 740.8125,387.510734 740.8125,389.051758 C740.8125,389.145508 740.80957,389.286132 740.803711,389.473633 L733.842773,389.473633 C733.901367,390.499029 734.191404,391.284177 734.712891,391.829102 C735.234378,392.374026 735.884762,392.646484 736.664062,392.646484 C737.244144,392.646484 737.739256,392.494142 738.149414,392.189453 C738.559572,391.884764 738.884764,391.398441 739.125,390.730469 Z M733.930664,388.172852 L739.142578,388.172852 C739.072265,387.387691 738.873049,386.79883 738.544922,386.40625 C738.041013,385.796872 737.387699,385.492188 736.584961,385.492188 C735.858395,385.492188 735.247561,385.735349 734.752441,386.22168 C734.257322,386.70801 733.983399,387.358394 733.930664,388.172852 Z M742.728516,393.736328 L742.728516,384.402344 L744.152344,384.402344 L744.152344,385.817383 C744.515627,385.15527 744.851073,384.718751 745.158691,384.507812 C745.46631,384.296874 745.804686,384.191406 746.173828,384.191406 C746.707034,384.191406 747.249021,384.361326 747.799805,384.701172 L747.254883,386.168945 C746.868162,385.940429 746.481447,385.826172 746.094727,385.826172 C745.749022,385.826172 745.438478,385.930175 745.163086,386.138184 C744.887694,386.346192 744.691407,386.634764 744.574219,387.003906 C744.398437,387.566409 744.310547,388.181637 744.310547,388.849609 L744.310547,393.736328 L742.728516,393.736328 Z M753.873047,393.736328 L753.873047,380.851562 L758.707031,380.851562 C759.691411,380.851562 760.480954,380.981932 761.075684,381.242676 C761.670413,381.503419 762.136229,381.904782 762.473145,382.446777 C762.81006,382.988772 762.978516,383.555661 762.978516,384.147461 C762.978516,384.698245 762.829103,385.216794 762.530273,385.703125 C762.231444,386.189456 761.780276,386.58203 761.176758,386.880859 C761.956059,387.109376 762.555174,387.499021 762.974121,388.049805 C763.393069,388.600589 763.602539,389.250973 763.602539,390.000977 C763.602539,390.604495 763.475099,391.165525 763.220215,391.684082 C762.965331,392.202639 762.650392,392.602538 762.275391,392.883789 C761.900389,393.16504 761.430179,393.377441 760.864746,393.520996 C760.299314,393.664551 759.606449,393.736328 758.786133,393.736328 L753.873047,393.736328 Z M755.578125,386.265625 L758.364258,386.265625 C759.120121,386.265625 759.662108,386.215821 759.990234,386.116211 C760.42383,385.987304 760.750487,385.773439 760.970215,385.474609 C761.189943,385.17578 761.299805,384.800784 761.299805,384.349609 C761.299805,383.921873 761.197267,383.545412 760.992188,383.220215 C760.787108,382.895018 760.494143,382.672364 760.113281,382.552246 C759.73242,382.432128 759.079106,382.37207 758.15332,382.37207 L755.578125,382.37207 L755.578125,386.265625 Z M755.578125,392.21582 L758.786133,392.21582 C759.336917,392.21582 759.723632,392.195313 759.946289,392.154297 C760.338869,392.083984 760.666991,391.966798 760.930664,391.802734 C761.194337,391.638671 761.411132,391.399904 761.581055,391.086426 C761.750977,390.772948 761.835938,390.411135 761.835938,390.000977 C761.835938,389.520505 761.712892,389.103029 761.466797,388.748535 C761.220702,388.394041 760.879397,388.14502 760.442871,388.001465 C760.006345,387.857909 759.377934,387.786133 758.557617,387.786133 L755.578125,387.786133 L755.578125,392.21582 Z M771.837891,392.584961 C771.25195,393.08301 770.687991,393.434569 770.145996,393.639648 C769.604001,393.844728 769.022464,393.947266 768.401367,393.947266 C767.375971,393.947266 766.587893,393.69678 766.037109,393.195801 C765.486325,392.694822 765.210938,392.054691 765.210938,391.275391 C765.210938,390.818357 765.31494,390.400881 765.522949,390.022949 C765.730958,389.645018 766.003416,389.341798 766.340332,389.113281 C766.677248,388.884764 767.056639,388.711915 767.478516,388.594727 C767.789064,388.512695 768.257809,388.433594 768.884766,388.357422 C770.162116,388.205077 771.102536,388.023439 771.706055,387.8125 C771.711914,387.595702 771.714844,387.458008 771.714844,387.399414 C771.714844,386.75488 771.565431,386.300783 771.266602,386.037109 C770.862303,385.679686 770.261723,385.500977 769.464844,385.500977 C768.720699,385.500977 768.171388,385.631346 767.816895,385.89209 C767.462401,386.152833 767.200196,386.614255 767.030273,387.276367 L765.483398,387.06543 C765.624024,386.403317 765.855467,385.868654 766.177734,385.461426 C766.500002,385.054197 766.965817,384.740724 767.575195,384.520996 C768.184573,384.301268 768.890621,384.191406 769.693359,384.191406 C770.490238,384.191406 771.137693,384.285155 771.635742,384.472656 C772.133792,384.660157 772.499999,384.895995 772.734375,385.180176 C772.968751,385.464357 773.132812,385.82324 773.226562,386.256836 C773.279297,386.526369 773.305664,387.012692 773.305664,387.71582 L773.305664,389.825195 C773.305664,391.295906 773.339355,392.226072 773.406738,392.615723 C773.474121,393.005373 773.607421,393.378904 773.806641,393.736328 L772.154297,393.736328 C771.990234,393.408201 771.884766,393.024416 771.837891,392.584961 Z M771.706055,389.051758 C771.131833,389.286134 770.270514,389.485351 769.12207,389.649414 C768.471676,389.743165 768.01172,389.848632 767.742188,389.96582 C767.472655,390.083008 767.264649,390.254393 767.118164,390.47998 C766.971679,390.705568 766.898438,390.956053 766.898438,391.231445 C766.898438,391.653322 767.058104,392.004881 767.377441,392.286133 C767.696779,392.567384 768.164059,392.708008 768.779297,392.708008 C769.388675,392.708008 769.930662,392.574708 770.405273,392.308105 C770.879885,392.041503 771.228515,391.67676 771.451172,391.213867 C771.621095,390.856444 771.706055,390.329105 771.706055,389.631836 L771.706055,389.051758 Z M775.467773,394.509766 L777.005859,394.738281 C777.070313,395.212893 777.249022,395.558593 777.541992,395.775391 C777.934572,396.068361 778.4707,396.214844 779.150391,396.214844 C779.882816,396.214844 780.44824,396.068361 780.84668,395.775391 C781.245119,395.48242 781.514648,395.072268 781.655273,394.544922 C781.737305,394.222655 781.775391,393.545904 781.769531,392.514648 C781.078122,393.329106 780.216802,393.736328 779.185547,393.736328 C777.902337,393.736328 776.909183,393.273442 776.206055,392.347656 C775.502926,391.42187 775.151367,390.31153 775.151367,389.016602 C775.151367,388.125972 775.312498,387.304203 775.634766,386.55127 C775.957033,385.798336 776.424313,385.216799 777.036621,384.806641 C777.648929,384.396482 778.36816,384.191406 779.194336,384.191406 C780.295904,384.191406 781.204098,384.636714 781.918945,385.527344 L781.918945,384.402344 L783.37793,384.402344 L783.37793,392.470703 C783.37793,393.923835 783.229982,394.95361 782.934082,395.560059 C782.638182,396.166507 782.169437,396.645506 781.527832,396.99707 C780.886227,397.348635 780.096684,397.524414 779.15918,397.524414 C778.045893,397.524414 777.146488,397.273928 776.460938,396.772949 C775.775387,396.27197 775.444336,395.517583 775.467773,394.509766 Z M776.777344,388.902344 C776.777344,390.126959 777.020505,391.020505 777.506836,391.583008 C777.993166,392.145511 778.602535,392.426758 779.334961,392.426758 C780.061527,392.426758 780.670896,392.146975 781.163086,391.587402 C781.655276,391.027829 781.901367,390.150397 781.901367,388.955078 C781.901367,387.812494 781.647952,386.951175 781.141113,386.371094 C780.634275,385.791013 780.023441,385.500977 779.308594,385.500977 C778.605465,385.500977 778.007815,385.786618 777.515625,386.35791 C777.023435,386.929202 776.777344,387.777338 776.777344,388.902344 Z" id="NuTRIflex®-Lipid-3-C" fill="#6E6E6E"></path>
        <path d="M85,1 L446.904155,1" id="Line" stroke="#FFFFFF" stroke-linecap="square"></path>
        <path d="M468.354492,0.5 L830.714873,0.5" id="Line-Copy-7" stroke="#FFFFFF" stroke-linecap="square"></path>
        <rect id="Rectangle-5-Copy-3" fill="#FFFFFF" x="84.4570313" y="366" width="362.542969" height="3"></rect>
        <rect id="Rectangle-5-Copy-4" fill="#FFFFFF" x="468" y="366" width="362.542969" height="3"></rect>
        <path d="M84.3544922,37.5 L446.714873,37.5" id="Line" stroke="#FFFFFF" stroke-linecap="square"></path>
        <path d="M468.354492,36.5 L830.714873,36.5" id="Line-Copy-8" stroke="#FFFFFF" stroke-linecap="square"></path>
        <path d="M84.3544922,110.5 L446.714873,110.5" id="Line" stroke="#FFFFFF" stroke-linecap="square"></path>
        <path d="M468.354492,110.5 L830.714873,110.5" id="Line-Copy-9" stroke="#FFFFFF" stroke-linecap="square"></path>
        <path d="M84.3544922,183.5 L446.714873,183.5" id="Line" stroke="#FFFFFF" stroke-linecap="square"></path>
        <path d="M468.354492,183.5 L830.714873,183.5" id="Line-Copy-10" stroke="#FFFFFF" stroke-linecap="square"></path>
        <path d="M84.3544922,256.5 L446.714873,256.5" id="Line" stroke="#FFFFFF" stroke-linecap="square"></path>
        <path d="M468.354492,256.5 L830.714873,256.5" id="Line-Copy-11" stroke="#FFFFFF" stroke-linecap="square"></path>
        <path d="M84.3544922,329.5 L446.714873,329.5" id="Line-Copy" stroke="#FFFFFF" stroke-linecap="square"></path>
        <path d="M468.354492,329.5 L830.714873,329.5" id="Line-Copy-12" stroke="#FFFFFF" stroke-linecap="square"></path>
        <path d="M84.3544922,293.5 L446.714873,293.5" id="Line-Copy-2" stroke="#FFFFFF" stroke-linecap="square"></path>
        <path d="M468.354492,293.5 L830.714873,293.5" id="Line-Copy-13" stroke="#FFFFFF" stroke-linecap="square"></path>
        <path d="M84.3544922,220.5 L446.714873,220.5" id="Line-Copy-3" stroke="#FFFFFF" stroke-linecap="square"></path>
        <path d="M468.354492,220.5 L830.714873,220.5" id="Line-Copy-14" stroke="#FFFFFF" stroke-linecap="square"></path>
        <path d="M84.3544922,147.5 L446.714873,147.5" id="Line-Copy-4" stroke="#FFFFFF" stroke-linecap="square"></path>
        <path d="M468.354492,146.5 L830.714873,146.5" id="Line-Copy-15" stroke="#FFFFFF" stroke-linecap="square"></path>
        <path d="M84.3544922,74.5 L446.714873,74.5" id="Line-Copy-5" stroke="#FFFFFF" stroke-linecap="square"></path>
        <path d="M468.354492,73.5 L830.714873,73.5" id="Line-Copy-16" stroke="#FFFFFF" stroke-linecap="square"></path>
        <text id="#-of-injuries" transform="translate(10.000000, 185.500000) rotate(-90.000000) translate(-10.000000, -185.500000) " font-family="ArialMT, Arial" font-size="18" font-weight="normal" fill="#6E6E6E">
            <tspan x="-36.0239258" y="191.5"># of injuries</tspan>
        </text>
        <text id="0" font-family="ArialMT, Arial" font-size="18" font-weight="normal" fill="#FFFFFF">
            <tspan x="53.9892578" y="374">0</tspan>
        </text>
        <use id="Rectangle-Copy-14" stroke="#00B482" mask="url(#mask-2)" stroke-width="2" fill="#CCF0E6" stroke-dasharray="2,2" xlink:href="#path-1"></use>
        <rect id="Rectangle-Copy-13" fill="#00B482" x="594" y="137" width="110" height="229"></rect>
        <g id="icons/purple/plus-filled" transform="translate(635.000000, 55.000000)" fill-rule="nonzero">
            <circle id="Oval-5" fill="#711E82" cx="15" cy="15" r="15"></circle>
            <polygon id="+" fill="#FFFFFF" points="13.7706612 22 13.7706612 16.1919505 8 16.1919505 8 13.7647059 13.7706612 13.7647059 13.7706612 8 16.2293388 8 16.2293388 13.7647059 22 13.7647059 22 16.1919505 16.2293388 16.1919505 16.2293388 22"></polygon>
        </g>
        <rect id="Rectangle-Copy-7" fill="#6E6E6E" x="205" y="167" width="110" height="199"></rect>
        <text id="Additional-Hospital" font-family="ArialMT, Arial" font-size="16" font-weight="normal" fill="#FFFFFF">
            <tspan x="645" y="433">Additional </tspan>
            <tspan x="645" y="450">Hospital Days</tspan>
        </text>
        <text id="Additional-ICU-Days" font-family="ArialMT, Arial" font-size="16" font-weight="normal" fill="#FFFFFF">
            <tspan x="512" y="433">Additional </tspan>
            <tspan x="512" y="450">ICU Days</tspan>
        </text>
        <text id="Additional-Labour-Ti" font-family="ArialMT, Arial" font-size="16" font-weight="normal" fill="#FFFFFF">
            <tspan x="369" y="433">Additional </tspan>
            <tspan x="369" y="450">Labour Time</tspan>
        </text>
        <text id="Additional-Devices" font-family="ArialMT, Arial" font-size="16" font-weight="normal" fill="#FFFFFF">
            <tspan x="236" y="433">Additional </tspan>
            <tspan x="236" y="450">Devices</tspan>
        </text>
        <rect id="Rectangle-Copy-7" fill="#F8F5F5" x="617" y="419" width="18" height="18"></rect>
        <rect id="Rectangle-Copy-8" fill="#E6E6E6" x="484" y="419" width="18" height="18"></rect>
        <rect id="Rectangle-Copy-15" fill="#B4B4B4" x="341" y="419" width="18" height="18"></rect>
        <rect id="Rectangle-Copy-16" fill="#969696" x="208" y="419" width="18" height="18"></rect>
        <text id="Single-Solutions" font-family="ArialMT, Arial" font-size="16" font-weight="normal" fill="#FFFFFF">
            <tspan x="112" y="433">Single </tspan>
            <tspan x="112" y="450">Solutions</tspan>
        </text>
        <rect id="Rectangle-Copy-7" fill="#6E6E6E" x="84" y="419" width="18" height="18"></rect>
        <rect id="Rectangle-Copy-9" fill="#969696" x="205" y="74" width="110" height="93"></rect>
        <rect id="Rectangle-Copy-10" fill="#B4B4B4" x="205" y="37" width="110" height="37"></rect>
        <rect id="Rectangle-Copy-11" fill="#E6E6E6" x="205" y="19" width="110" height="18"></rect>
        <rect id="Rectangle-Copy-12" fill="#FFFFFF" x="205" y="0" width="110" height="19"></rect>
    </g>
</svg>