<?xml version="1.0" encoding="UTF-8"?>
<svg width="22px" height="66px" viewBox="0 0 22 66" version="1.1" xmlns="http://www.w3.org/2000/svg" xmlns:xlink="http://www.w3.org/1999/xlink">
    <!-- Generator: Sketch 49 (51002) - http://www.bohemiancoding.com/sketch -->
    <title>icons/white/additional-information-big</title>
    <desc>Created with Sketch.</desc>
    <defs></defs>
    <g id="icons/white/additional-information-big" stroke="none" stroke-width="1" fill="none" fill-rule="evenodd">
        <path d="M7.72154829,66 L7.7074028,34.0227329 C7.7074028,32.9532987 7.4707017,32.0163084 7.00767285,31.2048431 C6.54275794,30.3943662 5.95996399,29.7489498 5.26683527,29.255745 C4.74533842,28.890042 3.95979253,28.5391648 2.89605212,28.2050902 C1.83419778,27.8690388 0.868532728,27.6545589 0,27.5636274 L0,24.0548554 L21.9839685,22 L22,65.9990116 L7.72154829,66 Z M22,9.16611898 C22,14.2278584 17.8953752,18.3333333 12.8311424,18.3333333 C7.77019598,18.3333333 3.66666667,14.2278584 3.66666667,9.16611898 C3.66666667,4.10218876 7.77019598,0 12.8311424,0 C17.8953752,0 22,4.10218876 22,9.16611898 Z" id="Combined-Shape" fill="#FEFEFE" fill-rule="nonzero"></path>
    </g>
</svg>