<?xml version="1.0" encoding="UTF-8"?>
<svg width="71px" height="71px" viewBox="0 0 71 71" version="1.1" xmlns="http://www.w3.org/2000/svg" xmlns:xlink="http://www.w3.org/1999/xlink">
    <!-- Generator: Sketch 49 (51002) - http://www.bohemiancoding.com/sketch -->
    <title>icons/white/cost-pressure</title>
    <desc>Created with Sketch.</desc>
    <defs></defs>
    <g id="icons/white/cost-pressure" stroke="none" stroke-width="1" fill="none" fill-rule="evenodd">
        <path d="M3.04285714,67.9571429 L71,67.9571429 L71,71 L3.04285714,71 L0,71 L0,0 L3.04285714,0 L3.04285714,54.914313 L10.7317514,34.1248314 L20.9831371,49.6586171 L35.6010229,27.4711171 L51.5739943,29.6812457 L58.55228,11.7375171 L54.3622657,13.7660886 C53.61068,14.1322457 52.6978229,13.8178171 52.3306514,13.06116 C51.9644943,12.3045029 52.2809514,11.3946886 53.0376086,11.0285314 L62.1834229,6.59914571 L62.7848943,8.11448857 C62.7869229,8.11854571 62.7879371,8.12260286 62.7899657,8.12666 L65.9352657,16.0421457 C66.2456371,16.8251743 65.8632514,17.7086171 65.0832657,18.0189886 C64.30328,18.3263171 63.4178086,17.9479886 63.1074371,17.1659743 L61.3882229,12.84106 L53.53968,33.0253457 L37.0869514,30.74726 L20.98618,55.18546 L11.4975371,40.8089743 L3.04285714,63.6170393 L3.04285714,67.9571429 Z" id="Combined-Shape" fill="#FEFEFE" fill-rule="nonzero"></path>
    </g>
</svg>