<?xml version="1.0" encoding="UTF-8"?>
<svg width="75px" height="78px" viewBox="0 0 75 78" version="1.1" xmlns="http://www.w3.org/2000/svg" xmlns:xlink="http://www.w3.org/1999/xlink">
    <!-- Generator: Sketch 49 (51002) - http://www.bohemiancoding.com/sketch -->
    <title>icons/white/features</title>
    <desc>Created with Sketch.</desc>
    <defs></defs>
    <g id="icons/white/features" stroke="none" stroke-width="1" fill="none" fill-rule="evenodd">
        <path d="M66.0195106,58.6290633 C64.9869574,53.8000725 60.2263622,50.7200169 55.3867346,51.750766 C50.5470755,52.7797121 47.4593295,57.5282198 48.4899473,62.3557398 C49.5223897,67.1851175 54.2826176,70.2650439 59.1237194,69.2360041 C63.9628799,68.2069512 67.0509503,63.457089 66.0195106,58.6290633 Z M59.521282,71.0967648 C53.6500576,72.344795 47.8768481,68.6094693 46.6246824,62.7523083 C45.3746343,56.8969541 49.1194634,51.1379472 54.9888733,49.8900689 C60.8585489,48.639939 66.6324274,52.3755782 67.8847399,58.2323279 C69.135755,64.0881553 65.3906073,69.8486705 59.521282,71.0967648 Z M71.8260592,63.3253555 L74.4293531,65.1544042 L72.3611926,69.794377 L69.2829362,69.0961262 C68.7303432,69.8502685 68.1079946,70.5495 67.4241637,71.1832969 L68.4552511,74.1924033 L64.047649,76.7345184 L61.9686777,74.3648782 C61.4993887,74.5156093 61.0253659,74.6423185 60.5444606,74.7448093 C60.1126741,74.8363075 59.6759523,74.9077426 59.2345739,74.9597269 L58.295549,78 L53.2337822,77.4718937 L52.9458094,74.3359436 C52.0576681,74.0446236 51.2004362,73.668899 50.3854631,73.2142487 L47.8314009,75.1246524 L44.0477329,71.7277052 L45.6620208,69.0237912 C45.116483,68.2691429 44.6438719,67.4626306 44.2511037,66.613116 L41.0616842,66.6614195 L40,61.69424 L42.9017433,60.4543824 C42.9030633,59.5152551 42.9949367,58.5848632 43.1755676,57.6734628 L40.5707274,55.8458575 L42.6388646,51.205937 L45.718272,51.9021135 C46.2704307,51.1491357 46.8927961,50.4506241 47.5770699,49.8171022 L46.5460547,46.8071558 L50.9532998,44.2666933 L53.0334044,46.6343302 C53.5062106,46.4826214 53.980403,46.3563477 54.4567593,46.2564236 C54.8878705,46.1640639 55.3245984,46.0921915 55.7675365,46.0399929 L56.7054222,43 L61.7687818,43.5266742 L62.0557328,46.6639913 C62.942845,46.9551625 63.7998831,47.3310602 64.6150241,47.7857584 L67.1699117,45.876575 L70.9550021,49.2720505 L69.3395934,51.9750331 C69.8845822,52.728701 70.3570252,53.5355885 70.7501883,54.3864624 L73.9398264,54.3371054 L75,59.3054493 L72.1000896,60.5454217 C72.0981429,61.4832819 72.0060992,62.4134455 71.8260592,63.3253555 Z M69.6776529,64.1429618 L69.832095,63.5128163 C70.1146124,62.3601058 70.2329449,61.1679224 70.181098,59.9644653 L70.1528205,59.3080946 L72.80838,58.1726042 L72.4010478,56.2637032 L69.4920442,56.3087175 L69.2459919,55.7065444 C68.7909548,54.5929149 68.1844255,53.5589366 67.4448608,52.6294254 L67.0355588,52.1150002 L68.5140909,49.6410466 L67.0595233,48.3362036 L64.7294825,50.0773665 L64.1763486,49.7354846 C63.1596139,49.1070596 62.0592337,48.6244724 60.9081046,48.3040446 L60.27453,48.1276831 L60.0119486,45.2568059 L58.0670147,45.0545002 L57.211692,47.8268794 L56.5622478,47.8748309 C55.9793483,47.9178691 55.4117705,47.9977609 54.8532125,48.1174154 C54.2563128,48.2426333 53.6637773,48.4153007 53.0694516,48.6344972 L52.4540847,48.8614541 L50.5513596,46.6957159 L48.8577156,47.6719809 L49.7972305,50.4148013 L49.3009928,50.8342254 C48.3899452,51.6042502 47.5908742,52.5018595 46.9271131,53.4979145 L46.5632461,54.0439418 L43.7450654,53.406822 L42.9504623,55.1895353 L45.3255257,56.8559248 L45.1698981,57.4872159 C44.886313,58.6375571 44.7683059,59.8290596 44.8211697,61.0345944 L44.8499829,61.6916652 L42.1922036,62.8272818 L42.6000327,64.7353446 L45.5093385,64.6912834 L45.7553037,65.2932433 C46.2091504,66.4039596 46.8158964,67.4374386 47.5568026,68.3698235 L47.9653134,68.8839092 L46.4877728,71.3587731 L47.9417553,72.6641471 L50.2706769,70.9221455 L50.8241488,71.2644301 C51.8399328,71.8926232 52.9400362,72.3747514 54.093191,72.6957431 L54.7265204,72.8720364 L54.9900861,75.7421989 L56.9346052,75.9450752 L57.7907773,73.173054 L58.4398205,73.1249739 C59.0201748,73.0819822 59.5897975,73.0021012 60.1471008,72.8840058 C60.7505588,72.755396 61.3436233,72.5822063 61.9320417,72.3645868 L62.5482516,72.136689 L64.4502828,74.3046505 L66.1435698,73.3280355 L65.2041217,70.5863672 L65.6999372,70.1668728 C66.6100579,69.3968473 67.4092116,68.4982061 68.0740691,67.5000407 L68.4381836,66.9533873 L71.255461,67.5924393 L72.0500409,65.8097783 L69.6776529,64.1429618 Z" id="Stroke-1" fill="#FEFEFE" fill-rule="nonzero"></path>
        <path d="M19.6903177,67.9914256 C25.7617434,67.9914256 30.6820809,63.0718158 30.6820809,57.0020281 C30.6820809,50.9305006 25.7620317,46.0106025 19.6903177,46.0106025 C13.6186038,46.0106025 8.69855457,50.9305006 8.69855457,57.0020281 C8.69855457,63.0718158 13.6188921,67.9914256 19.6903177,67.9914256 Z M19.6903177,69.9181447 C12.5548124,69.9181447 6.77177629,64.1359639 6.77177629,57.0020281 C6.77177629,49.8664031 12.5544735,44.0838834 19.6903177,44.0838834 C26.826162,44.0838834 32.6088592,49.8664031 32.6088592,57.0020281 C32.6088592,64.1359639 26.8258231,69.9181447 19.6903177,69.9181447 Z M40,56.1645338 L39.4554415,61.715541 L36.3086642,61.5718376 C36.0483621,62.5143794 35.7069757,63.4329595 35.2877951,64.3173851 L37.7392431,66.2774244 L34.4916056,70.8101001 L31.8542288,69.1248967 C31.2353865,69.7298792 30.5695304,70.2882679 29.8593115,70.7954345 C29.7688281,70.859797 29.6771163,70.9236645 29.5841429,70.9870879 L30.7247098,73.9040147 L25.6445555,76.2041921 L24.2022536,73.4244336 C23.2519044,73.6657925 22.283359,73.8228957 21.3082716,73.894639 L20.8359548,77 L15.2853302,76.4540042 L15.4281963,73.2972895 C14.4909154,73.0320766 13.57816,72.686903 12.7005994,72.2650486 L10.7242171,74.7380927 L6.18982049,71.4905025 L7.90051283,68.8150491 C7.30402353,68.2018858 6.7509875,67.5399061 6.24348041,66.8302269 C6.1810457,66.7425165 6.11936853,66.6541058 6.05845943,66.565024 L3.09760191,67.7224819 L0.794325866,62.643967 L3.60812709,61.1842599 C3.36505713,60.2395144 3.20468165,59.277968 3.12819086,58.3102394 L0,57.834202 L0.546061082,52.2847627 L3.69277659,52.4274546 C3.95449893,51.484392 4.29621832,50.5666196 4.71528176,49.6828664 L2.26159153,47.7227278 L5.51224694,43.1885421 L8.14749157,44.874793 C8.76637587,44.2700466 9.43201025,43.7124034 10.1414205,43.2063908 C10.2321678,43.1413938 10.3243711,43.0768737 10.418075,43.0127655 L9.27772936,40.0964053 L14.3577712,37.7932622 L15.8004302,40.5758257 C16.7516646,40.3345218 17.7201197,40.1772706 18.693991,40.105443 L19.1663202,37 L24.7169448,37.5459958 L24.5740803,40.7026771 C25.5110919,40.9677189 26.424102,41.3125813 27.3015603,41.7335919 L29.2782781,39.262242 L33.8137551,42.5095257 L32.1017029,45.1854509 C32.701499,45.8018285 33.2550871,46.4630575 33.7584248,47.1672258 C33.82081,47.2547441 33.8827042,47.3434532 33.9442953,47.4335761 L36.9050713,46.2778515 L39.2067307,51.3561276 L36.3948972,52.8148535 C36.6371404,53.758288 36.7970282,54.7201301 36.8737574,55.6895287 L40,56.1645338 Z M37.9040324,57.7949037 L35.017797,57.3563657 L34.9924607,56.5548404 C34.9501428,55.2160977 34.7297481,53.8875354 34.3340631,52.6051395 L34.0968812,51.836445 L36.6975086,50.4872888 L35.9041536,48.7368667 L33.1707933,49.8038206 L32.7477307,49.1255618 C32.5605131,48.8254124 32.3765777,48.5480956 32.190173,48.2865927 C31.6050448,47.468001 30.9423028,46.7137789 30.2102072,46.0283098 L29.6254025,45.480751 L31.2052009,43.0115375 L29.6419175,41.8922672 L27.8136277,44.1780481 L27.1058624,43.7957301 C25.9272614,43.1590777 24.6650772,42.682502 23.3580895,42.3785384 L22.577698,42.1970442 L22.7095112,39.2845501 L20.7964051,39.0963645 L20.3591228,41.9713828 L19.5521571,41.9915707 C18.213374,42.0250632 16.8784444,42.2411492 15.5866041,42.6354185 L14.8193315,42.8695899 L13.4885609,40.3028339 L11.7376666,41.0966384 L12.7902042,43.7884352 L12.1085391,44.2110545 C11.8093065,44.396573 11.5280192,44.5832203 11.261856,44.7738551 C10.4364142,45.3626334 9.67919679,46.028907 8.99419842,46.7651608 L8.44666906,47.3536595 L6.01325887,45.7965592 L4.89316981,47.3589185 L7.15392425,49.1649297 L6.77701016,49.8713398 C6.14336761,51.0589089 5.67271562,52.3241666 5.37369546,53.6390482 L5.19512424,54.4242796 L2.28460412,54.2922983 L2.09646126,56.2043324 L4.98508045,56.6439126 L5.00983659,57.445872 C5.05101928,58.7799586 5.27205932,60.1075964 5.66916706,61.3936553 L5.90656121,62.1624715 L3.30395664,63.5126167 L4.09772319,65.2628 L6.83528635,64.1926323 L7.25757046,64.8756501 C7.43459107,65.1619697 7.61996341,65.4414529 7.81198098,65.7112099 C8.4036361,66.538555 9.064946,67.2926781 9.7911379,67.9708206 L10.3772858,68.5181853 L8.79780169,70.9884343 L10.3601372,72.1073981 L12.1888106,69.8191818 L12.8971814,70.2026575 C14.0759042,70.8407577 15.3367185,71.3173866 16.6441855,71.6214616 L17.424577,71.8029558 L17.2927638,74.7154499 L19.2058699,74.9036355 L19.6431522,72.0286172 L20.4501179,72.0084293 C21.7916339,71.9748684 23.1261475,71.7590895 24.4150526,71.3647704 L25.1824488,71.1299983 L26.5136624,73.6956555 L28.2644442,72.9029417 L27.212515,70.2127007 L27.8925112,69.789706 C28.1906724,69.6042335 28.4736444,69.4166269 28.741011,69.2264462 C29.5645964,68.638323 30.322042,67.9711894 31.0070303,67.2348738 L31.5541969,66.6467071 L33.9894668,68.2027704 L35.1085174,66.6409293 L32.8495263,64.8347677 L33.2262789,64.1286602 C33.8601749,62.9406162 34.3304163,61.673809 34.6261421,60.3617453 L34.8036065,59.5743792 L37.7164151,59.7073979 L37.9040324,57.7949037 Z" id="Stroke-3" fill="#FEFEFE" fill-rule="nonzero"></path>
        <path d="M37.6313611,30.9503595 C43.6293306,29.951041 47.6814259,24.2763812 46.6801058,18.2789261 C45.6797598,12.281711 40.0063807,8.23008634 34.0080973,9.22945712 C28.0098523,10.2288215 23.9582219,15.9028301 24.9595008,21.9019064 C25.9598121,27.8998476 31.6329083,31.9506925 37.6313611,30.9503595 Z M23.0556264,22.2195298 C21.8788526,15.1689911 26.6408423,8.50017686 33.6908724,7.3255751 C40.7405094,6.15103886 47.4082783,10.9128036 48.5839682,17.9612305 C49.7608382,25.0101503 44.9983892,31.6796375 37.9488023,32.8542054 C30.8989214,34.02984 24.2312776,29.2688224 23.0556264,22.2195298 Z M52.3093515,24.7110508 L55.0559877,26.2433918 L52.5946166,31.2596548 L49.7106277,30.0291496 C49.1998968,30.7269052 48.6339394,31.3873165 48.0174786,32.0029388 C47.9377984,32.0832488 47.8567049,32.1630583 47.7740463,32.2425573 L49.3823741,34.935732 L44.7405269,38.046819 L42.8575479,35.5373203 C41.9582887,35.9319387 41.0271327,36.2468425 40.0754668,36.4789253 L40.1188732,39.6252582 L34.5459232,40 L34.1674862,36.8570592 C33.1976994,36.7497453 32.2382731,36.5594016 31.3007885,36.2876345 L29.7544796,39.0571339 L24.7418585,36.5939706 L25.9900815,33.6684748 C25.2992113,33.1608186 24.6439879,32.5983252 24.0260921,31.9812607 C23.950017,31.9051881 23.8742365,31.827877 23.7984495,31.7490547 L21.0631534,33.3810663 L17.9533169,28.7406366 L20.4902719,26.8369221 C20.0951222,25.944135 19.7787793,25.0202985 19.5434973,24.0748421 L16.3747392,24.1193516 L16,18.5452829 L19.1318544,18.1683713 C19.2346918,17.1945058 19.421115,16.2306772 19.6894339,15.2888442 L16.9432341,13.7550943 L19.4047581,8.7415418 L22.2890151,9.97170932 C22.7995145,9.27333418 23.365599,8.6123564 23.9844406,7.99434464 C24.0635276,7.91526018 24.1438846,7.83654454 24.2255428,7.75813835 L22.6197155,5.06276581 L27.2588126,1.95300739 L29.1415927,4.46330109 C30.0408385,4.06831149 30.9722521,3.75339126 31.9252627,3.52111172 L31.8797386,0.37475246 L37.4543586,0 L37.83273,3.1434565 C38.801938,3.25023983 39.7606708,3.44037735 40.6985851,3.71235198 L42.2446665,0.944318938 L47.2598257,3.40573343 L46.0102989,6.33180113 C46.7011148,6.83954516 47.3566336,7.40203855 47.9717717,8.01634862 C48.0491043,8.09337062 48.125777,8.17139275 48.2018397,8.25044575 L50.934263,6.61908955 L54.0485809,11.2579309 L51.5084303,13.1637773 C51.9033875,14.0547801 52.2202065,14.9785969 52.4567602,15.9251579 L55.6267672,15.8806308 L56,21.4547692 L52.8677736,21.8315983 C52.7652797,22.8048397 52.5785491,23.7684186 52.3093515,24.7110508 Z M49.9839056,25.6238926 L50.2408146,24.8633756 C50.6725784,23.5852431 50.9297185,22.2558471 51.0063674,20.912618 L51.0523982,20.1059545 L53.9518192,19.7571336 L53.823203,17.8362822 L50.8989842,17.8773569 L50.7412312,17.0909199 C50.4765521,15.7714305 50.0395058,14.4958721 49.4373829,13.297327 L49.0751968,12.5763838 L51.4252003,10.8132025 L50.3520243,9.21468451 L47.8231182,10.7245335 L47.2932861,10.1160557 C47.0701697,9.85982106 46.8429077,9.61619821 46.608735,9.38296465 C45.8899573,8.66515553 45.1110568,8.02845929 44.2811623,7.47746551 L43.6119842,7.03317649 L44.7656187,4.33166379 L43.0373076,3.48341758 L41.6074129,6.04343544 L40.845047,5.78230499 C39.5719829,5.3462469 38.2483659,5.08398164 36.9082774,5.00052853 L36.1061289,4.95057527 L35.7568241,2.04860044 L33.8362161,2.17771284 L33.8783445,5.08937688 L33.0849639,5.24285507 C31.7616152,5.49885476 30.4785384,5.93197546 29.2703867,6.53366695 L28.550559,6.89216022 L26.8130239,4.57552051 L25.2145634,5.64702772 L26.6958486,8.13335678 L26.093471,8.66297761 C25.8306028,8.89409593 25.5828993,9.12554918 25.3488432,9.35959759 C24.6292759,10.0782002 23.9909574,10.8614249 23.4387723,11.6988629 L22.9953605,12.3713365 L20.3308549,11.2348953 L19.4826129,12.9625671 L22.0137101,14.3761824 L21.7576029,15.1359995 C21.3274599,16.4121448 21.0705983,17.7428283 20.9928182,19.0880925 L20.9462184,19.8940723 L18.0486671,20.2427861 L18.1778087,22.1637072 L21.1035386,22.1226113 L21.2603206,22.910531 C21.5221899,24.2265754 21.9582892,25.5014713 22.5612372,26.7044893 L22.9223711,27.4250334 L20.5754201,29.1861702 L21.6469821,30.7851315 L24.169396,29.2801358 L24.6996134,29.8788968 C24.9364062,30.1463009 25.1633227,30.3888428 25.3904929,30.616006 C26.1114867,31.3360295 26.8885551,31.9714234 27.7188685,32.5223795 L28.3881351,32.9664727 L27.2352152,35.6686041 L28.9620008,36.5171332 L30.3916882,33.9565073 L31.1541802,34.2176809 C32.4256228,34.6531836 33.751368,34.9159681 35.0926959,35.000519 L35.8941557,35.0510392 L36.2433805,37.9513714 L38.1636267,37.8222484 L38.1234566,34.9105042 L38.9162951,34.7571309 C40.2367762,34.5016859 41.520401,34.068218 42.7293858,33.4670635 L43.4488295,33.109328 L45.1860911,35.424625 L46.7858651,34.3524147 L45.3000464,31.8643836 L45.9076435,31.3344661 C46.1733347,31.1027428 46.4181384,30.8744553 46.6503847,30.6403878 C47.3699006,29.9218377 48.0092208,29.1382106 48.5618985,28.301491 L49.0055481,27.6298331 L51.668225,28.7659116 L52.5166198,27.036887 L49.9839056,25.6238926 Z" id="Stroke-5" fill="#FEFEFE" fill-rule="nonzero"></path>
    </g>
</svg>