<?xml version="1.0" encoding="UTF-8"?>
<svg width="40px" height="61px" viewBox="0 0 40 61" version="1.1" xmlns="http://www.w3.org/2000/svg" xmlns:xlink="http://www.w3.org/1999/xlink">
    <!-- Generator: Sketch 49 (51002) - http://www.bohemiancoding.com/sketch -->
    <title>icons/white/handling</title>
    <desc>Created with Sketch.</desc>
    <defs></defs>
    <g id="icons/white/handling" stroke="none" stroke-width="1" fill="none" fill-rule="evenodd">
        <path d="M12.3375268,5.74220865 L12.3423773,4.96905321 C12.3285137,2.34657967 14.4128643,0.10257114 16.9756963,0.00340581487 L17.0319579,1.43107084 L16.9758232,0.00340091096 C19.5808937,-0.0971711053 21.7242145,2.04573369 21.7354716,4.72008019 L21.7326482,5.54458447 C22.31507,5.24700068 22.9631724,5.06817475 23.6472938,5.04136684 C26.2407721,4.94661868 28.3283468,7.08521431 28.3452705,9.75398543 L28.3342418,32.9147978 C28.9862517,31.6485709 29.530225,30.6175324 29.9729658,29.8131896 C30.8636037,28.1996794 32.299433,27.2497672 34.0522587,26.8778581 C35.2988241,26.6133658 36.5844653,26.6566665 37.810226,26.8827926 C38.1908868,26.9530162 38.4830805,27.025639 38.6643296,27.080153 L40,27.4818808 L39.6381219,28.8177237 C39.6243984,28.8683832 39.6243984,28.8683832 39.5590623,29.1097389 C39.4696407,29.4401774 39.4696407,29.4401774 39.3354896,29.9362506 C39.0946923,30.826865 38.8263687,31.8204754 38.5374023,32.8920183 C37.7118026,35.9535 36.8862115,39.0260289 36.1157186,41.9090133 C36.0792107,42.0456249 36.0792107,42.0456249 36.0427077,42.1822522 C35.2152942,45.2793858 34.5048119,47.9587684 33.9453727,50.0961477 C33.1770075,53.0339118 31.9010665,55.4213726 30.2549577,57.3019693 C29.2491974,58.451 28.1656745,59.342877 27.0743653,60.0088431 C26.3982728,60.4214253 25.8507172,60.672308 25.4970232,60.7940292 L25.3061978,60.8597004 L25.1045065,60.8708811 L24.3187546,60.9125141 L5.7362065,60.9863632 L4.27545448,61 L3.83750422,60.4312911 C0.684987761,56.3375286 -0.243808462,52.3006941 0.0519258899,49.0835815 C0.0615029655,48.9793983 0.0715521894,48.890193 0.081217749,48.8165536 L0.0326901901,18.0935732 C0.015407716,15.6803615 1.85718247,13.624487 4.21434368,13.5330996 C4.76181085,13.5129691 5.29024425,13.6004936 5.77995402,13.7768601 L5.79920142,10.3182328 C5.78947151,7.69166539 7.79071292,5.45775265 10.3485816,5.35866961 C11.0559721,5.33254728 11.7302344,5.47181034 12.3375268,5.74220865 Z M5.75831531,17.6651919 C5.6500467,16.9248312 5.01128623,16.3632685 4.32418681,16.3885306 C3.57364543,16.4176301 2.90983306,17.1586083 2.91641823,18.0811973 L2.96533701,49.0378436 C2.94195222,49.1736024 2.93359964,49.2362168 2.92380251,49.3427937 C2.84411238,50.2096938 2.90262568,51.3569081 3.21128639,52.6984426 C3.6258387,54.5002146 4.42895778,56.3284726 5.70894361,58.1290054 L24.2324313,58.05725 L24.7118055,58.030676 C24.9047565,57.9465047 25.197109,57.7985017 25.5621565,57.5757332 C26.4122873,57.0569451 27.2702043,56.3507704 28.0764546,55.4296698 C29.4328963,53.8800032 30.4978586,51.8873127 31.1538977,49.3790157 C31.7148083,47.2360148 32.4264233,44.5523602 33.254967,41.4509963 C33.2915047,41.314239 33.2915047,41.314239 33.3280467,41.1774999 C34.099153,38.2922203 34.9252754,35.2177141 35.7513892,32.1543259 C35.9997239,31.233453 36.2328252,30.3700911 36.4463333,29.580114 C35.8318647,29.5297808 35.2194537,29.552487 34.656063,29.6720255 C33.6770312,29.8797534 32.9620813,30.3527481 32.5038254,31.1829382 C32.076727,31.958865 31.5439631,32.9686573 30.9305495,34.1598944 C30.8424492,34.3310981 30.8424492,34.3310981 30.7544258,34.5025913 C30.1810027,35.6204596 29.5761692,36.8192713 28.9780006,38.018234 C28.7685836,38.4379872 28.5749872,38.8277189 28.401945,39.1773774 C28.2982549,39.3868995 28.2245614,39.5362934 28.1855927,39.6155179 L25.4446312,45.1879707 L25.4475831,38.9888669 L25.4615331,9.76230641 C25.4545814,8.66819536 24.6690699,7.86348572 23.7573975,7.89678695 C22.7787698,7.9351373 21.9119479,8.87841352 21.9173046,10.0575677 L21.7722325,13.643301 L21.6489266,29.9902071 L18.7652091,29.9746805 L18.8517264,4.72121339 C18.847167,3.64201283 18.0275302,2.82251092 17.088156,2.85873833 C16.1040277,2.89685726 15.2202584,3.84834616 15.2260958,4.97044552 L15.0689803,30.0288041 L12.1852477,30.0159048 L12.2419736,10.0845444 C12.2328517,9.00665383 11.4005032,8.17931434 10.4586043,8.21409415 C9.50562908,8.25101002 8.67874833,9.17402681 8.68293591,10.3208625 L8.64280068,17.5369044 C8.65210836,17.6486385 8.65725071,17.7615731 8.6580633,17.8755509 L8.57353912,29.9894065 L5.68982937,29.9716542 L5.75831531,17.6651919 Z" id="Stroke-3" fill="#FEFEFE" fill-rule="nonzero"></path>
    </g>
</svg>