<?xml version="1.0" encoding="UTF-8"?>
<svg width="90px" height="90px" viewBox="0 0 90 90" version="1.1" xmlns="http://www.w3.org/2000/svg" xmlns:xlink="http://www.w3.org/1999/xlink">
    <!-- Generator: Sketch 49 (51002) - http://www.bohemiancoding.com/sketch -->
    <title>Hospital icon</title>
    <desc>Created with Sketch.</desc>
    <defs></defs>
    <g id="Hospital-icon" stroke="none" stroke-width="1" fill="none" fill-rule="evenodd">
        <g id="ICU-days-Copy" transform="translate(1.000000, 0.000000)">
            <rect id="Rectangle" x="0" y="0" width="90" height="90"></rect>
        </g>
        <g id="hospital-sign" transform="translate(10.000000, 10.000000)" fill="#FFFFFF" fill-rule="nonzero">
            <path d="M67.6984829,21.798675 L48.2014205,21.798675 L48.2014205,2.30183401 C48.2014205,1.03060782 47.1708172,0 45.8995966,0 L24.1004033,0 C22.8291827,0 21.7985794,1.03060782 21.7985794,2.30183401 L21.7985794,21.798675 L2.30182392,21.798675 C1.0306033,21.798675 0,22.8292828 0,24.100509 L0,45.9010255 C0,47.1722517 1.0306033,48.2028595 2.30182392,48.2028595 L21.7985794,48.2028595 L21.7985794,67.698166 C21.7985794,68.9693922 22.8291827,70 24.1004033,70 L45.8992897,70 C47.1705103,70 48.2011136,68.9693922 48.2011136,67.698166 L48.2011136,48.2028595 L67.698176,48.2028595 C68.9693966,48.2028595 69.9999999,47.1722517 69.9999999,45.9010255 L69.9999999,24.100509 C70.0003068,22.8292828 68.9697035,21.798675 67.6984829,21.798675 Z M65.396659,43.5991915 L45.8995966,43.5991915 C44.628376,43.5991915 43.5977727,44.6297993 43.5977727,45.9010255 L43.5977727,65.396332 L26.4022273,65.396332 L26.4022273,45.9010255 C26.4022273,44.6297993 25.371624,43.5991915 24.1004033,43.5991915 L4.60364784,43.5991915 L4.60364784,26.402343 L24.1004033,26.402343 C25.371624,26.402343 26.4022273,25.3717352 26.4022273,24.100509 L26.4022273,4.60366803 L43.5974658,4.60366803 L43.5974658,24.100509 C43.5974658,25.3717352 44.6280691,26.402343 45.8992897,26.402343 L65.3963521,26.402343 L65.3963521,43.5991915 L65.396659,43.5991915 Z" id="Shape"></path>
        </g>
    </g>
</svg>