<?xml version="1.0" encoding="UTF-8"?>
<svg width="73px" height="63px" viewBox="0 0 73 63" version="1.1" xmlns="http://www.w3.org/2000/svg" xmlns:xlink="http://www.w3.org/1999/xlink">
    <!-- Generator: Sketch 49.1 (51147) - http://www.bohemiancoding.com/sketch -->
    <title>ICU days</title>
    <desc>Created with Sketch.</desc>
    <defs>
        <polygon id="path-1" points="0 0 73 0 73 63 0 63"></polygon>
    </defs>
    <g id="3.-Time-Pressure-&amp;-Efficiency" stroke="none" stroke-width="1" fill="none" fill-rule="evenodd">
        <g id="E.0" transform="translate(-476.000000, -380.000000)">
            <g id="ICU-days" transform="translate(467.000000, 366.000000)">
                <rect id="Rectangle" x="0" y="0" width="90" height="90"></rect>
                <g id="Page-1" stroke-width="1" fill-rule="evenodd" transform="translate(9.000000, 14.000000)">
                    <mask id="mask-2" fill="white">
                        <use xlink:href="#path-1"></use>
                    </mask>
                    <g id="Clip-2"></g>
                    <path d="M65.3265864,33.9332885 C65.3998591,32.9692527 65.4225989,31.792346 65.4352321,30.3903344 C65.3392196,29.3724692 65.2735269,28.2396047 65.1219284,27.016209 C64.8541043,25.8148344 64.7404054,24.4739926 64.2679232,23.1184702 C63.5604633,20.3535958 62.2213427,17.3685102 60.303621,14.4103393 C58.373266,11.4546152 55.7708241,8.55027369 52.4786088,6.11816296 C49.1990267,3.68605223 45.2321979,1.74574659 40.8636328,0.664264752 C36.3459959,-0.0428579859 31.7576129,-0.126048896 27.098484,0.138204584 C22.439355,0.923624649 17.8964516,2.73180355 13.942256,5.39146589 C10.01838,8.09272369 6.71858477,11.633231 4.36375387,15.6215011 C1.9988164,19.6048776 0.601583046,24.0262298 0.161947235,28.3839654 C-0.29032179,32.7465946 0.225113299,37.0358201 1.4530616,40.8699424 C2.67090333,44.7089582 4.58862506,48.0830836 6.78175084,50.8577452 C8.98245654,53.6250663 11.4055068,55.8712209 13.8310837,57.4640822 C14.9807061,58.3571611 16.2364474,58.9199231 17.3052173,59.57811 C18.4346265,60.1359785 19.5033963,60.5837413 20.4559406,61.0168234 C22.4368284,61.7043718 24.0008201,62.5289405 25.1150695,62.7246839 C26.2091058,62.9742566 26.7927602,62.9546823 26.7927602,62.9546823 C27.4345274,63.1014897 28.0939811,62.8959593 28.286006,62.2744742 C28.4881374,61.6285213 28.1141943,60.9458664 27.4522139,60.7476763 L27.373888,60.7232084 C27.373888,60.7232084 26.7978135,60.5543798 25.7189371,60.2338501 C25.2110819,60.0601279 24.4429826,59.6759817 23.8012154,59.3823667 C23.1468149,59.1058793 22.3989287,58.7143926 21.5575567,58.3571611 C20.721238,57.8971643 19.7788004,57.4273803 18.7959364,56.8548311 C17.8711852,56.1941974 16.7973621,55.5971803 15.8018649,54.7530372 C13.7022249,53.2311329 11.6505911,51.1146583 9.83140845,48.5797823 C6.16525004,43.5442854 3.84831878,36.2724212 5.05858059,28.8537494 C5.25313207,27.9949256 5.36683098,26.8718483 5.5992821,26.2234486 L6.03386463,24.6012258 L6.25368253,23.7962314 L6.50634679,23.1967675 C7.09505452,21.6601824 7.92126665,19.8104081 8.99761639,18.2126532 C11.0745166,14.9437398 13.9169895,12.0932278 17.2319446,9.96451917 C20.5746928,7.87495924 24.3520235,6.52188356 28.1520939,6.01050414 C30.0445492,5.71199558 31.9572177,5.70220841 33.8218799,5.83433515 C34.7567377,5.82454798 35.6713823,6.08146109 36.5835003,6.18177954 L36.9271237,6.23071537 L37.0635624,6.2502897 L37.7836555,6.42890548 L39.4259732,6.83751966 C42.6853421,7.78442796 45.8006925,9.41154429 48.3298617,11.4325941 C50.8716641,13.4340695 52.8070724,15.809904 54.2699984,18.1465899 C55.715238,20.4955097 56.7233684,22.8346424 57.2110104,24.9951592 C57.5697937,26.0472796 57.6001134,27.0945063 57.8072981,28.0218403 C57.8780441,28.9736422 57.9386835,29.8446999 57.9967963,30.63012 C57.9336302,32.0321315 57.8906773,33.1111666 57.7567652,33.9332885 L50.3360159,33.9332885 L61.2031057,47.7894687 L73,33.9332885 L65.3265864,33.9332885 Z M41.6216256,28.5209858 L41.6216256,33.7228644 L36.2752499,33.7228644 L36.3080962,33.6665882 L39.900982,28.4353481 C40.5048496,27.3758873 41.017758,26.4069579 41.6216256,25.2031365 L41.7429044,25.2031365 C41.6519453,26.3188734 41.6216256,27.4370571 41.6216256,28.5209858 Z M45.047753,21.8241175 L40.7448806,21.8241175 L32.7430035,34.1045639 L32.7430035,36.4559305 L41.6216256,36.4559305 L41.6216256,41.3054712 L45.047753,41.3054712 L45.047753,36.4559305 L47.5845021,36.4559305 L47.5845021,33.7228644 L45.047753,33.7228644 L45.047753,21.8241175 Z M24.2155848,36.8082685 C27.6290789,33.7228644 30.1077153,31.0216066 30.1077153,27.6695023 C30.1077153,24.5547368 27.9929154,21.8803937 23.6445635,21.8803937 C21.1634005,21.8803937 18.7833032,22.7343239 17.3683833,23.8500608 L18.452313,26.4069579 C19.4503368,25.6729205 21.1634005,24.8189902 22.8865707,24.8189902 C25.4536396,24.8189902 26.3935507,26.3188734 26.3935507,28.0242871 C26.3607043,30.5493759 24.1877917,32.8420195 19.5665624,37.013799 L17.2395245,39.1009121 L17.2395245,41.3054712 L30.0849755,41.3054712 L30.0849755,38.3081517 L22.4949411,38.3081517 L22.4949411,38.2494287 L24.2155848,36.8082685 Z" id="Fill-1" fill="#FFFFFF" mask="url(#mask-2)"></path>
                </g>
            </g>
        </g>
    </g>
</svg>