<?xml version="1.0" encoding="UTF-8"?>
<svg width="90px" height="90px" viewBox="0 0 90 90" version="1.1" xmlns="http://www.w3.org/2000/svg" xmlns:xlink="http://www.w3.org/1999/xlink">
    <!-- Generator: Sketch 49 (51002) - http://www.bohemiancoding.com/sketch -->
    <title>Labour time</title>
    <desc>Created with Sketch.</desc>
    <defs></defs>
    <g id="Labour-time" stroke="none" stroke-width="1" fill="none" fill-rule="evenodd">
        <rect id="Rectangle" x="0" y="0" width="90" height="90"></rect>
        <path d="M62.7777778,20 L58.3333333,20 L58.3333333,22.2727273 L58.3333333,65.4545455 L31.6666667,65.4545455 L31.6666667,60.9090909 L36.1111111,60.9090909 L36.1111111,58.6363636 L31.6666667,58.6363636 L31.6666667,54.0909091 L38.3333333,54.0909091 L38.3333333,51.8181818 L31.6666667,51.8181818 L31.6666667,47.2727273 L36.1111111,47.2727273 L36.1111111,45 L31.6666667,45 L31.6666667,40.4545455 L38.3333333,40.4545455 L38.3333333,38.1818182 L31.6666667,38.1818182 L31.6666667,33.6363636 L36.1111111,33.6363636 L36.1111111,31.3636364 L31.6666667,31.3636364 L31.6666667,26.8181818 L38.3333333,26.8181818 L38.3333333,24.5454545 L31.6666667,24.5454545 L31.6666667,22.2727273 L31.6666667,20 L27.2222222,20 L25,20 L25,22.2727273 L27.2222222,22.2727273 L27.2222222,24.5340909 L27.2222222,24.5454545 L27.2222222,65.4545455 C27.2222222,67.9545455 29.2288889,70 31.6666667,70 L58.3333333,70 C60.7777778,70 62.7777778,67.9545455 62.7777778,65.4545455 L62.7777778,35.9090909 L62.7777778,24.5454545 L62.7777778,22.2727273 L65,22.2727273 L65,20 L62.7777778,20 Z" id="Page-1" fill="#FFFFFF"></path>
    </g>
</svg>