<?xml version="1.0" encoding="UTF-8"?>
<svg width="67px" height="56px" viewBox="0 0 67 56" version="1.1" xmlns="http://www.w3.org/2000/svg" xmlns:xlink="http://www.w3.org/1999/xlink">
    <!-- Generator: Sketch 49 (51002) - http://www.bohemiancoding.com/sketch -->
    <title>icons/white/medical-kit</title>
    <desc>Created with Sketch.</desc>
    <defs></defs>
    <g id="icons/white/medical-kit" stroke="none" stroke-width="1" fill="none" fill-rule="evenodd">
        <path d="M19.2878788,17.2575758 C19.2878788,11.1019508 25.6605939,6.09090909 33.5,6.09090909 C41.3308788,6.09090909 47.7121212,11.1019508 47.7121212,17.2575758 L19.2878788,17.2575758 Z M47.7121212,42.230303 L39.1848485,42.230303 L39.1848485,50.7575758 L27.8151515,50.7575758 L27.8151515,42.230303 L19.2878788,42.230303 L19.2878788,30.8606061 L27.8151515,30.8606061 L27.8151515,22.3333333 L39.1848485,22.3333333 L39.1848485,30.8606061 L47.7121212,30.8606061 L47.7121212,42.230303 Z M61.4166667,16.75 L53.0416667,16.75 C53.0416667,7.512375 44.27025,0 33.5,0 C22.7185833,0 13.9583333,7.512375 13.9583333,16.75 L5.58333333,16.75 C2.50133333,16.75 0,19.2485417 0,22.3333333 L0,55.8333333 L67,55.8333333 L67,22.3333333 C67,19.2485417 64.4986667,16.75 61.4166667,16.75 Z" id="Page-1" fill="#FFFFFF" fill-rule="nonzero"></path>
    </g>
</svg>