<?xml version="1.0" encoding="UTF-8"?>
<svg width="71px" height="71px" viewBox="0 0 71 71" version="1.1" xmlns="http://www.w3.org/2000/svg" xmlns:xlink="http://www.w3.org/1999/xlink">
    <!-- Generator: Sketch 49 (51002) - http://www.bohemiancoding.com/sketch -->
    <title>icons/white/our-solution</title>
    <desc>Created with Sketch.</desc>
    <defs></defs>
    <g id="icons/white/our-solution" stroke="none" stroke-width="1" fill="none" fill-rule="evenodd">
        <path d="M20.9241379,28.2982456 L16,33.2105263 L31.8275862,49 L67,13.9122807 L62.0758621,9 L31.8275862,39.1754386 L20.9241379,28.2982456 Z M63.9,35.5 C63.9,51.12 51.12,63.9 35.5,63.9 C19.88,63.9 7.1,51.12 7.1,35.5 C7.1,19.88 19.88,7.1 35.5,7.1 C38.34,7.1 40.825,7.455 43.31,8.165 L48.9901392,2.485 C44.73,1.065 40.115,0 35.5,0 C15.975,0 0,15.975 0,35.5 C0,55.025 15.975,71 35.5,71 C55.025,71 71,55.025 71,35.5 L63.9,35.5 Z" id="Shape" fill="#FFFFFF" fill-rule="nonzero"></path>
    </g>
</svg>