<?xml version="1.0" encoding="UTF-8"?>
<svg width="71px" height="64px" viewBox="0 0 71 64" version="1.1" xmlns="http://www.w3.org/2000/svg" xmlns:xlink="http://www.w3.org/1999/xlink">
    <!-- Generator: Sketch 49 (51002) - http://www.bohemiancoding.com/sketch -->
    <title>icons/white/product-comparison</title>
    <desc>Created with Sketch.</desc>
    <defs></defs>
    <g id="icons/white/product-comparison" stroke="none" stroke-width="1" fill="none" fill-rule="evenodd">
        <path d="M0.34101228,39.6190476 L14.0571789,10.1587302 L10.1439439,10.1587302 L10.1439439,6.0952381 L33.4712011,6.0952381 L34.4854738,0 L36.5150334,0 L37.5293061,6.0952381 L60.8565633,6.0952381 L60.8565633,10.1587302 L56.610216,10.1587302 L70.3258877,39.6190476 L70.9726146,39.6190476 C70.9908715,39.7866667 71,39.9563175 71,40.1269841 C71,44.8954921 63.9609476,48.7619048 55.2787736,48.7619048 C46.5955852,48.7619048 39.5575471,44.8954921 39.5575471,40.1269841 C39.5575471,39.9563175 39.5656613,39.7866667 39.5839182,39.6190476 L40.1433381,39.6190476 L53.8595047,10.1587302 L37.5293061,10.1587302 L37.5293061,58.9206349 L54.7719415,58.9206349 L54.7719415,64 L16.2285656,64 L16.2285656,58.9206349 L33.4712011,58.9206349 L33.4712011,10.1587302 L16.9840644,10.1587302 L30.7006634,39.6190476 L31.4159804,39.6190476 C31.4342373,39.7866667 31.4433657,39.9563175 31.4433657,40.1269841 C31.4433657,44.8954921 24.4043134,48.7619048 15.7221393,48.7619048 C7.17742202,48.7619048 0.225802867,45.0178244 0.00626045985,40.3544145 L0,40.3514921 L0.00558157633,40.3395037 C0.00247503365,40.2688706 0.000912845406,40.1980275 0.000912845406,40.1269841 C0.000912845406,39.9563175 0.0090270268,39.7866667 0.0272839349,39.6190476 L0.34101228,39.6190476 Z M2.57954935,39.6190476 L28.4626784,39.6190476 L15.5211139,11.822462 L2.57954935,39.6190476 Z M42.3813723,39.6190476 L68.0869182,39.6190476 L55.2343478,12.011742 L42.3813723,39.6190476 Z" id="Combined-Shape" fill="#FFFFFF"></path>
    </g>
</svg>