<?xml version="1.0" encoding="UTF-8"?>
<svg width="913px" height="428px" viewBox="0 0 913 428" version="1.1" xmlns="http://www.w3.org/2000/svg" xmlns:xlink="http://www.w3.org/1999/xlink">
    <!-- Generator: Sketch 53.2 (72643) - https://sketchapp.com -->
    <title>Group</title>
    <desc>Created with Sketch.</desc>
    <g id="7.-Product-Comparison" stroke="none" stroke-width="1" fill="none" fill-rule="evenodd">
        <g id="Terumo" transform="translate(-56.000000, -184.000000)">
            <g id="Group" transform="translate(56.000000, 184.000000)">
                <polygon id="Rectangle" fill-opacity="0.75" fill="#00B482" points="300 0 601 0 601 428 300 428"></polygon>
                <text id="Yes" font-family="ArialMT, Arial" font-size="18" font-weight="normal" fill="#FFFFFF">
                    <tspan x="310" y="69">Yes</tspan>
                </text>
                <text id="No" font-family="ArialMT, Arial" font-size="18" font-weight="normal" fill="#373737">
                    <tspan x="621" y="69">No</tspan>
                </text>
                <text id="19mm-45mm" font-family="ArialMT, Arial" font-size="18" font-weight="normal" fill="#373737">
                    <tspan x="621" y="112">19mm-45mm</tspan>
                </text>
                <text id="PUR" font-family="ArialMT, Arial" font-size="18" font-weight="normal" fill="#373737">
                    <tspan x="621" y="155">PUR</tspan>
                </text>
                <text id="No" font-family="ArialMT, Arial" font-size="18" font-weight="normal" fill="#373737">
                    <tspan x="621" y="369">No</tspan>
                </text>
                <text id="No-Flashback-Chamber" font-family="ArialMT, Arial" font-size="18" font-weight="normal" fill="#373737">
                    <tspan x="621" y="198">No Flashback Chamber Protection</tspan>
                </text>
                <text id="Without-holes" font-family="ArialMT, Arial" font-size="18" font-weight="normal" fill="#373737">
                    <tspan x="621" y="412">Without holes</tspan>
                </text>
                <text id="No" font-family="ArialMT, Arial" font-size="18" font-weight="normal" fill="#373737">
                    <tspan x="621" y="240">No</tspan>
                </text>
                <text id="No" font-family="ArialMT, Arial" font-size="18" font-weight="normal" fill="#373737">
                    <tspan x="621" y="283">No</tspan>
                </text>
                <text id="No-Anti-Bypass-Desig" font-family="ArialMT, Arial" font-size="18" font-weight="normal" fill="#373737">
                    <tspan x="621" y="326">No Anti-Bypass Design</tspan>
                </text>
                <text id="19mm-50mm" font-family="ArialMT, Arial" font-size="18" font-weight="normal" fill="#FFFFFF">
                    <tspan x="310" y="112">19mm-50mm</tspan>
                </text>
                <text id="FEP-&amp;-PUR" font-family="ArialMT, Arial" font-size="18" font-weight="normal" fill="#FFFFFF">
                    <tspan x="310" y="155">FEP &amp; PUR</tspan>
                </text>
                <text id="Yes" font-family="ArialMT, Arial" font-size="18" font-weight="normal" fill="#FFFFFF">
                    <tspan x="310" y="369">Yes</tspan>
                </text>
                <text id="Flashback-Chamber-Pr" font-family="ArialMT, Arial" font-size="18" font-weight="normal" fill="#FFFFFF">
                    <tspan x="310" y="198">Flashback Chamber Protection</tspan>
                </text>
                <text id="With-holes" font-family="ArialMT, Arial" font-size="18" font-weight="normal" fill="#FFFFFF">
                    <tspan x="310" y="412">With holes</tspan>
                </text>
                <text id="Yes" font-family="ArialMT, Arial" font-size="18" font-weight="normal" fill="#FFFFFF">
                    <tspan x="310" y="240">Yes</tspan>
                </text>
                <text id="Yes-(Automatic/Passi" font-family="ArialMT, Arial" font-size="18" font-weight="normal" fill="#FFFFFF">
                    <tspan x="310" y="283">Yes (Automatic/Passive)</tspan>
                </text>
                <text id="Anti-Bypass-Design" font-family="ArialMT, Arial" font-size="18" font-weight="normal" fill="#FFFFFF">
                    <tspan x="310" y="326">Anti-Bypass Design</tspan>
                </text>
                <text id="Color-Coded-Blister" font-family="ArialMT, Arial" font-size="18" font-weight="normal" fill="#373737">
                    <tspan x="1" y="69">Color Coded Blister Packaging</tspan>
                </text>
                <text id="Available-Catheter-L" font-family="ArialMT, Arial" font-size="18" font-weight="normal" fill="#373737">
                    <tspan x="0" y="112">Available Catheter Lengths</tspan>
                </text>
                <text id="Catheter-Hub-Protect" font-family="ArialMT, Arial" font-size="18" font-weight="normal" fill="#373737">
                    <tspan x="0" y="198">Catheter Hub Protection</tspan>
                </text>
                <text id="Fixation-Wings" font-family="ArialMT, Arial" font-size="18" font-weight="normal" fill="#373737">
                    <tspan x="0" y="412">Fixation Wings</tspan>
                </text>
                <text id="Color-Coded-Wing" font-family="ArialMT, Arial" font-size="18" font-weight="normal" fill="#373737">
                    <tspan x="0" y="240">Color Coded Wing</tspan>
                </text>
                <text id="Catheter-Material" font-family="ArialMT, Arial" font-size="18" font-weight="normal" fill="#373737">
                    <tspan x="1" y="155">Catheter Material</tspan>
                </text>
                <text id="Close-off-Port" font-family="ArialMT, Arial" font-size="18" font-weight="normal" fill="#373737">
                    <tspan x="1" y="369">Close-off Port</tspan>
                </text>
                <text id="Safety-Mechanism" font-family="ArialMT, Arial" font-size="18" font-weight="normal" fill="#373737">
                    <tspan x="1" y="283">Safety Mechanism</tspan>
                </text>
                <text id="Anti-Bypass-Design" font-family="ArialMT, Arial" font-size="18" font-weight="normal" fill="#373737">
                    <tspan x="1" y="326">Anti-Bypass Design</tspan>
                </text>
                <path d="M0.5,84.5 L911.59275,84.5" id="Line" stroke="#FFFFFF" stroke-linecap="square"></path>
                <path d="M0.5,127.5 L911.59275,127.5" id="Line" stroke="#FFFFFF" stroke-linecap="square"></path>
                <path d="M0.5,341.5 L911.59275,341.5" id="Line-Copy" stroke="#FFFFFF" stroke-linecap="square"></path>
                <path d="M0.5,170.5 L911.59275,170.5" id="Line" stroke="#FFFFFF" stroke-linecap="square"></path>
                <path d="M0.5,384.5 L911.59275,384.5" id="Line-Copy-2" stroke="#FFFFFF" stroke-linecap="square"></path>
                <path d="M0.5,213.5 L911.59275,213.5" id="Line" stroke="#FFFFFF" stroke-linecap="square"></path>
                <path d="M0.5,255.5 L911.59275,255.5" id="Line" stroke="#FFFFFF" stroke-linecap="square"></path>
                <path d="M0.5,298.5 L911.59275,298.5" id="Line" stroke="#FFFFFF" stroke-linecap="square"></path>
                <path d="M0.5,41.5 L911.59275,41.5" id="Line" stroke="#FFFFFF" stroke-linecap="square"></path>
                <path d="M316.59668,26 L311.991211,13.1152344 L314.8125,13.1152344 L318.073242,22.6513672 L321.228516,13.1152344 L323.988281,13.1152344 L319.374023,26 L316.59668,26 Z M326.150391,19.5136719 L323.90918,19.109375 C324.161134,18.2070267 324.594723,17.5390647 325.209961,17.1054688 C325.825198,16.6718728 326.739252,16.4550781 327.952148,16.4550781 C329.053716,16.4550781 329.874021,16.5854479 330.413086,16.8461914 C330.952151,17.1069349 331.331542,17.4379863 331.55127,17.8393555 C331.770997,18.2407247 331.880859,18.9775337 331.880859,20.0498047 L331.854492,22.9326172 C331.854492,23.7529338 331.894043,24.3579082 331.973145,24.7475586 C332.052246,25.137209 332.200194,25.5546853 332.416992,26 L329.973633,26 C329.909179,25.8359367 329.830079,25.592775 329.736328,25.2705078 C329.695312,25.1240227 329.666016,25.027344 329.648438,24.9804688 C329.22656,25.3906271 328.775393,25.6982412 328.294922,25.9033203 C327.814451,26.1083995 327.301761,26.2109375 326.756836,26.2109375 C325.795894,26.2109375 325.038577,25.9501979 324.484863,25.4287109 C323.93115,24.907224 323.654297,24.2480509 323.654297,23.4511719 C323.654297,22.9238255 323.780272,22.4536153 324.032227,22.0405273 C324.284181,21.6274393 324.637205,21.3110363 325.091309,21.0913086 C325.545412,20.8715809 326.200191,20.6796883 327.055664,20.515625 C328.209967,20.298827 329.009763,20.0966806 329.455078,19.9091797 L329.455078,19.6630859 C329.455078,19.1884742 329.337892,18.8500987 329.103516,18.6479492 C328.869139,18.4457998 328.426761,18.3447266 327.776367,18.3447266 C327.336912,18.3447266 326.994142,18.4311515 326.748047,18.6040039 C326.501952,18.7768563 326.302735,19.080076 326.150391,19.5136719 Z M329.455078,21.5175781 C329.13867,21.6230474 328.637699,21.7490227 327.952148,21.8955078 C327.266598,22.0419929 326.81836,22.1855462 326.607422,22.3261719 C326.285155,22.5546886 326.124023,22.8447248 326.124023,23.1962891 C326.124023,23.5419939 326.252928,23.8408191 326.510742,24.0927734 C326.768556,24.3447278 327.096678,24.4707031 327.495117,24.4707031 C327.940432,24.4707031 328.365232,24.3242202 328.769531,24.03125 C329.068361,23.8085926 329.264648,23.5361344 329.358398,23.2138672 C329.422852,23.0029286 329.455078,22.6015655 329.455078,22.0097656 L329.455078,21.5175781 Z M333.445312,23.3369141 L335.923828,22.9589844 C336.029297,23.4394555 336.243162,23.804198 336.56543,24.0532227 C336.887697,24.3022473 337.338864,24.4267578 337.918945,24.4267578 C338.55762,24.4267578 339.038084,24.3095715 339.360352,24.0751953 C339.57715,23.911132 339.685547,23.6914076 339.685547,23.4160156 C339.685547,23.2285147 339.626954,23.0732428 339.509766,22.9501953 C339.386718,22.8330072 339.11133,22.7246099 338.683594,22.625 C336.691396,22.1855447 335.428714,21.7841815 334.895508,21.4208984 C334.157223,20.9169897 333.788086,20.2168014 333.788086,19.3203125 C333.788086,18.5117147 334.107419,17.832034 334.746094,17.28125 C335.384769,16.730466 336.374993,16.4550781 337.716797,16.4550781 C338.994147,16.4550781 339.943356,16.6630839 340.564453,17.0791016 C341.18555,17.4951193 341.61328,18.1103475 341.847656,18.9248047 L339.518555,19.3554688 C339.418945,18.9921857 339.229982,18.7138682 338.95166,18.5205078 C338.673338,18.3271475 338.27637,18.2304688 337.760742,18.2304688 C337.110348,18.2304688 336.644533,18.3212882 336.363281,18.5029297 C336.17578,18.6318366 336.082031,18.7988271 336.082031,19.0039062 C336.082031,19.1796884 336.164062,19.3291009 336.328125,19.4521484 C336.550782,19.6162118 337.319818,19.8476548 338.635254,20.1464844 C339.95069,20.445314 340.869138,20.8115213 341.390625,21.2451172 C341.906253,21.6845725 342.164062,22.2968711 342.164062,23.0820312 C342.164062,23.9375043 341.806644,24.6728485 341.091797,25.2880859 C340.37695,25.9033234 339.319343,26.2109375 337.918945,26.2109375 C336.647455,26.2109375 335.641117,25.9531276 334.899902,25.4375 C334.158688,24.9218724 333.673829,24.2216841 333.445312,23.3369141 Z M343.754883,21.2011719 C343.754883,20.3808553 343.957029,19.5869179 344.361328,18.8193359 C344.765627,18.051754 345.338375,17.4658223 346.07959,17.0615234 C346.820804,16.6572245 347.648433,16.4550781 348.5625,16.4550781 C349.974616,16.4550781 351.131831,16.9135696 352.03418,17.8305664 C352.936528,18.7475632 353.387695,19.906243 353.387695,21.3066406 C353.387695,22.7187571 352.932133,23.8891555 352.020996,24.8178711 C351.109859,25.7465867 349.962898,26.2109375 348.580078,26.2109375 C347.724605,26.2109375 346.908695,26.0175801 346.132324,25.6308594 C345.355953,25.2441387 344.765627,24.6772498 344.361328,23.9301758 C343.957029,23.1831017 343.754883,22.2734429 343.754883,21.2011719 Z M346.286133,21.3330078 C346.286133,22.2587937 346.505857,22.967771 346.945312,23.4599609 C347.384768,23.9521509 347.926755,24.1982422 348.571289,24.1982422 C349.215824,24.1982422 349.756345,23.9521509 350.192871,23.4599609 C350.629397,22.967771 350.847656,22.2529344 350.847656,21.3154297 C350.847656,20.4013626 350.629397,19.6982446 350.192871,19.2060547 C349.756345,18.7138647 349.215824,18.4677734 348.571289,18.4677734 C347.926755,18.4677734 347.384768,18.7138647 346.945312,19.2060547 C346.505857,19.6982446 346.286133,20.4072219 346.286133,21.3330078 Z M354.240234,16.6660156 L355.611328,16.6660156 L355.611328,15.9628906 C355.611328,15.1777304 355.694823,14.5917988 355.861816,14.2050781 C356.028809,13.8183574 356.336424,13.5034192 356.784668,13.2602539 C357.232912,13.0170886 357.799801,12.8955078 358.485352,12.8955078 C359.18848,12.8955078 359.87695,13.0009755 360.550781,13.2119141 L360.216797,14.9345703 C359.824217,14.8408198 359.446291,14.7939453 359.083008,14.7939453 C358.725584,14.7939453 358.469239,14.8774406 358.313965,15.0444336 C358.158691,15.2114266 358.081055,15.5322242 358.081055,16.0068359 L358.081055,16.6660156 L359.926758,16.6660156 L359.926758,18.6083984 L358.081055,18.6083984 L358.081055,26 L355.611328,26 L355.611328,18.6083984 L354.240234,18.6083984 L354.240234,16.6660156 Z M361.31543,15.4003906 L361.31543,13.1152344 L363.785156,13.1152344 L363.785156,15.4003906 L361.31543,15.4003906 Z M361.31543,26 L361.31543,16.6660156 L363.785156,16.6660156 L363.785156,26 L361.31543,26 Z M365.129883,26 L368.496094,21.1923828 L365.270508,16.6660156 L368.285156,16.6660156 L369.9375,19.2324219 L371.677734,16.6660156 L374.578125,16.6660156 L371.414062,21.0869141 L374.868164,26 L371.835938,26 L369.9375,23.1083984 L368.021484,26 L365.129883,26 Z M380.209961,8.7734375 C381.107752,8.7734375 381.969071,8.99788187 382.793945,9.44677734 C383.618819,9.89567282 384.267087,10.5393838 384.73877,11.3779297 C385.210452,12.2164755 385.446289,13.0937454 385.446289,14.0097656 C385.446289,14.9212285 385.215009,15.7905232 384.752441,16.6176758 C384.289874,17.4448284 383.645024,18.0896787 382.817871,18.5522461 C381.990719,19.0148135 381.121424,19.2460938 380.209961,19.2460938 C379.298498,19.2460938 378.429203,19.0148135 377.602051,18.5522461 C376.774898,18.0896787 376.130048,17.4448284 375.66748,16.6176758 C375.204913,15.7905232 374.973633,14.9212285 374.973633,14.0097656 C374.973633,13.0937454 375.20947,12.2164755 375.681152,11.3779297 C376.152834,10.5393838 376.801103,9.89567282 377.625977,9.44677734 C378.45085,8.99788187 379.31217,8.7734375 380.209961,8.7734375 Z M380.216797,9.79882812 C379.496741,9.79882812 378.806318,9.97883935 378.145508,10.3388672 C377.484697,10.698895 376.964032,11.2161425 376.583496,11.890625 C376.20296,12.5651075 376.012695,13.2714807 376.012695,14.0097656 C376.012695,14.7434933 376.198403,15.4430305 376.569824,16.1083984 C376.941245,16.7737663 377.459632,17.2932924 378.125,17.6669922 C378.790368,18.040692 379.487627,18.2275391 380.216797,18.2275391 C380.950525,18.2275391 381.648922,18.040692 382.312012,17.6669922 C382.975101,17.2932924 383.493488,16.7737663 383.867188,16.1083984 C384.240887,15.4430305 384.427734,14.7434933 384.427734,14.0097656 C384.427734,13.2714807 384.237469,12.5651075 383.856934,11.890625 C383.476398,11.2161425 382.954593,10.698895 382.291504,10.3388672 C381.628415,9.97883935 380.936853,9.79882812 380.216797,9.79882812 Z M380.858665,14.381233 C381.024308,14.4443973 381.152148,14.5131198 381.242188,14.5874023 C381.333334,14.662598 381.458658,14.805012 381.618164,15.0146484 C381.65918,15.0693362 381.795897,15.2949199 382.02832,15.6914062 L382.68457,16.8125 L381.290039,16.8125 L380.825195,15.9101562 C380.510741,15.3040334 380.250978,14.9223641 380.045898,14.7651367 C379.840819,14.6079094 379.581056,14.5292969 379.266602,14.5292969 L378.972656,14.5292969 L378.972656,16.8125 L377.844727,16.8125 L377.844727,11.2548828 L378.972656,11.2548828 C380.029953,11.2548828 380.622395,11.2594401 380.75,11.2685547 C381.1237,11.3004559 381.414224,11.3745111 381.621582,11.4907227 C381.82894,11.6069342 382.002115,11.7846668 382.141113,12.0239258 C382.280111,12.2631848 382.349609,12.5286444 382.349609,12.8203125 C382.349609,13.2213562 382.218589,13.5642889 381.956543,13.8491211 C381.6945,14.1339509 381.326506,14.3105437 380.852551,14.3789046 L380.858665,14.381233 Z M378.972656,13.6542969 L379.430664,13.6542969 C380.08236,13.6542969 380.486816,13.629232 380.644043,13.5791016 C380.80127,13.5289711 380.925455,13.4412441 381.016602,13.315918 C381.107748,13.1905918 381.15332,13.0481779 381.15332,12.8886719 C381.15332,12.7337232 381.108887,12.5958665 381.02002,12.4750977 C380.931152,12.3543288 380.804688,12.2677411 380.640625,12.215332 C380.476562,12.1629229 380.073245,12.1367188 379.430664,12.1367188 L378.972656,12.1367188 L378.972656,13.6542969 Z M391.001953,21.8076172 L393.533203,21.5615234 C393.685548,22.4111371 393.994627,23.0351543 394.460449,23.4335938 C394.926272,23.8320332 395.554684,24.03125 396.345703,24.03125 C397.183598,24.03125 397.814939,23.8540057 398.239746,23.4995117 C398.664553,23.1450178 398.876953,22.7304711 398.876953,22.2558594 C398.876953,21.9511704 398.787599,21.6918956 398.608887,21.4780273 C398.430175,21.2641591 398.118166,21.0781258 397.672852,20.9199219 C397.368163,20.8144526 396.673834,20.6269545 395.589844,20.3574219 C394.195306,20.011717 393.2168,19.5869166 392.654297,19.0830078 C391.863277,18.3740199 391.467773,17.5097707 391.467773,16.4902344 C391.467773,15.8339811 391.653807,15.2202177 392.025879,14.6489258 C392.397951,14.0776339 392.934079,13.6425796 393.634277,13.34375 C394.334476,13.0449204 395.179683,12.8955078 396.169922,12.8955078 C397.787117,12.8955078 399.00439,13.2499965 399.821777,13.9589844 C400.639164,14.6679723 401.068359,15.6142519 401.109375,16.7978516 L398.507812,16.9121094 C398.396484,16.2499967 398.157717,15.7739272 397.791504,15.4838867 C397.425291,15.1938462 396.87598,15.0488281 396.143555,15.0488281 C395.387692,15.0488281 394.795901,15.2041 394.368164,15.5146484 C394.092772,15.7138682 393.955078,15.9804671 393.955078,16.3144531 C393.955078,16.6191421 394.083983,16.8798817 394.341797,17.0966797 C394.669924,17.3720717 395.466791,17.6591782 396.732422,17.9580078 C397.998053,18.2568374 398.934079,18.5659164 399.540527,18.8852539 C400.146976,19.2045914 400.62158,19.6411105 400.964355,20.1948242 C401.307131,20.7485379 401.478516,21.4326131 401.478516,22.2470703 C401.478516,22.9853553 401.27344,23.6767546 400.863281,24.3212891 C400.453123,24.9658235 399.873051,25.4448227 399.123047,25.7583008 C398.373043,26.0717789 397.438482,26.2285156 396.319336,26.2285156 C394.690422,26.2285156 393.439457,25.8520545 392.566406,25.0991211 C391.693355,24.3461876 391.171876,23.2490306 391.001953,21.8076172 Z M405.495117,19.5136719 L403.253906,19.109375 C403.505861,18.2070267 403.93945,17.5390647 404.554688,17.1054688 C405.169925,16.6718728 406.083978,16.4550781 407.296875,16.4550781 C408.398443,16.4550781 409.218747,16.5854479 409.757812,16.8461914 C410.296878,17.1069349 410.676268,17.4379863 410.895996,17.8393555 C411.115724,18.2407247 411.225586,18.9775337 411.225586,20.0498047 L411.199219,22.9326172 C411.199219,23.7529338 411.238769,24.3579082 411.317871,24.7475586 C411.396973,25.137209 411.544921,25.5546853 411.761719,26 L409.318359,26 C409.253906,25.8359367 409.174805,25.592775 409.081055,25.2705078 C409.040039,25.1240227 409.010742,25.027344 408.993164,24.9804688 C408.571287,25.3906271 408.12012,25.6982412 407.639648,25.9033203 C407.159177,26.1083995 406.646487,26.2109375 406.101562,26.2109375 C405.14062,26.2109375 404.383304,25.9501979 403.82959,25.4287109 C403.275876,24.907224 402.999023,24.2480509 402.999023,23.4511719 C402.999023,22.9238255 403.124999,22.4536153 403.376953,22.0405273 C403.628908,21.6274393 403.981931,21.3110363 404.436035,21.0913086 C404.890139,20.8715809 405.544918,20.6796883 406.400391,20.515625 C407.554693,20.298827 408.35449,20.0966806 408.799805,19.9091797 L408.799805,19.6630859 C408.799805,19.1884742 408.682618,18.8500987 408.448242,18.6479492 C408.213866,18.4457998 407.771488,18.3447266 407.121094,18.3447266 C406.681638,18.3447266 406.338868,18.4311515 406.092773,18.6040039 C405.846678,18.7768563 405.647462,19.080076 405.495117,19.5136719 Z M408.799805,21.5175781 C408.483397,21.6230474 407.982425,21.7490227 407.296875,21.8955078 C406.611325,22.0419929 406.163087,22.1855462 405.952148,22.3261719 C405.629881,22.5546886 405.46875,22.8447248 405.46875,23.1962891 C405.46875,23.5419939 405.597655,23.8408191 405.855469,24.0927734 C406.113283,24.3447278 406.441404,24.4707031 406.839844,24.4707031 C407.285158,24.4707031 407.709959,24.3242202 408.114258,24.03125 C408.413087,23.8085926 408.609375,23.5361344 408.703125,23.2138672 C408.767578,23.0029286 408.799805,22.6015655 408.799805,22.0097656 L408.799805,21.5175781 Z M412.579102,16.6660156 L413.950195,16.6660156 L413.950195,15.9628906 C413.950195,15.1777304 414.033691,14.5917988 414.200684,14.2050781 C414.367677,13.8183574 414.675291,13.5034192 415.123535,13.2602539 C415.57178,13.0170886 416.138668,12.8955078 416.824219,12.8955078 C417.527347,12.8955078 418.215817,13.0009755 418.889648,13.2119141 L418.555664,14.9345703 C418.163084,14.8408198 417.785158,14.7939453 417.421875,14.7939453 C417.064451,14.7939453 416.808106,14.8774406 416.652832,15.0444336 C416.497558,15.2114266 416.419922,15.5322242 416.419922,16.0068359 L416.419922,16.6660156 L418.265625,16.6660156 L418.265625,18.6083984 L416.419922,18.6083984 L416.419922,26 L413.950195,26 L413.950195,18.6083984 L412.579102,18.6083984 L412.579102,16.6660156 Z M425.05957,23.0292969 L427.520508,23.4423828 C427.2041,24.3447311 426.704593,25.0317359 426.021973,25.503418 C425.339352,25.9751 424.485357,26.2109375 423.459961,26.2109375 C421.836906,26.2109375 420.635746,25.6806694 419.856445,24.6201172 C419.241208,23.7705036 418.933594,22.6982487 418.933594,21.4033203 C418.933594,19.8564376 419.337887,18.6450239 420.146484,17.769043 C420.955082,16.893062 421.977533,16.4550781 423.213867,16.4550781 C424.602546,16.4550781 425.698238,16.9135696 426.500977,17.8305664 C427.303715,18.7475632 427.6875,20.1523343 427.652344,22.0449219 L421.464844,22.0449219 C421.482422,22.7773474 421.681639,23.3471659 422.0625,23.7543945 C422.443361,24.1616231 422.917966,24.3652344 423.486328,24.3652344 C423.873049,24.3652344 424.198241,24.2597667 424.461914,24.0488281 C424.725587,23.8378896 424.924804,23.4980492 425.05957,23.0292969 Z M425.200195,20.5332031 C425.182617,19.8183558 424.998049,19.2749042 424.646484,18.902832 C424.29492,18.5307599 423.86719,18.3447266 423.363281,18.3447266 C422.824216,18.3447266 422.378908,18.5410137 422.027344,18.9335938 C421.675779,19.3261738 421.50293,19.8593716 421.508789,20.5332031 L425.200195,20.5332031 Z M433.945312,16.6660156 L433.945312,18.6347656 L432.257812,18.6347656 L432.257812,22.3964844 C432.257812,23.1582069 432.273926,23.6020502 432.306152,23.7280273 C432.338379,23.8540045 432.411621,23.9580074 432.525879,24.0400391 C432.640137,24.1220707 432.779296,24.1630859 432.943359,24.1630859 C433.171876,24.1630859 433.502928,24.0839852 433.936523,23.9257812 L434.147461,25.8417969 C433.573239,26.0878919 432.922855,26.2109375 432.196289,26.2109375 C431.750974,26.2109375 431.349611,26.1362312 430.992188,25.9868164 C430.634764,25.8374016 430.372559,25.6440442 430.205566,25.4067383 C430.038573,25.1694324 429.922852,24.8486348 429.858398,24.4443359 C429.805664,24.1572251 429.779297,23.5771528 429.779297,22.7041016 L429.779297,18.6347656 L428.645508,18.6347656 L428.645508,16.6660156 L429.779297,16.6660156 L429.779297,14.8115234 L432.257812,13.3701172 L432.257812,16.6660156 L433.945312,16.6660156 Z M434.490234,16.6660156 L437.118164,16.6660156 L439.350586,23.2929688 L441.530273,16.6660156 L444.087891,16.6660156 L440.791992,25.6484375 L440.203125,27.2744141 C439.986327,27.8193387 439.779786,28.2353501 439.583496,28.5224609 C439.387206,28.8095717 439.161622,29.0424796 438.906738,29.2211914 C438.651854,29.3999032 438.338381,29.539062 437.966309,29.6386719 C437.594236,29.7382817 437.17383,29.7880859 436.705078,29.7880859 C436.230466,29.7880859 435.764651,29.7382817 435.307617,29.6386719 L435.087891,27.7050781 C435.474611,27.7812504 435.823241,27.8193359 436.133789,27.8193359 C436.708011,27.8193359 437.132811,27.6508806 437.408203,27.3139648 C437.683595,26.9770491 437.894531,26.5478542 438.041016,26.0263672 L434.490234,16.6660156 Z" id="Vasofix®Safety" fill="#FFFFFF" fill-rule="nonzero"></path>
                <path d="M625.209961,26 L625.209961,15.2949219 L621.386719,15.2949219 L621.386719,13.1152344 L631.625977,13.1152344 L631.625977,15.2949219 L627.811523,15.2949219 L627.811523,26 L625.209961,26 Z M637.356445,23.0292969 L639.817383,23.4423828 C639.500975,24.3447311 639.001468,25.0317359 638.318848,25.503418 C637.636227,25.9751 636.782232,26.2109375 635.756836,26.2109375 C634.133781,26.2109375 632.932621,25.6806694 632.15332,24.6201172 C631.538083,23.7705036 631.230469,22.6982487 631.230469,21.4033203 C631.230469,19.8564376 631.634762,18.6450239 632.443359,17.769043 C633.251957,16.893062 634.274408,16.4550781 635.510742,16.4550781 C636.899421,16.4550781 637.995113,16.9135696 638.797852,17.8305664 C639.60059,18.7475632 639.984375,20.1523343 639.949219,22.0449219 L633.761719,22.0449219 C633.779297,22.7773474 633.978514,23.3471659 634.359375,23.7543945 C634.740236,24.1616231 635.214841,24.3652344 635.783203,24.3652344 C636.169924,24.3652344 636.495116,24.2597667 636.758789,24.0488281 C637.022462,23.8378896 637.221679,23.4980492 637.356445,23.0292969 Z M637.49707,20.5332031 C637.479492,19.8183558 637.294924,19.2749042 636.943359,18.902832 C636.591795,18.5307599 636.164065,18.3447266 635.660156,18.3447266 C635.121091,18.3447266 634.675783,18.5410137 634.324219,18.9335938 C633.972654,19.3261738 633.799805,19.8593716 633.805664,20.5332031 L637.49707,20.5332031 Z M644.326172,26 L641.856445,26 L641.856445,16.6660156 L644.150391,16.6660156 L644.150391,17.9931641 C644.542971,17.3662078 644.895995,16.953126 645.209473,16.7539062 C645.522951,16.5546865 645.878904,16.4550781 646.277344,16.4550781 C646.839847,16.4550781 647.381833,16.61035 647.90332,16.9208984 L647.138672,19.0742188 C646.722654,18.8046862 646.335939,18.6699219 645.978516,18.6699219 C645.632811,18.6699219 645.339845,18.7651358 645.099609,18.9555664 C644.859374,19.145997 644.670411,19.4902319 644.532715,19.9882812 C644.395019,20.4863306 644.326172,21.5292889 644.326172,23.1171875 L644.326172,26 Z M655.110352,26 L655.110352,24.6025391 C654.770506,25.1005884 654.323733,25.4931626 653.77002,25.7802734 C653.216306,26.0673842 652.631839,26.2109375 652.016602,26.2109375 C651.389645,26.2109375 650.827151,26.0732436 650.329102,25.7978516 C649.831052,25.5224596 649.470704,25.1357447 649.248047,24.6376953 C649.02539,24.1396459 648.914062,23.4511763 648.914062,22.5722656 L648.914062,16.6660156 L651.383789,16.6660156 L651.383789,20.9550781 C651.383789,22.2675847 651.429199,23.0717759 651.52002,23.3676758 C651.61084,23.6635757 651.776366,23.8979484 652.016602,24.0708008 C652.256837,24.2436532 652.561522,24.3300781 652.930664,24.3300781 C653.352541,24.3300781 653.730467,24.2143566 654.064453,23.9829102 C654.398439,23.7514637 654.626953,23.4643572 654.75,23.121582 C654.873047,22.7788069 654.93457,21.9394598 654.93457,20.6035156 L654.93457,16.6660156 L657.404297,16.6660156 L657.404297,26 L655.110352,26 Z M659.777344,16.6660156 L662.053711,16.6660156 L662.053711,17.9404297 C662.868168,16.9501904 663.837885,16.4550781 664.962891,16.4550781 C665.56055,16.4550781 666.079099,16.5781238 666.518555,16.8242188 C666.95801,17.0703137 667.318358,17.4423803 667.599609,17.9404297 C668.009768,17.4423803 668.452146,17.0703137 668.926758,16.8242188 C669.40137,16.5781238 669.9082,16.4550781 670.447266,16.4550781 C671.132816,16.4550781 671.712888,16.5942369 672.1875,16.8725586 C672.662112,17.1508803 673.0166,17.5595676 673.250977,18.0986328 C673.420899,18.4970723 673.505859,19.1415971 673.505859,20.0322266 L673.505859,26 L671.036133,26 L671.036133,20.6650391 C671.036133,19.7392532 670.951173,19.1416029 670.78125,18.8720703 C670.552733,18.5205061 670.201174,18.3447266 669.726562,18.3447266 C669.380858,18.3447266 669.055666,18.4501943 668.750977,18.6611328 C668.446288,18.8720714 668.226563,19.1811503 668.091797,19.5883789 C667.957031,19.9956075 667.889648,20.6386675 667.889648,21.5175781 L667.889648,26 L665.419922,26 L665.419922,20.8847656 C665.419922,19.976558 665.375977,19.3906263 665.288086,19.1269531 C665.200195,18.8632799 665.063966,18.6669928 664.879395,18.5380859 C664.694823,18.409179 664.444338,18.3447266 664.12793,18.3447266 C663.747068,18.3447266 663.404298,18.4472646 663.099609,18.6523438 C662.79492,18.8574229 662.576661,19.1533184 662.444824,19.5400391 C662.312988,19.9267597 662.24707,20.5683549 662.24707,21.4648438 L662.24707,26 L659.777344,26 L659.777344,16.6660156 Z M675.395508,21.2011719 C675.395508,20.3808553 675.597654,19.5869179 676.001953,18.8193359 C676.406252,18.051754 676.979,17.4658223 677.720215,17.0615234 C678.461429,16.6572245 679.289058,16.4550781 680.203125,16.4550781 C681.615241,16.4550781 682.772456,16.9135696 683.674805,17.8305664 C684.577153,18.7475632 685.02832,19.906243 685.02832,21.3066406 C685.02832,22.7187571 684.572758,23.8891555 683.661621,24.8178711 C682.750484,25.7465867 681.603523,26.2109375 680.220703,26.2109375 C679.36523,26.2109375 678.54932,26.0175801 677.772949,25.6308594 C676.996578,25.2441387 676.406252,24.6772498 676.001953,23.9301758 C675.597654,23.1831017 675.395508,22.2734429 675.395508,21.2011719 Z M677.926758,21.3330078 C677.926758,22.2587937 678.146482,22.967771 678.585938,23.4599609 C679.025393,23.9521509 679.56738,24.1982422 680.211914,24.1982422 C680.856449,24.1982422 681.39697,23.9521509 681.833496,23.4599609 C682.270022,22.967771 682.488281,22.2529344 682.488281,21.3154297 C682.488281,20.4013626 682.270022,19.6982446 681.833496,19.2060547 C681.39697,18.7138647 680.856449,18.4677734 680.211914,18.4677734 C679.56738,18.4677734 679.025393,18.7138647 678.585938,19.2060547 C678.146482,19.6982446 677.926758,20.4072219 677.926758,21.3330078 Z M690.635742,22.2558594 L690.635742,20.4101562 L700.646484,20.4101562 L700.646484,22.2558594 L690.635742,22.2558594 Z M706.333008,21.8076172 L708.864258,21.5615234 C709.016602,22.4111371 709.325681,23.0351543 709.791504,23.4335938 C710.257327,23.8320332 710.885738,24.03125 711.676758,24.03125 C712.514653,24.03125 713.145994,23.8540057 713.570801,23.4995117 C713.995608,23.1450178 714.208008,22.7304711 714.208008,22.2558594 C714.208008,21.9511704 714.118653,21.6918956 713.939941,21.4780273 C713.76123,21.2641591 713.449221,21.0781258 713.003906,20.9199219 C712.699217,20.8144526 712.004888,20.6269545 710.920898,20.3574219 C709.52636,20.011717 708.547854,19.5869166 707.985352,19.0830078 C707.194332,18.3740199 706.798828,17.5097707 706.798828,16.4902344 C706.798828,15.8339811 706.984861,15.2202177 707.356934,14.6489258 C707.729006,14.0776339 708.265133,13.6425796 708.965332,13.34375 C709.665531,13.0449204 710.510737,12.8955078 711.500977,12.8955078 C713.118172,12.8955078 714.335445,13.2499965 715.152832,13.9589844 C715.970219,14.6679723 716.399414,15.6142519 716.44043,16.7978516 L713.838867,16.9121094 C713.727539,16.2499967 713.488771,15.7739272 713.122559,15.4838867 C712.756346,15.1938462 712.207035,15.0488281 711.474609,15.0488281 C710.718746,15.0488281 710.126955,15.2041 709.699219,15.5146484 C709.423827,15.7138682 709.286133,15.9804671 709.286133,16.3144531 C709.286133,16.6191421 709.415038,16.8798817 709.672852,17.0966797 C710.000978,17.3720717 710.797845,17.6591782 712.063477,17.9580078 C713.329108,18.2568374 714.265134,18.5659164 714.871582,18.8852539 C715.47803,19.2045914 715.952635,19.6411105 716.29541,20.1948242 C716.638185,20.7485379 716.80957,21.4326131 716.80957,22.2470703 C716.80957,22.9853553 716.604494,23.6767546 716.194336,24.3212891 C715.784178,24.9658235 715.204105,25.4448227 714.454102,25.7583008 C713.704098,26.0717789 712.769537,26.2285156 711.650391,26.2285156 C710.021476,26.2285156 708.770512,25.8520545 707.897461,25.0991211 C707.02441,24.3461876 706.502931,23.2490306 706.333008,21.8076172 Z M725.124023,26 L725.124023,24.6025391 C724.784178,25.1005884 724.337405,25.4931626 723.783691,25.7802734 C723.229978,26.0673842 722.645511,26.2109375 722.030273,26.2109375 C721.403317,26.2109375 720.840823,26.0732436 720.342773,25.7978516 C719.844724,25.5224596 719.484376,25.1357447 719.261719,24.6376953 C719.039061,24.1396459 718.927734,23.4511763 718.927734,22.5722656 L718.927734,16.6660156 L721.397461,16.6660156 L721.397461,20.9550781 C721.397461,22.2675847 721.442871,23.0717759 721.533691,23.3676758 C721.624512,23.6635757 721.790038,23.8979484 722.030273,24.0708008 C722.270509,24.2436532 722.575193,24.3300781 722.944336,24.3300781 C723.366213,24.3300781 723.744139,24.2143566 724.078125,23.9829102 C724.412111,23.7514637 724.640624,23.4643572 724.763672,23.121582 C724.886719,22.7788069 724.948242,21.9394598 724.948242,20.6035156 L724.948242,16.6660156 L727.417969,16.6660156 L727.417969,26 L725.124023,26 Z M732.339844,26 L729.870117,26 L729.870117,16.6660156 L732.164062,16.6660156 L732.164062,17.9931641 C732.556643,17.3662078 732.909666,16.953126 733.223145,16.7539062 C733.536623,16.5546865 733.892576,16.4550781 734.291016,16.4550781 C734.853518,16.4550781 735.395505,16.61035 735.916992,16.9208984 L735.152344,19.0742188 C734.736326,18.8046862 734.349611,18.6699219 733.992188,18.6699219 C733.646483,18.6699219 733.353517,18.7651358 733.113281,18.9555664 C732.873046,19.145997 732.684083,19.4902319 732.546387,19.9882812 C732.408691,20.4863306 732.339844,21.5292889 732.339844,23.1171875 L732.339844,26 Z M735.899414,16.6660156 L737.270508,16.6660156 L737.270508,15.9628906 C737.270508,15.1777304 737.354003,14.5917988 737.520996,14.2050781 C737.687989,13.8183574 737.995603,13.5034192 738.443848,13.2602539 C738.892092,13.0170886 739.458981,12.8955078 740.144531,12.8955078 C740.84766,12.8955078 741.536129,13.0009755 742.209961,13.2119141 L741.875977,14.9345703 C741.483396,14.8408198 741.105471,14.7939453 740.742188,14.7939453 C740.384764,14.7939453 740.128419,14.8774406 739.973145,15.0444336 C739.81787,15.2114266 739.740234,15.5322242 739.740234,16.0068359 L739.740234,16.6660156 L741.585938,16.6660156 L741.585938,18.6083984 L739.740234,18.6083984 L739.740234,26 L737.270508,26 L737.270508,18.6083984 L735.899414,18.6083984 L735.899414,16.6660156 Z M742.974609,26 L742.974609,13.1152344 L745.444336,13.1152344 L745.444336,26 L742.974609,26 Z M747.404297,21.2011719 C747.404297,20.3808553 747.606443,19.5869179 748.010742,18.8193359 C748.415041,18.051754 748.987789,17.4658223 749.729004,17.0615234 C750.470219,16.6572245 751.297847,16.4550781 752.211914,16.4550781 C753.62403,16.4550781 754.781245,16.9135696 755.683594,17.8305664 C756.585942,18.7475632 757.037109,19.906243 757.037109,21.3066406 C757.037109,22.7187571 756.581548,23.8891555 755.67041,24.8178711 C754.759273,25.7465867 753.612312,26.2109375 752.229492,26.2109375 C751.374019,26.2109375 750.558109,26.0175801 749.781738,25.6308594 C749.005367,25.2441387 748.415041,24.6772498 748.010742,23.9301758 C747.606443,23.1831017 747.404297,22.2734429 747.404297,21.2011719 Z M749.935547,21.3330078 C749.935547,22.2587937 750.155271,22.967771 750.594727,23.4599609 C751.034182,23.9521509 751.576169,24.1982422 752.220703,24.1982422 C752.865238,24.1982422 753.40576,23.9521509 753.842285,23.4599609 C754.278811,22.967771 754.49707,22.2529344 754.49707,21.3154297 C754.49707,20.4013626 754.278811,19.6982446 753.842285,19.2060547 C753.40576,18.7138647 752.865238,18.4677734 752.220703,18.4677734 C751.576169,18.4677734 751.034182,18.7138647 750.594727,19.2060547 C750.155271,19.6982446 749.935547,20.4072219 749.935547,21.3330078 Z M762.853516,8.7734375 C763.751307,8.7734375 764.612626,8.99788187 765.4375,9.44677734 C766.262374,9.89567282 766.910642,10.5393838 767.382324,11.3779297 C767.854006,12.2164755 768.089844,13.0937454 768.089844,14.0097656 C768.089844,14.9212285 767.858564,15.7905232 767.395996,16.6176758 C766.933429,17.4448284 766.288578,18.0896787 765.461426,18.5522461 C764.634273,19.0148135 763.764979,19.2460938 762.853516,19.2460938 C761.942053,19.2460938 761.072758,19.0148135 760.245605,18.5522461 C759.418453,18.0896787 758.773603,17.4448284 758.311035,16.6176758 C757.848468,15.7905232 757.617188,14.9212285 757.617188,14.0097656 C757.617188,13.0937454 757.853025,12.2164755 758.324707,11.3779297 C758.796389,10.5393838 759.444657,9.89567282 760.269531,9.44677734 C761.094405,8.99788187 761.955725,8.7734375 762.853516,8.7734375 Z M762.860352,9.79882812 C762.140296,9.79882812 761.449873,9.97883935 760.789062,10.3388672 C760.128252,10.698895 759.607587,11.2161425 759.227051,11.890625 C758.846515,12.5651075 758.65625,13.2714807 758.65625,14.0097656 C758.65625,14.7434933 758.841958,15.4430305 759.213379,16.1083984 C759.5848,16.7737663 760.103187,17.2932924 760.768555,17.6669922 C761.433923,18.040692 762.131181,18.2275391 762.860352,18.2275391 C763.594079,18.2275391 764.292477,18.040692 764.955566,17.6669922 C765.618656,17.2932924 766.137042,16.7737663 766.510742,16.1083984 C766.884442,15.4430305 767.071289,14.7434933 767.071289,14.0097656 C767.071289,13.2714807 766.881024,12.5651075 766.500488,11.890625 C766.119953,11.2161425 765.598148,10.698895 764.935059,10.3388672 C764.271969,9.97883935 763.580407,9.79882812 762.860352,9.79882812 Z M763.502219,14.381233 C763.667863,14.4443973 763.795703,14.5131198 763.885742,14.5874023 C763.976888,14.662598 764.102213,14.805012 764.261719,15.0146484 C764.302735,15.0693362 764.439452,15.2949199 764.671875,15.6914062 L765.328125,16.8125 L763.933594,16.8125 L763.46875,15.9101562 C763.154295,15.3040334 762.894532,14.9223641 762.689453,14.7651367 C762.484374,14.6079094 762.224611,14.5292969 761.910156,14.5292969 L761.616211,14.5292969 L761.616211,16.8125 L760.488281,16.8125 L760.488281,11.2548828 L761.616211,11.2548828 C762.673508,11.2548828 763.26595,11.2594401 763.393555,11.2685547 C763.767254,11.3004559 764.057779,11.3745111 764.265137,11.4907227 C764.472495,11.6069342 764.64567,11.7846668 764.784668,12.0239258 C764.923666,12.2631848 764.993164,12.5286444 764.993164,12.8203125 C764.993164,13.2213562 764.862143,13.5642889 764.600098,13.8491211 C764.338054,14.1339509 763.97006,14.3105437 763.496105,14.3789046 L763.502219,14.381233 Z M761.616211,13.6542969 L762.074219,13.6542969 C762.725915,13.6542969 763.13037,13.629232 763.287598,13.5791016 C763.444825,13.5289711 763.56901,13.4412441 763.660156,13.315918 C763.751303,13.1905918 763.796875,13.0481779 763.796875,12.8886719 C763.796875,12.7337232 763.752442,12.5958665 763.663574,12.4750977 C763.574707,12.3543288 763.448243,12.2677411 763.28418,12.215332 C763.120116,12.1629229 762.7168,12.1367188 762.074219,12.1367188 L761.616211,12.1367188 L761.616211,13.6542969 Z M769.004883,22.5634766 L769.004883,20.09375 L773.856445,20.09375 L773.856445,22.5634766 L769.004883,22.5634766 Z M777.125977,26 L774.049805,13.1152344 L776.712891,13.1152344 L778.655273,21.9658203 L781.010742,13.1152344 L784.104492,13.1152344 L786.363281,22.1152344 L788.34082,13.1152344 L790.959961,13.1152344 L787.831055,26 L785.071289,26 L782.504883,16.3671875 L779.947266,26 L777.125977,26 Z M792.287109,26 L792.287109,13.1152344 L796.461914,13.1152344 C798.043953,13.1152344 799.075193,13.1796869 799.555664,13.3085938 C800.293949,13.5019541 800.912107,13.92236 801.410156,14.5698242 C801.908206,15.2172884 802.157227,16.0537058 802.157227,17.0791016 C802.157227,17.8701211 802.013673,18.5351536 801.726562,19.0742188 C801.439452,19.6132839 801.074709,20.0366196 800.632324,20.3442383 C800.189939,20.651857 799.740237,20.8554683 799.283203,20.9550781 C798.662106,21.0781256 797.762701,21.1396484 796.584961,21.1396484 L794.888672,21.1396484 L794.888672,26 L792.287109,26 Z M794.888672,15.2949219 L794.888672,18.9511719 L796.3125,18.9511719 C797.337896,18.9511719 798.023436,18.8837897 798.369141,18.7490234 C798.714845,18.6142571 798.985839,18.4033217 799.182129,18.1162109 C799.378419,17.8291001 799.476562,17.4951191 799.476562,17.1142578 C799.476562,16.6455055 799.338869,16.2587906 799.063477,15.9541016 C798.788085,15.6494125 798.439455,15.4589848 798.017578,15.3828125 C797.70703,15.3242185 797.083012,15.2949219 796.145508,15.2949219 L794.888672,15.2949219 Z" id="Terumo–Surflo®-WP" fill="#373737" fill-rule="nonzero"></path>
            </g>
        </g>
    </g>
</svg>