<?xml version="1.0" encoding="UTF-8"?>
<svg width="913px" height="471px" viewBox="0 0 913 471" version="1.1" xmlns="http://www.w3.org/2000/svg" xmlns:xlink="http://www.w3.org/1999/xlink">
    <!-- Generator: Sketch 53.2 (72643) - https://sketchapp.com -->
    <title>Group</title>
    <desc>Created with Sketch.</desc>
    <g id="7.-Product-Comparison" stroke="none" stroke-width="1" fill="none" fill-rule="evenodd">
        <g id="Ported-Non-Safety-IVC" transform="translate(-56.000000, -184.000000)">
            <g id="Group" transform="translate(56.000000, 184.000000)">
                <polygon id="Rectangle" fill-opacity="0.75" fill="#00B482" points="300 0 601 0 601 471 300 471"></polygon>
                <text id="Yes" font-family="ArialMT, Arial" font-size="18" font-weight="normal" fill="#FFFFFF">
                    <tspan x="310" y="69">Yes</tspan>
                </text>
                <text id="No" font-family="ArialMT, Arial" font-size="18" font-weight="normal" fill="#373737">
                    <tspan x="621" y="69">No</tspan>
                </text>
                <text id="19mm-–-45mm" font-family="ArialMT, Arial" font-size="18" font-weight="normal" fill="#373737">
                    <tspan x="621" y="112">19mm – 45mm</tspan>
                </text>
                <text id="PUR-or-FEP" font-family="ArialMT, Arial" font-size="18" font-weight="normal" fill="#373737">
                    <tspan x="621" y="155">PUR or FEP</tspan>
                </text>
                <text id="No" font-family="ArialMT, Arial" font-size="18" font-weight="normal" fill="#373737">
                    <tspan x="621" y="369">No</tspan>
                </text>
                <text id="No" font-family="ArialMT, Arial" font-size="18" font-weight="normal" fill="#373737">
                    <tspan x="621" y="412">No</tspan>
                </text>
                <text id="Without-holes-Copy-2" font-family="ArialMT, Arial" font-size="18" font-weight="normal" fill="#373737">
                    <tspan x="621" y="455">Without holes</tspan>
                </text>
                <text id="No-Flashback-Chamber" font-family="ArialMT, Arial" font-size="18" font-weight="normal" fill="#373737">
                    <tspan x="621" y="198">No Flashback Chamber Protection</tspan>
                </text>
                <text id="No" font-family="ArialMT, Arial" font-size="18" font-weight="normal" fill="#373737">
                    <tspan x="621" y="240">No</tspan>
                </text>
                <text id="No" font-family="ArialMT, Arial" font-size="18" font-weight="normal" fill="#373737">
                    <tspan x="621" y="283">No</tspan>
                </text>
                <text id="No-Anti-Bypass-Desig" font-family="ArialMT, Arial" font-size="18" font-weight="normal" fill="#373737">
                    <tspan x="621" y="326">No Anti-Bypass Design</tspan>
                </text>
                <text id="19mm-–-50mm" font-family="ArialMT, Arial" font-size="18" font-weight="normal" fill="#FFFFFF">
                    <tspan x="310" y="112">19mm – 50mm</tspan>
                </text>
                <text id="FEP-&amp;-PUR" font-family="ArialMT, Arial" font-size="18" font-weight="normal" fill="#FFFFFF">
                    <tspan x="310" y="155">FEP &amp; PUR</tspan>
                </text>
                <text id="Yes" font-family="ArialMT, Arial" font-size="18" font-weight="normal" fill="#FFFFFF">
                    <tspan x="310" y="369">Yes</tspan>
                </text>
                <text id="Yes" font-family="ArialMT, Arial" font-size="18" font-weight="normal" fill="#FFFFFF">
                    <tspan x="310" y="412">Yes</tspan>
                </text>
                <text id="With-holes-Copy-2" font-family="ArialMT, Arial" font-size="18" font-weight="normal" fill="#FFFFFF">
                    <tspan x="310" y="455">With holes</tspan>
                </text>
                <text id="Flashback-Chamber-Pr" font-family="ArialMT, Arial" font-size="18" font-weight="normal" fill="#FFFFFF">
                    <tspan x="310" y="198">Flashback Chamber Protection</tspan>
                </text>
                <text id="Yes" font-family="ArialMT, Arial" font-size="18" font-weight="normal" fill="#FFFFFF">
                    <tspan x="310" y="240">Yes</tspan>
                </text>
                <text id="Yes-(Automatic/Passi" font-family="ArialMT, Arial" font-size="18" font-weight="normal" fill="#FFFFFF">
                    <tspan x="310" y="283">Yes (Automatic/Passive)</tspan>
                </text>
                <text id="Anti-Bypass-Design" font-family="ArialMT, Arial" font-size="18" font-weight="normal" fill="#FFFFFF">
                    <tspan x="310" y="326">Anti-Bypass Design</tspan>
                </text>
                <text id="Color-Coded-Blister" font-family="ArialMT, Arial" font-size="18" font-weight="normal" fill="#373737">
                    <tspan x="1" y="69">Color Coded Blister Packaging</tspan>
                </text>
                <text id="Available-Catheter-L" font-family="ArialMT, Arial" font-size="18" font-weight="normal" fill="#373737">
                    <tspan x="0" y="112">Available Catheter Lengths</tspan>
                </text>
                <text id="Catheter-Hub-Protect" font-family="ArialMT, Arial" font-size="18" font-weight="normal" fill="#373737">
                    <tspan x="0" y="198">Catheter Hub Protection</tspan>
                </text>
                <text id="Color-Coded-Wing" font-family="ArialMT, Arial" font-size="18" font-weight="normal" fill="#373737">
                    <tspan x="0" y="240">Color Coded Wing</tspan>
                </text>
                <text id="Catheter-Material" font-family="ArialMT, Arial" font-size="18" font-weight="normal" fill="#373737">
                    <tspan x="1" y="155">Catheter Material</tspan>
                </text>
                <text id="Close-off-Port" font-family="ArialMT, Arial" font-size="18" font-weight="normal" fill="#373737">
                    <tspan x="1" y="369">Close-off Port</tspan>
                </text>
                <text id="Centralized-Injectio" font-family="ArialMT, Arial" font-size="18" font-weight="normal" fill="#373737">
                    <tspan x="1" y="412">Centralized Injection Port</tspan>
                </text>
                <text id="Fixation-Wings-Copy" font-family="ArialMT, Arial" font-size="18" font-weight="normal" fill="#373737">
                    <tspan x="1" y="455">Fixation Wings</tspan>
                </text>
                <text id="Safety-Mechanism" font-family="ArialMT, Arial" font-size="18" font-weight="normal" fill="#373737">
                    <tspan x="1" y="283">Safety Mechanism</tspan>
                </text>
                <text id="Anti-Bypass-Design" font-family="ArialMT, Arial" font-size="18" font-weight="normal" fill="#373737">
                    <tspan x="1" y="326">Anti-Bypass Design</tspan>
                </text>
                <path d="M0.5,84.5 L911.59275,84.5" id="Line" stroke="#FFFFFF" stroke-linecap="square"></path>
                <path d="M0.5,127.5 L911.59275,127.5" id="Line" stroke="#FFFFFF" stroke-linecap="square"></path>
                <path d="M0.5,341.5 L911.59275,341.5" id="Line-Copy" stroke="#FFFFFF" stroke-linecap="square"></path>
                <path d="M0.5,384.5 L911.59275,384.5" id="Line-Copy-2" stroke="#FFFFFF" stroke-linecap="square"></path>
                <path d="M0.5,427.5 L911.59275,427.5" id="Line-Copy-3" stroke="#FFFFFF" stroke-linecap="square"></path>
                <path d="M0.5,170.5 L911.59275,170.5" id="Line" stroke="#FFFFFF" stroke-linecap="square"></path>
                <path d="M0.5,213.5 L911.59275,213.5" id="Line" stroke="#FFFFFF" stroke-linecap="square"></path>
                <path d="M0.5,255.5 L911.59275,255.5" id="Line" stroke="#FFFFFF" stroke-linecap="square"></path>
                <path d="M0.5,298.5 L911.59275,298.5" id="Line" stroke="#FFFFFF" stroke-linecap="square"></path>
                <path d="M0.5,41.5 L911.59275,41.5" id="Line" stroke="#FFFFFF" stroke-linecap="square"></path>
                <path d="M316.59668,26 L311.991211,13.1152344 L314.8125,13.1152344 L318.073242,22.6513672 L321.228516,13.1152344 L323.988281,13.1152344 L319.374023,26 L316.59668,26 Z M326.150391,19.5136719 L323.90918,19.109375 C324.161134,18.2070267 324.594723,17.5390647 325.209961,17.1054688 C325.825198,16.6718728 326.739252,16.4550781 327.952148,16.4550781 C329.053716,16.4550781 329.874021,16.5854479 330.413086,16.8461914 C330.952151,17.1069349 331.331542,17.4379863 331.55127,17.8393555 C331.770997,18.2407247 331.880859,18.9775337 331.880859,20.0498047 L331.854492,22.9326172 C331.854492,23.7529338 331.894043,24.3579082 331.973145,24.7475586 C332.052246,25.137209 332.200194,25.5546853 332.416992,26 L329.973633,26 C329.909179,25.8359367 329.830079,25.592775 329.736328,25.2705078 C329.695312,25.1240227 329.666016,25.027344 329.648438,24.9804688 C329.22656,25.3906271 328.775393,25.6982412 328.294922,25.9033203 C327.814451,26.1083995 327.301761,26.2109375 326.756836,26.2109375 C325.795894,26.2109375 325.038577,25.9501979 324.484863,25.4287109 C323.93115,24.907224 323.654297,24.2480509 323.654297,23.4511719 C323.654297,22.9238255 323.780272,22.4536153 324.032227,22.0405273 C324.284181,21.6274393 324.637205,21.3110363 325.091309,21.0913086 C325.545412,20.8715809 326.200191,20.6796883 327.055664,20.515625 C328.209967,20.298827 329.009763,20.0966806 329.455078,19.9091797 L329.455078,19.6630859 C329.455078,19.1884742 329.337892,18.8500987 329.103516,18.6479492 C328.869139,18.4457998 328.426761,18.3447266 327.776367,18.3447266 C327.336912,18.3447266 326.994142,18.4311515 326.748047,18.6040039 C326.501952,18.7768563 326.302735,19.080076 326.150391,19.5136719 Z M329.455078,21.5175781 C329.13867,21.6230474 328.637699,21.7490227 327.952148,21.8955078 C327.266598,22.0419929 326.81836,22.1855462 326.607422,22.3261719 C326.285155,22.5546886 326.124023,22.8447248 326.124023,23.1962891 C326.124023,23.5419939 326.252928,23.8408191 326.510742,24.0927734 C326.768556,24.3447278 327.096678,24.4707031 327.495117,24.4707031 C327.940432,24.4707031 328.365232,24.3242202 328.769531,24.03125 C329.068361,23.8085926 329.264648,23.5361344 329.358398,23.2138672 C329.422852,23.0029286 329.455078,22.6015655 329.455078,22.0097656 L329.455078,21.5175781 Z M333.445312,23.3369141 L335.923828,22.9589844 C336.029297,23.4394555 336.243162,23.804198 336.56543,24.0532227 C336.887697,24.3022473 337.338864,24.4267578 337.918945,24.4267578 C338.55762,24.4267578 339.038084,24.3095715 339.360352,24.0751953 C339.57715,23.911132 339.685547,23.6914076 339.685547,23.4160156 C339.685547,23.2285147 339.626954,23.0732428 339.509766,22.9501953 C339.386718,22.8330072 339.11133,22.7246099 338.683594,22.625 C336.691396,22.1855447 335.428714,21.7841815 334.895508,21.4208984 C334.157223,20.9169897 333.788086,20.2168014 333.788086,19.3203125 C333.788086,18.5117147 334.107419,17.832034 334.746094,17.28125 C335.384769,16.730466 336.374993,16.4550781 337.716797,16.4550781 C338.994147,16.4550781 339.943356,16.6630839 340.564453,17.0791016 C341.18555,17.4951193 341.61328,18.1103475 341.847656,18.9248047 L339.518555,19.3554688 C339.418945,18.9921857 339.229982,18.7138682 338.95166,18.5205078 C338.673338,18.3271475 338.27637,18.2304688 337.760742,18.2304688 C337.110348,18.2304688 336.644533,18.3212882 336.363281,18.5029297 C336.17578,18.6318366 336.082031,18.7988271 336.082031,19.0039062 C336.082031,19.1796884 336.164062,19.3291009 336.328125,19.4521484 C336.550782,19.6162118 337.319818,19.8476548 338.635254,20.1464844 C339.95069,20.445314 340.869138,20.8115213 341.390625,21.2451172 C341.906253,21.6845725 342.164062,22.2968711 342.164062,23.0820312 C342.164062,23.9375043 341.806644,24.6728485 341.091797,25.2880859 C340.37695,25.9033234 339.319343,26.2109375 337.918945,26.2109375 C336.647455,26.2109375 335.641117,25.9531276 334.899902,25.4375 C334.158688,24.9218724 333.673829,24.2216841 333.445312,23.3369141 Z M343.754883,21.2011719 C343.754883,20.3808553 343.957029,19.5869179 344.361328,18.8193359 C344.765627,18.051754 345.338375,17.4658223 346.07959,17.0615234 C346.820804,16.6572245 347.648433,16.4550781 348.5625,16.4550781 C349.974616,16.4550781 351.131831,16.9135696 352.03418,17.8305664 C352.936528,18.7475632 353.387695,19.906243 353.387695,21.3066406 C353.387695,22.7187571 352.932133,23.8891555 352.020996,24.8178711 C351.109859,25.7465867 349.962898,26.2109375 348.580078,26.2109375 C347.724605,26.2109375 346.908695,26.0175801 346.132324,25.6308594 C345.355953,25.2441387 344.765627,24.6772498 344.361328,23.9301758 C343.957029,23.1831017 343.754883,22.2734429 343.754883,21.2011719 Z M346.286133,21.3330078 C346.286133,22.2587937 346.505857,22.967771 346.945312,23.4599609 C347.384768,23.9521509 347.926755,24.1982422 348.571289,24.1982422 C349.215824,24.1982422 349.756345,23.9521509 350.192871,23.4599609 C350.629397,22.967771 350.847656,22.2529344 350.847656,21.3154297 C350.847656,20.4013626 350.629397,19.6982446 350.192871,19.2060547 C349.756345,18.7138647 349.215824,18.4677734 348.571289,18.4677734 C347.926755,18.4677734 347.384768,18.7138647 346.945312,19.2060547 C346.505857,19.6982446 346.286133,20.4072219 346.286133,21.3330078 Z M354.240234,16.6660156 L355.611328,16.6660156 L355.611328,15.9628906 C355.611328,15.1777304 355.694823,14.5917988 355.861816,14.2050781 C356.028809,13.8183574 356.336424,13.5034192 356.784668,13.2602539 C357.232912,13.0170886 357.799801,12.8955078 358.485352,12.8955078 C359.18848,12.8955078 359.87695,13.0009755 360.550781,13.2119141 L360.216797,14.9345703 C359.824217,14.8408198 359.446291,14.7939453 359.083008,14.7939453 C358.725584,14.7939453 358.469239,14.8774406 358.313965,15.0444336 C358.158691,15.2114266 358.081055,15.5322242 358.081055,16.0068359 L358.081055,16.6660156 L359.926758,16.6660156 L359.926758,18.6083984 L358.081055,18.6083984 L358.081055,26 L355.611328,26 L355.611328,18.6083984 L354.240234,18.6083984 L354.240234,16.6660156 Z M361.31543,15.4003906 L361.31543,13.1152344 L363.785156,13.1152344 L363.785156,15.4003906 L361.31543,15.4003906 Z M361.31543,26 L361.31543,16.6660156 L363.785156,16.6660156 L363.785156,26 L361.31543,26 Z M365.129883,26 L368.496094,21.1923828 L365.270508,16.6660156 L368.285156,16.6660156 L369.9375,19.2324219 L371.677734,16.6660156 L374.578125,16.6660156 L371.414062,21.0869141 L374.868164,26 L371.835938,26 L369.9375,23.1083984 L368.021484,26 L365.129883,26 Z M380.209961,8.7734375 C381.107752,8.7734375 381.969071,8.99788187 382.793945,9.44677734 C383.618819,9.89567282 384.267087,10.5393838 384.73877,11.3779297 C385.210452,12.2164755 385.446289,13.0937454 385.446289,14.0097656 C385.446289,14.9212285 385.215009,15.7905232 384.752441,16.6176758 C384.289874,17.4448284 383.645024,18.0896787 382.817871,18.5522461 C381.990719,19.0148135 381.121424,19.2460938 380.209961,19.2460938 C379.298498,19.2460938 378.429203,19.0148135 377.602051,18.5522461 C376.774898,18.0896787 376.130048,17.4448284 375.66748,16.6176758 C375.204913,15.7905232 374.973633,14.9212285 374.973633,14.0097656 C374.973633,13.0937454 375.20947,12.2164755 375.681152,11.3779297 C376.152834,10.5393838 376.801103,9.89567282 377.625977,9.44677734 C378.45085,8.99788187 379.31217,8.7734375 380.209961,8.7734375 Z M380.216797,9.79882812 C379.496741,9.79882812 378.806318,9.97883935 378.145508,10.3388672 C377.484697,10.698895 376.964032,11.2161425 376.583496,11.890625 C376.20296,12.5651075 376.012695,13.2714807 376.012695,14.0097656 C376.012695,14.7434933 376.198403,15.4430305 376.569824,16.1083984 C376.941245,16.7737663 377.459632,17.2932924 378.125,17.6669922 C378.790368,18.040692 379.487627,18.2275391 380.216797,18.2275391 C380.950525,18.2275391 381.648922,18.040692 382.312012,17.6669922 C382.975101,17.2932924 383.493488,16.7737663 383.867188,16.1083984 C384.240887,15.4430305 384.427734,14.7434933 384.427734,14.0097656 C384.427734,13.2714807 384.237469,12.5651075 383.856934,11.890625 C383.476398,11.2161425 382.954593,10.698895 382.291504,10.3388672 C381.628415,9.97883935 380.936853,9.79882812 380.216797,9.79882812 Z M380.858665,14.381233 C381.024308,14.4443973 381.152148,14.5131198 381.242188,14.5874023 C381.333334,14.662598 381.458658,14.805012 381.618164,15.0146484 C381.65918,15.0693362 381.795897,15.2949199 382.02832,15.6914062 L382.68457,16.8125 L381.290039,16.8125 L380.825195,15.9101562 C380.510741,15.3040334 380.250978,14.9223641 380.045898,14.7651367 C379.840819,14.6079094 379.581056,14.5292969 379.266602,14.5292969 L378.972656,14.5292969 L378.972656,16.8125 L377.844727,16.8125 L377.844727,11.2548828 L378.972656,11.2548828 C380.029953,11.2548828 380.622395,11.2594401 380.75,11.2685547 C381.1237,11.3004559 381.414224,11.3745111 381.621582,11.4907227 C381.82894,11.6069342 382.002115,11.7846668 382.141113,12.0239258 C382.280111,12.2631848 382.349609,12.5286444 382.349609,12.8203125 C382.349609,13.2213562 382.218589,13.5642889 381.956543,13.8491211 C381.6945,14.1339509 381.326506,14.3105437 380.852551,14.3789046 L380.858665,14.381233 Z M378.972656,13.6542969 L379.430664,13.6542969 C380.08236,13.6542969 380.486816,13.629232 380.644043,13.5791016 C380.80127,13.5289711 380.925455,13.4412441 381.016602,13.315918 C381.107748,13.1905918 381.15332,13.0481779 381.15332,12.8886719 C381.15332,12.7337232 381.108887,12.5958665 381.02002,12.4750977 C380.931152,12.3543288 380.804688,12.2677411 380.640625,12.215332 C380.476562,12.1629229 380.073245,12.1367188 379.430664,12.1367188 L378.972656,12.1367188 L378.972656,13.6542969 Z M391.001953,21.8076172 L393.533203,21.5615234 C393.685548,22.4111371 393.994627,23.0351543 394.460449,23.4335938 C394.926272,23.8320332 395.554684,24.03125 396.345703,24.03125 C397.183598,24.03125 397.814939,23.8540057 398.239746,23.4995117 C398.664553,23.1450178 398.876953,22.7304711 398.876953,22.2558594 C398.876953,21.9511704 398.787599,21.6918956 398.608887,21.4780273 C398.430175,21.2641591 398.118166,21.0781258 397.672852,20.9199219 C397.368163,20.8144526 396.673834,20.6269545 395.589844,20.3574219 C394.195306,20.011717 393.2168,19.5869166 392.654297,19.0830078 C391.863277,18.3740199 391.467773,17.5097707 391.467773,16.4902344 C391.467773,15.8339811 391.653807,15.2202177 392.025879,14.6489258 C392.397951,14.0776339 392.934079,13.6425796 393.634277,13.34375 C394.334476,13.0449204 395.179683,12.8955078 396.169922,12.8955078 C397.787117,12.8955078 399.00439,13.2499965 399.821777,13.9589844 C400.639164,14.6679723 401.068359,15.6142519 401.109375,16.7978516 L398.507812,16.9121094 C398.396484,16.2499967 398.157717,15.7739272 397.791504,15.4838867 C397.425291,15.1938462 396.87598,15.0488281 396.143555,15.0488281 C395.387692,15.0488281 394.795901,15.2041 394.368164,15.5146484 C394.092772,15.7138682 393.955078,15.9804671 393.955078,16.3144531 C393.955078,16.6191421 394.083983,16.8798817 394.341797,17.0966797 C394.669924,17.3720717 395.466791,17.6591782 396.732422,17.9580078 C397.998053,18.2568374 398.934079,18.5659164 399.540527,18.8852539 C400.146976,19.2045914 400.62158,19.6411105 400.964355,20.1948242 C401.307131,20.7485379 401.478516,21.4326131 401.478516,22.2470703 C401.478516,22.9853553 401.27344,23.6767546 400.863281,24.3212891 C400.453123,24.9658235 399.873051,25.4448227 399.123047,25.7583008 C398.373043,26.0717789 397.438482,26.2285156 396.319336,26.2285156 C394.690422,26.2285156 393.439457,25.8520545 392.566406,25.0991211 C391.693355,24.3461876 391.171876,23.2490306 391.001953,21.8076172 Z M405.495117,19.5136719 L403.253906,19.109375 C403.505861,18.2070267 403.93945,17.5390647 404.554688,17.1054688 C405.169925,16.6718728 406.083978,16.4550781 407.296875,16.4550781 C408.398443,16.4550781 409.218747,16.5854479 409.757812,16.8461914 C410.296878,17.1069349 410.676268,17.4379863 410.895996,17.8393555 C411.115724,18.2407247 411.225586,18.9775337 411.225586,20.0498047 L411.199219,22.9326172 C411.199219,23.7529338 411.238769,24.3579082 411.317871,24.7475586 C411.396973,25.137209 411.544921,25.5546853 411.761719,26 L409.318359,26 C409.253906,25.8359367 409.174805,25.592775 409.081055,25.2705078 C409.040039,25.1240227 409.010742,25.027344 408.993164,24.9804688 C408.571287,25.3906271 408.12012,25.6982412 407.639648,25.9033203 C407.159177,26.1083995 406.646487,26.2109375 406.101562,26.2109375 C405.14062,26.2109375 404.383304,25.9501979 403.82959,25.4287109 C403.275876,24.907224 402.999023,24.2480509 402.999023,23.4511719 C402.999023,22.9238255 403.124999,22.4536153 403.376953,22.0405273 C403.628908,21.6274393 403.981931,21.3110363 404.436035,21.0913086 C404.890139,20.8715809 405.544918,20.6796883 406.400391,20.515625 C407.554693,20.298827 408.35449,20.0966806 408.799805,19.9091797 L408.799805,19.6630859 C408.799805,19.1884742 408.682618,18.8500987 408.448242,18.6479492 C408.213866,18.4457998 407.771488,18.3447266 407.121094,18.3447266 C406.681638,18.3447266 406.338868,18.4311515 406.092773,18.6040039 C405.846678,18.7768563 405.647462,19.080076 405.495117,19.5136719 Z M408.799805,21.5175781 C408.483397,21.6230474 407.982425,21.7490227 407.296875,21.8955078 C406.611325,22.0419929 406.163087,22.1855462 405.952148,22.3261719 C405.629881,22.5546886 405.46875,22.8447248 405.46875,23.1962891 C405.46875,23.5419939 405.597655,23.8408191 405.855469,24.0927734 C406.113283,24.3447278 406.441404,24.4707031 406.839844,24.4707031 C407.285158,24.4707031 407.709959,24.3242202 408.114258,24.03125 C408.413087,23.8085926 408.609375,23.5361344 408.703125,23.2138672 C408.767578,23.0029286 408.799805,22.6015655 408.799805,22.0097656 L408.799805,21.5175781 Z M412.579102,16.6660156 L413.950195,16.6660156 L413.950195,15.9628906 C413.950195,15.1777304 414.033691,14.5917988 414.200684,14.2050781 C414.367677,13.8183574 414.675291,13.5034192 415.123535,13.2602539 C415.57178,13.0170886 416.138668,12.8955078 416.824219,12.8955078 C417.527347,12.8955078 418.215817,13.0009755 418.889648,13.2119141 L418.555664,14.9345703 C418.163084,14.8408198 417.785158,14.7939453 417.421875,14.7939453 C417.064451,14.7939453 416.808106,14.8774406 416.652832,15.0444336 C416.497558,15.2114266 416.419922,15.5322242 416.419922,16.0068359 L416.419922,16.6660156 L418.265625,16.6660156 L418.265625,18.6083984 L416.419922,18.6083984 L416.419922,26 L413.950195,26 L413.950195,18.6083984 L412.579102,18.6083984 L412.579102,16.6660156 Z M425.05957,23.0292969 L427.520508,23.4423828 C427.2041,24.3447311 426.704593,25.0317359 426.021973,25.503418 C425.339352,25.9751 424.485357,26.2109375 423.459961,26.2109375 C421.836906,26.2109375 420.635746,25.6806694 419.856445,24.6201172 C419.241208,23.7705036 418.933594,22.6982487 418.933594,21.4033203 C418.933594,19.8564376 419.337887,18.6450239 420.146484,17.769043 C420.955082,16.893062 421.977533,16.4550781 423.213867,16.4550781 C424.602546,16.4550781 425.698238,16.9135696 426.500977,17.8305664 C427.303715,18.7475632 427.6875,20.1523343 427.652344,22.0449219 L421.464844,22.0449219 C421.482422,22.7773474 421.681639,23.3471659 422.0625,23.7543945 C422.443361,24.1616231 422.917966,24.3652344 423.486328,24.3652344 C423.873049,24.3652344 424.198241,24.2597667 424.461914,24.0488281 C424.725587,23.8378896 424.924804,23.4980492 425.05957,23.0292969 Z M425.200195,20.5332031 C425.182617,19.8183558 424.998049,19.2749042 424.646484,18.902832 C424.29492,18.5307599 423.86719,18.3447266 423.363281,18.3447266 C422.824216,18.3447266 422.378908,18.5410137 422.027344,18.9335938 C421.675779,19.3261738 421.50293,19.8593716 421.508789,20.5332031 L425.200195,20.5332031 Z M433.945312,16.6660156 L433.945312,18.6347656 L432.257812,18.6347656 L432.257812,22.3964844 C432.257812,23.1582069 432.273926,23.6020502 432.306152,23.7280273 C432.338379,23.8540045 432.411621,23.9580074 432.525879,24.0400391 C432.640137,24.1220707 432.779296,24.1630859 432.943359,24.1630859 C433.171876,24.1630859 433.502928,24.0839852 433.936523,23.9257812 L434.147461,25.8417969 C433.573239,26.0878919 432.922855,26.2109375 432.196289,26.2109375 C431.750974,26.2109375 431.349611,26.1362312 430.992188,25.9868164 C430.634764,25.8374016 430.372559,25.6440442 430.205566,25.4067383 C430.038573,25.1694324 429.922852,24.8486348 429.858398,24.4443359 C429.805664,24.1572251 429.779297,23.5771528 429.779297,22.7041016 L429.779297,18.6347656 L428.645508,18.6347656 L428.645508,16.6660156 L429.779297,16.6660156 L429.779297,14.8115234 L432.257812,13.3701172 L432.257812,16.6660156 L433.945312,16.6660156 Z M434.490234,16.6660156 L437.118164,16.6660156 L439.350586,23.2929688 L441.530273,16.6660156 L444.087891,16.6660156 L440.791992,25.6484375 L440.203125,27.2744141 C439.986327,27.8193387 439.779786,28.2353501 439.583496,28.5224609 C439.387206,28.8095717 439.161622,29.0424796 438.906738,29.2211914 C438.651854,29.3999032 438.338381,29.539062 437.966309,29.6386719 C437.594236,29.7382817 437.17383,29.7880859 436.705078,29.7880859 C436.230466,29.7880859 435.764651,29.7382817 435.307617,29.6386719 L435.087891,27.7050781 C435.474611,27.7812504 435.823241,27.8193359 436.133789,27.8193359 C436.708011,27.8193359 437.132811,27.6508806 437.408203,27.3139648 C437.683595,26.9770491 437.894531,26.5478542 438.041016,26.0263672 L434.490234,16.6660156 Z" id="Vasofix®Safety" fill="#FFFFFF" fill-rule="nonzero"></path>
                <path d="M622.30957,26 L622.30957,13.1152344 L626.484375,13.1152344 C628.066414,13.1152344 629.097654,13.1796869 629.578125,13.3085938 C630.31641,13.5019541 630.934568,13.92236 631.432617,14.5698242 C631.930667,15.2172884 632.179688,16.0537058 632.179688,17.0791016 C632.179688,17.8701211 632.036134,18.5351536 631.749023,19.0742188 C631.461913,19.6132839 631.09717,20.0366196 630.654785,20.3442383 C630.2124,20.651857 629.762698,20.8554683 629.305664,20.9550781 C628.684567,21.0781256 627.785162,21.1396484 626.607422,21.1396484 L624.911133,21.1396484 L624.911133,26 L622.30957,26 Z M624.911133,15.2949219 L624.911133,18.9511719 L626.334961,18.9511719 C627.360357,18.9511719 628.045897,18.8837897 628.391602,18.7490234 C628.737306,18.6142571 629.0083,18.4033217 629.20459,18.1162109 C629.40088,17.8291001 629.499023,17.4951191 629.499023,17.1142578 C629.499023,16.6455055 629.36133,16.2587906 629.085938,15.9541016 C628.810545,15.6494125 628.461916,15.4589848 628.040039,15.3828125 C627.729491,15.3242185 627.105473,15.2949219 626.167969,15.2949219 L624.911133,15.2949219 Z M633.726562,21.2011719 C633.726562,20.3808553 633.928709,19.5869179 634.333008,18.8193359 C634.737307,18.051754 635.310055,17.4658223 636.05127,17.0615234 C636.792484,16.6572245 637.620113,16.4550781 638.53418,16.4550781 C639.946296,16.4550781 641.103511,16.9135696 642.005859,17.8305664 C642.908208,18.7475632 643.359375,19.906243 643.359375,21.3066406 C643.359375,22.7187571 642.903813,23.8891555 641.992676,24.8178711 C641.081538,25.7465867 639.934577,26.2109375 638.551758,26.2109375 C637.696285,26.2109375 636.880375,26.0175801 636.104004,25.6308594 C635.327633,25.2441387 634.737307,24.6772498 634.333008,23.9301758 C633.928709,23.1831017 633.726562,22.2734429 633.726562,21.2011719 Z M636.257812,21.3330078 C636.257812,22.2587937 636.477537,22.967771 636.916992,23.4599609 C637.356448,23.9521509 637.898434,24.1982422 638.542969,24.1982422 C639.187503,24.1982422 639.728025,23.9521509 640.164551,23.4599609 C640.601076,22.967771 640.819336,22.2529344 640.819336,21.3154297 C640.819336,20.4013626 640.601076,19.6982446 640.164551,19.2060547 C639.728025,18.7138647 639.187503,18.4677734 638.542969,18.4677734 C637.898434,18.4677734 637.356448,18.7138647 636.916992,19.2060547 C636.477537,19.6982446 636.257812,20.4072219 636.257812,21.3330078 Z M647.657227,26 L645.1875,26 L645.1875,16.6660156 L647.481445,16.6660156 L647.481445,17.9931641 C647.874025,17.3662078 648.227049,16.953126 648.540527,16.7539062 C648.854005,16.5546865 649.209959,16.4550781 649.608398,16.4550781 C650.170901,16.4550781 650.712888,16.61035 651.234375,16.9208984 L650.469727,19.0742188 C650.053709,18.8046862 649.666994,18.6699219 649.30957,18.6699219 C648.963865,18.6699219 648.6709,18.7651358 648.430664,18.9555664 C648.190428,19.145997 648.001466,19.4902319 647.86377,19.9882812 C647.726074,20.4863306 647.657227,21.5292889 647.657227,23.1171875 L647.657227,26 Z M656.578125,16.6660156 L656.578125,18.6347656 L654.890625,18.6347656 L654.890625,22.3964844 C654.890625,23.1582069 654.906738,23.6020502 654.938965,23.7280273 C654.971192,23.8540045 655.044433,23.9580074 655.158691,24.0400391 C655.27295,24.1220707 655.412109,24.1630859 655.576172,24.1630859 C655.804689,24.1630859 656.13574,24.0839852 656.569336,23.9257812 L656.780273,25.8417969 C656.206052,26.0878919 655.555668,26.2109375 654.829102,26.2109375 C654.383787,26.2109375 653.982424,26.1362312 653.625,25.9868164 C653.267576,25.8374016 653.005372,25.6440442 652.838379,25.4067383 C652.671386,25.1694324 652.555664,24.8486348 652.491211,24.4443359 C652.438476,24.1572251 652.412109,23.5771528 652.412109,22.7041016 L652.412109,18.6347656 L651.27832,18.6347656 L651.27832,16.6660156 L652.412109,16.6660156 L652.412109,14.8115234 L654.890625,13.3701172 L654.890625,16.6660156 L656.578125,16.6660156 Z M663.697266,23.0292969 L666.158203,23.4423828 C665.841795,24.3447311 665.342289,25.0317359 664.659668,25.503418 C663.977047,25.9751 663.123052,26.2109375 662.097656,26.2109375 C660.474601,26.2109375 659.273441,25.6806694 658.494141,24.6201172 C657.878903,23.7705036 657.571289,22.6982487 657.571289,21.4033203 C657.571289,19.8564376 657.975582,18.6450239 658.78418,17.769043 C659.592777,16.893062 660.615228,16.4550781 661.851562,16.4550781 C663.240241,16.4550781 664.335933,16.9135696 665.138672,17.8305664 C665.94141,18.7475632 666.325195,20.1523343 666.290039,22.0449219 L660.102539,22.0449219 C660.120117,22.7773474 660.319334,23.3471659 660.700195,23.7543945 C661.081057,24.1616231 661.555661,24.3652344 662.124023,24.3652344 C662.510744,24.3652344 662.835936,24.2597667 663.099609,24.0488281 C663.363283,23.8378896 663.562499,23.4980492 663.697266,23.0292969 Z M663.837891,20.5332031 C663.820312,19.8183558 663.635744,19.2749042 663.28418,18.902832 C662.932615,18.5307599 662.504885,18.3447266 662.000977,18.3447266 C661.461911,18.3447266 661.016603,18.5410137 660.665039,18.9335938 C660.313475,19.3261738 660.140625,19.8593716 660.146484,20.5332031 L663.837891,20.5332031 Z M676.863281,26 L674.569336,26 L674.569336,24.6289062 C674.188475,25.162112 673.738772,25.5590807 673.220215,25.8198242 C672.701658,26.0805677 672.178714,26.2109375 671.651367,26.2109375 C670.579096,26.2109375 669.660648,25.7788129 668.895996,24.9145508 C668.131344,24.0502886 667.749023,22.8447343 667.749023,21.2978516 C667.749023,19.7158124 668.12109,18.5131877 668.865234,17.6899414 C669.609379,16.8666951 670.549799,16.4550781 671.686523,16.4550781 C672.729497,16.4550781 673.631832,16.8886675 674.393555,17.7558594 L674.393555,13.1152344 L676.863281,13.1152344 L676.863281,26 Z M670.271484,21.1308594 C670.271484,22.1269581 670.409178,22.847654 670.68457,23.2929688 C671.08301,23.9375032 671.639645,24.2597656 672.354492,24.2597656 C672.922854,24.2597656 673.406248,24.0180688 673.804688,23.534668 C674.203127,23.0512671 674.402344,22.3291064 674.402344,21.3681641 C674.402344,20.2958931 674.208986,19.5239281 673.822266,19.0522461 C673.435545,18.580564 672.940433,18.3447266 672.336914,18.3447266 C671.750974,18.3447266 671.260256,18.5776344 670.864746,19.043457 C670.469236,19.5092797 670.271484,20.2050735 670.271484,21.1308594 Z M684.342773,26 L684.342773,13.1152344 L686.874023,13.1152344 L692.147461,21.7197266 L692.147461,13.1152344 L694.564453,13.1152344 L694.564453,26 L691.954102,26 L686.759766,17.5976562 L686.759766,26 L684.342773,26 Z M696.726562,21.2011719 C696.726562,20.3808553 696.928709,19.5869179 697.333008,18.8193359 C697.737307,18.051754 698.310055,17.4658223 699.05127,17.0615234 C699.792484,16.6572245 700.620113,16.4550781 701.53418,16.4550781 C702.946296,16.4550781 704.103511,16.9135696 705.005859,17.8305664 C705.908208,18.7475632 706.359375,19.906243 706.359375,21.3066406 C706.359375,22.7187571 705.903813,23.8891555 704.992676,24.8178711 C704.081538,25.7465867 702.934577,26.2109375 701.551758,26.2109375 C700.696285,26.2109375 699.880375,26.0175801 699.104004,25.6308594 C698.327633,25.2441387 697.737307,24.6772498 697.333008,23.9301758 C696.928709,23.1831017 696.726562,22.2734429 696.726562,21.2011719 Z M699.257812,21.3330078 C699.257812,22.2587937 699.477537,22.967771 699.916992,23.4599609 C700.356448,23.9521509 700.898434,24.1982422 701.542969,24.1982422 C702.187503,24.1982422 702.728025,23.9521509 703.164551,23.4599609 C703.601076,22.967771 703.819336,22.2529344 703.819336,21.3154297 C703.819336,20.4013626 703.601076,19.6982446 703.164551,19.2060547 C702.728025,18.7138647 702.187503,18.4677734 701.542969,18.4677734 C700.898434,18.4677734 700.356448,18.7138647 699.916992,19.2060547 C699.477537,19.6982446 699.257812,20.4072219 699.257812,21.3330078 Z M716.783203,26 L714.313477,26 L714.313477,21.2363281 C714.313477,20.2285106 714.260743,19.5766616 714.155273,19.2807617 C714.049804,18.9848618 713.878419,18.7548836 713.641113,18.5908203 C713.403807,18.426757 713.118166,18.3447266 712.78418,18.3447266 C712.356443,18.3447266 711.972658,18.4619129 711.632812,18.6962891 C711.292967,18.9306652 711.060059,19.241209 710.934082,19.6279297 C710.808105,20.0146504 710.745117,20.729487 710.745117,21.7724609 L710.745117,26 L708.275391,26 L708.275391,16.6660156 L710.569336,16.6660156 L710.569336,18.0371094 C711.383793,16.9824166 712.409174,16.4550781 713.645508,16.4550781 C714.190432,16.4550781 714.688474,16.5532217 715.139648,16.7495117 C715.590823,16.9458018 715.932128,17.1962875 716.163574,17.5009766 C716.395021,17.8056656 716.556152,18.1513653 716.646973,18.5380859 C716.737793,18.9248066 716.783203,19.478512 716.783203,20.1992188 L716.783203,26 Z M719.006836,22.5634766 L719.006836,20.09375 L723.858398,20.09375 L723.858398,22.5634766 L719.006836,22.5634766 Z M724.640625,21.8076172 L727.171875,21.5615234 C727.32422,22.4111371 727.633298,23.0351543 728.099121,23.4335938 C728.564944,23.8320332 729.193355,24.03125 729.984375,24.03125 C730.82227,24.03125 731.453611,23.8540057 731.878418,23.4995117 C732.303225,23.1450178 732.515625,22.7304711 732.515625,22.2558594 C732.515625,21.9511704 732.42627,21.6918956 732.247559,21.4780273 C732.068847,21.2641591 731.756838,21.0781258 731.311523,20.9199219 C731.006834,20.8144526 730.312505,20.6269545 729.228516,20.3574219 C727.833977,20.011717 726.855472,19.5869166 726.292969,19.0830078 C725.501949,18.3740199 725.106445,17.5097707 725.106445,16.4902344 C725.106445,15.8339811 725.292479,15.2202177 725.664551,14.6489258 C726.036623,14.0776339 726.57275,13.6425796 727.272949,13.34375 C727.973148,13.0449204 728.818354,12.8955078 729.808594,12.8955078 C731.425789,12.8955078 732.643062,13.2499965 733.460449,13.9589844 C734.277836,14.6679723 734.707031,15.6142519 734.748047,16.7978516 L732.146484,16.9121094 C732.035156,16.2499967 731.796389,15.7739272 731.430176,15.4838867 C731.063963,15.1938462 730.514652,15.0488281 729.782227,15.0488281 C729.026363,15.0488281 728.434572,15.2041 728.006836,15.5146484 C727.731444,15.7138682 727.59375,15.9804671 727.59375,16.3144531 C727.59375,16.6191421 727.722655,16.8798817 727.980469,17.0966797 C728.308595,17.3720717 729.105462,17.6591782 730.371094,17.9580078 C731.636725,18.2568374 732.572751,18.5659164 733.179199,18.8852539 C733.785648,19.2045914 734.260252,19.6411105 734.603027,20.1948242 C734.945802,20.7485379 735.117188,21.4326131 735.117188,22.2470703 C735.117188,22.9853553 734.912111,23.6767546 734.501953,24.3212891 C734.091795,24.9658235 733.511723,25.4448227 732.761719,25.7583008 C732.011715,26.0717789 731.077154,26.2285156 729.958008,26.2285156 C728.329093,26.2285156 727.078129,25.8520545 726.205078,25.0991211 C725.332027,24.3461876 724.810548,23.2490306 724.640625,21.8076172 Z M739.133789,19.5136719 L736.892578,19.109375 C737.144533,18.2070267 737.578122,17.5390647 738.193359,17.1054688 C738.808597,16.6718728 739.72265,16.4550781 740.935547,16.4550781 C742.037115,16.4550781 742.857419,16.5854479 743.396484,16.8461914 C743.93555,17.1069349 744.31494,17.4379863 744.534668,17.8393555 C744.754396,18.2407247 744.864258,18.9775337 744.864258,20.0498047 L744.837891,22.9326172 C744.837891,23.7529338 744.877441,24.3579082 744.956543,24.7475586 C745.035645,25.137209 745.183593,25.5546853 745.400391,26 L742.957031,26 C742.892578,25.8359367 742.813477,25.592775 742.719727,25.2705078 C742.678711,25.1240227 742.649414,25.027344 742.631836,24.9804688 C742.209959,25.3906271 741.758791,25.6982412 741.27832,25.9033203 C740.797849,26.1083995 740.285159,26.2109375 739.740234,26.2109375 C738.779292,26.2109375 738.021975,25.9501979 737.468262,25.4287109 C736.914548,24.907224 736.637695,24.2480509 736.637695,23.4511719 C736.637695,22.9238255 736.763671,22.4536153 737.015625,22.0405273 C737.267579,21.6274393 737.620603,21.3110363 738.074707,21.0913086 C738.528811,20.8715809 739.183589,20.6796883 740.039062,20.515625 C741.193365,20.298827 741.993162,20.0966806 742.438477,19.9091797 L742.438477,19.6630859 C742.438477,19.1884742 742.32129,18.8500987 742.086914,18.6479492 C741.852538,18.4457998 741.41016,18.3447266 740.759766,18.3447266 C740.32031,18.3447266 739.97754,18.4311515 739.731445,18.6040039 C739.48535,18.7768563 739.286134,19.080076 739.133789,19.5136719 Z M742.438477,21.5175781 C742.122069,21.6230474 741.621097,21.7490227 740.935547,21.8955078 C740.249997,22.0419929 739.801759,22.1855462 739.59082,22.3261719 C739.268553,22.5546886 739.107422,22.8447248 739.107422,23.1962891 C739.107422,23.5419939 739.236327,23.8408191 739.494141,24.0927734 C739.751954,24.3447278 740.080076,24.4707031 740.478516,24.4707031 C740.92383,24.4707031 741.348631,24.3242202 741.75293,24.03125 C742.051759,23.8085926 742.248046,23.5361344 742.341797,23.2138672 C742.40625,23.0029286 742.438477,22.6015655 742.438477,22.0097656 L742.438477,21.5175781 Z M746.217773,16.6660156 L747.588867,16.6660156 L747.588867,15.9628906 C747.588867,15.1777304 747.672362,14.5917988 747.839355,14.2050781 C748.006348,13.8183574 748.313963,13.5034192 748.762207,13.2602539 C749.210451,13.0170886 749.77734,12.8955078 750.462891,12.8955078 C751.166019,12.8955078 751.854489,13.0009755 752.52832,13.2119141 L752.194336,14.9345703 C751.801756,14.8408198 751.42383,14.7939453 751.060547,14.7939453 C750.703123,14.7939453 750.446778,14.8774406 750.291504,15.0444336 C750.13623,15.2114266 750.058594,15.5322242 750.058594,16.0068359 L750.058594,16.6660156 L751.904297,16.6660156 L751.904297,18.6083984 L750.058594,18.6083984 L750.058594,26 L747.588867,26 L747.588867,18.6083984 L746.217773,18.6083984 L746.217773,16.6660156 Z M758.698242,23.0292969 L761.15918,23.4423828 C760.842772,24.3447311 760.343265,25.0317359 759.660645,25.503418 C758.978024,25.9751 758.124029,26.2109375 757.098633,26.2109375 C755.475578,26.2109375 754.274418,25.6806694 753.495117,24.6201172 C752.87988,23.7705036 752.572266,22.6982487 752.572266,21.4033203 C752.572266,19.8564376 752.976558,18.6450239 753.785156,17.769043 C754.593754,16.893062 755.616205,16.4550781 756.852539,16.4550781 C758.241218,16.4550781 759.33691,16.9135696 760.139648,17.8305664 C760.942387,18.7475632 761.326172,20.1523343 761.291016,22.0449219 L755.103516,22.0449219 C755.121094,22.7773474 755.320311,23.3471659 755.701172,23.7543945 C756.082033,24.1616231 756.556638,24.3652344 757.125,24.3652344 C757.511721,24.3652344 757.836913,24.2597667 758.100586,24.0488281 C758.364259,23.8378896 758.563476,23.4980492 758.698242,23.0292969 Z M758.838867,20.5332031 C758.821289,19.8183558 758.636721,19.2749042 758.285156,18.902832 C757.933592,18.5307599 757.505862,18.3447266 757.001953,18.3447266 C756.462888,18.3447266 756.01758,18.5410137 755.666016,18.9335938 C755.314451,19.3261738 755.141602,19.8593716 755.147461,20.5332031 L758.838867,20.5332031 Z M767.583984,16.6660156 L767.583984,18.6347656 L765.896484,18.6347656 L765.896484,22.3964844 C765.896484,23.1582069 765.912597,23.6020502 765.944824,23.7280273 C765.977051,23.8540045 766.050292,23.9580074 766.164551,24.0400391 C766.278809,24.1220707 766.417968,24.1630859 766.582031,24.1630859 C766.810548,24.1630859 767.141599,24.0839852 767.575195,23.9257812 L767.786133,25.8417969 C767.211911,26.0878919 766.561527,26.2109375 765.834961,26.2109375 C765.389646,26.2109375 764.988283,26.1362312 764.630859,25.9868164 C764.273436,25.8374016 764.011231,25.6440442 763.844238,25.4067383 C763.677245,25.1694324 763.561524,24.8486348 763.49707,24.4443359 C763.444336,24.1572251 763.417969,23.5771528 763.417969,22.7041016 L763.417969,18.6347656 L762.28418,18.6347656 L762.28418,16.6660156 L763.417969,16.6660156 L763.417969,14.8115234 L765.896484,13.3701172 L765.896484,16.6660156 L767.583984,16.6660156 Z M768.128906,16.6660156 L770.756836,16.6660156 L772.989258,23.2929688 L775.168945,16.6660156 L777.726562,16.6660156 L774.430664,25.6484375 L773.841797,27.2744141 C773.624999,27.8193387 773.418458,28.2353501 773.222168,28.5224609 C773.025878,28.8095717 772.800294,29.0424796 772.54541,29.2211914 C772.290526,29.3999032 771.977053,29.539062 771.60498,29.6386719 C771.232908,29.7382817 770.812502,29.7880859 770.34375,29.7880859 C769.869138,29.7880859 769.403323,29.7382817 768.946289,29.6386719 L768.726562,27.7050781 C769.113283,27.7812504 769.461913,27.8193359 769.772461,27.8193359 C770.346683,27.8193359 770.771483,27.6508806 771.046875,27.3139648 C771.322267,26.9770491 771.533202,26.5478542 771.679688,26.0263672 L768.128906,16.6660156 Z M784.248047,26 L784.248047,13.1152344 L786.849609,13.1152344 L786.849609,26 L784.248047,26 Z M792.615234,26 L788.009766,13.1152344 L790.831055,13.1152344 L794.091797,22.6513672 L797.24707,13.1152344 L800.006836,13.1152344 L795.392578,26 L792.615234,26 Z M809.578125,21.2626953 L812.100586,22.0625 C811.713865,23.468757 811.070805,24.5131802 810.171387,25.1958008 C809.271968,25.8784214 808.130866,26.2197266 806.748047,26.2197266 C805.037101,26.2197266 803.630865,25.6352598 802.529297,24.4663086 C801.427729,23.2973574 800.876953,21.6992289 800.876953,19.671875 C800.876953,17.527333 801.430659,15.8618223 802.538086,14.675293 C803.645513,13.4887636 805.101553,12.8955078 806.90625,12.8955078 C808.48243,12.8955078 809.76269,13.3613235 810.74707,14.2929688 C811.333011,14.8437528 811.772459,15.6347605 812.06543,16.6660156 L809.490234,17.28125 C809.33789,16.6132779 809.020022,16.0859394 808.536621,15.6992188 C808.05322,15.3124981 807.465824,15.1191406 806.774414,15.1191406 C805.819331,15.1191406 805.044437,15.4619106 804.449707,16.1474609 C803.854977,16.8330112 803.557617,17.9433517 803.557617,19.4785156 C803.557617,21.10743 803.850583,22.2675747 804.436523,22.9589844 C805.022464,23.6503941 805.784175,23.9960938 806.72168,23.9960938 C807.413089,23.9960938 808.00781,23.7763694 808.505859,23.3369141 C809.003909,22.8974587 809.361327,22.2060594 809.578125,21.2626953 Z M815.176758,19.0390625 L813.849609,18.0107422 C814.271486,17.5361304 814.710935,17.0820334 815.167969,16.6484375 C815.34961,16.4726554 815.463867,16.3613284 815.510742,16.3144531 C815.364257,16.2910155 814.945316,16.1943368 814.253906,16.0244141 C813.755857,15.9013666 813.427735,15.8105472 813.269531,15.7519531 L813.788086,14.2050781 C814.555668,14.5156266 815.241208,14.8583966 815.844727,15.2333984 C815.704101,14.2783155 815.633789,13.4990265 815.633789,12.8955078 L817.198242,12.8955078 C817.198242,13.3232443 817.119141,14.1083927 816.960938,15.2509766 C817.078126,15.2041013 817.330076,15.0898447 817.716797,14.9082031 C818.244143,14.6679675 818.730467,14.4628915 819.175781,14.2929688 L819.641602,15.8837891 C818.991208,16.0302742 818.238286,16.1738274 817.382812,16.3144531 L818.4375,17.5009766 C818.648439,17.7412121 818.815429,17.9374992 818.938477,18.0898438 L817.59375,18.9775391 L816.407227,17.0175781 C816.049803,17.6503938 815.639651,18.3242152 815.176758,19.0390625 Z" id="PortedNon-SafetyIVC*" fill="#373737" fill-rule="nonzero"></path>
            </g>
        </g>
    </g>
</svg>