<?xml version="1.0" encoding="UTF-8"?>
<svg width="924px" height="171px" viewBox="0 0 924 171" version="1.1" xmlns="http://www.w3.org/2000/svg" xmlns:xlink="http://www.w3.org/1999/xlink">
    <!-- Generator: Sketch 53.2 (72643) - https://sketchapp.com -->
    <title>Group</title>
    <desc>Created with Sketch.</desc>
    <g id="7.-Product-Comparison" stroke="none" stroke-width="1" fill="none" fill-rule="evenodd">
        <g id="Vasofix®-Standard" transform="translate(-56.000000, -184.000000)">
            <g id="Group" transform="translate(56.000000, 184.000000)">
                <polygon id="Rectangle" fill-opacity="0.75" fill="#00B482" points="300 0 601 0 601 171 300 171"></polygon>
                <text id="Yes-(Automatic/Passi" font-family="ArialMT, Arial" font-size="18" font-weight="normal" fill="#FFFFFF">
                    <tspan x="310" y="69">Yes (Automatic/Passive)</tspan>
                </text>
                <text id="No" font-family="ArialMT, Arial" font-size="18" font-weight="normal" fill="#373737">
                    <tspan x="621" y="69">No</tspan>
                </text>
                <text id="No-Anti-Bypass-Desig" font-family="ArialMT, Arial" font-size="18" font-weight="normal" fill="#373737">
                    <tspan x="621" y="112">No Anti-Bypass Design</tspan>
                </text>
                <text id="No" font-family="ArialMT, Arial" font-size="18" font-weight="normal" fill="#373737">
                    <tspan x="621" y="155">No</tspan>
                </text>
                <text id="Anti-Bypass-Design" font-family="ArialMT, Arial" font-size="18" font-weight="normal" fill="#FFFFFF">
                    <tspan x="310" y="112">Anti-Bypass Design</tspan>
                </text>
                <text id="Yes" font-family="ArialMT, Arial" font-size="18" font-weight="normal" fill="#FFFFFF">
                    <tspan x="310" y="155">Yes</tspan>
                </text>
                <text id="Safety-Mechanism" font-family="ArialMT, Arial" font-size="18" font-weight="normal" fill="#373737">
                    <tspan x="0" y="69">Safety Mechanism</tspan>
                </text>
                <text id="Anti-Bypass-Design" font-family="ArialMT, Arial" font-size="18" font-weight="normal" fill="#373737">
                    <tspan x="1" y="112">Anti-Bypass Design</tspan>
                </text>
                <text id="Color-Coded-Blister" font-family="ArialMT, Arial" font-size="18" font-weight="normal" fill="#373737">
                    <tspan x="1" y="155">Color Coded Blister Packaging</tspan>
                </text>
                <path d="M0.5,84.5 L911.59275,84.5" id="Line" stroke="#FFFFFF" stroke-linecap="square"></path>
                <path d="M0.5,127.5 L911.59275,127.5" id="Line" stroke="#FFFFFF" stroke-linecap="square"></path>
                <path d="M0.5,41.5 L911.59275,41.5" id="Line" stroke="#FFFFFF" stroke-linecap="square"></path>
                <path d="M316.59668,26 L311.991211,13.1152344 L314.8125,13.1152344 L318.073242,22.6513672 L321.228516,13.1152344 L323.988281,13.1152344 L319.374023,26 L316.59668,26 Z M326.150391,19.5136719 L323.90918,19.109375 C324.161134,18.2070267 324.594723,17.5390647 325.209961,17.1054688 C325.825198,16.6718728 326.739252,16.4550781 327.952148,16.4550781 C329.053716,16.4550781 329.874021,16.5854479 330.413086,16.8461914 C330.952151,17.1069349 331.331542,17.4379863 331.55127,17.8393555 C331.770997,18.2407247 331.880859,18.9775337 331.880859,20.0498047 L331.854492,22.9326172 C331.854492,23.7529338 331.894043,24.3579082 331.973145,24.7475586 C332.052246,25.137209 332.200194,25.5546853 332.416992,26 L329.973633,26 C329.909179,25.8359367 329.830079,25.592775 329.736328,25.2705078 C329.695312,25.1240227 329.666016,25.027344 329.648438,24.9804688 C329.22656,25.3906271 328.775393,25.6982412 328.294922,25.9033203 C327.814451,26.1083995 327.301761,26.2109375 326.756836,26.2109375 C325.795894,26.2109375 325.038577,25.9501979 324.484863,25.4287109 C323.93115,24.907224 323.654297,24.2480509 323.654297,23.4511719 C323.654297,22.9238255 323.780272,22.4536153 324.032227,22.0405273 C324.284181,21.6274393 324.637205,21.3110363 325.091309,21.0913086 C325.545412,20.8715809 326.200191,20.6796883 327.055664,20.515625 C328.209967,20.298827 329.009763,20.0966806 329.455078,19.9091797 L329.455078,19.6630859 C329.455078,19.1884742 329.337892,18.8500987 329.103516,18.6479492 C328.869139,18.4457998 328.426761,18.3447266 327.776367,18.3447266 C327.336912,18.3447266 326.994142,18.4311515 326.748047,18.6040039 C326.501952,18.7768563 326.302735,19.080076 326.150391,19.5136719 Z M329.455078,21.5175781 C329.13867,21.6230474 328.637699,21.7490227 327.952148,21.8955078 C327.266598,22.0419929 326.81836,22.1855462 326.607422,22.3261719 C326.285155,22.5546886 326.124023,22.8447248 326.124023,23.1962891 C326.124023,23.5419939 326.252928,23.8408191 326.510742,24.0927734 C326.768556,24.3447278 327.096678,24.4707031 327.495117,24.4707031 C327.940432,24.4707031 328.365232,24.3242202 328.769531,24.03125 C329.068361,23.8085926 329.264648,23.5361344 329.358398,23.2138672 C329.422852,23.0029286 329.455078,22.6015655 329.455078,22.0097656 L329.455078,21.5175781 Z M333.445312,23.3369141 L335.923828,22.9589844 C336.029297,23.4394555 336.243162,23.804198 336.56543,24.0532227 C336.887697,24.3022473 337.338864,24.4267578 337.918945,24.4267578 C338.55762,24.4267578 339.038084,24.3095715 339.360352,24.0751953 C339.57715,23.911132 339.685547,23.6914076 339.685547,23.4160156 C339.685547,23.2285147 339.626954,23.0732428 339.509766,22.9501953 C339.386718,22.8330072 339.11133,22.7246099 338.683594,22.625 C336.691396,22.1855447 335.428714,21.7841815 334.895508,21.4208984 C334.157223,20.9169897 333.788086,20.2168014 333.788086,19.3203125 C333.788086,18.5117147 334.107419,17.832034 334.746094,17.28125 C335.384769,16.730466 336.374993,16.4550781 337.716797,16.4550781 C338.994147,16.4550781 339.943356,16.6630839 340.564453,17.0791016 C341.18555,17.4951193 341.61328,18.1103475 341.847656,18.9248047 L339.518555,19.3554688 C339.418945,18.9921857 339.229982,18.7138682 338.95166,18.5205078 C338.673338,18.3271475 338.27637,18.2304688 337.760742,18.2304688 C337.110348,18.2304688 336.644533,18.3212882 336.363281,18.5029297 C336.17578,18.6318366 336.082031,18.7988271 336.082031,19.0039062 C336.082031,19.1796884 336.164062,19.3291009 336.328125,19.4521484 C336.550782,19.6162118 337.319818,19.8476548 338.635254,20.1464844 C339.95069,20.445314 340.869138,20.8115213 341.390625,21.2451172 C341.906253,21.6845725 342.164062,22.2968711 342.164062,23.0820312 C342.164062,23.9375043 341.806644,24.6728485 341.091797,25.2880859 C340.37695,25.9033234 339.319343,26.2109375 337.918945,26.2109375 C336.647455,26.2109375 335.641117,25.9531276 334.899902,25.4375 C334.158688,24.9218724 333.673829,24.2216841 333.445312,23.3369141 Z M343.754883,21.2011719 C343.754883,20.3808553 343.957029,19.5869179 344.361328,18.8193359 C344.765627,18.051754 345.338375,17.4658223 346.07959,17.0615234 C346.820804,16.6572245 347.648433,16.4550781 348.5625,16.4550781 C349.974616,16.4550781 351.131831,16.9135696 352.03418,17.8305664 C352.936528,18.7475632 353.387695,19.906243 353.387695,21.3066406 C353.387695,22.7187571 352.932133,23.8891555 352.020996,24.8178711 C351.109859,25.7465867 349.962898,26.2109375 348.580078,26.2109375 C347.724605,26.2109375 346.908695,26.0175801 346.132324,25.6308594 C345.355953,25.2441387 344.765627,24.6772498 344.361328,23.9301758 C343.957029,23.1831017 343.754883,22.2734429 343.754883,21.2011719 Z M346.286133,21.3330078 C346.286133,22.2587937 346.505857,22.967771 346.945312,23.4599609 C347.384768,23.9521509 347.926755,24.1982422 348.571289,24.1982422 C349.215824,24.1982422 349.756345,23.9521509 350.192871,23.4599609 C350.629397,22.967771 350.847656,22.2529344 350.847656,21.3154297 C350.847656,20.4013626 350.629397,19.6982446 350.192871,19.2060547 C349.756345,18.7138647 349.215824,18.4677734 348.571289,18.4677734 C347.926755,18.4677734 347.384768,18.7138647 346.945312,19.2060547 C346.505857,19.6982446 346.286133,20.4072219 346.286133,21.3330078 Z M354.240234,16.6660156 L355.611328,16.6660156 L355.611328,15.9628906 C355.611328,15.1777304 355.694823,14.5917988 355.861816,14.2050781 C356.028809,13.8183574 356.336424,13.5034192 356.784668,13.2602539 C357.232912,13.0170886 357.799801,12.8955078 358.485352,12.8955078 C359.18848,12.8955078 359.87695,13.0009755 360.550781,13.2119141 L360.216797,14.9345703 C359.824217,14.8408198 359.446291,14.7939453 359.083008,14.7939453 C358.725584,14.7939453 358.469239,14.8774406 358.313965,15.0444336 C358.158691,15.2114266 358.081055,15.5322242 358.081055,16.0068359 L358.081055,16.6660156 L359.926758,16.6660156 L359.926758,18.6083984 L358.081055,18.6083984 L358.081055,26 L355.611328,26 L355.611328,18.6083984 L354.240234,18.6083984 L354.240234,16.6660156 Z M361.31543,15.4003906 L361.31543,13.1152344 L363.785156,13.1152344 L363.785156,15.4003906 L361.31543,15.4003906 Z M361.31543,26 L361.31543,16.6660156 L363.785156,16.6660156 L363.785156,26 L361.31543,26 Z M365.129883,26 L368.496094,21.1923828 L365.270508,16.6660156 L368.285156,16.6660156 L369.9375,19.2324219 L371.677734,16.6660156 L374.578125,16.6660156 L371.414062,21.0869141 L374.868164,26 L371.835938,26 L369.9375,23.1083984 L368.021484,26 L365.129883,26 Z M380.209961,8.7734375 C381.107752,8.7734375 381.969071,8.99788187 382.793945,9.44677734 C383.618819,9.89567282 384.267087,10.5393838 384.73877,11.3779297 C385.210452,12.2164755 385.446289,13.0937454 385.446289,14.0097656 C385.446289,14.9212285 385.215009,15.7905232 384.752441,16.6176758 C384.289874,17.4448284 383.645024,18.0896787 382.817871,18.5522461 C381.990719,19.0148135 381.121424,19.2460938 380.209961,19.2460938 C379.298498,19.2460938 378.429203,19.0148135 377.602051,18.5522461 C376.774898,18.0896787 376.130048,17.4448284 375.66748,16.6176758 C375.204913,15.7905232 374.973633,14.9212285 374.973633,14.0097656 C374.973633,13.0937454 375.20947,12.2164755 375.681152,11.3779297 C376.152834,10.5393838 376.801103,9.89567282 377.625977,9.44677734 C378.45085,8.99788187 379.31217,8.7734375 380.209961,8.7734375 Z M380.216797,9.79882812 C379.496741,9.79882812 378.806318,9.97883935 378.145508,10.3388672 C377.484697,10.698895 376.964032,11.2161425 376.583496,11.890625 C376.20296,12.5651075 376.012695,13.2714807 376.012695,14.0097656 C376.012695,14.7434933 376.198403,15.4430305 376.569824,16.1083984 C376.941245,16.7737663 377.459632,17.2932924 378.125,17.6669922 C378.790368,18.040692 379.487627,18.2275391 380.216797,18.2275391 C380.950525,18.2275391 381.648922,18.040692 382.312012,17.6669922 C382.975101,17.2932924 383.493488,16.7737663 383.867188,16.1083984 C384.240887,15.4430305 384.427734,14.7434933 384.427734,14.0097656 C384.427734,13.2714807 384.237469,12.5651075 383.856934,11.890625 C383.476398,11.2161425 382.954593,10.698895 382.291504,10.3388672 C381.628415,9.97883935 380.936853,9.79882812 380.216797,9.79882812 Z M380.858665,14.381233 C381.024308,14.4443973 381.152148,14.5131198 381.242188,14.5874023 C381.333334,14.662598 381.458658,14.805012 381.618164,15.0146484 C381.65918,15.0693362 381.795897,15.2949199 382.02832,15.6914062 L382.68457,16.8125 L381.290039,16.8125 L380.825195,15.9101562 C380.510741,15.3040334 380.250978,14.9223641 380.045898,14.7651367 C379.840819,14.6079094 379.581056,14.5292969 379.266602,14.5292969 L378.972656,14.5292969 L378.972656,16.8125 L377.844727,16.8125 L377.844727,11.2548828 L378.972656,11.2548828 C380.029953,11.2548828 380.622395,11.2594401 380.75,11.2685547 C381.1237,11.3004559 381.414224,11.3745111 381.621582,11.4907227 C381.82894,11.6069342 382.002115,11.7846668 382.141113,12.0239258 C382.280111,12.2631848 382.349609,12.5286444 382.349609,12.8203125 C382.349609,13.2213562 382.218589,13.5642889 381.956543,13.8491211 C381.6945,14.1339509 381.326506,14.3105437 380.852551,14.3789046 L380.858665,14.381233 Z M378.972656,13.6542969 L379.430664,13.6542969 C380.08236,13.6542969 380.486816,13.629232 380.644043,13.5791016 C380.80127,13.5289711 380.925455,13.4412441 381.016602,13.315918 C381.107748,13.1905918 381.15332,13.0481779 381.15332,12.8886719 C381.15332,12.7337232 381.108887,12.5958665 381.02002,12.4750977 C380.931152,12.3543288 380.804688,12.2677411 380.640625,12.215332 C380.476562,12.1629229 380.073245,12.1367188 379.430664,12.1367188 L378.972656,12.1367188 L378.972656,13.6542969 Z M391.001953,21.8076172 L393.533203,21.5615234 C393.685548,22.4111371 393.994627,23.0351543 394.460449,23.4335938 C394.926272,23.8320332 395.554684,24.03125 396.345703,24.03125 C397.183598,24.03125 397.814939,23.8540057 398.239746,23.4995117 C398.664553,23.1450178 398.876953,22.7304711 398.876953,22.2558594 C398.876953,21.9511704 398.787599,21.6918956 398.608887,21.4780273 C398.430175,21.2641591 398.118166,21.0781258 397.672852,20.9199219 C397.368163,20.8144526 396.673834,20.6269545 395.589844,20.3574219 C394.195306,20.011717 393.2168,19.5869166 392.654297,19.0830078 C391.863277,18.3740199 391.467773,17.5097707 391.467773,16.4902344 C391.467773,15.8339811 391.653807,15.2202177 392.025879,14.6489258 C392.397951,14.0776339 392.934079,13.6425796 393.634277,13.34375 C394.334476,13.0449204 395.179683,12.8955078 396.169922,12.8955078 C397.787117,12.8955078 399.00439,13.2499965 399.821777,13.9589844 C400.639164,14.6679723 401.068359,15.6142519 401.109375,16.7978516 L398.507812,16.9121094 C398.396484,16.2499967 398.157717,15.7739272 397.791504,15.4838867 C397.425291,15.1938462 396.87598,15.0488281 396.143555,15.0488281 C395.387692,15.0488281 394.795901,15.2041 394.368164,15.5146484 C394.092772,15.7138682 393.955078,15.9804671 393.955078,16.3144531 C393.955078,16.6191421 394.083983,16.8798817 394.341797,17.0966797 C394.669924,17.3720717 395.466791,17.6591782 396.732422,17.9580078 C397.998053,18.2568374 398.934079,18.5659164 399.540527,18.8852539 C400.146976,19.2045914 400.62158,19.6411105 400.964355,20.1948242 C401.307131,20.7485379 401.478516,21.4326131 401.478516,22.2470703 C401.478516,22.9853553 401.27344,23.6767546 400.863281,24.3212891 C400.453123,24.9658235 399.873051,25.4448227 399.123047,25.7583008 C398.373043,26.0717789 397.438482,26.2285156 396.319336,26.2285156 C394.690422,26.2285156 393.439457,25.8520545 392.566406,25.0991211 C391.693355,24.3461876 391.171876,23.2490306 391.001953,21.8076172 Z M405.495117,19.5136719 L403.253906,19.109375 C403.505861,18.2070267 403.93945,17.5390647 404.554688,17.1054688 C405.169925,16.6718728 406.083978,16.4550781 407.296875,16.4550781 C408.398443,16.4550781 409.218747,16.5854479 409.757812,16.8461914 C410.296878,17.1069349 410.676268,17.4379863 410.895996,17.8393555 C411.115724,18.2407247 411.225586,18.9775337 411.225586,20.0498047 L411.199219,22.9326172 C411.199219,23.7529338 411.238769,24.3579082 411.317871,24.7475586 C411.396973,25.137209 411.544921,25.5546853 411.761719,26 L409.318359,26 C409.253906,25.8359367 409.174805,25.592775 409.081055,25.2705078 C409.040039,25.1240227 409.010742,25.027344 408.993164,24.9804688 C408.571287,25.3906271 408.12012,25.6982412 407.639648,25.9033203 C407.159177,26.1083995 406.646487,26.2109375 406.101562,26.2109375 C405.14062,26.2109375 404.383304,25.9501979 403.82959,25.4287109 C403.275876,24.907224 402.999023,24.2480509 402.999023,23.4511719 C402.999023,22.9238255 403.124999,22.4536153 403.376953,22.0405273 C403.628908,21.6274393 403.981931,21.3110363 404.436035,21.0913086 C404.890139,20.8715809 405.544918,20.6796883 406.400391,20.515625 C407.554693,20.298827 408.35449,20.0966806 408.799805,19.9091797 L408.799805,19.6630859 C408.799805,19.1884742 408.682618,18.8500987 408.448242,18.6479492 C408.213866,18.4457998 407.771488,18.3447266 407.121094,18.3447266 C406.681638,18.3447266 406.338868,18.4311515 406.092773,18.6040039 C405.846678,18.7768563 405.647462,19.080076 405.495117,19.5136719 Z M408.799805,21.5175781 C408.483397,21.6230474 407.982425,21.7490227 407.296875,21.8955078 C406.611325,22.0419929 406.163087,22.1855462 405.952148,22.3261719 C405.629881,22.5546886 405.46875,22.8447248 405.46875,23.1962891 C405.46875,23.5419939 405.597655,23.8408191 405.855469,24.0927734 C406.113283,24.3447278 406.441404,24.4707031 406.839844,24.4707031 C407.285158,24.4707031 407.709959,24.3242202 408.114258,24.03125 C408.413087,23.8085926 408.609375,23.5361344 408.703125,23.2138672 C408.767578,23.0029286 408.799805,22.6015655 408.799805,22.0097656 L408.799805,21.5175781 Z M412.579102,16.6660156 L413.950195,16.6660156 L413.950195,15.9628906 C413.950195,15.1777304 414.033691,14.5917988 414.200684,14.2050781 C414.367677,13.8183574 414.675291,13.5034192 415.123535,13.2602539 C415.57178,13.0170886 416.138668,12.8955078 416.824219,12.8955078 C417.527347,12.8955078 418.215817,13.0009755 418.889648,13.2119141 L418.555664,14.9345703 C418.163084,14.8408198 417.785158,14.7939453 417.421875,14.7939453 C417.064451,14.7939453 416.808106,14.8774406 416.652832,15.0444336 C416.497558,15.2114266 416.419922,15.5322242 416.419922,16.0068359 L416.419922,16.6660156 L418.265625,16.6660156 L418.265625,18.6083984 L416.419922,18.6083984 L416.419922,26 L413.950195,26 L413.950195,18.6083984 L412.579102,18.6083984 L412.579102,16.6660156 Z M425.05957,23.0292969 L427.520508,23.4423828 C427.2041,24.3447311 426.704593,25.0317359 426.021973,25.503418 C425.339352,25.9751 424.485357,26.2109375 423.459961,26.2109375 C421.836906,26.2109375 420.635746,25.6806694 419.856445,24.6201172 C419.241208,23.7705036 418.933594,22.6982487 418.933594,21.4033203 C418.933594,19.8564376 419.337887,18.6450239 420.146484,17.769043 C420.955082,16.893062 421.977533,16.4550781 423.213867,16.4550781 C424.602546,16.4550781 425.698238,16.9135696 426.500977,17.8305664 C427.303715,18.7475632 427.6875,20.1523343 427.652344,22.0449219 L421.464844,22.0449219 C421.482422,22.7773474 421.681639,23.3471659 422.0625,23.7543945 C422.443361,24.1616231 422.917966,24.3652344 423.486328,24.3652344 C423.873049,24.3652344 424.198241,24.2597667 424.461914,24.0488281 C424.725587,23.8378896 424.924804,23.4980492 425.05957,23.0292969 Z M425.200195,20.5332031 C425.182617,19.8183558 424.998049,19.2749042 424.646484,18.902832 C424.29492,18.5307599 423.86719,18.3447266 423.363281,18.3447266 C422.824216,18.3447266 422.378908,18.5410137 422.027344,18.9335938 C421.675779,19.3261738 421.50293,19.8593716 421.508789,20.5332031 L425.200195,20.5332031 Z M433.945312,16.6660156 L433.945312,18.6347656 L432.257812,18.6347656 L432.257812,22.3964844 C432.257812,23.1582069 432.273926,23.6020502 432.306152,23.7280273 C432.338379,23.8540045 432.411621,23.9580074 432.525879,24.0400391 C432.640137,24.1220707 432.779296,24.1630859 432.943359,24.1630859 C433.171876,24.1630859 433.502928,24.0839852 433.936523,23.9257812 L434.147461,25.8417969 C433.573239,26.0878919 432.922855,26.2109375 432.196289,26.2109375 C431.750974,26.2109375 431.349611,26.1362312 430.992188,25.9868164 C430.634764,25.8374016 430.372559,25.6440442 430.205566,25.4067383 C430.038573,25.1694324 429.922852,24.8486348 429.858398,24.4443359 C429.805664,24.1572251 429.779297,23.5771528 429.779297,22.7041016 L429.779297,18.6347656 L428.645508,18.6347656 L428.645508,16.6660156 L429.779297,16.6660156 L429.779297,14.8115234 L432.257812,13.3701172 L432.257812,16.6660156 L433.945312,16.6660156 Z M434.490234,16.6660156 L437.118164,16.6660156 L439.350586,23.2929688 L441.530273,16.6660156 L444.087891,16.6660156 L440.791992,25.6484375 L440.203125,27.2744141 C439.986327,27.8193387 439.779786,28.2353501 439.583496,28.5224609 C439.387206,28.8095717 439.161622,29.0424796 438.906738,29.2211914 C438.651854,29.3999032 438.338381,29.539062 437.966309,29.6386719 C437.594236,29.7382817 437.17383,29.7880859 436.705078,29.7880859 C436.230466,29.7880859 435.764651,29.7382817 435.307617,29.6386719 L435.087891,27.7050781 C435.474611,27.7812504 435.823241,27.8193359 436.133789,27.8193359 C436.708011,27.8193359 437.132811,27.6508806 437.408203,27.3139648 C437.683595,26.9770491 437.894531,26.5478542 438.041016,26.0263672 L434.490234,16.6660156 Z" id="Vasofix®Safety" fill="#FFFFFF" fill-rule="nonzero"></path>
                <path d="M625.59668,26 L620.991211,13.1152344 L623.8125,13.1152344 L627.073242,22.6513672 L630.228516,13.1152344 L632.988281,13.1152344 L628.374023,26 L625.59668,26 Z M635.150391,19.5136719 L632.90918,19.109375 C633.161134,18.2070267 633.594723,17.5390647 634.209961,17.1054688 C634.825198,16.6718728 635.739252,16.4550781 636.952148,16.4550781 C638.053716,16.4550781 638.874021,16.5854479 639.413086,16.8461914 C639.952151,17.1069349 640.331542,17.4379863 640.55127,17.8393555 C640.770997,18.2407247 640.880859,18.9775337 640.880859,20.0498047 L640.854492,22.9326172 C640.854492,23.7529338 640.894043,24.3579082 640.973145,24.7475586 C641.052246,25.137209 641.200194,25.5546853 641.416992,26 L638.973633,26 C638.909179,25.8359367 638.830079,25.592775 638.736328,25.2705078 C638.695312,25.1240227 638.666016,25.027344 638.648438,24.9804688 C638.22656,25.3906271 637.775393,25.6982412 637.294922,25.9033203 C636.814451,26.1083995 636.301761,26.2109375 635.756836,26.2109375 C634.795894,26.2109375 634.038577,25.9501979 633.484863,25.4287109 C632.93115,24.907224 632.654297,24.2480509 632.654297,23.4511719 C632.654297,22.9238255 632.780272,22.4536153 633.032227,22.0405273 C633.284181,21.6274393 633.637205,21.3110363 634.091309,21.0913086 C634.545412,20.8715809 635.200191,20.6796883 636.055664,20.515625 C637.209967,20.298827 638.009763,20.0966806 638.455078,19.9091797 L638.455078,19.6630859 C638.455078,19.1884742 638.337892,18.8500987 638.103516,18.6479492 C637.869139,18.4457998 637.426761,18.3447266 636.776367,18.3447266 C636.336912,18.3447266 635.994142,18.4311515 635.748047,18.6040039 C635.501952,18.7768563 635.302735,19.080076 635.150391,19.5136719 Z M638.455078,21.5175781 C638.13867,21.6230474 637.637699,21.7490227 636.952148,21.8955078 C636.266598,22.0419929 635.81836,22.1855462 635.607422,22.3261719 C635.285155,22.5546886 635.124023,22.8447248 635.124023,23.1962891 C635.124023,23.5419939 635.252928,23.8408191 635.510742,24.0927734 C635.768556,24.3447278 636.096678,24.4707031 636.495117,24.4707031 C636.940432,24.4707031 637.365232,24.3242202 637.769531,24.03125 C638.068361,23.8085926 638.264648,23.5361344 638.358398,23.2138672 C638.422852,23.0029286 638.455078,22.6015655 638.455078,22.0097656 L638.455078,21.5175781 Z M642.445312,23.3369141 L644.923828,22.9589844 C645.029297,23.4394555 645.243162,23.804198 645.56543,24.0532227 C645.887697,24.3022473 646.338864,24.4267578 646.918945,24.4267578 C647.55762,24.4267578 648.038084,24.3095715 648.360352,24.0751953 C648.57715,23.911132 648.685547,23.6914076 648.685547,23.4160156 C648.685547,23.2285147 648.626954,23.0732428 648.509766,22.9501953 C648.386718,22.8330072 648.11133,22.7246099 647.683594,22.625 C645.691396,22.1855447 644.428714,21.7841815 643.895508,21.4208984 C643.157223,20.9169897 642.788086,20.2168014 642.788086,19.3203125 C642.788086,18.5117147 643.107419,17.832034 643.746094,17.28125 C644.384769,16.730466 645.374993,16.4550781 646.716797,16.4550781 C647.994147,16.4550781 648.943356,16.6630839 649.564453,17.0791016 C650.18555,17.4951193 650.61328,18.1103475 650.847656,18.9248047 L648.518555,19.3554688 C648.418945,18.9921857 648.229982,18.7138682 647.95166,18.5205078 C647.673338,18.3271475 647.27637,18.2304688 646.760742,18.2304688 C646.110348,18.2304688 645.644533,18.3212882 645.363281,18.5029297 C645.17578,18.6318366 645.082031,18.7988271 645.082031,19.0039062 C645.082031,19.1796884 645.164062,19.3291009 645.328125,19.4521484 C645.550782,19.6162118 646.319818,19.8476548 647.635254,20.1464844 C648.95069,20.445314 649.869138,20.8115213 650.390625,21.2451172 C650.906253,21.6845725 651.164062,22.2968711 651.164062,23.0820312 C651.164062,23.9375043 650.806644,24.6728485 650.091797,25.2880859 C649.37695,25.9033234 648.319343,26.2109375 646.918945,26.2109375 C645.647455,26.2109375 644.641117,25.9531276 643.899902,25.4375 C643.158688,24.9218724 642.673829,24.2216841 642.445312,23.3369141 Z M652.754883,21.2011719 C652.754883,20.3808553 652.957029,19.5869179 653.361328,18.8193359 C653.765627,18.051754 654.338375,17.4658223 655.07959,17.0615234 C655.820804,16.6572245 656.648433,16.4550781 657.5625,16.4550781 C658.974616,16.4550781 660.131831,16.9135696 661.03418,17.8305664 C661.936528,18.7475632 662.387695,19.906243 662.387695,21.3066406 C662.387695,22.7187571 661.932133,23.8891555 661.020996,24.8178711 C660.109859,25.7465867 658.962898,26.2109375 657.580078,26.2109375 C656.724605,26.2109375 655.908695,26.0175801 655.132324,25.6308594 C654.355953,25.2441387 653.765627,24.6772498 653.361328,23.9301758 C652.957029,23.1831017 652.754883,22.2734429 652.754883,21.2011719 Z M655.286133,21.3330078 C655.286133,22.2587937 655.505857,22.967771 655.945312,23.4599609 C656.384768,23.9521509 656.926755,24.1982422 657.571289,24.1982422 C658.215824,24.1982422 658.756345,23.9521509 659.192871,23.4599609 C659.629397,22.967771 659.847656,22.2529344 659.847656,21.3154297 C659.847656,20.4013626 659.629397,19.6982446 659.192871,19.2060547 C658.756345,18.7138647 658.215824,18.4677734 657.571289,18.4677734 C656.926755,18.4677734 656.384768,18.7138647 655.945312,19.2060547 C655.505857,19.6982446 655.286133,20.4072219 655.286133,21.3330078 Z M663.240234,16.6660156 L664.611328,16.6660156 L664.611328,15.9628906 C664.611328,15.1777304 664.694823,14.5917988 664.861816,14.2050781 C665.028809,13.8183574 665.336424,13.5034192 665.784668,13.2602539 C666.232912,13.0170886 666.799801,12.8955078 667.485352,12.8955078 C668.18848,12.8955078 668.87695,13.0009755 669.550781,13.2119141 L669.216797,14.9345703 C668.824217,14.8408198 668.446291,14.7939453 668.083008,14.7939453 C667.725584,14.7939453 667.469239,14.8774406 667.313965,15.0444336 C667.158691,15.2114266 667.081055,15.5322242 667.081055,16.0068359 L667.081055,16.6660156 L668.926758,16.6660156 L668.926758,18.6083984 L667.081055,18.6083984 L667.081055,26 L664.611328,26 L664.611328,18.6083984 L663.240234,18.6083984 L663.240234,16.6660156 Z M670.31543,15.4003906 L670.31543,13.1152344 L672.785156,13.1152344 L672.785156,15.4003906 L670.31543,15.4003906 Z M670.31543,26 L670.31543,16.6660156 L672.785156,16.6660156 L672.785156,26 L670.31543,26 Z M674.129883,26 L677.496094,21.1923828 L674.270508,16.6660156 L677.285156,16.6660156 L678.9375,19.2324219 L680.677734,16.6660156 L683.578125,16.6660156 L680.414062,21.0869141 L683.868164,26 L680.835938,26 L678.9375,23.1083984 L677.021484,26 L674.129883,26 Z M689.209961,8.7734375 C690.107752,8.7734375 690.969071,8.99788187 691.793945,9.44677734 C692.618819,9.89567282 693.267087,10.5393838 693.73877,11.3779297 C694.210452,12.2164755 694.446289,13.0937454 694.446289,14.0097656 C694.446289,14.9212285 694.215009,15.7905232 693.752441,16.6176758 C693.289874,17.4448284 692.645024,18.0896787 691.817871,18.5522461 C690.990719,19.0148135 690.121424,19.2460938 689.209961,19.2460938 C688.298498,19.2460938 687.429203,19.0148135 686.602051,18.5522461 C685.774898,18.0896787 685.130048,17.4448284 684.66748,16.6176758 C684.204913,15.7905232 683.973633,14.9212285 683.973633,14.0097656 C683.973633,13.0937454 684.20947,12.2164755 684.681152,11.3779297 C685.152834,10.5393838 685.801103,9.89567282 686.625977,9.44677734 C687.45085,8.99788187 688.31217,8.7734375 689.209961,8.7734375 Z M689.216797,9.79882812 C688.496741,9.79882812 687.806318,9.97883935 687.145508,10.3388672 C686.484697,10.698895 685.964032,11.2161425 685.583496,11.890625 C685.20296,12.5651075 685.012695,13.2714807 685.012695,14.0097656 C685.012695,14.7434933 685.198403,15.4430305 685.569824,16.1083984 C685.941245,16.7737663 686.459632,17.2932924 687.125,17.6669922 C687.790368,18.040692 688.487627,18.2275391 689.216797,18.2275391 C689.950525,18.2275391 690.648922,18.040692 691.312012,17.6669922 C691.975101,17.2932924 692.493488,16.7737663 692.867188,16.1083984 C693.240887,15.4430305 693.427734,14.7434933 693.427734,14.0097656 C693.427734,13.2714807 693.237469,12.5651075 692.856934,11.890625 C692.476398,11.2161425 691.954593,10.698895 691.291504,10.3388672 C690.628415,9.97883935 689.936853,9.79882812 689.216797,9.79882812 Z M689.858665,14.381233 C690.024308,14.4443973 690.152148,14.5131198 690.242188,14.5874023 C690.333334,14.662598 690.458658,14.805012 690.618164,15.0146484 C690.65918,15.0693362 690.795897,15.2949199 691.02832,15.6914062 L691.68457,16.8125 L690.290039,16.8125 L689.825195,15.9101562 C689.510741,15.3040334 689.250978,14.9223641 689.045898,14.7651367 C688.840819,14.6079094 688.581056,14.5292969 688.266602,14.5292969 L687.972656,14.5292969 L687.972656,16.8125 L686.844727,16.8125 L686.844727,11.2548828 L687.972656,11.2548828 C689.029953,11.2548828 689.622395,11.2594401 689.75,11.2685547 C690.1237,11.3004559 690.414224,11.3745111 690.621582,11.4907227 C690.82894,11.6069342 691.002115,11.7846668 691.141113,12.0239258 C691.280111,12.2631848 691.349609,12.5286444 691.349609,12.8203125 C691.349609,13.2213562 691.218589,13.5642889 690.956543,13.8491211 C690.6945,14.1339509 690.326506,14.3105437 689.852551,14.3789046 L689.858665,14.381233 Z M687.972656,13.6542969 L688.430664,13.6542969 C689.08236,13.6542969 689.486816,13.629232 689.644043,13.5791016 C689.80127,13.5289711 689.925455,13.4412441 690.016602,13.315918 C690.107748,13.1905918 690.15332,13.0481779 690.15332,12.8886719 C690.15332,12.7337232 690.108887,12.5958665 690.02002,12.4750977 C689.931152,12.3543288 689.804688,12.2677411 689.640625,12.215332 C689.476562,12.1629229 689.073245,12.1367188 688.430664,12.1367188 L687.972656,12.1367188 L687.972656,13.6542969 Z M700.001953,21.8076172 L702.533203,21.5615234 C702.685548,22.4111371 702.994627,23.0351543 703.460449,23.4335938 C703.926272,23.8320332 704.554684,24.03125 705.345703,24.03125 C706.183598,24.03125 706.814939,23.8540057 707.239746,23.4995117 C707.664553,23.1450178 707.876953,22.7304711 707.876953,22.2558594 C707.876953,21.9511704 707.787599,21.6918956 707.608887,21.4780273 C707.430175,21.2641591 707.118166,21.0781258 706.672852,20.9199219 C706.368163,20.8144526 705.673834,20.6269545 704.589844,20.3574219 C703.195306,20.011717 702.2168,19.5869166 701.654297,19.0830078 C700.863277,18.3740199 700.467773,17.5097707 700.467773,16.4902344 C700.467773,15.8339811 700.653807,15.2202177 701.025879,14.6489258 C701.397951,14.0776339 701.934079,13.6425796 702.634277,13.34375 C703.334476,13.0449204 704.179683,12.8955078 705.169922,12.8955078 C706.787117,12.8955078 708.00439,13.2499965 708.821777,13.9589844 C709.639164,14.6679723 710.068359,15.6142519 710.109375,16.7978516 L707.507812,16.9121094 C707.396484,16.2499967 707.157717,15.7739272 706.791504,15.4838867 C706.425291,15.1938462 705.87598,15.0488281 705.143555,15.0488281 C704.387692,15.0488281 703.795901,15.2041 703.368164,15.5146484 C703.092772,15.7138682 702.955078,15.9804671 702.955078,16.3144531 C702.955078,16.6191421 703.083983,16.8798817 703.341797,17.0966797 C703.669924,17.3720717 704.466791,17.6591782 705.732422,17.9580078 C706.998053,18.2568374 707.934079,18.5659164 708.540527,18.8852539 C709.146976,19.2045914 709.62158,19.6411105 709.964355,20.1948242 C710.307131,20.7485379 710.478516,21.4326131 710.478516,22.2470703 C710.478516,22.9853553 710.27344,23.6767546 709.863281,24.3212891 C709.453123,24.9658235 708.873051,25.4448227 708.123047,25.7583008 C707.373043,26.0717789 706.438482,26.2285156 705.319336,26.2285156 C703.690422,26.2285156 702.439457,25.8520545 701.566406,25.0991211 C700.693355,24.3461876 700.171876,23.2490306 700.001953,21.8076172 Z M716.929688,16.6660156 L716.929688,18.6347656 L715.242188,18.6347656 L715.242188,22.3964844 C715.242188,23.1582069 715.258301,23.6020502 715.290527,23.7280273 C715.322754,23.8540045 715.395996,23.9580074 715.510254,24.0400391 C715.624512,24.1220707 715.763671,24.1630859 715.927734,24.1630859 C716.156251,24.1630859 716.487303,24.0839852 716.920898,23.9257812 L717.131836,25.8417969 C716.557614,26.0878919 715.90723,26.2109375 715.180664,26.2109375 C714.735349,26.2109375 714.333986,26.1362312 713.976562,25.9868164 C713.619139,25.8374016 713.356934,25.6440442 713.189941,25.4067383 C713.022948,25.1694324 712.907227,24.8486348 712.842773,24.4443359 C712.790039,24.1572251 712.763672,23.5771528 712.763672,22.7041016 L712.763672,18.6347656 L711.629883,18.6347656 L711.629883,16.6660156 L712.763672,16.6660156 L712.763672,14.8115234 L715.242188,13.3701172 L715.242188,16.6660156 L716.929688,16.6660156 Z M720.489258,19.5136719 L718.248047,19.109375 C718.500001,18.2070267 718.933591,17.5390647 719.548828,17.1054688 C720.164066,16.6718728 721.078119,16.4550781 722.291016,16.4550781 C723.392584,16.4550781 724.212888,16.5854479 724.751953,16.8461914 C725.291018,17.1069349 725.670409,17.4379863 725.890137,17.8393555 C726.109864,18.2407247 726.219727,18.9775337 726.219727,20.0498047 L726.193359,22.9326172 C726.193359,23.7529338 726.23291,24.3579082 726.312012,24.7475586 C726.391114,25.137209 726.539061,25.5546853 726.755859,26 L724.3125,26 C724.248047,25.8359367 724.168946,25.592775 724.075195,25.2705078 C724.034179,25.1240227 724.004883,25.027344 723.987305,24.9804688 C723.565428,25.3906271 723.11426,25.6982412 722.633789,25.9033203 C722.153318,26.1083995 721.640628,26.2109375 721.095703,26.2109375 C720.134761,26.2109375 719.377444,25.9501979 718.82373,25.4287109 C718.270017,24.907224 717.993164,24.2480509 717.993164,23.4511719 C717.993164,22.9238255 718.119139,22.4536153 718.371094,22.0405273 C718.623048,21.6274393 718.976072,21.3110363 719.430176,21.0913086 C719.88428,20.8715809 720.539058,20.6796883 721.394531,20.515625 C722.548834,20.298827 723.348631,20.0966806 723.793945,19.9091797 L723.793945,19.6630859 C723.793945,19.1884742 723.676759,18.8500987 723.442383,18.6479492 C723.208007,18.4457998 722.765628,18.3447266 722.115234,18.3447266 C721.675779,18.3447266 721.333009,18.4311515 721.086914,18.6040039 C720.840819,18.7768563 720.641602,19.080076 720.489258,19.5136719 Z M723.793945,21.5175781 C723.477537,21.6230474 722.976566,21.7490227 722.291016,21.8955078 C721.605465,22.0419929 721.157228,22.1855462 720.946289,22.3261719 C720.624022,22.5546886 720.462891,22.8447248 720.462891,23.1962891 C720.462891,23.5419939 720.591796,23.8408191 720.849609,24.0927734 C721.107423,24.3447278 721.435545,24.4707031 721.833984,24.4707031 C722.279299,24.4707031 722.7041,24.3242202 723.108398,24.03125 C723.407228,23.8085926 723.603515,23.5361344 723.697266,23.2138672 C723.761719,23.0029286 723.793945,22.6015655 723.793945,22.0097656 L723.793945,21.5175781 Z M737.144531,26 L734.674805,26 L734.674805,21.2363281 C734.674805,20.2285106 734.622071,19.5766616 734.516602,19.2807617 C734.411132,18.9848618 734.239747,18.7548836 734.002441,18.5908203 C733.765136,18.426757 733.479494,18.3447266 733.145508,18.3447266 C732.717771,18.3447266 732.333986,18.4619129 731.994141,18.6962891 C731.654295,18.9306652 731.421387,19.241209 731.29541,19.6279297 C731.169433,20.0146504 731.106445,20.729487 731.106445,21.7724609 L731.106445,26 L728.636719,26 L728.636719,16.6660156 L730.930664,16.6660156 L730.930664,18.0371094 C731.745121,16.9824166 732.770502,16.4550781 734.006836,16.4550781 C734.551761,16.4550781 735.049802,16.5532217 735.500977,16.7495117 C735.952151,16.9458018 736.293456,17.1962875 736.524902,17.5009766 C736.756349,17.8056656 736.91748,18.1513653 737.008301,18.5380859 C737.099122,18.9248066 737.144531,19.478512 737.144531,20.1992188 L737.144531,26 Z M748.209961,26 L745.916016,26 L745.916016,24.6289062 C745.535154,25.162112 745.085452,25.5590807 744.566895,25.8198242 C744.048337,26.0805677 743.525393,26.2109375 742.998047,26.2109375 C741.925776,26.2109375 741.007328,25.7788129 740.242676,24.9145508 C739.478024,24.0502886 739.095703,22.8447343 739.095703,21.2978516 C739.095703,19.7158124 739.46777,18.5131877 740.211914,17.6899414 C740.956058,16.8666951 741.896479,16.4550781 743.033203,16.4550781 C744.076177,16.4550781 744.978512,16.8886675 745.740234,17.7558594 L745.740234,13.1152344 L748.209961,13.1152344 L748.209961,26 Z M741.618164,21.1308594 C741.618164,22.1269581 741.755858,22.847654 742.03125,23.2929688 C742.429689,23.9375032 742.986325,24.2597656 743.701172,24.2597656 C744.269534,24.2597656 744.752928,24.0180688 745.151367,23.534668 C745.549807,23.0512671 745.749023,22.3291064 745.749023,21.3681641 C745.749023,20.2958931 745.555666,19.5239281 745.168945,19.0522461 C744.782225,18.580564 744.287112,18.3447266 743.683594,18.3447266 C743.097653,18.3447266 742.606936,18.5776344 742.211426,19.043457 C741.815916,19.5092797 741.618164,20.2050735 741.618164,21.1308594 Z M752.490234,19.5136719 L750.249023,19.109375 C750.500978,18.2070267 750.934567,17.5390647 751.549805,17.1054688 C752.165042,16.6718728 753.079095,16.4550781 754.291992,16.4550781 C755.39356,16.4550781 756.213864,16.5854479 756.75293,16.8461914 C757.291995,17.1069349 757.671386,17.4379863 757.891113,17.8393555 C758.110841,18.2407247 758.220703,18.9775337 758.220703,20.0498047 L758.194336,22.9326172 C758.194336,23.7529338 758.233886,24.3579082 758.312988,24.7475586 C758.39209,25.137209 758.540038,25.5546853 758.756836,26 L756.313477,26 C756.249023,25.8359367 756.169922,25.592775 756.076172,25.2705078 C756.035156,25.1240227 756.005859,25.027344 755.988281,24.9804688 C755.566404,25.3906271 755.115237,25.6982412 754.634766,25.9033203 C754.154294,26.1083995 753.641604,26.2109375 753.09668,26.2109375 C752.135737,26.2109375 751.378421,25.9501979 750.824707,25.4287109 C750.270993,24.907224 749.994141,24.2480509 749.994141,23.4511719 C749.994141,22.9238255 750.120116,22.4536153 750.37207,22.0405273 C750.624025,21.6274393 750.977049,21.3110363 751.431152,21.0913086 C751.885256,20.8715809 752.540035,20.6796883 753.395508,20.515625 C754.54981,20.298827 755.349607,20.0966806 755.794922,19.9091797 L755.794922,19.6630859 C755.794922,19.1884742 755.677736,18.8500987 755.443359,18.6479492 C755.208983,18.4457998 754.766605,18.3447266 754.116211,18.3447266 C753.676756,18.3447266 753.333986,18.4311515 753.087891,18.6040039 C752.841796,18.7768563 752.642579,19.080076 752.490234,19.5136719 Z M755.794922,21.5175781 C755.478514,21.6230474 754.977542,21.7490227 754.291992,21.8955078 C753.606442,22.0419929 753.158204,22.1855462 752.947266,22.3261719 C752.624998,22.5546886 752.463867,22.8447248 752.463867,23.1962891 C752.463867,23.5419939 752.592772,23.8408191 752.850586,24.0927734 C753.1084,24.3447278 753.436521,24.4707031 753.834961,24.4707031 C754.280276,24.4707031 754.705076,24.3242202 755.109375,24.03125 C755.408205,23.8085926 755.604492,23.5361344 755.698242,23.2138672 C755.762696,23.0029286 755.794922,22.6015655 755.794922,22.0097656 L755.794922,21.5175781 Z M763.019531,26 L760.549805,26 L760.549805,16.6660156 L762.84375,16.6660156 L762.84375,17.9931641 C763.23633,17.3662078 763.589354,16.953126 763.902832,16.7539062 C764.21631,16.5546865 764.572264,16.4550781 764.970703,16.4550781 C765.533206,16.4550781 766.075193,16.61035 766.59668,16.9208984 L765.832031,19.0742188 C765.416014,18.8046862 765.029299,18.6699219 764.671875,18.6699219 C764.32617,18.6699219 764.033204,18.7651358 763.792969,18.9555664 C763.552733,19.145997 763.36377,19.4902319 763.226074,19.9882812 C763.088378,20.4863306 763.019531,21.5292889 763.019531,23.1171875 L763.019531,26 Z M776.220703,26 L773.926758,26 L773.926758,24.6289062 C773.545897,25.162112 773.096194,25.5590807 772.577637,25.8198242 C772.059079,26.0805677 771.536135,26.2109375 771.008789,26.2109375 C769.936518,26.2109375 769.01807,25.7788129 768.253418,24.9145508 C767.488766,24.0502886 767.106445,22.8447343 767.106445,21.2978516 C767.106445,19.7158124 767.478512,18.5131877 768.222656,17.6899414 C768.966801,16.8666951 769.907221,16.4550781 771.043945,16.4550781 C772.086919,16.4550781 772.989254,16.8886675 773.750977,17.7558594 L773.750977,13.1152344 L776.220703,13.1152344 L776.220703,26 Z M769.628906,21.1308594 C769.628906,22.1269581 769.7666,22.847654 770.041992,23.2929688 C770.440432,23.9375032 770.997067,24.2597656 771.711914,24.2597656 C772.280276,24.2597656 772.76367,24.0180688 773.162109,23.534668 C773.560549,23.0512671 773.759766,22.3291064 773.759766,21.3681641 C773.759766,20.2958931 773.566408,19.5239281 773.179688,19.0522461 C772.792967,18.580564 772.297855,18.3447266 771.694336,18.3447266 C771.108396,18.3447266 770.617678,18.5776344 770.222168,19.043457 C769.826658,19.5092797 769.628906,20.2050735 769.628906,21.1308594 Z M787.751953,29.7880859 L786.055664,29.7880859 C785.159175,28.4345635 784.476565,27.0283276 784.007812,25.5693359 C783.53906,24.1103443 783.304688,22.698249 783.304688,21.3330078 C783.304688,19.63964 783.594724,18.0371169 784.174805,16.5253906 C784.678713,15.2128841 785.317379,14.0029352 786.09082,12.8955078 L787.77832,12.8955078 C786.975582,14.6709073 786.423341,16.1811461 786.121582,17.4262695 C785.819823,18.6713929 785.668945,19.991204 785.668945,21.3857422 C785.668945,22.3466845 785.7583,23.3310496 785.937012,24.3388672 C786.115724,25.3466847 786.36035,26.304683 786.670898,27.2128906 C786.875978,27.8105499 787.236326,28.6689397 787.751953,29.7880859 Z M797.912109,21.2626953 L800.43457,22.0625 C800.04785,23.468757 799.40479,24.5131802 798.505371,25.1958008 C797.605953,25.8784214 796.464851,26.2197266 795.082031,26.2197266 C793.371085,26.2197266 791.964849,25.6352598 790.863281,24.4663086 C789.761713,23.2973574 789.210938,21.6992289 789.210938,19.671875 C789.210938,17.527333 789.764643,15.8618223 790.87207,14.675293 C791.979498,13.4887636 793.435538,12.8955078 795.240234,12.8955078 C796.816414,12.8955078 798.096675,13.3613235 799.081055,14.2929688 C799.666995,14.8437528 800.106444,15.6347605 800.399414,16.6660156 L797.824219,17.28125 C797.671874,16.6132779 797.354006,16.0859394 796.870605,15.6992188 C796.387205,15.3124981 795.799808,15.1191406 795.108398,15.1191406 C794.153316,15.1191406 793.378421,15.4619106 792.783691,16.1474609 C792.188962,16.8330112 791.891602,17.9433517 791.891602,19.4785156 C791.891602,21.10743 792.184567,22.2675747 792.770508,22.9589844 C793.356448,23.6503941 794.118159,23.9960938 795.055664,23.9960938 C795.747074,23.9960938 796.341794,23.7763694 796.839844,23.3369141 C797.337893,22.8974587 797.695311,22.2060594 797.912109,21.2626953 Z M808.054688,23.0292969 L810.515625,23.4423828 C810.199217,24.3447311 809.69971,25.0317359 809.01709,25.503418 C808.334469,25.9751 807.480474,26.2109375 806.455078,26.2109375 C804.832023,26.2109375 803.630863,25.6806694 802.851562,24.6201172 C802.236325,23.7705036 801.928711,22.6982487 801.928711,21.4033203 C801.928711,19.8564376 802.333004,18.6450239 803.141602,17.769043 C803.950199,16.893062 804.97265,16.4550781 806.208984,16.4550781 C807.597663,16.4550781 808.693355,16.9135696 809.496094,17.8305664 C810.298832,18.7475632 810.682617,20.1523343 810.647461,22.0449219 L804.459961,22.0449219 C804.477539,22.7773474 804.676756,23.3471659 805.057617,23.7543945 C805.438478,24.1616231 805.913083,24.3652344 806.481445,24.3652344 C806.868166,24.3652344 807.193358,24.2597667 807.457031,24.0488281 C807.720704,23.8378896 807.919921,23.4980492 808.054688,23.0292969 Z M808.195312,20.5332031 C808.177734,19.8183558 807.993166,19.2749042 807.641602,18.902832 C807.290037,18.5307599 806.862307,18.3447266 806.358398,18.3447266 C805.819333,18.3447266 805.374025,18.5410137 805.022461,18.9335938 C804.670897,19.3261738 804.498047,19.8593716 804.503906,20.5332031 L808.195312,20.5332031 Z M815.024414,26 L812.554688,26 L812.554688,16.6660156 L814.848633,16.6660156 L814.848633,17.9931641 C815.241213,17.3662078 815.594237,16.953126 815.907715,16.7539062 C816.221193,16.5546865 816.577146,16.4550781 816.975586,16.4550781 C817.538089,16.4550781 818.080076,16.61035 818.601562,16.9208984 L817.836914,19.0742188 C817.420896,18.8046862 817.034181,18.6699219 816.676758,18.6699219 C816.331053,18.6699219 816.038087,18.7651358 815.797852,18.9555664 C815.557616,19.145997 815.368653,19.4902319 815.230957,19.9882812 C815.093261,20.4863306 815.024414,21.5292889 815.024414,23.1171875 L815.024414,26 Z M823.945312,16.6660156 L823.945312,18.6347656 L822.257812,18.6347656 L822.257812,22.3964844 C822.257812,23.1582069 822.273926,23.6020502 822.306152,23.7280273 C822.338379,23.8540045 822.411621,23.9580074 822.525879,24.0400391 C822.640137,24.1220707 822.779296,24.1630859 822.943359,24.1630859 C823.171876,24.1630859 823.502928,24.0839852 823.936523,23.9257812 L824.147461,25.8417969 C823.573239,26.0878919 822.922855,26.2109375 822.196289,26.2109375 C821.750974,26.2109375 821.349611,26.1362312 820.992188,25.9868164 C820.634764,25.8374016 820.372559,25.6440442 820.205566,25.4067383 C820.038573,25.1694324 819.922852,24.8486348 819.858398,24.4443359 C819.805664,24.1572251 819.779297,23.5771528 819.779297,22.7041016 L819.779297,18.6347656 L818.645508,18.6347656 L818.645508,16.6660156 L819.779297,16.6660156 L819.779297,14.8115234 L822.257812,13.3701172 L822.257812,16.6660156 L823.945312,16.6660156 Z M825.087891,21.2011719 C825.087891,20.3808553 825.290037,19.5869179 825.694336,18.8193359 C826.098635,18.051754 826.671383,17.4658223 827.412598,17.0615234 C828.153812,16.6572245 828.981441,16.4550781 829.895508,16.4550781 C831.307624,16.4550781 832.464839,16.9135696 833.367188,17.8305664 C834.269536,18.7475632 834.720703,19.906243 834.720703,21.3066406 C834.720703,22.7187571 834.265141,23.8891555 833.354004,24.8178711 C832.442867,25.7465867 831.295905,26.2109375 829.913086,26.2109375 C829.057613,26.2109375 828.241703,26.0175801 827.465332,25.6308594 C826.688961,25.2441387 826.098635,24.6772498 825.694336,23.9301758 C825.290037,23.1831017 825.087891,22.2734429 825.087891,21.2011719 Z M827.619141,21.3330078 C827.619141,22.2587937 827.838865,22.967771 828.27832,23.4599609 C828.717776,23.9521509 829.259762,24.1982422 829.904297,24.1982422 C830.548831,24.1982422 831.089353,23.9521509 831.525879,23.4599609 C831.962405,22.967771 832.180664,22.2529344 832.180664,21.3154297 C832.180664,20.4013626 831.962405,19.6982446 831.525879,19.2060547 C831.089353,18.7138647 830.548831,18.4677734 829.904297,18.4677734 C829.259762,18.4677734 828.717776,18.7138647 828.27832,19.2060547 C827.838865,19.6982446 827.619141,20.4072219 827.619141,21.3330078 Z M835.335938,26.2197266 L838.526367,12.8955078 L840.380859,12.8955078 L837.155273,26.2197266 L835.335938,26.2197266 Z M841.681641,13.1152344 L846.832031,13.1152344 C847.851568,13.1152344 848.611814,13.1577144 849.112793,13.2426758 C849.613772,13.3276371 850.06201,13.5048815 850.45752,13.7744141 C850.853029,14.0439467 851.182616,14.4028298 851.446289,14.8510742 C851.709962,15.2993186 851.841797,15.801755 851.841797,16.3583984 C851.841797,16.9619171 851.679201,17.5156225 851.354004,18.0195312 C851.028807,18.52344 850.587893,18.9013659 850.03125,19.1533203 C850.81641,19.3818371 851.41992,19.7714816 851.841797,20.3222656 C852.263674,20.8730496 852.474609,21.5205041 852.474609,22.2646484 C852.474609,22.8505889 852.33838,23.4204074 852.065918,23.9741211 C851.793456,24.5278348 851.421389,24.9702132 850.949707,25.3012695 C850.478025,25.6323259 849.896488,25.8359371 849.205078,25.9121094 C848.771482,25.9589846 847.725594,25.9882812 846.067383,26 L841.681641,26 L841.681641,13.1152344 Z M844.283203,15.2597656 L844.283203,18.2392578 L845.988281,18.2392578 C847.001958,18.2392578 847.631835,18.2246095 847.87793,18.1953125 C848.323244,18.1425779 848.673339,17.9887708 848.928223,17.7338867 C849.183107,17.4790026 849.310547,17.1435568 849.310547,16.7275391 C849.310547,16.3290996 849.200685,16.0053723 848.980957,15.7563477 C848.761229,15.507323 848.434572,15.3564456 848.000977,15.3037109 C847.743163,15.2744139 847.001959,15.2597656 845.777344,15.2597656 L844.283203,15.2597656 Z M844.283203,20.3837891 L844.283203,23.8291016 L846.691406,23.8291016 C847.628911,23.8291016 848.223632,23.8027346 848.475586,23.75 C848.862307,23.6796871 849.177245,23.5083021 849.42041,23.2358398 C849.663575,22.9633775 849.785156,22.5986351 849.785156,22.1416016 C849.785156,21.7548809 849.691407,21.4267592 849.503906,21.1572266 C849.316405,20.887694 849.045412,20.6914069 848.690918,20.5683594 C848.336424,20.4453119 847.567389,20.3837891 846.383789,20.3837891 L844.283203,20.3837891 Z M857.018555,26 L854.548828,26 L854.548828,16.6660156 L856.842773,16.6660156 L856.842773,17.9931641 C857.235354,17.3662078 857.588377,16.953126 857.901855,16.7539062 C858.215334,16.5546865 858.571287,16.4550781 858.969727,16.4550781 C859.532229,16.4550781 860.074216,16.61035 860.595703,16.9208984 L859.831055,19.0742188 C859.415037,18.8046862 859.028322,18.6699219 858.670898,18.6699219 C858.325194,18.6699219 858.032228,18.7651358 857.791992,18.9555664 C857.551757,19.145997 857.362794,19.4902319 857.225098,19.9882812 C857.087402,20.4863306 857.018555,21.5292889 857.018555,23.1171875 L857.018555,26 Z M863.504883,19.5136719 L861.263672,19.109375 C861.515626,18.2070267 861.949216,17.5390647 862.564453,17.1054688 C863.179691,16.6718728 864.093744,16.4550781 865.306641,16.4550781 C866.408209,16.4550781 867.228513,16.5854479 867.767578,16.8461914 C868.306643,17.1069349 868.686034,17.4379863 868.905762,17.8393555 C869.125489,18.2407247 869.235352,18.9775337 869.235352,20.0498047 L869.208984,22.9326172 C869.208984,23.7529338 869.248535,24.3579082 869.327637,24.7475586 C869.406739,25.137209 869.554686,25.5546853 869.771484,26 L867.328125,26 C867.263672,25.8359367 867.184571,25.592775 867.09082,25.2705078 C867.049804,25.1240227 867.020508,25.027344 867.00293,24.9804688 C866.581053,25.3906271 866.129885,25.6982412 865.649414,25.9033203 C865.168943,26.1083995 864.656253,26.2109375 864.111328,26.2109375 C863.150386,26.2109375 862.393069,25.9501979 861.839355,25.4287109 C861.285642,24.907224 861.008789,24.2480509 861.008789,23.4511719 C861.008789,22.9238255 861.134764,22.4536153 861.386719,22.0405273 C861.638673,21.6274393 861.991697,21.3110363 862.445801,21.0913086 C862.899905,20.8715809 863.554683,20.6796883 864.410156,20.515625 C865.564459,20.298827 866.364256,20.0966806 866.80957,19.9091797 L866.80957,19.6630859 C866.80957,19.1884742 866.692384,18.8500987 866.458008,18.6479492 C866.223632,18.4457998 865.781253,18.3447266 865.130859,18.3447266 C864.691404,18.3447266 864.348634,18.4311515 864.102539,18.6040039 C863.856444,18.7768563 863.657227,19.080076 863.504883,19.5136719 Z M866.80957,21.5175781 C866.493162,21.6230474 865.992191,21.7490227 865.306641,21.8955078 C864.62109,22.0419929 864.172853,22.1855462 863.961914,22.3261719 C863.639647,22.5546886 863.478516,22.8447248 863.478516,23.1962891 C863.478516,23.5419939 863.607421,23.8408191 863.865234,24.0927734 C864.123048,24.3447278 864.45117,24.4707031 864.849609,24.4707031 C865.294924,24.4707031 865.719725,24.3242202 866.124023,24.03125 C866.422853,23.8085926 866.61914,23.5361344 866.712891,23.2138672 C866.777344,23.0029286 866.80957,22.6015655 866.80957,22.0097656 L866.80957,21.5175781 Z M877.813477,26 L877.813477,24.6025391 C877.473631,25.1005884 877.026858,25.4931626 876.473145,25.7802734 C875.919431,26.0673842 875.334964,26.2109375 874.719727,26.2109375 C874.09277,26.2109375 873.530276,26.0732436 873.032227,25.7978516 C872.534177,25.5224596 872.173829,25.1357447 871.951172,24.6376953 C871.728515,24.1396459 871.617188,23.4511763 871.617188,22.5722656 L871.617188,16.6660156 L874.086914,16.6660156 L874.086914,20.9550781 C874.086914,22.2675847 874.132324,23.0717759 874.223145,23.3676758 C874.313965,23.6635757 874.479491,23.8979484 874.719727,24.0708008 C874.959962,24.2436532 875.264647,24.3300781 875.633789,24.3300781 C876.055666,24.3300781 876.433592,24.2143566 876.767578,23.9829102 C877.101564,23.7514637 877.330078,23.4643572 877.453125,23.121582 C877.576172,22.7788069 877.637695,21.9394598 877.637695,20.6035156 L877.637695,16.6660156 L880.107422,16.6660156 L880.107422,26 L877.813477,26 Z M891.155273,26 L888.685547,26 L888.685547,21.2363281 C888.685547,20.2285106 888.632813,19.5766616 888.527344,19.2807617 C888.421874,18.9848618 888.250489,18.7548836 888.013184,18.5908203 C887.775878,18.426757 887.490236,18.3447266 887.15625,18.3447266 C886.728513,18.3447266 886.344728,18.4619129 886.004883,18.6962891 C885.665037,18.9306652 885.43213,19.241209 885.306152,19.6279297 C885.180175,20.0146504 885.117188,20.729487 885.117188,21.7724609 L885.117188,26 L882.647461,26 L882.647461,16.6660156 L884.941406,16.6660156 L884.941406,18.0371094 C885.755863,16.9824166 886.781244,16.4550781 888.017578,16.4550781 C888.562503,16.4550781 889.060545,16.5532217 889.511719,16.7495117 C889.962893,16.9458018 890.304198,17.1962875 890.535645,17.5009766 C890.767091,17.8056656 890.928222,18.1513653 891.019043,18.5380859 C891.109864,18.9248066 891.155273,19.478512 891.155273,20.1992188 L891.155273,26 Z M899.803711,26 L899.803711,24.6025391 C899.463865,25.1005884 899.017093,25.4931626 898.463379,25.7802734 C897.909665,26.0673842 897.325198,26.2109375 896.709961,26.2109375 C896.083005,26.2109375 895.52051,26.0732436 895.022461,25.7978516 C894.524412,25.5224596 894.164064,25.1357447 893.941406,24.6376953 C893.718749,24.1396459 893.607422,23.4511763 893.607422,22.5722656 L893.607422,16.6660156 L896.077148,16.6660156 L896.077148,20.9550781 C896.077148,22.2675847 896.122558,23.0717759 896.213379,23.3676758 C896.3042,23.6635757 896.469725,23.8979484 896.709961,24.0708008 C896.950197,24.2436532 897.254881,24.3300781 897.624023,24.3300781 C898.045901,24.3300781 898.423826,24.2143566 898.757812,23.9829102 C899.091799,23.7514637 899.320312,23.4643572 899.443359,23.121582 C899.566407,22.7788069 899.62793,21.9394598 899.62793,20.6035156 L899.62793,16.6660156 L902.097656,16.6660156 L902.097656,26 L899.803711,26 Z M894.899414,15.0136719 L894.899414,12.8955078 L897.017578,12.8955078 L897.017578,15.0136719 L894.899414,15.0136719 Z M898.678711,15.0136719 L898.678711,12.8955078 L900.805664,12.8955078 L900.805664,15.0136719 L898.678711,15.0136719 Z M904.655273,26 L904.655273,13.1152344 L907.125,13.1152344 L907.125,26 L904.655273,26 Z M915.061523,23.0292969 L917.522461,23.4423828 C917.206053,24.3447311 916.706546,25.0317359 916.023926,25.503418 C915.341305,25.9751 914.48731,26.2109375 913.461914,26.2109375 C911.838859,26.2109375 910.637699,25.6806694 909.858398,24.6201172 C909.243161,23.7705036 908.935547,22.6982487 908.935547,21.4033203 C908.935547,19.8564376 909.33984,18.6450239 910.148438,17.769043 C910.957035,16.893062 911.979486,16.4550781 913.21582,16.4550781 C914.604499,16.4550781 915.700191,16.9135696 916.50293,17.8305664 C917.305668,18.7475632 917.689453,20.1523343 917.654297,22.0449219 L911.466797,22.0449219 C911.484375,22.7773474 911.683592,23.3471659 912.064453,23.7543945 C912.445314,24.1616231 912.919919,24.3652344 913.488281,24.3652344 C913.875002,24.3652344 914.200194,24.2597667 914.463867,24.0488281 C914.72754,23.8378896 914.926757,23.4980492 915.061523,23.0292969 Z M915.202148,20.5332031 C915.18457,19.8183558 915.000002,19.2749042 914.648438,18.902832 C914.296873,18.5307599 913.869143,18.3447266 913.365234,18.3447266 C912.826169,18.3447266 912.380861,18.5410137 912.029297,18.9335938 C911.677733,19.3261738 911.504883,19.8593716 911.510742,20.5332031 L915.202148,20.5332031 Z M918.981445,29.7880859 C919.467776,28.745112 919.810546,27.9453153 920.009766,27.3886719 C920.208985,26.8320285 920.393554,26.1904333 920.563477,25.4638672 C920.733399,24.7373011 920.859375,24.0473665 920.941406,23.394043 C921.023438,22.7407194 921.064453,22.0712925 921.064453,21.3857422 C921.064453,19.991204 920.915041,18.6713929 920.616211,17.4262695 C920.317381,16.1811461 919.766606,14.6709073 918.963867,12.8955078 L920.642578,12.8955078 C921.527348,14.1552797 922.214353,15.4912039 922.703613,16.9033203 C923.192874,18.3154367 923.4375,19.7480396 923.4375,21.2011719 C923.4375,22.4257874 923.244143,23.7382742 922.857422,25.1386719 C922.417967,26.7089922 921.694341,28.2587814 920.686523,29.7880859 L918.981445,29.7880859 Z" id="Vasofix®Standard(Certo/Braunüle)" fill="#373737" fill-rule="nonzero"></path>
            </g>
        </g>
    </g>
</svg>