<?xml version="1.0" encoding="UTF-8"?>
<svg width="913px" height="428px" viewBox="0 0 913 428" version="1.1" xmlns="http://www.w3.org/2000/svg" xmlns:xlink="http://www.w3.org/1999/xlink">
    <!-- Generator: Sketch 53.2 (72643) - https://sketchapp.com -->
    <title>Group</title>
    <desc>Created with Sketch.</desc>
    <g id="7.-Product-Comparison" stroke="none" stroke-width="1" fill="none" fill-rule="evenodd">
        <g id="Vigmed" transform="translate(-56.000000, -184.000000)">
            <g id="Group" transform="translate(56.000000, 184.000000)">
                <polygon id="Rectangle" fill-opacity="0.75" fill="#00B482" points="300 0 601 0 601 428 300 428"></polygon>
                <text id="Yes" font-family="ArialMT, Arial" font-size="18" font-weight="normal" fill="#FFFFFF">
                    <tspan x="310" y="69">Yes</tspan>
                </text>
                <text id="No" font-family="ArialMT, Arial" font-size="18" font-weight="normal" fill="#373737">
                    <tspan x="621" y="69">No</tspan>
                </text>
                <text id="3-years" font-family="ArialMT, Arial" font-size="18" font-weight="normal" fill="#373737">
                    <tspan x="621" y="112">3 years</tspan>
                </text>
                <text id="19mm-45mm" font-family="ArialMT, Arial" font-size="18" font-weight="normal" fill="#373737">
                    <tspan x="621" y="154">19mm-45mm</tspan>
                </text>
                <text id="No" font-family="ArialMT, Arial" font-size="18" font-weight="normal" fill="#373737">
                    <tspan x="622" y="326">No</tspan>
                </text>
                <text id="No" font-family="ArialMT, Arial" font-size="18" font-weight="normal" fill="#373737">
                    <tspan x="622" y="369">No</tspan>
                </text>
                <text id="Milky" font-family="ArialMT, Arial" font-size="18" font-weight="normal" fill="#373737">
                    <tspan x="620" y="194">Milky</tspan>
                </text>
                <text id="Without-holes" font-family="ArialMT, Arial" font-size="18" font-weight="normal" fill="#373737">
                    <tspan x="621" y="412">Without holes</tspan>
                </text>
                <text id="No" font-family="ArialMT, Arial" font-size="18" font-weight="normal" fill="#373737">
                    <tspan x="621" y="241">No</tspan>
                </text>
                <text id="Yes-(Automatic/Passi" font-family="ArialMT, Arial" font-size="18" font-weight="normal" fill="#373737">
                    <tspan x="621" y="283">Yes (Automatic/Passive)</tspan>
                </text>
                <text id="5-years" font-family="ArialMT, Arial" font-size="18" font-weight="normal" fill="#FFFFFF">
                    <tspan x="310" y="112">5 years</tspan>
                </text>
                <text id="19mm-–-50mm" font-family="ArialMT, Arial" font-size="18" font-weight="normal" fill="#FFFFFF">
                    <tspan x="310" y="155">19mm – 50mm</tspan>
                </text>
                <text id="Yes" font-family="ArialMT, Arial" font-size="18" font-weight="normal" fill="#FFFFFF">
                    <tspan x="311" y="326">Yes</tspan>
                </text>
                <text id="Yes" font-family="ArialMT, Arial" font-size="18" font-weight="normal" fill="#FFFFFF">
                    <tspan x="311" y="369">Yes</tspan>
                </text>
                <text id="Clear" font-family="ArialMT, Arial" font-size="18" font-weight="normal" fill="#FFFFFF">
                    <tspan x="310" y="198">Clear</tspan>
                </text>
                <text id="With-holes" font-family="ArialMT, Arial" font-size="18" font-weight="normal" fill="#FFFFFF">
                    <tspan x="310" y="412">With holes</tspan>
                </text>
                <text id="Yes" font-family="ArialMT, Arial" font-size="18" font-weight="normal" fill="#FFFFFF">
                    <tspan x="310" y="241">Yes</tspan>
                </text>
                <text id="Yes-(Automatic/Passi" font-family="ArialMT, Arial" font-size="18" font-weight="normal" fill="#FFFFFF">
                    <tspan x="310" y="283">Yes (Automatic/Passive)</tspan>
                </text>
                <text id="Color-Coded-Blister" font-family="ArialMT, Arial" font-size="18" font-weight="normal" fill="#373737">
                    <tspan x="1" y="69">Color Coded Blister Packaging</tspan>
                </text>
                <text id="Shelf-Life" font-family="ArialMT, Arial" font-size="18" font-weight="normal" fill="#373737">
                    <tspan x="0" y="112">Shelf Life</tspan>
                </text>
                <text id="Centralized-Injectio" font-family="ArialMT, Arial" font-size="18" font-weight="normal" fill="#373737">
                    <tspan x="1" y="369">Centralized Injection Port</tspan>
                </text>
                <text id="Transparency-Flashba" font-family="ArialMT, Arial" font-size="18" font-weight="normal" fill="#373737">
                    <tspan x="0" y="198">Transparency Flashback Chamber</tspan>
                </text>
                <text id="Fixation-Wings" font-family="ArialMT, Arial" font-size="18" font-weight="normal" fill="#373737">
                    <tspan x="2" y="412">Fixation Wings</tspan>
                </text>
                <text id="Available-Catheter-L" font-family="ArialMT, Arial" font-size="18" font-weight="normal" fill="#373737">
                    <tspan x="1" y="155">Available Catheter Lengths</tspan>
                </text>
                <text id="Close-off-Port" font-family="ArialMT, Arial" font-size="18" font-weight="normal" fill="#373737">
                    <tspan x="2" y="326">Close-off Port</tspan>
                </text>
                <text id="Color-Coded-Wing" font-family="ArialMT, Arial" font-size="18" font-weight="normal" fill="#373737">
                    <tspan x="1" y="241">Color Coded Wing</tspan>
                </text>
                <text id="Safety-Mechanism" font-family="ArialMT, Arial" font-size="18" font-weight="normal" fill="#373737">
                    <tspan x="1" y="283">Safety Mechanism</tspan>
                </text>
                <path d="M0.5,84.5 L911.59275,84.5" id="Line" stroke="#FFFFFF" stroke-linecap="square"></path>
                <path d="M0.5,127.5 L911.59275,127.5" id="Line" stroke="#FFFFFF" stroke-linecap="square"></path>
                <path d="M0.5,341.5 L911.59275,341.5" id="Line-Copy" stroke="#FFFFFF" stroke-linecap="square"></path>
                <path d="M0.5,170.5 L911.59275,170.5" id="Line" stroke="#FFFFFF" stroke-linecap="square"></path>
                <path d="M0.5,384.5 L911.59275,384.5" id="Line-Copy-2" stroke="#FFFFFF" stroke-linecap="square"></path>
                <path d="M0.5,213.5 L911.59275,213.5" id="Line" stroke="#FFFFFF" stroke-linecap="square"></path>
                <path d="M0.5,255.5 L911.59275,255.5" id="Line" stroke="#FFFFFF" stroke-linecap="square"></path>
                <path d="M0.5,298.5 L911.59275,298.5" id="Line" stroke="#FFFFFF" stroke-linecap="square"></path>
                <path d="M0.5,41.5 L911.59275,41.5" id="Line" stroke="#FFFFFF" stroke-linecap="square"></path>
                <path d="M316.59668,26 L311.991211,13.1152344 L314.8125,13.1152344 L318.073242,22.6513672 L321.228516,13.1152344 L323.988281,13.1152344 L319.374023,26 L316.59668,26 Z M326.150391,19.5136719 L323.90918,19.109375 C324.161134,18.2070267 324.594723,17.5390647 325.209961,17.1054688 C325.825198,16.6718728 326.739252,16.4550781 327.952148,16.4550781 C329.053716,16.4550781 329.874021,16.5854479 330.413086,16.8461914 C330.952151,17.1069349 331.331542,17.4379863 331.55127,17.8393555 C331.770997,18.2407247 331.880859,18.9775337 331.880859,20.0498047 L331.854492,22.9326172 C331.854492,23.7529338 331.894043,24.3579082 331.973145,24.7475586 C332.052246,25.137209 332.200194,25.5546853 332.416992,26 L329.973633,26 C329.909179,25.8359367 329.830079,25.592775 329.736328,25.2705078 C329.695312,25.1240227 329.666016,25.027344 329.648438,24.9804688 C329.22656,25.3906271 328.775393,25.6982412 328.294922,25.9033203 C327.814451,26.1083995 327.301761,26.2109375 326.756836,26.2109375 C325.795894,26.2109375 325.038577,25.9501979 324.484863,25.4287109 C323.93115,24.907224 323.654297,24.2480509 323.654297,23.4511719 C323.654297,22.9238255 323.780272,22.4536153 324.032227,22.0405273 C324.284181,21.6274393 324.637205,21.3110363 325.091309,21.0913086 C325.545412,20.8715809 326.200191,20.6796883 327.055664,20.515625 C328.209967,20.298827 329.009763,20.0966806 329.455078,19.9091797 L329.455078,19.6630859 C329.455078,19.1884742 329.337892,18.8500987 329.103516,18.6479492 C328.869139,18.4457998 328.426761,18.3447266 327.776367,18.3447266 C327.336912,18.3447266 326.994142,18.4311515 326.748047,18.6040039 C326.501952,18.7768563 326.302735,19.080076 326.150391,19.5136719 Z M329.455078,21.5175781 C329.13867,21.6230474 328.637699,21.7490227 327.952148,21.8955078 C327.266598,22.0419929 326.81836,22.1855462 326.607422,22.3261719 C326.285155,22.5546886 326.124023,22.8447248 326.124023,23.1962891 C326.124023,23.5419939 326.252928,23.8408191 326.510742,24.0927734 C326.768556,24.3447278 327.096678,24.4707031 327.495117,24.4707031 C327.940432,24.4707031 328.365232,24.3242202 328.769531,24.03125 C329.068361,23.8085926 329.264648,23.5361344 329.358398,23.2138672 C329.422852,23.0029286 329.455078,22.6015655 329.455078,22.0097656 L329.455078,21.5175781 Z M333.445312,23.3369141 L335.923828,22.9589844 C336.029297,23.4394555 336.243162,23.804198 336.56543,24.0532227 C336.887697,24.3022473 337.338864,24.4267578 337.918945,24.4267578 C338.55762,24.4267578 339.038084,24.3095715 339.360352,24.0751953 C339.57715,23.911132 339.685547,23.6914076 339.685547,23.4160156 C339.685547,23.2285147 339.626954,23.0732428 339.509766,22.9501953 C339.386718,22.8330072 339.11133,22.7246099 338.683594,22.625 C336.691396,22.1855447 335.428714,21.7841815 334.895508,21.4208984 C334.157223,20.9169897 333.788086,20.2168014 333.788086,19.3203125 C333.788086,18.5117147 334.107419,17.832034 334.746094,17.28125 C335.384769,16.730466 336.374993,16.4550781 337.716797,16.4550781 C338.994147,16.4550781 339.943356,16.6630839 340.564453,17.0791016 C341.18555,17.4951193 341.61328,18.1103475 341.847656,18.9248047 L339.518555,19.3554688 C339.418945,18.9921857 339.229982,18.7138682 338.95166,18.5205078 C338.673338,18.3271475 338.27637,18.2304688 337.760742,18.2304688 C337.110348,18.2304688 336.644533,18.3212882 336.363281,18.5029297 C336.17578,18.6318366 336.082031,18.7988271 336.082031,19.0039062 C336.082031,19.1796884 336.164062,19.3291009 336.328125,19.4521484 C336.550782,19.6162118 337.319818,19.8476548 338.635254,20.1464844 C339.95069,20.445314 340.869138,20.8115213 341.390625,21.2451172 C341.906253,21.6845725 342.164062,22.2968711 342.164062,23.0820312 C342.164062,23.9375043 341.806644,24.6728485 341.091797,25.2880859 C340.37695,25.9033234 339.319343,26.2109375 337.918945,26.2109375 C336.647455,26.2109375 335.641117,25.9531276 334.899902,25.4375 C334.158688,24.9218724 333.673829,24.2216841 333.445312,23.3369141 Z M343.754883,21.2011719 C343.754883,20.3808553 343.957029,19.5869179 344.361328,18.8193359 C344.765627,18.051754 345.338375,17.4658223 346.07959,17.0615234 C346.820804,16.6572245 347.648433,16.4550781 348.5625,16.4550781 C349.974616,16.4550781 351.131831,16.9135696 352.03418,17.8305664 C352.936528,18.7475632 353.387695,19.906243 353.387695,21.3066406 C353.387695,22.7187571 352.932133,23.8891555 352.020996,24.8178711 C351.109859,25.7465867 349.962898,26.2109375 348.580078,26.2109375 C347.724605,26.2109375 346.908695,26.0175801 346.132324,25.6308594 C345.355953,25.2441387 344.765627,24.6772498 344.361328,23.9301758 C343.957029,23.1831017 343.754883,22.2734429 343.754883,21.2011719 Z M346.286133,21.3330078 C346.286133,22.2587937 346.505857,22.967771 346.945312,23.4599609 C347.384768,23.9521509 347.926755,24.1982422 348.571289,24.1982422 C349.215824,24.1982422 349.756345,23.9521509 350.192871,23.4599609 C350.629397,22.967771 350.847656,22.2529344 350.847656,21.3154297 C350.847656,20.4013626 350.629397,19.6982446 350.192871,19.2060547 C349.756345,18.7138647 349.215824,18.4677734 348.571289,18.4677734 C347.926755,18.4677734 347.384768,18.7138647 346.945312,19.2060547 C346.505857,19.6982446 346.286133,20.4072219 346.286133,21.3330078 Z M354.240234,16.6660156 L355.611328,16.6660156 L355.611328,15.9628906 C355.611328,15.1777304 355.694823,14.5917988 355.861816,14.2050781 C356.028809,13.8183574 356.336424,13.5034192 356.784668,13.2602539 C357.232912,13.0170886 357.799801,12.8955078 358.485352,12.8955078 C359.18848,12.8955078 359.87695,13.0009755 360.550781,13.2119141 L360.216797,14.9345703 C359.824217,14.8408198 359.446291,14.7939453 359.083008,14.7939453 C358.725584,14.7939453 358.469239,14.8774406 358.313965,15.0444336 C358.158691,15.2114266 358.081055,15.5322242 358.081055,16.0068359 L358.081055,16.6660156 L359.926758,16.6660156 L359.926758,18.6083984 L358.081055,18.6083984 L358.081055,26 L355.611328,26 L355.611328,18.6083984 L354.240234,18.6083984 L354.240234,16.6660156 Z M361.31543,15.4003906 L361.31543,13.1152344 L363.785156,13.1152344 L363.785156,15.4003906 L361.31543,15.4003906 Z M361.31543,26 L361.31543,16.6660156 L363.785156,16.6660156 L363.785156,26 L361.31543,26 Z M365.129883,26 L368.496094,21.1923828 L365.270508,16.6660156 L368.285156,16.6660156 L369.9375,19.2324219 L371.677734,16.6660156 L374.578125,16.6660156 L371.414062,21.0869141 L374.868164,26 L371.835938,26 L369.9375,23.1083984 L368.021484,26 L365.129883,26 Z M380.209961,8.7734375 C381.107752,8.7734375 381.969071,8.99788187 382.793945,9.44677734 C383.618819,9.89567282 384.267087,10.5393838 384.73877,11.3779297 C385.210452,12.2164755 385.446289,13.0937454 385.446289,14.0097656 C385.446289,14.9212285 385.215009,15.7905232 384.752441,16.6176758 C384.289874,17.4448284 383.645024,18.0896787 382.817871,18.5522461 C381.990719,19.0148135 381.121424,19.2460938 380.209961,19.2460938 C379.298498,19.2460938 378.429203,19.0148135 377.602051,18.5522461 C376.774898,18.0896787 376.130048,17.4448284 375.66748,16.6176758 C375.204913,15.7905232 374.973633,14.9212285 374.973633,14.0097656 C374.973633,13.0937454 375.20947,12.2164755 375.681152,11.3779297 C376.152834,10.5393838 376.801103,9.89567282 377.625977,9.44677734 C378.45085,8.99788187 379.31217,8.7734375 380.209961,8.7734375 Z M380.216797,9.79882812 C379.496741,9.79882812 378.806318,9.97883935 378.145508,10.3388672 C377.484697,10.698895 376.964032,11.2161425 376.583496,11.890625 C376.20296,12.5651075 376.012695,13.2714807 376.012695,14.0097656 C376.012695,14.7434933 376.198403,15.4430305 376.569824,16.1083984 C376.941245,16.7737663 377.459632,17.2932924 378.125,17.6669922 C378.790368,18.040692 379.487627,18.2275391 380.216797,18.2275391 C380.950525,18.2275391 381.648922,18.040692 382.312012,17.6669922 C382.975101,17.2932924 383.493488,16.7737663 383.867188,16.1083984 C384.240887,15.4430305 384.427734,14.7434933 384.427734,14.0097656 C384.427734,13.2714807 384.237469,12.5651075 383.856934,11.890625 C383.476398,11.2161425 382.954593,10.698895 382.291504,10.3388672 C381.628415,9.97883935 380.936853,9.79882812 380.216797,9.79882812 Z M380.858665,14.381233 C381.024308,14.4443973 381.152148,14.5131198 381.242188,14.5874023 C381.333334,14.662598 381.458658,14.805012 381.618164,15.0146484 C381.65918,15.0693362 381.795897,15.2949199 382.02832,15.6914062 L382.68457,16.8125 L381.290039,16.8125 L380.825195,15.9101562 C380.510741,15.3040334 380.250978,14.9223641 380.045898,14.7651367 C379.840819,14.6079094 379.581056,14.5292969 379.266602,14.5292969 L378.972656,14.5292969 L378.972656,16.8125 L377.844727,16.8125 L377.844727,11.2548828 L378.972656,11.2548828 C380.029953,11.2548828 380.622395,11.2594401 380.75,11.2685547 C381.1237,11.3004559 381.414224,11.3745111 381.621582,11.4907227 C381.82894,11.6069342 382.002115,11.7846668 382.141113,12.0239258 C382.280111,12.2631848 382.349609,12.5286444 382.349609,12.8203125 C382.349609,13.2213562 382.218589,13.5642889 381.956543,13.8491211 C381.6945,14.1339509 381.326506,14.3105437 380.852551,14.3789046 L380.858665,14.381233 Z M378.972656,13.6542969 L379.430664,13.6542969 C380.08236,13.6542969 380.486816,13.629232 380.644043,13.5791016 C380.80127,13.5289711 380.925455,13.4412441 381.016602,13.315918 C381.107748,13.1905918 381.15332,13.0481779 381.15332,12.8886719 C381.15332,12.7337232 381.108887,12.5958665 381.02002,12.4750977 C380.931152,12.3543288 380.804688,12.2677411 380.640625,12.215332 C380.476562,12.1629229 380.073245,12.1367188 379.430664,12.1367188 L378.972656,12.1367188 L378.972656,13.6542969 Z M391.001953,21.8076172 L393.533203,21.5615234 C393.685548,22.4111371 393.994627,23.0351543 394.460449,23.4335938 C394.926272,23.8320332 395.554684,24.03125 396.345703,24.03125 C397.183598,24.03125 397.814939,23.8540057 398.239746,23.4995117 C398.664553,23.1450178 398.876953,22.7304711 398.876953,22.2558594 C398.876953,21.9511704 398.787599,21.6918956 398.608887,21.4780273 C398.430175,21.2641591 398.118166,21.0781258 397.672852,20.9199219 C397.368163,20.8144526 396.673834,20.6269545 395.589844,20.3574219 C394.195306,20.011717 393.2168,19.5869166 392.654297,19.0830078 C391.863277,18.3740199 391.467773,17.5097707 391.467773,16.4902344 C391.467773,15.8339811 391.653807,15.2202177 392.025879,14.6489258 C392.397951,14.0776339 392.934079,13.6425796 393.634277,13.34375 C394.334476,13.0449204 395.179683,12.8955078 396.169922,12.8955078 C397.787117,12.8955078 399.00439,13.2499965 399.821777,13.9589844 C400.639164,14.6679723 401.068359,15.6142519 401.109375,16.7978516 L398.507812,16.9121094 C398.396484,16.2499967 398.157717,15.7739272 397.791504,15.4838867 C397.425291,15.1938462 396.87598,15.0488281 396.143555,15.0488281 C395.387692,15.0488281 394.795901,15.2041 394.368164,15.5146484 C394.092772,15.7138682 393.955078,15.9804671 393.955078,16.3144531 C393.955078,16.6191421 394.083983,16.8798817 394.341797,17.0966797 C394.669924,17.3720717 395.466791,17.6591782 396.732422,17.9580078 C397.998053,18.2568374 398.934079,18.5659164 399.540527,18.8852539 C400.146976,19.2045914 400.62158,19.6411105 400.964355,20.1948242 C401.307131,20.7485379 401.478516,21.4326131 401.478516,22.2470703 C401.478516,22.9853553 401.27344,23.6767546 400.863281,24.3212891 C400.453123,24.9658235 399.873051,25.4448227 399.123047,25.7583008 C398.373043,26.0717789 397.438482,26.2285156 396.319336,26.2285156 C394.690422,26.2285156 393.439457,25.8520545 392.566406,25.0991211 C391.693355,24.3461876 391.171876,23.2490306 391.001953,21.8076172 Z M405.495117,19.5136719 L403.253906,19.109375 C403.505861,18.2070267 403.93945,17.5390647 404.554688,17.1054688 C405.169925,16.6718728 406.083978,16.4550781 407.296875,16.4550781 C408.398443,16.4550781 409.218747,16.5854479 409.757812,16.8461914 C410.296878,17.1069349 410.676268,17.4379863 410.895996,17.8393555 C411.115724,18.2407247 411.225586,18.9775337 411.225586,20.0498047 L411.199219,22.9326172 C411.199219,23.7529338 411.238769,24.3579082 411.317871,24.7475586 C411.396973,25.137209 411.544921,25.5546853 411.761719,26 L409.318359,26 C409.253906,25.8359367 409.174805,25.592775 409.081055,25.2705078 C409.040039,25.1240227 409.010742,25.027344 408.993164,24.9804688 C408.571287,25.3906271 408.12012,25.6982412 407.639648,25.9033203 C407.159177,26.1083995 406.646487,26.2109375 406.101562,26.2109375 C405.14062,26.2109375 404.383304,25.9501979 403.82959,25.4287109 C403.275876,24.907224 402.999023,24.2480509 402.999023,23.4511719 C402.999023,22.9238255 403.124999,22.4536153 403.376953,22.0405273 C403.628908,21.6274393 403.981931,21.3110363 404.436035,21.0913086 C404.890139,20.8715809 405.544918,20.6796883 406.400391,20.515625 C407.554693,20.298827 408.35449,20.0966806 408.799805,19.9091797 L408.799805,19.6630859 C408.799805,19.1884742 408.682618,18.8500987 408.448242,18.6479492 C408.213866,18.4457998 407.771488,18.3447266 407.121094,18.3447266 C406.681638,18.3447266 406.338868,18.4311515 406.092773,18.6040039 C405.846678,18.7768563 405.647462,19.080076 405.495117,19.5136719 Z M408.799805,21.5175781 C408.483397,21.6230474 407.982425,21.7490227 407.296875,21.8955078 C406.611325,22.0419929 406.163087,22.1855462 405.952148,22.3261719 C405.629881,22.5546886 405.46875,22.8447248 405.46875,23.1962891 C405.46875,23.5419939 405.597655,23.8408191 405.855469,24.0927734 C406.113283,24.3447278 406.441404,24.4707031 406.839844,24.4707031 C407.285158,24.4707031 407.709959,24.3242202 408.114258,24.03125 C408.413087,23.8085926 408.609375,23.5361344 408.703125,23.2138672 C408.767578,23.0029286 408.799805,22.6015655 408.799805,22.0097656 L408.799805,21.5175781 Z M412.579102,16.6660156 L413.950195,16.6660156 L413.950195,15.9628906 C413.950195,15.1777304 414.033691,14.5917988 414.200684,14.2050781 C414.367677,13.8183574 414.675291,13.5034192 415.123535,13.2602539 C415.57178,13.0170886 416.138668,12.8955078 416.824219,12.8955078 C417.527347,12.8955078 418.215817,13.0009755 418.889648,13.2119141 L418.555664,14.9345703 C418.163084,14.8408198 417.785158,14.7939453 417.421875,14.7939453 C417.064451,14.7939453 416.808106,14.8774406 416.652832,15.0444336 C416.497558,15.2114266 416.419922,15.5322242 416.419922,16.0068359 L416.419922,16.6660156 L418.265625,16.6660156 L418.265625,18.6083984 L416.419922,18.6083984 L416.419922,26 L413.950195,26 L413.950195,18.6083984 L412.579102,18.6083984 L412.579102,16.6660156 Z M425.05957,23.0292969 L427.520508,23.4423828 C427.2041,24.3447311 426.704593,25.0317359 426.021973,25.503418 C425.339352,25.9751 424.485357,26.2109375 423.459961,26.2109375 C421.836906,26.2109375 420.635746,25.6806694 419.856445,24.6201172 C419.241208,23.7705036 418.933594,22.6982487 418.933594,21.4033203 C418.933594,19.8564376 419.337887,18.6450239 420.146484,17.769043 C420.955082,16.893062 421.977533,16.4550781 423.213867,16.4550781 C424.602546,16.4550781 425.698238,16.9135696 426.500977,17.8305664 C427.303715,18.7475632 427.6875,20.1523343 427.652344,22.0449219 L421.464844,22.0449219 C421.482422,22.7773474 421.681639,23.3471659 422.0625,23.7543945 C422.443361,24.1616231 422.917966,24.3652344 423.486328,24.3652344 C423.873049,24.3652344 424.198241,24.2597667 424.461914,24.0488281 C424.725587,23.8378896 424.924804,23.4980492 425.05957,23.0292969 Z M425.200195,20.5332031 C425.182617,19.8183558 424.998049,19.2749042 424.646484,18.902832 C424.29492,18.5307599 423.86719,18.3447266 423.363281,18.3447266 C422.824216,18.3447266 422.378908,18.5410137 422.027344,18.9335938 C421.675779,19.3261738 421.50293,19.8593716 421.508789,20.5332031 L425.200195,20.5332031 Z M433.945312,16.6660156 L433.945312,18.6347656 L432.257812,18.6347656 L432.257812,22.3964844 C432.257812,23.1582069 432.273926,23.6020502 432.306152,23.7280273 C432.338379,23.8540045 432.411621,23.9580074 432.525879,24.0400391 C432.640137,24.1220707 432.779296,24.1630859 432.943359,24.1630859 C433.171876,24.1630859 433.502928,24.0839852 433.936523,23.9257812 L434.147461,25.8417969 C433.573239,26.0878919 432.922855,26.2109375 432.196289,26.2109375 C431.750974,26.2109375 431.349611,26.1362312 430.992188,25.9868164 C430.634764,25.8374016 430.372559,25.6440442 430.205566,25.4067383 C430.038573,25.1694324 429.922852,24.8486348 429.858398,24.4443359 C429.805664,24.1572251 429.779297,23.5771528 429.779297,22.7041016 L429.779297,18.6347656 L428.645508,18.6347656 L428.645508,16.6660156 L429.779297,16.6660156 L429.779297,14.8115234 L432.257812,13.3701172 L432.257812,16.6660156 L433.945312,16.6660156 Z M434.490234,16.6660156 L437.118164,16.6660156 L439.350586,23.2929688 L441.530273,16.6660156 L444.087891,16.6660156 L440.791992,25.6484375 L440.203125,27.2744141 C439.986327,27.8193387 439.779786,28.2353501 439.583496,28.5224609 C439.387206,28.8095717 439.161622,29.0424796 438.906738,29.2211914 C438.651854,29.3999032 438.338381,29.539062 437.966309,29.6386719 C437.594236,29.7382817 437.17383,29.7880859 436.705078,29.7880859 C436.230466,29.7880859 435.764651,29.7382817 435.307617,29.6386719 L435.087891,27.7050781 C435.474611,27.7812504 435.823241,27.8193359 436.133789,27.8193359 C436.708011,27.8193359 437.132811,27.6508806 437.408203,27.3139648 C437.683595,26.9770491 437.894531,26.5478542 438.041016,26.0263672 L434.490234,16.6660156 Z" id="Vasofix®Safety" fill="#FFFFFF" fill-rule="nonzero"></path>
                <path d="M625.59668,26 L620.991211,13.1152344 L623.8125,13.1152344 L627.073242,22.6513672 L630.228516,13.1152344 L632.988281,13.1152344 L628.374023,26 L625.59668,26 Z M633.972656,15.4003906 L633.972656,13.1152344 L636.442383,13.1152344 L636.442383,15.4003906 L633.972656,15.4003906 Z M633.972656,26 L633.972656,16.6660156 L636.442383,16.6660156 L636.442383,26 L633.972656,26 Z M638.745117,26.6152344 L641.566406,26.9580078 C641.613281,27.2861345 641.721679,27.5117181 641.891602,27.6347656 C642.125978,27.8105478 642.495115,27.8984375 642.999023,27.8984375 C643.643558,27.8984375 644.126952,27.8017588 644.449219,27.6083984 C644.666017,27.4794915 644.830078,27.2714858 644.941406,26.984375 C645.017579,26.7792958 645.055664,26.4013699 645.055664,25.8505859 L645.055664,24.4882812 C644.317379,25.4960988 643.385748,26 642.260742,26 C641.00683,26 640.013676,25.4697319 639.28125,24.4091797 C638.707028,23.5712849 638.419922,22.5283266 638.419922,21.2802734 C638.419922,19.7158125 638.796383,18.5205119 639.549316,17.6943359 C640.30225,16.8681599 641.238276,16.4550781 642.357422,16.4550781 C643.511725,16.4550781 644.463863,16.961909 645.213867,17.9755859 L645.213867,16.6660156 L647.525391,16.6660156 L647.525391,25.0419922 C647.525391,26.1435602 647.434571,26.9667942 647.25293,27.5117188 C647.071288,28.0566433 646.816408,28.4843734 646.488281,28.7949219 C646.160155,29.1054703 645.722171,29.3486319 645.174316,29.5244141 C644.626462,29.7001962 643.933598,29.7880859 643.095703,29.7880859 C641.513664,29.7880859 640.391605,29.5170926 639.729492,28.9750977 C639.06738,28.4331028 638.736328,27.7460979 638.736328,26.9140625 C638.736328,26.8320308 638.739258,26.7324225 638.745117,26.6152344 Z M640.951172,21.1396484 C640.951172,22.1298878 641.143064,22.8549782 641.526855,23.3149414 C641.910646,23.7749046 642.383786,24.0048828 642.946289,24.0048828 C643.549808,24.0048828 644.059568,23.7690453 644.475586,23.2973633 C644.891604,22.8256812 645.099609,22.1269578 645.099609,21.2011719 C645.099609,20.2343702 644.900393,19.5166039 644.501953,19.0478516 C644.103514,18.5790992 643.599612,18.3447266 642.990234,18.3447266 C642.398435,18.3447266 641.910646,18.5747047 641.526855,19.034668 C641.143064,19.4946312 640.951172,20.1962843 640.951172,21.1396484 Z M649.78418,16.6660156 L652.060547,16.6660156 L652.060547,17.9404297 C652.875004,16.9501904 653.844721,16.4550781 654.969727,16.4550781 C655.567386,16.4550781 656.085935,16.5781238 656.525391,16.8242188 C656.964846,17.0703137 657.325194,17.4423803 657.606445,17.9404297 C658.016604,17.4423803 658.458982,17.0703137 658.933594,16.8242188 C659.408205,16.5781238 659.915036,16.4550781 660.454102,16.4550781 C661.139652,16.4550781 661.719724,16.5942369 662.194336,16.8725586 C662.668948,17.1508803 663.023436,17.5595676 663.257812,18.0986328 C663.427735,18.4970723 663.512695,19.1415971 663.512695,20.0322266 L663.512695,26 L661.042969,26 L661.042969,20.6650391 C661.042969,19.7392532 660.958009,19.1416029 660.788086,18.8720703 C660.559569,18.5205061 660.20801,18.3447266 659.733398,18.3447266 C659.387694,18.3447266 659.062502,18.4501943 658.757812,18.6611328 C658.453123,18.8720714 658.233399,19.1811503 658.098633,19.5883789 C657.963867,19.9956075 657.896484,20.6386675 657.896484,21.5175781 L657.896484,26 L655.426758,26 L655.426758,20.8847656 C655.426758,19.976558 655.382813,19.3906263 655.294922,19.1269531 C655.207031,18.8632799 655.070802,18.6669928 654.88623,18.5380859 C654.701659,18.409179 654.451173,18.3447266 654.134766,18.3447266 C653.753904,18.3447266 653.411134,18.4472646 653.106445,18.6523438 C652.801756,18.8574229 652.583497,19.1533184 652.45166,19.5400391 C652.319824,19.9267597 652.253906,20.5683549 652.253906,21.4648438 L652.253906,26 L649.78418,26 L649.78418,16.6660156 Z M671.378906,23.0292969 L673.839844,23.4423828 C673.523436,24.3447311 673.023929,25.0317359 672.341309,25.503418 C671.658688,25.9751 670.804693,26.2109375 669.779297,26.2109375 C668.156242,26.2109375 666.955082,25.6806694 666.175781,24.6201172 C665.560544,23.7705036 665.25293,22.6982487 665.25293,21.4033203 C665.25293,19.8564376 665.657223,18.6450239 666.46582,17.769043 C667.274418,16.893062 668.296869,16.4550781 669.533203,16.4550781 C670.921882,16.4550781 672.017574,16.9135696 672.820312,17.8305664 C673.623051,18.7475632 674.006836,20.1523343 673.97168,22.0449219 L667.78418,22.0449219 C667.801758,22.7773474 668.000975,23.3471659 668.381836,23.7543945 C668.762697,24.1616231 669.237302,24.3652344 669.805664,24.3652344 C670.192385,24.3652344 670.517577,24.2597667 670.78125,24.0488281 C671.044923,23.8378896 671.24414,23.4980492 671.378906,23.0292969 Z M671.519531,20.5332031 C671.501953,19.8183558 671.317385,19.2749042 670.96582,18.902832 C670.614256,18.5307599 670.186526,18.3447266 669.682617,18.3447266 C669.143552,18.3447266 668.698244,18.5410137 668.34668,18.9335938 C667.995115,19.3261738 667.822266,19.8593716 667.828125,20.5332031 L671.519531,20.5332031 Z M684.544922,26 L682.250977,26 L682.250977,24.6289062 C681.870115,25.162112 681.420413,25.5590807 680.901855,25.8198242 C680.383298,26.0805677 679.860354,26.2109375 679.333008,26.2109375 C678.260737,26.2109375 677.342289,25.7788129 676.577637,24.9145508 C675.812984,24.0502886 675.430664,22.8447343 675.430664,21.2978516 C675.430664,19.7158124 675.802731,18.5131877 676.546875,17.6899414 C677.291019,16.8666951 678.23144,16.4550781 679.368164,16.4550781 C680.411138,16.4550781 681.313473,16.8886675 682.075195,17.7558594 L682.075195,13.1152344 L684.544922,13.1152344 L684.544922,26 Z M677.953125,21.1308594 C677.953125,22.1269581 678.090819,22.847654 678.366211,23.2929688 C678.76465,23.9375032 679.321285,24.2597656 680.036133,24.2597656 C680.604495,24.2597656 681.087889,24.0180688 681.486328,23.534668 C681.884768,23.0512671 682.083984,22.3291064 682.083984,21.3681641 C682.083984,20.2958931 681.890627,19.5239281 681.503906,19.0522461 C681.117186,18.580564 680.622073,18.3447266 680.018555,18.3447266 C679.432614,18.3447266 678.941897,18.5776344 678.546387,19.043457 C678.150877,19.5092797 677.953125,20.2050735 677.953125,21.1308594 Z M690.862305,8.7734375 C691.760096,8.7734375 692.621415,8.99788187 693.446289,9.44677734 C694.271163,9.89567282 694.919431,10.5393838 695.391113,11.3779297 C695.862795,12.2164755 696.098633,13.0937454 696.098633,14.0097656 C696.098633,14.9212285 695.867353,15.7905232 695.404785,16.6176758 C694.942218,17.4448284 694.297367,18.0896787 693.470215,18.5522461 C692.643062,19.0148135 691.773768,19.2460938 690.862305,19.2460938 C689.950842,19.2460938 689.081547,19.0148135 688.254395,18.5522461 C687.427242,18.0896787 686.782392,17.4448284 686.319824,16.6176758 C685.857257,15.7905232 685.625977,14.9212285 685.625977,14.0097656 C685.625977,13.0937454 685.861814,12.2164755 686.333496,11.3779297 C686.805178,10.5393838 687.453446,9.89567282 688.27832,9.44677734 C689.103194,8.99788187 689.964514,8.7734375 690.862305,8.7734375 Z M690.869141,9.79882812 C690.149085,9.79882812 689.458662,9.97883935 688.797852,10.3388672 C688.137041,10.698895 687.616376,11.2161425 687.23584,11.890625 C686.855304,12.5651075 686.665039,13.2714807 686.665039,14.0097656 C686.665039,14.7434933 686.850747,15.4430305 687.222168,16.1083984 C687.593589,16.7737663 688.111976,17.2932924 688.777344,17.6669922 C689.442712,18.040692 690.13997,18.2275391 690.869141,18.2275391 C691.602868,18.2275391 692.301266,18.040692 692.964355,17.6669922 C693.627445,17.2932924 694.145831,16.7737663 694.519531,16.1083984 C694.893231,15.4430305 695.080078,14.7434933 695.080078,14.0097656 C695.080078,13.2714807 694.889813,12.5651075 694.509277,11.890625 C694.128742,11.2161425 693.606937,10.698895 692.943848,10.3388672 C692.280758,9.97883935 691.589196,9.79882812 690.869141,9.79882812 Z M691.511008,14.381233 C691.676652,14.4443973 691.804492,14.5131198 691.894531,14.5874023 C691.985678,14.662598 692.111002,14.805012 692.270508,15.0146484 C692.311524,15.0693362 692.448241,15.2949199 692.680664,15.6914062 L693.336914,16.8125 L691.942383,16.8125 L691.477539,15.9101562 C691.163084,15.3040334 690.903321,14.9223641 690.698242,14.7651367 C690.493163,14.6079094 690.2334,14.5292969 689.918945,14.5292969 L689.625,14.5292969 L689.625,16.8125 L688.49707,16.8125 L688.49707,11.2548828 L689.625,11.2548828 C690.682297,11.2548828 691.274739,11.2594401 691.402344,11.2685547 C691.776044,11.3004559 692.066568,11.3745111 692.273926,11.4907227 C692.481284,11.6069342 692.654459,11.7846668 692.793457,12.0239258 C692.932455,12.2631848 693.001953,12.5286444 693.001953,12.8203125 C693.001953,13.2213562 692.870932,13.5642889 692.608887,13.8491211 C692.346843,14.1339509 691.978849,14.3105437 691.504894,14.3789046 L691.511008,14.381233 Z M689.625,13.6542969 L690.083008,13.6542969 C690.734704,13.6542969 691.139159,13.629232 691.296387,13.5791016 C691.453614,13.5289711 691.577799,13.4412441 691.668945,13.315918 C691.760092,13.1905918 691.805664,13.0481779 691.805664,12.8886719 C691.805664,12.7337232 691.761231,12.5958665 691.672363,12.4750977 C691.583496,12.3543288 691.457032,12.2677411 691.292969,12.215332 C691.128905,12.1629229 690.725589,12.1367188 690.083008,12.1367188 L689.625,12.1367188 L689.625,13.6542969 Z M700.96875,22.2558594 L700.96875,20.4101562 L710.979492,20.4101562 L710.979492,22.2558594 L700.96875,22.2558594 Z M725.569336,21.2626953 L728.091797,22.0625 C727.705076,23.468757 727.062016,24.5131802 726.162598,25.1958008 C725.263179,25.8784214 724.122077,26.2197266 722.739258,26.2197266 C721.028312,26.2197266 719.622076,25.6352598 718.520508,24.4663086 C717.41894,23.2973574 716.868164,21.6992289 716.868164,19.671875 C716.868164,17.527333 717.421869,15.8618223 718.529297,14.675293 C719.636724,13.4887636 721.092764,12.8955078 722.897461,12.8955078 C724.473641,12.8955078 725.753901,13.3613235 726.738281,14.2929688 C727.324222,14.8437528 727.76367,15.6347605 728.056641,16.6660156 L725.481445,17.28125 C725.329101,16.6132779 725.011233,16.0859394 724.527832,15.6992188 C724.044431,15.3124981 723.457035,15.1191406 722.765625,15.1191406 C721.810542,15.1191406 721.035648,15.4619106 720.440918,16.1474609 C719.846188,16.8330112 719.548828,17.9433517 719.548828,19.4785156 C719.548828,21.10743 719.841794,22.2675747 720.427734,22.9589844 C721.013675,23.6503941 721.775386,23.9960938 722.712891,23.9960938 C723.4043,23.9960938 723.999021,23.7763694 724.49707,23.3369141 C724.99512,22.8974587 725.352538,22.2060594 725.569336,21.2626953 Z M730.394531,26 L730.394531,13.2207031 L732.996094,13.2207031 L732.996094,23.8291016 L739.464844,23.8291016 L739.464844,26 L730.394531,26 Z M741.301758,15.4003906 L741.301758,13.1152344 L743.771484,13.1152344 L743.771484,15.4003906 L741.301758,15.4003906 Z M741.301758,26 L741.301758,16.6660156 L743.771484,16.6660156 L743.771484,26 L741.301758,26 Z M746.320312,26 L746.320312,13.1152344 L750.495117,13.1152344 C752.077156,13.1152344 753.108396,13.1796869 753.588867,13.3085938 C754.327152,13.5019541 754.94531,13.92236 755.443359,14.5698242 C755.941409,15.2172884 756.19043,16.0537058 756.19043,17.0791016 C756.19043,17.8701211 756.046876,18.5351536 755.759766,19.0742188 C755.472655,19.6132839 755.107912,20.0366196 754.665527,20.3442383 C754.223142,20.651857 753.77344,20.8554683 753.316406,20.9550781 C752.695309,21.0781256 751.795904,21.1396484 750.618164,21.1396484 L748.921875,21.1396484 L748.921875,26 L746.320312,26 Z M748.921875,15.2949219 L748.921875,18.9511719 L750.345703,18.9511719 C751.371099,18.9511719 752.056639,18.8837897 752.402344,18.7490234 C752.748049,18.6142571 753.019042,18.4033217 753.215332,18.1162109 C753.411622,17.8291001 753.509766,17.4951191 753.509766,17.1142578 C753.509766,16.6455055 753.372072,16.2587906 753.09668,15.9541016 C752.821288,15.6494125 752.472658,15.4589848 752.050781,15.3828125 C751.740233,15.3242185 751.116216,15.2949219 750.178711,15.2949219 L748.921875,15.2949219 Z M762.191406,8.7734375 C763.089197,8.7734375 763.950517,8.99788187 764.775391,9.44677734 C765.600265,9.89567282 766.248533,10.5393838 766.720215,11.3779297 C767.191897,12.2164755 767.427734,13.0937454 767.427734,14.0097656 C767.427734,14.9212285 767.196454,15.7905232 766.733887,16.6176758 C766.271319,17.4448284 765.626469,18.0896787 764.799316,18.5522461 C763.972164,19.0148135 763.102869,19.2460938 762.191406,19.2460938 C761.279943,19.2460938 760.410649,19.0148135 759.583496,18.5522461 C758.756344,18.0896787 758.111493,17.4448284 757.648926,16.6176758 C757.186358,15.7905232 756.955078,14.9212285 756.955078,14.0097656 C756.955078,13.0937454 757.190916,12.2164755 757.662598,11.3779297 C758.13428,10.5393838 758.782548,9.89567282 759.607422,9.44677734 C760.432296,8.99788187 761.293615,8.7734375 762.191406,8.7734375 Z M762.198242,9.79882812 C761.478187,9.79882812 760.787764,9.97883935 760.126953,10.3388672 C759.466143,10.698895 758.945477,11.2161425 758.564941,11.890625 C758.184406,12.5651075 757.994141,13.2714807 757.994141,14.0097656 C757.994141,14.7434933 758.179848,15.4430305 758.55127,16.1083984 C758.922691,16.7737663 759.441077,17.2932924 760.106445,17.6669922 C760.771813,18.040692 761.469072,18.2275391 762.198242,18.2275391 C762.93197,18.2275391 763.630368,18.040692 764.293457,17.6669922 C764.956546,17.2932924 765.474933,16.7737663 765.848633,16.1083984 C766.222333,15.4430305 766.40918,14.7434933 766.40918,14.0097656 C766.40918,13.2714807 766.218915,12.5651075 765.838379,11.890625 C765.457843,11.2161425 764.936038,10.698895 764.272949,10.3388672 C763.60986,9.97883935 762.918298,9.79882812 762.198242,9.79882812 Z M762.84011,14.381233 C763.005754,14.4443973 763.133593,14.5131198 763.223633,14.5874023 C763.314779,14.662598 763.440103,14.805012 763.599609,15.0146484 C763.640625,15.0693362 763.777343,15.2949199 764.009766,15.6914062 L764.666016,16.8125 L763.271484,16.8125 L762.806641,15.9101562 C762.492186,15.3040334 762.232423,14.9223641 762.027344,14.7651367 C761.822265,14.6079094 761.562502,14.5292969 761.248047,14.5292969 L760.954102,14.5292969 L760.954102,16.8125 L759.826172,16.8125 L759.826172,11.2548828 L760.954102,11.2548828 C762.011399,11.2548828 762.603841,11.2594401 762.731445,11.2685547 C763.105145,11.3004559 763.39567,11.3745111 763.603027,11.4907227 C763.810385,11.6069342 763.983561,11.7846668 764.122559,12.0239258 C764.261557,12.2631848 764.331055,12.5286444 764.331055,12.8203125 C764.331055,13.2213562 764.200034,13.5642889 763.937988,13.8491211 C763.675945,14.1339509 763.307951,14.3105437 762.833996,14.3789046 L762.84011,14.381233 Z M760.954102,13.6542969 L761.412109,13.6542969 C762.063805,13.6542969 762.468261,13.629232 762.625488,13.5791016 C762.782716,13.5289711 762.906901,13.4412441 762.998047,13.315918 C763.089193,13.1905918 763.134766,13.0481779 763.134766,12.8886719 C763.134766,12.7337232 763.090332,12.5958665 763.001465,12.4750977 C762.912597,12.3543288 762.786134,12.2677411 762.62207,12.215332 C762.458007,12.1629229 762.054691,12.1367188 761.412109,12.1367188 L760.954102,12.1367188 L760.954102,13.6542969 Z M776.929688,26 L772.324219,13.1152344 L775.145508,13.1152344 L778.40625,22.6513672 L781.561523,13.1152344 L784.321289,13.1152344 L779.707031,26 L776.929688,26 Z M790.042969,23.0292969 L792.503906,23.4423828 C792.187498,24.3447311 791.687992,25.0317359 791.005371,25.503418 C790.32275,25.9751 789.468755,26.2109375 788.443359,26.2109375 C786.820304,26.2109375 785.619145,25.6806694 784.839844,24.6201172 C784.224606,23.7705036 783.916992,22.6982487 783.916992,21.4033203 C783.916992,19.8564376 784.321285,18.6450239 785.129883,17.769043 C785.938481,16.893062 786.960931,16.4550781 788.197266,16.4550781 C789.585944,16.4550781 790.681637,16.9135696 791.484375,17.8305664 C792.287113,18.7475632 792.670899,20.1523343 792.635742,22.0449219 L786.448242,22.0449219 C786.46582,22.7773474 786.665037,23.3471659 787.045898,23.7543945 C787.42676,24.1616231 787.901364,24.3652344 788.469727,24.3652344 C788.856447,24.3652344 789.181639,24.2597667 789.445312,24.0488281 C789.708986,23.8378896 789.908202,23.4980492 790.042969,23.0292969 Z M790.183594,20.5332031 C790.166016,19.8183558 789.981447,19.2749042 789.629883,18.902832 C789.278319,18.5307599 788.850588,18.3447266 788.34668,18.3447266 C787.807614,18.3447266 787.362306,18.5410137 787.010742,18.9335938 C786.659178,19.3261738 786.486328,19.8593716 786.492188,20.5332031 L790.183594,20.5332031 Z M803.138672,26 L800.668945,26 L800.668945,21.2363281 C800.668945,20.2285106 800.616211,19.5766616 800.510742,19.2807617 C800.405273,18.9848618 800.233888,18.7548836 799.996582,18.5908203 C799.759276,18.426757 799.473634,18.3447266 799.139648,18.3447266 C798.711912,18.3447266 798.328127,18.4619129 797.988281,18.6962891 C797.648436,18.9306652 797.415528,19.241209 797.289551,19.6279297 C797.163574,20.0146504 797.100586,20.729487 797.100586,21.7724609 L797.100586,26 L794.630859,26 L794.630859,16.6660156 L796.924805,16.6660156 L796.924805,18.0371094 C797.739262,16.9824166 798.764642,16.4550781 800.000977,16.4550781 C800.545901,16.4550781 801.043943,16.5532217 801.495117,16.7495117 C801.946291,16.9458018 802.287596,17.1962875 802.519043,17.5009766 C802.750489,17.8056656 802.911621,18.1513653 803.002441,18.5380859 C803.093262,18.9248066 803.138672,19.478512 803.138672,20.1992188 L803.138672,26 Z" id="Vigmed®–CLiP®Ven" fill="#373737" fill-rule="nonzero"></path>
            </g>
        </g>
    </g>
</svg>