<?xml version="1.0" encoding="UTF-8"?>
<svg width="913px" height="556px" viewBox="0 0 913 556" version="1.1" xmlns="http://www.w3.org/2000/svg" xmlns:xlink="http://www.w3.org/1999/xlink">
    <!-- Generator: Sketch 53.2 (72643) - https://sketchapp.com -->
    <title>Group</title>
    <desc>Created with Sketch.</desc>
    <g id="7.-Product-Comparison" stroke="none" stroke-width="1" fill="none" fill-rule="evenodd">
        <g id="BD-Venflon-Pro-Safety" transform="translate(-56.000000, -184.000000)">
            <g id="Group" transform="translate(56.000000, 184.000000)">
                <polygon id="Rectangle" fill-opacity="0.75" fill="#00B482" points="300 0 601 0 601 556 300 556"></polygon>
                <text id="Yes" font-family="ArialMT, Arial" font-size="18" font-weight="normal" fill="#FFFFFF">
                    <tspan x="310" y="69">Yes</tspan>
                </text>
                <text id="No" font-family="ArialMT, Arial" font-size="18" font-weight="normal" fill="#373737">
                    <tspan x="621" y="69">No</tspan>
                </text>
                <text id="3-years" font-family="ArialMT, Arial" font-size="18" font-weight="normal" fill="#373737">
                    <tspan x="621" y="112">3 years</tspan>
                </text>
                <text id="G14-–-G22" font-family="ArialMT, Arial" font-size="18" font-weight="normal" fill="#373737">
                    <tspan x="621" y="155">G14 – G22</tspan>
                </text>
                <text id="Yes-(Automatic/Passi" font-family="ArialMT, Arial" font-size="18" font-weight="normal" fill="#373737">
                    <tspan x="621" y="369">Yes (Automatic/Passive)</tspan>
                </text>
                <text id="25mm-–-45mm" font-family="ArialMT, Arial" font-size="18" font-weight="normal" fill="#373737">
                    <tspan x="621" y="198">25mm – 45mm</tspan>
                </text>
                <text id="No-Anti-Bypass-Desig" font-family="ArialMT, Arial" font-size="18" font-weight="normal" fill="#373737">
                    <tspan x="621" y="412">No Anti-Bypass Design</tspan>
                </text>
                <text id="PUR" font-family="ArialMT, Arial" font-size="18" font-weight="normal" fill="#373737">
                    <tspan x="621" y="240">PUR</tspan>
                </text>
                <text id="No" font-family="ArialMT, Arial" font-size="18" font-weight="normal" fill="#373737">
                    <tspan x="621" y="454">No</tspan>
                </text>
                <text id="Milky" font-family="ArialMT, Arial" font-size="18" font-weight="normal" fill="#373737">
                    <tspan x="621" y="283">Milky</tspan>
                </text>
                <text id="No-Copy-2" font-family="ArialMT, Arial" font-size="18" font-weight="normal" fill="#373737">
                    <tspan x="621" y="497">No</tspan>
                </text>
                <text id="No" font-family="ArialMT, Arial" font-size="18" font-weight="normal" fill="#373737">
                    <tspan x="621" y="326">No</tspan>
                </text>
                <text id="5-years" font-family="ArialMT, Arial" font-size="18" font-weight="normal" fill="#FFFFFF">
                    <tspan x="310" y="112">5 years</tspan>
                </text>
                <text id="G14-–-G24" font-family="ArialMT, Arial" font-size="18" font-weight="normal" fill="#FFFFFF">
                    <tspan x="310" y="155">G14 – G24</tspan>
                </text>
                <text id="Yes-(Automatic/Passi" font-family="ArialMT, Arial" font-size="18" font-weight="normal" fill="#FFFFFF">
                    <tspan x="310" y="369">Yes (Automatic/Passive)</tspan>
                </text>
                <text id="19mm-–-50mm" font-family="ArialMT, Arial" font-size="18" font-weight="normal" fill="#FFFFFF">
                    <tspan x="310" y="198">19mm – 50mm</tspan>
                </text>
                <text id="Anti-Bypass-Design" font-family="ArialMT, Arial" font-size="18" font-weight="normal" fill="#FFFFFF">
                    <tspan x="310" y="412">Anti-Bypass Design</tspan>
                </text>
                <text id="FEP-&amp;-PUR" font-family="ArialMT, Arial" font-size="18" font-weight="normal" fill="#FFFFFF">
                    <tspan x="310" y="240">FEP &amp; PUR</tspan>
                </text>
                <text id="Yes" font-family="ArialMT, Arial" font-size="18" font-weight="normal" fill="#FFFFFF">
                    <tspan x="310" y="454">Yes</tspan>
                </text>
                <text id="Clear" font-family="ArialMT, Arial" font-size="18" font-weight="normal" fill="#FFFFFF">
                    <tspan x="310" y="283">Clear</tspan>
                </text>
                <text id="Yes-Copy-2" font-family="ArialMT, Arial" font-size="18" font-weight="normal" fill="#FFFFFF">
                    <tspan x="310" y="497">Yes</tspan>
                </text>
                <text id="Yes" font-family="ArialMT, Arial" font-size="18" font-weight="normal" fill="#FFFFFF">
                    <tspan x="310" y="326">Yes</tspan>
                </text>
                <text id="With-holes" font-family="ArialMT, Arial" font-size="18" font-weight="normal" fill="#FFFFFF">
                    <tspan x="310" y="540">With holes</tspan>
                </text>
                <text id="Color-Coded-Blister" font-family="ArialMT, Arial" font-size="18" font-weight="normal" fill="#373737">
                    <tspan x="1" y="69">Color Coded Blister Packaging</tspan>
                </text>
                <text id="Shelf-Life" font-family="ArialMT, Arial" font-size="18" font-weight="normal" fill="#373737">
                    <tspan x="0" y="112">Shelf Life</tspan>
                </text>
                <text id="Available-Catheter-L" font-family="ArialMT, Arial" font-size="18" font-weight="normal" fill="#373737">
                    <tspan x="0" y="198">Available Catheter Lengths</tspan>
                </text>
                <text id="Anti-Bypass-Design" font-family="ArialMT, Arial" font-size="18" font-weight="normal" fill="#373737">
                    <tspan x="0" y="412">Anti-Bypass Design</tspan>
                </text>
                <text id="Catheter-Material" font-family="ArialMT, Arial" font-size="18" font-weight="normal" fill="#373737">
                    <tspan x="0" y="240">Catheter Material</tspan>
                </text>
                <text id="Close-off-Port" font-family="ArialMT, Arial" font-size="18" font-weight="normal" fill="#373737">
                    <tspan x="0" y="454">Close-off Port</tspan>
                </text>
                <text id="Available-Gauge-Size" font-family="ArialMT, Arial" font-size="18" font-weight="normal" fill="#373737">
                    <tspan x="1" y="155">Available Gauge Sizes</tspan>
                </text>
                <text id="Safety-Mechanism" font-family="ArialMT, Arial" font-size="18" font-weight="normal" fill="#373737">
                    <tspan x="1" y="369">Safety Mechanism</tspan>
                </text>
                <text id="Transparency-Flashba" font-family="ArialMT, Arial" font-size="18" font-weight="normal" fill="#373737">
                    <tspan x="1" y="283">Transparency Flashback Chamber</tspan>
                </text>
                <text id="Centralized-Injectio" font-family="ArialMT, Arial" font-size="18" font-weight="normal" fill="#373737">
                    <tspan x="1" y="497">Centralized Injection Port</tspan>
                </text>
                <text id="Color-Coded-Wing" font-family="ArialMT, Arial" font-size="18" font-weight="normal" fill="#373737">
                    <tspan x="1" y="326">Color Coded Wing</tspan>
                </text>
                <text id="Fixation-Wings" font-family="ArialMT, Arial" font-size="18" font-weight="normal" fill="#373737">
                    <tspan x="1" y="540">Fixation Wings</tspan>
                </text>
                <path d="M0.5,84.5 L911.59275,84.5" id="Line" stroke="#FFFFFF" stroke-linecap="square"></path>
                <path d="M0.5,127.5 L911.59275,127.5" id="Line" stroke="#FFFFFF" stroke-linecap="square"></path>
                <path d="M0.5,341.5 L911.59275,341.5" id="Line-Copy" stroke="#FFFFFF" stroke-linecap="square"></path>
                <path d="M0.5,170.5 L911.59275,170.5" id="Line" stroke="#FFFFFF" stroke-linecap="square"></path>
                <path d="M0.5,384.5 L911.59275,384.5" id="Line-Copy-2" stroke="#FFFFFF" stroke-linecap="square"></path>
                <path d="M0.5,213.5 L911.59275,213.5" id="Line" stroke="#FFFFFF" stroke-linecap="square"></path>
                <path d="M0.5,427.5 L911.59275,427.5" id="Line-Copy-3" stroke="#FFFFFF" stroke-linecap="square"></path>
                <path d="M0.5,255.5 L911.59275,255.5" id="Line" stroke="#FFFFFF" stroke-linecap="square"></path>
                <path d="M0.5,469.5 L911.59275,469.5" id="Line-Copy-4" stroke="#FFFFFF" stroke-linecap="square"></path>
                <path d="M0.5,298.5 L911.59275,298.5" id="Line" stroke="#FFFFFF" stroke-linecap="square"></path>
                <path d="M0.5,512.5 L911.59275,512.5" id="Line-Copy-5" stroke="#FFFFFF" stroke-linecap="square"></path>
                <path d="M0.5,41.5 L911.59275,41.5" id="Line" stroke="#FFFFFF" stroke-linecap="square"></path>
                <path d="M316.59668,26 L311.991211,13.1152344 L314.8125,13.1152344 L318.073242,22.6513672 L321.228516,13.1152344 L323.988281,13.1152344 L319.374023,26 L316.59668,26 Z M326.150391,19.5136719 L323.90918,19.109375 C324.161134,18.2070267 324.594723,17.5390647 325.209961,17.1054688 C325.825198,16.6718728 326.739252,16.4550781 327.952148,16.4550781 C329.053716,16.4550781 329.874021,16.5854479 330.413086,16.8461914 C330.952151,17.1069349 331.331542,17.4379863 331.55127,17.8393555 C331.770997,18.2407247 331.880859,18.9775337 331.880859,20.0498047 L331.854492,22.9326172 C331.854492,23.7529338 331.894043,24.3579082 331.973145,24.7475586 C332.052246,25.137209 332.200194,25.5546853 332.416992,26 L329.973633,26 C329.909179,25.8359367 329.830079,25.592775 329.736328,25.2705078 C329.695312,25.1240227 329.666016,25.027344 329.648438,24.9804688 C329.22656,25.3906271 328.775393,25.6982412 328.294922,25.9033203 C327.814451,26.1083995 327.301761,26.2109375 326.756836,26.2109375 C325.795894,26.2109375 325.038577,25.9501979 324.484863,25.4287109 C323.93115,24.907224 323.654297,24.2480509 323.654297,23.4511719 C323.654297,22.9238255 323.780272,22.4536153 324.032227,22.0405273 C324.284181,21.6274393 324.637205,21.3110363 325.091309,21.0913086 C325.545412,20.8715809 326.200191,20.6796883 327.055664,20.515625 C328.209967,20.298827 329.009763,20.0966806 329.455078,19.9091797 L329.455078,19.6630859 C329.455078,19.1884742 329.337892,18.8500987 329.103516,18.6479492 C328.869139,18.4457998 328.426761,18.3447266 327.776367,18.3447266 C327.336912,18.3447266 326.994142,18.4311515 326.748047,18.6040039 C326.501952,18.7768563 326.302735,19.080076 326.150391,19.5136719 Z M329.455078,21.5175781 C329.13867,21.6230474 328.637699,21.7490227 327.952148,21.8955078 C327.266598,22.0419929 326.81836,22.1855462 326.607422,22.3261719 C326.285155,22.5546886 326.124023,22.8447248 326.124023,23.1962891 C326.124023,23.5419939 326.252928,23.8408191 326.510742,24.0927734 C326.768556,24.3447278 327.096678,24.4707031 327.495117,24.4707031 C327.940432,24.4707031 328.365232,24.3242202 328.769531,24.03125 C329.068361,23.8085926 329.264648,23.5361344 329.358398,23.2138672 C329.422852,23.0029286 329.455078,22.6015655 329.455078,22.0097656 L329.455078,21.5175781 Z M333.445312,23.3369141 L335.923828,22.9589844 C336.029297,23.4394555 336.243162,23.804198 336.56543,24.0532227 C336.887697,24.3022473 337.338864,24.4267578 337.918945,24.4267578 C338.55762,24.4267578 339.038084,24.3095715 339.360352,24.0751953 C339.57715,23.911132 339.685547,23.6914076 339.685547,23.4160156 C339.685547,23.2285147 339.626954,23.0732428 339.509766,22.9501953 C339.386718,22.8330072 339.11133,22.7246099 338.683594,22.625 C336.691396,22.1855447 335.428714,21.7841815 334.895508,21.4208984 C334.157223,20.9169897 333.788086,20.2168014 333.788086,19.3203125 C333.788086,18.5117147 334.107419,17.832034 334.746094,17.28125 C335.384769,16.730466 336.374993,16.4550781 337.716797,16.4550781 C338.994147,16.4550781 339.943356,16.6630839 340.564453,17.0791016 C341.18555,17.4951193 341.61328,18.1103475 341.847656,18.9248047 L339.518555,19.3554688 C339.418945,18.9921857 339.229982,18.7138682 338.95166,18.5205078 C338.673338,18.3271475 338.27637,18.2304688 337.760742,18.2304688 C337.110348,18.2304688 336.644533,18.3212882 336.363281,18.5029297 C336.17578,18.6318366 336.082031,18.7988271 336.082031,19.0039062 C336.082031,19.1796884 336.164062,19.3291009 336.328125,19.4521484 C336.550782,19.6162118 337.319818,19.8476548 338.635254,20.1464844 C339.95069,20.445314 340.869138,20.8115213 341.390625,21.2451172 C341.906253,21.6845725 342.164062,22.2968711 342.164062,23.0820312 C342.164062,23.9375043 341.806644,24.6728485 341.091797,25.2880859 C340.37695,25.9033234 339.319343,26.2109375 337.918945,26.2109375 C336.647455,26.2109375 335.641117,25.9531276 334.899902,25.4375 C334.158688,24.9218724 333.673829,24.2216841 333.445312,23.3369141 Z M343.754883,21.2011719 C343.754883,20.3808553 343.957029,19.5869179 344.361328,18.8193359 C344.765627,18.051754 345.338375,17.4658223 346.07959,17.0615234 C346.820804,16.6572245 347.648433,16.4550781 348.5625,16.4550781 C349.974616,16.4550781 351.131831,16.9135696 352.03418,17.8305664 C352.936528,18.7475632 353.387695,19.906243 353.387695,21.3066406 C353.387695,22.7187571 352.932133,23.8891555 352.020996,24.8178711 C351.109859,25.7465867 349.962898,26.2109375 348.580078,26.2109375 C347.724605,26.2109375 346.908695,26.0175801 346.132324,25.6308594 C345.355953,25.2441387 344.765627,24.6772498 344.361328,23.9301758 C343.957029,23.1831017 343.754883,22.2734429 343.754883,21.2011719 Z M346.286133,21.3330078 C346.286133,22.2587937 346.505857,22.967771 346.945312,23.4599609 C347.384768,23.9521509 347.926755,24.1982422 348.571289,24.1982422 C349.215824,24.1982422 349.756345,23.9521509 350.192871,23.4599609 C350.629397,22.967771 350.847656,22.2529344 350.847656,21.3154297 C350.847656,20.4013626 350.629397,19.6982446 350.192871,19.2060547 C349.756345,18.7138647 349.215824,18.4677734 348.571289,18.4677734 C347.926755,18.4677734 347.384768,18.7138647 346.945312,19.2060547 C346.505857,19.6982446 346.286133,20.4072219 346.286133,21.3330078 Z M354.240234,16.6660156 L355.611328,16.6660156 L355.611328,15.9628906 C355.611328,15.1777304 355.694823,14.5917988 355.861816,14.2050781 C356.028809,13.8183574 356.336424,13.5034192 356.784668,13.2602539 C357.232912,13.0170886 357.799801,12.8955078 358.485352,12.8955078 C359.18848,12.8955078 359.87695,13.0009755 360.550781,13.2119141 L360.216797,14.9345703 C359.824217,14.8408198 359.446291,14.7939453 359.083008,14.7939453 C358.725584,14.7939453 358.469239,14.8774406 358.313965,15.0444336 C358.158691,15.2114266 358.081055,15.5322242 358.081055,16.0068359 L358.081055,16.6660156 L359.926758,16.6660156 L359.926758,18.6083984 L358.081055,18.6083984 L358.081055,26 L355.611328,26 L355.611328,18.6083984 L354.240234,18.6083984 L354.240234,16.6660156 Z M361.31543,15.4003906 L361.31543,13.1152344 L363.785156,13.1152344 L363.785156,15.4003906 L361.31543,15.4003906 Z M361.31543,26 L361.31543,16.6660156 L363.785156,16.6660156 L363.785156,26 L361.31543,26 Z M365.129883,26 L368.496094,21.1923828 L365.270508,16.6660156 L368.285156,16.6660156 L369.9375,19.2324219 L371.677734,16.6660156 L374.578125,16.6660156 L371.414062,21.0869141 L374.868164,26 L371.835938,26 L369.9375,23.1083984 L368.021484,26 L365.129883,26 Z M380.209961,8.7734375 C381.107752,8.7734375 381.969071,8.99788187 382.793945,9.44677734 C383.618819,9.89567282 384.267087,10.5393838 384.73877,11.3779297 C385.210452,12.2164755 385.446289,13.0937454 385.446289,14.0097656 C385.446289,14.9212285 385.215009,15.7905232 384.752441,16.6176758 C384.289874,17.4448284 383.645024,18.0896787 382.817871,18.5522461 C381.990719,19.0148135 381.121424,19.2460938 380.209961,19.2460938 C379.298498,19.2460938 378.429203,19.0148135 377.602051,18.5522461 C376.774898,18.0896787 376.130048,17.4448284 375.66748,16.6176758 C375.204913,15.7905232 374.973633,14.9212285 374.973633,14.0097656 C374.973633,13.0937454 375.20947,12.2164755 375.681152,11.3779297 C376.152834,10.5393838 376.801103,9.89567282 377.625977,9.44677734 C378.45085,8.99788187 379.31217,8.7734375 380.209961,8.7734375 Z M380.216797,9.79882812 C379.496741,9.79882812 378.806318,9.97883935 378.145508,10.3388672 C377.484697,10.698895 376.964032,11.2161425 376.583496,11.890625 C376.20296,12.5651075 376.012695,13.2714807 376.012695,14.0097656 C376.012695,14.7434933 376.198403,15.4430305 376.569824,16.1083984 C376.941245,16.7737663 377.459632,17.2932924 378.125,17.6669922 C378.790368,18.040692 379.487627,18.2275391 380.216797,18.2275391 C380.950525,18.2275391 381.648922,18.040692 382.312012,17.6669922 C382.975101,17.2932924 383.493488,16.7737663 383.867188,16.1083984 C384.240887,15.4430305 384.427734,14.7434933 384.427734,14.0097656 C384.427734,13.2714807 384.237469,12.5651075 383.856934,11.890625 C383.476398,11.2161425 382.954593,10.698895 382.291504,10.3388672 C381.628415,9.97883935 380.936853,9.79882812 380.216797,9.79882812 Z M380.858665,14.381233 C381.024308,14.4443973 381.152148,14.5131198 381.242188,14.5874023 C381.333334,14.662598 381.458658,14.805012 381.618164,15.0146484 C381.65918,15.0693362 381.795897,15.2949199 382.02832,15.6914062 L382.68457,16.8125 L381.290039,16.8125 L380.825195,15.9101562 C380.510741,15.3040334 380.250978,14.9223641 380.045898,14.7651367 C379.840819,14.6079094 379.581056,14.5292969 379.266602,14.5292969 L378.972656,14.5292969 L378.972656,16.8125 L377.844727,16.8125 L377.844727,11.2548828 L378.972656,11.2548828 C380.029953,11.2548828 380.622395,11.2594401 380.75,11.2685547 C381.1237,11.3004559 381.414224,11.3745111 381.621582,11.4907227 C381.82894,11.6069342 382.002115,11.7846668 382.141113,12.0239258 C382.280111,12.2631848 382.349609,12.5286444 382.349609,12.8203125 C382.349609,13.2213562 382.218589,13.5642889 381.956543,13.8491211 C381.6945,14.1339509 381.326506,14.3105437 380.852551,14.3789046 L380.858665,14.381233 Z M378.972656,13.6542969 L379.430664,13.6542969 C380.08236,13.6542969 380.486816,13.629232 380.644043,13.5791016 C380.80127,13.5289711 380.925455,13.4412441 381.016602,13.315918 C381.107748,13.1905918 381.15332,13.0481779 381.15332,12.8886719 C381.15332,12.7337232 381.108887,12.5958665 381.02002,12.4750977 C380.931152,12.3543288 380.804688,12.2677411 380.640625,12.215332 C380.476562,12.1629229 380.073245,12.1367188 379.430664,12.1367188 L378.972656,12.1367188 L378.972656,13.6542969 Z M391.001953,21.8076172 L393.533203,21.5615234 C393.685548,22.4111371 393.994627,23.0351543 394.460449,23.4335938 C394.926272,23.8320332 395.554684,24.03125 396.345703,24.03125 C397.183598,24.03125 397.814939,23.8540057 398.239746,23.4995117 C398.664553,23.1450178 398.876953,22.7304711 398.876953,22.2558594 C398.876953,21.9511704 398.787599,21.6918956 398.608887,21.4780273 C398.430175,21.2641591 398.118166,21.0781258 397.672852,20.9199219 C397.368163,20.8144526 396.673834,20.6269545 395.589844,20.3574219 C394.195306,20.011717 393.2168,19.5869166 392.654297,19.0830078 C391.863277,18.3740199 391.467773,17.5097707 391.467773,16.4902344 C391.467773,15.8339811 391.653807,15.2202177 392.025879,14.6489258 C392.397951,14.0776339 392.934079,13.6425796 393.634277,13.34375 C394.334476,13.0449204 395.179683,12.8955078 396.169922,12.8955078 C397.787117,12.8955078 399.00439,13.2499965 399.821777,13.9589844 C400.639164,14.6679723 401.068359,15.6142519 401.109375,16.7978516 L398.507812,16.9121094 C398.396484,16.2499967 398.157717,15.7739272 397.791504,15.4838867 C397.425291,15.1938462 396.87598,15.0488281 396.143555,15.0488281 C395.387692,15.0488281 394.795901,15.2041 394.368164,15.5146484 C394.092772,15.7138682 393.955078,15.9804671 393.955078,16.3144531 C393.955078,16.6191421 394.083983,16.8798817 394.341797,17.0966797 C394.669924,17.3720717 395.466791,17.6591782 396.732422,17.9580078 C397.998053,18.2568374 398.934079,18.5659164 399.540527,18.8852539 C400.146976,19.2045914 400.62158,19.6411105 400.964355,20.1948242 C401.307131,20.7485379 401.478516,21.4326131 401.478516,22.2470703 C401.478516,22.9853553 401.27344,23.6767546 400.863281,24.3212891 C400.453123,24.9658235 399.873051,25.4448227 399.123047,25.7583008 C398.373043,26.0717789 397.438482,26.2285156 396.319336,26.2285156 C394.690422,26.2285156 393.439457,25.8520545 392.566406,25.0991211 C391.693355,24.3461876 391.171876,23.2490306 391.001953,21.8076172 Z M405.495117,19.5136719 L403.253906,19.109375 C403.505861,18.2070267 403.93945,17.5390647 404.554688,17.1054688 C405.169925,16.6718728 406.083978,16.4550781 407.296875,16.4550781 C408.398443,16.4550781 409.218747,16.5854479 409.757812,16.8461914 C410.296878,17.1069349 410.676268,17.4379863 410.895996,17.8393555 C411.115724,18.2407247 411.225586,18.9775337 411.225586,20.0498047 L411.199219,22.9326172 C411.199219,23.7529338 411.238769,24.3579082 411.317871,24.7475586 C411.396973,25.137209 411.544921,25.5546853 411.761719,26 L409.318359,26 C409.253906,25.8359367 409.174805,25.592775 409.081055,25.2705078 C409.040039,25.1240227 409.010742,25.027344 408.993164,24.9804688 C408.571287,25.3906271 408.12012,25.6982412 407.639648,25.9033203 C407.159177,26.1083995 406.646487,26.2109375 406.101562,26.2109375 C405.14062,26.2109375 404.383304,25.9501979 403.82959,25.4287109 C403.275876,24.907224 402.999023,24.2480509 402.999023,23.4511719 C402.999023,22.9238255 403.124999,22.4536153 403.376953,22.0405273 C403.628908,21.6274393 403.981931,21.3110363 404.436035,21.0913086 C404.890139,20.8715809 405.544918,20.6796883 406.400391,20.515625 C407.554693,20.298827 408.35449,20.0966806 408.799805,19.9091797 L408.799805,19.6630859 C408.799805,19.1884742 408.682618,18.8500987 408.448242,18.6479492 C408.213866,18.4457998 407.771488,18.3447266 407.121094,18.3447266 C406.681638,18.3447266 406.338868,18.4311515 406.092773,18.6040039 C405.846678,18.7768563 405.647462,19.080076 405.495117,19.5136719 Z M408.799805,21.5175781 C408.483397,21.6230474 407.982425,21.7490227 407.296875,21.8955078 C406.611325,22.0419929 406.163087,22.1855462 405.952148,22.3261719 C405.629881,22.5546886 405.46875,22.8447248 405.46875,23.1962891 C405.46875,23.5419939 405.597655,23.8408191 405.855469,24.0927734 C406.113283,24.3447278 406.441404,24.4707031 406.839844,24.4707031 C407.285158,24.4707031 407.709959,24.3242202 408.114258,24.03125 C408.413087,23.8085926 408.609375,23.5361344 408.703125,23.2138672 C408.767578,23.0029286 408.799805,22.6015655 408.799805,22.0097656 L408.799805,21.5175781 Z M412.579102,16.6660156 L413.950195,16.6660156 L413.950195,15.9628906 C413.950195,15.1777304 414.033691,14.5917988 414.200684,14.2050781 C414.367677,13.8183574 414.675291,13.5034192 415.123535,13.2602539 C415.57178,13.0170886 416.138668,12.8955078 416.824219,12.8955078 C417.527347,12.8955078 418.215817,13.0009755 418.889648,13.2119141 L418.555664,14.9345703 C418.163084,14.8408198 417.785158,14.7939453 417.421875,14.7939453 C417.064451,14.7939453 416.808106,14.8774406 416.652832,15.0444336 C416.497558,15.2114266 416.419922,15.5322242 416.419922,16.0068359 L416.419922,16.6660156 L418.265625,16.6660156 L418.265625,18.6083984 L416.419922,18.6083984 L416.419922,26 L413.950195,26 L413.950195,18.6083984 L412.579102,18.6083984 L412.579102,16.6660156 Z M425.05957,23.0292969 L427.520508,23.4423828 C427.2041,24.3447311 426.704593,25.0317359 426.021973,25.503418 C425.339352,25.9751 424.485357,26.2109375 423.459961,26.2109375 C421.836906,26.2109375 420.635746,25.6806694 419.856445,24.6201172 C419.241208,23.7705036 418.933594,22.6982487 418.933594,21.4033203 C418.933594,19.8564376 419.337887,18.6450239 420.146484,17.769043 C420.955082,16.893062 421.977533,16.4550781 423.213867,16.4550781 C424.602546,16.4550781 425.698238,16.9135696 426.500977,17.8305664 C427.303715,18.7475632 427.6875,20.1523343 427.652344,22.0449219 L421.464844,22.0449219 C421.482422,22.7773474 421.681639,23.3471659 422.0625,23.7543945 C422.443361,24.1616231 422.917966,24.3652344 423.486328,24.3652344 C423.873049,24.3652344 424.198241,24.2597667 424.461914,24.0488281 C424.725587,23.8378896 424.924804,23.4980492 425.05957,23.0292969 Z M425.200195,20.5332031 C425.182617,19.8183558 424.998049,19.2749042 424.646484,18.902832 C424.29492,18.5307599 423.86719,18.3447266 423.363281,18.3447266 C422.824216,18.3447266 422.378908,18.5410137 422.027344,18.9335938 C421.675779,19.3261738 421.50293,19.8593716 421.508789,20.5332031 L425.200195,20.5332031 Z M433.945312,16.6660156 L433.945312,18.6347656 L432.257812,18.6347656 L432.257812,22.3964844 C432.257812,23.1582069 432.273926,23.6020502 432.306152,23.7280273 C432.338379,23.8540045 432.411621,23.9580074 432.525879,24.0400391 C432.640137,24.1220707 432.779296,24.1630859 432.943359,24.1630859 C433.171876,24.1630859 433.502928,24.0839852 433.936523,23.9257812 L434.147461,25.8417969 C433.573239,26.0878919 432.922855,26.2109375 432.196289,26.2109375 C431.750974,26.2109375 431.349611,26.1362312 430.992188,25.9868164 C430.634764,25.8374016 430.372559,25.6440442 430.205566,25.4067383 C430.038573,25.1694324 429.922852,24.8486348 429.858398,24.4443359 C429.805664,24.1572251 429.779297,23.5771528 429.779297,22.7041016 L429.779297,18.6347656 L428.645508,18.6347656 L428.645508,16.6660156 L429.779297,16.6660156 L429.779297,14.8115234 L432.257812,13.3701172 L432.257812,16.6660156 L433.945312,16.6660156 Z M434.490234,16.6660156 L437.118164,16.6660156 L439.350586,23.2929688 L441.530273,16.6660156 L444.087891,16.6660156 L440.791992,25.6484375 L440.203125,27.2744141 C439.986327,27.8193387 439.779786,28.2353501 439.583496,28.5224609 C439.387206,28.8095717 439.161622,29.0424796 438.906738,29.2211914 C438.651854,29.3999032 438.338381,29.539062 437.966309,29.6386719 C437.594236,29.7382817 437.17383,29.7880859 436.705078,29.7880859 C436.230466,29.7880859 435.764651,29.7382817 435.307617,29.6386719 L435.087891,27.7050781 C435.474611,27.7812504 435.823241,27.8193359 436.133789,27.8193359 C436.708011,27.8193359 437.132811,27.6508806 437.408203,27.3139648 C437.683595,26.9770491 437.894531,26.5478542 438.041016,26.0263672 L434.490234,16.6660156 Z" id="Vasofix®Safety" fill="#FFFFFF" fill-rule="nonzero"></path>
                <path d="M622.318359,13.1152344 L627.46875,13.1152344 C628.488286,13.1152344 629.248533,13.1577144 629.749512,13.2426758 C630.250491,13.3276371 630.698728,13.5048815 631.094238,13.7744141 C631.489748,14.0439467 631.819335,14.4028298 632.083008,14.8510742 C632.346681,15.2993186 632.478516,15.801755 632.478516,16.3583984 C632.478516,16.9619171 632.31592,17.5156225 631.990723,18.0195312 C631.665526,18.52344 631.224612,18.9013659 630.667969,19.1533203 C631.453129,19.3818371 632.056639,19.7714816 632.478516,20.3222656 C632.900393,20.8730496 633.111328,21.5205041 633.111328,22.2646484 C633.111328,22.8505889 632.975099,23.4204074 632.702637,23.9741211 C632.430174,24.5278348 632.058108,24.9702132 631.586426,25.3012695 C631.114744,25.6323259 630.533207,25.8359371 629.841797,25.9121094 C629.408201,25.9589846 628.362313,25.9882812 626.704102,26 L622.318359,26 L622.318359,13.1152344 Z M624.919922,15.2597656 L624.919922,18.2392578 L626.625,18.2392578 C627.638677,18.2392578 628.268553,18.2246095 628.514648,18.1953125 C628.959963,18.1425779 629.310057,17.9887708 629.564941,17.7338867 C629.819825,17.4790026 629.947266,17.1435568 629.947266,16.7275391 C629.947266,16.3290996 629.837403,16.0053723 629.617676,15.7563477 C629.397948,15.507323 629.071291,15.3564456 628.637695,15.3037109 C628.379882,15.2744139 627.638678,15.2597656 626.414062,15.2597656 L624.919922,15.2597656 Z M624.919922,20.3837891 L624.919922,23.8291016 L627.328125,23.8291016 C628.26563,23.8291016 628.86035,23.8027346 629.112305,23.75 C629.499025,23.6796871 629.813964,23.5083021 630.057129,23.2358398 C630.300294,22.9633775 630.421875,22.5986351 630.421875,22.1416016 C630.421875,21.7548809 630.328126,21.4267592 630.140625,21.1572266 C629.953124,20.887694 629.682131,20.6914069 629.327637,20.5683594 C628.973143,20.4453119 628.204107,20.3837891 627.020508,20.3837891 L624.919922,20.3837891 Z M635.299805,13.1152344 L640.054688,13.1152344 C641.126958,13.1152344 641.944333,13.1972648 642.506836,13.3613281 C643.262699,13.5839855 643.910154,13.9794893 644.449219,14.5478516 C644.988284,15.1162138 645.398436,15.8120076 645.679688,16.6352539 C645.960939,17.4585002 646.101562,18.4736268 646.101562,19.6806641 C646.101562,20.7412162 645.969728,21.6552696 645.706055,22.4228516 C645.383787,23.3603562 644.923831,24.1191377 644.326172,24.6992188 C643.874998,25.1386741 643.265629,25.4814441 642.498047,25.7275391 C641.923825,25.9091806 641.156255,26 640.195312,26 L635.299805,26 L635.299805,13.1152344 Z M637.901367,15.2949219 L637.901367,23.8291016 L639.84375,23.8291016 C640.570316,23.8291016 641.094725,23.7880863 641.416992,23.7060547 C641.838869,23.6005854 642.188963,23.4218763 642.467285,23.1699219 C642.745607,22.9179675 642.972655,22.5034209 643.148438,21.9262695 C643.32422,21.3491182 643.412109,20.562505 643.412109,19.5664062 C643.412109,18.5703075 643.32422,17.8056667 643.148438,17.2724609 C642.972655,16.7392551 642.726564,16.3232437 642.410156,16.0244141 C642.093748,15.7255844 641.692385,15.523438 641.206055,15.4179688 C640.842772,15.3359371 640.130865,15.2949219 639.070312,15.2949219 L637.901367,15.2949219 Z M651.963867,22.2558594 L651.963867,20.4101562 L661.974609,20.4101562 L661.974609,22.2558594 L651.963867,22.2558594 Z M671.607422,26 L667.001953,13.1152344 L669.823242,13.1152344 L673.083984,22.6513672 L676.239258,13.1152344 L678.999023,13.1152344 L674.384766,26 L671.607422,26 Z M684.720703,23.0292969 L687.181641,23.4423828 C686.865233,24.3447311 686.365726,25.0317359 685.683105,25.503418 C685.000485,25.9751 684.14649,26.2109375 683.121094,26.2109375 C681.498039,26.2109375 680.296879,25.6806694 679.517578,24.6201172 C678.902341,23.7705036 678.594727,22.6982487 678.594727,21.4033203 C678.594727,19.8564376 678.999019,18.6450239 679.807617,17.769043 C680.616215,16.893062 681.638666,16.4550781 682.875,16.4550781 C684.263679,16.4550781 685.359371,16.9135696 686.162109,17.8305664 C686.964848,18.7475632 687.348633,20.1523343 687.313477,22.0449219 L681.125977,22.0449219 C681.143555,22.7773474 681.342772,23.3471659 681.723633,23.7543945 C682.104494,24.1616231 682.579099,24.3652344 683.147461,24.3652344 C683.534182,24.3652344 683.859374,24.2597667 684.123047,24.0488281 C684.38672,23.8378896 684.585937,23.4980492 684.720703,23.0292969 Z M684.861328,20.5332031 C684.84375,19.8183558 684.659181,19.2749042 684.307617,18.902832 C683.956053,18.5307599 683.528323,18.3447266 683.024414,18.3447266 C682.485349,18.3447266 682.040041,18.5410137 681.688477,18.9335938 C681.336912,19.3261738 681.164062,19.8593716 681.169922,20.5332031 L684.861328,20.5332031 Z M697.816406,26 L695.34668,26 L695.34668,21.2363281 C695.34668,20.2285106 695.293946,19.5766616 695.188477,19.2807617 C695.083007,18.9848618 694.911622,18.7548836 694.674316,18.5908203 C694.437011,18.426757 694.151369,18.3447266 693.817383,18.3447266 C693.389646,18.3447266 693.005861,18.4619129 692.666016,18.6962891 C692.32617,18.9306652 692.093262,19.241209 691.967285,19.6279297 C691.841308,20.0146504 691.77832,20.729487 691.77832,21.7724609 L691.77832,26 L689.308594,26 L689.308594,16.6660156 L691.602539,16.6660156 L691.602539,18.0371094 C692.416996,16.9824166 693.442377,16.4550781 694.678711,16.4550781 C695.223636,16.4550781 695.721677,16.5532217 696.172852,16.7495117 C696.624026,16.9458018 696.965331,17.1962875 697.196777,17.5009766 C697.428224,17.8056656 697.589355,18.1513653 697.680176,18.5380859 C697.770997,18.9248066 697.816406,19.478512 697.816406,20.1992188 L697.816406,26 Z M699.240234,16.6660156 L700.611328,16.6660156 L700.611328,15.9628906 C700.611328,15.1777304 700.694823,14.5917988 700.861816,14.2050781 C701.028809,13.8183574 701.336424,13.5034192 701.784668,13.2602539 C702.232912,13.0170886 702.799801,12.8955078 703.485352,12.8955078 C704.18848,12.8955078 704.87695,13.0009755 705.550781,13.2119141 L705.216797,14.9345703 C704.824217,14.8408198 704.446291,14.7939453 704.083008,14.7939453 C703.725584,14.7939453 703.469239,14.8774406 703.313965,15.0444336 C703.158691,15.2114266 703.081055,15.5322242 703.081055,16.0068359 L703.081055,16.6660156 L704.926758,16.6660156 L704.926758,18.6083984 L703.081055,18.6083984 L703.081055,26 L700.611328,26 L700.611328,18.6083984 L699.240234,18.6083984 L699.240234,16.6660156 Z M706.31543,26 L706.31543,13.1152344 L708.785156,13.1152344 L708.785156,26 L706.31543,26 Z M710.745117,21.2011719 C710.745117,20.3808553 710.947264,19.5869179 711.351562,18.8193359 C711.755861,18.051754 712.32861,17.4658223 713.069824,17.0615234 C713.811039,16.6572245 714.638667,16.4550781 715.552734,16.4550781 C716.964851,16.4550781 718.122066,16.9135696 719.024414,17.8305664 C719.926762,18.7475632 720.37793,19.906243 720.37793,21.3066406 C720.37793,22.7187571 719.922368,23.8891555 719.01123,24.8178711 C718.100093,25.7465867 716.953132,26.2109375 715.570312,26.2109375 C714.714839,26.2109375 713.89893,26.0175801 713.122559,25.6308594 C712.346188,25.2441387 711.755861,24.6772498 711.351562,23.9301758 C710.947264,23.1831017 710.745117,22.2734429 710.745117,21.2011719 Z M713.276367,21.3330078 C713.276367,22.2587937 713.496092,22.967771 713.935547,23.4599609 C714.375002,23.9521509 714.916989,24.1982422 715.561523,24.1982422 C716.206058,24.1982422 716.74658,23.9521509 717.183105,23.4599609 C717.619631,22.967771 717.837891,22.2529344 717.837891,21.3154297 C717.837891,20.4013626 717.619631,19.6982446 717.183105,19.2060547 C716.74658,18.7138647 716.206058,18.4677734 715.561523,18.4677734 C714.916989,18.4677734 714.375002,18.7138647 713.935547,19.2060547 C713.496092,19.6982446 713.276367,20.4072219 713.276367,21.3330078 Z M730.801758,26 L728.332031,26 L728.332031,21.2363281 C728.332031,20.2285106 728.279297,19.5766616 728.173828,19.2807617 C728.068359,18.9848618 727.896974,18.7548836 727.659668,18.5908203 C727.422362,18.426757 727.13672,18.3447266 726.802734,18.3447266 C726.374998,18.3447266 725.991213,18.4619129 725.651367,18.6962891 C725.311522,18.9306652 725.078614,19.241209 724.952637,19.6279297 C724.82666,20.0146504 724.763672,20.729487 724.763672,21.7724609 L724.763672,26 L722.293945,26 L722.293945,16.6660156 L724.587891,16.6660156 L724.587891,18.0371094 C725.402348,16.9824166 726.427728,16.4550781 727.664062,16.4550781 C728.208987,16.4550781 728.707029,16.5532217 729.158203,16.7495117 C729.609377,16.9458018 729.950682,17.1962875 730.182129,17.5009766 C730.413575,17.8056656 730.574707,18.1513653 730.665527,18.5380859 C730.756348,18.9248066 730.801758,19.478512 730.801758,20.1992188 L730.801758,26 Z M734.353516,21 L734.353516,15.0527344 L732.229492,15.0527344 L732.229492,13.8417969 L737.917969,13.8417969 L737.917969,15.0527344 L735.798828,15.0527344 L735.798828,21 L734.353516,21 Z M738.831055,21 L738.831055,13.8417969 L740.994141,13.8417969 L742.292969,18.7246094 L743.577148,13.8417969 L745.745117,13.8417969 L745.745117,21 L744.402344,21 L744.402344,15.3652344 L742.981445,21 L741.589844,21 L740.173828,15.3652344 L740.173828,21 L738.831055,21 Z M752.763672,26 L752.763672,13.1152344 L756.938477,13.1152344 C758.520516,13.1152344 759.551755,13.1796869 760.032227,13.3085938 C760.770512,13.5019541 761.388669,13.92236 761.886719,14.5698242 C762.384768,15.2172884 762.633789,16.0537058 762.633789,17.0791016 C762.633789,17.8701211 762.490236,18.5351536 762.203125,19.0742188 C761.916014,19.6132839 761.551272,20.0366196 761.108887,20.3442383 C760.666502,20.651857 760.216799,20.8554683 759.759766,20.9550781 C759.138669,21.0781256 758.239264,21.1396484 757.061523,21.1396484 L755.365234,21.1396484 L755.365234,26 L752.763672,26 Z M755.365234,15.2949219 L755.365234,18.9511719 L756.789062,18.9511719 C757.814458,18.9511719 758.499998,18.8837897 758.845703,18.7490234 C759.191408,18.6142571 759.462401,18.4033217 759.658691,18.1162109 C759.854981,17.8291001 759.953125,17.4951191 759.953125,17.1142578 C759.953125,16.6455055 759.815431,16.2587906 759.540039,15.9541016 C759.264647,15.6494125 758.916018,15.4589848 758.494141,15.3828125 C758.183592,15.3242185 757.559575,15.2949219 756.62207,15.2949219 L755.365234,15.2949219 Z M767.116211,26 L764.646484,26 L764.646484,16.6660156 L766.94043,16.6660156 L766.94043,17.9931641 C767.33301,17.3662078 767.686034,16.953126 767.999512,16.7539062 C768.31299,16.5546865 768.668943,16.4550781 769.067383,16.4550781 C769.629886,16.4550781 770.171872,16.61035 770.693359,16.9208984 L769.928711,19.0742188 C769.512693,18.8046862 769.125978,18.6699219 768.768555,18.6699219 C768.42285,18.6699219 768.129884,18.7651358 767.889648,18.9555664 C767.649413,19.145997 767.46045,19.4902319 767.322754,19.9882812 C767.185058,20.4863306 767.116211,21.5292889 767.116211,23.1171875 L767.116211,26 Z M771.185547,21.2011719 C771.185547,20.3808553 771.387693,19.5869179 771.791992,18.8193359 C772.196291,18.051754 772.769039,17.4658223 773.510254,17.0615234 C774.251469,16.6572245 775.079097,16.4550781 775.993164,16.4550781 C777.40528,16.4550781 778.562495,16.9135696 779.464844,17.8305664 C780.367192,18.7475632 780.818359,19.906243 780.818359,21.3066406 C780.818359,22.7187571 780.362798,23.8891555 779.45166,24.8178711 C778.540523,25.7465867 777.393562,26.2109375 776.010742,26.2109375 C775.155269,26.2109375 774.339359,26.0175801 773.562988,25.6308594 C772.786617,25.2441387 772.196291,24.6772498 771.791992,23.9301758 C771.387693,23.1831017 771.185547,22.2734429 771.185547,21.2011719 Z M773.716797,21.3330078 C773.716797,22.2587937 773.936521,22.967771 774.375977,23.4599609 C774.815432,23.9521509 775.357419,24.1982422 776.001953,24.1982422 C776.646488,24.1982422 777.18701,23.9521509 777.623535,23.4599609 C778.060061,22.967771 778.27832,22.2529344 778.27832,21.3154297 C778.27832,20.4013626 778.060061,19.6982446 777.623535,19.2060547 C777.18701,18.7138647 776.646488,18.4677734 776.001953,18.4677734 C775.357419,18.4677734 774.815432,18.7138647 774.375977,19.2060547 C773.936521,19.6982446 773.716797,20.4072219 773.716797,21.3330078 Z M787.111328,21.8076172 L789.642578,21.5615234 C789.794923,22.4111371 790.104002,23.0351543 790.569824,23.4335938 C791.035647,23.8320332 791.664059,24.03125 792.455078,24.03125 C793.292973,24.03125 793.924314,23.8540057 794.349121,23.4995117 C794.773928,23.1450178 794.986328,22.7304711 794.986328,22.2558594 C794.986328,21.9511704 794.896974,21.6918956 794.718262,21.4780273 C794.53955,21.2641591 794.227541,21.0781258 793.782227,20.9199219 C793.477538,20.8144526 792.783209,20.6269545 791.699219,20.3574219 C790.304681,20.011717 789.326175,19.5869166 788.763672,19.0830078 C787.972652,18.3740199 787.577148,17.5097707 787.577148,16.4902344 C787.577148,15.8339811 787.763182,15.2202177 788.135254,14.6489258 C788.507326,14.0776339 789.043454,13.6425796 789.743652,13.34375 C790.443851,13.0449204 791.289058,12.8955078 792.279297,12.8955078 C793.896492,12.8955078 795.113765,13.2499965 795.931152,13.9589844 C796.748539,14.6679723 797.177734,15.6142519 797.21875,16.7978516 L794.617188,16.9121094 C794.505859,16.2499967 794.267092,15.7739272 793.900879,15.4838867 C793.534666,15.1938462 792.985355,15.0488281 792.25293,15.0488281 C791.497067,15.0488281 790.905276,15.2041 790.477539,15.5146484 C790.202147,15.7138682 790.064453,15.9804671 790.064453,16.3144531 C790.064453,16.6191421 790.193358,16.8798817 790.451172,17.0966797 C790.779299,17.3720717 791.576166,17.6591782 792.841797,17.9580078 C794.107428,18.2568374 795.043454,18.5659164 795.649902,18.8852539 C796.256351,19.2045914 796.730955,19.6411105 797.07373,20.1948242 C797.416506,20.7485379 797.587891,21.4326131 797.587891,22.2470703 C797.587891,22.9853553 797.382815,23.6767546 796.972656,24.3212891 C796.562498,24.9658235 795.982426,25.4448227 795.232422,25.7583008 C794.482418,26.0717789 793.547857,26.2285156 792.428711,26.2285156 C790.799797,26.2285156 789.548832,25.8520545 788.675781,25.0991211 C787.80273,24.3461876 787.281251,23.2490306 787.111328,21.8076172 Z M801.604492,19.5136719 L799.363281,19.109375 C799.615236,18.2070267 800.048825,17.5390647 800.664062,17.1054688 C801.2793,16.6718728 802.193353,16.4550781 803.40625,16.4550781 C804.507818,16.4550781 805.328122,16.5854479 805.867188,16.8461914 C806.406253,17.1069349 806.785643,17.4379863 807.005371,17.8393555 C807.225099,18.2407247 807.334961,18.9775337 807.334961,20.0498047 L807.308594,22.9326172 C807.308594,23.7529338 807.348144,24.3579082 807.427246,24.7475586 C807.506348,25.137209 807.654296,25.5546853 807.871094,26 L805.427734,26 C805.363281,25.8359367 805.28418,25.592775 805.19043,25.2705078 C805.149414,25.1240227 805.120117,25.027344 805.102539,24.9804688 C804.680662,25.3906271 804.229495,25.6982412 803.749023,25.9033203 C803.268552,26.1083995 802.755862,26.2109375 802.210938,26.2109375 C801.249995,26.2109375 800.492679,25.9501979 799.938965,25.4287109 C799.385251,24.907224 799.108398,24.2480509 799.108398,23.4511719 C799.108398,22.9238255 799.234374,22.4536153 799.486328,22.0405273 C799.738283,21.6274393 800.091306,21.3110363 800.54541,21.0913086 C800.999514,20.8715809 801.654293,20.6796883 802.509766,20.515625 C803.664068,20.298827 804.463865,20.0966806 804.90918,19.9091797 L804.90918,19.6630859 C804.90918,19.1884742 804.791993,18.8500987 804.557617,18.6479492 C804.323241,18.4457998 803.880863,18.3447266 803.230469,18.3447266 C802.791013,18.3447266 802.448243,18.4311515 802.202148,18.6040039 C801.956053,18.7768563 801.756837,19.080076 801.604492,19.5136719 Z M804.90918,21.5175781 C804.592772,21.6230474 804.0918,21.7490227 803.40625,21.8955078 C802.7207,22.0419929 802.272462,22.1855462 802.061523,22.3261719 C801.739256,22.5546886 801.578125,22.8447248 801.578125,23.1962891 C801.578125,23.5419939 801.70703,23.8408191 801.964844,24.0927734 C802.222658,24.3447278 802.550779,24.4707031 802.949219,24.4707031 C803.394533,24.4707031 803.819334,24.3242202 804.223633,24.03125 C804.522462,23.8085926 804.71875,23.5361344 804.8125,23.2138672 C804.876953,23.0029286 804.90918,22.6015655 804.90918,22.0097656 L804.90918,21.5175781 Z M808.688477,16.6660156 L810.05957,16.6660156 L810.05957,15.9628906 C810.05957,15.1777304 810.143066,14.5917988 810.310059,14.2050781 C810.477052,13.8183574 810.784666,13.5034192 811.23291,13.2602539 C811.681155,13.0170886 812.248043,12.8955078 812.933594,12.8955078 C813.636722,12.8955078 814.325192,13.0009755 814.999023,13.2119141 L814.665039,14.9345703 C814.272459,14.8408198 813.894533,14.7939453 813.53125,14.7939453 C813.173826,14.7939453 812.917481,14.8774406 812.762207,15.0444336 C812.606933,15.2114266 812.529297,15.5322242 812.529297,16.0068359 L812.529297,16.6660156 L814.375,16.6660156 L814.375,18.6083984 L812.529297,18.6083984 L812.529297,26 L810.05957,26 L810.05957,18.6083984 L808.688477,18.6083984 L808.688477,16.6660156 Z M821.168945,23.0292969 L823.629883,23.4423828 C823.313475,24.3447311 822.813968,25.0317359 822.131348,25.503418 C821.448727,25.9751 820.594732,26.2109375 819.569336,26.2109375 C817.946281,26.2109375 816.745121,25.6806694 815.96582,24.6201172 C815.350583,23.7705036 815.042969,22.6982487 815.042969,21.4033203 C815.042969,19.8564376 815.447262,18.6450239 816.255859,17.769043 C817.064457,16.893062 818.086908,16.4550781 819.323242,16.4550781 C820.711921,16.4550781 821.807613,16.9135696 822.610352,17.8305664 C823.41309,18.7475632 823.796875,20.1523343 823.761719,22.0449219 L817.574219,22.0449219 C817.591797,22.7773474 817.791014,23.3471659 818.171875,23.7543945 C818.552736,24.1616231 819.027341,24.3652344 819.595703,24.3652344 C819.982424,24.3652344 820.307616,24.2597667 820.571289,24.0488281 C820.834962,23.8378896 821.034179,23.4980492 821.168945,23.0292969 Z M821.30957,20.5332031 C821.291992,19.8183558 821.107424,19.2749042 820.755859,18.902832 C820.404295,18.5307599 819.976565,18.3447266 819.472656,18.3447266 C818.933591,18.3447266 818.488283,18.5410137 818.136719,18.9335938 C817.785154,19.3261738 817.612305,19.8593716 817.618164,20.5332031 L821.30957,20.5332031 Z M830.054688,16.6660156 L830.054688,18.6347656 L828.367188,18.6347656 L828.367188,22.3964844 C828.367188,23.1582069 828.383301,23.6020502 828.415527,23.7280273 C828.447754,23.8540045 828.520996,23.9580074 828.635254,24.0400391 C828.749512,24.1220707 828.888671,24.1630859 829.052734,24.1630859 C829.281251,24.1630859 829.612303,24.0839852 830.045898,23.9257812 L830.256836,25.8417969 C829.682614,26.0878919 829.03223,26.2109375 828.305664,26.2109375 C827.860349,26.2109375 827.458986,26.1362312 827.101562,25.9868164 C826.744139,25.8374016 826.481934,25.6440442 826.314941,25.4067383 C826.147948,25.1694324 826.032227,24.8486348 825.967773,24.4443359 C825.915039,24.1572251 825.888672,23.5771528 825.888672,22.7041016 L825.888672,18.6347656 L824.754883,18.6347656 L824.754883,16.6660156 L825.888672,16.6660156 L825.888672,14.8115234 L828.367188,13.3701172 L828.367188,16.6660156 L830.054688,16.6660156 Z M830.599609,16.6660156 L833.227539,16.6660156 L835.459961,23.2929688 L837.639648,16.6660156 L840.197266,16.6660156 L836.901367,25.6484375 L836.3125,27.2744141 C836.095702,27.8193387 835.889161,28.2353501 835.692871,28.5224609 C835.496581,28.8095717 835.270997,29.0424796 835.016113,29.2211914 C834.761229,29.3999032 834.447756,29.539062 834.075684,29.6386719 C833.703611,29.7382817 833.283205,29.7880859 832.814453,29.7880859 C832.339841,29.7880859 831.874026,29.7382817 831.416992,29.6386719 L831.197266,27.7050781 C831.583986,27.7812504 831.932616,27.8193359 832.243164,27.8193359 C832.817386,27.8193359 833.242186,27.6508806 833.517578,27.3139648 C833.79297,26.9770491 834.003906,26.5478542 834.150391,26.0263672 L830.599609,16.6660156 Z" id="BD–VenflonTMProSafety" fill="#373737" fill-rule="nonzero"></path>
                <text id="Without-holes" font-family="ArialMT, Arial" font-size="18" font-weight="normal" fill="#373737">
                    <tspan x="621" y="540">Without holes</tspan>
                </text>
            </g>
        </g>
    </g>
</svg>