<?xml version="1.0" encoding="UTF-8"?>
<svg width="913px" height="385px" viewBox="0 0 913 385" version="1.1" xmlns="http://www.w3.org/2000/svg" xmlns:xlink="http://www.w3.org/1999/xlink">
    <!-- Generator: Sketch 53.2 (72643) - https://sketchapp.com -->
    <title>Group</title>
    <desc>Created with Sketch.</desc>
    <g id="7.-Product-Comparison" stroke="none" stroke-width="1" fill="none" fill-rule="evenodd">
        <g id="DeltaMed" transform="translate(-56.000000, -184.000000)">
            <g id="Group" transform="translate(56.000000, 184.000000)">
                <polygon id="Rectangle" fill-opacity="0.75" fill="#00B482" points="300 0 601 0 601 385 300 385"></polygon>
                <text id="Yes" font-family="ArialMT, Arial" font-size="18" font-weight="normal" fill="#FFFFFF">
                    <tspan x="310" y="69">Yes</tspan>
                </text>
                <text id="Little" font-family="ArialMT, Arial" font-size="18" font-weight="normal" fill="#373737">
                    <tspan x="621" y="69">Little</tspan>
                </text>
                <text id="19mm-45mm" font-family="ArialMT, Arial" font-size="18" font-weight="normal" fill="#373737">
                    <tspan x="621" y="112">19mm-45mm</tspan>
                </text>
                <text id="No-Flashback-Chamber" font-family="ArialMT, Arial" font-size="18" font-weight="normal" fill="#373737">
                    <tspan x="621" y="155">No Flashback Chamber Protection</tspan>
                </text>
                <text id="Without-holes" font-family="ArialMT, Arial" font-size="18" font-weight="normal" fill="#373737">
                    <tspan x="621" y="369">Without holes</tspan>
                </text>
                <text id="No" font-family="ArialMT, Arial" font-size="18" font-weight="normal" fill="#373737">
                    <tspan x="621" y="198">No</tspan>
                </text>
                <text id="Yes-(Automatic/Passi" font-family="ArialMT, Arial" font-size="18" font-weight="normal" fill="#373737">
                    <tspan x="621" y="240">Yes (Automatic/Passive)</tspan>
                </text>
                <text id="No-Anti-Bypass-Desig" font-family="ArialMT, Arial" font-size="18" font-weight="normal" fill="#373737">
                    <tspan x="621" y="283">No Anti-Bypass Design</tspan>
                </text>
                <text id="No" font-family="ArialMT, Arial" font-size="18" font-weight="normal" fill="#373737">
                    <tspan x="621" y="326">No</tspan>
                </text>
                <text id="19mm-50mm" font-family="ArialMT, Arial" font-size="18" font-weight="normal" fill="#FFFFFF">
                    <tspan x="310" y="112">19mm-50mm</tspan>
                </text>
                <text id="Flashback-Chamber-Pr" font-family="ArialMT, Arial" font-size="18" font-weight="normal" fill="#FFFFFF">
                    <tspan x="310" y="155">Flashback Chamber Protection</tspan>
                </text>
                <text id="With-holes" font-family="ArialMT, Arial" font-size="18" font-weight="normal" fill="#FFFFFF">
                    <tspan x="310" y="369">With holes</tspan>
                </text>
                <text id="Yes" font-family="ArialMT, Arial" font-size="18" font-weight="normal" fill="#FFFFFF">
                    <tspan x="310" y="198">Yes</tspan>
                </text>
                <text id="Yes-(Automatic/Passi" font-family="ArialMT, Arial" font-size="18" font-weight="normal" fill="#FFFFFF">
                    <tspan x="310" y="240">Yes (Automatic/Passive)</tspan>
                </text>
                <text id="Anti-Bypass-Design" font-family="ArialMT, Arial" font-size="18" font-weight="normal" fill="#FFFFFF">
                    <tspan x="310" y="283">Anti-Bypass Design</tspan>
                </text>
                <text id="Yes" font-family="ArialMT, Arial" font-size="18" font-weight="normal" fill="#FFFFFF">
                    <tspan x="310" y="326">Yes</tspan>
                </text>
                <text id="Color-Coded-Blister" font-family="ArialMT, Arial" font-size="18" font-weight="normal" fill="#373737">
                    <tspan x="1" y="69">Color Coded Blister Packaging</tspan>
                </text>
                <text id="Available-Catheter-L" font-family="ArialMT, Arial" font-size="18" font-weight="normal" fill="#373737">
                    <tspan x="0" y="112">Available Catheter Lengths</tspan>
                </text>
                <text id="Color-Coded-Wing" font-family="ArialMT, Arial" font-size="18" font-weight="normal" fill="#373737">
                    <tspan x="0" y="198">Color Coded Wing</tspan>
                </text>
                <text id="Safety-Mechanism" font-family="ArialMT, Arial" font-size="18" font-weight="normal" fill="#373737">
                    <tspan x="0" y="240">Safety Mechanism</tspan>
                </text>
                <text id="Catheter-Hub-Protect" font-family="ArialMT, Arial" font-size="18" font-weight="normal" fill="#373737">
                    <tspan x="1" y="155">Catheter Hub Protection</tspan>
                </text>
                <text id="Fixation-Wings" font-family="ArialMT, Arial" font-size="18" font-weight="normal" fill="#373737">
                    <tspan x="1" y="369">Fixation Wings</tspan>
                </text>
                <text id="Anti-Bypass-Design" font-family="ArialMT, Arial" font-size="18" font-weight="normal" fill="#373737">
                    <tspan x="1" y="283">Anti-Bypass Design</tspan>
                </text>
                <text id="Close-off-Port" font-family="ArialMT, Arial" font-size="18" font-weight="normal" fill="#373737">
                    <tspan x="1" y="326">Close-off Port</tspan>
                </text>
                <path d="M0.5,84.5 L911.59275,84.5" id="Line" stroke="#FFFFFF" stroke-linecap="square"></path>
                <path d="M0.5,127.5 L911.59275,127.5" id="Line" stroke="#FFFFFF" stroke-linecap="square"></path>
                <path d="M0.5,341.5 L911.59275,341.5" id="Line-Copy" stroke="#FFFFFF" stroke-linecap="square"></path>
                <path d="M0.5,170.5 L911.59275,170.5" id="Line" stroke="#FFFFFF" stroke-linecap="square"></path>
                <path d="M0.5,213.5 L911.59275,213.5" id="Line" stroke="#FFFFFF" stroke-linecap="square"></path>
                <path d="M0.5,255.5 L911.59275,255.5" id="Line" stroke="#FFFFFF" stroke-linecap="square"></path>
                <path d="M0.5,298.5 L911.59275,298.5" id="Line" stroke="#FFFFFF" stroke-linecap="square"></path>
                <path d="M0.5,41.5 L911.59275,41.5" id="Line" stroke="#FFFFFF" stroke-linecap="square"></path>
                <path d="M316.59668,26 L311.991211,13.1152344 L314.8125,13.1152344 L318.073242,22.6513672 L321.228516,13.1152344 L323.988281,13.1152344 L319.374023,26 L316.59668,26 Z M326.150391,19.5136719 L323.90918,19.109375 C324.161134,18.2070267 324.594723,17.5390647 325.209961,17.1054688 C325.825198,16.6718728 326.739252,16.4550781 327.952148,16.4550781 C329.053716,16.4550781 329.874021,16.5854479 330.413086,16.8461914 C330.952151,17.1069349 331.331542,17.4379863 331.55127,17.8393555 C331.770997,18.2407247 331.880859,18.9775337 331.880859,20.0498047 L331.854492,22.9326172 C331.854492,23.7529338 331.894043,24.3579082 331.973145,24.7475586 C332.052246,25.137209 332.200194,25.5546853 332.416992,26 L329.973633,26 C329.909179,25.8359367 329.830079,25.592775 329.736328,25.2705078 C329.695312,25.1240227 329.666016,25.027344 329.648438,24.9804688 C329.22656,25.3906271 328.775393,25.6982412 328.294922,25.9033203 C327.814451,26.1083995 327.301761,26.2109375 326.756836,26.2109375 C325.795894,26.2109375 325.038577,25.9501979 324.484863,25.4287109 C323.93115,24.907224 323.654297,24.2480509 323.654297,23.4511719 C323.654297,22.9238255 323.780272,22.4536153 324.032227,22.0405273 C324.284181,21.6274393 324.637205,21.3110363 325.091309,21.0913086 C325.545412,20.8715809 326.200191,20.6796883 327.055664,20.515625 C328.209967,20.298827 329.009763,20.0966806 329.455078,19.9091797 L329.455078,19.6630859 C329.455078,19.1884742 329.337892,18.8500987 329.103516,18.6479492 C328.869139,18.4457998 328.426761,18.3447266 327.776367,18.3447266 C327.336912,18.3447266 326.994142,18.4311515 326.748047,18.6040039 C326.501952,18.7768563 326.302735,19.080076 326.150391,19.5136719 Z M329.455078,21.5175781 C329.13867,21.6230474 328.637699,21.7490227 327.952148,21.8955078 C327.266598,22.0419929 326.81836,22.1855462 326.607422,22.3261719 C326.285155,22.5546886 326.124023,22.8447248 326.124023,23.1962891 C326.124023,23.5419939 326.252928,23.8408191 326.510742,24.0927734 C326.768556,24.3447278 327.096678,24.4707031 327.495117,24.4707031 C327.940432,24.4707031 328.365232,24.3242202 328.769531,24.03125 C329.068361,23.8085926 329.264648,23.5361344 329.358398,23.2138672 C329.422852,23.0029286 329.455078,22.6015655 329.455078,22.0097656 L329.455078,21.5175781 Z M333.445312,23.3369141 L335.923828,22.9589844 C336.029297,23.4394555 336.243162,23.804198 336.56543,24.0532227 C336.887697,24.3022473 337.338864,24.4267578 337.918945,24.4267578 C338.55762,24.4267578 339.038084,24.3095715 339.360352,24.0751953 C339.57715,23.911132 339.685547,23.6914076 339.685547,23.4160156 C339.685547,23.2285147 339.626954,23.0732428 339.509766,22.9501953 C339.386718,22.8330072 339.11133,22.7246099 338.683594,22.625 C336.691396,22.1855447 335.428714,21.7841815 334.895508,21.4208984 C334.157223,20.9169897 333.788086,20.2168014 333.788086,19.3203125 C333.788086,18.5117147 334.107419,17.832034 334.746094,17.28125 C335.384769,16.730466 336.374993,16.4550781 337.716797,16.4550781 C338.994147,16.4550781 339.943356,16.6630839 340.564453,17.0791016 C341.18555,17.4951193 341.61328,18.1103475 341.847656,18.9248047 L339.518555,19.3554688 C339.418945,18.9921857 339.229982,18.7138682 338.95166,18.5205078 C338.673338,18.3271475 338.27637,18.2304688 337.760742,18.2304688 C337.110348,18.2304688 336.644533,18.3212882 336.363281,18.5029297 C336.17578,18.6318366 336.082031,18.7988271 336.082031,19.0039062 C336.082031,19.1796884 336.164062,19.3291009 336.328125,19.4521484 C336.550782,19.6162118 337.319818,19.8476548 338.635254,20.1464844 C339.95069,20.445314 340.869138,20.8115213 341.390625,21.2451172 C341.906253,21.6845725 342.164062,22.2968711 342.164062,23.0820312 C342.164062,23.9375043 341.806644,24.6728485 341.091797,25.2880859 C340.37695,25.9033234 339.319343,26.2109375 337.918945,26.2109375 C336.647455,26.2109375 335.641117,25.9531276 334.899902,25.4375 C334.158688,24.9218724 333.673829,24.2216841 333.445312,23.3369141 Z M343.754883,21.2011719 C343.754883,20.3808553 343.957029,19.5869179 344.361328,18.8193359 C344.765627,18.051754 345.338375,17.4658223 346.07959,17.0615234 C346.820804,16.6572245 347.648433,16.4550781 348.5625,16.4550781 C349.974616,16.4550781 351.131831,16.9135696 352.03418,17.8305664 C352.936528,18.7475632 353.387695,19.906243 353.387695,21.3066406 C353.387695,22.7187571 352.932133,23.8891555 352.020996,24.8178711 C351.109859,25.7465867 349.962898,26.2109375 348.580078,26.2109375 C347.724605,26.2109375 346.908695,26.0175801 346.132324,25.6308594 C345.355953,25.2441387 344.765627,24.6772498 344.361328,23.9301758 C343.957029,23.1831017 343.754883,22.2734429 343.754883,21.2011719 Z M346.286133,21.3330078 C346.286133,22.2587937 346.505857,22.967771 346.945312,23.4599609 C347.384768,23.9521509 347.926755,24.1982422 348.571289,24.1982422 C349.215824,24.1982422 349.756345,23.9521509 350.192871,23.4599609 C350.629397,22.967771 350.847656,22.2529344 350.847656,21.3154297 C350.847656,20.4013626 350.629397,19.6982446 350.192871,19.2060547 C349.756345,18.7138647 349.215824,18.4677734 348.571289,18.4677734 C347.926755,18.4677734 347.384768,18.7138647 346.945312,19.2060547 C346.505857,19.6982446 346.286133,20.4072219 346.286133,21.3330078 Z M354.240234,16.6660156 L355.611328,16.6660156 L355.611328,15.9628906 C355.611328,15.1777304 355.694823,14.5917988 355.861816,14.2050781 C356.028809,13.8183574 356.336424,13.5034192 356.784668,13.2602539 C357.232912,13.0170886 357.799801,12.8955078 358.485352,12.8955078 C359.18848,12.8955078 359.87695,13.0009755 360.550781,13.2119141 L360.216797,14.9345703 C359.824217,14.8408198 359.446291,14.7939453 359.083008,14.7939453 C358.725584,14.7939453 358.469239,14.8774406 358.313965,15.0444336 C358.158691,15.2114266 358.081055,15.5322242 358.081055,16.0068359 L358.081055,16.6660156 L359.926758,16.6660156 L359.926758,18.6083984 L358.081055,18.6083984 L358.081055,26 L355.611328,26 L355.611328,18.6083984 L354.240234,18.6083984 L354.240234,16.6660156 Z M361.31543,15.4003906 L361.31543,13.1152344 L363.785156,13.1152344 L363.785156,15.4003906 L361.31543,15.4003906 Z M361.31543,26 L361.31543,16.6660156 L363.785156,16.6660156 L363.785156,26 L361.31543,26 Z M365.129883,26 L368.496094,21.1923828 L365.270508,16.6660156 L368.285156,16.6660156 L369.9375,19.2324219 L371.677734,16.6660156 L374.578125,16.6660156 L371.414062,21.0869141 L374.868164,26 L371.835938,26 L369.9375,23.1083984 L368.021484,26 L365.129883,26 Z M380.209961,8.7734375 C381.107752,8.7734375 381.969071,8.99788187 382.793945,9.44677734 C383.618819,9.89567282 384.267087,10.5393838 384.73877,11.3779297 C385.210452,12.2164755 385.446289,13.0937454 385.446289,14.0097656 C385.446289,14.9212285 385.215009,15.7905232 384.752441,16.6176758 C384.289874,17.4448284 383.645024,18.0896787 382.817871,18.5522461 C381.990719,19.0148135 381.121424,19.2460938 380.209961,19.2460938 C379.298498,19.2460938 378.429203,19.0148135 377.602051,18.5522461 C376.774898,18.0896787 376.130048,17.4448284 375.66748,16.6176758 C375.204913,15.7905232 374.973633,14.9212285 374.973633,14.0097656 C374.973633,13.0937454 375.20947,12.2164755 375.681152,11.3779297 C376.152834,10.5393838 376.801103,9.89567282 377.625977,9.44677734 C378.45085,8.99788187 379.31217,8.7734375 380.209961,8.7734375 Z M380.216797,9.79882812 C379.496741,9.79882812 378.806318,9.97883935 378.145508,10.3388672 C377.484697,10.698895 376.964032,11.2161425 376.583496,11.890625 C376.20296,12.5651075 376.012695,13.2714807 376.012695,14.0097656 C376.012695,14.7434933 376.198403,15.4430305 376.569824,16.1083984 C376.941245,16.7737663 377.459632,17.2932924 378.125,17.6669922 C378.790368,18.040692 379.487627,18.2275391 380.216797,18.2275391 C380.950525,18.2275391 381.648922,18.040692 382.312012,17.6669922 C382.975101,17.2932924 383.493488,16.7737663 383.867188,16.1083984 C384.240887,15.4430305 384.427734,14.7434933 384.427734,14.0097656 C384.427734,13.2714807 384.237469,12.5651075 383.856934,11.890625 C383.476398,11.2161425 382.954593,10.698895 382.291504,10.3388672 C381.628415,9.97883935 380.936853,9.79882812 380.216797,9.79882812 Z M380.858665,14.381233 C381.024308,14.4443973 381.152148,14.5131198 381.242188,14.5874023 C381.333334,14.662598 381.458658,14.805012 381.618164,15.0146484 C381.65918,15.0693362 381.795897,15.2949199 382.02832,15.6914062 L382.68457,16.8125 L381.290039,16.8125 L380.825195,15.9101562 C380.510741,15.3040334 380.250978,14.9223641 380.045898,14.7651367 C379.840819,14.6079094 379.581056,14.5292969 379.266602,14.5292969 L378.972656,14.5292969 L378.972656,16.8125 L377.844727,16.8125 L377.844727,11.2548828 L378.972656,11.2548828 C380.029953,11.2548828 380.622395,11.2594401 380.75,11.2685547 C381.1237,11.3004559 381.414224,11.3745111 381.621582,11.4907227 C381.82894,11.6069342 382.002115,11.7846668 382.141113,12.0239258 C382.280111,12.2631848 382.349609,12.5286444 382.349609,12.8203125 C382.349609,13.2213562 382.218589,13.5642889 381.956543,13.8491211 C381.6945,14.1339509 381.326506,14.3105437 380.852551,14.3789046 L380.858665,14.381233 Z M378.972656,13.6542969 L379.430664,13.6542969 C380.08236,13.6542969 380.486816,13.629232 380.644043,13.5791016 C380.80127,13.5289711 380.925455,13.4412441 381.016602,13.315918 C381.107748,13.1905918 381.15332,13.0481779 381.15332,12.8886719 C381.15332,12.7337232 381.108887,12.5958665 381.02002,12.4750977 C380.931152,12.3543288 380.804688,12.2677411 380.640625,12.215332 C380.476562,12.1629229 380.073245,12.1367188 379.430664,12.1367188 L378.972656,12.1367188 L378.972656,13.6542969 Z M391.001953,21.8076172 L393.533203,21.5615234 C393.685548,22.4111371 393.994627,23.0351543 394.460449,23.4335938 C394.926272,23.8320332 395.554684,24.03125 396.345703,24.03125 C397.183598,24.03125 397.814939,23.8540057 398.239746,23.4995117 C398.664553,23.1450178 398.876953,22.7304711 398.876953,22.2558594 C398.876953,21.9511704 398.787599,21.6918956 398.608887,21.4780273 C398.430175,21.2641591 398.118166,21.0781258 397.672852,20.9199219 C397.368163,20.8144526 396.673834,20.6269545 395.589844,20.3574219 C394.195306,20.011717 393.2168,19.5869166 392.654297,19.0830078 C391.863277,18.3740199 391.467773,17.5097707 391.467773,16.4902344 C391.467773,15.8339811 391.653807,15.2202177 392.025879,14.6489258 C392.397951,14.0776339 392.934079,13.6425796 393.634277,13.34375 C394.334476,13.0449204 395.179683,12.8955078 396.169922,12.8955078 C397.787117,12.8955078 399.00439,13.2499965 399.821777,13.9589844 C400.639164,14.6679723 401.068359,15.6142519 401.109375,16.7978516 L398.507812,16.9121094 C398.396484,16.2499967 398.157717,15.7739272 397.791504,15.4838867 C397.425291,15.1938462 396.87598,15.0488281 396.143555,15.0488281 C395.387692,15.0488281 394.795901,15.2041 394.368164,15.5146484 C394.092772,15.7138682 393.955078,15.9804671 393.955078,16.3144531 C393.955078,16.6191421 394.083983,16.8798817 394.341797,17.0966797 C394.669924,17.3720717 395.466791,17.6591782 396.732422,17.9580078 C397.998053,18.2568374 398.934079,18.5659164 399.540527,18.8852539 C400.146976,19.2045914 400.62158,19.6411105 400.964355,20.1948242 C401.307131,20.7485379 401.478516,21.4326131 401.478516,22.2470703 C401.478516,22.9853553 401.27344,23.6767546 400.863281,24.3212891 C400.453123,24.9658235 399.873051,25.4448227 399.123047,25.7583008 C398.373043,26.0717789 397.438482,26.2285156 396.319336,26.2285156 C394.690422,26.2285156 393.439457,25.8520545 392.566406,25.0991211 C391.693355,24.3461876 391.171876,23.2490306 391.001953,21.8076172 Z M405.495117,19.5136719 L403.253906,19.109375 C403.505861,18.2070267 403.93945,17.5390647 404.554688,17.1054688 C405.169925,16.6718728 406.083978,16.4550781 407.296875,16.4550781 C408.398443,16.4550781 409.218747,16.5854479 409.757812,16.8461914 C410.296878,17.1069349 410.676268,17.4379863 410.895996,17.8393555 C411.115724,18.2407247 411.225586,18.9775337 411.225586,20.0498047 L411.199219,22.9326172 C411.199219,23.7529338 411.238769,24.3579082 411.317871,24.7475586 C411.396973,25.137209 411.544921,25.5546853 411.761719,26 L409.318359,26 C409.253906,25.8359367 409.174805,25.592775 409.081055,25.2705078 C409.040039,25.1240227 409.010742,25.027344 408.993164,24.9804688 C408.571287,25.3906271 408.12012,25.6982412 407.639648,25.9033203 C407.159177,26.1083995 406.646487,26.2109375 406.101562,26.2109375 C405.14062,26.2109375 404.383304,25.9501979 403.82959,25.4287109 C403.275876,24.907224 402.999023,24.2480509 402.999023,23.4511719 C402.999023,22.9238255 403.124999,22.4536153 403.376953,22.0405273 C403.628908,21.6274393 403.981931,21.3110363 404.436035,21.0913086 C404.890139,20.8715809 405.544918,20.6796883 406.400391,20.515625 C407.554693,20.298827 408.35449,20.0966806 408.799805,19.9091797 L408.799805,19.6630859 C408.799805,19.1884742 408.682618,18.8500987 408.448242,18.6479492 C408.213866,18.4457998 407.771488,18.3447266 407.121094,18.3447266 C406.681638,18.3447266 406.338868,18.4311515 406.092773,18.6040039 C405.846678,18.7768563 405.647462,19.080076 405.495117,19.5136719 Z M408.799805,21.5175781 C408.483397,21.6230474 407.982425,21.7490227 407.296875,21.8955078 C406.611325,22.0419929 406.163087,22.1855462 405.952148,22.3261719 C405.629881,22.5546886 405.46875,22.8447248 405.46875,23.1962891 C405.46875,23.5419939 405.597655,23.8408191 405.855469,24.0927734 C406.113283,24.3447278 406.441404,24.4707031 406.839844,24.4707031 C407.285158,24.4707031 407.709959,24.3242202 408.114258,24.03125 C408.413087,23.8085926 408.609375,23.5361344 408.703125,23.2138672 C408.767578,23.0029286 408.799805,22.6015655 408.799805,22.0097656 L408.799805,21.5175781 Z M412.579102,16.6660156 L413.950195,16.6660156 L413.950195,15.9628906 C413.950195,15.1777304 414.033691,14.5917988 414.200684,14.2050781 C414.367677,13.8183574 414.675291,13.5034192 415.123535,13.2602539 C415.57178,13.0170886 416.138668,12.8955078 416.824219,12.8955078 C417.527347,12.8955078 418.215817,13.0009755 418.889648,13.2119141 L418.555664,14.9345703 C418.163084,14.8408198 417.785158,14.7939453 417.421875,14.7939453 C417.064451,14.7939453 416.808106,14.8774406 416.652832,15.0444336 C416.497558,15.2114266 416.419922,15.5322242 416.419922,16.0068359 L416.419922,16.6660156 L418.265625,16.6660156 L418.265625,18.6083984 L416.419922,18.6083984 L416.419922,26 L413.950195,26 L413.950195,18.6083984 L412.579102,18.6083984 L412.579102,16.6660156 Z M425.05957,23.0292969 L427.520508,23.4423828 C427.2041,24.3447311 426.704593,25.0317359 426.021973,25.503418 C425.339352,25.9751 424.485357,26.2109375 423.459961,26.2109375 C421.836906,26.2109375 420.635746,25.6806694 419.856445,24.6201172 C419.241208,23.7705036 418.933594,22.6982487 418.933594,21.4033203 C418.933594,19.8564376 419.337887,18.6450239 420.146484,17.769043 C420.955082,16.893062 421.977533,16.4550781 423.213867,16.4550781 C424.602546,16.4550781 425.698238,16.9135696 426.500977,17.8305664 C427.303715,18.7475632 427.6875,20.1523343 427.652344,22.0449219 L421.464844,22.0449219 C421.482422,22.7773474 421.681639,23.3471659 422.0625,23.7543945 C422.443361,24.1616231 422.917966,24.3652344 423.486328,24.3652344 C423.873049,24.3652344 424.198241,24.2597667 424.461914,24.0488281 C424.725587,23.8378896 424.924804,23.4980492 425.05957,23.0292969 Z M425.200195,20.5332031 C425.182617,19.8183558 424.998049,19.2749042 424.646484,18.902832 C424.29492,18.5307599 423.86719,18.3447266 423.363281,18.3447266 C422.824216,18.3447266 422.378908,18.5410137 422.027344,18.9335938 C421.675779,19.3261738 421.50293,19.8593716 421.508789,20.5332031 L425.200195,20.5332031 Z M433.945312,16.6660156 L433.945312,18.6347656 L432.257812,18.6347656 L432.257812,22.3964844 C432.257812,23.1582069 432.273926,23.6020502 432.306152,23.7280273 C432.338379,23.8540045 432.411621,23.9580074 432.525879,24.0400391 C432.640137,24.1220707 432.779296,24.1630859 432.943359,24.1630859 C433.171876,24.1630859 433.502928,24.0839852 433.936523,23.9257812 L434.147461,25.8417969 C433.573239,26.0878919 432.922855,26.2109375 432.196289,26.2109375 C431.750974,26.2109375 431.349611,26.1362312 430.992188,25.9868164 C430.634764,25.8374016 430.372559,25.6440442 430.205566,25.4067383 C430.038573,25.1694324 429.922852,24.8486348 429.858398,24.4443359 C429.805664,24.1572251 429.779297,23.5771528 429.779297,22.7041016 L429.779297,18.6347656 L428.645508,18.6347656 L428.645508,16.6660156 L429.779297,16.6660156 L429.779297,14.8115234 L432.257812,13.3701172 L432.257812,16.6660156 L433.945312,16.6660156 Z M434.490234,16.6660156 L437.118164,16.6660156 L439.350586,23.2929688 L441.530273,16.6660156 L444.087891,16.6660156 L440.791992,25.6484375 L440.203125,27.2744141 C439.986327,27.8193387 439.779786,28.2353501 439.583496,28.5224609 C439.387206,28.8095717 439.161622,29.0424796 438.906738,29.2211914 C438.651854,29.3999032 438.338381,29.539062 437.966309,29.6386719 C437.594236,29.7382817 437.17383,29.7880859 436.705078,29.7880859 C436.230466,29.7880859 435.764651,29.7382817 435.307617,29.6386719 L435.087891,27.7050781 C435.474611,27.7812504 435.823241,27.8193359 436.133789,27.8193359 C436.708011,27.8193359 437.132811,27.6508806 437.408203,27.3139648 C437.683595,26.9770491 437.894531,26.5478542 438.041016,26.0263672 L434.490234,16.6660156 Z" id="Vasofix®Safety" fill="#FFFFFF" fill-rule="nonzero"></path>
                <path d="M622.300781,13.1152344 L627.055664,13.1152344 C628.127935,13.1152344 628.94531,13.1972648 629.507812,13.3613281 C630.263676,13.5839855 630.91113,13.9794893 631.450195,14.5478516 C631.989261,15.1162138 632.399413,15.8120076 632.680664,16.6352539 C632.961915,17.4585002 633.102539,18.4736268 633.102539,19.6806641 C633.102539,20.7412162 632.970704,21.6552696 632.707031,22.4228516 C632.384764,23.3603563 631.924808,24.1191377 631.327148,24.6992188 C630.875974,25.1386741 630.266605,25.4814441 629.499023,25.7275391 C628.924802,25.9091806 628.157231,26 627.196289,26 L622.300781,26 L622.300781,13.1152344 Z M624.902344,15.2949219 L624.902344,23.8291016 L626.844727,23.8291016 C627.571293,23.8291016 628.095702,23.7880863 628.417969,23.7060547 C628.839846,23.6005854 629.18994,23.4218763 629.468262,23.1699219 C629.746583,22.9179675 629.973632,22.5034209 630.149414,21.9262695 C630.325196,21.3491182 630.413086,20.562505 630.413086,19.5664062 C630.413086,18.5703075 630.325196,17.8056667 630.149414,17.2724609 C629.973632,16.7392551 629.727541,16.3232437 629.411133,16.0244141 C629.094725,15.7255844 628.693362,15.523438 628.207031,15.4179688 C627.843748,15.3359371 627.131841,15.2949219 626.071289,15.2949219 L624.902344,15.2949219 Z M640.696289,23.0292969 L643.157227,23.4423828 C642.840819,24.3447311 642.341312,25.0317359 641.658691,25.503418 C640.976071,25.9751 640.122075,26.2109375 639.09668,26.2109375 C637.473625,26.2109375 636.272465,25.6806694 635.493164,24.6201172 C634.877927,23.7705036 634.570312,22.6982487 634.570312,21.4033203 C634.570312,19.8564376 634.974605,18.6450239 635.783203,17.769043 C636.591801,16.893062 637.614252,16.4550781 638.850586,16.4550781 C640.239265,16.4550781 641.334957,16.9135696 642.137695,17.8305664 C642.940434,18.7475632 643.324219,20.1523343 643.289062,22.0449219 L637.101562,22.0449219 C637.119141,22.7773474 637.318357,23.3471659 637.699219,23.7543945 C638.08008,24.1616231 638.554685,24.3652344 639.123047,24.3652344 C639.509768,24.3652344 639.83496,24.2597667 640.098633,24.0488281 C640.362306,23.8378896 640.561523,23.4980492 640.696289,23.0292969 Z M640.836914,20.5332031 C640.819336,19.8183558 640.634767,19.2749042 640.283203,18.902832 C639.931639,18.5307599 639.503909,18.3447266 639,18.3447266 C638.460935,18.3447266 638.015627,18.5410137 637.664062,18.9335938 C637.312498,19.3261738 637.139648,19.8593716 637.145508,20.5332031 L640.836914,20.5332031 Z M645.301758,26 L645.301758,13.1152344 L647.771484,13.1152344 L647.771484,26 L645.301758,26 Z M654.583008,16.6660156 L654.583008,18.6347656 L652.895508,18.6347656 L652.895508,22.3964844 C652.895508,23.1582069 652.911621,23.6020502 652.943848,23.7280273 C652.976074,23.8540045 653.049316,23.9580074 653.163574,24.0400391 C653.277833,24.1220707 653.416991,24.1630859 653.581055,24.1630859 C653.809571,24.1630859 654.140623,24.0839852 654.574219,23.9257812 L654.785156,25.8417969 C654.210935,26.0878919 653.560551,26.2109375 652.833984,26.2109375 C652.38867,26.2109375 651.987306,26.1362312 651.629883,25.9868164 C651.272459,25.8374016 651.010255,25.6440442 650.843262,25.4067383 C650.676269,25.1694324 650.560547,24.8486348 650.496094,24.4443359 C650.443359,24.1572251 650.416992,23.5771528 650.416992,22.7041016 L650.416992,18.6347656 L649.283203,18.6347656 L649.283203,16.6660156 L650.416992,16.6660156 L650.416992,14.8115234 L652.895508,13.3701172 L652.895508,16.6660156 L654.583008,16.6660156 Z M658.142578,19.5136719 L655.901367,19.109375 C656.153322,18.2070267 656.586911,17.5390647 657.202148,17.1054688 C657.817386,16.6718728 658.731439,16.4550781 659.944336,16.4550781 C661.045904,16.4550781 661.866208,16.5854479 662.405273,16.8461914 C662.944339,17.1069349 663.323729,17.4379863 663.543457,17.8393555 C663.763185,18.2407247 663.873047,18.9775337 663.873047,20.0498047 L663.84668,22.9326172 C663.84668,23.7529338 663.88623,24.3579082 663.965332,24.7475586 C664.044434,25.137209 664.192382,25.5546853 664.40918,26 L661.96582,26 C661.901367,25.8359367 661.822266,25.592775 661.728516,25.2705078 C661.6875,25.1240227 661.658203,25.027344 661.640625,24.9804688 C661.218748,25.3906271 660.767581,25.6982412 660.287109,25.9033203 C659.806638,26.1083995 659.293948,26.2109375 658.749023,26.2109375 C657.788081,26.2109375 657.030764,25.9501979 656.477051,25.4287109 C655.923337,24.907224 655.646484,24.2480509 655.646484,23.4511719 C655.646484,22.9238255 655.77246,22.4536153 656.024414,22.0405273 C656.276368,21.6274393 656.629392,21.3110363 657.083496,21.0913086 C657.5376,20.8715809 658.192379,20.6796883 659.047852,20.515625 C660.202154,20.298827 661.001951,20.0966806 661.447266,19.9091797 L661.447266,19.6630859 C661.447266,19.1884742 661.330079,18.8500987 661.095703,18.6479492 C660.861327,18.4457998 660.418949,18.3447266 659.768555,18.3447266 C659.329099,18.3447266 658.986329,18.4311515 658.740234,18.6040039 C658.494139,18.7768563 658.294923,19.080076 658.142578,19.5136719 Z M661.447266,21.5175781 C661.130858,21.6230474 660.629886,21.7490227 659.944336,21.8955078 C659.258786,22.0419929 658.810548,22.1855462 658.599609,22.3261719 C658.277342,22.5546886 658.116211,22.8447248 658.116211,23.1962891 C658.116211,23.5419939 658.245116,23.8408191 658.50293,24.0927734 C658.760743,24.3447278 659.088865,24.4707031 659.487305,24.4707031 C659.932619,24.4707031 660.35742,24.3242202 660.761719,24.03125 C661.060548,23.8085926 661.256835,23.5361344 661.350586,23.2138672 C661.415039,23.0029286 661.447266,22.6015655 661.447266,22.0097656 L661.447266,21.5175781 Z M666.290039,26 L666.290039,13.1152344 L670.183594,13.1152344 L672.521484,21.9042969 L674.833008,13.1152344 L678.735352,13.1152344 L678.735352,26 L676.318359,26 L676.318359,15.8574219 L673.760742,26 L671.255859,26 L668.707031,15.8574219 L668.707031,26 L666.290039,26 Z M686.707031,23.0292969 L689.167969,23.4423828 C688.851561,24.3447311 688.352054,25.0317359 687.669434,25.503418 C686.986813,25.9751 686.132818,26.2109375 685.107422,26.2109375 C683.484367,26.2109375 682.283207,25.6806694 681.503906,24.6201172 C680.888669,23.7705036 680.581055,22.6982487 680.581055,21.4033203 C680.581055,19.8564376 680.985348,18.6450239 681.793945,17.769043 C682.602543,16.893062 683.624994,16.4550781 684.861328,16.4550781 C686.250007,16.4550781 687.345699,16.9135696 688.148438,17.8305664 C688.951176,18.7475632 689.334961,20.1523343 689.299805,22.0449219 L683.112305,22.0449219 C683.129883,22.7773474 683.3291,23.3471659 683.709961,23.7543945 C684.090822,24.1616231 684.565427,24.3652344 685.133789,24.3652344 C685.52051,24.3652344 685.845702,24.2597667 686.109375,24.0488281 C686.373048,23.8378896 686.572265,23.4980492 686.707031,23.0292969 Z M686.847656,20.5332031 C686.830078,19.8183558 686.64551,19.2749042 686.293945,18.902832 C685.942381,18.5307599 685.514651,18.3447266 685.010742,18.3447266 C684.471677,18.3447266 684.026369,18.5410137 683.674805,18.9335938 C683.32324,19.3261738 683.150391,19.8593716 683.15625,20.5332031 L686.847656,20.5332031 Z M699.873047,26 L697.579102,26 L697.579102,24.6289062 C697.19824,25.162112 696.748538,25.5590807 696.22998,25.8198242 C695.711423,26.0805677 695.188479,26.2109375 694.661133,26.2109375 C693.588862,26.2109375 692.670414,25.7788129 691.905762,24.9145508 C691.141109,24.0502886 690.758789,22.8447343 690.758789,21.2978516 C690.758789,19.7158124 691.130856,18.5131877 691.875,17.6899414 C692.619144,16.8666951 693.559565,16.4550781 694.696289,16.4550781 C695.739263,16.4550781 696.641598,16.8886675 697.40332,17.7558594 L697.40332,13.1152344 L699.873047,13.1152344 L699.873047,26 Z M693.28125,21.1308594 C693.28125,22.1269581 693.418944,22.847654 693.694336,23.2929688 C694.092775,23.9375032 694.64941,24.2597656 695.364258,24.2597656 C695.93262,24.2597656 696.416014,24.0180688 696.814453,23.534668 C697.212893,23.0512671 697.412109,22.3291064 697.412109,21.3681641 C697.412109,20.2958931 697.218752,19.5239281 696.832031,19.0522461 C696.445311,18.580564 695.950198,18.3447266 695.34668,18.3447266 C694.760739,18.3447266 694.270022,18.5776344 693.874512,19.043457 C693.479002,19.5092797 693.28125,20.2050735 693.28125,21.1308594 Z M706.19043,8.7734375 C707.088221,8.7734375 707.94954,8.99788187 708.774414,9.44677734 C709.599288,9.89567282 710.247556,10.5393838 710.719238,11.3779297 C711.19092,12.2164755 711.426758,13.0937454 711.426758,14.0097656 C711.426758,14.9212285 711.195478,15.7905232 710.73291,16.6176758 C710.270343,17.4448284 709.625492,18.0896787 708.79834,18.5522461 C707.971187,19.0148135 707.101893,19.2460938 706.19043,19.2460938 C705.278967,19.2460938 704.409672,19.0148135 703.58252,18.5522461 C702.755367,18.0896787 702.110517,17.4448284 701.647949,16.6176758 C701.185382,15.7905232 700.954102,14.9212285 700.954102,14.0097656 C700.954102,13.0937454 701.189939,12.2164755 701.661621,11.3779297 C702.133303,10.5393838 702.781571,9.89567282 703.606445,9.44677734 C704.431319,8.99788187 705.292639,8.7734375 706.19043,8.7734375 Z M706.197266,9.79882812 C705.47721,9.79882812 704.786787,9.97883935 704.125977,10.3388672 C703.465166,10.698895 702.944501,11.2161425 702.563965,11.890625 C702.183429,12.5651075 701.993164,13.2714807 701.993164,14.0097656 C701.993164,14.7434933 702.178872,15.4430305 702.550293,16.1083984 C702.921714,16.7737663 703.440101,17.2932924 704.105469,17.6669922 C704.770837,18.040692 705.468095,18.2275391 706.197266,18.2275391 C706.930993,18.2275391 707.629391,18.040692 708.29248,17.6669922 C708.95557,17.2932924 709.473956,16.7737663 709.847656,16.1083984 C710.221356,15.4430305 710.408203,14.7434933 710.408203,14.0097656 C710.408203,13.2714807 710.217938,12.5651075 709.837402,11.890625 C709.456867,11.2161425 708.935062,10.698895 708.271973,10.3388672 C707.608883,9.97883935 706.917321,9.79882812 706.197266,9.79882812 Z M706.839133,14.381233 C707.004777,14.4443973 707.132617,14.5131198 707.222656,14.5874023 C707.313803,14.662598 707.439127,14.805012 707.598633,15.0146484 C707.639649,15.0693362 707.776366,15.2949199 708.008789,15.6914062 L708.665039,16.8125 L707.270508,16.8125 L706.805664,15.9101562 C706.491209,15.3040334 706.231446,14.9223641 706.026367,14.7651367 C705.821288,14.6079094 705.561525,14.5292969 705.24707,14.5292969 L704.953125,14.5292969 L704.953125,16.8125 L703.825195,16.8125 L703.825195,11.2548828 L704.953125,11.2548828 C706.010422,11.2548828 706.602864,11.2594401 706.730469,11.2685547 C707.104169,11.3004559 707.394693,11.3745111 707.602051,11.4907227 C707.809409,11.6069342 707.982584,11.7846668 708.121582,12.0239258 C708.26058,12.2631848 708.330078,12.5286444 708.330078,12.8203125 C708.330078,13.2213562 708.199057,13.5642889 707.937012,13.8491211 C707.674968,14.1339509 707.306974,14.3105437 706.833019,14.3789046 L706.839133,14.381233 Z M704.953125,13.6542969 L705.411133,13.6542969 C706.062829,13.6542969 706.467284,13.629232 706.624512,13.5791016 C706.781739,13.5289711 706.905924,13.4412441 706.99707,13.315918 C707.088217,13.1905918 707.133789,13.0481779 707.133789,12.8886719 C707.133789,12.7337232 707.089356,12.5958665 707.000488,12.4750977 C706.911621,12.3543288 706.785157,12.2677411 706.621094,12.215332 C706.45703,12.1629229 706.053714,12.1367188 705.411133,12.1367188 L704.953125,12.1367188 L704.953125,13.6542969 Z M716.296875,22.2558594 L716.296875,20.4101562 L726.307617,20.4101562 L726.307617,22.2558594 L716.296875,22.2558594 Z M732.644531,13.1152344 L737.399414,13.1152344 C738.471685,13.1152344 739.28906,13.1972648 739.851562,13.3613281 C740.607426,13.5839855 741.25488,13.9794893 741.793945,14.5478516 C742.333011,15.1162138 742.743163,15.8120076 743.024414,16.6352539 C743.305665,17.4585002 743.446289,18.4736268 743.446289,19.6806641 C743.446289,20.7412162 743.314454,21.6552696 743.050781,22.4228516 C742.728514,23.3603563 742.268558,24.1191377 741.670898,24.6992188 C741.219724,25.1386741 740.610355,25.4814441 739.842773,25.7275391 C739.268552,25.9091806 738.500981,26 737.540039,26 L732.644531,26 L732.644531,13.1152344 Z M735.246094,15.2949219 L735.246094,23.8291016 L737.188477,23.8291016 C737.915043,23.8291016 738.439452,23.7880863 738.761719,23.7060547 C739.183596,23.6005854 739.53369,23.4218763 739.812012,23.1699219 C740.090333,22.9179675 740.317382,22.5034209 740.493164,21.9262695 C740.668946,21.3491182 740.756836,20.562505 740.756836,19.5664062 C740.756836,18.5703075 740.668946,17.8056667 740.493164,17.2724609 C740.317382,16.7392551 740.071291,16.3232437 739.754883,16.0244141 C739.438475,15.7255844 739.037112,15.523438 738.550781,15.4179688 C738.187498,15.3359371 737.475591,15.2949219 736.415039,15.2949219 L735.246094,15.2949219 Z M751.040039,23.0292969 L753.500977,23.4423828 C753.184569,24.3447311 752.685062,25.0317359 752.002441,25.503418 C751.319821,25.9751 750.465825,26.2109375 749.44043,26.2109375 C747.817375,26.2109375 746.616215,25.6806694 745.836914,24.6201172 C745.221677,23.7705036 744.914062,22.6982487 744.914062,21.4033203 C744.914062,19.8564376 745.318355,18.6450239 746.126953,17.769043 C746.935551,16.893062 747.958002,16.4550781 749.194336,16.4550781 C750.583015,16.4550781 751.678707,16.9135696 752.481445,17.8305664 C753.284184,18.7475632 753.667969,20.1523343 753.632812,22.0449219 L747.445312,22.0449219 C747.462891,22.7773474 747.662107,23.3471659 748.042969,23.7543945 C748.42383,24.1616231 748.898435,24.3652344 749.466797,24.3652344 C749.853518,24.3652344 750.17871,24.2597667 750.442383,24.0488281 C750.706056,23.8378896 750.905273,23.4980492 751.040039,23.0292969 Z M751.180664,20.5332031 C751.163086,19.8183558 750.978517,19.2749042 750.626953,18.902832 C750.275389,18.5307599 749.847659,18.3447266 749.34375,18.3447266 C748.804685,18.3447266 748.359377,18.5410137 748.007812,18.9335938 C747.656248,19.3261738 747.483398,19.8593716 747.489258,20.5332031 L751.180664,20.5332031 Z M755.645508,26 L755.645508,13.1152344 L758.115234,13.1152344 L758.115234,26 L755.645508,26 Z M764.926758,16.6660156 L764.926758,18.6347656 L763.239258,18.6347656 L763.239258,22.3964844 C763.239258,23.1582069 763.255371,23.6020502 763.287598,23.7280273 C763.319824,23.8540045 763.393066,23.9580074 763.507324,24.0400391 C763.621583,24.1220707 763.760741,24.1630859 763.924805,24.1630859 C764.153321,24.1630859 764.484373,24.0839852 764.917969,23.9257812 L765.128906,25.8417969 C764.554685,26.0878919 763.904301,26.2109375 763.177734,26.2109375 C762.73242,26.2109375 762.331056,26.1362312 761.973633,25.9868164 C761.616209,25.8374016 761.354005,25.6440442 761.187012,25.4067383 C761.020019,25.1694324 760.904297,24.8486348 760.839844,24.4443359 C760.787109,24.1572251 760.760742,23.5771528 760.760742,22.7041016 L760.760742,18.6347656 L759.626953,18.6347656 L759.626953,16.6660156 L760.760742,16.6660156 L760.760742,14.8115234 L763.239258,13.3701172 L763.239258,16.6660156 L764.926758,16.6660156 Z M768.486328,19.5136719 L766.245117,19.109375 C766.497072,18.2070267 766.930661,17.5390647 767.545898,17.1054688 C768.161136,16.6718728 769.075189,16.4550781 770.288086,16.4550781 C771.389654,16.4550781 772.209958,16.5854479 772.749023,16.8461914 C773.288089,17.1069349 773.667479,17.4379863 773.887207,17.8393555 C774.106935,18.2407247 774.216797,18.9775337 774.216797,20.0498047 L774.19043,22.9326172 C774.19043,23.7529338 774.22998,24.3579082 774.309082,24.7475586 C774.388184,25.137209 774.536132,25.5546853 774.75293,26 L772.30957,26 C772.245117,25.8359367 772.166016,25.592775 772.072266,25.2705078 C772.03125,25.1240227 772.001953,25.027344 771.984375,24.9804688 C771.562498,25.3906271 771.111331,25.6982412 770.630859,25.9033203 C770.150388,26.1083995 769.637698,26.2109375 769.092773,26.2109375 C768.131831,26.2109375 767.374514,25.9501979 766.820801,25.4287109 C766.267087,24.907224 765.990234,24.2480509 765.990234,23.4511719 C765.990234,22.9238255 766.11621,22.4536153 766.368164,22.0405273 C766.620118,21.6274393 766.973142,21.3110363 767.427246,21.0913086 C767.88135,20.8715809 768.536129,20.6796883 769.391602,20.515625 C770.545904,20.298827 771.345701,20.0966806 771.791016,19.9091797 L771.791016,19.6630859 C771.791016,19.1884742 771.673829,18.8500987 771.439453,18.6479492 C771.205077,18.4457998 770.762699,18.3447266 770.112305,18.3447266 C769.672849,18.3447266 769.330079,18.4311515 769.083984,18.6040039 C768.837889,18.7768563 768.638673,19.080076 768.486328,19.5136719 Z M771.791016,21.5175781 C771.474608,21.6230474 770.973636,21.7490227 770.288086,21.8955078 C769.602536,22.0419929 769.154298,22.1855462 768.943359,22.3261719 C768.621092,22.5546886 768.459961,22.8447248 768.459961,23.1962891 C768.459961,23.5419939 768.588866,23.8408191 768.84668,24.0927734 C769.104493,24.3447278 769.432615,24.4707031 769.831055,24.4707031 C770.276369,24.4707031 770.70117,24.3242202 771.105469,24.03125 C771.404298,23.8085926 771.600585,23.5361344 771.694336,23.2138672 C771.758789,23.0029286 771.791016,22.6015655 771.791016,22.0097656 L771.791016,21.5175781 Z M781.010742,21.8076172 L783.541992,21.5615234 C783.694337,22.4111371 784.003416,23.0351543 784.469238,23.4335938 C784.935061,23.8320332 785.563473,24.03125 786.354492,24.03125 C787.192387,24.03125 787.823728,23.8540057 788.248535,23.4995117 C788.673342,23.1450178 788.885742,22.7304711 788.885742,22.2558594 C788.885742,21.9511704 788.796388,21.6918956 788.617676,21.4780273 C788.438964,21.2641591 788.126955,21.0781258 787.681641,20.9199219 C787.376952,20.8144526 786.682623,20.6269545 785.598633,20.3574219 C784.204095,20.011717 783.225589,19.5869166 782.663086,19.0830078 C781.872066,18.3740199 781.476562,17.5097707 781.476562,16.4902344 C781.476562,15.8339811 781.662596,15.2202177 782.034668,14.6489258 C782.40674,14.0776339 782.942868,13.6425796 783.643066,13.34375 C784.343265,13.0449204 785.188472,12.8955078 786.178711,12.8955078 C787.795907,12.8955078 789.01318,13.2499965 789.830566,13.9589844 C790.647953,14.6679723 791.077148,15.6142519 791.118164,16.7978516 L788.516602,16.9121094 C788.405273,16.2499967 788.166506,15.7739272 787.800293,15.4838867 C787.43408,15.1938462 786.884769,15.0488281 786.152344,15.0488281 C785.396481,15.0488281 784.80469,15.2041 784.376953,15.5146484 C784.101561,15.7138682 783.963867,15.9804671 783.963867,16.3144531 C783.963867,16.6191421 784.092772,16.8798817 784.350586,17.0966797 C784.678713,17.3720717 785.47558,17.6591782 786.741211,17.9580078 C788.006842,18.2568374 788.942868,18.5659164 789.549316,18.8852539 C790.155765,19.2045914 790.630369,19.6411105 790.973145,20.1948242 C791.31592,20.7485379 791.487305,21.4326131 791.487305,22.2470703 C791.487305,22.9853553 791.282229,23.6767546 790.87207,24.3212891 C790.461912,24.9658235 789.88184,25.4448227 789.131836,25.7583008 C788.381832,26.0717789 787.447271,26.2285156 786.328125,26.2285156 C784.699211,26.2285156 783.448247,25.8520545 782.575195,25.0991211 C781.702144,24.3461876 781.180665,23.2490306 781.010742,21.8076172 Z M799.063477,23.0292969 L801.524414,23.4423828 C801.208006,24.3447311 800.7085,25.0317359 800.025879,25.503418 C799.343258,25.9751 798.489263,26.2109375 797.463867,26.2109375 C795.840812,26.2109375 794.639652,25.6806694 793.860352,24.6201172 C793.245114,23.7705036 792.9375,22.6982487 792.9375,21.4033203 C792.9375,19.8564376 793.341793,18.6450239 794.150391,17.769043 C794.958988,16.893062 795.981439,16.4550781 797.217773,16.4550781 C798.606452,16.4550781 799.702144,16.9135696 800.504883,17.8305664 C801.307621,18.7475632 801.691406,20.1523343 801.65625,22.0449219 L795.46875,22.0449219 C795.486328,22.7773474 795.685545,23.3471659 796.066406,23.7543945 C796.447268,24.1616231 796.921872,24.3652344 797.490234,24.3652344 C797.876955,24.3652344 798.202147,24.2597667 798.46582,24.0488281 C798.729494,23.8378896 798.92871,23.4980492 799.063477,23.0292969 Z M799.204102,20.5332031 C799.186523,19.8183558 799.001955,19.2749042 798.650391,18.902832 C798.298826,18.5307599 797.871096,18.3447266 797.367188,18.3447266 C796.828122,18.3447266 796.382814,18.5410137 796.03125,18.9335938 C795.679686,19.3261738 795.506836,19.8593716 795.512695,20.5332031 L799.204102,20.5332031 Z M803.668945,26 L803.668945,13.1152344 L806.138672,13.1152344 L806.138672,26 L803.668945,26 Z M807.588867,16.6660156 L808.959961,16.6660156 L808.959961,15.9628906 C808.959961,15.1777304 809.043456,14.5917988 809.210449,14.2050781 C809.377442,13.8183574 809.685056,13.5034192 810.133301,13.2602539 C810.581545,13.0170886 811.148434,12.8955078 811.833984,12.8955078 C812.537113,12.8955078 813.225583,13.0009755 813.899414,13.2119141 L813.56543,14.9345703 C813.17285,14.8408198 812.794924,14.7939453 812.431641,14.7939453 C812.074217,14.7939453 811.817872,14.8774406 811.662598,15.0444336 C811.507323,15.2114266 811.429688,15.5322242 811.429688,16.0068359 L811.429688,16.6660156 L813.275391,16.6660156 L813.275391,18.6083984 L811.429688,18.6083984 L811.429688,26 L808.959961,26 L808.959961,18.6083984 L807.588867,18.6083984 L807.588867,16.6660156 Z M819.023438,21.8076172 L821.554688,21.5615234 C821.707032,22.4111371 822.016111,23.0351543 822.481934,23.4335938 C822.947756,23.8320332 823.576168,24.03125 824.367188,24.03125 C825.205082,24.03125 825.836424,23.8540057 826.26123,23.4995117 C826.686037,23.1450178 826.898438,22.7304711 826.898438,22.2558594 C826.898438,21.9511704 826.809083,21.6918956 826.630371,21.4780273 C826.451659,21.2641591 826.139651,21.0781258 825.694336,20.9199219 C825.389647,20.8144526 824.695318,20.6269545 823.611328,20.3574219 C822.21679,20.011717 821.238284,19.5869166 820.675781,19.0830078 C819.884762,18.3740199 819.489258,17.5097707 819.489258,16.4902344 C819.489258,15.8339811 819.675291,15.2202177 820.047363,14.6489258 C820.419435,14.0776339 820.955563,13.6425796 821.655762,13.34375 C822.355961,13.0449204 823.201167,12.8955078 824.191406,12.8955078 C825.808602,12.8955078 827.025875,13.2499965 827.843262,13.9589844 C828.660649,14.6679723 829.089844,15.6142519 829.130859,16.7978516 L826.529297,16.9121094 C826.417968,16.2499967 826.179201,15.7739272 825.812988,15.4838867 C825.446776,15.1938462 824.897465,15.0488281 824.165039,15.0488281 C823.409176,15.0488281 822.817385,15.2041 822.389648,15.5146484 C822.114256,15.7138682 821.976562,15.9804671 821.976562,16.3144531 C821.976562,16.6191421 822.105467,16.8798817 822.363281,17.0966797 C822.691408,17.3720717 823.488275,17.6591782 824.753906,17.9580078 C826.019538,18.2568374 826.955563,18.5659164 827.562012,18.8852539 C828.16846,19.2045914 828.643065,19.6411105 828.98584,20.1948242 C829.328615,20.7485379 829.5,21.4326131 829.5,22.2470703 C829.5,22.9853553 829.294924,23.6767546 828.884766,24.3212891 C828.474607,24.9658235 827.894535,25.4448227 827.144531,25.7583008 C826.394527,26.0717789 825.459967,26.2285156 824.34082,26.2285156 C822.711906,26.2285156 821.460942,25.8520545 820.587891,25.0991211 C819.714839,24.3461876 819.19336,23.2490306 819.023438,21.8076172 Z M833.516602,19.5136719 L831.275391,19.109375 C831.527345,18.2070267 831.960934,17.5390647 832.576172,17.1054688 C833.191409,16.6718728 834.105463,16.4550781 835.318359,16.4550781 C836.419927,16.4550781 837.240232,16.5854479 837.779297,16.8461914 C838.318362,17.1069349 838.697753,17.4379863 838.91748,17.8393555 C839.137208,18.2407247 839.24707,18.9775337 839.24707,20.0498047 L839.220703,22.9326172 C839.220703,23.7529338 839.260254,24.3579082 839.339355,24.7475586 C839.418457,25.137209 839.566405,25.5546853 839.783203,26 L837.339844,26 C837.27539,25.8359367 837.19629,25.592775 837.102539,25.2705078 C837.061523,25.1240227 837.032227,25.027344 837.014648,24.9804688 C836.592771,25.3906271 836.141604,25.6982412 835.661133,25.9033203 C835.180662,26.1083995 834.667971,26.2109375 834.123047,26.2109375 C833.162105,26.2109375 832.404788,25.9501979 831.851074,25.4287109 C831.297361,24.907224 831.020508,24.2480509 831.020508,23.4511719 C831.020508,22.9238255 831.146483,22.4536153 831.398438,22.0405273 C831.650392,21.6274393 832.003416,21.3110363 832.45752,21.0913086 C832.911623,20.8715809 833.566402,20.6796883 834.421875,20.515625 C835.576178,20.298827 836.375974,20.0966806 836.821289,19.9091797 L836.821289,19.6630859 C836.821289,19.1884742 836.704103,18.8500987 836.469727,18.6479492 C836.23535,18.4457998 835.792972,18.3447266 835.142578,18.3447266 C834.703123,18.3447266 834.360353,18.4311515 834.114258,18.6040039 C833.868163,18.7768563 833.668946,19.080076 833.516602,19.5136719 Z M836.821289,21.5175781 C836.504881,21.6230474 836.00391,21.7490227 835.318359,21.8955078 C834.632809,22.0419929 834.184571,22.1855462 833.973633,22.3261719 C833.651366,22.5546886 833.490234,22.8447248 833.490234,23.1962891 C833.490234,23.5419939 833.619139,23.8408191 833.876953,24.0927734 C834.134767,24.3447278 834.462889,24.4707031 834.861328,24.4707031 C835.306643,24.4707031 835.731443,24.3242202 836.135742,24.03125 C836.434572,23.8085926 836.630859,23.5361344 836.724609,23.2138672 C836.789063,23.0029286 836.821289,22.6015655 836.821289,22.0097656 L836.821289,21.5175781 Z M840.600586,16.6660156 L841.97168,16.6660156 L841.97168,15.9628906 C841.97168,15.1777304 842.055175,14.5917988 842.222168,14.2050781 C842.389161,13.8183574 842.696775,13.5034192 843.14502,13.2602539 C843.593264,13.0170886 844.160153,12.8955078 844.845703,12.8955078 C845.548832,12.8955078 846.237301,13.0009755 846.911133,13.2119141 L846.577148,14.9345703 C846.184568,14.8408198 845.806642,14.7939453 845.443359,14.7939453 C845.085936,14.7939453 844.829591,14.8774406 844.674316,15.0444336 C844.519042,15.2114266 844.441406,15.5322242 844.441406,16.0068359 L844.441406,16.6660156 L846.287109,16.6660156 L846.287109,18.6083984 L844.441406,18.6083984 L844.441406,26 L841.97168,26 L841.97168,18.6083984 L840.600586,18.6083984 L840.600586,16.6660156 Z M853.081055,23.0292969 L855.541992,23.4423828 C855.225584,24.3447311 854.726078,25.0317359 854.043457,25.503418 C853.360836,25.9751 852.506841,26.2109375 851.481445,26.2109375 C849.85839,26.2109375 848.65723,25.6806694 847.87793,24.6201172 C847.262692,23.7705036 846.955078,22.6982487 846.955078,21.4033203 C846.955078,19.8564376 847.359371,18.6450239 848.167969,17.769043 C848.976567,16.893062 849.999017,16.4550781 851.235352,16.4550781 C852.62403,16.4550781 853.719723,16.9135696 854.522461,17.8305664 C855.325199,18.7475632 855.708985,20.1523343 855.673828,22.0449219 L849.486328,22.0449219 C849.503906,22.7773474 849.703123,23.3471659 850.083984,23.7543945 C850.464846,24.1616231 850.93945,24.3652344 851.507812,24.3652344 C851.894533,24.3652344 852.219725,24.2597667 852.483398,24.0488281 C852.747072,23.8378896 852.946288,23.4980492 853.081055,23.0292969 Z M853.22168,20.5332031 C853.204101,19.8183558 853.019533,19.2749042 852.667969,18.902832 C852.316404,18.5307599 851.888674,18.3447266 851.384766,18.3447266 C850.8457,18.3447266 850.400392,18.5410137 850.048828,18.9335938 C849.697264,19.3261738 849.524414,19.8593716 849.530273,20.5332031 L853.22168,20.5332031 Z M861.569336,8.7734375 C862.467127,8.7734375 863.328446,8.99788187 864.15332,9.44677734 C864.978194,9.89567282 865.626462,10.5393838 866.098145,11.3779297 C866.569827,12.2164755 866.805664,13.0937454 866.805664,14.0097656 C866.805664,14.9212285 866.574384,15.7905232 866.111816,16.6176758 C865.649249,17.4448284 865.004399,18.0896787 864.177246,18.5522461 C863.350094,19.0148135 862.480799,19.2460938 861.569336,19.2460938 C860.657873,19.2460938 859.788578,19.0148135 858.961426,18.5522461 C858.134273,18.0896787 857.489423,17.4448284 857.026855,16.6176758 C856.564288,15.7905232 856.333008,14.9212285 856.333008,14.0097656 C856.333008,13.0937454 856.568845,12.2164755 857.040527,11.3779297 C857.512209,10.5393838 858.160478,9.89567282 858.985352,9.44677734 C859.810225,8.99788187 860.671545,8.7734375 861.569336,8.7734375 Z M861.576172,9.79882812 C860.856116,9.79882812 860.165693,9.97883935 859.504883,10.3388672 C858.844072,10.698895 858.323407,11.2161425 857.942871,11.890625 C857.562335,12.5651075 857.37207,13.2714807 857.37207,14.0097656 C857.37207,14.7434933 857.557778,15.4430305 857.929199,16.1083984 C858.30062,16.7737663 858.819007,17.2932924 859.484375,17.6669922 C860.149743,18.040692 860.847002,18.2275391 861.576172,18.2275391 C862.3099,18.2275391 863.008297,18.040692 863.671387,17.6669922 C864.334476,17.2932924 864.852863,16.7737663 865.226562,16.1083984 C865.600262,15.4430305 865.787109,14.7434933 865.787109,14.0097656 C865.787109,13.2714807 865.596844,12.5651075 865.216309,11.890625 C864.835773,11.2161425 864.313968,10.698895 863.650879,10.3388672 C862.98779,9.97883935 862.296228,9.79882812 861.576172,9.79882812 Z M862.21804,14.381233 C862.383683,14.4443973 862.511523,14.5131198 862.601562,14.5874023 C862.692709,14.662598 862.818033,14.805012 862.977539,15.0146484 C863.018555,15.0693362 863.155272,15.2949199 863.387695,15.6914062 L864.043945,16.8125 L862.649414,16.8125 L862.18457,15.9101562 C861.870116,15.3040334 861.610353,14.9223641 861.405273,14.7651367 C861.200194,14.6079094 860.940431,14.5292969 860.625977,14.5292969 L860.332031,14.5292969 L860.332031,16.8125 L859.204102,16.8125 L859.204102,11.2548828 L860.332031,11.2548828 C861.389328,11.2548828 861.98177,11.2594401 862.109375,11.2685547 C862.483075,11.3004559 862.773599,11.3745111 862.980957,11.4907227 C863.188315,11.6069342 863.36149,11.7846668 863.500488,12.0239258 C863.639486,12.2631848 863.708984,12.5286444 863.708984,12.8203125 C863.708984,13.2213562 863.577964,13.5642889 863.315918,13.8491211 C863.053875,14.1339509 862.685881,14.3105437 862.211926,14.3789046 L862.21804,14.381233 Z M860.332031,13.6542969 L860.790039,13.6542969 C861.441735,13.6542969 861.846191,13.629232 862.003418,13.5791016 C862.160645,13.5289711 862.28483,13.4412441 862.375977,13.315918 C862.467123,13.1905918 862.512695,13.0481779 862.512695,12.8886719 C862.512695,12.7337232 862.468262,12.5958665 862.379395,12.4750977 C862.290527,12.3543288 862.164063,12.2677411 862,12.215332 C861.835937,12.1629229 861.43262,12.1367188 860.790039,12.1367188 L860.332031,12.1367188 L860.332031,13.6542969 Z M880.816406,23.7060547 L880.816406,26 L872.15918,26 C872.25293,25.1328082 872.534177,24.311039 873.00293,23.534668 C873.471682,22.7582969 874.397454,21.728522 875.780273,20.4453125 C876.89356,19.4081979 877.576171,18.70508 877.828125,18.3359375 C878.16797,17.8261693 878.337891,17.3222681 878.337891,16.8242188 C878.337891,16.2734347 878.189943,15.8500991 877.894043,15.5541992 C877.598143,15.2582993 877.189456,15.1103516 876.667969,15.1103516 C876.152341,15.1103516 875.742189,15.2656234 875.4375,15.5761719 C875.132811,15.8867203 874.957031,16.4023401 874.910156,17.1230469 L872.449219,16.8769531 C872.595704,15.5175713 873.05566,14.5419951 873.829102,13.9501953 C874.602543,13.3583955 875.56933,13.0625 876.729492,13.0625 C878.000983,13.0625 878.999996,13.40527 879.726562,14.0908203 C880.453129,14.7763706 880.816406,15.6289012 880.816406,16.6484375 C880.816406,17.2285185 880.712403,17.7807591 880.504395,18.3051758 C880.296386,18.8295925 879.966799,19.3789034 879.515625,19.953125 C879.216795,20.3339863 878.677738,20.8818324 877.898438,21.5966797 C877.119137,22.311527 876.625489,22.7861316 876.41748,23.0205078 C876.209472,23.254884 876.041016,23.4833973 875.912109,23.7060547 L880.816406,23.7060547 Z" id="DeltaMed®–DeltaSelfSafe®2" fill="#373737" fill-rule="nonzero"></path>
            </g>
        </g>
    </g>
</svg>