<?xml version="1.0" encoding="UTF-8"?>
<svg width="30px" height="30px" viewBox="0 0 30 30" version="1.1" xmlns="http://www.w3.org/2000/svg" xmlns:xlink="http://www.w3.org/1999/xlink">
    <!-- Generator: Sketch 49 (51002) - http://www.bohemiancoding.com/sketch -->
    <title>Checkbox</title>
    <desc>Created with Sketch.</desc>
    <defs></defs>
    <g id="Checkbox" stroke="none" stroke-width="1" fill="none" fill-rule="evenodd">
        <path d="M29.347098,0 L0.652507979,0 C0.292367706,0 0,0.292761732 0,0.652902006 L0,29.347492 C0,29.7076323 0.292367706,30 0.652507979,30 L29.347098,30 C29.7076323,30 30,29.7076323 30,29.347492 L30,0.652902006 C30,0.292761732 29.7076323,0 29.347098,0 Z M23.7339599,10.3557649 L11.8235404,22.1976839 C11.7493914,22.2717948 11.6523378,22.3076923 11.5552842,22.3076923 C11.4566777,22.3076923 11.3580712,22.2717948 11.2850869,22.1976839 L5.4952565,16.4425089 C5.42421326,16.371486 5.38461538,16.2749874 5.38461538,16.1742429 C5.38461538,16.0731124 5.42421326,15.9766138 5.4952565,15.9055909 L7.52717097,13.8852967 C7.67158675,13.7436368 7.92470257,13.7436368 8.06717728,13.8852967 L11.5552842,17.3519115 L21.1620391,7.79971061 C21.3060667,7.65650672 21.5591825,7.65650672 21.7016572,7.79971061 L23.7339599,9.81884678 C23.8050031,9.89102771 23.8461538,9.98752629 23.8461538,10.0871128 C23.8461538,10.1882433 23.8050031,10.2847419 23.7339599,10.3557649 Z" id="verification-square-button" fill="#00B482"></path>
    </g>
</svg>