<?xml version="1.0" encoding="utf-8"?>
<!-- Generator: Adobe Illustrator 24.1.0, SVG Export Plug-In . SVG Version: 6.00 Build 0)  -->
<svg version="1.1" id="Ebene_1" xmlns="http://www.w3.org/2000/svg" xmlns:xlink="http://www.w3.org/1999/xlink" x="0px" y="0px"
	 viewBox="0 0 1000 1000" style="enable-background:new 0 0 1000 1000;" xml:space="preserve">
<style type="text/css">
	.st0{fill:#FFFFFF;}
	.st1{fill:none;stroke:#FFFFFF;stroke-width:10;stroke-miterlimit:10;}
	.st2{fill:none;stroke:#FFFFFF;stroke-width:10;stroke-linejoin:round;stroke-miterlimit:10;}
	.st3{fill:none;stroke:#FFFFFF;stroke-width:10;stroke-linecap:round;stroke-linejoin:round;stroke-miterlimit:10;}
</style>
<g>
	<rect x="351.6" y="460.3" class="st0" width="148.9" height="41.1"/>
</g>
<circle class="st0" cx="696.3" cy="488.8" r="10.6"/>
<g>
	<rect x="351.6" y="327.2" class="st0" width="148.9" height="41.1"/>
</g>
<circle class="st0" cx="559.1" cy="340.5" r="9.6"/>
<circle class="st0" cx="581" cy="357.2" r="9.6"/>
<circle class="st0" cx="536.5" cy="357.2" r="9.6"/>
<circle class="st0" cx="696.3" cy="355.7" r="10.6"/>
<circle class="st0" cx="559.1" cy="371.4" r="9.6"/>
<circle class="st0" cx="559.1" cy="477.6" r="9.6"/>
<circle class="st0" cx="581" cy="494.3" r="9.6"/>
<circle class="st0" cx="536.5" cy="494.3" r="9.6"/>
<circle class="st0" cx="559.1" cy="508.5" r="9.6"/>
<g>
	<rect x="351.6" y="611.5" class="st0" width="148.9" height="41.1"/>
</g>
<circle class="st0" cx="559.1" cy="626.7" r="9.6"/>
<circle class="st0" cx="581" cy="643.4" r="9.6"/>
<circle class="st0" cx="536.5" cy="643.4" r="9.6"/>
<circle class="st0" cx="559.1" cy="657.6" r="9.6"/>
<path class="st1" d="M346.7,445.3c0,0,101.7-10.5,171.6,7.8c0,0-1.4,51.6-15.1,67.1c0,0-139.2-13.2-162.4-12.8
	C340.7,507.4,336.6,474.5,346.7,445.3z"/>
<path class="st1" d="M522.3,454.5c0,0-4.6,52.9-13.7,65.7c0,0,90.3,7.8,155.6,0c0,0,13.2-26.5,14.6-60.7
	C678.8,459.5,591.7,461.3,522.3,454.5z"/>
<path class="st1" d="M682,459c0,0,27.4-1.4,29.2,0c0,0,5.5,41.5,0,57.9c0,0-29.1,2.5-41.1,3.2C670.2,520.2,683.4,470.4,682,459z"/>
<path class="st1" d="M726.4,538H331c-8.4,0-15.4-7-15.4-15.5l5.4-78c0-8.5,6.9-15.5,15.4-15.5H721c8.4,0,15.4,7,15.4,15.5l5.4,78
	C741.8,531,734.9,538,726.4,538z"/>
<path class="st1" d="M346.7,312.2c0,0,101.7-10.5,171.6,7.8c0,0-1.4,51.6-15.1,67.1c0,0-139.2-13.2-162.4-12.8
	C340.7,374.3,336.6,341.4,346.7,312.2z"/>
<path class="st1" d="M522.3,321.4c0,0-4.6,52.9-13.7,65.7c0,0,90.3,7.8,155.6,0c0,0,13.2-26.5,14.6-60.7
	C678.8,326.4,591.7,328.2,522.3,321.4z"/>
<path class="st1" d="M682,325.9c0,0,27.4-1.4,29.2,0c0,0,5.5,41.5,0,57.9c0,0-29.1,2.5-41.1,3.2C670.2,387.1,683.4,337.3,682,325.9z
	"/>
<path class="st1" d="M726.4,404.9H331c-8.4,0-15.4-7-15.4-15.5l5.4-78c0-8.5,6.9-15.5,15.4-15.5H721c8.4,0,15.4,7,15.4,15.5l5.4,78
	C741.8,397.9,734.9,404.9,726.4,404.9z"/>
<line class="st1" x1="766.2" y1="689.1" x2="766.2" y2="727.3"/>
<polyline class="st1" points="745.4,580.1 745.4,269.2 766.2,269.2 766.2,580.1 "/>
<line class="st1" x1="745.4" y1="727.3" x2="745.4" y2="687.1"/>
<line class="st1" x1="766.2" y1="836.3" x2="745.4" y2="836.3"/>
<rect x="285.5" y="269.2" class="st1" width="20.8" height="567"/>
<path class="st1" d="M408.2,183.9c-88.7,8.1-122.3,27.9-122.3,51.1v10.4c0,0,0,19.6,0,21.2h480.7v-21.2l-0.5-10.4
	c0-23.1-35.6-42.8-124.1-51"/>
<g>
	<path class="st1" d="M403.5,205.1c0-38,54.9-68.8,122.7-68.8s122.7,30.8,122.7,68.8"/>
	<path class="st1" d="M457.7,207.5c0-22.5,30.6-40.8,68.5-40.8s68.5,18.3,68.5,40.8"/>
</g>
<path class="st1" d="M346.7,596.5c0,0,101.7-10.5,171.6,7.8c0,0-1.4,51.6-15.1,67.1c0,0-139.2-13.2-162.4-12.8
	C340.7,658.6,336.6,625.7,346.7,596.5z"/>
<path class="st1" d="M522.3,605.6c0,0-4.6,52.9-13.7,65.7c0,0,90.3,7.8,155.6,0c0,0,13.2-26.5,14.6-60.7
	C678.8,610.7,591.7,612.5,522.3,605.6z"/>
<path class="st1" d="M677.2,689.1H331c-8.4,0-15.4-7-15.4-15.5l5.4-78c0-8.5,6.9-15.5,15.4-15.5h335.3c8.4,0,15.4,7,15.4,15.5
	l-0.1,78C687,682.2,685.6,689.1,677.2,689.1z"/>
<polygon class="st2" points="336.6,564.6 723.5,564.6 733.1,575.1 724.5,577.8 334.8,577.8 324.3,575.5 "/>
<polyline class="st1" points="490.9,580.5 528.8,599.4 670.2,599.4 670.2,579.3 "/>
<path class="st3" d="M692.7,610.2v58.9c0,0,1.4,28.6,33.5,13.7c0,0,24.4-13.8,17.1-50.8c0,0-0.3-28.1-29-39.1
	C714.4,592.9,694.6,597.9,692.7,610.2z"/>
<path class="st3" d="M726.3,585.1H786c0,0,9.6,11,9.6,24.2v49.3c0,0-3.2,22.4-9.6,24.6h-44.7c0,0,6.4-13.2,8.7-26
	c0,0,0.9-29.2-5.9-48.8L726.3,585.1z"/>
<path class="st1" d="M677.2,836.3H331c-8.4,0-15.4-7-15.4-15.5l5.4-78c0-8.5,6.9-15.5,15.4-15.5h335.3c8.4,0,15.4,7,15.4,15.5
	l-0.1,78C687,829.3,685.6,836.3,677.2,836.3z"/>
<polygon class="st2" points="336.6,711.7 723.5,711.7 733.1,722.2 724.5,725 334.8,725 324.3,722.7 "/>
<polyline class="st1" points="490.9,727.6 528.8,746.6 670.2,746.6 670.2,726.4 "/>
<path class="st3" d="M692.7,757.4v58.9c0,0,1.4,28.6,33.5,13.7c0,0,24.4-13.8,17.1-50.8c0,0-0.3-28.1-29-39.1
	C714.4,740,694.6,745,692.7,757.4z"/>
<path class="st3" d="M726.3,732.3H786c0,0,9.6,11,9.6,24.2v49.3c0,0-3.2,22.4-9.6,24.6h-44.7c0,0,6.4-13.2,8.7-26
	c0,0,0.9-29.2-5.9-48.8L726.3,732.3z"/>
<path class="st1" d="M346.7,743.7c0,0,101.7-10.5,171.6,7.8c0,0-1.4,51.6-15.1,67.1c0,0-139.2-13.2-162.4-12.8
	C340.7,805.7,336.6,772.9,346.7,743.7z"/>
<path class="st1" d="M522.3,752.8c0,0-4.6,52.9-13.7,65.7c0,0,90.3,7.8,155.6,0c0,0,13.2-26.5,14.6-60.7
	C678.8,757.8,591.7,759.6,522.3,752.8z"/>
<g>
	<rect x="351.6" y="758.6" class="st0" width="148.9" height="41.1"/>
</g>
<circle class="st0" cx="559.1" cy="773.9" r="9.6"/>
<circle class="st0" cx="581" cy="790.6" r="9.6"/>
<circle class="st0" cx="536.5" cy="790.6" r="9.6"/>
<circle class="st0" cx="559.1" cy="804.8" r="9.6"/>
</svg>
