<?xml version="1.0" encoding="utf-8"?>
<!-- Generator: Adobe Illustrator 24.1.0, SVG Export Plug-In . SVG Version: 6.00 Build 0)  -->
<svg version="1.1" id="Ebene_1" xmlns="http://www.w3.org/2000/svg" xmlns:xlink="http://www.w3.org/1999/xlink" x="0px" y="0px"
	 viewBox="0 0 1000 1000" style="enable-background:new 0 0 1000 1000;" xml:space="preserve">
<style type="text/css">
	.st0{fill:none;stroke:#FFFFFF;stroke-width:10;stroke-miterlimit:10;}
	.st1{fill:#FFFFFF;}
</style>
<path class="st0" d="M404.7,551.4c-13.6,9.1-29.7,13-45.5,11.2L179.7,742.2l100.5,100.5l179.5-179.6c-1.8-16,2.2-32.3,11.7-46.1
	L404.7,551.4z"/>
<polygon class="st0" points="717.9,332.7 724.4,339.2 758.4,311.7 815.7,221.3 801.1,206.7 710.6,264 683.1,297.9 689.7,304.5 
	575.5,418.8 603.9,446.7 "/>
<path class="st0" d="M458.8,351.9c14.8-52.9,1.4-112-40.1-153.7c-41.4-41.2-99.8-54.8-152.4-40.5l89.1,89.1L331.9,334l-87.4,23.4
	l-89.1-89c-14.2,52.6-0.7,111,40.6,152.4c43.3,43.3,105.7,56,160.2,38.3l0.5,0.5L723.3,826c14.5,14.5,33.5,21.8,52.5,21.8
	c19,0,38-7.3,52.5-21.8c29-28.9,29-75.9,0-105L458.8,351.9z"/>
<path class="st1" d="M782.1,813.5c-15.6,0-28.2-12.7-28.2-28.4c0-15.7,12.6-28.4,28.2-28.4c15.7,0,28.4,12.6,28.4,28.4
	C810.6,800.8,797.9,813.5,782.1,813.5z"/>
</svg>
