<?xml version="1.0" encoding="utf-8"?>
<!-- Generator: Adobe Illustrator 24.1.0, SVG Export Plug-In . SVG Version: 6.00 Build 0)  -->
<svg version="1.1" id="Ebene_1" xmlns="http://www.w3.org/2000/svg" xmlns:xlink="http://www.w3.org/1999/xlink" x="0px" y="0px"
	 viewBox="0 0 1000 1000" style="enable-background:new 0 0 1000 1000;" xml:space="preserve">
<style type="text/css">
	.st0{fill:#FFFFFF;}
	.st1{fill:none;stroke:#FFFFFF;stroke-width:10;stroke-miterlimit:10;}
	.st2{fill:none;stroke:#FFFFFF;stroke-width:10;stroke-linejoin:round;stroke-miterlimit:10;}
</style>
<circle class="st0" cx="365.7" cy="526.9" r="34.7"/>
<path class="st1" d="M289.7,442c9.7-11.1,21.3-20.1,34.1-26.2c12.9-6.2,27-9.6,41.8-9.6s29,3.4,41.8,9.6s24.4,15.2,34.1,26.2"/>
<path class="st1" d="M218.2,360.5c18.9-21.5,41.3-38.9,66.3-51c24.9-12,52.4-18.7,81.2-18.7c28.8,0,56.2,6.7,81.2,18.7
	c24.9,12,47.4,29.4,66.3,51"/>
<path class="st1" d="M150,282.6c27.6-31.5,60.5-56.9,97-74.5s76.6-27.3,118.7-27.3s82.2,9.7,118.7,27.3s69.4,43.1,97,74.5"/>
<g>
	<path class="st2" d="M676.1,494.4V393c0,0,0,0,0,0H850c0,0,0,0,0,0v101.4"/>
</g>
<g>
	<line class="st1" x1="707.1" y1="395.7" x2="707.1" y2="461.5"/>
	<line class="st1" x1="735.1" y1="395.7" x2="735.1" y2="461.5"/>
	<line class="st1" x1="763.1" y1="395.7" x2="763.1" y2="461.5"/>
	<line class="st1" x1="791.1" y1="395.7" x2="791.1" y2="461.5"/>
	<line class="st1" x1="819.1" y1="395.7" x2="819.1" y2="461.5"/>
</g>
<g>
	<polygon class="st0" points="806.5,520.3 797.5,520.3 784.9,611.6 741.3,611.6 728.7,520.3 719.6,520.3 676.1,520.3 676.1,544.7 
		676.1,569.1 676.1,593.5 676.1,617.9 719.6,658.3 763.1,658.3 806.5,658.3 850,617.9 850,593.5 850,569.1 850,544.7 850,520.3 	"/>
	<polygon class="st1" points="806.5,520.3 797.5,520.3 784.9,611.6 741.3,611.6 728.7,520.3 719.6,520.3 676.1,520.3 676.1,544.7 
		676.1,569.1 676.1,593.5 676.1,617.9 719.6,658.3 763.1,658.3 806.5,658.3 850,617.9 850,593.5 850,569.1 850,544.7 850,520.3 	"/>
</g>
<polygon class="st0" points="799.8,698.1 726.3,698.1 717.2,678.3 808.9,678.3 "/>
<polygon class="st0" points="788.5,734.5 737.6,734.5 731.3,719.3 794.8,719.3 "/>
<polyline class="st1" points="745.5,857.9 745.5,753.2 780.6,753.2 780.6,841.4 "/>
</svg>
