<?xml version="1.0" encoding="utf-8"?>
<!-- Generator: Adobe Illustrator 24.1.0, SVG Export Plug-In . SVG Version: 6.00 Build 0)  -->
<svg version="1.1" id="Ebene_1" xmlns="http://www.w3.org/2000/svg" xmlns:xlink="http://www.w3.org/1999/xlink" x="0px" y="0px"
	 viewBox="0 0 1000 1000" style="enable-background:new 0 0 1000 1000;" xml:space="preserve">
<style type="text/css">
	.st0{fill:#FFFFFF;}
	.st1{fill:none;stroke:#FFFFFF;stroke-width:10;stroke-miterlimit:10;}
</style>
<path class="st0" d="M447.6,400.1h-28c-0.6,0-1-0.5-1-1V225.2c0-0.6,0.5-1,1-1h28c0.6,0,1,0.5,1,1V399
	C448.6,399.6,448.1,400.1,447.6,400.1z"/>
<polyline class="st1" points="639.8,281.3 670.7,281.3 670.7,343 639.8,343 "/>
<path class="st1" d="M418.5,380.4h-133c-33.9,0-61.7-27.8-61.7-61.7v-13.1c0-33.9,27.8-61.7,61.7-61.7L418,244"/>
<path class="st1" d="M448.5,243.9h133.2c33.9,0,61.7,27.8,61.7,61.7v13.1c0,33.9-27.8,61.7-61.7,61.7h-133"/>
<polyline class="st1" points="670,293.3 837.4,303.9 847.5,327.7 670,327.7 "/>
<g>
	<path class="st1" d="M654.6,568.3h136.9c33.5,0,61,27.4,61,61v62.3c0,40.5,0,106.3-84.3,106.3H197"/>
</g>
<g>
	<path class="st1" d="M223.7,306.4h-14.7c-31.2,0-56.5,25.3-56.5,56.5v148.8c0,31.2,25.3,56.5,56.5,56.5h98.4"/>
</g>
<path class="st0" d="M602.6,614h33.8c6.5,0,11.9-4.5,11.9-10l18.8-70.3c0-5.5-5.3-10-11.9-10h-52.6c-6.5,0-11.9,4.5-11.9,10V604
	C590.8,609.5,596.1,614,602.6,614z"/>
<rect x="552.2" y="552.4" transform="matrix(-1 -4.407598e-11 4.407598e-11 -1 1142.9803 1137.1453)" class="st1" width="38.6" height="32.4"/>
<polygon class="st1" points="530.7,591.8 552.2,585.5 552.2,551.6 530.7,545.3 "/>
<rect x="499.9" y="534.8" transform="matrix(-1 -4.525015e-11 4.525015e-11 -1 1030.5533 1135.8448)" class="st1" width="30.8" height="66.2"/>
<line class="st1" x1="528.9" y1="554.6" x2="507.8" y2="554.6"/>
<line class="st1" x1="528.9" y1="586.8" x2="507.8" y2="586.8"/>
<polygon class="st1" points="324.2,591.8 302.7,585.5 302.7,551.6 324.2,545.3 "/>
<rect x="324.2" y="534.8" class="st1" width="30.8" height="66.2"/>
<line class="st1" x1="326" y1="554.6" x2="347.1" y2="554.6"/>
<line class="st1" x1="326" y1="586.8" x2="347.1" y2="586.8"/>
<rect x="355" y="542.7" transform="matrix(-1 -4.499568e-11 4.499568e-11 -1 854.8742 1135.8448)" class="st1" width="144.9" height="50.4"/>
</svg>
