<?xml version="1.0" encoding="utf-8"?>
<!-- Generator: Adobe Illustrator 24.1.0, SVG Export Plug-In . SVG Version: 6.00 Build 0)  -->
<svg version="1.1" id="Ebene_1" xmlns="http://www.w3.org/2000/svg" xmlns:xlink="http://www.w3.org/1999/xlink" x="0px" y="0px"
	 viewBox="0 0 1000 1000" style="enable-background:new 0 0 1000 1000;" xml:space="preserve">
<style type="text/css">
	.st0{fill:#FFFFFF;}
	.st1{fill:none;stroke:#FFFFFF;stroke-width:10;stroke-miterlimit:10;}
	.st2{fill:none;stroke:#FFFFFF;stroke-width:10;stroke-linecap:round;stroke-miterlimit:10;}
</style>
<g>
	<path class="st0" d="M407.6,252.8v39.3H347v-39.3H407.6 M414.9,242.8h-75.2c-1.5,0-2.7,1.2-2.7,2.7v53.8c0,1.5,1.2,2.7,2.7,2.7
		h75.2c1.5,0,2.7-1.2,2.7-2.7v-53.8C417.6,244,416.4,242.8,414.9,242.8L414.9,242.8z"/>
</g>
<circle class="st0" cx="461.5" cy="250" r="7.2"/>
<circle class="st0" cx="461.5" cy="271" r="7.2"/>
<circle class="st0" cx="440.5" cy="271" r="7.2"/>
<circle class="st0" cx="482.9" cy="271" r="7.2"/>
<circle class="st0" cx="461.5" cy="292" r="7.2"/>
<g>
	<path class="st0" d="M407.6,431.8v39.3H347v-39.3H407.6 M414.9,421.8h-75.2c-1.5,0-2.7,1.2-2.7,2.7v53.8c0,1.5,1.2,2.7,2.7,2.7
		h75.2c1.5,0,2.7-1.2,2.7-2.7v-53.8C417.6,423,416.4,421.8,414.9,421.8L414.9,421.8z"/>
</g>
<circle class="st0" cx="461.5" cy="429" r="7.2"/>
<circle class="st0" cx="461.5" cy="450" r="7.2"/>
<circle class="st0" cx="440.5" cy="450" r="7.2"/>
<circle class="st0" cx="482.9" cy="450" r="7.2"/>
<circle class="st0" cx="461.5" cy="470.9" r="7.2"/>
<g>
	<path class="st1" d="M321.7,233.7v-66.9c0-9.2,7.5-16.8,16.8-16.8h192.5c9.2,0,16.8,7.5,16.8,16.8V223"/>
	<line class="st2" x1="321.7" y1="718" x2="321.7" y2="796.3"/>
	<line class="st1" x1="558.5" y1="745.9" x2="558.5" y2="769.9"/>
	<line class="st1" x1="558.5" y1="565" x2="558.5" y2="582.4"/>
	<line class="st1" x1="558.5" y1="388.7" x2="558.5" y2="406.1"/>
	<line class="st2" x1="321.7" y1="357.4" x2="321.7" y2="410.9"/>
	<line class="st2" x1="321.7" y1="535.1" x2="321.7" y2="589.7"/>
	<g>
		<path class="st0" d="M703.6,378.5v0.2H361.7v-0.2H703.6 M709.8,368.5H355.6c-2.1,0-3.8,1.7-3.8,3.8v12.5c0,2.1,1.7,3.8,3.8,3.8
			h354.2c2.1,0,3.8-1.7,3.8-3.8v-12.5C713.6,370.2,711.9,368.5,709.8,368.5L709.8,368.5z"/>
	</g>
	<g>
		<path class="st0" d="M703.6,557.8v0.2H361.7v-0.2H703.6 M709.8,547.8H355.6c-2.1,0-3.8,1.7-3.8,3.8v12.5c0,2.1,1.7,3.8,3.8,3.8
			h354.2c2.1,0,3.8-1.7,3.8-3.8v-12.5C713.6,549.5,711.9,547.8,709.8,547.8L709.8,547.8z"/>
	</g>
	<g>
		<path class="st0" d="M703.6,736.7v0.2H361.7v-0.2H703.6 M709.8,726.7H355.6c-2.1,0-3.8,1.7-3.8,3.8v12.5c0,2.1,1.7,3.8,3.8,3.8
			h354.2c2.1,0,3.8-1.7,3.8-3.8v-12.5C713.6,728.5,711.9,726.7,709.8,726.7L709.8,726.7z"/>
	</g>
	<path class="st1" d="M697.8,850H334.2c-7,0-12.8-5.8-12.8-12.8v-51.6c0-7,5.8-12.8,12.8-12.8h363.6c7,0,12.8,5.8,12.8,12.8v51.6
		C710.5,844.2,704.8,850,697.8,850z"/>
	<path class="st1" d="M809.9,532h-49.6c-5.7,0-10.3-4.6-10.3-10.3V415.4c0-5.7,4.6-10.3,10.3-10.3h49.6c5.7,0,10.3,4.6,10.3,10.3
		v106.3C820.2,527.4,815.6,532,809.9,532z"/>
	<line class="st1" x1="715.6" y1="436.4" x2="751.1" y2="436.4"/>
	<line class="st1" x1="716.9" y1="505.4" x2="750.5" y2="505.4"/>
	<g>
		<path class="st0" d="M257.8,353.3c0.4,0,1,0.1,1.2,0.1l32,11.3l3.3,8.1c0.1,0.9,0.2,2.1,0.2,2.8v4v5.7v4c0,0.7-0.1,1.9-0.2,2.8
			l-3.3,8.1l-32,11.3c-0.2,0.1-0.8,0.1-1.2,0.1l-83.9-9.5c-1-0.1-2.6-0.4-3.8-0.6l-8.9-3.6c-0.1-0.1-0.3-0.2-0.4-0.4l-3.6-8.8
			c-0.1-0.9-0.2-2.1-0.2-2.8V379c0-0.7,0.1-1.9,0.2-2.8l3.6-8.8c0.1-0.1,0.2-0.3,0.4-0.4l8.9-3.6c1.2-0.2,2.8-0.5,3.8-0.6
			L257.8,353.3L257.8,353.3 M257.8,343.3c-0.4,0-0.7,0-1,0.1l-84,9.5c-1.5,0.2-4.1,0.6-5.6,0.9l-11.1,4.6c-1.3,0.9-3.1,2.7-3.9,3.9
			l-4.6,11.1c-0.3,1.5-0.6,4-0.6,5.6v6.9c0,1.6,0.3,4.1,0.6,5.6l4.6,11.1c0.9,1.3,2.7,3.1,3.9,3.9l11.1,4.6c1.5,0.3,4,0.7,5.6,0.9
			l84,9.5c0.3,0,0.7,0.1,1,0.1c1.5,0,3.3-0.3,4.5-0.7l32.9-11.6c1.5-0.5,3.4-2,4.3-3.3l4.6-11.1c0.3-1.5,0.6-4,0.6-5.6v-4
			c0-1.6,0-4.1,0-5.7v-4c0-1.6-0.3-4.1-0.6-5.6l-4.6-11.1c-0.9-1.3-2.8-2.8-4.3-3.3l-32.9-11.6C261.1,343.5,259.3,343.3,257.8,343.3
			L257.8,343.3z"/>
	</g>
	<line class="st1" x1="335.3" y1="194.8" x2="532" y2="194.8"/>
	<line class="st1" x1="298.7" y1="368.4" x2="319.7" y2="368.4"/>
	<line class="st1" x1="298.7" y1="396.4" x2="319.7" y2="396.4"/>
	<path class="st1" d="M693.7,362.4H333.8c-13.1,0-23.9-10.7-23.9-23.9V250c0-13.1,10.7-23.9,23.9-23.9h359.9
		c13.1,0,23.9,10.7,23.9,23.9v88.5C717.6,351.7,706.8,362.4,693.7,362.4z"/>
	<path class="st1" d="M307.9,320.1c0,0,168.3,0,168.4,0c20.4,0,41.6-1.8,55.6-18.3c5.1-6,8.6-13.1,13.3-19.3
		c10.6-13.9,30-17.2,46.7-17.2h125.7"/>
	<path class="st1" d="M689.8,541.4H337.7c-15.3,0-27.8-12.5-27.8-27.8v-80.7c0-15.3,12.5-27.8,27.8-27.8h352.1
		c15.3,0,27.8,12.5,27.8,27.8v80.7C717.6,528.9,705.1,541.4,689.8,541.4z"/>
	<path class="st1" d="M311.9,499.1c0,0,164.3,0,164.4,0c20.4,0,41.6-1.8,55.6-18.3c5.1-6,8.6-13.1,13.3-19.3
		c10.6-13.9,30-17.2,46.7-17.2h125.7"/>
	<path class="st1" d="M807.7,711h-45.1c-6.9,0-12.5-5.6-12.5-12.5V596.6c0-6.9,5.6-12.5,12.5-12.5h45.1c6.9,0,12.5,5.6,12.5,12.5
		v101.8C820.2,705.3,814.6,711,807.7,711z"/>
	<line class="st1" x1="715.6" y1="615.3" x2="751.1" y2="615.3"/>
	<line class="st1" x1="716.9" y1="684.4" x2="750.5" y2="684.4"/>
	<path class="st1" d="M693.1,720.3H334.4c-13.5,0-24.5-11-24.5-24.5v-87.3c0-13.5,11-24.5,24.5-24.5h358.7c13.5,0,24.5,11,24.5,24.5
		v87.3C717.6,709.3,706.6,720.3,693.1,720.3z"/>
	<path class="st1" d="M311.9,678c0,0,164.3,0,164.4,0c20.4,0,41.6-1.8,55.6-18.3c5.1-6,8.6-13.1,13.3-19.3
		c10.6-13.9,30-17.2,46.7-17.2h125.7"/>
</g>
<g>
	<path class="st0" d="M407.6,610.7V650H347v-39.3H407.6 M414.9,600.7h-75.2c-1.5,0-2.7,1.2-2.7,2.7v53.8c0,1.5,1.2,2.7,2.7,2.7h75.2
		c1.5,0,2.7-1.2,2.7-2.7v-53.8C417.6,602,416.4,600.7,414.9,600.7L414.9,600.7z"/>
</g>
<circle class="st0" cx="461.5" cy="608" r="7.2"/>
<circle class="st0" cx="461.5" cy="628.9" r="7.2"/>
<circle class="st0" cx="440.5" cy="628.9" r="7.2"/>
<circle class="st0" cx="482.9" cy="628.9" r="7.2"/>
<circle class="st0" cx="461.5" cy="649.9" r="7.2"/>
</svg>
