<?xml version="1.0" encoding="utf-8"?>
<!-- Generator: Adobe Illustrator 24.1.3, SVG Export Plug-In . SVG Version: 6.00 Build 0)  -->
<svg version="1.1" id="Ebene_1" xmlns="http://www.w3.org/2000/svg" xmlns:xlink="http://www.w3.org/1999/xlink" x="0px" y="0px"
	 viewBox="0 0 1200 700" style="enable-background:new 0 0 1200 700;" xml:space="preserve">
<style type="text/css">
	.st0{opacity:0.6;fill:#00B482;enable-background:new    ;}
	.st1{fill:#00B482;}
	.st2{fill:#FFFFFF;}
	.st3{fill:#FFFFFF;stroke:#00B482;stroke-width:6;stroke-miterlimit:10;}
	.st4{fill:none;stroke:#00B482;stroke-width:6;stroke-miterlimit:10;}
	.st5{fill:#FFFFFF;stroke:#C8C8C8;stroke-width:6;stroke-miterlimit:10;}
	.st6{fill:none;stroke:#C8C8C8;stroke-width:6;stroke-miterlimit:10;}
	.st7{fill:#969696;}
	.st8{fill:none;stroke:#00B482;stroke-width:4;stroke-miterlimit:10;}
	.st9{fill:#FFFFFF;stroke:#00B482;stroke-width:4;stroke-miterlimit:10;}
	.st10{fill:none;stroke:#FFFFFF;stroke-width:4;stroke-miterlimit:10;}
	.st11{fill:#FFFFFF;stroke:#711E82;stroke-width:2;stroke-miterlimit:10;}
	.st12{fill:none;}
	.st13{fill:#711E82;}
	.st14{fill:none;stroke:#711E82;stroke-width:2;stroke-miterlimit:10;}
</style>
<ellipse class="st0" cx="127" cy="460.5" rx="56" ry="7.7"/>
<g>
	<polygon class="st1" points="270.9,115 145,115 19,115 50.6,70 19,25 145,25 270.9,25 302.5,70 	"/>
</g>
<g>
	<polygon class="st1" points="562.6,115 436.6,115 310.7,115 342.2,70 310.7,25 436.6,25 562.6,25 594.1,70 	"/>
</g>
<g>
	<polygon class="st1" points="854.3,115 728.3,115 602.3,115 633.8,70 602.3,25 728.3,25 854.3,25 885.8,70 	"/>
</g>
<g>
	<polygon class="st1" points="1145.9,115 1020,115 894,115 925.6,70 894,25 1020,25 1145.9,25 1177.5,70 	"/>
</g>
<g>
	<path class="st2" d="M78.1,63.1V44.5h5.6l3.4,12.7l3.3-12.7H96v18.6h-3.5V48.5l-3.7,14.7h-3.6l-3.7-14.7v14.7h-3.4
		C78.1,63.2,78.1,63.1,78.1,63.1z"/>
	<path class="st2" d="M102.4,53.8l-3.2-0.6c0.4-1.3,1-2.3,1.9-2.9s2.2-0.9,4-0.9c1.6,0,2.8,0.2,3.6,0.6s1.3,0.9,1.6,1.4
		s0.5,1.6,0.5,3.2v4.2c0,1.2,0.1,2.1,0.2,2.6s0.3,1.2,0.6,1.8H108c-0.1-0.2-0.2-0.6-0.3-1.1c-0.1-0.2-0.1-0.4-0.1-0.4
		c-0.6,0.6-1.3,1-2,1.3s-1.4,0.4-2.2,0.4c-1.4,0-2.5-0.4-3.3-1.1s-1.2-1.7-1.2-2.9c0-0.8,0.2-1.4,0.5-2s0.9-1.1,1.5-1.4
		s1.6-0.6,2.8-0.8c1.7-0.3,2.8-0.6,3.5-0.9V54c0-0.7-0.2-1.2-0.5-1.5s-1-0.4-1.9-0.4c-0.6,0-1.1,0.1-1.5,0.4S102.7,53.1,102.4,53.8z
		 M107.2,56.7c-0.5,0.2-1.2,0.3-2.2,0.5s-1.6,0.4-1.9,0.6c-0.5,0.3-0.7,0.7-0.7,1.3c0,0.5,0.2,0.9,0.6,1.3s0.8,0.5,1.4,0.5
		s1.3-0.2,1.8-0.6c0.4-0.3,0.7-0.7,0.9-1.2c0.1-0.3,0.1-0.9,0.1-1.7C107.2,57.4,107.2,56.7,107.2,56.7z"/>
	<path class="st2" d="M113,59.3l3.6-0.5c0.2,0.7,0.5,1.2,0.9,1.6s1.1,0.5,2,0.5s1.6-0.2,2.1-0.5c0.3-0.2,0.5-0.6,0.5-1
		c0-0.3-0.1-0.5-0.3-0.7c-0.2-0.2-0.6-0.3-1.2-0.5c-2.9-0.6-4.7-1.2-5.5-1.7c-1.1-0.7-1.6-1.7-1.6-3c0-1.2,0.5-2.1,1.4-2.9
		s2.4-1.2,4.3-1.2c1.8,0,3.2,0.3,4.1,0.9s1.5,1.5,1.9,2.7l-3.4,0.6c-0.1-0.5-0.4-0.9-0.8-1.2s-1-0.4-1.7-0.4c-0.9,0-1.6,0.1-2,0.4
		c-0.3,0.2-0.4,0.4-0.4,0.7s0.1,0.5,0.4,0.6c0.3,0.2,1.4,0.6,3.3,1s3.2,1,4,1.6c0.7,0.6,1.1,1.5,1.1,2.7s-0.5,2.3-1.5,3.2
		s-2.6,1.3-4.6,1.3c-1.8,0-3.3-0.4-4.4-1.1S113.3,60.6,113,59.3z"/>
	<path class="st2" d="M134.9,49.6v2.8h-2.4v5.4c0,1.1,0,1.7,0.1,1.9s0.2,0.3,0.3,0.5s0.4,0.2,0.6,0.2c0.3,0,0.8-0.1,1.4-0.3l0.3,2.8
		c-0.8,0.4-1.8,0.5-2.8,0.5c-0.6,0-1.2-0.1-1.7-0.3s-0.9-0.5-1.1-0.8s-0.4-0.8-0.5-1.4c-0.1-0.4-0.1-1.3-0.1-2.5v-5.9h-1.6v-2.8h1.6
		V47l3.6-2.1v4.8h2.3L134.9,49.6L134.9,49.6z"/>
	<path class="st2" d="M145.1,58.8l3.6,0.6c-0.5,1.3-1.2,2.3-2.2,3s-2.2,1-3.7,1c-2.3,0-4.1-0.8-5.2-2.3c-0.9-1.2-1.3-2.8-1.3-4.6
		c0-2.2,0.6-4,1.8-5.2s2.6-1.9,4.4-1.9c2,0,3.6,0.7,4.7,2s1.7,3.4,1.7,6.1H140c0,1.1,0.3,1.9,0.9,2.5s1.2,0.9,2.1,0.9
		c0.6,0,1-0.2,1.4-0.5S145,59.5,145.1,58.8z M145.4,55.2c0-1-0.3-1.8-0.8-2.4s-1.1-0.8-1.9-0.8c-0.8,0-1.4,0.3-1.9,0.9
		s-0.8,1.3-0.7,2.3H145.4z"/>
	<path class="st2" d="M155.2,63.1h-3.6V49.6h3.3v1.9c0.6-0.9,1.1-1.5,1.5-1.8s1-0.4,1.5-0.4c0.8,0,1.6,0.2,2.3,0.7l-1.1,3.1
		c-0.6-0.4-1.2-0.6-1.7-0.6s-0.9,0.1-1.3,0.4s-0.6,0.8-0.8,1.5s-0.3,2.2-0.3,4.5v4.2C155,63.1,155.2,63.1,155.2,63.1z"/>
	<path class="st2" d="M78.1,75.7H85c1.5,0,2.7,0.1,3.5,0.4c1.1,0.3,2,0.9,2.8,1.7s1.4,1.8,1.8,3s0.6,2.7,0.6,4.4
		c0,1.5-0.2,2.9-0.6,4c-0.5,1.4-1.1,2.5-2,3.3c-0.7,0.6-1.5,1.1-2.6,1.5c-0.8,0.3-1.9,0.4-3.3,0.4h-7.1
		C78.1,94.4,78.1,75.7,78.1,75.7z M81.9,78.9v12.3h2.8c1,0,1.8-0.1,2.3-0.2c0.6-0.2,1.1-0.4,1.5-0.8s0.7-1,1-1.8s0.4-2,0.4-3.4
		s-0.1-2.5-0.4-3.3s-0.6-1.4-1.1-1.8s-1-0.7-1.7-0.9c-0.5-0.1-1.6-0.2-3.1-0.2h-1.7L81.9,78.9L81.9,78.9z"/>
	<path class="st2" d="M100.3,94.3h-3.6V80.8h3.3v1.9c0.6-0.9,1.1-1.5,1.5-1.8s1-0.4,1.5-0.4c0.8,0,1.6,0.2,2.3,0.7l-1.1,3.1
		c-0.6-0.4-1.2-0.6-1.7-0.6s-0.9,0.1-1.3,0.4s-0.6,0.8-0.8,1.5s-0.3,2.2-0.3,4.5v4.2C100.1,94.3,100.3,94.3,100.3,94.3z"/>
	<path class="st2" d="M115.9,94.3v-2c-0.5,0.7-1.1,1.3-1.9,1.7s-1.6,0.6-2.5,0.6s-1.7-0.2-2.4-0.6s-1.2-1-1.6-1.7s-0.5-1.7-0.5-3
		v-8.5h3.6V87c0,1.9,0.1,3.1,0.2,3.5s0.4,0.8,0.7,1s0.8,0.4,1.3,0.4c0.6,0,1.2-0.2,1.6-0.5s0.8-0.7,1-1.2s0.3-1.7,0.3-3.6v-5.7h3.6
		v13.5h-3.4C115.9,94.4,115.9,94.3,115.9,94.3z"/>
	<path class="st2" d="M122.6,95.2l4.1,0.5c0.1,0.5,0.2,0.8,0.5,1c0.3,0.3,0.9,0.4,1.6,0.4c0.9,0,1.6-0.1,2.1-0.4
		c0.3-0.2,0.6-0.5,0.7-0.9c0.1-0.3,0.2-0.8,0.2-1.6v-2c-1.1,1.5-2.4,2.2-4,2.2c-1.8,0-3.2-0.8-4.3-2.3c-0.8-1.2-1.2-2.7-1.2-4.5
		c0-2.3,0.5-4,1.6-5.2s2.4-1.8,4.1-1.8s3,0.7,4.1,2.2v-1.9h3.3V93c0,1.6-0.1,2.8-0.4,3.6s-0.6,1.4-1.1,1.9s-1.1,0.8-1.9,1.1
		s-1.8,0.4-3,0.4c-2.3,0-3.9-0.4-4.9-1.2s-1.4-1.8-1.4-3C122.5,95.5,122.5,95.4,122.6,95.2z M125.7,87.3c0,1.4,0.3,2.5,0.8,3.1
		s1.2,1,2.1,1c0.9,0,1.6-0.3,2.2-1s0.9-1.7,0.9-3c0-1.4-0.3-2.4-0.9-3.1s-1.3-1-2.2-1c-0.9,0-1.6,0.3-2.1,1S125.7,85.9,125.7,87.3z"
		/>
	<path class="st2" d="M138.9,94.3V75.9h3.8v15.3h9.3v3.1H138.9z"/>
	<path class="st2" d="M154.6,79v-3.3h3.6V79H154.6z M154.6,94.3V80.8h3.6v13.5H154.6z"/>
	<path class="st2" d="M160.6,90.5l3.6-0.5c0.2,0.7,0.5,1.2,0.9,1.6s1.1,0.5,2,0.5s1.6-0.2,2.1-0.5c0.3-0.2,0.5-0.6,0.5-1
		c0-0.3-0.1-0.5-0.3-0.7s-0.6-0.3-1.2-0.5c-2.9-0.6-4.7-1.2-5.5-1.7c-1.1-0.7-1.6-1.7-1.6-3c0-1.2,0.5-2.1,1.4-2.9s2.4-1.2,4.3-1.2
		c1.8,0,3.2,0.3,4.1,0.9s1.5,1.5,1.9,2.7l-3.4,0.6c-0.1-0.5-0.4-0.9-0.8-1.2s-1-0.4-1.7-0.4c-0.9,0-1.6,0.1-2,0.4
		c-0.3,0.2-0.4,0.4-0.4,0.7c0,0.3,0.1,0.5,0.4,0.6c0.3,0.2,1.4,0.6,3.3,1s3.2,1,4,1.6c0.7,0.6,1.1,1.5,1.1,2.7s-0.5,2.3-1.5,3.2
		s-2.6,1.3-4.6,1.3c-1.8,0-3.3-0.4-4.4-1.1S160.9,91.8,160.6,90.5z"/>
	<path class="st2" d="M182.5,80.8v2.8h-2.4V89c0,1.1,0,1.7,0.1,1.9s0.2,0.3,0.3,0.5s0.4,0.2,0.6,0.2c0.3,0,0.8-0.1,1.4-0.3l0.3,2.8
		c-0.8,0.4-1.8,0.5-2.8,0.5c-0.6,0-1.2-0.1-1.7-0.3s-0.9-0.5-1.1-0.8s-0.4-0.8-0.5-1.4c-0.1-0.4-0.1-1.3-0.1-2.5v-5.9H175v-2.8h1.6
		v-2.7l3.6-2.1v4.8L182.5,80.8L182.5,80.8z"/>
</g>
<g>
	<path class="st2" d="M388,56.3l3.6,1.2c-0.6,2-1.5,3.5-2.8,4.5s-2.9,1.5-4.9,1.5c-2.5,0-4.5-0.8-6.1-2.5s-2.4-4-2.4-6.9
		c0-3.1,0.8-5.5,2.4-7.2s3.7-2.6,6.3-2.6c2.3,0,4.1,0.7,5.5,2c0.8,0.8,1.5,1.9,1.9,3.4l-3.7,0.9c-0.2-1-0.7-1.7-1.4-2.3
		s-1.5-0.8-2.5-0.8c-1.4,0-2.5,0.5-3.4,1.5s-1.3,2.6-1.3,4.8c0,2.4,0.4,4,1.3,5s1.9,1.5,3.3,1.5c1,0,1.9-0.3,2.6-1
		S387.7,57.7,388,56.3z"/>
	<path class="st2" d="M397.5,53.8l-3.2-0.6c0.4-1.3,1-2.3,1.9-2.9s2.2-0.9,4-0.9c1.6,0,2.8,0.2,3.6,0.6s1.3,0.9,1.6,1.4
		s0.5,1.6,0.5,3.2v4.2c0,1.2,0.1,2.1,0.2,2.6s0.3,1.2,0.6,1.8h-3.5c-0.1-0.2-0.2-0.6-0.3-1.1c-0.1-0.2-0.1-0.4-0.1-0.4
		c-0.6,0.6-1.3,1-2,1.3s-1.4,0.4-2.2,0.4c-1.4,0-2.5-0.4-3.3-1.1s-1.2-1.7-1.2-2.9c0-0.8,0.2-1.4,0.5-2s0.9-1.1,1.5-1.4
		s1.6-0.6,2.8-0.8c1.7-0.3,2.8-0.6,3.5-0.9V54c0-0.7-0.2-1.2-0.5-1.5s-1-0.4-1.9-0.4c-0.6,0-1.1,0.1-1.5,0.4S397.8,53.1,397.5,53.8z
		 M402.3,56.7c-0.5,0.2-1.2,0.3-2.2,0.5s-1.6,0.4-1.9,0.6c-0.5,0.3-0.7,0.7-0.7,1.3c0,0.5,0.2,0.9,0.6,1.3s0.8,0.5,1.4,0.5
		s1.3-0.2,1.8-0.6c0.4-0.3,0.7-0.7,0.9-1.2c0.1-0.3,0.1-0.9,0.1-1.7L402.3,56.7L402.3,56.7z"/>
	<path class="st2" d="M412.8,63.1h-3.6V49.6h3.3v1.9c0.6-0.9,1.1-1.5,1.5-1.8s1-0.4,1.5-0.4c0.8,0,1.6,0.2,2.3,0.7l-1.1,3.1
		c-0.6-0.4-1.2-0.6-1.7-0.6s-0.9,0.1-1.3,0.4s-0.6,0.8-0.8,1.5s-0.3,2.2-0.3,4.5v4.2C412.6,63.1,412.8,63.1,412.8,63.1z"/>
	<path class="st2" d="M427.3,58.8l3.6,0.6c-0.5,1.3-1.2,2.3-2.2,3s-2.2,1-3.7,1c-2.3,0-4.1-0.8-5.2-2.3c-0.9-1.2-1.3-2.8-1.3-4.6
		c0-2.2,0.6-4,1.8-5.2s2.6-1.9,4.4-1.9c2,0,3.6,0.7,4.7,2s1.7,3.4,1.7,6.1h-8.9c0,1.1,0.3,1.9,0.9,2.5s1.2,0.9,2.1,0.9
		c0.6,0,1-0.2,1.4-0.5S427.1,59.5,427.3,58.8z M427.5,55.2c0-1-0.3-1.8-0.8-2.4s-1.1-0.8-1.9-0.8s-1.4,0.3-1.9,0.9s-0.8,1.3-0.7,2.3
		H427.5z"/>
	<path class="st2" d="M441.1,44.5h3.8v10.1c0,1.6,0,2.6,0.1,3.1c0.2,0.8,0.5,1.4,1.1,1.8s1.4,0.7,2.5,0.7s1.9-0.2,2.4-0.7
		s0.9-1,1-1.6s0.2-1.7,0.2-3.2V44.5h3.8v9.8c0,2.2-0.1,3.8-0.3,4.7s-0.6,1.7-1.1,2.3s-1.3,1.1-2.2,1.5s-2.1,0.6-3.6,0.6
		c-1.8,0-3.1-0.2-4-0.6s-1.6-0.9-2.2-1.6s-0.9-1.3-1.1-2.1c-0.2-1.1-0.4-2.6-0.4-4.7L441.1,44.5L441.1,44.5z"/>
	<path class="st2" d="M472.2,63.1h-3.6v-6.9c0-1.5-0.1-2.4-0.2-2.8s-0.4-0.8-0.7-1s-0.8-0.4-1.2-0.4c-0.6,0-1.2,0.2-1.7,0.5
		s-0.8,0.8-1,1.3s-0.3,1.6-0.3,3.1V63h-3.6V49.6h3.3v2c1.2-1.5,2.7-2.3,4.4-2.3c0.8,0,1.5,0.1,2.2,0.4s1.1,0.6,1.5,1.1
		s0.6,0.9,0.7,1.5s0.2,1.4,0.2,2.4L472.2,63.1L472.2,63.1z"/>
	<path class="st2" d="M475.8,47.8v-3.3h3.6v3.3H475.8z M475.8,63.1V49.6h3.6v13.5H475.8z"/>
	<path class="st2" d="M489.2,49.6v2.8h-2.4v5.4c0,1.1,0,1.7,0.1,1.9s0.2,0.3,0.3,0.5s0.4,0.2,0.6,0.2c0.3,0,0.8-0.1,1.4-0.3l0.3,2.8
		c-0.8,0.4-1.8,0.5-2.8,0.5c-0.6,0-1.2-0.1-1.7-0.3s-0.9-0.5-1.1-0.8s-0.4-0.8-0.5-1.4c-0.1-0.4-0.1-1.3-0.1-2.5v-5.9h-1.6v-2.8h1.6
		V47l3.6-2.1v4.8h2.3L489.2,49.6L489.2,49.6z"/>
	<path class="st2" d="M376.1,75.7h6.9c1.5,0,2.7,0.1,3.5,0.4c1.1,0.3,2,0.9,2.8,1.7s1.4,1.8,1.8,3s0.6,2.7,0.6,4.4
		c0,1.5-0.2,2.9-0.6,4c-0.5,1.4-1.1,2.5-2,3.3c-0.7,0.6-1.5,1.1-2.6,1.5c-0.8,0.3-1.9,0.4-3.3,0.4h-7.1L376.1,75.7L376.1,75.7z
		 M379.9,78.9v12.3h2.8c1,0,1.8-0.1,2.3-0.2c0.6-0.2,1.1-0.4,1.5-0.8s0.7-1,1-1.8s0.4-2,0.4-3.4s-0.1-2.5-0.4-3.3s-0.6-1.4-1.1-1.8
		s-1-0.7-1.7-0.9c-0.5-0.1-1.6-0.2-3.1-0.2h-1.7L379.9,78.9L379.9,78.9z"/>
	<path class="st2" d="M398.3,94.3h-3.6V80.8h3.3v1.9c0.6-0.9,1.1-1.5,1.5-1.8s1-0.4,1.5-0.4c0.8,0,1.6,0.2,2.3,0.7l-1.1,3.1
		c-0.6-0.4-1.2-0.6-1.7-0.6s-0.9,0.1-1.3,0.4s-0.6,0.8-0.8,1.5s-0.3,2.2-0.3,4.5v4.2C398.1,94.3,398.3,94.3,398.3,94.3z"/>
	<path class="st2" d="M413.9,94.3v-2c-0.5,0.7-1.1,1.3-1.9,1.7s-1.6,0.6-2.5,0.6s-1.7-0.2-2.4-0.6s-1.2-1-1.6-1.7s-0.5-1.7-0.5-3
		v-8.5h3.6V87c0,1.9,0.1,3.1,0.2,3.5s0.4,0.8,0.7,1s0.8,0.4,1.3,0.4c0.6,0,1.2-0.2,1.6-0.5s0.8-0.7,1-1.2s0.3-1.7,0.3-3.6v-5.7h3.6
		v13.5h-3.4L413.9,94.3L413.9,94.3z"/>
	<path class="st2" d="M420.6,95.2l4.1,0.5c0.1,0.5,0.2,0.8,0.5,1c0.3,0.3,0.9,0.4,1.6,0.4c0.9,0,1.6-0.1,2.1-0.4
		c0.3-0.2,0.6-0.5,0.7-0.9c0.1-0.3,0.2-0.8,0.2-1.6v-2c-1.1,1.5-2.4,2.2-4,2.2c-1.8,0-3.2-0.8-4.3-2.3c-0.8-1.2-1.2-2.7-1.2-4.5
		c0-2.3,0.5-4,1.6-5.2s2.4-1.8,4.1-1.8s3,0.7,4.1,2.2v-1.9h3.3V93c0,1.6-0.1,2.8-0.4,3.6s-0.6,1.4-1.1,1.9s-1.1,0.8-1.9,1.1
		s-1.8,0.4-3,0.4c-2.3,0-3.9-0.4-4.9-1.2s-1.4-1.8-1.4-3C420.5,95.5,420.5,95.4,420.6,95.2z M423.7,87.3c0,1.4,0.3,2.5,0.8,3.1
		s1.2,1,2.1,1s1.6-0.3,2.2-1s0.9-1.7,0.9-3c0-1.4-0.3-2.4-0.9-3.1s-1.3-1-2.2-1c-0.9,0-1.6,0.3-2.1,1S423.7,85.9,423.7,87.3z"/>
	<path class="st2" d="M436.9,94.3V75.9h3.8v15.3h9.3v3.1H436.9z"/>
	<path class="st2" d="M452.6,79v-3.3h3.6V79H452.6z M452.6,94.3V80.8h3.6v13.5H452.6z"/>
	<path class="st2" d="M458.6,90.5l3.6-0.5c0.2,0.7,0.5,1.2,0.9,1.6s1.1,0.5,2,0.5s1.6-0.2,2.1-0.5c0.3-0.2,0.5-0.6,0.5-1
		c0-0.3-0.1-0.5-0.3-0.7c-0.2-0.2-0.6-0.3-1.2-0.5c-2.9-0.6-4.7-1.2-5.5-1.7c-1.1-0.7-1.6-1.7-1.6-3c0-1.2,0.5-2.1,1.4-2.9
		s2.4-1.2,4.3-1.2c1.8,0,3.2,0.3,4.1,0.9s1.5,1.5,1.9,2.7l-3.4,0.6c-0.1-0.5-0.4-0.9-0.8-1.2s-1-0.4-1.7-0.4c-0.9,0-1.6,0.1-2,0.4
		c-0.3,0.2-0.4,0.4-0.4,0.7c0,0.3,0.1,0.5,0.4,0.6c0.3,0.2,1.4,0.6,3.3,1s3.2,1,4,1.6c0.7,0.6,1.1,1.5,1.1,2.7s-0.5,2.3-1.5,3.2
		s-2.6,1.3-4.6,1.3c-1.8,0-3.3-0.4-4.4-1.1S458.9,91.8,458.6,90.5z"/>
	<path class="st2" d="M480.5,80.8v2.8h-2.4V89c0,1.1,0,1.7,0.1,1.9s0.2,0.3,0.3,0.5s0.4,0.2,0.6,0.2c0.3,0,0.8-0.1,1.4-0.3l0.3,2.8
		c-0.8,0.4-1.8,0.5-2.8,0.5c-0.6,0-1.2-0.1-1.7-0.3s-0.9-0.5-1.1-0.8s-0.4-0.8-0.5-1.4c-0.1-0.4-0.1-1.3-0.1-2.5v-5.9H473v-2.8h1.6
		v-2.7l3.6-2.1v4.8L480.5,80.8L480.5,80.8z"/>
</g>
<g>
	<path class="st2" d="M679.8,56.3l3.6,1.2c-0.6,2-1.5,3.5-2.8,4.5s-2.9,1.5-4.9,1.5c-2.5,0-4.5-0.8-6.1-2.5s-2.4-4-2.4-6.9
		c0-3.1,0.8-5.5,2.4-7.2s3.7-2.6,6.3-2.6c2.3,0,4.1,0.7,5.5,2c0.8,0.8,1.5,1.9,1.9,3.4l-3.7,0.9c-0.2-1-0.7-1.7-1.4-2.3
		s-1.5-0.8-2.5-0.8c-1.4,0-2.5,0.5-3.4,1.5s-1.3,2.6-1.3,4.8c0,2.4,0.4,4,1.3,5s1.9,1.5,3.3,1.5c1,0,1.9-0.3,2.6-1
		S679.5,57.7,679.8,56.3z"/>
	<path class="st2" d="M685.8,56.2c0-1.2,0.3-2.3,0.9-3.4s1.4-2,2.5-2.5c1.1-0.6,2.3-0.9,3.6-0.9c2,0,3.7,0.7,5,2s2,3,2,5
		s-0.7,3.7-2,5.1c-1.3,1.3-3,2-5,2c-1.2,0-2.4-0.3-3.5-0.8c-1.1-0.6-2-1.4-2.6-2.5S685.8,57.7,685.8,56.2z M689.5,56.4
		c0,1.3,0.3,2.4,1,3.1s1.4,1.1,2.3,1.1s1.7-0.4,2.3-1.1c0.6-0.7,0.9-1.7,0.9-3.1c0-1.3-0.3-2.3-0.9-3c-0.6-0.7-1.4-1.1-2.3-1.1
		s-1.7,0.4-2.3,1.1S689.5,55.1,689.5,56.4z"/>
	<path class="st2" d="M714.8,63.1h-3.6v-6.9c0-1.5-0.1-2.4-0.2-2.8s-0.4-0.8-0.7-1s-0.8-0.4-1.2-0.4c-0.6,0-1.2,0.2-1.7,0.5
		s-0.8,0.8-1,1.3c-0.2,0.6-0.3,1.6-0.3,3.1V63h-3.6V49.6h3.3v2c1.2-1.5,2.7-2.3,4.4-2.3c0.8,0,1.5,0.1,2.2,0.4s1.1,0.6,1.5,1.1
		c0.3,0.4,0.6,0.9,0.7,1.5c0.1,0.6,0.2,1.4,0.2,2.4L714.8,63.1L714.8,63.1z"/>
	<path class="st2" d="M717.1,59.3l3.6-0.5c0.2,0.7,0.5,1.2,0.9,1.6s1.1,0.5,2,0.5s1.6-0.2,2.1-0.5c0.3-0.2,0.5-0.6,0.5-1
		c0-0.3-0.1-0.5-0.3-0.7s-0.6-0.3-1.2-0.5c-2.9-0.6-4.7-1.2-5.5-1.7c-1.1-0.7-1.6-1.7-1.6-3c0-1.2,0.5-2.1,1.4-2.9s2.4-1.2,4.3-1.2
		c1.8,0,3.2,0.3,4.1,0.9s1.5,1.5,1.9,2.7l-3.4,0.6c-0.1-0.5-0.4-0.9-0.8-1.2c-0.4-0.3-1-0.4-1.7-0.4c-0.9,0-1.6,0.1-2,0.4
		c-0.3,0.2-0.4,0.4-0.4,0.7s0.1,0.5,0.4,0.6c0.3,0.2,1.4,0.6,3.3,1c1.9,0.4,3.2,1,4,1.6c0.7,0.6,1.1,1.5,1.1,2.7s-0.5,2.3-1.5,3.2
		s-2.6,1.3-4.6,1.3c-1.8,0-3.3-0.4-4.4-1.1C718.2,61.6,717.5,60.6,717.1,59.3z"/>
	<path class="st2" d="M732,56.2c0-1.2,0.3-2.3,0.9-3.4s1.4-2,2.5-2.5c1.1-0.6,2.3-0.9,3.6-0.9c2,0,3.7,0.7,5,2s2,3,2,5
		s-0.7,3.7-2,5.1c-1.3,1.3-3,2-5,2c-1.2,0-2.4-0.3-3.5-0.8c-1.1-0.6-2-1.4-2.6-2.5S732,57.7,732,56.2z M735.7,56.4
		c0,1.3,0.3,2.4,1,3.1s1.4,1.1,2.3,1.1s1.7-0.4,2.3-1.1c0.6-0.7,0.9-1.7,0.9-3.1c0-1.3-0.3-2.3-0.9-3c-0.6-0.7-1.4-1.1-2.3-1.1
		s-1.7,0.4-2.3,1.1S735.7,55.1,735.7,56.4z"/>
	<path class="st2" d="M748.7,63.1V44.5h3.6v18.6H748.7z"/>
	<path class="st2" d="M756,47.8v-3.3h3.6v3.3H756z M756,63.1V49.6h3.6v13.5H756z"/>
	<path class="st2" d="M775.6,63.1h-3.3v-2c-0.5,0.8-1.2,1.3-1.9,1.7c-0.8,0.4-1.5,0.6-2.3,0.6c-1.5,0-2.9-0.6-4-1.9
		c-1.1-1.2-1.7-3-1.7-5.2c0-2.3,0.5-4,1.6-5.2s2.4-1.8,4.1-1.8c1.5,0,2.8,0.6,3.9,1.9v-6.7h3.6L775.6,63.1L775.6,63.1z M766,56.1
		c0,1.4,0.2,2.5,0.6,3.1c0.6,0.9,1.4,1.4,2.4,1.4c0.8,0,1.5-0.3,2.1-1s0.9-1.7,0.9-3.1c0-1.5-0.3-2.7-0.8-3.3s-1.3-1-2.1-1
		s-1.6,0.3-2.1,1C766.3,53.8,766,54.8,766,56.1z"/>
	<path class="st2" d="M781.7,53.8l-3.2-0.6c0.4-1.3,1-2.3,1.9-2.9s2.2-0.9,4-0.9c1.6,0,2.8,0.2,3.6,0.6s1.3,0.9,1.6,1.4
		c0.3,0.6,0.5,1.6,0.5,3.2v4.2c0,1.2,0.1,2.1,0.2,2.6c0.1,0.6,0.3,1.2,0.6,1.8h-3.5c-0.1-0.2-0.2-0.6-0.3-1.1
		c-0.1-0.2-0.1-0.4-0.1-0.4c-0.6,0.6-1.3,1-2,1.3s-1.4,0.4-2.2,0.4c-1.4,0-2.5-0.4-3.3-1.1c-0.8-0.8-1.2-1.7-1.2-2.9
		c0-0.8,0.2-1.4,0.5-2s0.9-1.1,1.5-1.4c0.7-0.3,1.6-0.6,2.8-0.8c1.7-0.3,2.8-0.6,3.5-0.9V54c0-0.7-0.2-1.2-0.5-1.5s-1-0.4-1.9-0.4
		c-0.6,0-1.1,0.1-1.5,0.4S782,53.1,781.7,53.8z M786.5,56.7c-0.5,0.2-1.2,0.3-2.2,0.5s-1.6,0.4-1.9,0.6c-0.5,0.3-0.7,0.7-0.7,1.3
		c0,0.5,0.2,0.9,0.6,1.3s0.8,0.5,1.4,0.5c0.6,0,1.3-0.2,1.8-0.6c0.4-0.3,0.7-0.7,0.9-1.2c0.1-0.3,0.1-0.9,0.1-1.7L786.5,56.7
		L786.5,56.7z"/>
	<path class="st2" d="M799.7,49.6v2.8h-2.4v5.4c0,1.1,0,1.7,0.1,1.9c0,0.2,0.2,0.3,0.3,0.5c0.2,0.1,0.4,0.2,0.6,0.2
		c0.3,0,0.8-0.1,1.4-0.3l0.3,2.8c-0.8,0.4-1.8,0.5-2.8,0.5c-0.6,0-1.2-0.1-1.7-0.3s-0.9-0.5-1.1-0.8c-0.2-0.3-0.4-0.8-0.5-1.4
		c-0.1-0.4-0.1-1.3-0.1-2.5v-5.9h-1.6v-2.8h1.6V47l3.6-2.1v4.8h2.3L799.7,49.6L799.7,49.6z"/>
	<path class="st2" d="M802.2,47.8v-3.3h3.6v3.3H802.2z M802.2,63.1V49.6h3.6v13.5H802.2z"/>
	<path class="st2" d="M808.6,56.2c0-1.2,0.3-2.3,0.9-3.4s1.4-2,2.5-2.5c1.1-0.6,2.3-0.9,3.6-0.9c2,0,3.7,0.7,5,2s2,3,2,5
		s-0.7,3.7-2,5.1c-1.3,1.3-3,2-5,2c-1.2,0-2.4-0.3-3.5-0.8c-1.1-0.6-2-1.4-2.6-2.5S808.6,57.7,808.6,56.2z M812.2,56.4
		c0,1.3,0.3,2.4,1,3.1s1.4,1.1,2.3,1.1s1.7-0.4,2.3-1.1c0.6-0.7,0.9-1.7,0.9-3.1c0-1.3-0.3-2.3-0.9-3c-0.6-0.7-1.4-1.1-2.3-1.1
		s-1.7,0.4-2.3,1.1S812.2,55.1,812.2,56.4z"/>
	<path class="st2" d="M837.6,63.1H834v-6.9c0-1.5-0.1-2.4-0.2-2.8s-0.4-0.8-0.7-1s-0.8-0.4-1.2-0.4c-0.6,0-1.2,0.2-1.7,0.5
		s-0.8,0.8-1,1.3c-0.2,0.6-0.3,1.6-0.3,3.1V63h-3.6V49.6h3.3v2c1.2-1.5,2.7-2.3,4.4-2.3c0.8,0,1.5,0.1,2.2,0.4s1.1,0.6,1.5,1.1
		c0.3,0.4,0.6,0.9,0.7,1.5c0.1,0.6,0.2,1.4,0.2,2.4L837.6,63.1L837.6,63.1z"/>
	<path class="st2" d="M684.4,92.1l-2.2,2.8c-1.1-0.5-2.1-1.2-3-2.1c-0.8,0.7-1.6,1.2-2.4,1.5s-1.9,0.5-3,0.5c-2.3,0-4.1-0.7-5.2-2
		c-0.9-1-1.4-2.2-1.4-3.5c0-1.2,0.4-2.3,1.1-3.2s1.8-1.8,3.2-2.5c-0.6-0.8-1.1-1.5-1.4-2.2s-0.5-1.3-0.5-1.9c0-1.1,0.5-2.1,1.4-2.9
		s2.2-1.2,3.9-1.2c1.6,0,2.9,0.4,3.8,1.2s1.4,1.8,1.4,3c0,0.8-0.2,1.5-0.7,2.1s-1.4,1.4-2.7,2.3l2.6,3.4c0.3-0.5,0.6-1.2,0.8-2.1
		l3.2,0.7c-0.3,1.1-0.6,2-0.8,2.5s-0.5,1-0.8,1.3c0.4,0.4,0.9,0.8,1.5,1.2C683.6,91.6,684.1,91.9,684.4,92.1z M673.2,85.8
		c-0.8,0.4-1.4,0.9-1.8,1.5s-0.6,1.2-0.6,1.8c0,0.8,0.3,1.4,0.8,1.9s1.2,0.7,2,0.7c0.6,0,1.1-0.1,1.6-0.3s1.1-0.6,1.7-1.1
		L673.2,85.8z M674.6,81.9l1-0.7c0.7-0.6,1.1-1.1,1.1-1.6s-0.2-0.8-0.5-1.2c-0.3-0.3-0.8-0.5-1.4-0.5c-0.6,0-1,0.1-1.3,0.4
		s-0.5,0.6-0.5,1s0.3,1,0.8,1.6L674.6,81.9z"/>
	<path class="st2" d="M693.9,75.7h3.8v10.1c0,1.6,0,2.6,0.1,3.1c0.2,0.8,0.5,1.4,1.1,1.8c0.6,0.5,1.4,0.7,2.5,0.7s1.9-0.2,2.4-0.7
		s0.9-1,1-1.6s0.2-1.7,0.2-3.2V75.7h3.8v9.8c0,2.2-0.1,3.8-0.3,4.7s-0.6,1.7-1.1,2.3c-0.5,0.6-1.3,1.1-2.2,1.5s-2.1,0.6-3.6,0.6
		c-1.8,0-3.1-0.2-4-0.6s-1.6-0.9-2.2-1.6s-0.9-1.3-1.1-2.1c-0.2-1.1-0.4-2.6-0.4-4.7V75.7z"/>
	<path class="st2" d="M712.5,80.8h3.3v2c0.4-0.7,1-1.2,1.8-1.7s1.6-0.6,2.5-0.6c1.6,0,2.9,0.6,4,1.8s1.6,2.9,1.6,5.1
		c0,2.3-0.6,4-1.7,5.2s-2.4,1.9-4,1.9c-0.7,0-1.4-0.1-2-0.4s-1.2-0.8-1.9-1.5v6.8h-3.6L712.5,80.8L712.5,80.8z M716.1,87.4
		c0,1.5,0.3,2.6,0.9,3.4s1.3,1.1,2.2,1.1c0.8,0,1.5-0.3,2.1-1s0.8-1.8,0.8-3.3c0-1.4-0.3-2.5-0.9-3.1s-1.3-1-2.1-1
		c-0.9,0-1.6,0.3-2.2,1S716.1,86,716.1,87.4z"/>
	<path class="st2" d="M728.5,94.3V75.7h3.6v18.6C732.1,94.3,728.5,94.3,728.5,94.3z"/>
	<path class="st2" d="M734.9,87.4c0-1.2,0.3-2.3,0.9-3.4s1.4-2,2.5-2.5c1.1-0.6,2.3-0.9,3.6-0.9c2,0,3.7,0.7,5,2s2,3,2,5
		s-0.7,3.7-2,5.1c-1.3,1.3-3,2-5,2c-1.2,0-2.4-0.3-3.5-0.8c-1.1-0.6-2-1.4-2.6-2.5S734.9,88.9,734.9,87.4z M738.6,87.6
		c0,1.3,0.3,2.4,1,3.1s1.4,1.1,2.3,1.1s1.7-0.4,2.3-1.1s0.9-1.7,0.9-3.1c0-1.3-0.3-2.3-0.9-3c-0.6-0.7-1.4-1.1-2.3-1.1
		s-1.7,0.4-2.3,1.1S738.6,86.3,738.6,87.6z"/>
	<path class="st2" d="M754.3,85l-3.2-0.6c0.4-1.3,1-2.3,1.9-2.9s2.2-0.9,4-0.9c1.6,0,2.8,0.2,3.6,0.6s1.3,0.9,1.6,1.4
		c0.3,0.6,0.5,1.6,0.5,3.2V90c0,1.2,0.1,2.1,0.2,2.6c0.1,0.6,0.3,1.2,0.6,1.8H760c-0.1-0.2-0.2-0.6-0.3-1.1
		c-0.1-0.2-0.1-0.4-0.1-0.4c-0.6,0.6-1.3,1-2,1.3s-1.4,0.4-2.2,0.4c-1.4,0-2.5-0.4-3.3-1.1c-0.8-0.8-1.2-1.7-1.2-2.9
		c0-0.8,0.2-1.4,0.5-2s0.9-1.1,1.5-1.4c0.7-0.3,1.6-0.6,2.8-0.8c1.7-0.3,2.8-0.6,3.5-0.9v-0.4c0-0.7-0.2-1.2-0.5-1.5s-1-0.4-1.9-0.4
		c-0.6,0-1.1,0.1-1.5,0.4S754.5,84.3,754.3,85z M759.1,87.9c-0.5,0.2-1.2,0.3-2.2,0.5s-1.6,0.4-1.9,0.6c-0.5,0.3-0.7,0.7-0.7,1.3
		c0,0.5,0.2,0.9,0.6,1.3s0.8,0.5,1.4,0.5c0.6,0,1.3-0.2,1.8-0.6c0.4-0.3,0.7-0.7,0.9-1.2c0.1-0.3,0.1-0.9,0.1-1.7L759.1,87.9
		L759.1,87.9z"/>
	<path class="st2" d="M778.5,94.3h-3.3v-2c-0.5,0.8-1.2,1.3-1.9,1.7c-0.8,0.4-1.5,0.6-2.3,0.6c-1.5,0-2.9-0.6-4-1.9
		c-1.1-1.2-1.7-3-1.7-5.2c0-2.3,0.5-4,1.6-5.2s2.4-1.8,4.1-1.8c1.5,0,2.8,0.6,3.9,1.9v-6.7h3.6L778.5,94.3L778.5,94.3z M768.9,87.3
		c0,1.4,0.2,2.5,0.6,3.1c0.6,0.9,1.4,1.4,2.4,1.4c0.8,0,1.5-0.3,2.1-1s0.9-1.7,0.9-3.1c0-1.5-0.3-2.7-0.8-3.3s-1.3-1-2.1-1
		s-1.6,0.3-2.1,1C769.2,85,768.9,86,768.9,87.3z"/>
</g>
<g>
	<path class="st2" d="M953.9,63.1V44.5h7.9c2,0,3.4,0.2,4.3,0.5c0.9,0.3,1.6,0.9,2.2,1.8s0.8,1.8,0.8,2.9c0,1.4-0.4,2.5-1.2,3.5
		s-2,1.5-3.7,1.7c0.8,0.5,1.5,1,2,1.6s1.2,1.6,2.1,3l2.3,3.6h-4.5l-2.7-4c-1-1.4-1.6-2.4-2-2.7s-0.7-0.6-1.1-0.8s-1-0.2-1.9-0.2
		h-0.8v7.8L953.9,63.1L953.9,63.1z M957.7,52.4h2.8c1.8,0,2.9-0.1,3.4-0.2s0.8-0.4,1.1-0.8s0.4-0.8,0.4-1.4c0-0.6-0.2-1.1-0.5-1.5
		s-0.8-0.6-1.4-0.7c-0.3,0-1.2-0.1-2.7-0.1h-2.9v4.7H957.7z"/>
	<path class="st2" d="M980.5,58.8l3.6,0.6c-0.5,1.3-1.2,2.3-2.2,3s-2.2,1-3.7,1c-2.3,0-4.1-0.8-5.2-2.3c-0.9-1.2-1.3-2.8-1.3-4.6
		c0-2.2,0.6-4,1.8-5.2s2.6-1.9,4.4-1.9c2,0,3.6,0.7,4.7,2s1.7,3.4,1.7,6.1h-8.9c0,1.1,0.3,1.9,0.9,2.5s1.2,0.9,2.1,0.9
		c0.6,0,1-0.2,1.4-0.5S980.3,59.5,980.5,58.8z M980.7,55.2c0-1-0.3-1.8-0.8-2.4S978.8,52,978,52s-1.4,0.3-1.9,0.9s-0.8,1.3-0.7,2.3
		H980.7z"/>
	<path class="st2" d="M985.8,59.3l3.6-0.5c0.2,0.7,0.5,1.2,0.9,1.6s1.1,0.5,2,0.5s1.6-0.2,2.1-0.5c0.3-0.2,0.5-0.6,0.5-1
		c0-0.3-0.1-0.5-0.3-0.7s-0.6-0.3-1.2-0.5c-2.9-0.6-4.7-1.2-5.5-1.7c-1.1-0.7-1.6-1.7-1.6-3c0-1.2,0.5-2.1,1.4-2.9s2.4-1.2,4.3-1.2
		c1.8,0,3.2,0.3,4.1,0.9s1.5,1.5,1.9,2.7l-3.4,0.6c-0.1-0.5-0.4-0.9-0.8-1.2c-0.4-0.3-1-0.4-1.7-0.4c-0.9,0-1.6,0.1-2,0.4
		c-0.3,0.2-0.4,0.4-0.4,0.7s0.1,0.5,0.4,0.6c0.3,0.2,1.4,0.6,3.3,1c1.9,0.4,3.2,1,4,1.6c0.7,0.6,1.1,1.5,1.1,2.7s-0.5,2.3-1.5,3.2
		s-2.6,1.3-4.6,1.3c-1.8,0-3.3-0.4-4.4-1.1C986.9,61.6,986.2,60.6,985.8,59.3z"/>
	<path class="st2" d="M1010.4,63.1v-2c-0.5,0.7-1.1,1.3-1.9,1.7c-0.8,0.4-1.6,0.6-2.5,0.6s-1.7-0.2-2.4-0.6s-1.2-1-1.6-1.7
		s-0.5-1.7-0.5-3v-8.5h3.6v6.2c0,1.9,0.1,3.1,0.2,3.5c0.1,0.4,0.4,0.8,0.7,1s0.8,0.4,1.3,0.4c0.6,0,1.2-0.2,1.6-0.5s0.8-0.7,1-1.2
		s0.3-1.7,0.3-3.6v-5.7h3.6v13.5h-3.4L1010.4,63.1L1010.4,63.1z"/>
	<path class="st2" d="M1017.4,63.1V44.5h3.6v18.6H1017.4z"/>
	<path class="st2" d="M1030.9,49.6v2.8h-2.4v5.4c0,1.1,0,1.7,0.1,1.9c0,0.2,0.2,0.3,0.3,0.5c0.2,0.1,0.4,0.2,0.6,0.2
		c0.3,0,0.8-0.1,1.4-0.3l0.3,2.8c-0.8,0.4-1.8,0.5-2.8,0.5c-0.6,0-1.2-0.1-1.7-0.3s-0.9-0.5-1.1-0.8s-0.4-0.8-0.5-1.4
		c-0.1-0.4-0.1-1.3-0.1-2.5v-5.9h-1.6v-2.8h1.6V47l3.6-2.1v4.8h2.3L1030.9,49.6L1030.9,49.6z"/>
	<path class="st2" d="M1043.9,52.1h-3.6v-2.6c0-1,0.1-1.8,0.3-2.4c0.2-0.6,0.5-1.1,1-1.6s1.1-0.8,1.9-1.1l0.7,1.5
		c-0.7,0.2-1.2,0.6-1.5,1s-0.5,1-0.5,1.7h1.7V52.1z M1049.9,52.1h-3.6v-2.6c0-1,0.1-1.9,0.3-2.5c0.2-0.6,0.5-1.1,1-1.6
		s1.1-0.8,1.9-1.1l0.7,1.5c-0.7,0.2-1.2,0.6-1.5,1s-0.5,1-0.5,1.7h1.7V52.1z"/>
	<path class="st2" d="M1052.8,53.9c0-1.9,0.3-3.5,0.9-4.8c0.4-0.9,1-1.8,1.7-2.6s1.5-1.3,2.4-1.7c1.2-0.5,2.5-0.7,4-0.7
		c2.7,0,4.9,0.9,6.6,2.6c1.6,1.7,2.5,4.1,2.5,7.1s-0.8,5.4-2.5,7.1s-3.8,2.5-6.6,2.5c-2.8,0-5-0.8-6.6-2.5S1052.8,56.9,1052.8,53.9z
		 M1056.7,53.8c0,2.1,0.5,3.7,1.5,4.8s2.2,1.6,3.7,1.6s2.7-0.5,3.7-1.6s1.4-2.7,1.4-4.9c0-2.1-0.5-3.7-1.4-4.8
		c-0.9-1-2.2-1.6-3.7-1.6s-2.8,0.5-3.7,1.6S1056.7,51.7,1056.7,53.8z"/>
	<path class="st2" d="M1086,63.1h-3.6v-6.9c0-1.5-0.1-2.4-0.2-2.8s-0.4-0.8-0.7-1c-0.3-0.2-0.8-0.4-1.2-0.4c-0.6,0-1.2,0.2-1.7,0.5
		s-0.8,0.8-1,1.3c-0.2,0.6-0.3,1.6-0.3,3.1V63h-3.6V49.6h3.3v2c1.2-1.5,2.7-2.3,4.4-2.3c0.8,0,1.5,0.1,2.2,0.4s1.1,0.6,1.5,1.1
		c0.3,0.4,0.6,0.9,0.7,1.5s0.2,1.4,0.2,2.4L1086,63.1L1086,63.1z"/>
	<path class="st2" d="M1097.5,58.8l3.6,0.6c-0.5,1.3-1.2,2.3-2.2,3s-2.2,1-3.7,1c-2.3,0-4.1-0.8-5.2-2.3c-0.9-1.2-1.3-2.8-1.3-4.6
		c0-2.2,0.6-4,1.8-5.2s2.6-1.9,4.4-1.9c2,0,3.6,0.7,4.7,2s1.7,3.4,1.7,6.1h-8.9c0,1.1,0.3,1.9,0.9,2.5s1.2,0.9,2.1,0.9
		c0.6,0,1-0.2,1.4-0.5S1097.3,59.5,1097.5,58.8z M1097.7,55.2c0-1-0.3-1.8-0.8-2.4s-1.1-0.8-1.9-0.8s-1.4,0.3-1.9,0.9
		s-0.8,1.3-0.7,2.3H1097.7z"/>
	<path class="st2" d="M953.9,94.3V75.7h6c2.3,0,3.8,0.1,4.5,0.3c1.1,0.3,2,0.9,2.7,1.8s1.1,2.1,1.1,3.6c0,1.1-0.2,2.1-0.6,2.9
		s-0.9,1.4-1.6,1.8c-0.6,0.4-1.3,0.7-1.9,0.9c-0.9,0.2-2.2,0.3-3.9,0.3h-2.5v7C957.7,94.3,953.9,94.3,953.9,94.3z M957.6,78.9v5.3
		h2.1c1.5,0,2.5-0.1,3-0.3s0.9-0.5,1.2-0.9s0.4-0.9,0.4-1.4c0-0.7-0.2-1.2-0.6-1.7s-0.9-0.7-1.5-0.8c-0.4-0.1-1.4-0.1-2.7-0.1
		L957.6,78.9L957.6,78.9z"/>
	<path class="st2" d="M980.1,94.3v-2c-0.5,0.7-1.1,1.3-1.9,1.7c-0.8,0.4-1.6,0.6-2.5,0.6s-1.7-0.2-2.4-0.6s-1.2-1-1.6-1.7
		s-0.5-1.7-0.5-3v-8.5h3.6V87c0,1.9,0.1,3.1,0.2,3.5c0.1,0.4,0.4,0.8,0.7,1s0.8,0.4,1.3,0.4c0.6,0,1.2-0.2,1.6-0.5s0.8-0.7,1-1.2
		s0.3-1.7,0.3-3.6v-5.7h3.6v13.5h-3.4L980.1,94.3L980.1,94.3z"/>
	<path class="st2" d="M986.8,80.8h3.3v1.8c1.2-1.4,2.6-2.1,4.2-2.1c0.9,0,1.6,0.2,2.2,0.5s1.2,0.9,1.6,1.6c0.6-0.7,1.2-1.3,1.9-1.6
		s1.4-0.5,2.2-0.5c1,0,1.8,0.2,2.5,0.6s1.2,1,1.5,1.8c0.2,0.6,0.4,1.5,0.4,2.8v8.6h-3.6v-7.7c0-1.3-0.1-2.2-0.4-2.6
		c-0.3-0.5-0.8-0.8-1.5-0.8c-0.5,0-1,0.2-1.4,0.5s-0.8,0.8-1,1.3s-0.3,1.5-0.3,2.8v6.5H995v-7.4c0-1.3-0.1-2.2-0.2-2.5
		s-0.3-0.7-0.6-0.9c-0.3-0.2-0.6-0.3-1.1-0.3c-0.6,0-1,0.1-1.5,0.4s-0.8,0.7-0.9,1.3c-0.2,0.6-0.3,1.5-0.3,2.8v6.6h-3.6L986.8,80.8
		L986.8,80.8z"/>
	<path class="st2" d="M1010.1,80.8h3.3v2c0.4-0.7,1-1.2,1.8-1.7s1.6-0.6,2.5-0.6c1.6,0,2.9,0.6,4,1.8s1.6,2.9,1.6,5.1
		c0,2.3-0.5,4-1.7,5.2s-2.4,1.9-4,1.9c-0.7,0-1.4-0.1-2-0.4s-1.2-0.8-1.9-1.5v6.8h-3.6L1010.1,80.8L1010.1,80.8z M1013.6,87.4
		c0,1.5,0.3,2.6,0.9,3.4s1.3,1.1,2.2,1.1c0.8,0,1.5-0.3,2.1-1s0.8-1.8,0.8-3.3c0-1.4-0.3-2.5-0.9-3.1s-1.3-1-2.1-1
		c-0.9,0-1.6,0.3-2.2,1S1013.6,86,1013.6,87.4z"/>
	<path class="st2" d="M1031.8,80.8h2v-1c0-1.1,0.1-2,0.4-2.5c0.2-0.6,0.7-1,1.3-1.4c0.6-0.4,1.5-0.5,2.5-0.5s2,0.2,3,0.5l-0.5,2.5
		c-0.6-0.1-1.1-0.2-1.6-0.2s-0.9,0.1-1.1,0.4c-0.2,0.2-0.3,0.7-0.3,1.4v1h2.7v2.8h-2.7v10.7h-3.6V83.7h-2v-2.9
		C1031.9,80.8,1031.8,80.8,1031.8,80.8z"/>
	<path class="st2" d="M1042,79v-3.3h3.6V79H1042z M1042,94.3V80.8h3.6v13.5H1042z"/>
	<path class="st2" d="M1055.4,80.8v2.8h-2.4V89c0,1.1,0,1.7,0.1,1.9c0,0.2,0.2,0.3,0.3,0.5c0.2,0.1,0.4,0.2,0.6,0.2
		c0.3,0,0.8-0.1,1.4-0.3l0.3,2.8c-0.8,0.4-1.8,0.5-2.8,0.5c-0.6,0-1.2-0.1-1.7-0.3s-0.9-0.5-1.1-0.8s-0.4-0.8-0.5-1.4
		c-0.1-0.4-0.1-1.3-0.1-2.5v-5.9h-1.6v-2.8h1.6v-2.7l3.6-2.1v4.8L1055.4,80.8L1055.4,80.8z"/>
	<path class="st2" d="M1056.6,90.5l3.6-0.5c0.2,0.7,0.5,1.2,0.9,1.6s1.1,0.5,2,0.5s1.6-0.2,2.1-0.5c0.3-0.2,0.5-0.6,0.5-1
		c0-0.3-0.1-0.5-0.3-0.7c-0.2-0.2-0.6-0.3-1.2-0.5c-2.9-0.6-4.7-1.2-5.5-1.7c-1.1-0.7-1.6-1.7-1.6-3c0-1.2,0.5-2.1,1.4-2.9
		s2.4-1.2,4.3-1.2c1.8,0,3.2,0.3,4.1,0.9s1.5,1.5,1.9,2.7l-3.4,0.6c-0.1-0.5-0.4-0.9-0.8-1.2c-0.4-0.3-1-0.4-1.7-0.4
		c-0.9,0-1.6,0.1-2,0.4c-0.3,0.2-0.4,0.4-0.4,0.7c0,0.3,0.1,0.5,0.4,0.6c0.3,0.2,1.4,0.6,3.3,1s3.2,1,4,1.6c0.7,0.6,1.1,1.5,1.1,2.7
		s-0.5,2.3-1.5,3.2s-2.6,1.3-4.6,1.3c-1.8,0-3.3-0.4-4.4-1.1C1057.6,92.8,1056.9,91.8,1056.6,90.5z"/>
	<path class="st2" d="M1082.2,85l-3.2-0.6c0.4-1.3,1-2.3,1.9-2.9s2.2-0.9,4-0.9c1.6,0,2.8,0.2,3.6,0.6s1.3,0.9,1.6,1.4
		c0.3,0.6,0.5,1.6,0.5,3.2V90c0,1.2,0.1,2.1,0.2,2.6c0.1,0.6,0.3,1.2,0.6,1.8h-3.5c-0.1-0.2-0.2-0.6-0.3-1.1
		c-0.1-0.2-0.1-0.4-0.1-0.4c-0.6,0.6-1.3,1-2,1.3s-1.4,0.4-2.2,0.4c-1.4,0-2.5-0.4-3.3-1.1c-0.8-0.8-1.2-1.7-1.2-2.9
		c0-0.8,0.2-1.4,0.5-2s0.9-1.1,1.5-1.4c0.7-0.3,1.6-0.6,2.8-0.8c1.7-0.3,2.8-0.6,3.5-0.9v-0.4c0-0.7-0.2-1.2-0.5-1.5s-1-0.4-1.9-0.4
		c-0.6,0-1.1,0.1-1.5,0.4S1082.4,84.3,1082.2,85z M1087,87.9c-0.5,0.2-1.2,0.3-2.2,0.5s-1.6,0.4-1.9,0.6c-0.5,0.3-0.7,0.7-0.7,1.3
		c0,0.5,0.2,0.9,0.6,1.3s0.8,0.5,1.4,0.5s1.3-0.2,1.8-0.6c0.4-0.3,0.7-0.7,0.9-1.2c0.1-0.3,0.1-0.9,0.1-1.7L1087,87.9L1087,87.9z"/>
	<path class="st2" d="M1094,94.3V75.7h3.6v18.6C1097.6,94.3,1094,94.3,1094,94.3z"/>
	<path class="st2" d="M1101.2,94.3V75.7h3.6v18.6C1104.8,94.3,1101.2,94.3,1101.2,94.3z"/>
	<path class="st2" d="M1111.8,83.3h-3.6v-2.6c0-1,0.1-1.8,0.3-2.4c0.2-0.6,0.5-1.1,1-1.6s1.1-0.8,1.9-1.1l0.7,1.5
		c-0.7,0.2-1.2,0.6-1.5,1s-0.5,1-0.5,1.7h1.7V83.3z M1117.8,83.3h-3.6v-2.6c0-1,0.1-1.9,0.3-2.5c0.2-0.6,0.5-1.1,1-1.6
		s1.1-0.8,1.9-1.1l0.7,1.5c-0.7,0.2-1.2,0.6-1.5,1s-0.5,1-0.5,1.7h1.7V83.3z"/>
</g>
<g>
	<rect x="344.5" y="180.8" class="st3" width="96" height="69"/>
	<g>
		<line class="st4" x1="353.5" y1="197.2" x2="431.5" y2="197.2"/>
		<line class="st4" x1="353.5" y1="215.2" x2="431.5" y2="215.2"/>
		<line class="st4" x1="353.5" y1="233.2" x2="431.5" y2="233.2"/>
	</g>
</g>
<g>
	<rect x="344.5" y="373.2" class="st3" width="96" height="69"/>
	<g>
		<line class="st4" x1="353.5" y1="389.8" x2="431.5" y2="389.8"/>
		<line class="st4" x1="353.5" y1="407.8" x2="431.5" y2="407.8"/>
		<line class="st4" x1="353.5" y1="425.8" x2="431.5" y2="425.8"/>
	</g>
</g>
<g>
	<rect x="344.5" y="576.8" class="st3" width="96" height="69"/>
	<g>
		<line class="st4" x1="353.5" y1="593.2" x2="431.5" y2="593.2"/>
		<line class="st4" x1="353.5" y1="611.2" x2="431.5" y2="611.2"/>
		<line class="st4" x1="353.5" y1="629.2" x2="431.5" y2="629.2"/>
	</g>
</g>
<g>
	<rect x="466.5" y="274.2" class="st5" width="96" height="69"/>
	<g>
		<line class="st6" x1="475.5" y1="290.8" x2="553.5" y2="290.8"/>
		<line class="st6" x1="475.5" y1="308.8" x2="553.5" y2="308.8"/>
		<line class="st6" x1="475.5" y1="326.8" x2="553.5" y2="326.8"/>
	</g>
</g>
<g>
	<rect x="466.5" y="466.8" class="st5" width="96" height="69"/>
	<g>
		<line class="st6" x1="475.5" y1="483.2" x2="553.5" y2="483.2"/>
		<line class="st6" x1="475.5" y1="501.2" x2="553.5" y2="501.2"/>
		<line class="st6" x1="475.5" y1="519.2" x2="553.5" y2="519.2"/>
	</g>
</g>
<rect x="402" y="163" class="st7" width="68" height="41"/>
<g>
	<path class="st2" d="M413.9,190.3v-15.7h3.1l6.4,10.5v-10.5h3v15.7h-3.2l-6.3-10.3v10.3H413.9z"/>
	<path class="st2" d="M429.7,190.3v-15.7h11.7v2.7h-8.5v3.5h7.9v2.7h-7.9v4.3h8.8v2.7h-12V190.3z"/>
	<path class="st2" d="M443.8,182.5c0-1.6,0.2-3,0.7-4c0.4-0.8,0.8-1.5,1.5-2.2c0.6-0.6,1.3-1.1,2-1.4c1-0.4,2.1-0.6,3.4-0.6
		c2.3,0,4.2,0.7,5.6,2.2c1.4,1.4,2.1,3.4,2.1,6c0,2.5-0.7,4.5-2.1,6c-1.4,1.4-3.2,2.2-5.5,2.2s-4.2-0.7-5.6-2.1
		C444.4,187,443.8,185,443.8,182.5z M447,182.4c0,1.8,0.4,3.1,1.2,4.1c0.8,0.9,1.9,1.4,3.1,1.4s2.3-0.5,3.1-1.4
		c0.8-0.9,1.2-2.3,1.2-4.1s-0.4-3.2-1.2-4c-0.8-0.9-1.8-1.3-3.2-1.3s-2.4,0.4-3.2,1.3C447.4,179.2,447,180.6,447,182.4z"/>
</g>
<rect x="406" y="559" class="st7" width="47" height="41"/>
<g>
	<path class="st2" d="M416.2,586.3l5.4-8.2l-4.9-7.5h3.7l3.2,5.1l3.1-5.1h3.7l-4.9,7.6l5.4,8.1H427l-3.5-5.4l-3.5,5.4L416.2,586.3
		L416.2,586.3z"/>
	<path class="st2" d="M436.6,586.3v-6.6l-5.8-9.1h3.7l3.7,6.2l3.6-6.2h3.7l-5.8,9.1v6.6H436.6z"/>
</g>
<rect x="525" y="256" class="st7" width="47" height="41"/>
<g>
	<path class="st2" d="M534.8,283.3v-15.7h11.7v2.7H538v3.5h7.9v2.7H538v4.3h8.8v2.7h-12V283.3z"/>
	<path class="st2" d="M549.5,283.3v-15.7h6.7c1.7,0,2.9,0.1,3.7,0.4s1.4,0.8,1.8,1.5c0.5,0.7,0.7,1.6,0.7,2.5c0,1.2-0.3,2.2-1,2.9
		c-0.7,0.8-1.7,1.3-3.1,1.5c0.7,0.4,1.3,0.8,1.7,1.3s1.1,1.3,1.8,2.6l1.9,3.1h-3.8l-2.3-3.4c-0.8-1.2-1.4-2-1.7-2.3s-0.6-0.5-1-0.7
		c-0.3-0.1-0.9-0.2-1.6-0.2h-0.6v6.6L549.5,283.3L549.5,283.3z M552.7,274.2h2.4c1.5,0,2.5-0.1,2.9-0.2s0.7-0.4,0.9-0.7
		c0.2-0.3,0.3-0.7,0.3-1.2s-0.1-1-0.4-1.3c-0.3-0.3-0.7-0.5-1.2-0.6c-0.3,0-1-0.1-2.3-0.1h-2.5v4.1L552.7,274.2L552.7,274.2z"/>
</g>
<rect x="402" y="356" class="st7" width="58" height="41"/>
<g>
	<path class="st2" d="M413.7,383.3v-15.7h3.2v15.7H413.7z"/>
	<path class="st2" d="M430,377.5l3.1,1c-0.5,1.7-1.3,3-2.4,3.8s-2.5,1.3-4.2,1.3c-2.1,0-3.8-0.7-5.2-2.1c-1.3-1.4-2-3.4-2-5.9
		c0-2.6,0.7-4.7,2-6.1s3.1-2.2,5.3-2.2c1.9,0,3.5,0.6,4.7,1.7c0.7,0.7,1.3,1.6,1.6,2.9l-3.1,0.8c-0.2-0.8-0.6-1.5-1.2-1.9
		s-1.3-0.7-2.2-0.7c-1.2,0-2.1,0.4-2.8,1.3c-0.7,0.8-1.1,2.2-1.1,4.1c0,2,0.4,3.4,1.1,4.3c0.7,0.8,1.6,1.3,2.8,1.3
		c0.8,0,1.6-0.3,2.2-0.8C429.3,379.5,429.8,378.6,430,377.5z"/>
	<path class="st2" d="M435.8,367.5h3.2v8.5c0,1.4,0,2.2,0.1,2.6c0.1,0.6,0.5,1.2,1,1.6s1.2,0.6,2.1,0.6s1.6-0.2,2-0.6
		c0.5-0.4,0.7-0.8,0.8-1.4c0.1-0.5,0.1-1.4,0.1-2.7v-8.7h3.2v8.3c0,1.9-0.1,3.2-0.3,4c-0.2,0.8-0.5,1.4-1,2s-1.1,1-1.9,1.3
		s-1.8,0.5-3,0.5c-1.5,0-2.6-0.2-3.4-0.5s-1.4-0.8-1.8-1.4s-0.7-1.1-0.9-1.7c-0.2-0.9-0.3-2.2-0.3-4L435.8,367.5L435.8,367.5z"/>
</g>
<rect x="525" y="449" class="st7" width="51" height="41"/>
<g>
	<path class="st2" d="M534.2,468.5c0-1.6,0.2-2.9,0.7-4c0.4-0.8,0.8-1.5,1.5-2.2c0.6-0.6,1.3-1.1,2-1.4c1-0.4,2.1-0.6,3.4-0.6
		c2.3,0,4.2,0.7,5.6,2.2c1.4,1.4,2.1,3.4,2.1,6c0,2.5-0.7,4.5-2.1,6c-1.4,1.4-3.2,2.2-5.5,2.2s-4.2-0.7-5.6-2.1
		C534.9,473,534.2,471,534.2,468.5z M537.5,468.4c0,1.8,0.4,3.1,1.2,4.1c0.8,0.9,1.9,1.4,3.1,1.4s2.3-0.5,3.1-1.4s1.2-2.3,1.2-4.1
		c0-1.8-0.4-3.2-1.2-4c-0.8-0.9-1.8-1.3-3.2-1.3s-2.4,0.5-3.2,1.3C537.9,465.2,537.5,466.6,537.5,468.4z"/>
	<path class="st2" d="M552,476.3v-15.7h6.7c1.7,0,2.9,0.1,3.7,0.4s1.4,0.8,1.8,1.5c0.5,0.7,0.7,1.6,0.7,2.5c0,1.2-0.3,2.2-1,2.9
		c-0.7,0.8-1.7,1.3-3.1,1.5c0.7,0.4,1.3,0.8,1.7,1.3s1.1,1.3,1.8,2.6l1.9,3.1h-3.8l-2.3-3.4c-0.8-1.2-1.4-2-1.7-2.3s-0.6-0.5-1-0.7
		c-0.3-0.1-0.9-0.2-1.6-0.2h-0.6v6.6L552,476.3L552,476.3z M555.1,467.2h2.4c1.5,0,2.5-0.1,2.9-0.2s0.7-0.3,0.9-0.7
		c0.2-0.3,0.3-0.7,0.3-1.2s-0.1-1-0.4-1.3c-0.3-0.3-0.7-0.5-1.2-0.6c-0.3,0-1-0.1-2.3-0.1h-2.5v4.1L555.1,467.2L555.1,467.2z"/>
</g>
<line class="st8" x1="1107.7" y1="212.2" x2="1107.7" y2="264.5"/>
<path class="st9" d="M1107.7,265.7h20.2c0,0,2.3,0,2.3-1.9v-17.1v-24.5v-9.9c0-0.6-0.5-1-1-1h-21.6"/>
<path class="st9" d="M1107.7,265.7h-73.5h-4.5H921.3c0,0-3.6,0.1-3.6-4.7c0,0,1.7-42.1,10.8-52.7c0,0,2.2-2.8,4.7-2.8h95.9h1.5h94.6
	c2.5,0,4.7,5.5,4.7,5.5h-22.2V265.7z"/>
<path class="st1" d="M933.7,217.5c0,0-4.1,17.9-4,32.9c2.9,0.1,5.9,0.2,8.8,0.4c6.3,0.3,12.5,0.6,18.8,1.1
	c8.6,0.6,17.2,1.8,25.8,2.8c6.6,0.7,13.3,1.5,19.9,2c3.3,0.3,6.7,0.4,10,0.6c0,0,4.7-18.3,7.2-34.4c0,0-30.1-6.4-50.9-5.9
	L933.7,217.5z"/>
<path class="st1" d="M1023.8,223.4c0,0-5.5,28.9-7,34c0,0,23.4,1.7,40.6,1.7c0,0,40.7-1,45.3-2.2c0,0,0.1-14,1.1-30.6
	c-9,0.3-18,0.5-27.1,0.6c-14.4,0.2-28.7-0.4-43-2.2C1030.5,224.3,1027.1,223.9,1023.8,223.4z"/>
<rect x="938.1" y="225.9" class="st2" width="71.5" height="19.1"/>
<circle class="st2" cx="1041.1" cy="236.2" r="4.9"/>
<circle class="st2" cx="1064.7" cy="236.2" r="4.9"/>
<circle class="st2" cx="1077.1" cy="236.2" r="4.9"/>
<circle class="st2" cx="1089.6" cy="236.2" r="4.9"/>
<circle class="st2" cx="1064.7" cy="249" r="4.9"/>
<circle class="st2" cx="1077.1" cy="249" r="4.9"/>
<circle class="st2" cx="1089.6" cy="249" r="4.9"/>
<circle class="st2" cx="1041.1" cy="250.2" r="4.9"/>
<circle class="st2" cx="1030.9" cy="243.2" r="4.9"/>
<circle class="st2" cx="1051.3" cy="243.2" r="4.9"/>
<rect x="1107.7" y="223.2" class="st9" width="26.6" height="24.1"/>
<rect x="1134.2" y="213.2" class="st9" width="24.1" height="44.7"/>
<g>
	<path class="st1" d="M964.4,213.2h-7.3c-0.3,0-0.6-0.3-0.6-0.6v-1.7c0-0.3,0.3-0.6,0.6-0.6h7.3c0.3,0,0.6,0.3,0.6,0.6v1.7
		C965,212.9,964.8,213.2,964.4,213.2z"/>
	<path class="st1" d="M977.6,213.2h-7.3c-0.3,0-0.6-0.3-0.6-0.6v-1.7c0-0.3,0.3-0.6,0.6-0.6h7.3c0.3,0,0.6,0.3,0.6,0.6v1.7
		C978.2,212.9,977.9,213.2,977.6,213.2z"/>
	<path class="st1" d="M990.8,213.2h-7.3c-0.3,0-0.6-0.3-0.6-0.6v-1.7c0-0.3,0.3-0.6,0.6-0.6h7.3c0.3,0,0.6,0.3,0.6,0.6v1.7
		C991.4,212.9,991.1,213.2,990.8,213.2z"/>
</g>
<g>
	<line class="st8" x1="1107.7" y1="567.2" x2="1107.7" y2="619.5"/>
	<path class="st9" d="M1107.7,620.7h20.2c0,0,2.3,0,2.3-1.9v-17.1v-24.5v-9.9c0-0.6-0.5-1-1-1h-21.6"/>
	<path class="st9" d="M1107.7,620.7h-73.5h-4.5H921.3c0,0-3.6,0.1-3.6-4.7c0,0,1.7-42.1,10.8-52.7c0,0,2.2-2.8,4.7-2.8h95.9h1.5
		h94.6c2.5,0,4.7,5.5,4.7,5.5h-22.2V620.7z"/>
	<path class="st1" d="M933.7,572.5c0,0-4.1,17.9-4,32.9c2.9,0.1,5.9,0.2,8.8,0.4c6.3,0.3,12.5,0.6,18.8,1.1
		c8.6,0.6,17.2,1.8,25.8,2.8c6.6,0.7,13.3,1.5,19.9,2c3.3,0.3,6.7,0.4,10,0.6c0,0,4.7-18.3,7.2-34.4c0,0-30.1-6.4-50.9-5.9
		L933.7,572.5z"/>
	<path class="st1" d="M1023.8,578.4c0,0-5.5,28.9-7,34c0,0,23.4,1.7,40.6,1.7c0,0,40.7-1,45.3-2.2c0,0,0.1-14,1.1-30.6
		c-9,0.3-18,0.5-27.1,0.6c-14.4,0.2-28.7-0.4-43-2.2C1030.5,579.3,1027.1,578.9,1023.8,578.4z"/>
	<rect x="938.1" y="580.9" class="st2" width="71.5" height="19.1"/>
	<circle class="st2" cx="1041.1" cy="591.2" r="4.9"/>
	<circle class="st2" cx="1064.7" cy="591.2" r="4.9"/>
	<circle class="st2" cx="1077.1" cy="591.2" r="4.9"/>
	<circle class="st2" cx="1089.6" cy="591.2" r="4.9"/>
	<circle class="st2" cx="1064.7" cy="604" r="4.9"/>
	<circle class="st2" cx="1077.1" cy="604" r="4.9"/>
	<circle class="st2" cx="1089.6" cy="604" r="4.9"/>
	<circle class="st2" cx="1041.1" cy="605.2" r="4.9"/>
	<circle class="st2" cx="1030.9" cy="598.2" r="4.9"/>
	<circle class="st2" cx="1051.3" cy="598.2" r="4.9"/>
	<rect x="1107.7" y="578.2" class="st9" width="26.6" height="24.1"/>
	<rect x="1134.2" y="568.2" class="st9" width="24.1" height="44.7"/>
	<g>
		<path class="st1" d="M964.4,568.2h-7.3c-0.3,0-0.6-0.3-0.6-0.6v-1.7c0-0.3,0.3-0.6,0.6-0.6h7.3c0.3,0,0.6,0.3,0.6,0.6v1.7
			C965,567.9,964.8,568.2,964.4,568.2z"/>
		<path class="st1" d="M977.6,568.2h-7.3c-0.3,0-0.6-0.3-0.6-0.6v-1.7c0-0.3,0.3-0.6,0.6-0.6h7.3c0.3,0,0.6,0.3,0.6,0.6v1.7
			C978.2,567.9,977.9,568.2,977.6,568.2z"/>
		<path class="st1" d="M990.8,568.2h-7.3c-0.3,0-0.6-0.3-0.6-0.6v-1.7c0-0.3,0.3-0.6,0.6-0.6h7.3c0.3,0,0.6,0.3,0.6,0.6v1.7
			C991.4,567.9,991.1,568.2,990.8,568.2z"/>
	</g>
</g>
<path class="st9" d="M1034.2,438h98.5c0,0,3.6,0.1,3.6-4.7c0,0-1.7-42.1-10.8-52.7c0,0-2.2-2.8-4.7-2.8h-90.2h-1.5h-95.9
	c-2.5,0-4.7,2.8-4.7,2.8c-9.1,10.6-10.8,52.7-10.8,52.7c0,4.8,3.6,4.7,3.6,4.7h108.5H1034.2z"/>
<path class="st1" d="M933.7,389.8c0,0-4.1,17.9-4,32.9c2.9,0.1,5.9,0.2,8.8,0.4c6.3,0.3,12.5,0.6,18.8,1.1
	c8.6,0.6,17.2,1.8,25.8,2.8c6.6,0.7,13.3,1.5,19.9,2c3.3,0.3,6.7,0.4,10,0.6c0,0,4.7-18.3,7.2-34.4c0,0-30.1-6.4-50.9-5.9
	L933.7,389.8z"/>
<path class="st1" d="M1023.8,395.7c0,0-5.5,28.9-7,34c0,0,23.4,1.7,40.6,1.7c0,0,35.4-1,40-2.2c0,0,4.6-14.4,6.4-30.6
	c-9,0.3-18,0.5-27.1,0.6c-14.4,0.2-28.7-0.4-43-2.2C1030.5,396.7,1027.1,396.2,1023.8,395.7z"/>
<path class="st1" d="M1107.6,398.4l11.9-0.9c0,0,1.8,22.3,0.4,29.7c0,0-13.9,1.3-18.6,1.8C1101.4,429,1105.1,415.6,1107.6,398.4z"/>
<rect x="938.1" y="398.2" class="st2" width="71.5" height="19.1"/>
<circle class="st2" cx="1041.1" cy="408.5" r="4.9"/>
<circle class="st2" cx="1064.7" cy="408.5" r="4.9"/>
<circle class="st2" cx="1077.1" cy="408.5" r="4.9"/>
<circle class="st2" cx="1089.6" cy="408.5" r="4.9"/>
<circle class="st2" cx="1064.7" cy="421.3" r="4.9"/>
<circle class="st2" cx="1077.1" cy="421.3" r="4.9"/>
<circle class="st2" cx="1089.6" cy="421.3" r="4.9"/>
<circle class="st2" cx="1112.8" cy="414.7" r="4.9"/>
<circle class="st2" cx="1041.1" cy="422.6" r="4.9"/>
<circle class="st2" cx="1030.9" cy="415.6" r="4.9"/>
<circle class="st2" cx="1051.3" cy="415.6" r="4.9"/>
<g>
	<path class="st1" d="M964.4,386h-7.3c-0.3,0-0.6-0.3-0.6-0.6v-1.7c0-0.3,0.3-0.6,0.6-0.6h7.3c0.3,0,0.6,0.3,0.6,0.6v1.7
		C965,385.7,964.8,386,964.4,386z"/>
	<path class="st1" d="M977.6,386h-7.3c-0.3,0-0.6-0.3-0.6-0.6v-1.7c0-0.3,0.3-0.6,0.6-0.6h7.3c0.3,0,0.6,0.3,0.6,0.6v1.7
		C978.2,385.7,977.9,386,977.6,386z"/>
	<path class="st1" d="M990.8,386h-7.3c-0.3,0-0.6-0.3-0.6-0.6v-1.7c0-0.3,0.3-0.6,0.6-0.6h7.3c0.3,0,0.6,0.3,0.6,0.6v1.7
		C991.4,385.7,991.1,386,990.8,386z"/>
</g>
<rect x="1101" y="167" class="st7" width="58" height="41"/>
<g>
	<path class="st2" d="M1112.7,194.3v-15.7h3.2v15.7H1112.7z"/>
	<path class="st2" d="M1129,188.5l3.1,1c-0.5,1.7-1.3,3-2.4,3.8s-2.5,1.3-4.2,1.3c-2.1,0-3.8-0.7-5.2-2.1c-1.3-1.4-2-3.4-2-5.9
		c0-2.6,0.7-4.7,2-6.1s3.1-2.2,5.3-2.2c1.9,0,3.5,0.6,4.7,1.7c0.7,0.7,1.3,1.6,1.6,2.9l-3.1,0.8c-0.2-0.8-0.6-1.5-1.2-1.9
		s-1.3-0.7-2.2-0.7c-1.2,0-2.1,0.4-2.8,1.3c-0.7,0.8-1.1,2.2-1.1,4.1c0,2,0.4,3.4,1.1,4.3c0.7,0.8,1.6,1.3,2.8,1.3
		c0.8,0,1.6-0.3,2.2-0.8C1128.3,190.5,1128.8,189.6,1129,188.5z"/>
	<path class="st2" d="M1134.8,178.5h3.2v8.5c0,1.4,0,2.2,0.1,2.6c0.1,0.6,0.5,1.2,1,1.6c0.5,0.4,1.2,0.6,2.1,0.6s1.6-0.2,2-0.6
		c0.5-0.4,0.7-0.8,0.8-1.4c0.1-0.5,0.1-1.4,0.1-2.7v-8.7h3.2v8.3c0,1.9-0.1,3.2-0.3,4c-0.2,0.8-0.5,1.4-1,2s-1.1,1-1.9,1.3
		s-1.8,0.5-3,0.5c-1.5,0-2.6-0.2-3.4-0.5s-1.4-0.8-1.8-1.4c-0.5-0.6-0.7-1.1-0.9-1.7c-0.2-0.9-0.3-2.2-0.3-4v-8.4L1134.8,178.5
		L1134.8,178.5z"/>
</g>
<rect x="1101" y="342" class="st7" width="53" height="41"/>
<g>
	<path class="st2" d="M1112.2,361.5c0-1.6,0.2-2.9,0.7-4c0.4-0.8,0.8-1.5,1.5-2.2c0.6-0.6,1.3-1.1,2-1.4c1-0.4,2.1-0.6,3.4-0.6
		c2.3,0,4.2,0.7,5.6,2.2c1.4,1.4,2.1,3.4,2.1,6c0,2.5-0.7,4.5-2.1,6c-1.4,1.4-3.2,2.2-5.5,2.2s-4.2-0.7-5.6-2.1
		C1112.9,366,1112.2,364,1112.2,361.5z M1115.5,361.4c0,1.8,0.4,3.1,1.2,4.1c0.8,0.9,1.9,1.4,3.1,1.4s2.3-0.5,3.1-1.4
		s1.2-2.3,1.2-4.1c0-1.8-0.4-3.2-1.2-4c-0.8-0.9-1.8-1.3-3.2-1.3s-2.4,0.5-3.2,1.3C1115.9,358.2,1115.5,359.6,1115.5,361.4z"/>
	<path class="st2" d="M1130,369.3v-15.7h6.7c1.7,0,2.9,0.1,3.7,0.4c0.8,0.3,1.4,0.8,1.8,1.5c0.5,0.7,0.7,1.6,0.7,2.5
		c0,1.2-0.3,2.2-1,2.9c-0.7,0.8-1.7,1.3-3.1,1.5c0.7,0.4,1.3,0.8,1.7,1.3c0.4,0.5,1.1,1.3,1.8,2.6l1.9,3.1h-3.8l-2.3-3.4
		c-0.8-1.2-1.4-2-1.7-2.3c-0.3-0.3-0.6-0.5-1-0.7c-0.3-0.1-0.9-0.2-1.6-0.2h-0.6v6.6L1130,369.3L1130,369.3z M1133.1,360.2h2.4
		c1.5,0,2.5-0.1,2.9-0.2s0.7-0.3,0.9-0.7c0.2-0.3,0.3-0.7,0.3-1.2s-0.1-1-0.4-1.3s-0.7-0.5-1.2-0.6c-0.3,0-1-0.1-2.3-0.1h-2.5v4.1
		L1133.1,360.2L1133.1,360.2z"/>
</g>
<rect x="1101" y="523" class="st7" width="53" height="41"/>
<g>
	<path class="st2" d="M1112.8,550.3v-15.7h11.7v2.7h-8.5v3.5h7.9v2.7h-7.9v4.3h8.8v2.7h-12V550.3z"/>
	<path class="st2" d="M1127.5,550.3v-15.7h6.7c1.7,0,2.9,0.1,3.7,0.4c0.8,0.3,1.4,0.8,1.8,1.5c0.5,0.7,0.7,1.6,0.7,2.5
		c0,1.2-0.3,2.2-1,2.9c-0.7,0.8-1.7,1.3-3.1,1.5c0.7,0.4,1.3,0.8,1.7,1.3c0.4,0.5,1.1,1.3,1.8,2.6l1.9,3.1h-3.8l-2.3-3.4
		c-0.8-1.2-1.4-2-1.7-2.3c-0.3-0.3-0.6-0.5-1-0.7c-0.3-0.1-0.9-0.2-1.6-0.2h-0.6v6.6L1127.5,550.3L1127.5,550.3z M1130.7,541.2h2.4
		c1.5,0,2.5-0.1,2.9-0.2c0.4-0.1,0.7-0.3,0.9-0.7c0.2-0.3,0.3-0.7,0.3-1.2s-0.1-1-0.4-1.3s-0.7-0.5-1.2-0.6c-0.3,0-1-0.1-2.3-0.1
		h-2.5v4.1H1130.7z"/>
</g>
<g>
	<g>
		<line class="st8" x1="1011" y1="278" x2="1011" y2="348.7"/>
		<g>
			<polygon class="st1" points="1002.1,341.9 1011,345.7 1019.9,341.9 1011,363 			"/>
		</g>
	</g>
</g>
<g>
	<g>
		<line class="st8" x1="811" y1="236" x2="876.7" y2="236"/>
		<g>
			<polygon class="st1" points="869.9,244.9 873.7,236 869.9,227.1 891,236 			"/>
		</g>
	</g>
</g>
<g>
	<g>
		<line class="st8" x1="811" y1="408" x2="876.7" y2="408"/>
		<g>
			<polygon class="st1" points="869.9,416.9 873.7,408 869.9,399.1 891,408 			"/>
		</g>
	</g>
</g>
<g>
	<g>
		<g>
			<polygon class="st1" points="651.9,414.9 655.7,406 651.9,397.1 673,406 			"/>
		</g>
	</g>
</g>
<g>
	<g>
		<line class="st8" x1="811" y1="591" x2="876.7" y2="591"/>
		<g>
			<polygon class="st1" points="869.9,599.9 873.7,591 869.9,582.1 891,591 			"/>
		</g>
	</g>
</g>
<g>
	<g>
		<line class="st8" x1="1037" y1="363" x2="1037" y2="292.3"/>
		<g>
			<polygon class="st1" points="1045.9,299.1 1037,295.3 1028.1,299.1 1037,278 			"/>
		</g>
	</g>
</g>
<g>
	<g>
		<line class="st8" x1="1011" y1="450" x2="1011" y2="533.7"/>
		<g>
			<polygon class="st1" points="1002.1,526.9 1011,530.7 1019.9,526.9 1011,548 			"/>
		</g>
	</g>
</g>
<g>
	<g>
		<line class="st8" x1="1037" y1="548" x2="1037" y2="464.3"/>
		<g>
			<polygon class="st1" points="1045.9,471.1 1037,467.3 1028.1,471.1 1037,450 			"/>
		</g>
	</g>
</g>
<g>
	<polygon class="st3" points="794.3,192.4 794.3,291.3 747.6,291.3 701,291.3 701,231.8 701,172.3 774.2,172.3 	"/>
	<polyline class="st4" points="773.8,173 773.8,193.5 795,193.5 	"/>
	<g>
		<path class="st1" d="M732.4,224.5h7.9c1.8,0,3.2,0.1,4.1,0.4c1.3,0.4,2.3,1,3.2,2s1.6,2.1,2.1,3.5s0.7,3.1,0.7,5.1
			c0,1.8-0.2,3.3-0.7,4.6c-0.5,1.6-1.3,2.8-2.3,3.8c-0.8,0.7-1.8,1.3-3,1.7c-1,0.3-2.2,0.5-3.8,0.5h-8.2V224.5z M736.7,228.2v14.2
			h3.2c1.2,0,2.1-0.1,2.6-0.2c0.7-0.2,1.3-0.5,1.8-0.9s0.8-1.1,1.1-2.1s0.4-2.3,0.4-3.9s-0.1-2.9-0.4-3.8s-0.7-1.6-1.2-2.1
			s-1.2-0.8-2-1c-0.6-0.1-1.8-0.2-3.6-0.2H736.7z"/>
		<path class="st1" d="M754.2,246v-21.3h4.3v17.7h10.8v3.6H754.2z"/>
	</g>
</g>
<polygon class="st1" points="173.3,362.4 173.3,461.3 126.6,461.3 80,461.3 80,401.8 80,342.3 153.2,342.3 "/>
<polyline class="st10" points="152.8,342 152.8,362.5 175,362.5 "/>
<g>
	<polygon class="st3" points="794.2,368 794.2,466.9 747.6,466.9 701,466.9 701,407.4 701,347.9 774.2,347.9 	"/>
	<polyline class="st4" points="773.8,348.6 773.8,369.1 795,369.1 	"/>
	<g>
		<path class="st1" d="M733.4,398.5h7.9c1.8,0,3.2,0.1,4.1,0.4c1.3,0.4,2.3,1,3.2,2s1.6,2.1,2.1,3.5s0.7,3.1,0.7,5.1
			c0,1.8-0.2,3.3-0.7,4.6c-0.5,1.6-1.3,2.8-2.3,3.8c-0.8,0.7-1.8,1.3-3,1.7c-1,0.3-2.2,0.5-3.8,0.5h-8.2V398.5z M737.7,402.2v14.2
			h3.2c1.2,0,2.1-0.1,2.6-0.2c0.7-0.2,1.3-0.5,1.8-0.9s0.8-1.1,1.1-2.1s0.4-2.3,0.4-3.9s-0.1-2.9-0.4-3.8s-0.7-1.6-1.2-2.1
			s-1.2-0.8-2-1c-0.6-0.1-1.8-0.2-3.6-0.2H737.7z"/>
		<path class="st1" d="M755.2,420v-21.3h4.3v17.7h10.8v3.6L755.2,420L755.2,420z"/>
	</g>
</g>
<g>
	<polygon class="st3" points="794.3,545.8 794.3,644.7 747.6,644.7 701,644.7 701,585.2 701,525.7 774.2,525.7 	"/>
	<polyline class="st4" points="773.8,526.5 773.8,546.9 795,546.9 	"/>
	<g>
		<path class="st1" d="M732.4,578.5h7.9c1.8,0,3.2,0.1,4.1,0.4c1.3,0.4,2.3,1,3.2,2s1.6,2.1,2.1,3.5s0.7,3.1,0.7,5.1
			c0,1.8-0.2,3.3-0.7,4.6c-0.5,1.6-1.3,2.8-2.3,3.8c-0.8,0.7-1.8,1.3-3,1.7c-1,0.3-2.2,0.5-3.8,0.5h-8.2V578.5z M736.7,582.2v14.2
			h3.2c1.2,0,2.1-0.1,2.6-0.2c0.7-0.2,1.3-0.5,1.8-0.9s0.8-1.1,1.1-2.1s0.4-2.3,0.4-3.9s-0.1-2.9-0.4-3.8s-0.7-1.6-1.2-2.1
			s-1.2-0.8-2-1c-0.6-0.1-1.8-0.2-3.6-0.2H736.7z"/>
		<path class="st1" d="M754.2,600v-21.3h4.3v17.7h10.8v3.6H754.2z"/>
	</g>
</g>
<g>
	<g>
		<line class="st8" x1="594" y1="317" x2="651.7" y2="349.9"/>
		<g>
			<polygon class="st1" points="666,359 640.6,354.4 650.6,349.2 651.1,338 			"/>
		</g>
	</g>
</g>
<g>
	<g>
		<line class="st8" x1="594" y1="491" x2="651.7" y2="458.1"/>
		<g>
			<polygon class="st1" points="666,449 651.1,470.1 650.6,458.8 640.6,453.6 			"/>
		</g>
	</g>
</g>
<g>
	<g>
		<line class="st8" x1="594" y1="406" x2="658.7" y2="406"/>
		<g>
			<polygon class="st1" points="651.9,414.9 655.7,406 651.9,397.1 673,406 			"/>
		</g>
	</g>
</g>
<g>
	<g>
		<line class="st8" x1="594" y1="317" x2="651.7" y2="349.9"/>
		<g>
			<polygon class="st1" points="666,359 640.6,354.4 650.6,349.2 651.1,338 			"/>
		</g>
	</g>
</g>
<g>
	<g>
		<line class="st8" x1="594" y1="491" x2="651.7" y2="458.1"/>
		<g>
			<polygon class="st1" points="666,449 651.1,470.1 650.6,458.8 640.6,453.6 			"/>
		</g>
	</g>
</g>
<g>
	<g>
		<line class="st8" x1="217" y1="406" x2="300.6" y2="406"/>
		<g>
			<polygon class="st1" points="290.9,414.9 296.4,406 290.9,397.1 321,406 			"/>
		</g>
	</g>
</g>
<g>
	<g>
		<line class="st8" x1="217" y1="325" x2="290.7" y2="282.1"/>
		<g>
			<polygon class="st1" points="311,273 289.8,294.1 289.1,282.8 274.8,277.6 			"/>
		</g>
	</g>
</g>
<g>
	<g>
		<line class="st8" x1="217" y1="483" x2="290.7" y2="525.9"/>
		<g>
			<polygon class="st1" points="311,535 274.8,530.4 289.1,525.2 289.8,514 			"/>
		</g>
	</g>
</g>
<line class="st10" x1="95" y1="374" x2="136" y2="374"/>
<line class="st10" x1="95" y1="387.8" x2="153" y2="387.8"/>
<line class="st10" x1="95" y1="401.6" x2="145" y2="401.6"/>
<line class="st10" x1="95" y1="415.4" x2="153" y2="415.4"/>
<line class="st10" x1="95" y1="429.2" x2="144" y2="429.2"/>
<line class="st10" x1="95" y1="443" x2="152" y2="443"/>
<g>
	<path class="st11" d="M86.1,327.1H80c0,0-5.2,0.9-5.2,7.2c0,0,0,40.3,0,40.4c0,2.5,1.7,4.4,3.6,5.8c1,0.7,2,1.2,3,1.8
		c1,0.6,0.9,0.7,0.9,1.8h3.8h0.6h3.8c0-1.1,0-1.2,0.9-1.8c1-0.6,2-1.2,3-1.8c1.9-1.3,3.6-3.2,3.6-5.8c0-0.1,0-40.4,0-40.4
		c0-6.2-5.2-7.2-5.2-7.2h-6.1H86.1z"/>
	<path class="st11" d="M81.6,383.8h10c0.4,0,0.8,0.4,0.8,0.8l0,0c0,0.4-0.4,0.8-0.8,0.8h-10c-0.4,0-0.8-0.4-0.8-0.8l0,0
		C80.8,384.1,81.1,383.8,81.6,383.8z"/>
	<path class="st11" d="M90.8,385.6v3.5l-0.9,1.1v1.6c0,0-1.6,0.8-3.4-0.1c0,0-1.7,0.8-3.4,0.1v-1.6c0,0-0.6-0.8-0.9-1.1v-3.4"/>
	<g>
		<line class="st12" x1="90" y1="389" x2="82.9" y2="389"/>
		<path class="st13" d="M90,389c-0.6,0.4-1.2,0.6-1.8,0.8c-0.6,0.1-1.2,0.2-1.8,0.2c-0.6,0-1.2-0.1-1.8-0.2
			c-0.6-0.2-1.2-0.4-1.8-0.8c0.6-0.4,1.2-0.6,1.8-0.8c0.6-0.1,1.2-0.2,1.8-0.2c0.6,0,1.2,0.1,1.8,0.2C88.8,388.4,89.4,388.6,90,389z
			"/>
	</g>
	<line class="st14" x1="98" y1="336.5" x2="74.8" y2="336.5"/>
</g>
<path class="st14" d="M84.6,392.3v12.2c0,0,0,9.1-9.1,9.1h-13"/>
</svg>
