<?xml version="1.0" encoding="UTF-8"?>
<svg width="79px" height="70px" viewBox="0 0 79 70" version="1.1" xmlns="http://www.w3.org/2000/svg" xmlns:xlink="http://www.w3.org/1999/xlink">
    <!-- Generator: Sketch 56.3 (81716) - https://sketch.com -->
    <title>Group</title>
    <desc>Created with Sketch.</desc>
    <g id="1.Infusion-Systems" stroke="none" stroke-width="1" fill="none" fill-rule="evenodd">
        <g id="A.1" transform="translate(-162.000000, -325.000000)">
            <g id="Group" transform="translate(162.000000, 325.000000)">
                <g id="steroids-2" fill="#FFFFFF" fill-rule="nonzero">
                    <g id="steroids">
                        <g id="Group-2">
                            <path d="M69.6440532,8.42381913 L67.7685482,6.54831223 C67.7093491,6.4126873 67.6230796,6.28417174 67.5085095,6.16960148 L63.355957,2.01704491 C63.2413868,1.90247466 63.1127347,1.81620517 62.9772466,1.75700598 L61.5761549,0.355912912 C61.1016048,-0.118637637 60.3897113,-0.118637637 59.9151613,0.355912912 C59.4406112,0.830463462 59.4406112,1.54235765 59.9151613,2.01690819 L60.8049256,2.90667339 L54.9321803,8.77969786 L52.3219497,6.16960148 C51.8473996,5.69505093 51.1355061,5.69505093 50.6609561,6.16960148 C50.186406,6.64415203 50.186406,7.35604621 50.6609561,7.83059676 L51.5494899,8.71913148 L17.0847943,43.0677866 C16.8474509,43.3051302 16.7289159,43.5423371 16.7289159,43.8983526 C16.7289159,44.2542313 16.8475876,44.491575 17.0847943,44.7289186 L18.745788,46.3899139 L15.4238006,49.7119044 C14.9492506,50.186455 14.7119072,50.7796774 14.7119072,51.4915715 C14.7119072,52.1699696 14.9299732,52.7392662 15.3609101,53.202059 L0.355912565,67.9829893 C-0.118637522,68.4575398 -0.118637522,69.169434 0.355912565,69.6439845 C0.593255967,69.8813282 0.830599369,70 1.18647775,70 C1.42382116,70 1.77969954,69.8813282 2.01704294,69.6441213 L17.0220405,54.8630543 C17.4954968,55.3031517 18.1745779,55.5254563 18.745788,55.5254563 C19.4576815,55.5254563 20.0509032,55.2881127 20.4067816,54.6948903 L23.7287689,51.3728997 L25.5084343,53.1525668 C25.7457777,53.3899105 25.9829844,53.5084456 26.3389995,53.5084456 C26.5763429,53.5084456 26.9322213,53.3897737 27.1695647,53.1525668 L61.6342603,18.803775 L62.4067201,19.5762356 C62.6440635,19.8135792 62.8812702,19.9321143 63.2372853,19.9321143 C63.5933004,19.9321143 63.8305071,19.9321143 64.0678505,19.5762356 C64.5424006,19.101685 64.5424006,18.3897908 64.0678505,17.9152403 L60.7458632,14.5932497 L66.6187452,8.72036195 L67.9831963,10.0848144 C68.2205397,10.322158 68.4577464,10.4406931 68.8137615,10.4406931 C69.0511049,10.4406931 69.4069833,10.3220213 69.6443267,10.0848144 C70.1186033,9.61026386 70.1186033,8.89836968 69.6440532,8.42381913 Z M18.8644597,53.1525668 L18.745788,53.1525668 L17.203466,51.6102434 L17.203466,51.4915715 L20.5254533,48.169581 L22.186447,49.8305763 L18.8644597,53.1525668 Z M26.3389995,50.7796774 L24.8352322,49.2759086 C24.7761698,49.1329008 24.6848418,49.0068462 24.5593341,48.8813384 L21.2373468,45.5593479 C21.1227767,45.4447776 20.9941245,45.3585081 20.8586364,45.2993089 L19.5763532,44.0170244 L28.0001299,35.5932395 L41.5255593,35.5932395 L26.3389995,50.7796774 Z M43.8983097,33.22035 L30.3728803,33.22035 L39.7457572,23.8474639 L42.2373161,26.3390252 C42.4746595,26.5763689 42.7118661,26.694904 43.0678812,26.694904 C43.4237596,26.694904 43.661103,26.5762321 43.8984464,26.3390252 C44.3729965,25.8644747 44.3729965,25.1525805 43.8984464,24.6780299 L41.4068876,22.1864687 L43.1272171,20.4661375 L45.6781118,23.0170347 C45.9154552,23.2543783 46.1526619,23.3729134 46.508677,23.3729134 C46.7460204,23.3729134 47.1018988,23.2542416 47.3392422,23.0170347 C47.8137923,22.5424841 47.8137923,21.8305899 47.3392422,21.3560394 L44.7883475,18.8051422 L46.508677,17.084811 L49.0002358,19.5763723 C49.2375792,19.8137159 49.4747859,19.932251 49.830801,19.932251 C50.0681444,19.932251 50.4240228,19.932251 50.6613662,19.5763723 C51.1359163,19.1018217 51.1359163,18.3899275 50.6613662,17.915377 L48.1698074,15.4238157 L49.830801,13.7628204 L52.3223599,16.2543817 C52.5597033,16.4917253 52.79691,16.6102604 53.1529251,16.6102604 C53.5089402,16.6102604 53.7461469,16.4915886 53.9834903,16.2543817 C54.4580403,15.7798312 54.4580403,15.067937 53.9834903,14.5933864 L51.4919314,12.1018251 L53.1529251,10.4408299 L59.9155714,17.2034828 L43.8983097,33.22035 Z M59.0247133,12.8723716 L56.5331545,10.3808104 L62.2880484,4.50846948 L64.7796072,7.00003076 L59.0247133,12.8723716 Z" id="Shape"></path>
                            <path d="M57.5988201,44.000542 L78.0471743,23.5513352 C79.3176086,22.2819321 79.3176086,20.2222685 78.0471743,18.9528654 C76.7767401,17.6823782 74.7193304,17.6823782 73.4488962,18.9528654 L53.000542,39.4020722 L32.5511038,18.9528654 C31.2806696,17.6823782 29.2232599,17.6823782 27.9528257,18.9528654 C26.6823914,20.2222685 26.6823914,22.2819321 27.9528257,23.5513352 L48.4022639,44.000542 L27.9528257,64.4497488 C26.6823914,65.719152 26.6823914,67.7788155 27.9528257,69.0482186 C28.5880428,69.6823782 29.4205457,70 30.2519647,70 C31.0833837,70 31.9158867,69.6823782 32.5511038,69.0471346 L53.000542,48.5979278 L73.4488962,69.0471346 C74.0841133,69.6823782 74.9166163,70 75.7480353,70 C76.5794543,70 77.4119572,69.6823782 78.0471743,69.0471346 C79.3176086,67.7777315 79.3176086,65.7180679 78.0471743,64.4486648 L57.5988201,44.000542 Z" id="Path"></path>
                        </g>
                    </g>
                </g>
                <g id="close" transform="translate(27.000000, 18.000000)"></g>
            </g>
        </g>
    </g>
</svg>