<?xml version="1.0" encoding="utf-8"?>
<!-- Generator: Adobe Illustrator 24.1.3, SVG Export Plug-In . SVG Version: 6.00 Build 0)  -->
<svg version="1.1" id="Ebene_1" xmlns="http://www.w3.org/2000/svg" xmlns:xlink="http://www.w3.org/1999/xlink" x="0px" y="0px"
	 viewBox="0 0 1200 700" style="enable-background:new 0 0 1200 700;" xml:space="preserve">
<style type="text/css">
	.st0{fill:#00B482;}
	.st1{fill:#FFFFFF;stroke:#646464;stroke-miterlimit:10;}
	.st2{fill:none;}
	.st3{fill:#FFFFFF;}
	.st4{font-family:'RotisSansSerifPro-ExtraBold';}
	.st5{font-size:40px;}
	.st6{enable-background:new    ;}
	.st7{fill:#FFFFFF;stroke:#00A883;stroke-width:0.9262;stroke-miterlimit:10;}
	.st8{fill:none;stroke:#00A883;stroke-width:0.9262;stroke-miterlimit:10;}
	.st9{fill:#FFFFFF;stroke:#009882;stroke-width:0.9;stroke-miterlimit:10;}
	.st10{fill:#009882;}
	.st11{fill:#FFFFFF;stroke:#00A887;stroke-width:1.1425;}
	.st12{fill:#00A887;}
	.st13{fill:none;stroke:#00A887;stroke-width:1.1;stroke-miterlimit:10;}
	.st14{fill:#FFFFFF;stroke:#009881;stroke-width:0.9398;stroke-miterlimit:10;}
	.st15{fill:#FFFFFF;stroke:#722283;stroke-width:0.9398;stroke-miterlimit:10;}
	.st16{fill:#FFFFFF;stroke:#00A887;stroke-width:0.9398;stroke-miterlimit:10;}
	.st17{fill:none;stroke:#00A887;stroke-width:1.1452;stroke-miterlimit:10;}
	.st18{fill:#FFFFFF;stroke:#00A887;stroke-width:1.1452;stroke-miterlimit:10;}
	.st19{fill:#FFFFFF;stroke:#00A887;stroke-width:1;stroke-miterlimit:10.0006;}
	.st20{fill:#FFFFFF;stroke:#009881;stroke-width:0.9398;}
	.st21{fill:none;stroke:#009881;stroke-width:0.9398;}
	.st22{fill:#FC0303;}
	.st23{opacity:0.1;fill:#FC0303;enable-background:new    ;}
	.st24{fill:#FFFFFF;stroke:#00A887;stroke-width:2;stroke-linecap:round;stroke-linejoin:round;stroke-miterlimit:10;}
	.st25{fill:#00A883;}
	.st26{fill:none;stroke:#00A883;stroke-width:0.9496;}
	.st27{fill:none;stroke:#00A883;stroke-width:0.9496;stroke-miterlimit:10;}
	.st28{fill:#FFFFFF;stroke:#00A883;stroke-width:0.9496;}
	.st29{fill:#FFFFFF;stroke:#009881;stroke-width:0.3333;stroke-miterlimit:10;}
	.st30{fill:none;stroke:#009881;stroke-width:0.9447;}
	.st31{fill:none;stroke:#009881;stroke-width:0.9601;}
</style>
<g>
	<path class="st0" d="M698.6,154.1c6.2,4.1,12.2,8.5,18,13.2s11.3,9.7,16.5,14.9c10,10,19,20.9,26.9,32.6s14.7,24.2,20.3,37.4
		c5,11.7,8.9,23.9,11.8,36.6c2.9,12.6,4.7,25.7,5.3,39.1L830,348l29.3-20.2c-0.6-17.6-2.8-34.9-6.6-51.6
		c-3.7-16.7-8.9-32.8-15.4-48.2c-7.1-16.9-15.9-32.9-26-47.9s-21.7-29-34.4-41.7c-7.2-7.2-14.7-13.9-22.6-20.3
		c-7.9-6.4-16.1-12.3-24.7-17.8L730,137L698.6,154.1z"/>
	<path class="st0" d="M479,141c2.1-1.1,4.2-2.1,6.4-3.1c2.2-1,4.3-2,6.5-2.9c13.2-5.6,27-9.9,41.3-12.8s29.1-4.5,44.3-4.5
		s30,1.5,44.3,4.5c14.3,2.9,28.1,7.3,41.3,12.8c3.1,1.3,6.2,2.7,9.3,4.2s6.1,3,9,4.6L715,127l-2.6-36.9c-4.1-2.2-8.2-4.4-12.4-6.4
		s-8.5-4-12.8-5.8c-16.9-7.1-34.6-12.7-52.9-16.4c-18.4-3.8-37.4-5.7-56.8-5.7s-38.5,2-56.8,5.7c-18.4,3.8-36.1,9.3-52.9,16.4
		c-3.4,1.4-6.7,2.9-10,4.5s-6.6,3.2-9.8,4.8l32,15.8L479,141z"/>
	<path class="st0" d="M357.7,327.8c0.6-13.4,2.4-26.4,5.3-39.1c2.9-12.6,6.8-24.9,11.8-36.6c5.6-13.2,12.4-25.7,20.3-37.4
		s16.9-22.6,26.9-32.6c6-6,12.3-11.6,18.9-16.8s13.5-10.1,20.7-14.6L463,113l-32.5-15.9c-9.5,5.8-18.7,12.2-27.5,19.1
		s-17.1,14.3-24.9,22.2c-12.8,12.8-24.3,26.7-34.4,41.7s-18.9,31-26,47.9c-6.5,15.4-11.7,31.5-15.4,48.2
		c-3.7,16.7-5.9,33.9-6.6,51.6L329,309L357.7,327.8z"/>
	<path class="st0" d="M681.4,531.7c-3,1.6-6,3.1-9,4.6s-6.1,2.9-9.3,4.2c-13.2,5.6-27,9.9-41.3,12.8c-14.3,2.9-29.1,4.5-44.3,4.5
		s-30-1.5-44.3-4.5c-14.3-2.9-28.1-7.3-41.3-12.8c-2.2-0.9-4.4-1.9-6.5-2.9c-2.2-1-4.3-2-6.4-3.1L446,551l1.9,37.3
		c3.2,1.7,6.5,3.3,9.8,4.8s6.6,3,10,4.5c16.9,7.1,34.6,12.7,52.9,16.4c18.4,3.8,37.4,5.7,56.8,5.7s38.5-2,56.8-5.7
		c18.4-3.8,36.1-9.3,52.9-16.4c4.3-1.8,8.6-3.8,12.8-5.8s8.3-4.2,12.4-6.4L681,568L681.4,531.7z"/>
	<path class="st0" d="M797.3,347.8c-0.6,13.4-2.4,26.4-5.3,39.1c-2.9,12.6-6.8,24.9-11.8,36.6c-5.6,13.2-12.4,25.7-20.3,37.4
		c-7.9,11.7-16.9,22.6-26.9,32.6c-5.2,5.2-10.8,10.2-16.5,14.9c-5.8,4.7-11.7,9.1-18,13.2L697,559l32.7,16.2
		c8.6-5.5,16.8-11.4,24.7-17.8c7.9-6.4,15.4-13.1,22.6-20.3c12.8-12.8,24.3-26.7,34.4-41.7s18.9-31,26-47.9
		c6.5-15.4,11.7-31.5,15.4-48.2s5.9-33.9,6.6-51.6L831,366L797.3,347.8z"/>
	<path class="st0" d="M461.5,524.7c-7.2-4.5-14.1-9.3-20.7-14.6c-6.6-5.2-12.9-10.9-18.9-16.8c-10-10-19-20.9-26.9-32.6
		s-14.7-24.2-20.3-37.4c-5-11.7-8.9-23.9-11.8-36.6c-2.9-12.6-4.7-25.7-5.3-39.1L328,328l-32.3,19.8c0.6,17.6,2.8,34.9,6.6,51.6
		c3.7,16.7,8.9,32.8,15.4,48.2c7.1,16.9,15.9,32.9,26,47.9s21.7,29,34.4,41.7c7.9,7.9,16.2,15.3,24.9,22.2
		c8.7,6.9,17.9,13.3,27.5,19.1L429,542L461.5,524.7z"/>
</g>
<rect x="525.6" y="28.5" class="st1" width="106" height="106"/>
<rect x="758.5" y="156.5" class="st1" width="106" height="106"/>
<rect x="291.5" y="156.5" class="st1" width="106" height="106"/>
<rect x="527.4" y="539.5" class="st1" width="106" height="106"/>
<rect x="758.5" y="412.5" class="st1" width="106" height="106"/>
<rect x="291.5" y="412.5" class="st1" width="106" height="106"/>
<rect x="672.8" y="96" class="st2" width="90.9" height="55.7"/>
<text transform="matrix(1 0 0 1 672.792 123.584)" class="st3 st4 st5">1</text>
<rect x="817.3" y="293.5" class="st2" width="90.9" height="55.7"/>
<text transform="matrix(1 0 0 1 817.292 321.084)" class="st3 st4 st5">2</text>
<rect x="712.3" y="525.5" class="st2" width="90.9" height="55.7"/>
<text transform="matrix(1 0 0 1 712.292 553.084)" class="st3 st4 st5">3</text>
<rect x="458.3" y="550.5" class="st2" width="90.9" height="55.7"/>
<text transform="matrix(1 0 0 1 458.292 578.084)" class="st3 st4 st5">4 </text>
<rect x="316.8" y="348" class="st2" width="90.9" height="55.7"/>
<text transform="matrix(1 0 0 1 316.792 375.584)" class="st3 st4 st5">5</text>
<rect x="424.8" y="113" class="st2" width="90.9" height="55.7"/>
<text transform="matrix(1 0 0 1 424.792 140.584)" class="st3 st4 st5">6</text>
<rect x="493.4" y="291" class="st2" width="173.2" height="131"/>
<g class="st6">
	<path d="M509.1,305.8v-18.6h13.5v2.2h-11v5.7h10.3v2.2h-10.3v6.3H523v2.2H509.1z"/>
	<path d="M526.1,305.8v-13.5h2.1v1.9c1-1.5,2.4-2.2,4.3-2.2c0.8,0,1.6,0.1,2.2,0.4c0.7,0.3,1.2,0.7,1.5,1.1s0.6,1,0.7,1.7
		c0.1,0.4,0.1,1.2,0.1,2.2v8.3h-2.3v-8.2c0-0.9-0.1-1.6-0.3-2.1c-0.2-0.5-0.5-0.8-0.9-1.1c-0.5-0.3-1-0.4-1.6-0.4
		c-1,0-1.8,0.3-2.5,0.9s-1.1,1.8-1.1,3.5v7.4H526.1z"/>
	<path d="M539.6,301.8l2.3-0.4c0.1,0.9,0.5,1.6,1.1,2.1s1.4,0.7,2.4,0.7c1,0,1.8-0.2,2.3-0.6c0.5-0.4,0.8-0.9,0.8-1.5
		c0-0.5-0.2-0.9-0.7-1.2c-0.3-0.2-1.1-0.5-2.3-0.8c-1.7-0.4-2.8-0.8-3.5-1.1c-0.6-0.3-1.1-0.7-1.5-1.3c-0.3-0.5-0.5-1.1-0.5-1.8
		c0-0.6,0.1-1.2,0.4-1.7c0.3-0.5,0.6-0.9,1.1-1.3c0.4-0.3,0.8-0.5,1.5-0.7c0.6-0.2,1.3-0.3,2-0.3c1.1,0,2,0.2,2.8,0.5
		s1.4,0.7,1.8,1.2c0.4,0.5,0.6,1.2,0.8,2.1l-2.2,0.3c-0.1-0.7-0.4-1.2-0.9-1.6s-1.2-0.6-2.1-0.6c-1,0-1.8,0.2-2.2,0.5
		s-0.7,0.8-0.7,1.2c0,0.3,0.1,0.6,0.3,0.8c0.2,0.2,0.5,0.4,0.9,0.6c0.2,0.1,0.9,0.3,2,0.6c1.6,0.4,2.7,0.8,3.4,1.1
		c0.6,0.3,1.1,0.7,1.5,1.2s0.5,1.2,0.5,2c0,0.8-0.2,1.5-0.7,2.2c-0.4,0.7-1.1,1.2-1.9,1.6c-0.8,0.4-1.8,0.6-2.8,0.6
		c-1.8,0-3.1-0.4-4-1.1S539.9,303.2,539.6,301.8z"/>
	<path d="M562.4,305.8v-2c-1,1.5-2.5,2.3-4.3,2.3c-0.8,0-1.5-0.2-2.2-0.5s-1.2-0.7-1.5-1.1c-0.3-0.5-0.6-1-0.7-1.7
		c-0.1-0.4-0.1-1.2-0.1-2.1v-8.4h2.3v7.5c0,1.2,0,2,0.1,2.4c0.1,0.6,0.4,1.1,0.9,1.4c0.5,0.3,1,0.5,1.7,0.5s1.3-0.2,1.9-0.5
		c0.6-0.4,1-0.8,1.3-1.4c0.2-0.6,0.4-1.5,0.4-2.6v-7.2h2.3v13.5H562.4z"/>
	<path d="M568,305.8v-13.5h2.1v2c0.5-1,1-1.6,1.5-1.9s0.9-0.5,1.5-0.5c0.8,0,1.6,0.2,2.3,0.7l-0.8,2.1c-0.6-0.3-1.1-0.5-1.7-0.5
		c-0.5,0-0.9,0.2-1.3,0.5c-0.4,0.3-0.7,0.7-0.9,1.2c-0.3,0.8-0.4,1.7-0.4,2.7v7.1H568z"/>
	<path d="M576.7,289.8v-2.6h2.3v2.6H576.7z M576.7,305.8v-13.5h2.3v13.5H576.7z"/>
	<path d="M582.4,305.8v-13.5h2.1v1.9c1-1.5,2.4-2.2,4.3-2.2c0.8,0,1.6,0.1,2.2,0.4c0.7,0.3,1.2,0.7,1.5,1.1s0.6,1,0.7,1.7
		c0.1,0.4,0.1,1.2,0.1,2.2v8.3h-2.3v-8.2c0-0.9-0.1-1.6-0.3-2.1c-0.2-0.5-0.5-0.8-0.9-1.1c-0.5-0.3-1-0.4-1.6-0.4
		c-1,0-1.8,0.3-2.5,0.9s-1.1,1.8-1.1,3.5v7.4H582.4z"/>
	<path d="M596.5,306.9l2.2,0.3c0.1,0.7,0.4,1.2,0.8,1.5c0.6,0.4,1.3,0.6,2.3,0.6c1.1,0,1.9-0.2,2.5-0.6c0.6-0.4,1-1,1.2-1.8
		c0.1-0.5,0.2-1.4,0.2-2.9c-1,1.2-2.2,1.8-3.7,1.8c-1.9,0-3.3-0.7-4.3-2s-1.5-2.9-1.5-4.8c0-1.3,0.2-2.5,0.7-3.6
		c0.5-1.1,1.1-1.9,2-2.5s1.9-0.9,3.1-0.9c1.6,0,2.9,0.6,3.9,1.9v-1.6h2.1V304c0,2.1-0.2,3.6-0.6,4.5c-0.4,0.9-1.1,1.6-2,2.1
		s-2.1,0.8-3.4,0.8c-1.6,0-2.9-0.4-3.9-1.1C596.9,309.5,596.4,308.4,596.5,306.9z M598.4,298.8c0,1.8,0.4,3.1,1.1,3.9
		s1.6,1.2,2.6,1.2c1,0,1.9-0.4,2.6-1.2c0.7-0.8,1.1-2.1,1.1-3.8c0-1.7-0.4-2.9-1.1-3.7c-0.7-0.8-1.6-1.3-2.6-1.3
		c-1,0-1.9,0.4-2.6,1.2C598.7,296,598.4,297.2,598.4,298.8z"/>
	<path d="M623.6,303.8l0.3,2c-0.6,0.1-1.2,0.2-1.7,0.2c-0.8,0-1.5-0.1-1.9-0.4s-0.8-0.6-1-1c-0.2-0.4-0.3-1.3-0.3-2.7v-7.8h-1.7
		v-1.8h1.7V289l2.3-1.4v4.7h2.3v1.8h-2.3v7.9c0,0.7,0,1.1,0.1,1.3c0.1,0.2,0.2,0.3,0.4,0.4c0.2,0.1,0.4,0.2,0.8,0.2
		C622.8,303.8,623.1,303.8,623.6,303.8z"/>
	<path d="M625.8,305.8v-18.6h2.3v6.7c1.1-1.2,2.4-1.9,4-1.9c1,0,1.9,0.2,2.6,0.6c0.7,0.4,1.3,0.9,1.6,1.6s0.5,1.7,0.5,3v8.5h-2.3
		v-8.5c0-1.1-0.2-2-0.7-2.5c-0.5-0.5-1.2-0.8-2.1-0.8c-0.7,0-1.3,0.2-1.9,0.5c-0.6,0.4-1,0.8-1.3,1.4s-0.4,1.4-0.4,2.5v7.4H625.8z"
		/>
	<path d="M649.5,301.5l2.4,0.3c-0.4,1.4-1.1,2.5-2.1,3.2c-1,0.8-2.3,1.1-3.9,1.1c-2,0-3.5-0.6-4.7-1.8c-1.2-1.2-1.7-2.9-1.7-5.1
		c0-2.3,0.6-4,1.8-5.3s2.7-1.9,4.5-1.9c1.8,0,3.3,0.6,4.4,1.8s1.7,3,1.7,5.2c0,0.1,0,0.3,0,0.6h-10.1c0.1,1.5,0.5,2.6,1.3,3.4
		c0.8,0.8,1.7,1.2,2.8,1.2c0.8,0,1.6-0.2,2.1-0.7C648.7,303.1,649.1,302.4,649.5,301.5z M642,297.8h7.5c-0.1-1.1-0.4-2-0.9-2.6
		c-0.7-0.9-1.7-1.3-2.8-1.3c-1,0-1.9,0.4-2.6,1.1C642.4,295.6,642,296.6,642,297.8z"/>
</g>
<g class="st6">
	<path d="M505.2,332.1l2.4-0.2c0.2,1.2,0.6,2,1.2,2.6c0.6,0.6,1.4,0.9,2.3,0.9c1.1,0,2-0.4,2.8-1.2s1.1-1.9,1.1-3.3
		c0-1.3-0.4-2.3-1.1-3.1s-1.7-1.1-2.9-1.1c-0.7,0-1.4,0.2-2,0.5c-0.6,0.3-1.1,0.8-1.4,1.3l-2.1-0.3l1.8-9.6h9.3v2.2h-7.4l-1,5
		c1.1-0.8,2.3-1.2,3.5-1.2c1.6,0,3,0.6,4.1,1.7s1.7,2.6,1.7,4.3c0,1.7-0.5,3.1-1.5,4.4c-1.2,1.5-2.8,2.3-4.9,2.3
		c-1.7,0-3.1-0.5-4.1-1.4S505.4,333.7,505.2,332.1z"/>
	<path d="M527.5,337v-13.5h2.1v2c0.5-1,1-1.6,1.5-1.9s0.9-0.5,1.5-0.5c0.8,0,1.6,0.2,2.3,0.7l-0.8,2.1c-0.6-0.3-1.1-0.5-1.7-0.5
		c-0.5,0-0.9,0.2-1.3,0.5c-0.4,0.3-0.7,0.7-0.9,1.2c-0.3,0.8-0.4,1.7-0.4,2.7v7.1H527.5z"/>
	<path d="M536.2,321v-2.6h2.3v2.6H536.2z M536.2,337v-13.5h2.3V337H536.2z"/>
	<path d="M541.6,338.1l2.2,0.3c0.1,0.7,0.4,1.2,0.8,1.5c0.6,0.4,1.3,0.6,2.3,0.6c1.1,0,1.9-0.2,2.5-0.6s1-1,1.2-1.8
		c0.1-0.5,0.2-1.4,0.2-2.9c-1,1.2-2.2,1.8-3.7,1.8c-1.9,0-3.3-0.7-4.3-2s-1.5-2.9-1.5-4.8c0-1.3,0.2-2.5,0.7-3.6
		c0.5-1.1,1.1-1.9,2-2.5s1.9-0.9,3.1-0.9c1.6,0,2.9,0.6,3.9,1.9v-1.6h2.1v11.7c0,2.1-0.2,3.6-0.6,4.5c-0.4,0.9-1.1,1.6-2,2.1
		s-2.1,0.8-3.4,0.8c-1.6,0-2.9-0.4-3.9-1.1C542,340.7,541.5,339.6,541.6,338.1z M543.5,330c0,1.8,0.4,3.1,1.1,3.9s1.6,1.2,2.6,1.2
		c1,0,1.9-0.4,2.6-1.2c0.7-0.8,1.1-2.1,1.1-3.8c0-1.7-0.4-2.9-1.1-3.7s-1.6-1.3-2.6-1.3c-1,0-1.9,0.4-2.6,1.2
		C543.8,327.2,543.5,328.4,543.5,330z"/>
	<path d="M556.4,337v-18.6h2.3v6.7c1.1-1.2,2.4-1.9,4-1.9c1,0,1.9,0.2,2.6,0.6c0.7,0.4,1.3,0.9,1.6,1.6s0.5,1.7,0.5,3v8.5h-2.3v-8.5
		c0-1.1-0.2-2-0.7-2.5c-0.5-0.5-1.2-0.8-2.1-0.8c-0.7,0-1.3,0.2-1.9,0.5c-0.6,0.4-1,0.8-1.3,1.4s-0.4,1.4-0.4,2.5v7.4H556.4z"/>
	<path d="M575.9,335l0.3,2c-0.6,0.1-1.2,0.2-1.7,0.2c-0.8,0-1.5-0.1-1.9-0.4s-0.8-0.6-1-1c-0.2-0.4-0.3-1.3-0.3-2.7v-7.8h-1.7v-1.8
		h1.7v-3.3l2.3-1.4v4.7h2.3v1.8h-2.3v7.9c0,0.7,0,1.1,0.1,1.3s0.2,0.3,0.4,0.4s0.4,0.2,0.8,0.2C575.1,335,575.5,335,575.9,335z"/>
	<path d="M577.2,333l2.3-0.4c0.1,0.9,0.5,1.6,1.1,2.1s1.4,0.7,2.4,0.7c1,0,1.8-0.2,2.3-0.6c0.5-0.4,0.8-0.9,0.8-1.5
		c0-0.5-0.2-0.9-0.7-1.2c-0.3-0.2-1.1-0.5-2.3-0.8c-1.7-0.4-2.8-0.8-3.5-1.1c-0.6-0.3-1.1-0.7-1.5-1.3c-0.3-0.5-0.5-1.1-0.5-1.8
		c0-0.6,0.1-1.2,0.4-1.7c0.3-0.5,0.6-0.9,1.1-1.3c0.4-0.3,0.8-0.5,1.5-0.7c0.6-0.2,1.3-0.3,2-0.3c1.1,0,2,0.2,2.8,0.5
		s1.4,0.7,1.8,1.2c0.4,0.5,0.6,1.2,0.8,2.1l-2.2,0.3c-0.1-0.7-0.4-1.2-0.9-1.6s-1.2-0.6-2.1-0.6c-1,0-1.8,0.2-2.2,0.5
		s-0.7,0.8-0.7,1.2c0,0.3,0.1,0.6,0.3,0.8c0.2,0.2,0.5,0.4,0.9,0.6c0.2,0.1,0.9,0.3,2,0.6c1.6,0.4,2.7,0.8,3.4,1.1
		c0.6,0.3,1.1,0.7,1.5,1.2s0.5,1.2,0.5,2c0,0.8-0.2,1.5-0.7,2.2c-0.4,0.7-1.1,1.2-1.9,1.6c-0.8,0.4-1.8,0.6-2.8,0.6
		c-1.8,0-3.1-0.4-4-1.1S577.5,334.4,577.2,333z"/>
	<path d="M598.9,337v-11.7h-2v-1.8h2v-1.4c0-0.9,0.1-1.6,0.2-2c0.2-0.6,0.6-1.1,1.2-1.4c0.6-0.4,1.3-0.6,2.3-0.6
		c0.6,0,1.4,0.1,2.1,0.2l-0.3,2c-0.5-0.1-0.9-0.1-1.3-0.1c-0.7,0-1.2,0.1-1.5,0.4c-0.3,0.3-0.4,0.9-0.4,1.7v1.2h2.6v1.8h-2.6V337
		H598.9z"/>
	<path d="M605.5,337v-13.5h2.1v2c0.5-1,1-1.6,1.5-1.9s0.9-0.5,1.5-0.5c0.8,0,1.6,0.2,2.3,0.7l-0.8,2.1c-0.6-0.3-1.1-0.5-1.7-0.5
		c-0.5,0-0.9,0.2-1.3,0.5c-0.4,0.3-0.7,0.7-0.9,1.2c-0.3,0.8-0.4,1.7-0.4,2.7v7.1H605.5z"/>
	<path d="M613.4,330.3c0-2.5,0.7-4.3,2.1-5.5c1.2-1,2.6-1.5,4.2-1.5c1.9,0,3.4,0.6,4.5,1.8c1.2,1.2,1.8,2.9,1.8,5
		c0,1.7-0.3,3.1-0.8,4.1c-0.5,1-1.3,1.8-2.3,2.3c-1,0.5-2.1,0.8-3.3,0.8c-1.9,0-3.4-0.6-4.6-1.8C614,334.3,613.4,332.5,613.4,330.3z
		 M615.7,330.3c0,1.7,0.4,3,1.1,3.9c0.8,0.9,1.7,1.3,2.8,1.3c1.1,0,2.1-0.4,2.8-1.3c0.8-0.9,1.1-2.2,1.1-3.9c0-1.7-0.4-2.9-1.1-3.8
		c-0.8-0.9-1.7-1.3-2.8-1.3c-1.1,0-2.1,0.4-2.8,1.3C616.1,327.2,615.7,328.5,615.7,330.3z"/>
	<path d="M628.7,337v-13.5h2v1.9c0.4-0.7,1-1.2,1.7-1.6c0.7-0.4,1.5-0.6,2.4-0.6c1,0,1.8,0.2,2.5,0.6c0.6,0.4,1.1,1,1.4,1.7
		c1.1-1.6,2.5-2.4,4.2-2.4c1.3,0,2.4,0.4,3.1,1.1c0.7,0.7,1.1,1.9,1.1,3.4v9.3h-2.3v-8.5c0-0.9-0.1-1.6-0.2-2
		c-0.1-0.4-0.4-0.7-0.8-1c-0.4-0.2-0.8-0.4-1.4-0.4c-0.9,0-1.7,0.3-2.4,0.9c-0.6,0.6-0.9,1.6-0.9,3v7.8h-2.3v-8.8
		c0-1-0.2-1.8-0.6-2.3c-0.4-0.5-1-0.8-1.8-0.8c-0.6,0-1.2,0.2-1.8,0.5s-0.9,0.8-1.2,1.5c-0.2,0.7-0.4,1.6-0.4,2.8v7H628.7z"/>
</g>
<g class="st6">
	<path d="M500.1,373.4v-18.6h2.1v1.8c0.5-0.7,1-1.2,1.7-1.5c0.6-0.3,1.4-0.5,2.2-0.5c1.2,0,2.2,0.3,3,0.9s1.5,1.4,2,2.5
		c0.4,1.1,0.7,2.3,0.7,3.5c0,1.4-0.2,2.6-0.7,3.7c-0.5,1.1-1.2,2-2.2,2.5c-0.9,0.6-1.9,0.9-3,0.9c-0.8,0-1.4-0.2-2.1-0.5
		s-1.1-0.7-1.5-1.2v6.6H500.1z M502.1,361.5c0,1.7,0.4,3,1.1,3.8s1.6,1.2,2.6,1.2c1,0,1.9-0.4,2.6-1.3c0.7-0.9,1.1-2.2,1.1-4
		c0-1.7-0.4-3-1.1-3.9s-1.6-1.3-2.5-1.3c-1,0-1.8,0.5-2.6,1.4C502.5,358.5,502.1,359.8,502.1,361.5z"/>
	<path d="M514.5,368.2v-13.5h2.1v2c0.5-1,1-1.6,1.5-1.9s0.9-0.5,1.5-0.5c0.8,0,1.6,0.2,2.3,0.7l-0.8,2.1c-0.6-0.3-1.1-0.5-1.7-0.5
		c-0.5,0-0.9,0.2-1.3,0.5c-0.4,0.3-0.7,0.7-0.9,1.2c-0.3,0.8-0.4,1.7-0.4,2.7v7.1H514.5z"/>
	<path d="M532.4,363.9l2.4,0.3c-0.4,1.4-1.1,2.5-2.1,3.2s-2.3,1.1-3.9,1.1c-2,0-3.5-0.6-4.7-1.8c-1.2-1.2-1.7-2.9-1.7-5.1
		c0-2.3,0.6-4,1.8-5.3s2.7-1.9,4.5-1.9c1.8,0,3.3,0.6,4.4,1.8s1.7,3,1.7,5.2c0,0.1,0,0.3,0,0.6h-10.1c0.1,1.5,0.5,2.6,1.3,3.4
		s1.7,1.2,2.8,1.2c0.8,0,1.6-0.2,2.1-0.7S532.1,364.8,532.4,363.9z M524.9,360.2h7.5c-0.1-1.1-0.4-2-0.9-2.6
		c-0.7-0.9-1.7-1.3-2.8-1.3c-1,0-1.9,0.4-2.6,1.1S525,359,524.9,360.2z"/>
	<path d="M536.7,364.2l2.3-0.4c0.1,0.9,0.5,1.6,1.1,2.1s1.4,0.7,2.4,0.7c1,0,1.8-0.2,2.3-0.6c0.5-0.4,0.8-0.9,0.8-1.5
		c0-0.5-0.2-0.9-0.7-1.2c-0.3-0.2-1.1-0.5-2.3-0.8c-1.7-0.4-2.8-0.8-3.5-1.1c-0.6-0.3-1.1-0.7-1.5-1.3c-0.3-0.5-0.5-1.1-0.5-1.8
		c0-0.6,0.1-1.2,0.4-1.7c0.3-0.5,0.6-0.9,1.1-1.3c0.4-0.3,0.8-0.5,1.5-0.7c0.6-0.2,1.3-0.3,2-0.3c1.1,0,2,0.2,2.8,0.5
		s1.4,0.7,1.8,1.2c0.4,0.5,0.6,1.2,0.8,2.1l-2.2,0.3c-0.1-0.7-0.4-1.2-0.9-1.6s-1.2-0.6-2.1-0.6c-1,0-1.8,0.2-2.2,0.5
		s-0.7,0.8-0.7,1.2c0,0.3,0.1,0.6,0.3,0.8c0.2,0.2,0.5,0.4,0.9,0.6c0.2,0.1,0.9,0.3,2,0.6c1.6,0.4,2.7,0.8,3.4,1.1
		c0.6,0.3,1.1,0.7,1.5,1.2s0.5,1.2,0.5,2c0,0.8-0.2,1.5-0.7,2.2c-0.4,0.7-1.1,1.2-1.9,1.6c-0.8,0.4-1.8,0.6-2.8,0.6
		c-1.8,0-3.1-0.4-4-1.1S537,365.6,536.7,364.2z"/>
	<path d="M559.4,363.3l2.2,0.3c-0.2,1.5-0.9,2.8-1.9,3.6c-1,0.9-2.3,1.3-3.7,1.3c-1.8,0-3.3-0.6-4.4-1.8c-1.1-1.2-1.7-2.9-1.7-5.2
		c0-1.5,0.2-2.7,0.7-3.8s1.2-1.9,2.2-2.5c1-0.5,2.1-0.8,3.2-0.8c1.5,0,2.7,0.4,3.6,1.1c0.9,0.7,1.5,1.8,1.8,3.2l-2.2,0.3
		c-0.2-0.9-0.6-1.6-1.1-2s-1.2-0.7-1.9-0.7c-1.2,0-2.1,0.4-2.8,1.2c-0.7,0.8-1.1,2.1-1.1,3.9c0,1.8,0.3,3.1,1,3.9s1.6,1.2,2.7,1.2
		c0.9,0,1.6-0.3,2.2-0.8S559.3,364.4,559.4,363.3z"/>
	<path d="M563.6,368.2v-13.5h2.1v2c0.5-1,1-1.6,1.5-1.9s0.9-0.5,1.5-0.5c0.8,0,1.6,0.2,2.3,0.7l-0.8,2.1c-0.6-0.3-1.1-0.5-1.7-0.5
		c-0.5,0-0.9,0.2-1.3,0.5c-0.4,0.3-0.7,0.7-0.9,1.2c-0.3,0.8-0.4,1.7-0.4,2.7v7.1H563.6z"/>
	<path d="M572.3,352.2v-2.6h2.3v2.6H572.3z M572.3,368.2v-13.5h2.3v13.5H572.3z"/>
	<path d="M578.1,373.4v-18.6h2.1v1.8c0.5-0.7,1-1.2,1.7-1.5c0.6-0.3,1.4-0.5,2.2-0.5c1.2,0,2.2,0.3,3,0.9s1.5,1.4,2,2.5
		c0.4,1.1,0.7,2.3,0.7,3.5c0,1.4-0.2,2.6-0.7,3.7c-0.5,1.1-1.2,2-2.2,2.5c-0.9,0.6-1.9,0.9-3,0.9c-0.8,0-1.4-0.2-2.1-0.5
		s-1.1-0.7-1.5-1.2v6.6H578.1z M580.1,361.5c0,1.7,0.4,3,1.1,3.8s1.6,1.2,2.6,1.2c1,0,1.9-0.4,2.6-1.3c0.7-0.9,1.1-2.2,1.1-4
		c0-1.7-0.4-3-1.1-3.9s-1.6-1.3-2.5-1.3c-1,0-1.8,0.5-2.6,1.4C580.5,358.5,580.1,359.8,580.1,361.5z"/>
	<path d="M597.5,366.2l0.3,2c-0.6,0.1-1.2,0.2-1.7,0.2c-0.8,0-1.5-0.1-1.9-0.4s-0.8-0.6-1-1c-0.2-0.4-0.3-1.3-0.3-2.7v-7.8h-1.7
		v-1.8h1.7v-3.3l2.3-1.4v4.7h2.3v1.8h-2.3v7.9c0,0.7,0,1.1,0.1,1.3s0.2,0.3,0.4,0.4s0.4,0.2,0.8,0.2
		C596.8,366.2,597.1,366.2,597.5,366.2z"/>
	<path d="M599.8,352.2v-2.6h2.3v2.6H599.8z M599.8,368.2v-13.5h2.3v13.5H599.8z"/>
	<path d="M604.7,361.5c0-2.5,0.7-4.3,2.1-5.5c1.2-1,2.6-1.5,4.2-1.5c1.9,0,3.4,0.6,4.5,1.8c1.2,1.2,1.8,2.9,1.8,5
		c0,1.7-0.3,3.1-0.8,4.1c-0.5,1-1.3,1.8-2.3,2.3c-1,0.5-2.1,0.8-3.3,0.8c-1.9,0-3.4-0.6-4.6-1.8
		C605.3,365.5,604.7,363.7,604.7,361.5z M607,361.5c0,1.7,0.4,3,1.1,3.9c0.8,0.9,1.7,1.3,2.8,1.3c1.1,0,2.1-0.4,2.8-1.3
		c0.8-0.9,1.1-2.2,1.1-3.9c0-1.7-0.4-2.9-1.1-3.8c-0.8-0.9-1.7-1.3-2.8-1.3c-1.1,0-2.1,0.4-2.8,1.3C607.4,358.4,607,359.7,607,361.5
		z"/>
	<path d="M620,368.2v-13.5h2.1v1.9c1-1.5,2.4-2.2,4.3-2.2c0.8,0,1.6,0.1,2.2,0.4c0.7,0.3,1.2,0.7,1.5,1.1c0.3,0.5,0.6,1,0.7,1.7
		c0.1,0.4,0.1,1.2,0.1,2.2v8.3h-2.3V360c0-0.9-0.1-1.6-0.3-2.1c-0.2-0.5-0.5-0.8-0.9-1.1c-0.5-0.3-1-0.4-1.6-0.4
		c-1,0-1.8,0.3-2.5,0.9c-0.7,0.6-1.1,1.8-1.1,3.5v7.4H620z"/>
	<path d="M646.7,366.2l0.3,2c-0.6,0.1-1.2,0.2-1.7,0.2c-0.8,0-1.5-0.1-1.9-0.4s-0.8-0.6-1-1c-0.2-0.4-0.3-1.3-0.3-2.7v-7.8h-1.7
		v-1.8h1.7v-3.3l2.3-1.4v4.7h2.3v1.8h-2.3v7.9c0,0.7,0,1.1,0.1,1.3c0.1,0.2,0.2,0.3,0.4,0.4c0.2,0.1,0.4,0.2,0.8,0.2
		C645.9,366.2,646.3,366.2,646.7,366.2z"/>
	<path d="M648.1,361.5c0-2.5,0.7-4.3,2.1-5.5c1.2-1,2.6-1.5,4.2-1.5c1.9,0,3.4,0.6,4.5,1.8c1.2,1.2,1.8,2.9,1.8,5
		c0,1.7-0.3,3.1-0.8,4.1c-0.5,1-1.3,1.8-2.3,2.3c-1,0.5-2.1,0.8-3.3,0.8c-1.9,0-3.4-0.6-4.6-1.8
		C648.6,365.5,648.1,363.7,648.1,361.5z M650.4,361.5c0,1.7,0.4,3,1.1,3.9c0.8,0.9,1.7,1.3,2.8,1.3c1.1,0,2.1-0.4,2.8-1.3
		c0.8-0.9,1.1-2.2,1.1-3.9c0-1.7-0.4-2.9-1.1-3.8c-0.8-0.9-1.7-1.3-2.8-1.3c-1.1,0-2.1,0.4-2.8,1.3
		C650.8,358.4,650.4,359.7,650.4,361.5z"/>
</g>
<g class="st6">
	<path d="M508.8,399.4v-1.7c-0.9,1.3-2.1,2-3.8,2c-1.1,0-2.1-0.3-3-0.9s-1.6-1.4-2.1-2.5c-0.5-1.1-0.7-2.3-0.7-3.7
		c0-1.3,0.2-2.6,0.7-3.7c0.4-1.1,1.1-1.9,2-2.5s1.9-0.9,3-0.9c0.8,0,1.5,0.2,2.2,0.5c0.6,0.3,1.2,0.8,1.5,1.3v-6.7h2.3v18.6H508.8z
		 M501.6,392.7c0,1.7,0.4,3,1.1,3.9s1.6,1.3,2.6,1.3c1,0,1.8-0.4,2.5-1.2c0.7-0.8,1-2.1,1-3.7c0-1.8-0.4-3.2-1.1-4.1
		s-1.6-1.3-2.6-1.3c-1,0-1.9,0.4-2.5,1.2S501.6,390.9,501.6,392.7z"/>
	<path d="M513.7,392.7c0-2.5,0.7-4.3,2.1-5.5c1.2-1,2.6-1.5,4.2-1.5c1.9,0,3.4,0.6,4.5,1.8c1.2,1.2,1.8,2.9,1.8,5
		c0,1.7-0.3,3.1-0.8,4.1c-0.5,1-1.3,1.8-2.3,2.3s-2.1,0.8-3.3,0.8c-1.9,0-3.4-0.6-4.6-1.8S513.7,394.9,513.7,392.7z M516,392.7
		c0,1.7,0.4,3,1.1,3.9c0.8,0.9,1.7,1.3,2.8,1.3c1.1,0,2.1-0.4,2.8-1.3s1.1-2.2,1.1-3.9c0-1.7-0.4-2.9-1.1-3.8
		c-0.8-0.9-1.7-1.3-2.8-1.3c-1.1,0-2.1,0.4-2.8,1.3S516,390.9,516,392.7z"/>
	<path d="M537.8,394.5l2.2,0.3c-0.2,1.5-0.9,2.8-1.9,3.6c-1,0.9-2.3,1.3-3.7,1.3c-1.8,0-3.3-0.6-4.4-1.8c-1.1-1.2-1.7-2.9-1.7-5.2
		c0-1.5,0.2-2.7,0.7-3.8s1.2-1.9,2.2-2.5c1-0.5,2.1-0.8,3.2-0.8c1.5,0,2.7,0.4,3.6,1.1c0.9,0.7,1.5,1.8,1.8,3.2l-2.2,0.3
		c-0.2-0.9-0.6-1.6-1.1-2s-1.2-0.7-1.9-0.7c-1.2,0-2.1,0.4-2.8,1.2c-0.7,0.8-1.1,2.1-1.1,3.9c0,1.8,0.3,3.1,1,3.9s1.6,1.2,2.7,1.2
		c0.9,0,1.6-0.3,2.2-0.8S537.6,395.6,537.8,394.5z"/>
	<path d="M550.8,399.4v-2c-1,1.5-2.5,2.3-4.3,2.3c-0.8,0-1.5-0.2-2.2-0.5s-1.2-0.7-1.5-1.1c-0.3-0.5-0.6-1-0.7-1.7
		c-0.1-0.4-0.1-1.2-0.1-2.1v-8.4h2.3v7.5c0,1.2,0,2,0.1,2.4c0.1,0.6,0.4,1.1,0.9,1.4c0.5,0.3,1,0.5,1.7,0.5s1.3-0.2,1.9-0.5
		c0.6-0.4,1-0.8,1.3-1.4c0.2-0.6,0.4-1.5,0.4-2.6v-7.2h2.3v13.5H550.8z"/>
	<path d="M556.5,399.4v-13.5h2v1.9c0.4-0.7,1-1.2,1.7-1.6c0.7-0.4,1.5-0.6,2.4-0.6c1,0,1.8,0.2,2.5,0.6s1.1,1,1.4,1.7
		c1.1-1.6,2.5-2.4,4.2-2.4c1.3,0,2.4,0.4,3.1,1.1c0.7,0.7,1.1,1.9,1.1,3.4v9.3h-2.3v-8.5c0-0.9-0.1-1.6-0.2-2
		c-0.1-0.4-0.4-0.7-0.8-1s-0.8-0.4-1.4-0.4c-0.9,0-1.7,0.3-2.4,0.9c-0.6,0.6-0.9,1.6-0.9,3v7.8h-2.3v-8.8c0-1-0.2-1.8-0.6-2.3
		s-1-0.8-1.8-0.8c-0.6,0-1.2,0.2-1.8,0.5s-0.9,0.8-1.2,1.5s-0.4,1.6-0.4,2.8v7H556.5z"/>
	<path d="M587.4,395.1l2.4,0.3c-0.4,1.4-1.1,2.5-2.1,3.2s-2.3,1.1-3.9,1.1c-2,0-3.5-0.6-4.7-1.8c-1.2-1.2-1.7-2.9-1.7-5.1
		c0-2.3,0.6-4,1.8-5.3s2.7-1.9,4.5-1.9c1.8,0,3.3,0.6,4.4,1.8s1.7,3,1.7,5.2c0,0.1,0,0.3,0,0.6h-10.1c0.1,1.5,0.5,2.6,1.3,3.4
		s1.7,1.2,2.8,1.2c0.8,0,1.6-0.2,2.1-0.7S587,396,587.4,395.1z M579.9,391.4h7.5c-0.1-1.1-0.4-2-0.9-2.6c-0.7-0.9-1.7-1.3-2.8-1.3
		c-1,0-1.9,0.4-2.6,1.1S579.9,390.2,579.9,391.4z"/>
	<path d="M592.6,399.4v-13.5h2.1v1.9c1-1.5,2.4-2.2,4.3-2.2c0.8,0,1.6,0.1,2.2,0.4c0.7,0.3,1.2,0.7,1.5,1.1c0.3,0.5,0.6,1,0.7,1.7
		c0.1,0.4,0.1,1.2,0.1,2.2v8.3h-2.3v-8.2c0-0.9-0.1-1.6-0.3-2.1c-0.2-0.5-0.5-0.8-0.9-1.1c-0.5-0.3-1-0.4-1.6-0.4
		c-1,0-1.8,0.3-2.5,0.9s-1.1,1.8-1.1,3.5v7.4H592.6z"/>
	<path d="M612,397.4l0.3,2c-0.6,0.1-1.2,0.2-1.7,0.2c-0.8,0-1.5-0.1-1.9-0.4s-0.8-0.6-1-1c-0.2-0.4-0.3-1.3-0.3-2.7v-7.8h-1.7v-1.8
		h1.7v-3.3l2.3-1.4v4.7h2.3v1.8h-2.3v7.9c0,0.7,0,1.1,0.1,1.3c0.1,0.2,0.2,0.3,0.4,0.4c0.2,0.1,0.4,0.2,0.8,0.2
		C611.3,397.4,611.6,397.4,612,397.4z"/>
	<path d="M623.1,397.7c-0.8,0.7-1.7,1.2-2.4,1.5c-0.8,0.3-1.6,0.4-2.5,0.4c-1.5,0-2.6-0.4-3.4-1.1c-0.8-0.7-1.2-1.6-1.2-2.8
		c0-0.7,0.2-1.3,0.5-1.8c0.3-0.5,0.7-1,1.2-1.3c0.5-0.3,1-0.6,1.6-0.7c0.4-0.1,1.1-0.2,2-0.3c1.8-0.2,3.2-0.5,4.1-0.8
		c0-0.3,0-0.5,0-0.6c0-0.9-0.2-1.6-0.6-2c-0.6-0.5-1.5-0.8-2.6-0.8c-1.1,0-1.9,0.2-2.4,0.6c-0.5,0.4-0.9,1-1.1,2l-2.2-0.3
		c0.2-1,0.5-1.7,1-2.3c0.5-0.6,1.1-1,2-1.4c0.9-0.3,1.9-0.5,3.1-0.5c1.2,0,2.1,0.1,2.8,0.4c0.7,0.3,1.2,0.6,1.6,1
		c0.3,0.4,0.6,0.9,0.7,1.6c0.1,0.4,0.1,1.1,0.1,2.1v3c0,2.1,0,3.5,0.1,4c0.1,0.6,0.3,1.1,0.6,1.6h-2.4
		C623.3,398.9,623.1,398.4,623.1,397.7z M622.9,392.6c-0.8,0.3-2.1,0.6-3.7,0.9c-0.9,0.1-1.6,0.3-2,0.5c-0.4,0.2-0.7,0.4-0.9,0.7
		c-0.2,0.3-0.3,0.7-0.3,1.1c0,0.6,0.2,1.1,0.7,1.5c0.5,0.4,1.1,0.6,2,0.6c0.9,0,1.7-0.2,2.3-0.6c0.7-0.4,1.2-0.9,1.5-1.6
		c0.2-0.5,0.4-1.3,0.4-2.3V392.6z"/>
	<path d="M633.7,397.4l0.3,2c-0.6,0.1-1.2,0.2-1.7,0.2c-0.8,0-1.5-0.1-1.9-0.4s-0.8-0.6-1-1c-0.2-0.4-0.3-1.3-0.3-2.7v-7.8h-1.7
		v-1.8h1.7v-3.3l2.3-1.4v4.7h2.3v1.8h-2.3v7.9c0,0.7,0,1.1,0.1,1.3c0.1,0.2,0.2,0.3,0.4,0.4c0.2,0.1,0.4,0.2,0.8,0.2
		C633,397.4,633.3,397.4,633.7,397.4z"/>
	<path d="M636,383.4v-2.6h2.3v2.6H636z M636,399.4v-13.5h2.3v13.5H636z"/>
	<path d="M640.9,392.7c0-2.5,0.7-4.3,2.1-5.5c1.2-1,2.6-1.5,4.2-1.5c1.9,0,3.4,0.6,4.5,1.8c1.2,1.2,1.8,2.9,1.8,5
		c0,1.7-0.3,3.1-0.8,4.1c-0.5,1-1.3,1.8-2.3,2.3c-1,0.5-2.1,0.8-3.3,0.8c-1.9,0-3.4-0.6-4.6-1.8
		C641.5,396.7,640.9,394.9,640.9,392.7z M643.2,392.7c0,1.7,0.4,3,1.1,3.9c0.8,0.9,1.7,1.3,2.8,1.3c1.1,0,2.1-0.4,2.8-1.3
		c0.8-0.9,1.1-2.2,1.1-3.9c0-1.7-0.4-2.9-1.1-3.8c-0.8-0.9-1.7-1.3-2.8-1.3c-1.1,0-2.1,0.4-2.8,1.3
		C643.6,389.6,643.2,390.9,643.2,392.7z"/>
	<path d="M656.2,399.4v-13.5h2.1v1.9c1-1.5,2.4-2.2,4.3-2.2c0.8,0,1.6,0.1,2.2,0.4c0.7,0.3,1.2,0.7,1.5,1.1c0.3,0.5,0.6,1,0.7,1.7
		c0.1,0.4,0.1,1.2,0.1,2.2v8.3h-2.3v-8.2c0-0.9-0.1-1.6-0.3-2.1c-0.2-0.5-0.5-0.8-0.9-1.1c-0.5-0.3-1-0.4-1.6-0.4
		c-1,0-1.8,0.3-2.5,0.9c-0.7,0.6-1.1,1.8-1.1,3.5v7.4H656.2z"/>
</g>
<rect x="536.6" y="60.7" class="st2" width="83.7" height="47.8"/>
<g class="st6">
	<path class="st0" d="M560.2,70.9l2.1,0.5c-0.4,1.7-1.2,3-2.4,3.9c-1.1,0.9-2.5,1.3-4.2,1.3c-1.7,0-3.1-0.3-4.1-1
		c-1.1-0.7-1.9-1.7-2.4-3c-0.6-1.3-0.8-2.7-0.8-4.2c0-1.6,0.3-3.1,0.9-4.3c0.6-1.2,1.5-2.1,2.7-2.8c1.2-0.6,2.4-1,3.8-1
		c1.6,0,2.9,0.4,4,1.2s1.8,1.9,2.2,3.4l-2.1,0.5c-0.4-1.1-0.9-2-1.6-2.5c-0.7-0.5-1.6-0.8-2.6-0.8c-1.2,0-2.2,0.3-3,0.9
		c-0.8,0.6-1.4,1.4-1.7,2.3c-0.3,1-0.5,2-0.5,3c0,1.3,0.2,2.5,0.6,3.5c0.4,1,1,1.7,1.8,2.2c0.8,0.5,1.7,0.7,2.7,0.7
		c1.2,0,2.2-0.3,3-1C559.3,73.2,559.9,72.2,560.2,70.9z"/>
	<path class="st0" d="M564.8,76.4V60.7h5.9c1,0,1.8,0,2.4,0.2c0.8,0.1,1.4,0.4,1.9,0.7c0.5,0.4,0.9,0.9,1.3,1.5
		c0.3,0.7,0.5,1.4,0.5,2.1c0,1.3-0.4,2.5-1.3,3.4c-0.9,0.9-2.4,1.4-4.6,1.4h-4v6.4H564.8z M566.9,68.2h4.1c1.3,0,2.3-0.3,2.9-0.8
		c0.6-0.5,0.8-1.2,0.8-2.1c0-0.7-0.2-1.2-0.5-1.7c-0.3-0.5-0.8-0.8-1.3-0.9c-0.4-0.1-1-0.1-1.9-0.1h-4V68.2z"/>
	<path class="st0" d="M578.8,68.7c0-2.6,0.7-4.7,2.1-6.1c1.4-1.5,3.2-2.2,5.4-2.2c1.5,0,2.8,0.3,3.9,1c1.2,0.7,2.1,1.7,2.7,2.9
		c0.6,1.2,0.9,2.7,0.9,4.2c0,1.6-0.3,3-1,4.3s-1.6,2.2-2.7,2.9c-1.2,0.6-2.5,1-3.8,1c-1.5,0-2.8-0.4-4-1.1c-1.2-0.7-2.1-1.7-2.7-2.9
		S578.8,70.1,578.8,68.7z M581,68.8c0,1.9,0.5,3.4,1.5,4.5c1,1.1,2.3,1.6,3.8,1.6c1.6,0,2.9-0.6,3.9-1.7c1-1.1,1.5-2.7,1.5-4.7
		c0-1.3-0.2-2.4-0.6-3.4c-0.4-1-1.1-1.7-1.9-2.2c-0.8-0.5-1.8-0.8-2.8-0.8c-1.5,0-2.7,0.5-3.8,1.5C581.5,64.7,581,66.4,581,68.8z"/>
	<path class="st0" d="M596.6,76.4V60.7H608v1.9h-9.3v4.8h8.7v1.8h-8.7v5.4h9.7v1.9H596.6z"/>
</g>
<rect x="316.7" y="169.4" class="st7" width="62.8" height="82.8"/>
<polygon class="st7" points="363.5,166 313.3,166 313.3,248.8 376.1,248.8 376.1,178.6 "/>
<polyline class="st8" points="363.2,166.3 363.2,178.9 375.8,178.9 "/>
<line class="st8" x1="320.4" y1="193.1" x2="367.1" y2="193.1"/>
<line class="st8" x1="320.4" y1="174.9" x2="363.2" y2="174.9"/>
<line class="st8" x1="320.4" y1="229.8" x2="342.3" y2="229.8"/>
<line class="st8" x1="320.4" y1="236.4" x2="342.3" y2="236.4"/>
<line class="st8" x1="347.9" y1="203.1" x2="369.8" y2="203.1"/>
<line class="st8" x1="347.9" y1="209.8" x2="369.8" y2="209.8"/>
<line class="st8" x1="347.9" y1="216.4" x2="369.8" y2="216.4"/>
<line class="st8" x1="347.9" y1="223.1" x2="369.8" y2="223.1"/>
<line class="st8" x1="347.9" y1="229.8" x2="369.8" y2="229.8"/>
<line class="st8" x1="347.9" y1="236.4" x2="369.8" y2="236.4"/>
<rect x="320.4" y="203.1" class="st7" width="21.9" height="20"/>
<path class="st9" d="M344.8,467.9h45.5c0-19.2-5.1-25.2-5.1-25.2h-40.4h-40.4c0,0-5.1,6-5.1,25.2H344.8z"/>
<path class="st10" d="M360.1,451.7c0,0-7.4-0.2-16.5-1.5c-0.5,3.2-1.6,10.2-2.8,14.2c6.8,0.5,14,0.9,19.1,0.8
	c5-0.1,10.3-0.5,14.5-0.8c1-3.6,2.2-9.9,2.7-12.9C372,451.6,364.8,451.8,360.1,451.7z"/>
<path class="st10" d="M339.9,449.6c-10.8-1.9-17.1-2.8-33.9-1.6c0,0-1.6,6.1-1.8,13.5c0,0,13.9,0.5,18.2,1.1c2.3,0.3,9.1,1,16.8,1.6
	c1.2-4.1,2.4-11.3,2.8-14.3C341.4,449.8,340.6,449.7,339.9,449.6z"/>
<path class="st10" d="M383.4,450.9c0,0-1.9,0.1-4.8,0.3c-0.5,3-1.6,9.3-2.6,12.9c4.6-0.4,7.7-0.8,7.7-0.8S384.4,457.8,383.4,450.9z"
	/>
<path class="st3" d="M348.5,458.5c0,1.1-0.9,2-2,2s-2-0.9-2-2s0.9-2,2-2S348.5,457.4,348.5,458.5z"/>
<path class="st3" d="M382.7,457.8c0,1.1-0.9,2-2,2s-2-0.9-2-2s0.9-2,2-2C381.8,455.7,382.7,456.6,382.7,457.8z"/>
<path class="st3" d="M357,458.5c0,1.1-0.9,2-2,2s-2-0.9-2-2s0.9-2,2-2S357,457.4,357,458.5z"/>
<path class="st3" d="M362.6,455.4c0,1.1-0.9,2-2,2s-2-0.9-2-2s0.9-2,2-2S362.6,454.3,362.6,455.4z"/>
<path class="st3" d="M367.8,455.4c0,1.1-0.9,2-2,2s-2-0.9-2-2s0.9-2,2-2S367.8,454.3,367.8,455.4z"/>
<path class="st3" d="M372.9,455.4c0,1.1-0.9,2-2,2s-2-0.9-2-2s0.9-2,2-2S372.9,454.3,372.9,455.4z"/>
<path class="st3" d="M362.6,460.8c0,1.1-0.9,2-2,2s-2-0.9-2-2s0.9-2,2-2S362.6,459.7,362.6,460.8z"/>
<path class="st3" d="M367.8,460.8c0,1.1-0.9,2-2,2s-2-0.9-2-2s0.9-2,2-2S367.8,459.7,367.8,460.8z"/>
<path class="st3" d="M372.9,460.8c0,1.1-0.9,2-2,2s-2-0.9-2-2s0.9-2,2-2S372.9,459.7,372.9,460.8z"/>
<path class="st3" d="M350.8,459.2c1.1,0,2,0.9,2,2s-0.9,2-2,2s-2-0.9-2-2S349.7,459.2,350.8,459.2z"/>
<path class="st3" d="M350.8,453.5c1.1,0,2,0.9,2,2s-0.9,2-2,2s-2-0.9-2-2S349.7,453.5,350.8,453.5z"/>
<rect x="308.1" y="451.5" class="st3" width="29.3" height="7.7"/>
<g>
	<path class="st11" d="M297.8,450.3c3.4-13.3,16.9-21.3,30.2-18c13.3,3.4,21.3,16.9,18,30.2c-3.4,13.3-16.9,21.3-30.1,18
		C302.5,477.1,294.4,463.6,297.8,450.3z M316.9,476c10.8,2.7,21.8-3.8,24.6-14.6c2.7-10.8-3.8-21.8-14.6-24.6
		c-10.8-2.7-21.8,3.8-24.6,14.6C299.5,462.2,306,473.2,316.9,476z"/>
	<polygon class="st11" points="336.6,476.3 347,488.8 350.2,486.2 339.8,473.6 	"/>
	
		<rect x="351" y="478.8" transform="matrix(0.7685 -0.6398 0.6398 0.7685 -234.6172 341.6485)" class="st12" width="7.8" height="32.6"/>
</g>
<g>
	<polygon class="st13" points="584.6,620.2 584.6,615.4 565.6,615.4 565.6,620.2 558.6,620.2 558.6,622.4 591.6,622.4 591.6,620.2 	
		"/>
	<path class="st13" d="M612,612.9c0,1.3-1.2,2.4-2.6,2.4h-68.7c-1.4,0-2.6-1.1-2.6-2.4v-46.8c0-1.3,1.1-2.4,2.6-2.4h68.7
		c1.4,0,2.6,1.1,2.6,2.4V612.9z"/>
	<rect x="541.6" y="566.8" class="st13" width="67" height="45.3"/>
</g>
<g>
	<path class="st14" d="M555.1,578.7h0.8 M553.5,578.7h0.8 M551.9,578.7h0.8 M550.8,602.6v-0.2v-22h34v22.2H550.8z M584.8,580.5h-34
		V577h34V580.5z"/>
	<path class="st15" d="M578.8,590.2l1.5,1.5 M579.1,589.4c0,0.7-0.6,1.2-1.2,1.2c-0.7,0-1.2-0.6-1.2-1.2c0-0.7,0.6-1.2,1.2-1.2
		C578.6,588.2,579.1,588.7,579.1,589.4z M575.5,587v5.8 M582.1,592.9h-28.5v-6.1h28.5V592.9z"/>
</g>
<polygon class="st16" points="621.3,580.4 615.4,577 615.4,579.8 595.5,579.8 595.5,587.8 615.4,587.8 615.4,590.7 621.3,587.2 
	627.2,583.8 "/>
<polygon class="st15" points="597.4,603.2 603.3,606.7 603.3,603.8 623.2,603.8 623.2,595.8 603.3,595.8 603.3,593 597.4,596.4 
	591.5,599.8 "/>
<g>
	<path class="st17" d="M794.8,167.7c2.3,0,2.4,1.4,2.4,1.4h1.6c0,0,1.4-0.2,1.4,1.8s0,4.5,0,4.5h1.9v1.6h-16.6v-1.6h1.9
		c0,0,0-2.6,0-4.5c0-2,1.4-1.8,1.4-1.8h1.6c0,0,0.1-1.4,2.4-1.4H794.8z"/>
	<path class="st17" d="M788.9,177.2v1.3c0,0,0,0.5-0.6,0.9s-9.9,3.6-9.9,3.6s-2.4,1-2.4,4.5s0,11.4,0,11.4V248c0,0,0,2.6,2.7,2.6
		c2.9,0,30.3,0,30.3,0s2.6,0,2.6-2.6s0-49.1,0-49.1s0-7.9,0-11.4s-2.4-4.5-2.4-4.5s-9.2-3.2-9.9-3.6c-0.6-0.4-0.6-0.9-0.6-0.9v-1.3"
		/>
</g>
<g>
	<path class="st17" d="M786.1,188.2c1.7,0,1.8,1.1,1.8,1.1h1.2c0,0,1.1-0.2,1.1,1.3s0,3.4,0,3.4h1.4v1.2h-12.5V194h1.4
		c0,0,0-1.9,0-3.4s1.1-1.3,1.1-1.3h1.2c0,0,0.1-1.1,1.8-1.1H786.1z"/>
	<path class="st17" d="M781.7,195.4v1c0,0,0,0.4-0.5,0.7s-7.4,2.7-7.4,2.7s-1.8,0.7-1.8,3.4c0,2.6,0,8.6,0,8.6v37c0,0,0,2,2.1,2
		c2.2,0,22.8,0,22.8,0s2,0,2-2s0-37,0-37s0-6,0-8.6s-1.8-3.4-1.8-3.4s-7-2.4-7.4-2.7c-0.5-0.3-0.5-0.7-0.5-0.7v-1"/>
</g>
<rect x="826.5" y="202.3" class="st18" width="30.3" height="23"/>
<polygon class="st18" points="815.5,210.4 815.5,207.4 809.8,211.2 804,214.9 809.8,218.7 815.5,222.4 815.5,219.4 824.5,219.4 
	824.5,210.4 "/>
<rect x="829.6" y="204.8" class="st12" width="3" height="18"/>
<rect x="833.4" y="204.8" class="st12" width="1.4" height="18"/>
<rect x="835.1" y="204.8" class="st12" width="0.8" height="18"/>
<rect x="836.8" y="204.8" class="st12" width="1.9" height="18"/>
<rect x="839.4" y="204.8" class="st12" width="1.7" height="18"/>
<rect x="841.6" y="204.8" class="st12" width="1" height="18"/>
<rect x="843.5" y="204.8" class="st12" width="2.7" height="18"/>
<rect x="847.4" y="204.8" class="st12" width="0.7" height="18"/>
<rect x="849.4" y="204.8" class="st12" width="0.5" height="18"/>
<rect x="850.1" y="204.8" class="st12" width="0.5" height="18"/>
<rect x="851" y="204.8" class="st12" width="1.2" height="18"/>
<rect x="853.6" y="204.8" class="st12" width="1.2" height="18"/>
<g>
	<path class="st17" d="M773.1,417.2c1.1,0,1.1,0.7,1.1,0.7h0.7c0,0,0.7-0.1,0.7,0.8s0,2.1,0,2.1h0.9v0.8h-7.8v-0.8h0.9
		c0,0,0-1.2,0-2.1s0.7-0.8,0.7-0.8h0.7c0,0,0.1-0.7,1.1-0.7H773.1z"/>
	<path class="st17" d="M770.4,421.7v0.6c0,0,0,0.2-0.3,0.4c-0.3,0.2-4.7,1.7-4.7,1.7s-1.1,0.5-1.1,2.1s0,5.4,0,5.4v23.2
		c0,0,0,1.2,1.3,1.2c1.4,0,14.3,0,14.3,0s1.2,0,1.2-1.2s0-23.2,0-23.2s0-3.7,0-5.4c0-1.6-1.1-2.1-1.1-2.1s-4.4-1.5-4.7-1.7
		s-0.3-0.4-0.3-0.4v-0.6"/>
</g>
<path class="st18" d="M799.7,517.9v-31.3c0-5.8,4.8-10.6,10.6-10.6l0,0c5.8,0,10.6,4.8,10.6,10.6v31.3"/>
<path class="st12" d="M810.3,515.4L810.3,515.4c-2.6,0-4.7-2.1-4.7-4.7v-11c0-2.6,2.1-4.7,4.7-4.7l0,0c2.6,0,4.7,2.1,4.7,4.7v11
	C815.1,513.3,812.9,515.4,810.3,515.4z"/>
<path class="st9" d="M807,450.5h20c0-8.4-2.3-11.1-2.3-11.1H807h-17.7c0,0-2.3,2.6-2.3,11.1H807z"/>
<path class="st10" d="M813.7,443.4c0,0-3.2-0.1-7.3-0.7c-0.2,1.4-0.7,4.5-1.2,6.2c3,0.2,6.1,0.4,8.4,0.3c2.2,0,4.5-0.2,6.4-0.4
	c0.5-1.6,0.9-4.3,1.2-5.7C818.9,443.4,815.8,443.5,813.7,443.4z"/>
<path class="st10" d="M804.8,442.5c-4.7-0.8-7.5-1.2-14.9-0.7c0,0-0.7,2.7-0.8,5.9c0,0,6.1,0.2,8,0.5c1,0.1,4,0.5,7.4,0.7
	c0.5-1.8,1-4.9,1.2-6.3C805.5,442.6,805.2,442.5,804.8,442.5z"/>
<path class="st10" d="M823.9,443.1c0,0-0.9,0.1-2.1,0.1c-0.2,1.3-0.7,4.1-1.2,5.7c2-0.2,3.4-0.3,3.4-0.3S824.4,446.1,823.9,443.1z"
	/>
<path class="st3" d="M823.6,446.1c0,0.5-0.4,0.9-0.9,0.9s-0.9-0.4-0.9-0.9s0.4-0.9,0.9-0.9C823.2,445.2,823.6,445.6,823.6,446.1z"/>
<path class="st3" d="M812.4,446.4c0,0.5-0.4,0.9-0.9,0.9s-0.9-0.4-0.9-0.9s0.4-0.9,0.9-0.9S812.4,445.9,812.4,446.4z"/>
<path class="st3" d="M814.8,445.1c0,0.5-0.4,0.9-0.9,0.9s-0.9-0.4-0.9-0.9s0.4-0.9,0.9-0.9C814.4,444.2,814.8,444.6,814.8,445.1z"/>
<path class="st3" d="M817.1,445.1c0,0.5-0.4,0.9-0.9,0.9s-0.9-0.4-0.9-0.9s0.4-0.9,0.9-0.9C816.7,444.2,817.1,444.6,817.1,445.1z"/>
<path class="st3" d="M819.3,445.1c0,0.5-0.4,0.9-0.9,0.9s-0.9-0.4-0.9-0.9s0.4-0.9,0.9-0.9C818.9,444.2,819.3,444.6,819.3,445.1z"/>
<path class="st3" d="M814.8,447.4c0,0.5-0.4,0.9-0.9,0.9s-0.9-0.4-0.9-0.9s0.4-0.9,0.9-0.9C814.4,446.5,814.8,446.9,814.8,447.4z"/>
<path class="st3" d="M817.1,447.4c0,0.5-0.4,0.9-0.9,0.9s-0.9-0.4-0.9-0.9s0.4-0.9,0.9-0.9C816.7,446.5,817.1,446.9,817.1,447.4z"/>
<path class="st3" d="M819.3,447.4c0,0.5-0.4,0.9-0.9,0.9s-0.9-0.4-0.9-0.9s0.4-0.9,0.9-0.9C818.9,446.5,819.3,446.9,819.3,447.4z"/>
<path class="st3" d="M809.6,446.7c0.5,0,0.9,0.4,0.9,0.9s-0.4,0.9-0.9,0.9s-0.9-0.4-0.9-0.9C808.7,447.1,809.1,446.7,809.6,446.7z"
	/>
<path class="st3" d="M809.6,444.2c0.5,0,0.9,0.4,0.9,0.9s-0.4,0.9-0.9,0.9s-0.9-0.4-0.9-0.9C808.7,444.6,809.1,444.2,809.6,444.2z"
	/>
<rect x="790.9" y="443.3" class="st3" width="12.8" height="3.4"/>
<g>
	
		<rect x="807" y="431.4" transform="matrix(1 -8.075668e-03 8.075668e-03 1 -3.5038 6.5929)" class="st19" width="15.2" height="11.5"/>
	
		<rect x="808.5" y="432.7" transform="matrix(1 -8.075668e-03 8.075668e-03 1 -3.5044 6.5497)" class="st12" width="1.5" height="9"/>
	
		<rect x="810.4" y="432.7" transform="matrix(1 -8.075668e-03 8.075668e-03 1 -3.5044 6.5618)" class="st12" width="0.7" height="9"/>
	
		<rect x="811.2" y="432.7" transform="matrix(1 -8.075668e-03 8.075668e-03 1 -3.5043 6.5671)" class="st12" width="0.4" height="9"/>
	<rect x="812.1" y="432.6" transform="matrix(1 -8.075668e-03 8.075668e-03 1 -3.5035 6.5768)" class="st12" width="1" height="9"/>
	
		<rect x="813.4" y="432.6" transform="matrix(1 -8.075668e-03 8.075668e-03 1 -3.5035 6.5868)" class="st12" width="0.9" height="9"/>
	
		<rect x="814.5" y="432.6" transform="matrix(1 -8.075668e-03 8.075668e-03 1 -3.5034 6.5941)" class="st12" width="0.5" height="9"/>
	
		<rect x="815.5" y="432.6" transform="matrix(1 -8.075668e-03 8.075668e-03 1 -3.5034 6.6054)" class="st12" width="1.3" height="9"/>
	
		<rect x="817.4" y="432.6" transform="matrix(1 -8.075668e-03 8.075668e-03 1 -3.5033 6.6171)" class="st12" width="0.4" height="9"/>
	
		<rect x="818.4" y="432.6" transform="matrix(1 -8.075668e-03 8.075668e-03 1 -3.5033 6.6244)" class="st12" width="0.2" height="9"/>
	
		<rect x="818.8" y="432.6" transform="matrix(1 -8.075668e-03 8.075668e-03 1 -3.5033 6.6276)" class="st12" width="0.2" height="9"/>
	
		<rect x="819.2" y="432.6" transform="matrix(1 -8.075668e-03 8.075668e-03 1 -3.5033 6.6325)" class="st12" width="0.6" height="9"/>
</g>
<g>
	
		<rect x="769.4" y="432.6" transform="matrix(1 -8.075668e-03 8.075668e-03 1 -3.5147 6.2893)" class="st19" width="15.2" height="11.5"/>
	
		<rect x="770.9" y="433.9" transform="matrix(1 -8.075668e-03 8.075668e-03 1 -3.5153 6.2461)" class="st12" width="1.5" height="9"/>
	
		<rect x="772.8" y="433.9" transform="matrix(1 -8.075668e-03 8.075668e-03 1 -3.5153 6.2582)" class="st12" width="0.7" height="9"/>
	
		<rect x="773.6" y="433.9" transform="matrix(1 -8.075668e-03 8.075668e-03 1 -3.5153 6.2635)" class="st12" width="0.4" height="9"/>
	<rect x="774.5" y="433.9" transform="matrix(1 -8.075668e-03 8.075668e-03 1 -3.5152 6.2731)" class="st12" width="1" height="9"/>
	
		<rect x="775.8" y="433.9" transform="matrix(1 -8.075668e-03 8.075668e-03 1 -3.5152 6.2832)" class="st12" width="0.9" height="9"/>
	
		<rect x="776.9" y="433.9" transform="matrix(1 -8.075668e-03 8.075668e-03 1 -3.5151 6.2905)" class="st12" width="0.5" height="9"/>
	
		<rect x="777.9" y="433.8" transform="matrix(1 -8.075668e-03 8.075668e-03 1 -3.5143 6.3018)" class="st12" width="1.3" height="9"/>
	
		<rect x="779.8" y="433.8" transform="matrix(1 -8.075668e-03 8.075668e-03 1 -3.5142 6.3135)" class="st12" width="0.4" height="9"/>
	
		<rect x="780.8" y="433.8" transform="matrix(1 -8.075668e-03 8.075668e-03 1 -3.5142 6.3208)" class="st12" width="0.2" height="9"/>
	
		<rect x="781.2" y="433.8" transform="matrix(1 -8.075668e-03 8.075668e-03 1 -3.5142 6.324)" class="st12" width="0.2" height="9"/>
	
		<rect x="781.6" y="433.8" transform="matrix(1 -8.075668e-03 8.075668e-03 1 -3.5142 6.3289)" class="st12" width="0.6" height="9"/>
</g>
<g>
	<path class="st20" d="M850.7,430c0,2-1.6,3.6-3.6,3.6s-3.6-1.6-3.6-3.6s1.6-3.6,3.6-3.6C849.1,426.4,850.7,428,850.7,430z"/>
	<g>
		<path class="st20" d="M857.6,444.9c-0.5-2-2.8-5.5-6.2-5.5h-7.9c-3.2,0-5.8,3.4-6.2,5.5l-1.9,9.5h23.9L857.6,444.9z"/>
		<line class="st21" x1="841.2" y1="447.7" x2="840.1" y2="454.4"/>
		<line class="st21" x1="854.1" y1="447.7" x2="855.2" y2="454.4"/>
		<path class="st20" d="M847.3,440.6c3.1,0,5.7-2.5,5.7-5.7c0-3.1-2.5-5.7-5.7-5.7c-3.1,0-5.7,2.5-5.7,5.7
			C841.7,438,844.2,440.6,847.3,440.6z"/>
	</g>
	<path class="st21" d="M846.5,429.5c0,0,1.1,6.3,6.4,6.3"/>
	<path class="st21" d="M847.7,432.6c0,0-2.5,3.4-5.9,3.4"/>
</g>
<g>
	
		<rect x="842.4" y="446.1" transform="matrix(1 -8.075668e-03 8.075668e-03 1 -3.6214 6.8793)" class="st19" width="15.2" height="11.5"/>
	<rect x="844" y="447.4" transform="matrix(1 -8.075668e-03 8.075668e-03 1 -3.622 6.8369)" class="st12" width="1.5" height="9"/>
	
		<rect x="845.8" y="447.4" transform="matrix(1 -8.075668e-03 8.075668e-03 1 -3.6219 6.8482)" class="st12" width="0.7" height="9"/>
	
		<rect x="846.7" y="447.4" transform="matrix(1 -8.075668e-03 8.075668e-03 1 -3.6219 6.8542)" class="st12" width="0.4" height="9"/>
	<rect x="847.6" y="447.4" transform="matrix(1 -8.075668e-03 8.075668e-03 1 -3.6219 6.8639)" class="st12" width="1" height="9"/>
	
		<rect x="848.8" y="447.3" transform="matrix(1 -8.075668e-03 8.075668e-03 1 -3.621 6.8732)" class="st12" width="0.9" height="9"/>
	
		<rect x="849.9" y="447.3" transform="matrix(1 -8.075668e-03 8.075668e-03 1 -3.621 6.8805)" class="st12" width="0.5" height="9"/>
	
		<rect x="850.9" y="447.3" transform="matrix(1 -8.075668e-03 8.075668e-03 1 -3.6209 6.8918)" class="st12" width="1.3" height="9"/>
	
		<rect x="852.9" y="447.3" transform="matrix(1 -8.075668e-03 8.075668e-03 1 -3.6209 6.9043)" class="st12" width="0.4" height="9"/>
	
		<rect x="853.8" y="447.3" transform="matrix(1 -8.075668e-03 8.075668e-03 1 -3.6209 6.9108)" class="st12" width="0.2" height="9"/>
	
		<rect x="854.2" y="447.3" transform="matrix(1 -8.075668e-03 8.075668e-03 1 -3.6208 6.914)" class="st12" width="0.2" height="9"/>
	
		<rect x="854.7" y="447.3" transform="matrix(1 -8.075668e-03 8.075668e-03 1 -3.6208 6.9197)" class="st12" width="0.6" height="9"/>
</g>
<g>
	<polygon class="st13" points="588.2,100.6 588.2,95.7 569.3,95.7 569.3,100.6 562.3,100.6 562.3,102.7 595.2,102.7 595.2,100.6 	
		"/>
	<path class="st13" d="M615.7,93.2c0,1.3-1.2,2.4-2.6,2.4h-68.7c-1.4,0-2.6-1.1-2.6-2.4V46.4c0-1.3,1.1-2.4,2.6-2.4h68.7
		c1.4,0,2.6,1.1,2.6,2.4V93.2z"/>
	<rect x="545.3" y="47.2" class="st13" width="67" height="45.3"/>
</g>
<path class="st22" d="M785.7,437.9h-17.3c-0.5,0-0.8-0.4-0.8-0.8l0,0c0-0.5,0.4-0.8,0.8-0.8h17.3c0.5,0,0.8,0.4,0.8,0.8l0,0
	C786.5,437.6,786.2,437.9,785.7,437.9z"/>
<polygon class="st23" points="817.4,481.1 802.9,480.8 767.6,436.4 786.3,436.4 "/>
<polygon class="st23" points="817.4,481.1 803.1,481 805.1,434.6 823.3,434.7 "/>
<polygon class="st23" points="817.2,480.9 802.9,480.8 840.6,449 858.8,449 "/>
<path class="st22" d="M822.7,435.5h-17.3c-0.5,0-0.8-0.4-0.8-0.8l0,0c0-0.5,0.4-0.8,0.8-0.8h17.3c0.5,0,0.8,0.4,0.8,0.8l0,0
	C823.6,435.1,823.2,435.5,822.7,435.5z"/>
<path class="st22" d="M858.6,449.9h-17.3c-0.5,0-0.8-0.4-0.8-0.8l0,0c0-0.5,0.4-0.8,0.8-0.8h17.3c0.5,0,0.8,0.4,0.8,0.8l0,0
	C859.4,449.5,859,449.9,858.6,449.9z"/>
<path class="st24" d="M803.8,481.2c1.7-1.7,4-2.7,6.5-2.7s4.8,1,6.5,2.7"/>
<rect x="525.4" y="6.2" class="st2" width="136.7" height="29.9"/>
<g class="st6">
	<path d="M526.8,19V6.2h4.9c0.9,0,1.5,0,2,0.1c0.6,0.1,1.2,0.3,1.6,0.6c0.4,0.3,0.8,0.7,1,1.2s0.4,1.1,0.4,1.8c0,1.1-0.3,2-1,2.8
		c-0.7,0.8-2,1.1-3.8,1.1h-3.3V19H526.8z M528.5,12.3h3.3c1.1,0,1.9-0.2,2.3-0.6s0.7-1,0.7-1.7c0-0.5-0.1-1-0.4-1.4
		c-0.3-0.4-0.6-0.6-1.1-0.8c-0.3-0.1-0.8-0.1-1.6-0.1h-3.3V12.3z"/>
	<path d="M538.5,19V9.7h1.4v1.4c0.4-0.7,0.7-1.1,1-1.3s0.6-0.3,1-0.3c0.5,0,1.1,0.2,1.6,0.5l-0.5,1.5c-0.4-0.2-0.8-0.3-1.2-0.3
		c-0.3,0-0.7,0.1-0.9,0.3s-0.5,0.5-0.6,0.9c-0.2,0.6-0.3,1.2-0.3,1.8V19H538.5z"/>
	<path d="M550.9,16l1.6,0.2c-0.3,1-0.7,1.7-1.4,2.2s-1.6,0.8-2.7,0.8c-1.4,0-2.4-0.4-3.2-1.3c-0.8-0.8-1.2-2-1.2-3.5
		c0-1.6,0.4-2.8,1.2-3.7s1.9-1.3,3.1-1.3c1.2,0,2.3,0.4,3.1,1.3s1.2,2,1.2,3.6c0,0.1,0,0.2,0,0.4h-7c0.1,1,0.3,1.8,0.9,2.4
		s1.2,0.8,2,0.8c0.6,0,1.1-0.2,1.5-0.5S550.7,16.7,550.9,16z M545.7,13.5h5.2c-0.1-0.8-0.3-1.4-0.6-1.8c-0.5-0.6-1.2-0.9-2-0.9
		c-0.7,0-1.3,0.2-1.8,0.7S545.8,12.7,545.7,13.5z"/>
	<path d="M553.9,16.3l1.6-0.2c0.1,0.6,0.3,1.1,0.7,1.4s1,0.5,1.7,0.5c0.7,0,1.3-0.1,1.6-0.4s0.5-0.6,0.5-1c0-0.4-0.2-0.6-0.5-0.8
		c-0.2-0.1-0.8-0.3-1.6-0.5c-1.2-0.3-2-0.5-2.4-0.8s-0.8-0.5-1-0.9c-0.2-0.4-0.3-0.8-0.3-1.3c0-0.4,0.1-0.8,0.3-1.2
		c0.2-0.4,0.4-0.6,0.8-0.9c0.2-0.2,0.6-0.3,1-0.5s0.9-0.2,1.4-0.2c0.7,0,1.4,0.1,1.9,0.3s1,0.5,1.2,0.9c0.3,0.4,0.4,0.8,0.5,1.4
		l-1.5,0.2c-0.1-0.5-0.3-0.9-0.6-1.1s-0.8-0.4-1.4-0.4c-0.7,0-1.2,0.1-1.6,0.4s-0.5,0.5-0.5,0.8c0,0.2,0.1,0.4,0.2,0.6
		c0.1,0.2,0.3,0.3,0.6,0.4c0.2,0.1,0.6,0.2,1.4,0.4c1.1,0.3,1.9,0.5,2.3,0.7s0.8,0.5,1,0.8s0.4,0.8,0.4,1.4c0,0.5-0.2,1-0.5,1.5
		c-0.3,0.5-0.8,0.8-1.3,1.1c-0.6,0.3-1.2,0.4-2,0.4c-1.2,0-2.1-0.3-2.8-0.8S554.1,17.2,553.9,16.3z"/>
	<path d="M569.7,15.6l1.6,0.2c-0.2,1.1-0.6,1.9-1.3,2.5c-0.7,0.6-1.6,0.9-2.6,0.9c-1.3,0-2.3-0.4-3.1-1.3c-0.8-0.8-1.2-2-1.2-3.6
		c0-1,0.2-1.9,0.5-2.6s0.8-1.3,1.5-1.7c0.7-0.4,1.4-0.6,2.2-0.6c1,0,1.8,0.3,2.5,0.8s1.1,1.2,1.2,2.2l-1.5,0.2
		c-0.1-0.6-0.4-1.1-0.8-1.4s-0.8-0.5-1.3-0.5c-0.8,0-1.4,0.3-1.9,0.9c-0.5,0.6-0.7,1.5-0.7,2.7c0,1.3,0.2,2.2,0.7,2.7
		s1.1,0.9,1.9,0.9c0.6,0,1.1-0.2,1.6-0.6S569.5,16.4,569.7,15.6z"/>
	<path d="M572.5,19V9.7h1.4v1.4c0.4-0.7,0.7-1.1,1-1.3s0.6-0.3,1-0.3c0.5,0,1.1,0.2,1.6,0.5l-0.5,1.5c-0.4-0.2-0.8-0.3-1.2-0.3
		c-0.3,0-0.7,0.1-0.9,0.3s-0.5,0.5-0.6,0.9c-0.2,0.6-0.3,1.2-0.3,1.8V19H572.5z"/>
	<path d="M578.6,8V6.2h1.6V8H578.6z M578.6,19V9.7h1.6V19H578.6z"/>
	<path d="M582.6,22.6V9.7h1.4v1.2c0.3-0.5,0.7-0.8,1.2-1.1c0.4-0.2,0.9-0.4,1.6-0.4c0.8,0,1.5,0.2,2.1,0.6s1.1,1,1.4,1.7
		c0.3,0.7,0.5,1.6,0.5,2.5c0,1-0.2,1.8-0.5,2.6c-0.3,0.8-0.8,1.4-1.5,1.8c-0.7,0.4-1.3,0.6-2.1,0.6c-0.5,0-1-0.1-1.4-0.3
		s-0.8-0.5-1-0.8v4.5H582.6z M584,14.4c0,1.2,0.2,2.1,0.7,2.7s1.1,0.9,1.8,0.9c0.7,0,1.3-0.3,1.8-0.9c0.5-0.6,0.8-1.5,0.8-2.8
		c0-1.2-0.2-2.1-0.7-2.7s-1.1-0.9-1.8-0.9c-0.7,0-1.3,0.3-1.8,0.9C584.2,12.3,584,13.2,584,14.4z"/>
	<path d="M596,17.6l0.2,1.4c-0.4,0.1-0.8,0.1-1.2,0.1c-0.6,0-1-0.1-1.3-0.3s-0.5-0.4-0.7-0.7s-0.2-0.9-0.2-1.9v-5.4h-1.2V9.7h1.2
		V7.4l1.6-0.9v3.3h1.6v1.2h-1.6v5.5c0,0.5,0,0.7,0.1,0.9s0.1,0.2,0.3,0.3s0.3,0.1,0.5,0.1C595.5,17.7,595.7,17.7,596,17.6z"/>
	<path d="M597.6,8V6.2h1.6V8H597.6z M597.6,19V9.7h1.6V19H597.6z"/>
	<path d="M601,14.4c0-1.7,0.5-3,1.4-3.8c0.8-0.7,1.8-1,2.9-1c1.3,0,2.3,0.4,3.1,1.3s1.2,2,1.2,3.5c0,1.2-0.2,2.1-0.5,2.8
		c-0.4,0.7-0.9,1.2-1.6,1.6s-1.4,0.6-2.3,0.6c-1.3,0-2.4-0.4-3.2-1.3S601,16,601,14.4z M602.6,14.4c0,1.2,0.3,2.1,0.8,2.7
		c0.5,0.6,1.2,0.9,2,0.9c0.8,0,1.4-0.3,2-0.9s0.8-1.5,0.8-2.7c0-1.2-0.3-2-0.8-2.6c-0.5-0.6-1.2-0.9-2-0.9c-0.8,0-1.4,0.3-2,0.9
		S602.6,13.2,602.6,14.4z"/>
	<path d="M611.6,19V9.7h1.4V11c0.7-1,1.7-1.5,3-1.5c0.6,0,1.1,0.1,1.6,0.3c0.5,0.2,0.8,0.5,1.1,0.8s0.4,0.7,0.5,1.2
		c0.1,0.3,0.1,0.8,0.1,1.5V19h-1.6v-5.7c0-0.6-0.1-1.1-0.2-1.4s-0.3-0.6-0.7-0.8c-0.3-0.2-0.7-0.3-1.1-0.3c-0.7,0-1.3,0.2-1.7,0.6
		s-0.7,1.2-0.7,2.4V19H611.6z"/>
</g>
<rect x="873.5" y="155.5" class="st2" width="178.9" height="60.3"/>
<g class="st6">
	<path d="M873.5,168.4l4.9-12.9h1.8l5.3,12.9h-1.9l-1.5-3.9h-5.4l-1.4,3.9H873.5z M877.2,163.1h4.4l-1.3-3.6c-0.4-1.1-0.7-2-0.9-2.7
		c-0.2,0.8-0.4,1.6-0.7,2.5L877.2,163.1z"/>
	<path d="M892.7,168.4v-1.2c-0.6,0.9-1.5,1.4-2.6,1.4c-0.7,0-1.4-0.2-2.1-0.6s-1.1-1-1.5-1.7c-0.3-0.7-0.5-1.6-0.5-2.5
		c0-0.9,0.2-1.8,0.5-2.5s0.8-1.3,1.4-1.7s1.3-0.6,2.1-0.6c0.6,0,1.1,0.1,1.5,0.4c0.4,0.2,0.8,0.5,1.1,0.9v-4.6h1.6v12.9H892.7z
		 M887.7,163.7c0,1.2,0.3,2.1,0.8,2.7s1.1,0.9,1.8,0.9c0.7,0,1.3-0.3,1.8-0.8s0.7-1.4,0.7-2.6c0-1.3-0.2-2.2-0.7-2.8
		s-1.1-0.9-1.8-0.9c-0.7,0-1.3,0.3-1.8,0.9S887.7,162.5,887.7,163.7z"/>
	<path d="M896.7,168.4v-9.3h1.4v1.3c0.3-0.5,0.7-0.8,1.2-1.1s1-0.4,1.7-0.4c0.7,0,1.3,0.1,1.7,0.4s0.8,0.7,0.9,1.2
		c0.7-1.1,1.7-1.6,2.9-1.6c0.9,0,1.6,0.3,2.1,0.8s0.7,1.3,0.7,2.4v6.4h-1.6v-5.9c0-0.6-0.1-1.1-0.2-1.4s-0.3-0.5-0.6-0.7
		s-0.6-0.3-0.9-0.3c-0.7,0-1.2,0.2-1.6,0.7c-0.4,0.4-0.7,1.1-0.7,2.1v5.4h-1.6v-6.1c0-0.7-0.1-1.2-0.4-1.6s-0.7-0.5-1.3-0.5
		c-0.4,0-0.9,0.1-1.2,0.4s-0.7,0.6-0.8,1s-0.3,1.1-0.3,2v4.8H896.7z"/>
	<path d="M911.7,157.3v-1.8h1.6v1.8H911.7z M911.7,168.4v-9.3h1.6v9.3H911.7z"/>
	<path d="M914.6,168.4l3.4-4.9l-3.2-4.5h2l1.4,2.2c0.3,0.4,0.5,0.8,0.7,1c0.3-0.4,0.5-0.7,0.7-1l1.6-2.2h1.9l-3.2,4.4l3.5,4.9h-1.9
		l-1.9-2.9l-0.5-0.8l-2.5,3.7H914.6z"/>
	<path d="M928.1,167l0.2,1.4c-0.4,0.1-0.8,0.1-1.2,0.1c-0.6,0-1-0.1-1.3-0.3s-0.5-0.4-0.7-0.7s-0.2-0.9-0.2-1.9v-5.4h-1.2v-1.2h1.2
		v-2.3l1.6-0.9v3.3h1.6v1.2h-1.6v5.5c0,0.5,0,0.7,0.1,0.9s0.1,0.2,0.3,0.3s0.3,0.1,0.5,0.1C927.6,167.1,927.9,167,928.1,167z"/>
	<path d="M935.8,168.4V167c-0.7,1.1-1.7,1.6-3,1.6c-0.6,0-1.1-0.1-1.5-0.3s-0.8-0.5-1.1-0.8s-0.4-0.7-0.5-1.2
		c-0.1-0.3-0.1-0.8-0.1-1.5v-5.8h1.6v5.2c0,0.8,0,1.4,0.1,1.7c0.1,0.4,0.3,0.7,0.6,1c0.3,0.2,0.7,0.4,1.2,0.4s0.9-0.1,1.3-0.4
		s0.7-0.6,0.9-1c0.2-0.4,0.3-1,0.3-1.8v-5h1.6v9.3H935.8z"/>
	<path d="M939.7,168.4v-9.3h1.4v1.4c0.4-0.7,0.7-1.1,1-1.3s0.6-0.3,1-0.3c0.5,0,1.1,0.2,1.6,0.5l-0.5,1.5c-0.4-0.2-0.8-0.3-1.2-0.3
		c-0.3,0-0.7,0.1-0.9,0.3s-0.5,0.5-0.6,0.9c-0.2,0.6-0.3,1.2-0.3,1.8v4.9H939.7z"/>
	<path d="M952.1,165.4l1.6,0.2c-0.3,1-0.7,1.7-1.4,2.2s-1.6,0.8-2.7,0.8c-1.4,0-2.4-0.4-3.2-1.3c-0.8-0.8-1.2-2-1.2-3.5
		c0-1.6,0.4-2.8,1.2-3.7s1.9-1.3,3.1-1.3c1.2,0,2.3,0.4,3.1,1.3s1.2,2,1.2,3.6c0,0.1,0,0.2,0,0.4h-7c0.1,1,0.3,1.8,0.9,2.4
		s1.2,0.8,2,0.8c0.6,0,1.1-0.2,1.5-0.5S951.8,166.1,952.1,165.4z M946.9,162.8h5.2c-0.1-0.8-0.3-1.4-0.6-1.8c-0.5-0.6-1.2-0.9-2-0.9
		c-0.7,0-1.3,0.2-1.8,0.7S946.9,162,946.9,162.8z"/>
</g>
<g class="st6">
	<path d="M882,188.5c-0.5,0.6-1.1,1-1.7,1.3c-0.6,0.3-1.3,0.4-2,0.4c-1.3,0-2.4-0.4-3.1-1.3c-0.6-0.7-0.9-1.5-0.9-2.4
		c0-0.8,0.3-1.5,0.8-2.2c0.5-0.6,1.3-1.2,2.3-1.7c-0.6-0.7-1-1.2-1.2-1.6s-0.3-0.8-0.3-1.2c0-0.8,0.3-1.4,0.9-2
		c0.6-0.6,1.4-0.9,2.3-0.9c0.9,0,1.6,0.3,2.2,0.8s0.8,1.2,0.8,1.9c0,1.2-0.8,2.3-2.4,3.1l2.3,2.9c0.3-0.5,0.5-1.1,0.6-1.8l1.6,0.4
		c-0.3,1.1-0.7,2.1-1.1,2.8c0.6,0.8,1.3,1.4,2,2l-1.1,1.3C883.4,189.9,882.7,189.3,882,188.5z M881.1,187.2l-2.9-3.6
		c-0.9,0.5-1.4,1-1.7,1.4s-0.4,0.9-0.4,1.3c0,0.5,0.2,1.1,0.6,1.6s1,0.8,1.8,0.8c0.5,0,1-0.1,1.5-0.4S880.7,187.7,881.1,187.2z
		 M878.8,181.8c0.7-0.4,1.1-0.8,1.3-1.1s0.3-0.6,0.3-1c0-0.4-0.1-0.8-0.4-1.1c-0.3-0.3-0.6-0.4-1-0.4c-0.4,0-0.8,0.1-1.1,0.4
		s-0.4,0.6-0.4,1c0,0.2,0.1,0.4,0.2,0.6c0.1,0.2,0.3,0.5,0.5,0.7L878.8,181.8z"/>
	<path d="M891.8,190v-12.9h1.7v11.4h6.3v1.5H891.8z"/>
	<path d="M907.8,188.9c-0.6,0.5-1.1,0.8-1.7,1.1s-1.1,0.3-1.7,0.3c-1,0-1.8-0.2-2.4-0.8c-0.6-0.5-0.8-1.1-0.8-1.9
		c0-0.5,0.1-0.9,0.3-1.3c0.2-0.4,0.5-0.7,0.8-0.9s0.7-0.4,1.1-0.5c0.3-0.1,0.8-0.2,1.4-0.2c1.3-0.2,2.2-0.3,2.8-0.5
		c0-0.2,0-0.4,0-0.4c0-0.6-0.1-1.1-0.4-1.4c-0.4-0.4-1-0.5-1.8-0.5c-0.7,0-1.3,0.1-1.6,0.4s-0.6,0.7-0.8,1.4l-1.5-0.2
		c0.1-0.7,0.4-1.2,0.7-1.6c0.3-0.4,0.8-0.7,1.4-0.9c0.6-0.2,1.3-0.3,2.1-0.3c0.8,0,1.4,0.1,1.9,0.3s0.9,0.4,1.1,0.7
		c0.2,0.3,0.4,0.6,0.5,1.1c0.1,0.3,0.1,0.8,0.1,1.5v2.1c0,1.5,0,2.4,0.1,2.8c0.1,0.4,0.2,0.8,0.4,1.1h-1.7
		C907.9,189.7,907.8,189.3,907.8,188.9z M907.7,185.3c-0.6,0.2-1.4,0.4-2.6,0.6c-0.7,0.1-1.1,0.2-1.4,0.3s-0.5,0.3-0.6,0.5
		s-0.2,0.5-0.2,0.8c0,0.4,0.2,0.8,0.5,1.1s0.8,0.4,1.4,0.4c0.6,0,1.2-0.1,1.6-0.4s0.8-0.6,1-1.1c0.2-0.4,0.3-0.9,0.3-1.6V185.3z"/>
	<path d="M913.2,190h-1.5v-12.9h1.6v4.6c0.7-0.8,1.5-1.3,2.6-1.3c0.6,0,1.1,0.1,1.6,0.3s0.9,0.6,1.3,1c0.3,0.4,0.6,0.9,0.8,1.5
		s0.3,1.2,0.3,1.9c0,1.6-0.4,2.8-1.2,3.7s-1.7,1.3-2.8,1.3c-1.1,0-2-0.5-2.6-1.4V190z M913.1,185.3c0,1.1,0.2,1.9,0.5,2.4
		c0.5,0.8,1.2,1.2,2,1.2c0.7,0,1.3-0.3,1.8-0.9s0.8-1.5,0.8-2.7c0-1.2-0.2-2.1-0.7-2.7s-1.1-0.9-1.8-0.9c-0.7,0-1.3,0.3-1.8,0.9
		C913.4,183.3,913.1,184.1,913.1,185.3z"/>
	<path d="M928.1,187l1.6,0.2c-0.3,1-0.7,1.7-1.4,2.2s-1.6,0.8-2.7,0.8c-1.4,0-2.4-0.4-3.2-1.3c-0.8-0.8-1.2-2-1.2-3.5
		c0-1.6,0.4-2.8,1.2-3.7s1.9-1.3,3.1-1.3c1.2,0,2.3,0.4,3.1,1.3s1.2,2,1.2,3.6c0,0.1,0,0.2,0,0.4h-7c0.1,1,0.3,1.8,0.9,2.4
		s1.2,0.8,2,0.8c0.6,0,1.1-0.2,1.5-0.5S927.9,187.7,928.1,187z M922.9,184.4h5.2c-0.1-0.8-0.3-1.4-0.6-1.8c-0.5-0.6-1.2-0.9-2-0.9
		c-0.7,0-1.3,0.2-1.8,0.7S923,183.6,922.9,184.4z"/>
	<path d="M931.7,190v-12.9h1.6V190H931.7z"/>
	<path d="M935.7,178.9v-1.8h1.6v1.8H935.7z M935.7,190v-9.3h1.6v9.3H935.7z"/>
	<path d="M939.7,190v-9.3h1.4v1.3c0.7-1,1.7-1.5,3-1.5c0.6,0,1.1,0.1,1.6,0.3c0.5,0.2,0.8,0.5,1.1,0.8s0.4,0.7,0.5,1.2
		c0.1,0.3,0.1,0.8,0.1,1.5v5.7h-1.6v-5.7c0-0.6-0.1-1.1-0.2-1.4s-0.3-0.6-0.7-0.8c-0.3-0.2-0.7-0.3-1.1-0.3c-0.7,0-1.3,0.2-1.7,0.6
		s-0.7,1.2-0.7,2.4v5.1H939.7z"/>
	<path d="M949.4,190.8l1.5,0.2c0.1,0.5,0.2,0.8,0.5,1c0.4,0.3,0.9,0.4,1.6,0.4c0.7,0,1.3-0.1,1.7-0.4s0.7-0.7,0.8-1.2
		c0.1-0.3,0.1-1,0.1-2c-0.7,0.8-1.6,1.2-2.6,1.2c-1.3,0-2.3-0.5-3-1.4s-1.1-2-1.1-3.3c0-0.9,0.2-1.7,0.5-2.5
		c0.3-0.8,0.8-1.3,1.4-1.7s1.3-0.6,2.2-0.6c1.1,0,2,0.4,2.7,1.3v-1.1h1.5v8.1c0,1.5-0.1,2.5-0.4,3.1c-0.3,0.6-0.8,1.1-1.4,1.4
		s-1.4,0.5-2.4,0.5c-1.1,0-2-0.3-2.7-0.8C949.8,192.5,949.4,191.8,949.4,190.8z M950.8,185.2c0,1.2,0.2,2.1,0.7,2.7s1.1,0.8,1.8,0.8
		c0.7,0,1.3-0.3,1.8-0.8s0.7-1.4,0.7-2.6c0-1.1-0.3-2-0.8-2.6s-1.1-0.9-1.8-0.9c-0.7,0-1.3,0.3-1.8,0.9
		C951,183.2,950.8,184,950.8,185.2z"/>
</g>
<rect x="873.5" y="413.4" class="st2" width="178.9" height="60.3"/>
<g class="st6">
	<path d="M874.3,422.2l1.6-0.1c0.1,0.6,0.3,1.2,0.5,1.6c0.3,0.4,0.7,0.7,1.3,1c0.6,0.3,1.2,0.4,2,0.4c0.7,0,1.2-0.1,1.7-0.3
		s0.9-0.5,1.1-0.8s0.4-0.7,0.4-1.1c0-0.4-0.1-0.8-0.4-1.1s-0.6-0.6-1.2-0.8c-0.3-0.1-1.1-0.3-2.3-0.6s-2-0.6-2.5-0.8
		c-0.6-0.3-1.1-0.7-1.4-1.2s-0.5-1-0.5-1.6c0-0.7,0.2-1.3,0.6-1.8s0.9-1,1.6-1.3s1.5-0.4,2.4-0.4c1,0,1.8,0.2,2.5,0.5
		c0.7,0.3,1.3,0.8,1.7,1.4s0.6,1.3,0.6,2l-1.6,0.1c-0.1-0.8-0.4-1.4-0.9-1.8s-1.3-0.6-2.2-0.6c-1,0-1.8,0.2-2.3,0.6
		c-0.5,0.4-0.7,0.8-0.7,1.4c0,0.5,0.2,0.8,0.5,1.1c0.3,0.3,1.2,0.6,2.6,0.9c1.4,0.3,2.3,0.6,2.9,0.8c0.8,0.3,1.3,0.8,1.7,1.3
		s0.5,1.1,0.5,1.8c0,0.7-0.2,1.3-0.6,1.9c-0.4,0.6-1,1.1-1.7,1.4c-0.7,0.3-1.6,0.5-2.5,0.5c-1.2,0-2.1-0.2-2.9-0.5s-1.4-0.9-1.9-1.5
		C874.6,423.8,874.3,423,874.3,422.2z"/>
	<path d="M892.8,422.9l1.6,0.2c-0.2,1.1-0.6,1.9-1.3,2.5c-0.7,0.6-1.6,0.9-2.6,0.9c-1.3,0-2.3-0.4-3.1-1.3c-0.8-0.8-1.2-2-1.2-3.6
		c0-1,0.2-1.9,0.5-2.6s0.8-1.3,1.5-1.7c0.7-0.4,1.4-0.6,2.2-0.6c1,0,1.8,0.3,2.5,0.8s1.1,1.2,1.2,2.2l-1.5,0.2
		c-0.1-0.6-0.4-1.1-0.8-1.4s-0.8-0.5-1.3-0.5c-0.8,0-1.4,0.3-1.9,0.9c-0.5,0.6-0.7,1.5-0.7,2.7c0,1.3,0.2,2.2,0.7,2.7
		s1.1,0.9,1.9,0.9c0.6,0,1.1-0.2,1.6-0.6S892.7,423.7,892.8,422.9z"/>
	<path d="M901.8,425.2c-0.6,0.5-1.1,0.8-1.7,1.1s-1.1,0.3-1.7,0.3c-1,0-1.8-0.2-2.4-0.8c-0.6-0.5-0.8-1.1-0.8-1.9
		c0-0.5,0.1-0.9,0.3-1.3c0.2-0.4,0.5-0.7,0.8-0.9s0.7-0.4,1.1-0.5c0.3-0.1,0.8-0.2,1.4-0.2c1.3-0.2,2.2-0.3,2.8-0.5
		c0-0.2,0-0.4,0-0.4c0-0.6-0.1-1.1-0.4-1.4c-0.4-0.4-1-0.5-1.8-0.5c-0.7,0-1.3,0.1-1.6,0.4s-0.6,0.7-0.8,1.4l-1.5-0.2
		c0.1-0.7,0.4-1.2,0.7-1.6c0.3-0.4,0.8-0.7,1.4-0.9c0.6-0.2,1.3-0.3,2.1-0.3c0.8,0,1.4,0.1,1.9,0.3s0.9,0.4,1.1,0.7
		c0.2,0.3,0.4,0.6,0.5,1.1c0.1,0.3,0.1,0.8,0.1,1.5v2.1c0,1.5,0,2.4,0.1,2.8c0.1,0.4,0.2,0.8,0.4,1.1h-1.7
		C901.9,426,901.8,425.6,901.8,425.2z M901.6,421.6c-0.6,0.2-1.4,0.4-2.6,0.6c-0.7,0.1-1.1,0.2-1.4,0.3s-0.5,0.3-0.6,0.5
		s-0.2,0.5-0.2,0.8c0,0.4,0.2,0.8,0.5,1.1s0.8,0.4,1.4,0.4c0.6,0,1.2-0.1,1.6-0.4s0.8-0.6,1-1.1c0.2-0.4,0.3-0.9,0.3-1.6V421.6z"/>
	<path d="M905.7,426.3V417h1.4v1.3c0.7-1,1.7-1.5,3-1.5c0.6,0,1.1,0.1,1.6,0.3c0.5,0.2,0.8,0.5,1.1,0.8s0.4,0.7,0.5,1.2
		c0.1,0.3,0.1,0.8,0.1,1.5v5.7h-1.6v-5.7c0-0.6-0.1-1.1-0.2-1.4s-0.3-0.6-0.7-0.8c-0.3-0.2-0.7-0.3-1.1-0.3c-0.7,0-1.3,0.2-1.7,0.6
		s-0.7,1.2-0.7,2.4v5.1H905.7z"/>
	<path d="M915.7,426.3V417h1.4v1.3c0.7-1,1.7-1.5,3-1.5c0.6,0,1.1,0.1,1.6,0.3c0.5,0.2,0.8,0.5,1.1,0.8s0.4,0.7,0.5,1.2
		c0.1,0.3,0.1,0.8,0.1,1.5v5.7h-1.6v-5.7c0-0.6-0.1-1.1-0.2-1.4s-0.3-0.6-0.7-0.8c-0.3-0.2-0.7-0.3-1.1-0.3c-0.7,0-1.3,0.2-1.7,0.6
		s-0.7,1.2-0.7,2.4v5.1H915.7z"/>
	<path d="M925.7,415.3v-1.8h1.6v1.8H925.7z M925.7,426.3V417h1.6v9.3H925.7z"/>
	<path d="M929.7,426.3V417h1.4v1.3c0.7-1,1.7-1.5,3-1.5c0.6,0,1.1,0.1,1.6,0.3c0.5,0.2,0.8,0.5,1.1,0.8s0.4,0.7,0.5,1.2
		c0.1,0.3,0.1,0.8,0.1,1.5v5.7h-1.6v-5.7c0-0.6-0.1-1.1-0.2-1.4s-0.3-0.6-0.7-0.8c-0.3-0.2-0.7-0.3-1.1-0.3c-0.7,0-1.3,0.2-1.7,0.6
		s-0.7,1.2-0.7,2.4v5.1H929.7z"/>
	<path d="M939.4,427.1l1.5,0.2c0.1,0.5,0.2,0.8,0.5,1c0.4,0.3,0.9,0.4,1.6,0.4c0.7,0,1.3-0.1,1.7-0.4s0.7-0.7,0.8-1.2
		c0.1-0.3,0.1-1,0.1-2c-0.7,0.8-1.6,1.2-2.6,1.2c-1.3,0-2.3-0.5-3-1.4s-1.1-2-1.1-3.3c0-0.9,0.2-1.7,0.5-2.5
		c0.3-0.8,0.8-1.3,1.4-1.7s1.3-0.6,2.2-0.6c1.1,0,2,0.4,2.7,1.3V417h1.5v8.1c0,1.5-0.1,2.5-0.4,3.1c-0.3,0.6-0.8,1.1-1.4,1.4
		s-1.4,0.5-2.4,0.5c-1.1,0-2-0.3-2.7-0.8C939.7,428.9,939.4,428.1,939.4,427.1z M940.7,421.5c0,1.2,0.2,2.1,0.7,2.7s1.1,0.8,1.8,0.8
		c0.7,0,1.3-0.3,1.8-0.8s0.7-1.4,0.7-2.6c0-1.1-0.3-2-0.8-2.6s-1.1-0.9-1.8-0.9c-0.7,0-1.3,0.3-1.8,0.9
		C941,419.5,940.7,420.4,940.7,421.5z"/>
</g>
<rect x="525.4" y="655.9" class="st2" width="178.9" height="60.3"/>
<g class="st6">
	<path d="M526.1,665.3l1.6-0.2c0.2,0.9,0.5,1.5,0.9,1.9c0.4,0.4,1,0.6,1.6,0.6c0.7,0,1.4-0.3,1.9-0.8s0.8-1.2,0.8-1.9
		c0-0.7-0.2-1.3-0.7-1.8c-0.5-0.5-1.1-0.7-1.8-0.7c-0.3,0-0.7,0.1-1.1,0.2l0.2-1.4c0.1,0,0.2,0,0.3,0c0.7,0,1.3-0.2,1.8-0.5
		s0.8-0.9,0.8-1.6c0-0.6-0.2-1.1-0.6-1.4s-0.9-0.6-1.5-0.6c-0.6,0-1.1,0.2-1.5,0.6s-0.7,1-0.8,1.7l-1.6-0.3c0.2-1.1,0.6-1.9,1.3-2.5
		s1.5-0.9,2.6-0.9c0.7,0,1.4,0.2,1.9,0.5s1,0.7,1.4,1.2s0.5,1.1,0.5,1.7c0,0.6-0.1,1.1-0.4,1.5s-0.7,0.8-1.3,1.1
		c0.8,0.2,1.4,0.5,1.8,1.1c0.4,0.6,0.6,1.2,0.6,2.1c0,1.1-0.4,2.1-1.2,2.9c-0.8,0.8-1.9,1.2-3.1,1.2c-1.1,0-2.1-0.3-2.8-1
		S526.2,666.4,526.1,665.3z"/>
	<path d="M536.5,668.7v-9.3h1.4v1.4c0.4-0.7,0.7-1.1,1-1.3s0.6-0.3,1-0.3c0.5,0,1.1,0.2,1.6,0.5l-0.5,1.5c-0.4-0.2-0.8-0.3-1.2-0.3
		c-0.3,0-0.7,0.1-0.9,0.3s-0.5,0.5-0.6,0.9c-0.2,0.6-0.3,1.2-0.3,1.8v4.9H536.5z"/>
	<path d="M548.6,668.7v-1.2c-0.6,0.9-1.5,1.4-2.6,1.4c-0.7,0-1.4-0.2-2.1-0.6s-1.1-1-1.5-1.7c-0.3-0.7-0.5-1.6-0.5-2.5
		c0-0.9,0.2-1.8,0.5-2.5s0.8-1.3,1.4-1.7s1.3-0.6,2.1-0.6c0.6,0,1.1,0.1,1.5,0.4c0.4,0.2,0.8,0.5,1.1,0.9v-4.6h1.6v12.9H548.6z
		 M543.6,664.1c0,1.2,0.3,2.1,0.8,2.7s1.1,0.9,1.8,0.9c0.7,0,1.3-0.3,1.8-0.8s0.7-1.4,0.7-2.6c0-1.3-0.2-2.2-0.7-2.8
		s-1.1-0.9-1.8-0.9c-0.7,0-1.3,0.3-1.8,0.9S543.6,662.8,543.6,664.1z"/>
	<path d="M557.8,668.7v-12.9h4.9c0.9,0,1.5,0,2,0.1c0.6,0.1,1.2,0.3,1.6,0.6c0.4,0.3,0.8,0.7,1,1.2s0.4,1.1,0.4,1.8
		c0,1.1-0.3,2-1,2.8c-0.7,0.8-2,1.1-3.8,1.1h-3.3v5.2H557.8z M559.5,662h3.3c1.1,0,1.9-0.2,2.3-0.6s0.7-1,0.7-1.7
		c0-0.5-0.1-1-0.4-1.4c-0.3-0.4-0.6-0.6-1.1-0.8c-0.3-0.1-0.8-0.1-1.6-0.1h-3.3V662z"/>
	<path d="M575.7,667.6c-0.6,0.5-1.1,0.8-1.7,1.1s-1.1,0.3-1.7,0.3c-1,0-1.8-0.2-2.4-0.8c-0.6-0.5-0.8-1.1-0.8-1.9
		c0-0.5,0.1-0.9,0.3-1.3c0.2-0.4,0.5-0.7,0.8-0.9s0.7-0.4,1.1-0.5c0.3-0.1,0.8-0.2,1.4-0.2c1.3-0.2,2.2-0.3,2.8-0.5
		c0-0.2,0-0.4,0-0.4c0-0.6-0.1-1.1-0.4-1.4c-0.4-0.4-1-0.5-1.8-0.5c-0.7,0-1.3,0.1-1.6,0.4s-0.6,0.7-0.8,1.4l-1.5-0.2
		c0.1-0.7,0.4-1.2,0.7-1.6c0.3-0.4,0.8-0.7,1.4-0.9c0.6-0.2,1.3-0.3,2.1-0.3c0.8,0,1.4,0.1,1.9,0.3s0.9,0.4,1.1,0.7
		c0.2,0.3,0.4,0.6,0.5,1.1c0.1,0.3,0.1,0.8,0.1,1.5v2.1c0,1.5,0,2.4,0.1,2.8c0.1,0.4,0.2,0.8,0.4,1.1H576
		C575.8,668.4,575.7,668,575.7,667.6z M575.5,664.1c-0.6,0.2-1.4,0.4-2.6,0.6c-0.7,0.1-1.1,0.2-1.4,0.3s-0.5,0.3-0.6,0.5
		s-0.2,0.5-0.2,0.8c0,0.4,0.2,0.8,0.5,1.1s0.8,0.4,1.4,0.4c0.6,0,1.2-0.1,1.6-0.4s0.8-0.6,1-1.1c0.2-0.4,0.3-0.9,0.3-1.6V664.1z"/>
	<path d="M579.6,668.7v-9.3h1.4v1.4c0.4-0.7,0.7-1.1,1-1.3s0.6-0.3,1-0.3c0.5,0,1.1,0.2,1.6,0.5l-0.5,1.5c-0.4-0.2-0.8-0.3-1.2-0.3
		c-0.3,0-0.7,0.1-0.9,0.3s-0.5,0.5-0.6,0.9c-0.2,0.6-0.3,1.2-0.3,1.8v4.9H579.6z"/>
	<path d="M589,667.3l0.2,1.4c-0.4,0.1-0.8,0.1-1.2,0.1c-0.6,0-1-0.1-1.3-0.3s-0.5-0.4-0.7-0.7s-0.2-0.9-0.2-1.9v-5.4h-1.2v-1.2h1.2
		v-2.3l1.6-0.9v3.3h1.6v1.2h-1.6v5.5c0,0.5,0,0.7,0.1,0.9s0.1,0.2,0.3,0.3s0.3,0.1,0.5,0.1C588.5,667.4,588.7,667.4,589,667.3z"/>
	<path d="M590.5,672.3l-0.2-1.5c0.3,0.1,0.6,0.1,0.9,0.1c0.4,0,0.6-0.1,0.8-0.2s0.4-0.3,0.5-0.5c0.1-0.2,0.3-0.6,0.5-1.2
		c0-0.1,0.1-0.2,0.1-0.4l-3.5-9.4h1.7l1.9,5.4c0.3,0.7,0.5,1.4,0.7,2.2c0.2-0.7,0.4-1.4,0.7-2.1l2-5.4h1.6l-3.6,9.5
		c-0.4,1-0.7,1.7-0.9,2.1c-0.3,0.5-0.6,0.9-1,1.1c-0.4,0.2-0.8,0.4-1.3,0.4C591.2,672.5,590.9,672.5,590.5,672.3z"/>
	<path d="M604.5,668.7v-12.9h1.6v12.9H604.5z"/>
	<path d="M608.6,657.7v-1.8h1.6v1.8H608.6z M608.6,668.7v-9.3h1.6v9.3H608.6z"/>
	<path d="M612.6,668.7v-9.3h1.4v1.3c0.7-1,1.7-1.5,3-1.5c0.6,0,1.1,0.1,1.6,0.3c0.5,0.2,0.8,0.5,1.1,0.8s0.4,0.7,0.5,1.2
		c0.1,0.3,0.1,0.8,0.1,1.5v5.7h-1.6v-5.7c0-0.6-0.1-1.1-0.2-1.4s-0.3-0.6-0.7-0.8c-0.3-0.2-0.7-0.3-1.1-0.3c-0.7,0-1.3,0.2-1.7,0.6
		c-0.5,0.4-0.7,1.2-0.7,2.4v5.1H612.6z"/>
	<path d="M622.6,668.7v-12.9h1.6v7.3l3.7-3.8h2l-3.6,3.5l3.9,5.9h-2l-3.1-4.8l-1.1,1.1v3.7H622.6z"/>
</g>
<g class="st6">
	<path d="M532.6,689.2c-0.6,0.5-1.1,0.8-1.7,1.1s-1.1,0.3-1.7,0.3c-1,0-1.8-0.2-2.4-0.8c-0.6-0.5-0.8-1.1-0.8-1.9
		c0-0.5,0.1-0.9,0.3-1.3c0.2-0.4,0.5-0.7,0.8-0.9s0.7-0.4,1.1-0.5c0.3-0.1,0.8-0.2,1.4-0.2c1.3-0.2,2.2-0.3,2.8-0.5
		c0-0.2,0-0.4,0-0.4c0-0.6-0.1-1.1-0.4-1.4c-0.4-0.4-1-0.5-1.8-0.5c-0.7,0-1.3,0.1-1.6,0.4s-0.6,0.7-0.8,1.4l-1.5-0.2
		c0.1-0.7,0.4-1.2,0.7-1.6c0.3-0.4,0.8-0.7,1.4-0.9c0.6-0.2,1.3-0.3,2.1-0.3c0.8,0,1.4,0.1,1.9,0.3s0.9,0.4,1.1,0.7
		c0.2,0.3,0.4,0.6,0.5,1.1c0.1,0.3,0.1,0.8,0.1,1.5v2.1c0,1.5,0,2.4,0.1,2.8c0.1,0.4,0.2,0.8,0.4,1.1H533
		C532.8,690,532.7,689.6,532.6,689.2z M532.5,685.7c-0.6,0.2-1.4,0.4-2.6,0.6c-0.7,0.1-1.1,0.2-1.4,0.3s-0.5,0.3-0.6,0.5
		s-0.2,0.5-0.2,0.8c0,0.4,0.2,0.8,0.5,1.1s0.8,0.4,1.4,0.4c0.6,0,1.2-0.1,1.6-0.4s0.8-0.6,1-1.1c0.2-0.4,0.3-0.9,0.3-1.6V685.7z"/>
	<path d="M536.6,693.9V681h1.4v1.2c0.3-0.5,0.7-0.8,1.2-1.1c0.4-0.2,0.9-0.4,1.6-0.4c0.8,0,1.5,0.2,2.1,0.6s1.1,1,1.4,1.7
		c0.3,0.7,0.5,1.6,0.5,2.5c0,1-0.2,1.8-0.5,2.6c-0.3,0.8-0.8,1.4-1.5,1.8c-0.7,0.4-1.3,0.6-2.1,0.6c-0.5,0-1-0.1-1.4-0.3
		s-0.8-0.5-1-0.8v4.5H536.6z M538,685.7c0,1.2,0.2,2.1,0.7,2.7s1.1,0.9,1.8,0.9c0.7,0,1.3-0.3,1.8-0.9c0.5-0.6,0.8-1.5,0.8-2.8
		c0-1.2-0.2-2.1-0.7-2.7s-1.1-0.9-1.8-0.9c-0.7,0-1.3,0.3-1.8,0.9C538.3,683.6,538,684.5,538,685.7z"/>
	<path d="M546.6,693.9V681h1.4v1.2c0.3-0.5,0.7-0.8,1.2-1.1c0.4-0.2,0.9-0.4,1.6-0.4c0.8,0,1.5,0.2,2.1,0.6s1.1,1,1.4,1.7
		c0.3,0.7,0.5,1.6,0.5,2.5c0,1-0.2,1.8-0.5,2.6c-0.3,0.8-0.8,1.4-1.5,1.8c-0.7,0.4-1.3,0.6-2.1,0.6c-0.5,0-1-0.1-1.4-0.3
		s-0.8-0.5-1-0.8v4.5H546.6z M548,685.7c0,1.2,0.2,2.1,0.7,2.7s1.1,0.9,1.8,0.9c0.7,0,1.3-0.3,1.8-0.9c0.5-0.6,0.8-1.5,0.8-2.8
		c0-1.2-0.2-2.1-0.7-2.7s-1.1-0.9-1.8-0.9c-0.7,0-1.3,0.3-1.8,0.9C548.3,683.6,548,684.5,548,685.7z"/>
	<path d="M556.5,690.3v-12.9h1.6v12.9H556.5z"/>
	<path d="M560.6,679.3v-1.8h1.6v1.8H560.6z M560.6,690.3V681h1.6v9.3H560.6z"/>
	<path d="M570.7,686.9l1.6,0.2c-0.2,1.1-0.6,1.9-1.3,2.5c-0.7,0.6-1.6,0.9-2.6,0.9c-1.3,0-2.3-0.4-3.1-1.3c-0.8-0.8-1.2-2-1.2-3.6
		c0-1,0.2-1.9,0.5-2.6s0.8-1.3,1.5-1.7c0.7-0.4,1.4-0.6,2.2-0.6c1,0,1.8,0.3,2.5,0.8s1.1,1.2,1.2,2.2l-1.5,0.2
		c-0.1-0.6-0.4-1.1-0.8-1.4s-0.8-0.5-1.3-0.5c-0.8,0-1.4,0.3-1.9,0.9c-0.5,0.6-0.7,1.5-0.7,2.7c0,1.3,0.2,2.2,0.7,2.7
		s1.1,0.9,1.9,0.9c0.6,0,1.1-0.2,1.6-0.6S570.6,687.7,570.7,686.9z"/>
	<path d="M579.7,689.2c-0.6,0.5-1.1,0.8-1.7,1.1s-1.1,0.3-1.7,0.3c-1,0-1.8-0.2-2.4-0.8c-0.6-0.5-0.8-1.1-0.8-1.9
		c0-0.5,0.1-0.9,0.3-1.3c0.2-0.4,0.5-0.7,0.8-0.9s0.7-0.4,1.1-0.5c0.3-0.1,0.8-0.2,1.4-0.2c1.3-0.2,2.2-0.3,2.8-0.5
		c0-0.2,0-0.4,0-0.4c0-0.6-0.1-1.1-0.4-1.4c-0.4-0.4-1-0.5-1.8-0.5c-0.7,0-1.3,0.1-1.6,0.4s-0.6,0.7-0.8,1.4l-1.5-0.2
		c0.1-0.7,0.4-1.2,0.7-1.6c0.3-0.4,0.8-0.7,1.4-0.9c0.6-0.2,1.3-0.3,2.1-0.3c0.8,0,1.4,0.1,1.9,0.3s0.9,0.4,1.1,0.7
		c0.2,0.3,0.4,0.6,0.5,1.1c0.1,0.3,0.1,0.8,0.1,1.5v2.1c0,1.5,0,2.4,0.1,2.8c0.1,0.4,0.2,0.8,0.4,1.1H580
		C579.8,690,579.7,689.6,579.7,689.2z M579.5,685.7c-0.6,0.2-1.4,0.4-2.6,0.6c-0.7,0.1-1.1,0.2-1.4,0.3s-0.5,0.3-0.6,0.5
		s-0.2,0.5-0.2,0.8c0,0.4,0.2,0.8,0.5,1.1s0.8,0.4,1.4,0.4c0.6,0,1.2-0.1,1.6-0.4s0.8-0.6,1-1.1c0.2-0.4,0.3-0.9,0.3-1.6V685.7z"/>
	<path d="M587,688.9l0.2,1.4c-0.4,0.1-0.8,0.1-1.2,0.1c-0.6,0-1-0.1-1.3-0.3s-0.5-0.4-0.7-0.7s-0.2-0.9-0.2-1.9v-5.4h-1.2V681h1.2
		v-2.3l1.6-0.9v3.3h1.6v1.2h-1.6v5.5c0,0.5,0,0.7,0.1,0.9s0.1,0.2,0.3,0.3s0.3,0.1,0.5,0.1C586.5,689,586.8,689,587,688.9z"/>
	<path d="M588.6,679.3v-1.8h1.6v1.8H588.6z M588.6,690.3V681h1.6v9.3H588.6z"/>
	<path d="M592,685.7c0-1.7,0.5-3,1.4-3.8c0.8-0.7,1.8-1,2.9-1c1.3,0,2.3,0.4,3.1,1.3s1.2,2,1.2,3.5c0,1.2-0.2,2.1-0.5,2.8
		c-0.4,0.7-0.9,1.2-1.6,1.6s-1.4,0.6-2.3,0.6c-1.3,0-2.4-0.4-3.2-1.3S592,687.3,592,685.7z M593.6,685.7c0,1.2,0.3,2.1,0.8,2.7
		c0.5,0.6,1.2,0.9,2,0.9c0.8,0,1.4-0.3,2-0.9s0.8-1.5,0.8-2.7c0-1.2-0.3-2-0.8-2.6c-0.5-0.6-1.2-0.9-2-0.9c-0.8,0-1.4,0.3-2,0.9
		S593.6,684.5,593.6,685.7z"/>
	<path d="M602.6,690.3V681h1.4v1.3c0.7-1,1.7-1.5,3-1.5c0.6,0,1.1,0.1,1.6,0.3c0.5,0.2,0.8,0.5,1.1,0.8s0.4,0.7,0.5,1.2
		c0.1,0.3,0.1,0.8,0.1,1.5v5.7h-1.6v-5.7c0-0.6-0.1-1.1-0.2-1.4s-0.3-0.6-0.7-0.8c-0.3-0.2-0.7-0.3-1.1-0.3c-0.7,0-1.3,0.2-1.7,0.6
		c-0.5,0.4-0.7,1.2-0.7,2.4v5.1H602.6z"/>
</g>
<rect x="181.5" y="412.3" class="st2" width="178.9" height="60.3"/>
<g class="st6">
	<path d="M192.1,420.7l1.7,0.4c-0.4,1.4-1,2.5-1.9,3.2s-2.1,1.1-3.4,1.1c-1.4,0-2.5-0.3-3.4-0.8c-0.9-0.6-1.5-1.4-2-2.5
		s-0.7-2.2-0.7-3.5c0-1.3,0.3-2.5,0.8-3.5c0.5-1,1.2-1.8,2.2-2.3c0.9-0.5,2-0.8,3.1-0.8c1.3,0,2.4,0.3,3.3,1s1.5,1.6,1.8,2.8
		l-1.7,0.4c-0.3-0.9-0.7-1.6-1.3-2s-1.3-0.6-2.1-0.6c-1,0-1.8,0.2-2.5,0.7s-1.1,1.1-1.4,1.9c-0.3,0.8-0.4,1.6-0.4,2.5
		c0,1.1,0.2,2.1,0.5,2.9c0.3,0.8,0.8,1.4,1.5,1.8s1.4,0.6,2.2,0.6c1,0,1.8-0.3,2.4-0.8S191.8,421.7,192.1,420.7z"/>
	<path d="M195.7,425.2v-12.9h1.6v4.6c0.7-0.9,1.7-1.3,2.8-1.3c0.7,0,1.3,0.1,1.8,0.4c0.5,0.3,0.9,0.6,1.1,1.1s0.3,1.2,0.3,2.1v5.9
		h-1.6v-5.9c0-0.8-0.2-1.4-0.5-1.7c-0.3-0.4-0.8-0.5-1.5-0.5c-0.5,0-0.9,0.1-1.3,0.4c-0.4,0.2-0.7,0.6-0.9,1s-0.3,1-0.3,1.7v5.1
		H195.7z"/>
	<path d="M212.1,422.2l1.6,0.2c-0.3,1-0.7,1.7-1.4,2.2s-1.6,0.8-2.7,0.8c-1.4,0-2.4-0.4-3.2-1.3c-0.8-0.8-1.2-2-1.2-3.5
		c0-1.6,0.4-2.8,1.2-3.7s1.9-1.3,3.1-1.3c1.2,0,2.3,0.4,3.1,1.3s1.2,2,1.2,3.6c0,0.1,0,0.2,0,0.4h-7c0.1,1,0.3,1.8,0.9,2.4
		s1.2,0.8,2,0.8c0.6,0,1.1-0.2,1.5-0.5S211.8,422.8,212.1,422.2z M206.9,419.6h5.2c-0.1-0.8-0.3-1.4-0.6-1.8c-0.5-0.6-1.2-0.9-2-0.9
		c-0.7,0-1.3,0.2-1.8,0.7S206.9,418.8,206.9,419.6z"/>
	<path d="M221.8,421.8l1.6,0.2c-0.2,1.1-0.6,1.9-1.3,2.5c-0.7,0.6-1.6,0.9-2.6,0.9c-1.3,0-2.3-0.4-3.1-1.3c-0.8-0.8-1.2-2-1.2-3.6
		c0-1,0.2-1.9,0.5-2.6s0.8-1.3,1.5-1.7c0.7-0.4,1.4-0.6,2.2-0.6c1,0,1.8,0.3,2.5,0.8s1.1,1.2,1.2,2.2l-1.5,0.2
		c-0.1-0.6-0.4-1.1-0.8-1.4s-0.8-0.5-1.3-0.5c-0.8,0-1.4,0.3-1.9,0.9c-0.5,0.6-0.7,1.5-0.7,2.7c0,1.3,0.2,2.2,0.7,2.7
		s1.1,0.9,1.9,0.9c0.6,0,1.1-0.2,1.6-0.6S221.7,422.5,221.8,421.8z"/>
	<path d="M224.7,425.2v-12.9h1.6v7.3l3.7-3.8h2l-3.6,3.5l3.9,5.9h-2l-3.1-4.8l-1.1,1.1v3.7H224.7z"/>
	<path d="M244.8,425.2V424c-0.6,0.9-1.5,1.4-2.6,1.4c-0.7,0-1.4-0.2-2.1-0.6s-1.1-1-1.5-1.7c-0.3-0.7-0.5-1.6-0.5-2.5
		c0-0.9,0.2-1.8,0.5-2.5s0.8-1.3,1.4-1.7s1.3-0.6,2.1-0.6c0.6,0,1.1,0.1,1.5,0.4c0.4,0.2,0.8,0.5,1.1,0.9v-4.6h1.6v12.9H244.8z
		 M239.8,420.5c0,1.2,0.3,2.1,0.8,2.7s1.1,0.9,1.8,0.9c0.7,0,1.3-0.3,1.8-0.8s0.7-1.4,0.7-2.6c0-1.3-0.2-2.2-0.7-2.8
		s-1.1-0.9-1.8-0.9c-0.7,0-1.3,0.3-1.8,0.9S239.8,419.3,239.8,420.5z"/>
	<path d="M254.8,424c-0.6,0.5-1.1,0.8-1.7,1.1s-1.1,0.3-1.7,0.3c-1,0-1.8-0.2-2.4-0.8c-0.6-0.5-0.8-1.1-0.8-1.9
		c0-0.5,0.1-0.9,0.3-1.3c0.2-0.4,0.5-0.7,0.8-0.9s0.7-0.4,1.1-0.5c0.3-0.1,0.8-0.2,1.4-0.2c1.3-0.2,2.2-0.3,2.8-0.5
		c0-0.2,0-0.4,0-0.4c0-0.6-0.1-1.1-0.4-1.4c-0.4-0.4-1-0.5-1.8-0.5c-0.7,0-1.3,0.1-1.6,0.4s-0.6,0.7-0.8,1.4l-1.5-0.2
		c0.1-0.7,0.4-1.2,0.7-1.6c0.3-0.4,0.8-0.7,1.4-0.9c0.6-0.2,1.3-0.3,2.1-0.3c0.8,0,1.4,0.1,1.9,0.3s0.9,0.4,1.1,0.7
		c0.2,0.3,0.4,0.6,0.5,1.1c0.1,0.3,0.1,0.8,0.1,1.5v2.1c0,1.5,0,2.4,0.1,2.8c0.1,0.4,0.2,0.8,0.4,1.1h-1.7
		C255,424.8,254.9,424.5,254.8,424z M254.7,420.5c-0.6,0.2-1.4,0.4-2.6,0.6c-0.7,0.1-1.1,0.2-1.4,0.3s-0.5,0.3-0.6,0.5
		s-0.2,0.5-0.2,0.8c0,0.4,0.2,0.8,0.5,1.1s0.8,0.4,1.4,0.4c0.6,0,1.2-0.1,1.6-0.4s0.8-0.6,1-1.1c0.2-0.4,0.3-0.9,0.3-1.6V420.5z"/>
	<path d="M262.2,423.8l0.2,1.4c-0.4,0.1-0.8,0.1-1.2,0.1c-0.6,0-1-0.1-1.3-0.3s-0.5-0.4-0.7-0.7s-0.2-0.9-0.2-1.9v-5.4h-1.2v-1.2
		h1.2v-2.3l1.6-0.9v3.3h1.6v1.2h-1.6v5.5c0,0.5,0,0.7,0.1,0.9s0.1,0.2,0.3,0.3s0.3,0.1,0.5,0.1C261.7,423.8,261.9,423.8,262.2,423.8
		z"/>
	<path d="M269.8,424c-0.6,0.5-1.1,0.8-1.7,1.1s-1.1,0.3-1.7,0.3c-1,0-1.8-0.2-2.4-0.8c-0.6-0.5-0.8-1.1-0.8-1.9
		c0-0.5,0.1-0.9,0.3-1.3c0.2-0.4,0.5-0.7,0.8-0.9s0.7-0.4,1.1-0.5c0.3-0.1,0.8-0.2,1.4-0.2c1.3-0.2,2.2-0.3,2.8-0.5
		c0-0.2,0-0.4,0-0.4c0-0.6-0.1-1.1-0.4-1.4c-0.4-0.4-1-0.5-1.8-0.5c-0.7,0-1.3,0.1-1.6,0.4s-0.6,0.7-0.8,1.4l-1.5-0.2
		c0.1-0.7,0.4-1.2,0.7-1.6c0.3-0.4,0.8-0.7,1.4-0.9c0.6-0.2,1.3-0.3,2.1-0.3c0.8,0,1.4,0.1,1.9,0.3s0.9,0.4,1.1,0.7
		c0.2,0.3,0.4,0.6,0.5,1.1c0.1,0.3,0.1,0.8,0.1,1.5v2.1c0,1.5,0,2.4,0.1,2.8c0.1,0.4,0.2,0.8,0.4,1.1h-1.7
		C270,424.8,269.9,424.5,269.8,424z M269.7,420.5c-0.6,0.2-1.4,0.4-2.6,0.6c-0.7,0.1-1.1,0.2-1.4,0.3s-0.5,0.3-0.6,0.5
		s-0.2,0.5-0.2,0.8c0,0.4,0.2,0.8,0.5,1.1s0.8,0.4,1.4,0.4c0.6,0,1.2-0.1,1.6-0.4s0.8-0.6,1-1.1c0.2-0.4,0.3-0.9,0.3-1.6V420.5z"/>
</g>
<g class="st6">
	<path d="M190,445.2c-0.5,0.6-1.1,1-1.7,1.3c-0.6,0.3-1.3,0.4-2,0.4c-1.3,0-2.4-0.4-3.1-1.3c-0.6-0.7-0.9-1.5-0.9-2.4
		c0-0.8,0.3-1.5,0.8-2.2c0.5-0.6,1.3-1.2,2.3-1.7c-0.6-0.7-1-1.2-1.2-1.6s-0.3-0.8-0.3-1.2c0-0.8,0.3-1.4,0.9-2
		c0.6-0.6,1.4-0.9,2.3-0.9c0.9,0,1.6,0.3,2.2,0.8s0.8,1.2,0.8,1.9c0,1.2-0.8,2.3-2.4,3.1l2.3,2.9c0.3-0.5,0.5-1.1,0.6-1.8l1.6,0.4
		c-0.3,1.1-0.7,2.1-1.1,2.8c0.6,0.8,1.3,1.4,2,2l-1.1,1.3C191.4,446.7,190.7,446.1,190,445.2z M189.1,444l-2.9-3.6
		c-0.9,0.5-1.4,1-1.7,1.4s-0.4,0.9-0.4,1.3c0,0.5,0.2,1.1,0.6,1.6s1,0.8,1.8,0.8c0.5,0,1-0.1,1.5-0.4S188.7,444.5,189.1,444z
		 M186.8,438.5c0.7-0.4,1.1-0.8,1.3-1.1s0.3-0.6,0.3-1c0-0.4-0.1-0.8-0.4-1.1c-0.3-0.3-0.6-0.4-1-0.4c-0.4,0-0.8,0.1-1.1,0.4
		s-0.4,0.6-0.4,1c0,0.2,0.1,0.4,0.2,0.6c0.1,0.2,0.3,0.5,0.5,0.7L186.8,438.5z"/>
	<path d="M199.1,444l1.6-0.2c0.1,0.6,0.3,1.1,0.7,1.4s1,0.5,1.7,0.5c0.7,0,1.3-0.1,1.6-0.4s0.5-0.6,0.5-1c0-0.4-0.2-0.6-0.5-0.8
		c-0.2-0.1-0.8-0.3-1.6-0.5c-1.2-0.3-2-0.5-2.4-0.8s-0.8-0.5-1-0.9c-0.2-0.4-0.3-0.8-0.3-1.3c0-0.4,0.1-0.8,0.3-1.2
		c0.2-0.4,0.4-0.6,0.8-0.9c0.2-0.2,0.6-0.3,1-0.5s0.9-0.2,1.4-0.2c0.7,0,1.4,0.1,1.9,0.3s1,0.5,1.2,0.9c0.3,0.4,0.4,0.8,0.5,1.4
		l-1.5,0.2c-0.1-0.5-0.3-0.9-0.6-1.1s-0.8-0.4-1.4-0.4c-0.7,0-1.2,0.1-1.6,0.4s-0.5,0.5-0.5,0.8c0,0.2,0.1,0.4,0.2,0.6
		c0.1,0.2,0.3,0.3,0.6,0.4c0.2,0.1,0.6,0.2,1.4,0.4c1.1,0.3,1.9,0.5,2.3,0.7s0.8,0.5,1,0.8s0.4,0.8,0.4,1.4c0,0.5-0.2,1-0.5,1.5
		c-0.3,0.5-0.8,0.8-1.3,1.1c-0.6,0.3-1.2,0.4-2,0.4c-1.2,0-2.1-0.3-2.8-0.8S199.2,445,199.1,444z"/>
	<path d="M212.1,445.4l0.2,1.4c-0.4,0.1-0.8,0.1-1.2,0.1c-0.6,0-1-0.1-1.3-0.3s-0.5-0.4-0.7-0.7S209,445,209,444v-5.4h-1.2v-1.2h1.2
		v-2.3l1.6-0.9v3.3h1.6v1.2h-1.6v5.5c0,0.5,0,0.7,0.1,0.9s0.1,0.2,0.3,0.3s0.3,0.1,0.5,0.1C211.6,445.4,211.9,445.4,212.1,445.4z"/>
	<path d="M219.8,445.6c-0.6,0.5-1.1,0.8-1.7,1.1s-1.1,0.3-1.7,0.3c-1,0-1.8-0.2-2.4-0.8c-0.6-0.5-0.8-1.1-0.8-1.9
		c0-0.5,0.1-0.9,0.3-1.3c0.2-0.4,0.5-0.7,0.8-0.9s0.7-0.4,1.1-0.5c0.3-0.1,0.8-0.2,1.4-0.2c1.3-0.2,2.2-0.3,2.8-0.5
		c0-0.2,0-0.4,0-0.4c0-0.6-0.1-1.1-0.4-1.4c-0.4-0.4-1-0.5-1.8-0.5c-0.7,0-1.3,0.1-1.6,0.4s-0.6,0.7-0.8,1.4l-1.5-0.2
		c0.1-0.7,0.4-1.2,0.7-1.6c0.3-0.4,0.8-0.7,1.4-0.9c0.6-0.2,1.3-0.3,2.1-0.3c0.8,0,1.4,0.1,1.9,0.3s0.9,0.4,1.1,0.7
		c0.2,0.3,0.4,0.6,0.5,1.1c0.1,0.3,0.1,0.8,0.1,1.5v2.1c0,1.5,0,2.4,0.1,2.8c0.1,0.4,0.2,0.8,0.4,1.1h-1.7
		C219.9,446.4,219.8,446.1,219.8,445.6z M219.6,442.1c-0.6,0.2-1.4,0.4-2.6,0.6c-0.7,0.1-1.1,0.2-1.4,0.3s-0.5,0.3-0.6,0.5
		s-0.2,0.5-0.2,0.8c0,0.4,0.2,0.8,0.5,1.1s0.8,0.4,1.4,0.4c0.6,0,1.2-0.1,1.6-0.4s0.8-0.6,1-1.1c0.2-0.4,0.3-0.9,0.3-1.6V442.1z"/>
	<path d="M223.7,446.8v-9.3h1.4v1.4c0.4-0.7,0.7-1.1,1-1.3s0.6-0.3,1-0.3c0.5,0,1.1,0.2,1.6,0.5l-0.5,1.5c-0.4-0.2-0.8-0.3-1.2-0.3
		c-0.3,0-0.7,0.1-0.9,0.3s-0.5,0.5-0.6,0.9c-0.2,0.6-0.3,1.2-0.3,1.8v4.9H223.7z"/>
	<path d="M233.1,445.4l0.2,1.4c-0.4,0.1-0.8,0.1-1.2,0.1c-0.6,0-1-0.1-1.3-0.3s-0.5-0.4-0.7-0.7S230,445,230,444v-5.4h-1.2v-1.2h1.2
		v-2.3l1.6-0.9v3.3h1.6v1.2h-1.6v5.5c0,0.5,0,0.7,0.1,0.9s0.1,0.2,0.3,0.3s0.3,0.1,0.5,0.1C232.6,445.4,232.9,445.4,233.1,445.4z"/>
</g>
<rect x="161.5" y="156.3" class="st2" width="178.9" height="60.3"/>
<g class="st6">
	<path d="M162.9,169.2v-12.9h4.4c1,0,1.8,0.1,2.3,0.2c0.7,0.2,1.4,0.5,1.9,0.9c0.7,0.6,1.2,1.3,1.5,2.2c0.3,0.9,0.5,1.9,0.5,3.1
		c0,1-0.1,1.8-0.3,2.6s-0.5,1.4-0.9,1.9c-0.4,0.5-0.7,0.9-1.2,1.2s-0.9,0.5-1.5,0.6s-1.3,0.2-2.1,0.2H162.9z M164.6,167.6h2.8
		c0.8,0,1.5-0.1,2-0.2s0.9-0.4,1.2-0.7c0.4-0.4,0.7-0.9,0.9-1.6c0.2-0.7,0.3-1.5,0.3-2.5c0-1.3-0.2-2.4-0.7-3.1
		c-0.4-0.7-1-1.2-1.6-1.5c-0.5-0.2-1.2-0.3-2.2-0.3h-2.7V167.6z"/>
	<path d="M175.1,164.5c0-1.7,0.5-3,1.4-3.8c0.8-0.7,1.8-1,2.9-1c1.3,0,2.3,0.4,3.1,1.3s1.2,2,1.2,3.5c0,1.2-0.2,2.1-0.5,2.8
		c-0.4,0.7-0.9,1.2-1.6,1.6s-1.4,0.6-2.3,0.6c-1.3,0-2.4-0.4-3.2-1.3S175.1,166.1,175.1,164.5z M176.7,164.5c0,1.2,0.3,2.1,0.8,2.7
		c0.5,0.6,1.2,0.9,2,0.9c0.8,0,1.4-0.3,2-0.9s0.8-1.5,0.8-2.7c0-1.2-0.3-2-0.8-2.6c-0.5-0.6-1.2-0.9-2-0.9c-0.8,0-1.4,0.3-2,0.9
		S176.7,163.3,176.7,164.5z"/>
	<path d="M191.8,165.7l1.6,0.2c-0.2,1.1-0.6,1.9-1.3,2.5c-0.7,0.6-1.6,0.9-2.6,0.9c-1.3,0-2.3-0.4-3.1-1.3c-0.8-0.8-1.2-2-1.2-3.6
		c0-1,0.2-1.9,0.5-2.6s0.8-1.3,1.5-1.7c0.7-0.4,1.4-0.6,2.2-0.6c1,0,1.8,0.3,2.5,0.8s1.1,1.2,1.2,2.2l-1.5,0.2
		c-0.1-0.6-0.4-1.1-0.8-1.4s-0.8-0.5-1.3-0.5c-0.8,0-1.4,0.3-1.9,0.9c-0.5,0.6-0.7,1.5-0.7,2.7c0,1.3,0.2,2.2,0.7,2.7
		s1.1,0.9,1.9,0.9c0.6,0,1.1-0.2,1.6-0.6S191.7,166.5,191.8,165.7z"/>
	<path d="M200.8,169.2v-1.4c-0.7,1.1-1.7,1.6-3,1.6c-0.6,0-1.1-0.1-1.5-0.3s-0.8-0.5-1.1-0.8s-0.4-0.7-0.5-1.2
		c-0.1-0.3-0.1-0.8-0.1-1.5v-5.8h1.6v5.2c0,0.8,0,1.4,0.1,1.7c0.1,0.4,0.3,0.7,0.6,1c0.3,0.2,0.7,0.4,1.2,0.4s0.9-0.1,1.3-0.4
		s0.7-0.6,0.9-1c0.2-0.4,0.3-1,0.3-1.8v-5h1.6v9.3H200.8z"/>
	<path d="M204.7,169.2v-9.3h1.4v1.3c0.3-0.5,0.7-0.8,1.2-1.1s1-0.4,1.7-0.4c0.7,0,1.3,0.1,1.7,0.4s0.8,0.7,0.9,1.2
		c0.7-1.1,1.7-1.6,2.9-1.6c0.9,0,1.6,0.3,2.1,0.8s0.7,1.3,0.7,2.4v6.4h-1.6v-5.9c0-0.6-0.1-1.1-0.2-1.4s-0.3-0.5-0.6-0.7
		s-0.6-0.3-0.9-0.3c-0.7,0-1.2,0.2-1.6,0.7c-0.4,0.4-0.7,1.1-0.7,2.1v5.4h-1.6v-6.1c0-0.7-0.1-1.2-0.4-1.6s-0.7-0.5-1.3-0.5
		c-0.4,0-0.9,0.1-1.2,0.4s-0.7,0.6-0.8,1s-0.3,1.1-0.3,2v4.8H204.7z"/>
	<path d="M226.1,166.2l1.6,0.2c-0.3,1-0.7,1.7-1.4,2.2s-1.6,0.8-2.7,0.8c-1.4,0-2.4-0.4-3.2-1.3c-0.8-0.8-1.2-2-1.2-3.5
		c0-1.6,0.4-2.8,1.2-3.7s1.9-1.3,3.1-1.3c1.2,0,2.3,0.4,3.1,1.3s1.2,2,1.2,3.6c0,0.1,0,0.2,0,0.4h-7c0.1,1,0.3,1.8,0.9,2.4
		s1.2,0.8,2,0.8c0.6,0,1.1-0.2,1.5-0.5S225.8,166.8,226.1,166.2z M220.9,163.6h5.2c-0.1-0.8-0.3-1.4-0.6-1.8c-0.5-0.6-1.2-0.9-2-0.9
		c-0.7,0-1.3,0.2-1.8,0.7S220.9,162.8,220.9,163.6z"/>
	<path d="M229.7,169.2v-9.3h1.4v1.3c0.7-1,1.7-1.5,3-1.5c0.6,0,1.1,0.1,1.6,0.3c0.5,0.2,0.8,0.5,1.1,0.8s0.4,0.7,0.5,1.2
		c0.1,0.3,0.1,0.8,0.1,1.5v5.7h-1.6v-5.7c0-0.6-0.1-1.1-0.2-1.4s-0.3-0.6-0.7-0.8c-0.3-0.2-0.7-0.3-1.1-0.3c-0.7,0-1.3,0.2-1.7,0.6
		s-0.7,1.2-0.7,2.4v5.1H229.7z"/>
	<path d="M243.2,167.8l0.2,1.4c-0.4,0.1-0.8,0.1-1.2,0.1c-0.6,0-1-0.1-1.3-0.3s-0.5-0.4-0.7-0.7s-0.2-0.9-0.2-1.9v-5.4h-1.2v-1.2
		h1.2v-2.3l1.6-0.9v3.3h1.6v1.2h-1.6v5.5c0,0.5,0,0.7,0.1,0.9s0.1,0.2,0.3,0.3s0.3,0.1,0.5,0.1C242.7,167.8,242.9,167.8,243.2,167.8
		z"/>
	<path d="M250.8,168c-0.6,0.5-1.1,0.8-1.7,1.1s-1.1,0.3-1.7,0.3c-1,0-1.8-0.2-2.4-0.8c-0.6-0.5-0.8-1.1-0.8-1.9
		c0-0.5,0.1-0.9,0.3-1.3c0.2-0.4,0.5-0.7,0.8-0.9s0.7-0.4,1.1-0.5c0.3-0.1,0.8-0.2,1.4-0.2c1.3-0.2,2.2-0.3,2.8-0.5
		c0-0.2,0-0.4,0-0.4c0-0.6-0.1-1.1-0.4-1.4c-0.4-0.4-1-0.5-1.8-0.5c-0.7,0-1.3,0.1-1.6,0.4s-0.6,0.7-0.8,1.4l-1.5-0.2
		c0.1-0.7,0.4-1.2,0.7-1.6c0.3-0.4,0.8-0.7,1.4-0.9c0.6-0.2,1.3-0.3,2.1-0.3c0.8,0,1.4,0.1,1.9,0.3s0.9,0.4,1.1,0.7
		c0.2,0.3,0.4,0.6,0.5,1.1c0.1,0.3,0.1,0.8,0.1,1.5v2.1c0,1.5,0,2.4,0.1,2.8c0.1,0.4,0.2,0.8,0.4,1.1h-1.7
		C251,168.8,250.9,168.5,250.8,168z M250.7,164.5c-0.6,0.2-1.4,0.4-2.6,0.6c-0.7,0.1-1.1,0.2-1.4,0.3s-0.5,0.3-0.6,0.5
		s-0.2,0.5-0.2,0.8c0,0.4,0.2,0.8,0.5,1.1s0.8,0.4,1.4,0.4c0.6,0,1.2-0.1,1.6-0.4s0.8-0.6,1-1.1c0.2-0.4,0.3-0.9,0.3-1.6V164.5z"/>
	<path d="M258.2,167.8l0.2,1.4c-0.4,0.1-0.8,0.1-1.2,0.1c-0.6,0-1-0.1-1.3-0.3s-0.5-0.4-0.7-0.7s-0.2-0.9-0.2-1.9v-5.4h-1.2v-1.2
		h1.2v-2.3l1.6-0.9v3.3h1.6v1.2h-1.6v5.5c0,0.5,0,0.7,0.1,0.9s0.1,0.2,0.3,0.3s0.3,0.1,0.5,0.1C257.7,167.8,257.9,167.8,258.2,167.8
		z"/>
	<path d="M259.7,158.1v-1.8h1.6v1.8H259.7z M259.7,169.2v-9.3h1.6v9.3H259.7z"/>
	<path d="M263.1,164.5c0-1.7,0.5-3,1.4-3.8c0.8-0.7,1.8-1,2.9-1c1.3,0,2.3,0.4,3.1,1.3s1.2,2,1.2,3.5c0,1.2-0.2,2.1-0.5,2.8
		c-0.4,0.7-0.9,1.2-1.6,1.6s-1.4,0.6-2.3,0.6c-1.3,0-2.4-0.4-3.2-1.3S263.1,166.1,263.1,164.5z M264.8,164.5c0,1.2,0.3,2.1,0.8,2.7
		c0.5,0.6,1.2,0.9,2,0.9c0.8,0,1.4-0.3,2-0.9s0.8-1.5,0.8-2.7c0-1.2-0.3-2-0.8-2.6c-0.5-0.6-1.2-0.9-2-0.9c-0.8,0-1.4,0.3-2,0.9
		S264.8,163.3,264.8,164.5z"/>
	<path d="M273.7,169.2v-9.3h1.4v1.3c0.7-1,1.7-1.5,3-1.5c0.6,0,1.1,0.1,1.6,0.3c0.5,0.2,0.8,0.5,1.1,0.8s0.4,0.7,0.5,1.2
		c0.1,0.3,0.1,0.8,0.1,1.5v5.7h-1.6v-5.7c0-0.6-0.1-1.1-0.2-1.4s-0.3-0.6-0.7-0.8c-0.3-0.2-0.7-0.3-1.1-0.3c-0.7,0-1.3,0.2-1.7,0.6
		s-0.7,1.2-0.7,2.4v5.1H273.7z"/>
</g>
<g>
	<path class="st25" d="M570.8,193.1c1.7,0,3.1-1.4,3.1-3.1c0-1.7-1.4-3.1-3.1-3.1c-1.7,0-3.1,1.4-3.1,3.1
		C567.6,191.7,569,193.1,570.8,193.1"/>
	<path class="st26" d="M578.6,185.2v12.5c0,0-0.3,4.3-4,4.3c-3.8,0-3.8-4.3-3.8-4.3v-5.2"/>
	<path class="st27" d="M591.7,162.8c0,0,4.6-0.7,2.3,5.5s-3.8,9.5-3.8,9.5s-3.5,7.4-11.6,7.4c-8,0-11.6-7.4-11.6-7.4
		s-1.5-3.3-3.8-9.5s2.3-5.5,2.3-5.5"/>
	<path class="st26" d="M606.1,186.6c0-4.6-3.2-8.3-7-8.3h-40.8c-3.9,0-7,3.7-7,8.3v26.1h54.9v-26.1H606.1z"/>
	<line class="st26" x1="562.9" y1="197.4" x2="562.9" y2="212.7"/>
	<line class="st26" x1="594.3" y1="197.4" x2="594.3" y2="212.7"/>
	<path class="st26" d="M566.3,166c1.7,5.1,6.6,8.8,12.3,8.8c5.9,0,10.9-3.9,12.4-9.3"/>
	<path class="st26" d="M592,160.4c0-7.4-6-13.4-13.4-13.4s-13.4,6-13.4,13.4c0,2,0.2,3.9,1,5.7c-0.1-0.6-0.1-1.4-0.1-2
		c0-4,2.1-7.5,5.1-9.8c2.4,2.2,5.6,3.5,9.2,3.5c1,0,2-0.1,2.9-0.3c-0.9-0.7-2.9-3.7-1.9-2.9c2.1,1.7,6.9,2.4,7.6,3
		c0.7,0.7,2,4.3,2,6.8c0,0.5,0,0.9-0.1,1.3C591.6,164,592,162.2,592,160.4z"/>
</g>
<g>
	<g>
		<path class="st26" d="M742.2,257.3c0-4.7-3.2-8.6-7.2-8.6h-41.9c-4,0-7.2,3.8-7.2,8.6v26.8h56.3L742.2,257.3L742.2,257.3z"/>
		<line class="st26" x1="697.9" y1="268.3" x2="697.9" y2="284.1"/>
		<line class="st26" x1="730.2" y1="268.3" x2="730.2" y2="284.1"/>
		<polyline class="st26" points="714.1,284 714.2,270 705.4,248.8 698.9,248.8 698.3,254.3 702.6,254.3 701,260 714.1,270 		"/>
		<polyline class="st26" points="714.2,270 722.9,248.8 729.4,248.8 730.1,254.3 725.8,254.3 727.4,260 714.2,270 		"/>
	</g>
	<g>
		<path class="st26" d="M701.3,236.1c1.8,5.3,6.8,9.1,12.6,9.1c6.1,0,11.2-4,12.8-9.6"/>
		<path class="st26" d="M727.8,230.3c0-7.6-6.2-13.8-13.8-13.8s-13.8,6.2-13.8,13.8c0,2.1,0.2,4.1,1.1,5.8c-0.1-0.6-0.1-1.4-0.1-2
			c0-4.1,2.2-7.7,5.2-10.1c2.5,2.2,5.8,3.6,9.5,3.6c1,0,2-0.1,3-0.3c-1-0.7-3-3.9-2-3c2.1,1.7,7.1,2.4,7.8,3.1c0.7,0.7,2,4.5,2,7
			c0,0.5,0,0.9-0.1,1.4C727.4,234,727.8,232.2,727.8,230.3z"/>
	</g>
</g>
<g>
	<g>
		<path class="st28" d="M741.1,406.6c0-4.7-3.2-8.6-7.2-8.6H692c-4,0-7.2,3.8-7.2,8.6v26.9h56.4v-26.9H741.1z"/>
		<polyline class="st26" points="704.7,398 712.9,409.5 721.1,398 		"/>
		<line class="st26" x1="696.7" y1="417.6" x2="696.7" y2="433.4"/>
		<line class="st26" x1="729.1" y1="417.6" x2="729.1" y2="433.4"/>
		<line class="st26" x1="696.8" y1="426.1" x2="684.7" y2="426.1"/>
		<line class="st26" x1="741.1" y1="426.1" x2="729.1" y2="426.1"/>
	</g>
	<path class="st28" d="M723.5,397.8c4.9,0,8.5-4.4,8.5-4.4c-2.9-1.3-3.7-7.1-3.7-7.1v-7c0-8.6-6.9-15.5-15.5-15.5
		s-15.5,6.9-15.5,15.5v7c0,0-0.7,5.7-3.7,7.1c0,0,3.6,4.4,8.5,4.4H723.5z"/>
	<path class="st28" d="M716.7,368c0,0-6.4,10.8-17.2,12.1c0.3,7.1,6.2,12.8,13.4,12.8c7.4,0,13.4-6,13.4-13.4c0-0.5,0-1.1-0.1-1.6
		C720.9,375.7,716.7,368,716.7,368z"/>
</g>
<g>
	<g>
		<path class="st28" d="M471.1,406.6c0-4.7-3.2-8.6-7.2-8.6H422c-4,0-7.2,3.8-7.2,8.6v26.9h56.4L471.1,406.6L471.1,406.6z"/>
		<polyline class="st26" points="434.7,398 442.9,409.5 451.1,398 		"/>
		<line class="st26" x1="426.7" y1="417.6" x2="426.7" y2="433.4"/>
		<line class="st26" x1="459.1" y1="417.6" x2="459.1" y2="433.4"/>
		<line class="st26" x1="426.8" y1="426.1" x2="414.7" y2="426.1"/>
		<line class="st26" x1="471.1" y1="426.1" x2="459.1" y2="426.1"/>
	</g>
	<path class="st28" d="M453.5,397.8c4.9,0,8.5-4.4,8.5-4.4c-2.9-1.3-3.7-7.1-3.7-7.1v-7c0-8.6-6.9-15.5-15.5-15.5
		s-15.5,6.9-15.5,15.5v7c0,0-0.7,5.7-3.7,7.1c0,0,3.6,4.4,8.5,4.4H453.5z"/>
	<path class="st28" d="M446.7,368c0,0-6.4,10.8-17.2,12.1c0.3,7.1,6.2,12.8,13.4,12.8c7.4,0,13.4-6,13.4-13.4c0-0.5,0-1.1-0.1-1.6
		C450.9,375.7,446.7,368,446.7,368z"/>
</g>
<g>
	<path class="st29" d="M442.3,245.9c7.2,0,13.1-5.9,13.1-13.1c0-7.2-5.9-13.1-13.1-13.1s-13.1,5.9-13.1,13.1
		C429.3,240,435.1,245.9,442.3,245.9"/>
	<path class="st30" d="M442.3,245.9c7.2,0,13.1-5.9,13.1-13.1c0-7.2-5.9-13.1-13.1-13.1s-13.1,5.9-13.1,13.1
		C429.3,240,435.1,245.9,442.3,245.9z"/>
	<path class="st29" d="M470,257.8c0-4.6-3.2-8.4-7.1-8.4h-41.1c-3.9,0-7.1,3.8-7.1,8.4v26.4H470V257.8z"/>
	<path class="st30" d="M470,257.8c0-4.6-3.2-8.4-7.1-8.4h-41.1c-3.9,0-7.1,3.8-7.1,8.4v26.4H470V257.8z"/>
	<polyline class="st31" points="434.7,249.6 442.3,260.7 450,249.4 	"/>
	<line class="st30" x1="426.5" y1="268.6" x2="426.5" y2="284.1"/>
	<line class="st30" x1="458.2" y1="268.6" x2="458.2" y2="284.1"/>
	<line class="st30" x1="426.5" y1="277" x2="414.7" y2="277"/>
	<line class="st30" x1="470" y1="277" x2="458.2" y2="277"/>
</g>
<g>
	<path class="st29" d="M580.4,486.4c7.2,0,13.1-5.9,13.1-13.1s-5.9-13.1-13.1-13.1c-7.2,0-13.1,5.9-13.1,13.1
		C567.3,480.5,573.2,486.4,580.4,486.4"/>
	<path class="st30" d="M580.4,486.4c7.2,0,13.1-5.9,13.1-13.1s-5.9-13.1-13.1-13.1c-7.2,0-13.1,5.9-13.1,13.1
		C567.3,480.5,573.2,486.4,580.4,486.4z"/>
	<path class="st29" d="M608.1,498.3c0-4.6-3.2-8.4-7.1-8.4h-41.1c-3.9,0-7.1,3.8-7.1,8.4v26.4h55.3L608.1,498.3L608.1,498.3z"/>
	<path class="st30" d="M608.1,498.3c0-4.6-3.2-8.4-7.1-8.4h-41.1c-3.9,0-7.1,3.8-7.1,8.4v26.4h55.3L608.1,498.3L608.1,498.3z"/>
	<polyline class="st31" points="572.8,490.1 580.4,501.2 588.1,489.9 	"/>
	<line class="st30" x1="564.5" y1="509.1" x2="564.5" y2="524.6"/>
	<line class="st30" x1="596.2" y1="509.1" x2="596.2" y2="524.6"/>
	<line class="st30" x1="564.6" y1="517.5" x2="552.8" y2="517.5"/>
	<line class="st30" x1="608" y1="517.5" x2="596.2" y2="517.5"/>
</g>
</svg>
