<?xml version="1.0" encoding="utf-8"?>
<!-- Generator: Adobe Illustrator 24.1.0, SVG Export Plug-In . SVG Version: 6.00 Build 0)  -->
<svg version="1.1" id="Ebene_1" xmlns="http://www.w3.org/2000/svg" xmlns:xlink="http://www.w3.org/1999/xlink" x="0px" y="0px"
	 viewBox="0 0 2100 1400" style="enable-background:new 0 0 2100 1400;" xml:space="preserve">
<style type="text/css">
	.st0{fill:#00B482;stroke:#FFFFFF;stroke-width:4;stroke-miterlimit:10;}
	.st1{fill:#C8C8C8;stroke:#FFFFFF;stroke-width:4;stroke-miterlimit:10;}
	.st2{fill:#FFFFFF;}
	.st3{fill:#00B482;}
	.st4{display:none;}
	.st5{display:inline;}
	.st6{fill:none;stroke:#000000;}
	.st7{fill:none;}
	.st8{fill:#711E82;}
	.st9{font-family:'ArialMT';}
	.st10{font-size:24px;}
	.st11{letter-spacing:-2;}
	.st12{font-size:18px;}
	.st13{font-size:10.494px;}
</style>
<g id="Ebene_1_1_">
	<g>
		<g>
			<g>
				<g>
					<path class="st0" d="M1414.5,777.6L910.3,568.8c57.7-139.2,156.1-237.7,295.4-295.4L1414.5,777.6z"/>
				</g>
			</g>
			<g>
				<g>
					<path class="st0" d="M1414.5,777.6L910.3,986.5c-57.7-139.2-57.7-278.5,0-417.7L1414.5,777.6z"/>
				</g>
			</g>
			<g>
				<g>
					<path class="st0" d="M1414.5,777.6l-208.9,504.2c-139.2-57.7-237.7-156.1-295.4-295.4L1414.5,777.6z"/>
				</g>
			</g>
			<g>
				<g>
					<path class="st1" d="M1414.5,777.6l208.9,504.2c-139.2,57.7-278.5,57.7-417.7,0L1414.5,777.6z"/>
				</g>
			</g>
			<g>
				<g>
					<path class="st1" d="M1414.5,777.6l504.2,208.9c-57.7,139.2-156.1,237.7-295.4,295.4L1414.5,777.6z"/>
				</g>
			</g>
			<g>
				<g>
					<path class="st1" d="M1414.5,777.6l504.2-208.9c57.7,139.2,57.7,278.5,0,417.7L1414.5,777.6z"/>
				</g>
			</g>
			<g>
				<g>
					<path class="st1" d="M1414.5,777.6l208.9-504.2c139.2,57.7,237.7,156.1,295.4,295.4L1414.5,777.6z"/>
				</g>
			</g>
			<g>
				<g>
					<path class="st1" d="M1414.5,777.6l-208.9-504.2c131.1-60.6,278.5-57.7,417.7,0L1414.5,777.6z"/>
				</g>
			</g>
		</g>
	</g>
	<circle class="st2" cx="1414.2" cy="775.8" r="276.4"/>
	<g>
		<path class="st2" d="M1272.9,350.4v-22.9h4.6l5.4,16.2c0.5,1.5,0.9,2.6,1.1,3.4c0.3-0.8,0.7-2.1,1.2-3.7l5.5-15.9h4.1v22.9h-2.9
			v-19.2l-6.7,19.2h-2.7l-6.6-19.5v19.5H1272.9z"/>
		<path class="st2" d="M1300.1,350.4v-22.9h3v22.9H1300.1z"/>
		<path class="st2" d="M1324.8,342.3l3,0.8c-0.6,2.5-1.8,4.4-3.4,5.7c-1.7,1.3-3.7,2-6.1,2c-2.5,0-4.5-0.5-6-1.5s-2.7-2.5-3.5-4.4
			s-1.2-4-1.2-6.1c0-2.4,0.5-4.5,1.4-6.2c0.9-1.8,2.2-3.1,3.9-4c1.7-0.9,3.5-1.4,5.6-1.4c2.3,0,4.2,0.6,5.8,1.8
			c1.6,1.2,2.7,2.8,3.3,4.9l-3,0.7c-0.5-1.7-1.3-2.9-2.3-3.6c-1-0.8-2.3-1.1-3.8-1.1c-1.8,0-3.2,0.4-4.4,1.3c-1.2,0.8-2,2-2.5,3.4
			s-0.7,2.9-0.7,4.4c0,1.9,0.3,3.6,0.9,5.1s1.5,2.5,2.6,3.3c1.2,0.7,2.5,1.1,3.9,1.1c1.7,0,3.1-0.5,4.3-1.5
			C1323.6,345.7,1324.4,344.3,1324.8,342.3z"/>
		<path class="st2" d="M1331.6,350.4v-22.9h10.2c2,0,3.6,0.2,4.7,0.6s1.9,1.1,2.5,2.2c0.6,1,1,2.2,1,3.5c0,1.6-0.5,3-1.6,4.1
			s-2.7,1.8-4.9,2.1c0.8,0.4,1.4,0.8,1.8,1.1c0.9,0.8,1.7,1.8,2.5,3l4,6.2h-3.8l-3-4.8c-0.9-1.4-1.6-2.4-2.2-3.2
			c-0.6-0.7-1.1-1.2-1.5-1.5c-0.5-0.3-0.9-0.5-1.4-0.6c-0.3-0.1-0.9-0.1-1.7-0.1h-3.5v10.2L1331.6,350.4L1331.6,350.4z
			 M1334.7,337.6h6.5c1.4,0,2.5-0.1,3.2-0.4c0.8-0.3,1.4-0.7,1.8-1.4c0.4-0.6,0.6-1.3,0.6-2.1c0-1.1-0.4-2-1.2-2.7
			c-0.8-0.7-2-1-3.7-1h-7.2L1334.7,337.6L1334.7,337.6z"/>
		<path class="st2" d="M1353.8,339.2c0-3.8,1-6.8,3.1-8.9c2-2.2,4.7-3.2,7.9-3.2c2.1,0,4,0.5,5.7,1.5s3,2.4,3.9,4.2
			c0.9,1.8,1.3,3.9,1.3,6.1c0,2.3-0.5,4.4-1.4,6.2c-0.9,1.8-2.3,3.2-4,4.2c-1.7,0.9-3.6,1.4-5.6,1.4c-2.2,0-4.1-0.5-5.8-1.6
			c-1.7-1-3-2.5-3.9-4.3C1354.2,343.1,1353.8,341.2,1353.8,339.2z M1356.9,339.3c0,2.8,0.7,4.9,2.2,6.5s3.3,2.4,5.6,2.4
			c2.3,0,4.2-0.8,5.6-2.4c1.5-1.6,2.2-3.9,2.2-6.8c0-1.9-0.3-3.5-0.9-4.9s-1.6-2.5-2.8-3.2c-1.2-0.8-2.6-1.1-4.1-1.1
			c-2.1,0-4,0.7-5.5,2.2C1357.7,333.3,1356.9,335.8,1356.9,339.3z"/>
		<path class="st2" d="M1379.5,350.4v-22.9h8.6c1.8,0,3.2,0.2,4.2,0.7c1.1,0.5,1.9,1.2,2.5,2.1c0.6,1,0.9,2,0.9,3s-0.3,1.9-0.8,2.8
			s-1.3,1.6-2.4,2.1c1.4,0.4,2.5,1.1,3.2,2.1s1.1,2.1,1.1,3.5c0,1.1-0.2,2.1-0.7,3s-1,1.6-1.7,2.1s-1.5,0.9-2.5,1.1
			c-1,0.3-2.2,0.4-3.7,0.4L1379.5,350.4L1379.5,350.4z M1382.5,337.1h5c1.3,0,2.3-0.1,2.9-0.3c0.8-0.2,1.4-0.6,1.7-1.1
			s0.6-1.2,0.6-2s-0.2-1.4-0.5-2c-0.4-0.6-0.9-1-1.6-1.2s-1.8-0.3-3.5-0.3h-4.6V337.1z M1382.5,347.7h5.7c1,0,1.7,0,2.1-0.1
			c0.7-0.1,1.3-0.3,1.8-0.6c0.5-0.3,0.9-0.7,1.2-1.3c0.3-0.6,0.5-1.2,0.5-1.9c0-0.9-0.2-1.6-0.7-2.2c-0.4-0.6-1-1.1-1.8-1.3
			c-0.8-0.3-1.9-0.4-3.4-0.4h-5.3L1382.5,347.7L1382.5,347.7z"/>
		<path class="st2" d="M1401.5,350.4v-22.9h3v22.9H1401.5z"/>
		<path class="st2" d="M1408.9,339.2c0-3.8,1-6.8,3.1-8.9c2-2.2,4.7-3.2,7.9-3.2c2.1,0,4,0.5,5.7,1.5s3,2.4,3.9,4.2
			c0.9,1.8,1.3,3.9,1.3,6.1c0,2.3-0.5,4.4-1.4,6.2c-0.9,1.8-2.3,3.2-4,4.2c-1.7,0.9-3.6,1.4-5.6,1.4c-2.2,0-4.1-0.5-5.8-1.6
			c-1.7-1-3-2.5-3.9-4.3C1409.4,343.1,1408.9,341.2,1408.9,339.2z M1412,339.3c0,2.8,0.7,4.9,2.2,6.5s3.3,2.4,5.6,2.4
			c2.3,0,4.2-0.8,5.6-2.4c1.5-1.6,2.2-3.9,2.2-6.8c0-1.9-0.3-3.5-0.9-4.9s-1.6-2.5-2.8-3.2c-1.2-0.8-2.6-1.1-4.1-1.1
			c-2.1,0-4,0.7-5.5,2.2C1412.8,333.3,1412,335.8,1412,339.3z"/>
		<path class="st2" d="M1434.6,350.4v-22.9h3v20.2h11.3v2.7L1434.6,350.4L1434.6,350.4z"/>
		<path class="st2" d="M1451.6,339.2c0-3.8,1-6.8,3.1-8.9c2-2.2,4.7-3.2,7.9-3.2c2.1,0,4,0.5,5.7,1.5s3,2.4,3.9,4.2
			c0.9,1.8,1.3,3.9,1.3,6.1c0,2.3-0.5,4.4-1.4,6.2c-0.9,1.8-2.3,3.2-4,4.2c-1.7,0.9-3.6,1.4-5.6,1.4c-2.2,0-4.1-0.5-5.8-1.6
			c-1.7-1-3-2.5-3.9-4.3C1452,343.1,1451.6,341.2,1451.6,339.2z M1454.7,339.3c0,2.8,0.7,4.9,2.2,6.5s3.3,2.4,5.6,2.4
			c2.3,0,4.2-0.8,5.6-2.4c1.5-1.6,2.2-3.9,2.2-6.8c0-1.9-0.3-3.5-0.9-4.9s-1.6-2.5-2.8-3.2c-1.2-0.8-2.6-1.1-4.1-1.1
			c-2.1,0-4,0.7-5.5,2.2C1455.5,333.3,1454.7,335.8,1454.7,339.3z"/>
		<path class="st2" d="M1488.1,341.4v-2.7h9.7v8.5c-1.5,1.2-3,2.1-4.6,2.7s-3.2,0.9-4.9,0.9c-2.2,0-4.3-0.5-6.1-1.4
			c-1.8-1-3.2-2.4-4.2-4.2c-0.9-1.8-1.4-3.9-1.4-6.1s0.5-4.3,1.4-6.2c0.9-1.9,2.3-3.4,4-4.3s3.8-1.4,6-1.4c1.7,0,3.2,0.3,4.5,0.8
			s2.4,1.3,3.1,2.2c0.8,1,1.3,2.2,1.7,3.8l-2.7,0.8c-0.3-1.2-0.8-2.1-1.3-2.8c-0.5-0.7-1.2-1.2-2.2-1.6c-0.9-0.4-2-0.6-3.2-0.6
			c-1.4,0-2.6,0.2-3.6,0.6s-1.8,1-2.4,1.7s-1.1,1.4-1.4,2.3c-0.6,1.4-0.9,3-0.9,4.6c0,2,0.4,3.8,1.1,5.1s1.7,2.4,3.1,3.1
			c1.3,0.7,2.8,1,4.3,1c1.3,0,2.6-0.3,3.8-0.8c1.2-0.5,2.2-1,2.8-1.6v-4.3h-6.6V341.4z"/>
		<path class="st2" d="M1502.8,350.4v-22.9h3v22.9H1502.8z"/>
		<path class="st2" d="M1527.5,342.3l3,0.8c-0.6,2.5-1.8,4.4-3.4,5.7c-1.7,1.3-3.7,2-6.1,2c-2.5,0-4.5-0.5-6-1.5s-2.7-2.5-3.5-4.4
			s-1.2-4-1.2-6.1c0-2.4,0.5-4.5,1.4-6.2c0.9-1.8,2.2-3.1,3.9-4c1.7-0.9,3.5-1.4,5.6-1.4c2.3,0,4.2,0.6,5.8,1.8
			c1.6,1.2,2.7,2.8,3.3,4.9l-3,0.7c-0.5-1.7-1.3-2.9-2.3-3.6c-1-0.8-2.3-1.1-3.8-1.1c-1.8,0-3.2,0.4-4.4,1.3c-1.2,0.8-2,2-2.5,3.4
			s-0.7,2.9-0.7,4.4c0,1.9,0.3,3.6,0.9,5.1s1.5,2.5,2.6,3.3c1.2,0.7,2.5,1.1,3.9,1.1c1.7,0,3.1-0.5,4.3-1.5
			C1526.3,345.7,1527.1,344.3,1527.5,342.3z"/>
		<path class="st2" d="M1531.8,350.4l8.8-22.9h3.3l9.4,22.9h-3.5l-2.7-6.9h-9.6l-2.5,6.9H1531.8z M1538.4,341h7.8l-2.4-6.3
			c-0.7-1.9-1.3-3.5-1.6-4.8c-0.3,1.5-0.7,2.9-1.2,4.4L1538.4,341z"/>
		<path class="st2" d="M1555.5,350.4v-22.9h3v20.2h11.3v2.7L1555.5,350.4L1555.5,350.4z"/>
		<path class="st2" d="M1307.1,384.3l3,0.8c-0.6,2.5-1.8,4.4-3.4,5.7c-1.7,1.3-3.7,2-6.1,2c-2.5,0-4.5-0.5-6-1.5s-2.7-2.5-3.5-4.4
			s-1.2-4-1.2-6.1c0-2.4,0.5-4.5,1.4-6.2c0.9-1.8,2.2-3.1,3.9-4c1.7-0.9,3.5-1.4,5.6-1.4c2.3,0,4.2,0.6,5.8,1.8
			c1.6,1.2,2.7,2.8,3.3,4.9l-3,0.7c-0.5-1.7-1.3-2.9-2.3-3.6c-1-0.8-2.3-1.1-3.8-1.1c-1.8,0-3.2,0.4-4.4,1.3c-1.2,0.8-2,2-2.5,3.4
			s-0.7,2.9-0.7,4.4c0,1.9,0.3,3.6,0.9,5.1s1.5,2.5,2.6,3.3c1.2,0.7,2.5,1.1,3.9,1.1c1.7,0,3.1-0.5,4.3-1.5
			C1305.9,387.7,1306.7,386.3,1307.1,384.3z"/>
		<path class="st2" d="M1312.9,381.2c0-3.8,1-6.8,3.1-8.9c2-2.2,4.7-3.2,7.9-3.2c2.1,0,4,0.5,5.7,1.5s3,2.4,3.9,4.2
			c0.9,1.8,1.3,3.9,1.3,6.1c0,2.3-0.5,4.4-1.4,6.2c-0.9,1.8-2.3,3.2-4,4.2c-1.7,0.9-3.6,1.4-5.6,1.4c-2.2,0-4.1-0.5-5.8-1.6
			c-1.7-1-3-2.5-3.9-4.3C1313.4,385.1,1312.9,383.2,1312.9,381.2z M1316.1,381.3c0,2.8,0.7,4.9,2.2,6.5s3.3,2.4,5.6,2.4
			c2.3,0,4.2-0.8,5.6-2.4c1.5-1.6,2.2-3.9,2.2-6.8c0-1.9-0.3-3.5-0.9-4.9s-1.6-2.5-2.8-3.2c-1.2-0.8-2.6-1.1-4.1-1.1
			c-2.1,0-4,0.7-5.5,2.2C1316.8,375.3,1316.1,377.8,1316.1,381.3z"/>
		<path class="st2" d="M1338.7,392.4v-22.9h3.1l12,18v-18h2.9v22.9h-3.1l-12-18v18H1338.7z"/>
		<path class="st2" d="M1367.7,392.4v-20.2h-7.5v-2.7h18.2v2.7h-7.6v20.2H1367.7z"/>
		<path class="st2" d="M1376.5,392.4l8.8-22.9h3.3l9.4,22.9h-3.5l-2.7-6.9h-9.6l-2.5,6.9H1376.5z M1383.1,383h7.8l-2.4-6.3
			c-0.7-1.9-1.3-3.5-1.6-4.8c-0.3,1.5-0.7,2.9-1.2,4.4L1383.1,383z"/>
		<path class="st2" d="M1400.3,392.4v-22.9h4.6l5.4,16.2c0.5,1.5,0.9,2.6,1.1,3.4c0.3-0.8,0.7-2.1,1.2-3.7l5.5-15.9h4.1v22.9h-2.9
			v-19.2l-6.7,19.2h-2.7l-6.6-19.5v19.5H1400.3z"/>
		<path class="st2" d="M1427.6,392.4v-22.9h3v22.9H1427.6z"/>
		<path class="st2" d="M1435.9,392.4v-22.9h3.1l12,18v-18h2.9v22.9h-3.1l-12-18v18H1435.9z"/>
		<path class="st2" d="M1456.5,392.4l8.8-22.9h3.3l9.4,22.9h-3.5l-2.7-6.9h-9.6l-2.5,6.9H1456.5z M1463.1,383h7.8l-2.4-6.3
			c-0.7-1.9-1.3-3.5-1.6-4.8c-0.3,1.5-0.7,2.9-1.2,4.4L1463.1,383z"/>
		<path class="st2" d="M1483.8,392.4v-20.2h-7.5v-2.7h18.2v2.7h-7.6v20.2H1483.8z"/>
		<path class="st2" d="M1498.1,392.4v-22.9h3v22.9H1498.1z"/>
		<path class="st2" d="M1505.5,381.2c0-3.8,1-6.8,3.1-8.9c2-2.2,4.7-3.2,7.9-3.2c2.1,0,4,0.5,5.7,1.5s3,2.4,3.9,4.2
			c0.9,1.8,1.3,3.9,1.3,6.1c0,2.3-0.5,4.4-1.4,6.2c-0.9,1.8-2.3,3.2-4,4.2c-1.7,0.9-3.6,1.4-5.6,1.4c-2.2,0-4.1-0.5-5.8-1.6
			c-1.7-1-3-2.5-3.9-4.3C1506,385.1,1505.5,383.2,1505.5,381.2z M1508.6,381.3c0,2.8,0.7,4.9,2.2,6.5s3.3,2.4,5.6,2.4
			c2.3,0,4.2-0.8,5.6-2.4c1.5-1.6,2.2-3.9,2.2-6.8c0-1.9-0.3-3.5-0.9-4.9s-1.6-2.5-2.8-3.2c-1.2-0.8-2.6-1.1-4.1-1.1
			c-2.1,0-4,0.7-5.5,2.2C1509.4,375.3,1508.6,377.8,1508.6,381.3z"/>
		<path class="st2" d="M1531.3,392.4v-22.9h3.1l12,18v-18h2.9v22.9h-3.1l-12-18v18H1531.3z"/>
	</g>
	<g>
		<path class="st3" d="M1198,787.6v-50.1h18.9c3.3,0,5.9,0.2,7.6,0.5c2.5,0.4,4.5,1.2,6.2,2.3c1.7,1.2,3,2.8,4,4.8
			c1,2.1,1.5,4.4,1.5,6.8c0,4.3-1.4,7.9-4.1,10.8c-2.7,3-7.6,4.4-14.7,4.4h-12.9v20.4L1198,787.6L1198,787.6z M1204.6,761.3h13
			c4.3,0,7.3-0.8,9.1-2.4c1.8-1.6,2.7-3.8,2.7-6.7c0-2.1-0.5-3.9-1.6-5.4s-2.5-2.5-4.2-3c-1.1-0.3-3.2-0.4-6.2-0.4h-12.8V761.3z"/>
		<path class="st3" d="M1244.8,787.6v-50.1h22.2c4.5,0,7.9,0.5,10.2,1.4s4.2,2.5,5.6,4.8s2.1,4.8,2.1,7.6c0,3.6-1.2,6.6-3.5,9
			s-5.9,4-10.7,4.6c1.8,0.8,3.1,1.7,4,2.5c1.9,1.8,3.8,4,5.5,6.7l8.7,13.6h-8.3l-6.6-10.4c-1.9-3-3.5-5.3-4.8-6.9
			c-1.3-1.6-2.4-2.7-3.4-3.3s-2-1.1-3-1.3c-0.8-0.2-2-0.2-3.7-0.2h-7.7v22.3h-6.6V787.6z M1251.4,759.6h14.3c3,0,5.4-0.3,7.1-0.9
			s3-1.6,3.9-3s1.3-2.9,1.3-4.5c0-2.4-0.9-4.3-2.6-5.8s-4.4-2.3-8.2-2.3h-15.9L1251.4,759.6L1251.4,759.6z"/>
		<path class="st3" d="M1295.4,787.6v-50.1h36.2v5.9H1302v15.3h27.7v5.9H1302v17.1h30.8v5.9L1295.4,787.6L1295.4,787.6z"/>
		<path class="st3" d="M1356.2,787.6l-19.4-50.1h7.2l13,36.4c1,2.9,1.9,5.7,2.6,8.2c0.8-2.7,1.7-5.5,2.7-8.2l13.5-36.4h6.8
			l-19.6,50.1H1356.2z"/>
		<path class="st3" d="M1388.8,787.6v-50.1h36.2v5.9h-29.6v15.3h27.7v5.9h-27.7v17.1h30.8v5.9L1388.8,787.6L1388.8,787.6z"/>
		<path class="st3" d="M1435.2,787.6v-50.1h6.8l26.3,39.3v-39.3h6.4v50.1h-6.8l-26.3-39.4v39.4H1435.2z"/>
		<path class="st3" d="M1498.6,787.6v-44.2h-16.5v-5.9h39.7v5.9h-16.6v44.2H1498.6z"/>
		<path class="st3" d="M1529.7,787.6v-50.1h6.6v50.1H1529.7z"/>
		<path class="st3" d="M1548,787.6v-50.1h6.8l26.3,39.3v-39.3h6.4v50.1h-6.8l-26.3-39.4v39.4H1548z"/>
		<path class="st3" d="M1622.1,767.9V762h21.2v18.6c-3.3,2.6-6.6,4.6-10.1,5.9c-3.5,1.3-7,2-10.7,2c-4.9,0-9.4-1.1-13.4-3.2
			c-4-2.1-7.1-5.2-9.1-9.1c-2.1-4-3.1-8.4-3.1-13.4c0-4.9,1-9.4,3.1-13.7c2-4.2,5-7.4,8.8-9.4s8.2-3.1,13.2-3.1
			c3.6,0,6.9,0.6,9.8,1.8s5.2,2.8,6.9,4.9c1.7,2.1,2.9,4.8,3.8,8.2l-6,1.6c-0.8-2.6-1.7-4.6-2.8-6c-1.1-1.5-2.7-2.6-4.8-3.5
			c-2.1-0.9-4.4-1.3-6.9-1.3c-3,0-5.7,0.5-7.9,1.4c-2.2,0.9-4,2.1-5.3,3.6s-2.4,3.2-3.2,5c-1.3,3.1-1.9,6.5-1.9,10.1
			c0,4.5,0.8,8.2,2.3,11.2s3.8,5.2,6.7,6.7s6.1,2.2,9.4,2.2c2.9,0,5.7-0.6,8.4-1.7s4.8-2.3,6.2-3.5V768L1622.1,767.9L1622.1,767.9z"
			/>
		<path class="st3" d="M1320.6,871.6v-50.1h22.2c4.5,0,7.9,0.5,10.2,1.4s4.2,2.5,5.6,4.8s2.1,4.8,2.1,7.6c0,3.6-1.2,6.6-3.5,9
			s-5.9,4-10.7,4.6c1.8,0.8,3.1,1.7,4,2.5c1.9,1.8,3.8,4,5.5,6.7l8.7,13.6h-8.3l-6.6-10.4c-1.9-3-3.5-5.3-4.8-6.9
			c-1.3-1.6-2.4-2.7-3.4-3.3s-2-1.1-3-1.3c-0.8-0.2-2-0.2-3.7-0.2h-7.7v22.3h-6.6V871.6z M1327.2,843.6h14.3c3,0,5.4-0.3,7.1-0.9
			s3-1.6,3.9-3s1.3-2.9,1.3-4.5c0-2.4-0.9-4.3-2.6-5.8s-4.4-2.3-8.2-2.3h-15.9L1327.2,843.6L1327.2,843.6z"/>
		<path class="st3" d="M1372.2,871.6v-50.1h6.6v50.1H1372.2z"/>
		<path class="st3" d="M1388.2,855.5l6.3-0.5c0.3,2.5,1,4.6,2.1,6.2c1.1,1.6,2.8,2.9,5,3.9c2.3,1,4.8,1.5,7.7,1.5
			c2.5,0,4.8-0.4,6.7-1.1c1.9-0.8,3.4-1.8,4.3-3.1s1.4-2.7,1.4-4.3s-0.5-2.9-1.4-4.1c-0.9-1.2-2.4-2.2-4.5-3
			c-1.3-0.5-4.3-1.3-8.9-2.4c-4.6-1.1-7.8-2.1-9.7-3.1c-2.4-1.3-4.2-2.8-5.3-4.7s-1.8-3.9-1.8-6.2c0-2.5,0.7-4.9,2.2-7.1
			s3.5-3.9,6.3-5s5.8-1.7,9.2-1.7c3.7,0,7,0.6,9.8,1.8s5,3,6.5,5.3s2.3,5,2.5,7.9l-6.4,0.5c-0.3-3.2-1.5-5.6-3.5-7.2
			c-2-1.6-4.9-2.4-8.7-2.4c-4,0-6.9,0.7-8.8,2.2c-1.8,1.5-2.8,3.2-2.8,5.3c0,1.8,0.6,3.3,1.9,4.4c1.3,1.2,4.6,2.4,10,3.6
			c5.4,1.2,9.1,2.3,11.1,3.2c2.9,1.3,5.1,3,6.5,5.1s2.1,4.4,2.1,7.1c0,2.7-0.8,5.2-2.3,7.5c-1.5,2.4-3.7,4.2-6.6,5.5s-6.1,2-9.7,2
			c-4.5,0-8.3-0.7-11.4-2s-5.5-3.3-7.2-6C1389.2,861.8,1388.3,858.8,1388.2,855.5z"/>
		<path class="st3" d="M1436.9,871.6v-50.1h6.6v24.8l24.9-24.8h9l-21,20.3l21.9,29.8h-8.8l-17.8-25.4l-8.2,8v17.4H1436.9z"/>
		<path class="st3" d="M1481.6,855.5l6.3-0.5c0.3,2.5,1,4.6,2.1,6.2c1.1,1.6,2.8,2.9,5,3.9c2.3,1,4.8,1.5,7.7,1.5
			c2.5,0,4.8-0.4,6.7-1.1c1.9-0.8,3.4-1.8,4.3-3.1s1.4-2.7,1.4-4.3s-0.5-2.9-1.4-4.1c-0.9-1.2-2.4-2.2-4.5-3
			c-1.3-0.5-4.3-1.3-8.9-2.4c-4.6-1.1-7.8-2.1-9.7-3.1c-2.4-1.3-4.2-2.8-5.3-4.7s-1.8-3.9-1.8-6.2c0-2.5,0.7-4.9,2.2-7.1
			s3.5-3.9,6.3-5s5.8-1.7,9.2-1.7c3.7,0,7,0.6,9.8,1.8s5,3,6.5,5.3s2.3,5,2.5,7.9l-6.4,0.5c-0.3-3.2-1.5-5.6-3.5-7.2
			c-2-1.6-4.9-2.4-8.7-2.4c-4,0-6.9,0.7-8.8,2.2c-1.8,1.5-2.8,3.2-2.8,5.3c0,1.8,0.6,3.3,1.9,4.4c1.3,1.2,4.6,2.4,10,3.6
			c5.4,1.2,9.1,2.3,11.1,3.2c2.9,1.3,5.1,3,6.5,5.1s2.1,4.4,2.1,7.1c0,2.7-0.8,5.2-2.3,7.5c-1.5,2.4-3.7,4.2-6.6,5.5s-6.1,2-9.7,2
			c-4.5,0-8.3-0.7-11.4-2s-5.5-3.3-7.2-6C1482.6,861.8,1481.7,858.8,1481.6,855.5z"/>
	</g>
	<g>
		<path class="st2" d="M1365.5,1170.4v-22.9h7.9c1.8,0,3.1,0.1,4.1,0.3c1.3,0.3,2.4,0.8,3.4,1.6c1.2,1,2.1,2.3,2.7,3.9
			s0.9,3.4,0.9,5.4c0,1.7-0.2,3.3-0.6,4.6s-0.9,2.5-1.6,3.3c-0.6,0.9-1.3,1.6-2.1,2.1c-0.8,0.5-1.7,0.9-2.7,1.1
			c-1.1,0.3-2.3,0.4-3.7,0.4h-8.3V1170.4z M1368.5,1167.7h4.9c1.5,0,2.7-0.1,3.6-0.4s1.5-0.7,2.1-1.2c0.7-0.7,1.3-1.7,1.7-2.9
			c0.4-1.2,0.6-2.7,0.6-4.4c0-2.4-0.4-4.2-1.2-5.5c-0.8-1.3-1.7-2.1-2.9-2.6c-0.8-0.3-2.1-0.5-3.9-0.5h-4.8L1368.5,1167.7
			L1368.5,1167.7z"/>
		<path class="st2" d="M1388.6,1170.4v-22.9h10.2c2,0,3.6,0.2,4.7,0.6s1.9,1.1,2.5,2.2c0.6,1,1,2.2,1,3.5c0,1.6-0.5,3-1.6,4.1
			s-2.7,1.8-4.9,2.1c0.8,0.4,1.4,0.8,1.8,1.1c0.9,0.8,1.7,1.8,2.5,3l4,6.2h-3.8l-3-4.8c-0.9-1.4-1.6-2.4-2.2-3.2
			c-0.6-0.7-1.1-1.2-1.5-1.5s-0.9-0.5-1.4-0.6c-0.3-0.1-0.9-0.1-1.7-0.1h-3.5v10.2h-3.1V1170.4z M1391.7,1157.6h6.5
			c1.4,0,2.5-0.1,3.2-0.4s1.4-0.7,1.8-1.4s0.6-1.3,0.6-2.1c0-1.1-0.4-2-1.2-2.7c-0.8-0.7-2-1-3.7-1h-7.2L1391.7,1157.6
			L1391.7,1157.6z"/>
		<path class="st2" d="M1426.7,1147.5h3v13.2c0,2.3-0.3,4.1-0.8,5.5s-1.5,2.5-2.8,3.3s-3.1,1.3-5.4,1.3c-2.1,0-3.9-0.4-5.3-1.1
			s-2.3-1.8-2.9-3.2c-0.6-1.4-0.9-3.3-0.9-5.7v-13.2h3v13.2c0,2,0.2,3.5,0.6,4.4s1,1.7,1.9,2.2s2,0.8,3.3,0.8c2.2,0,3.8-0.5,4.8-1.5
			c0.9-1,1.4-3,1.4-5.8v-13.4H1426.7z"/>
		<path class="st2" d="M1445.5,1161.4v-2.7h9.7v8.5c-1.5,1.2-3,2.1-4.6,2.7s-3.2,0.9-4.9,0.9c-2.2,0-4.3-0.5-6.1-1.4
			c-1.8-1-3.2-2.4-4.2-4.2s-1.4-3.9-1.4-6.1s0.5-4.3,1.4-6.2c0.9-1.9,2.3-3.4,4-4.3s3.8-1.4,6-1.4c1.7,0,3.2,0.3,4.5,0.8
			s2.4,1.3,3.1,2.2c0.8,1,1.3,2.2,1.7,3.8l-2.7,0.8c-0.3-1.2-0.8-2.1-1.3-2.8c-0.5-0.7-1.2-1.2-2.2-1.6c-0.9-0.4-2-0.6-3.2-0.6
			c-1.4,0-2.6,0.2-3.6,0.6s-1.8,1-2.4,1.7s-1.1,1.4-1.4,2.3c-0.6,1.4-0.9,3-0.9,4.6c0,2,0.4,3.8,1.1,5.1s1.7,2.4,3.1,3.1
			s2.8,1,4.3,1c1.3,0,2.6-0.3,3.8-0.8s2.2-1,2.8-1.6v-4.3L1445.5,1161.4L1445.5,1161.4z"/>
		<path class="st2" d="M1278,1212.4v-22.9h3v22.9H1278z"/>
		<path class="st2" d="M1286.3,1212.4v-22.9h3.1l12,18v-18h2.9v22.9h-3.1l-12-18v18H1286.3z"/>
		<path class="st2" d="M1325.8,1204.3l3,0.8c-0.6,2.5-1.8,4.4-3.4,5.7c-1.7,1.3-3.7,2-6.1,2c-2.5,0-4.5-0.5-6-1.5s-2.7-2.5-3.5-4.4
			s-1.2-4-1.2-6.1c0-2.4,0.5-4.5,1.4-6.2c0.9-1.8,2.2-3.1,3.9-4c1.7-0.9,3.5-1.4,5.6-1.4c2.3,0,4.2,0.6,5.8,1.8s2.7,2.8,3.3,4.9
			l-3,0.7c-0.5-1.7-1.3-2.9-2.3-3.6c-1-0.8-2.3-1.1-3.8-1.1c-1.8,0-3.2,0.4-4.4,1.3c-1.2,0.8-2,2-2.5,3.4s-0.7,2.9-0.7,4.4
			c0,1.9,0.3,3.6,0.9,5.1s1.5,2.5,2.6,3.3c1.2,0.7,2.5,1.1,3.9,1.1c1.7,0,3.1-0.5,4.3-1.5
			C1324.6,1207.7,1325.4,1206.3,1325.8,1204.3z"/>
		<path class="st2" d="M1331.7,1201.2c0-3.8,1-6.8,3.1-8.9c2-2.2,4.7-3.2,7.9-3.2c2.1,0,4,0.5,5.7,1.5s3,2.4,3.9,4.2
			s1.3,3.9,1.3,6.1c0,2.3-0.5,4.4-1.4,6.2s-2.3,3.2-4,4.2s-3.6,1.4-5.6,1.4c-2.2,0-4.1-0.5-5.8-1.6c-1.7-1-3-2.5-3.9-4.3
			S1331.7,1203.2,1331.7,1201.2z M1334.8,1201.3c0,2.8,0.7,4.9,2.2,6.5s3.3,2.4,5.6,2.4c2.3,0,4.2-0.8,5.6-2.4
			c1.5-1.6,2.2-3.9,2.2-6.8c0-1.9-0.3-3.5-0.9-4.9s-1.6-2.5-2.8-3.2c-1.2-0.8-2.6-1.1-4.1-1.1c-2.1,0-4,0.7-5.5,2.2
			S1334.8,1197.8,1334.8,1201.3z"/>
		<path class="st2" d="M1357.4,1212.4v-22.9h4.6l5.4,16.2c0.5,1.5,0.9,2.6,1.1,3.4c0.3-0.8,0.7-2.1,1.2-3.7l5.5-15.9h4.1v22.9h-2.9
			v-19.2l-6.7,19.2h-2.7l-6.6-19.5v19.5H1357.4z"/>
		<path class="st2" d="M1384.1,1212.4v-22.9h8.6c1.5,0,2.7,0.1,3.5,0.2c1.1,0.2,2.1,0.5,2.8,1.1c0.8,0.5,1.4,1.3,1.8,2.2
			c0.5,0.9,0.7,2,0.7,3.1c0,1.9-0.6,3.6-1.9,4.9c-1.2,1.3-3.5,2-6.7,2h-5.9v9.3h-2.9V1212.4z M1387.2,1200.3h5.9
			c2,0,3.3-0.4,4.2-1.1c0.8-0.7,1.2-1.8,1.2-3.1c0-1-0.2-1.8-0.7-2.5s-1.1-1.1-1.9-1.4c-0.5-0.1-1.5-0.2-2.8-0.2h-5.9L1387.2,1200.3
			L1387.2,1200.3z"/>
		<path class="st2" d="M1400.6,1212.4l8.8-22.9h3.3l9.4,22.9h-3.5l-2.7-6.9h-9.6l-2.5,6.9H1400.6z M1407.2,1203h7.8l-2.4-6.3
			c-0.7-1.9-1.3-3.5-1.6-4.8c-0.3,1.5-0.7,2.9-1.2,4.4L1407.2,1203z"/>
		<path class="st2" d="M1427.9,1212.4v-20.2h-7.5v-2.7h18.2v2.7h-7.6v20.2H1427.9z"/>
		<path class="st2" d="M1442.1,1212.4v-22.9h3v22.9H1442.1z"/>
		<path class="st2" d="M1450.4,1212.4v-22.9h8.6c1.8,0,3.2,0.2,4.2,0.7c1.1,0.5,1.9,1.2,2.5,2.1c0.6,1,0.9,2,0.9,3s-0.3,1.9-0.8,2.8
			s-1.3,1.6-2.4,2.1c1.4,0.4,2.5,1.1,3.2,2.1s1.1,2.1,1.1,3.5c0,1.1-0.2,2.1-0.7,3s-1,1.6-1.7,2.1s-1.5,0.9-2.5,1.1
			c-1,0.3-2.2,0.4-3.7,0.4L1450.4,1212.4L1450.4,1212.4z M1453.4,1199.1h5c1.3,0,2.3-0.1,2.9-0.3c0.8-0.2,1.4-0.6,1.7-1.1
			s0.6-1.2,0.6-2s-0.2-1.4-0.5-2c-0.4-0.6-0.9-1-1.6-1.2s-1.8-0.3-3.5-0.3h-4.6V1199.1z M1453.4,1209.7h5.7c1,0,1.7,0,2.1-0.1
			c0.7-0.1,1.3-0.3,1.8-0.6s0.9-0.7,1.2-1.3c0.3-0.6,0.5-1.2,0.5-1.9c0-0.9-0.2-1.6-0.7-2.2s-1-1.1-1.8-1.3
			c-0.8-0.3-1.9-0.4-3.4-0.4h-5.3L1453.4,1209.7L1453.4,1209.7z"/>
		<path class="st2" d="M1472.4,1212.4v-22.9h3v22.9H1472.4z"/>
		<path class="st2" d="M1480.6,1212.4v-22.9h3v20.2h11.3v2.7L1480.6,1212.4L1480.6,1212.4z"/>
		<path class="st2" d="M1499,1212.4v-22.9h3v22.9H1499z"/>
		<path class="st2" d="M1513.2,1212.4v-20.2h-7.5v-2.7h18.2v2.7h-7.6v20.2H1513.2z"/>
		<path class="st2" d="M1533.4,1212.4v-9.7l-8.8-13.2h3.7l4.5,6.9c0.8,1.3,1.6,2.6,2.3,3.9c0.7-1.2,1.5-2.5,2.5-4l4.4-6.7h3.5
			l-9.1,13.2v9.7h-3V1212.4z"/>
	</g>
	<g>
		<path class="st2" d="M1612,477.4v-22.9h8.6c1.5,0,2.7,0.1,3.5,0.2c1.1,0.2,2.1,0.5,2.8,1.1c0.8,0.5,1.4,1.3,1.8,2.2
			c0.5,0.9,0.7,2,0.7,3.1c0,1.9-0.6,3.6-1.9,4.9c-1.2,1.3-3.5,2-6.7,2h-5.9v9.3L1612,477.4L1612,477.4z M1615.1,465.3h5.9
			c2,0,3.3-0.4,4.2-1.1c0.8-0.7,1.2-1.8,1.2-3.1c0-1-0.2-1.8-0.7-2.5s-1.1-1.1-1.9-1.4c-0.5-0.1-1.5-0.2-2.8-0.2h-5.9L1615.1,465.3
			L1615.1,465.3z"/>
		<path class="st2" d="M1628.5,477.4l8.8-22.9h3.3l9.4,22.9h-3.5l-2.7-6.9h-9.6l-2.5,6.9H1628.5z M1635.1,468h7.8l-2.4-6.3
			c-0.7-1.9-1.3-3.5-1.6-4.8c-0.3,1.5-0.7,2.9-1.2,4.4L1635.1,468z"/>
		<path class="st2" d="M1652.4,477.4v-22.9h10.2c2,0,3.6,0.2,4.7,0.6s1.9,1.1,2.5,2.2c0.6,1,1,2.2,1,3.5c0,1.6-0.5,3-1.6,4.1
			s-2.7,1.8-4.9,2.1c0.8,0.4,1.4,0.8,1.8,1.1c0.9,0.8,1.7,1.8,2.5,3l4,6.2h-3.8l-3-4.8c-0.9-1.4-1.6-2.4-2.2-3.2
			c-0.6-0.7-1.1-1.2-1.5-1.5c-0.5-0.3-0.9-0.5-1.4-0.6c-0.3-0.1-0.9-0.1-1.7-0.1h-3.5v10.2L1652.4,477.4L1652.4,477.4z
			 M1655.4,464.6h6.5c1.4,0,2.5-0.1,3.2-0.4c0.8-0.3,1.4-0.7,1.8-1.4c0.4-0.6,0.6-1.3,0.6-2.1c0-1.1-0.4-2-1.2-2.7
			c-0.8-0.7-2-1-3.7-1h-7.2L1655.4,464.6L1655.4,464.6z"/>
		<path class="st2" d="M1680.7,477.4v-20.2h-7.5v-2.7h18.2v2.7h-7.6v20.2H1680.7z"/>
		<path class="st2" d="M1694.9,477.4v-22.9h3v22.9H1694.9z"/>
		<path class="st2" d="M1719.6,469.3l3,0.8c-0.6,2.5-1.8,4.4-3.4,5.7c-1.7,1.3-3.7,2-6.1,2c-2.5,0-4.5-0.5-6-1.5s-2.7-2.5-3.5-4.4
			s-1.2-4-1.2-6.1c0-2.4,0.5-4.5,1.4-6.2c0.9-1.8,2.2-3.1,3.9-4c1.7-0.9,3.5-1.4,5.6-1.4c2.3,0,4.2,0.6,5.8,1.8
			c1.6,1.2,2.7,2.8,3.3,4.9l-3,0.7c-0.5-1.7-1.3-2.9-2.3-3.6c-1-0.8-2.3-1.1-3.8-1.1c-1.8,0-3.2,0.4-4.4,1.3c-1.2,0.8-2,2-2.5,3.4
			s-0.7,2.9-0.7,4.4c0,1.9,0.3,3.6,0.9,5.1s1.5,2.5,2.6,3.3c1.2,0.7,2.5,1.1,3.9,1.1c1.7,0,3.1-0.5,4.3-1.5
			C1718.4,472.7,1719.2,471.3,1719.6,469.3z"/>
		<path class="st2" d="M1741.4,454.5h3v13.2c0,2.3-0.3,4.1-0.8,5.5s-1.5,2.5-2.8,3.3c-1.4,0.8-3.1,1.3-5.4,1.3
			c-2.1,0-3.9-0.4-5.3-1.1s-2.3-1.8-2.9-3.2c-0.6-1.4-0.9-3.3-0.9-5.7v-13.2h3v13.2c0,2,0.2,3.5,0.6,4.4s1,1.7,1.9,2.2
			s2,0.8,3.3,0.8c2.2,0,3.8-0.5,4.8-1.5c0.9-1,1.4-3,1.4-5.8v-13.4H1741.4z"/>
		<path class="st2" d="M1749.4,477.4v-22.9h3v20.2h11.3v2.7L1749.4,477.4L1749.4,477.4z"/>
		<path class="st2" d="M1764.8,477.4l8.8-22.9h3.3l9.4,22.9h-3.5l-2.7-6.9h-9.6l-2.5,6.9H1764.8z M1771.4,468h7.8l-2.4-6.3
			c-0.7-1.9-1.3-3.5-1.6-4.8c-0.3,1.5-0.7,2.9-1.2,4.4L1771.4,468z"/>
		<path class="st2" d="M1792.1,477.4v-20.2h-7.5v-2.7h18.2v2.7h-7.6v20.2H1792.1z"/>
		<path class="st2" d="M1805.9,477.4v-22.9h16.6v2.7H1809v7h12.7v2.7H1809v7.8h14.1v2.7L1805.9,477.4L1805.9,477.4z"/>
		<path class="st2" d="M1604.1,511.3l3,0.8c-0.6,2.5-1.8,4.4-3.4,5.7c-1.7,1.3-3.7,2-6.1,2c-2.5,0-4.5-0.5-6-1.5s-2.7-2.5-3.5-4.4
			c-0.8-1.9-1.2-4-1.2-6.1c0-2.4,0.5-4.5,1.4-6.2c0.9-1.8,2.2-3.1,3.9-4c1.7-0.9,3.5-1.4,5.6-1.4c2.3,0,4.2,0.6,5.8,1.8
			c1.6,1.2,2.7,2.8,3.3,4.9l-3,0.7c-0.5-1.7-1.3-2.9-2.3-3.6c-1-0.8-2.3-1.1-3.8-1.1c-1.8,0-3.2,0.4-4.4,1.3c-1.2,0.8-2,2-2.5,3.4
			s-0.7,2.9-0.7,4.4c0,1.9,0.3,3.6,0.9,5.1s1.5,2.5,2.6,3.3c1.2,0.7,2.5,1.1,3.9,1.1c1.7,0,3.1-0.5,4.3-1.5
			C1602.9,514.7,1603.7,513.3,1604.1,511.3z"/>
		<path class="st2" d="M1609.9,508.2c0-3.8,1-6.8,3.1-8.9c2-2.2,4.7-3.2,7.9-3.2c2.1,0,4,0.5,5.7,1.5s3,2.4,3.9,4.2
			c0.9,1.8,1.3,3.9,1.3,6.1c0,2.3-0.5,4.4-1.4,6.2s-2.3,3.2-4,4.2c-1.7,0.9-3.6,1.4-5.6,1.4c-2.2,0-4.1-0.5-5.8-1.6
			c-1.7-1-3-2.5-3.9-4.3C1610.4,512.1,1609.9,510.2,1609.9,508.2z M1613.1,508.3c0,2.8,0.7,4.9,2.2,6.5s3.3,2.4,5.6,2.4
			c2.3,0,4.2-0.8,5.6-2.4c1.5-1.6,2.2-3.9,2.2-6.8c0-1.9-0.3-3.5-0.9-4.9s-1.6-2.5-2.8-3.2c-1.2-0.8-2.6-1.1-4.1-1.1
			c-2.1,0-4,0.7-5.5,2.2C1613.8,502.3,1613.1,504.8,1613.1,508.3z"/>
		<path class="st2" d="M1635.7,519.4v-22.9h3.1l12,18v-18h2.9v22.9h-3.1l-12-18v18H1635.7z"/>
		<path class="st2" d="M1664.7,519.4v-20.2h-7.5v-2.7h18.2v2.7h-7.6v20.2H1664.7z"/>
		<path class="st2" d="M1673.5,519.4l8.8-22.9h3.3l9.4,22.9h-3.5l-2.7-6.9h-9.6l-2.5,6.9H1673.5z M1680.1,510h7.8l-2.4-6.3
			c-0.7-1.9-1.3-3.5-1.6-4.8c-0.3,1.5-0.7,2.9-1.2,4.4L1680.1,510z"/>
		<path class="st2" d="M1697.3,519.4v-22.9h4.6l5.4,16.2c0.5,1.5,0.9,2.6,1.1,3.4c0.3-0.8,0.7-2.1,1.2-3.7l5.5-15.9h4.1v22.9h-2.9
			v-19.2l-6.7,19.2h-2.7l-6.6-19.5v19.5H1697.3z"/>
		<path class="st2" d="M1724.6,519.4v-22.9h3v22.9H1724.6z"/>
		<path class="st2" d="M1732.9,519.4v-22.9h3.1l12,18v-18h2.9v22.9h-3.1l-12-18v18H1732.9z"/>
		<path class="st2" d="M1753.5,519.4l8.8-22.9h3.3l9.4,22.9h-3.5l-2.7-6.9h-9.6l-2.5,6.9H1753.5z M1760.1,510h7.8l-2.4-6.3
			c-0.7-1.9-1.3-3.5-1.6-4.8c-0.3,1.5-0.7,2.9-1.2,4.4L1760.1,510z"/>
		<path class="st2" d="M1780.8,519.4v-20.2h-7.5v-2.7h18.2v2.7h-7.6v20.2H1780.8z"/>
		<path class="st2" d="M1795.1,519.4v-22.9h3v22.9H1795.1z"/>
		<path class="st2" d="M1802.5,508.2c0-3.8,1-6.8,3.1-8.9c2-2.2,4.7-3.2,7.9-3.2c2.1,0,4,0.5,5.7,1.5s3,2.4,3.9,4.2
			c0.9,1.8,1.3,3.9,1.3,6.1c0,2.3-0.5,4.4-1.4,6.2s-2.3,3.2-4,4.2c-1.7,0.9-3.6,1.4-5.6,1.4c-2.2,0-4.1-0.5-5.8-1.6
			c-1.7-1-3-2.5-3.9-4.3C1803,512.1,1802.5,510.2,1802.5,508.2z M1805.6,508.3c0,2.8,0.7,4.9,2.2,6.5s3.3,2.4,5.6,2.4
			c2.3,0,4.2-0.8,5.6-2.4c1.5-1.6,2.2-3.9,2.2-6.8c0-1.9-0.3-3.5-0.9-4.9s-1.6-2.5-2.8-3.2c-1.2-0.8-2.6-1.1-4.1-1.1
			c-2.1,0-4,0.7-5.5,2.2C1806.4,502.3,1805.6,504.8,1805.6,508.3z"/>
		<path class="st2" d="M1828.3,519.4v-22.9h3.1l12,18v-18h2.9v22.9h-3.1l-12-18v18H1828.3z"/>
	</g>
	<g>
		<path class="st2" d="M1014.2,477.4v-22.9h4.6l5.4,16.2c0.5,1.5,0.9,2.6,1.1,3.4c0.3-0.8,0.7-2.1,1.2-3.7l5.5-15.9h4.1v22.9h-2.9
			v-19.2l-6.7,19.2h-2.7l-6.6-19.5v19.5H1014.2z"/>
		<path class="st2" d="M1041.1,477.4v-22.9h16.6v2.7h-13.5v7h12.7v2.7h-12.7v7.8h14.1v2.7L1041.1,477.4L1041.1,477.4z"/>
		<path class="st2" d="M1062.3,477.4v-22.9h7.9c1.8,0,3.1,0.1,4.1,0.3c1.3,0.3,2.4,0.8,3.4,1.6c1.2,1,2.1,2.3,2.7,3.9
			s0.9,3.4,0.9,5.4c0,1.7-0.2,3.3-0.6,4.6s-0.9,2.5-1.6,3.3c-0.6,0.9-1.3,1.6-2.1,2.1c-0.8,0.5-1.7,0.9-2.7,1.1
			c-1.1,0.3-2.3,0.4-3.7,0.4h-8.3V477.4z M1065.4,474.7h4.9c1.5,0,2.7-0.1,3.6-0.4s1.5-0.7,2.1-1.2c0.7-0.7,1.3-1.7,1.7-2.9
			c0.4-1.2,0.6-2.7,0.6-4.4c0-2.4-0.4-4.2-1.2-5.5c-0.8-1.3-1.7-2.1-2.9-2.6c-0.8-0.3-2.1-0.5-3.9-0.5h-4.8L1065.4,474.7
			L1065.4,474.7z"/>
		<path class="st2" d="M1086,477.4v-22.9h3v22.9H1086z"/>
		<path class="st2" d="M1110.7,469.3l3,0.8c-0.6,2.5-1.8,4.4-3.4,5.7c-1.7,1.3-3.7,2-6.1,2c-2.5,0-4.5-0.5-6-1.5s-2.7-2.5-3.5-4.4
			s-1.2-4-1.2-6.1c0-2.4,0.5-4.5,1.4-6.2c0.9-1.8,2.2-3.1,3.9-4c1.7-0.9,3.5-1.4,5.6-1.4c2.3,0,4.2,0.6,5.8,1.8
			c1.6,1.2,2.7,2.8,3.3,4.9l-3,0.7c-0.5-1.7-1.3-2.9-2.3-3.6c-1-0.8-2.3-1.1-3.8-1.1c-1.8,0-3.2,0.4-4.4,1.3c-1.2,0.8-2,2-2.5,3.4
			s-0.7,2.9-0.7,4.4c0,1.9,0.3,3.6,0.9,5.1s1.5,2.5,2.6,3.3c1.2,0.7,2.5,1.1,3.9,1.1c1.7,0,3.1-0.5,4.3-1.5
			C1109.5,472.7,1110.3,471.3,1110.7,469.3z"/>
		<path class="st2" d="M1114.9,477.4l8.8-22.9h3.3l9.4,22.9h-3.5l-2.7-6.9h-9.6l-2.5,6.9H1114.9z M1121.5,468h7.8l-2.4-6.3
			c-0.7-1.9-1.3-3.5-1.6-4.8c-0.3,1.5-0.7,2.9-1.2,4.4L1121.5,468z"/>
		<path class="st2" d="M1142.2,477.4v-20.2h-7.5v-2.7h18.2v2.7h-7.6v20.2H1142.2z"/>
		<path class="st2" d="M1156.5,477.4v-22.9h3v22.9H1156.5z"/>
		<path class="st2" d="M1163.9,466.2c0-3.8,1-6.8,3.1-8.9c2-2.2,4.7-3.2,7.9-3.2c2.1,0,4,0.5,5.7,1.5s3,2.4,3.9,4.2
			c0.9,1.8,1.3,3.9,1.3,6.1c0,2.3-0.5,4.4-1.4,6.2c-0.9,1.8-2.3,3.2-4,4.2c-1.7,0.9-3.6,1.4-5.6,1.4c-2.2,0-4.1-0.5-5.8-1.6
			c-1.7-1-3-2.5-3.9-4.3C1164.4,470.1,1163.9,468.2,1163.9,466.2z M1167.1,466.3c0,2.8,0.7,4.9,2.2,6.5s3.3,2.4,5.6,2.4
			c2.3,0,4.2-0.8,5.6-2.4c1.5-1.6,2.2-3.9,2.2-6.8c0-1.9-0.3-3.5-0.9-4.9s-1.6-2.5-2.8-3.2c-1.2-0.8-2.6-1.1-4.1-1.1
			c-2.1,0-4,0.7-5.5,2.2C1167.8,460.3,1167.1,462.8,1167.1,466.3z"/>
		<path class="st2" d="M1189.7,477.4v-22.9h3.1l12,18v-18h2.9v22.9h-3.1l-12-18v18H1189.7z"/>
		<path class="st2" d="M1055.9,519.4v-22.9h16.6v2.7H1059v7h12.7v2.7H1059v7.8h14.1v2.7L1055.9,519.4L1055.9,519.4z"/>
		<path class="st2" d="M1077.2,519.4v-22.9h10.2c2,0,3.6,0.2,4.7,0.6s1.9,1.1,2.5,2.2c0.6,1,1,2.2,1,3.5c0,1.6-0.5,3-1.6,4.1
			s-2.7,1.8-4.9,2.1c0.8,0.4,1.4,0.8,1.8,1.1c0.9,0.8,1.7,1.8,2.5,3l4,6.2h-3.8l-3-4.8c-0.9-1.4-1.6-2.4-2.2-3.2
			c-0.6-0.7-1.1-1.2-1.5-1.5c-0.5-0.3-0.9-0.5-1.4-0.6c-0.3-0.1-0.9-0.1-1.7-0.1h-3.5v10.2L1077.2,519.4L1077.2,519.4z
			 M1080.2,506.6h6.5c1.4,0,2.5-0.1,3.2-0.4c0.8-0.3,1.4-0.7,1.8-1.4c0.4-0.6,0.6-1.3,0.6-2.1c0-1.1-0.4-2-1.2-2.7
			c-0.8-0.7-2-1-3.7-1h-7.2L1080.2,506.6L1080.2,506.6z"/>
		<path class="st2" d="M1100.3,519.4v-22.9h10.2c2,0,3.6,0.2,4.7,0.6s1.9,1.1,2.5,2.2c0.6,1,1,2.2,1,3.5c0,1.6-0.5,3-1.6,4.1
			s-2.7,1.8-4.9,2.1c0.8,0.4,1.4,0.8,1.8,1.1c0.9,0.8,1.7,1.8,2.5,3l4,6.2h-3.8l-3-4.8c-0.9-1.4-1.6-2.4-2.2-3.2
			c-0.6-0.7-1.1-1.2-1.5-1.5c-0.5-0.3-0.9-0.5-1.4-0.6c-0.3-0.1-0.9-0.1-1.7-0.1h-3.5v10.2L1100.3,519.4L1100.3,519.4z
			 M1103.4,506.6h6.5c1.4,0,2.5-0.1,3.2-0.4c0.8-0.3,1.4-0.7,1.8-1.4c0.4-0.6,0.6-1.3,0.6-2.1c0-1.1-0.4-2-1.2-2.7
			c-0.8-0.7-2-1-3.7-1h-7.2L1103.4,506.6L1103.4,506.6z"/>
		<path class="st2" d="M1122.5,508.2c0-3.8,1-6.8,3.1-8.9c2-2.2,4.7-3.2,7.9-3.2c2.1,0,4,0.5,5.7,1.5s3,2.4,3.9,4.2
			c0.9,1.8,1.3,3.9,1.3,6.1c0,2.3-0.5,4.4-1.4,6.2s-2.3,3.2-4,4.2c-1.7,0.9-3.6,1.4-5.6,1.4c-2.2,0-4.1-0.5-5.8-1.6
			c-1.7-1-3-2.5-3.9-4.3C1122.9,512.1,1122.5,510.2,1122.5,508.2z M1125.6,508.3c0,2.8,0.7,4.9,2.2,6.5s3.3,2.4,5.6,2.4
			c2.3,0,4.2-0.8,5.6-2.4c1.5-1.6,2.2-3.9,2.2-6.8c0-1.9-0.3-3.5-0.9-4.9s-1.6-2.5-2.8-3.2c-1.2-0.8-2.6-1.1-4.1-1.1
			c-2.1,0-4,0.7-5.5,2.2C1126.4,502.3,1125.6,504.8,1125.6,508.3z"/>
		<path class="st2" d="M1148.3,519.4v-22.9h10.2c2,0,3.6,0.2,4.7,0.6s1.9,1.1,2.5,2.2c0.6,1,1,2.2,1,3.5c0,1.6-0.5,3-1.6,4.1
			s-2.7,1.8-4.9,2.1c0.8,0.4,1.4,0.8,1.8,1.1c0.9,0.8,1.7,1.8,2.5,3l4,6.2h-3.8l-3-4.8c-0.9-1.4-1.6-2.4-2.2-3.2
			c-0.6-0.7-1.1-1.2-1.5-1.5c-0.5-0.3-0.9-0.5-1.4-0.6c-0.3-0.1-0.9-0.1-1.7-0.1h-3.5v10.2L1148.3,519.4L1148.3,519.4z
			 M1151.4,506.6h6.5c1.4,0,2.5-0.1,3.2-0.4c0.8-0.3,1.4-0.7,1.8-1.4c0.4-0.6,0.6-1.3,0.6-2.1c0-1.1-0.4-2-1.2-2.7
			c-0.8-0.7-2-1-3.7-1h-7.2L1151.4,506.6L1151.4,506.6z"/>
	</g>
	<g class="st4">
		<g class="st5">
			<rect x="448.2" y="391.7" width="5.7" height="5.7"/>
		</g>
		<g class="st5">
			<polyline class="st6" points="949.5,509.7 451,509.7 451,397.4 			"/>
			<g>
				<g>
					<polyline class="st6" points="883.3,749.3 458.6,749.3 456.2,749.3 					"/>
					<g>
						<rect x="453" y="746" width="6.6" height="6.6"/>
					</g>
				</g>
			</g>
			<g>
				<g>
					<polyline class="st6" points="963.2,1033 453.1,1033 453.1,1177.8 					"/>
					<g>
						<rect x="449.8" y="1174.3" width="6.6" height="6.6"/>
					</g>
				</g>
			</g>
			<rect x="118.3" y="388.5" class="st7" width="305.7" height="153.2"/>
			<text transform="matrix(1 0 0 1 118.2637 405.6362)" class="st8 st9 st10">1 Error</text>
			<text transform="matrix(1 0 0 1 191.6113 405.6362)" class="st8 st9 st10 st11"> </text>
			<text transform="matrix(1 0 0 1 196.4111 405.6362)" class="st8 st9 st10">/ Patient</text>
			<text transform="matrix(1 0 0 1 284.4658 405.6362)" class="st8 st9 st10 st11"> </text>
			<text transform="matrix(1 0 0 1 289.2656 405.6362)" class="st8 st9 st10">/ Day</text>
			<text transform="matrix(1 0 0 1 118.2637 431.6362)" class="st9 st12">The institute of Medicine estimated </text>
			<text transform="matrix(1 0 0 1 118.2637 457.6362)" class="st9 st12">that in hospitals “a typical patient </text>
			<text transform="matrix(1 0 0 1 118.2637 483.6362)" class="st9 st12">would be subject to one administrati</text>
			<text transform="matrix(1 0 0 1 404.4268 483.6362)" class="st9 st12">-</text>
			<text transform="matrix(1 0 0 1 118.2637 509.6362)" class="st9 st12">on </text>
			<text transform="matrix(1 0 0 1 143.2861 509.6362)" class="st3 st9 st12">MEDICATION ERROR</text>
			<text transform="matrix(1 0 0 1 326.292 509.6362)" class="st9 st12"> per day”.</text>
			<text transform="matrix(1 0 0 1 402.3262 503.6426)" class="st9 st13">1</text>
			<rect x="118.3" y="1030.5" class="st7" width="305.7" height="153.2"/>
			<text transform="matrix(1 0 0 1 118.2637 1047.6362)" class="st8 st9 st10">Approx. 8 million</text>
			<text transform="matrix(1 0 0 1 118.2637 1075.6362)" class="st8 st9 st10">Health Care Workers </text>
			<text transform="matrix(1 0 0 1 118.2637 1101.6362)" class="st9 st12">are unnecessarily exposed to highly </text>
			<text transform="matrix(1 0 0 1 118.2637 1127.6362)" class="st9 st12">toxic drugs used to treat cancer, e.g. </text>
			<text transform="matrix(1 0 0 1 118.2637 1153.6362)" class="st9 st12">by dermal exposure and airborne </text>
			<text transform="matrix(1 0 0 1 118.2637 1179.6362)" class="st9 st12">concentrations of anti-neoplastics.</text>
			<text transform="matrix(1 0 0 1 390.417 1173.6426)" class="st9 st13">3</text>
			
				<rect x="118.3" y="695.5" transform="matrix(1 -4.319604e-03 4.319604e-03 1 -3.3327 1.1785)" class="st7" width="305.7" height="153.2"/>
			<text transform="matrix(1 0 0 1 118.002 711.9766)" class="st8 st9 st10">Parallel infusions</text>
			<text transform="matrix(1 0 0 1 118.1143 737.9766)" class="st9 st12">along unassisted end of infusion are </text>
			<text transform="matrix(1 0 0 1 118.2275 763.9766)" class="st9 st12">the leading causes for air-embolism </text>
			<text transform="matrix(1 0 0 1 118.3398 789.9766)" class="st9 st12">associated with infusion therapy.</text>
			<text transform="matrix(1 0 0 1 378.4873 783.9824)" class="st9 st13">2</text>
		</g>
	</g>
	<g>
		<path class="st2" d="M1757.8,744l2.9-0.2c0.1,1.1,0.5,2.1,0.9,2.8c0.5,0.7,1.3,1.3,2.3,1.8s2.2,0.7,3.5,0.7c1.2,0,2.2-0.2,3.1-0.5
			s1.5-0.8,2-1.4c0.4-0.6,0.6-1.3,0.6-2s-0.2-1.3-0.6-1.9c-0.4-0.5-1.1-1-2.1-1.4c-0.6-0.2-2-0.6-4.1-1.1s-3.6-1-4.4-1.4
			c-1.1-0.6-1.9-1.3-2.4-2.1s-0.8-1.8-0.8-2.9c0-1.2,0.3-2.2,1-3.2s1.6-1.8,2.9-2.3s2.7-0.8,4.2-0.8c1.7,0,3.2,0.3,4.5,0.8
			s2.3,1.4,3,2.4c0.7,1.1,1.1,2.3,1.1,3.6l-2.9,0.2c-0.2-1.4-0.7-2.5-1.6-3.3c-0.9-0.7-2.2-1.1-4-1.1s-3.2,0.3-4,1s-1.3,1.5-1.3,2.4
			c0,0.8,0.3,1.5,0.9,2s2.1,1.1,4.6,1.6c2.5,0.6,4.2,1,5.1,1.5c1.3,0.6,2.3,1.4,3,2.3c0.6,0.9,1,2,1,3.3c0,1.2-0.3,2.4-1,3.4
			c-0.7,1.1-1.7,1.9-3,2.5s-2.8,0.9-4.4,0.9c-2.1,0-3.8-0.3-5.2-0.9c-1.4-0.6-2.5-1.5-3.3-2.7S1757.8,745.5,1757.8,744z"/>
		<path class="st2" d="M1780.2,751.4v-22.9h3v9.4h11.9v-9.4h3v22.9h-3v-10.8h-11.9v10.8H1780.2z"/>
		<path class="st2" d="M1800.7,751.4l8.8-22.9h3.3l9.4,22.9h-3.5l-2.7-6.9h-9.6l-2.5,6.9H1800.7z M1807.4,742h7.8l-2.4-6.3
			c-0.7-1.9-1.3-3.5-1.6-4.8c-0.3,1.5-0.7,2.9-1.2,4.4L1807.4,742z"/>
		<path class="st2" d="M1824.6,751.4v-22.9h10.2c2,0,3.6,0.2,4.7,0.6s1.9,1.1,2.5,2.2c0.6,1,1,2.2,1,3.5c0,1.6-0.5,3-1.6,4.1
			s-2.7,1.8-4.9,2.1c0.8,0.4,1.4,0.8,1.8,1.1c0.9,0.8,1.7,1.8,2.5,3l4,6.2h-3.8l-3-4.8c-0.9-1.4-1.6-2.4-2.2-3.2
			c-0.6-0.7-1.1-1.2-1.5-1.5s-0.9-0.5-1.4-0.6c-0.3-0.1-0.9-0.1-1.7-0.1h-3.5v10.2h-3.1V751.4z M1827.7,738.6h6.5
			c1.4,0,2.5-0.1,3.2-0.4s1.4-0.7,1.8-1.4s0.6-1.3,0.6-2.1c0-1.1-0.4-2-1.2-2.7c-0.8-0.7-2-1-3.7-1h-7.2L1827.7,738.6L1827.7,738.6z
			"/>
		<path class="st2" d="M1847.7,751.4v-22.9h8.6c1.5,0,2.7,0.1,3.5,0.2c1.1,0.2,2.1,0.5,2.8,1.1c0.8,0.5,1.4,1.3,1.8,2.2
			c0.5,0.9,0.7,2,0.7,3.1c0,1.9-0.6,3.6-1.9,4.9c-1.2,1.3-3.5,2-6.7,2h-5.9v9.3h-2.9V751.4z M1850.7,739.3h5.9c2,0,3.3-0.4,4.2-1.1
			c0.8-0.7,1.2-1.8,1.2-3.1c0-1-0.2-1.8-0.7-2.5s-1.1-1.1-1.9-1.4c-0.5-0.1-1.5-0.2-2.8-0.2h-5.9L1850.7,739.3L1850.7,739.3z"/>
		<path class="st2" d="M1868,744l2.9-0.2c0.1,1.1,0.5,2.1,0.9,2.8c0.5,0.7,1.3,1.3,2.3,1.8s2.2,0.7,3.5,0.7c1.2,0,2.2-0.2,3.1-0.5
			s1.5-0.8,2-1.4c0.4-0.6,0.6-1.3,0.6-2s-0.2-1.3-0.6-1.9c-0.4-0.5-1.1-1-2.1-1.4c-0.6-0.2-2-0.6-4.1-1.1s-3.6-1-4.4-1.4
			c-1.1-0.6-1.9-1.3-2.4-2.1s-0.8-1.8-0.8-2.9c0-1.2,0.3-2.2,1-3.2s1.6-1.8,2.9-2.3s2.7-0.8,4.2-0.8c1.7,0,3.2,0.3,4.5,0.8
			s2.3,1.4,3,2.4c0.7,1.1,1.1,2.3,1.1,3.6l-2.9,0.2c-0.2-1.4-0.7-2.5-1.6-3.3c-0.9-0.7-2.2-1.1-4-1.1s-3.2,0.3-4,1s-1.3,1.5-1.3,2.4
			c0,0.8,0.3,1.5,0.9,2s2.1,1.1,4.6,1.6c2.5,0.6,4.2,1,5.1,1.5c1.3,0.6,2.3,1.4,3,2.3c0.6,0.9,1,2,1,3.3c0,1.2-0.3,2.4-1,3.4
			c-0.7,1.1-1.7,1.9-3,2.5s-2.8,0.9-4.4,0.9c-2.1,0-3.8-0.3-5.2-0.9c-1.4-0.6-2.5-1.5-3.3-2.7S1868.1,745.5,1868,744z"/>
		<path class="st2" d="M1767.9,793.4v-22.9h3v22.9H1767.9z"/>
		<path class="st2" d="M1776.3,793.4v-22.9h3.1l12,18v-18h2.9v22.9h-3.1l-12-18v18H1776.3z"/>
		<path class="st2" d="M1797.9,786.9l2.7-0.4c0.1,1.8,0.4,2.9,1,3.6c0.6,0.6,1.4,1,2.4,1c0.8,0,1.4-0.2,2-0.5s0.9-0.8,1.1-1.4
			c0.2-0.6,0.3-1.6,0.3-2.9v-15.8h3v15.6c0,1.9-0.2,3.4-0.7,4.5s-1.2,1.9-2.2,2.4c-1,0.6-2.2,0.8-3.5,0.8c-2,0-3.5-0.6-4.6-1.7
			C1798.3,790.9,1797.8,789.1,1797.9,786.9z"/>
		<path class="st2" d="M1830.4,770.5h3v13.2c0,2.3-0.3,4.1-0.8,5.5s-1.5,2.5-2.8,3.3s-3.1,1.3-5.4,1.3c-2.1,0-3.9-0.4-5.3-1.1
			c-1.4-0.7-2.3-1.8-2.9-3.2s-0.9-3.3-0.9-5.7v-13.2h3v13.2c0,2,0.2,3.5,0.6,4.4s1,1.7,1.9,2.2s2,0.8,3.3,0.8c2.2,0,3.8-0.5,4.8-1.5
			c0.9-1,1.4-3,1.4-5.8v-13.4H1830.4z"/>
		<path class="st2" d="M1838.6,793.4v-22.9h10.2c2,0,3.6,0.2,4.7,0.6s1.9,1.1,2.5,2.2c0.6,1,1,2.2,1,3.5c0,1.6-0.5,3-1.6,4.1
			s-2.7,1.8-4.9,2.1c0.8,0.4,1.4,0.8,1.8,1.1c0.9,0.8,1.7,1.8,2.5,3l4,6.2h-3.8l-3-4.8c-0.9-1.4-1.6-2.4-2.2-3.2
			c-0.6-0.7-1.1-1.2-1.5-1.5s-0.9-0.5-1.4-0.6c-0.3-0.1-0.9-0.1-1.7-0.1h-3.5v10.2h-3.1V793.4z M1841.6,780.6h6.5
			c1.4,0,2.5-0.1,3.2-0.4s1.4-0.7,1.8-1.4s0.6-1.3,0.6-2.1c0-1.1-0.4-2-1.2-2.7c-0.8-0.7-2-1-3.7-1h-7.2L1841.6,780.6L1841.6,780.6z
			"/>
		<path class="st2" d="M1867.5,793.4v-9.7l-8.8-13.2h3.7l4.5,6.9c0.8,1.3,1.6,2.6,2.3,3.9c0.7-1.2,1.5-2.5,2.5-4l4.4-6.7h3.5
			l-9.1,13.2v9.7h-3V793.4z"/>
	</g>
	<g>
		<path class="st2" d="M973.4,753.4l8.8-22.9h3.3l9.4,22.9h-3.5l-2.7-6.9h-9.6l-2.5,6.9H973.4z M980,744h7.8l-2.4-6.3
			c-0.7-1.9-1.3-3.5-1.6-4.8c-0.3,1.5-0.7,2.9-1.2,4.4L980,744z"/>
		<path class="st2" d="M997.8,753.4v-22.9h3v22.9H997.8z"/>
		<path class="st2" d="M1006.2,753.4v-22.9h10.2c2,0,3.6,0.2,4.7,0.6s1.9,1.1,2.5,2.2c0.6,1,1,2.2,1,3.5c0,1.6-0.5,3-1.6,4.1
			s-2.7,1.8-4.9,2.1c0.8,0.4,1.4,0.8,1.8,1.1c0.9,0.8,1.7,1.8,2.5,3l4,6.2h-3.8l-3-4.8c-0.9-1.4-1.6-2.4-2.2-3.2
			c-0.6-0.7-1.1-1.2-1.5-1.5s-0.9-0.5-1.4-0.6c-0.3-0.1-0.9-0.1-1.7-0.1h-3.5v10.2h-3.1V753.4z M1009.2,740.6h6.5
			c1.4,0,2.5-0.1,3.2-0.4s1.4-0.7,1.8-1.4s0.6-1.3,0.6-2.1c0-1.1-0.4-2-1.2-2.7s-2-1-3.7-1h-7.2L1009.2,740.6L1009.2,740.6z"/>
		<path class="st2" d="M918.2,795.4v-22.9h16.6v2.7h-13.5v7H934v2.7h-12.7v7.8h14.1v2.7H918.2z"/>
		<path class="st2" d="M939.4,795.4v-22.9h4.6l5.4,16.2c0.5,1.5,0.9,2.6,1.1,3.4c0.3-0.8,0.7-2.1,1.2-3.7l5.5-15.9h4.1v22.9h-2.9
			v-19.2l-6.7,19.2H949l-6.6-19.5v19.5H939.4z"/>
		<path class="st2" d="M966,795.4v-22.9h8.6c1.8,0,3.2,0.2,4.2,0.7c1.1,0.5,1.9,1.2,2.5,2.1c0.6,1,0.9,2,0.9,3s-0.3,1.9-0.8,2.8
			s-1.3,1.6-2.4,2.1c1.4,0.4,2.5,1.1,3.2,2.1s1.1,2.1,1.1,3.5c0,1.1-0.2,2.1-0.7,3s-1,1.6-1.7,2.1s-1.5,0.9-2.5,1.1
			c-1,0.3-2.2,0.4-3.7,0.4L966,795.4L966,795.4z M969,782.1h5c1.3,0,2.3-0.1,2.9-0.3c0.8-0.2,1.4-0.6,1.7-1.1s0.6-1.2,0.6-2
			s-0.2-1.4-0.5-2c-0.4-0.6-0.9-1-1.6-1.2c-0.7-0.2-1.8-0.3-3.5-0.3H969V782.1z M969,792.7h5.7c1,0,1.7,0,2.1-0.1
			c0.7-0.1,1.3-0.3,1.8-0.6s0.9-0.7,1.2-1.3s0.5-1.2,0.5-1.9c0-0.9-0.2-1.6-0.7-2.2s-1-1.1-1.8-1.3c-0.8-0.3-1.9-0.4-3.4-0.4H969
			V792.7z"/>
		<path class="st2" d="M986.6,784.2c0-3.8,1-6.8,3.1-8.9c2-2.2,4.7-3.2,7.9-3.2c2.1,0,4,0.5,5.7,1.5s3,2.4,3.9,4.2s1.3,3.9,1.3,6.1
			c0,2.3-0.5,4.4-1.4,6.2s-2.3,3.2-4,4.2s-3.6,1.4-5.6,1.4c-2.2,0-4.1-0.5-5.8-1.6c-1.7-1-3-2.5-3.9-4.3S986.6,786.2,986.6,784.2z
			 M989.7,784.3c0,2.8,0.7,4.9,2.2,6.5s3.3,2.4,5.6,2.4s4.2-0.8,5.6-2.4c1.5-1.6,2.2-3.9,2.2-6.8c0-1.9-0.3-3.5-0.9-4.9
			c-0.6-1.4-1.6-2.5-2.8-3.2c-1.2-0.8-2.6-1.1-4.1-1.1c-2.1,0-4,0.7-5.5,2.2S989.7,780.8,989.7,784.3z"/>
		<path class="st2" d="M1012.2,795.4v-22.9h3v20.2h11.3v2.7H1012.2z"/>
		<path class="st2" d="M1030.7,795.4v-22.9h3v22.9H1030.7z"/>
		<path class="st2" d="M1038,788l2.9-0.2c0.1,1.1,0.5,2.1,0.9,2.8c0.5,0.7,1.3,1.3,2.3,1.8s2.2,0.7,3.5,0.7c1.2,0,2.2-0.2,3.1-0.5
			s1.5-0.8,2-1.4c0.4-0.6,0.6-1.3,0.6-2s-0.2-1.3-0.6-1.9c-0.4-0.5-1.1-1-2.1-1.4c-0.6-0.2-2-0.6-4.1-1.1s-3.6-1-4.4-1.4
			c-1.1-0.6-1.9-1.3-2.4-2.1s-0.8-1.8-0.8-2.9c0-1.2,0.3-2.2,1-3.2s1.6-1.8,2.9-2.3s2.7-0.8,4.2-0.8c1.7,0,3.2,0.3,4.5,0.8
			s2.3,1.4,3,2.4c0.7,1.1,1.1,2.3,1.1,3.6l-2.9,0.2c-0.2-1.4-0.7-2.5-1.6-3.3c-0.9-0.7-2.2-1.1-4-1.1s-3.2,0.3-4,1s-1.3,1.5-1.3,2.4
			c0,0.8,0.3,1.5,0.9,2s2.1,1.1,4.6,1.6c2.5,0.6,4.2,1,5.1,1.5c1.3,0.6,2.3,1.4,3,2.3c0.6,0.9,1,2,1,3.3c0,1.2-0.3,2.4-1,3.4
			c-0.7,1.1-1.7,1.9-3,2.5s-2.8,0.9-4.4,0.9c-2.1,0-3.8-0.3-5.2-0.9c-1.4-0.6-2.5-1.5-3.3-2.7S1038.1,789.5,1038,788z"/>
		<path class="st2" d="M1060.3,795.4v-22.9h4.6l5.4,16.2c0.5,1.5,0.9,2.6,1.1,3.4c0.3-0.8,0.7-2.1,1.2-3.7l5.5-15.9h4.1v22.9h-2.9
			v-19.2l-6.7,19.2h-2.7l-6.6-19.5v19.5H1060.3z"/>
	</g>
	<g>
		<path class="st2" d="M1683.4,1042.4v-22.9h7.9c1.8,0,3.1,0.1,4.1,0.3c1.3,0.3,2.4,0.8,3.4,1.6c1.2,1,2.1,2.3,2.7,3.9
			s0.9,3.4,0.9,5.4c0,1.7-0.2,3.3-0.6,4.6s-0.9,2.5-1.6,3.3c-0.6,0.9-1.3,1.6-2.1,2.1c-0.8,0.5-1.7,0.9-2.7,1.1
			c-1.1,0.3-2.3,0.4-3.7,0.4h-8.3V1042.4z M1686.5,1039.7h4.9c1.5,0,2.7-0.1,3.6-0.4s1.5-0.7,2.1-1.2c0.7-0.7,1.3-1.7,1.7-2.9
			c0.4-1.2,0.6-2.7,0.6-4.4c0-2.4-0.4-4.2-1.2-5.5c-0.8-1.3-1.7-2.1-2.9-2.6c-0.8-0.3-2.1-0.5-3.9-0.5h-4.8L1686.5,1039.7
			L1686.5,1039.7z"/>
		<path class="st2" d="M1706.6,1042.4v-22.9h16.6v2.7h-13.5v7h12.7v2.7h-12.7v7.8h14.1v2.7L1706.6,1042.4L1706.6,1042.4z"/>
		<path class="st2" d="M1728,1042.4v-22.9h3v9.4h11.9v-9.4h3v22.9h-3v-10.8H1731v10.8H1728z"/>
		<path class="st2" d="M1751,1042.4v-22.9h8.6c1.5,0,2.7,0.1,3.5,0.2c1.1,0.2,2.1,0.5,2.8,1.1c0.8,0.5,1.4,1.3,1.8,2.2
			c0.5,0.9,0.7,2,0.7,3.1c0,1.9-0.6,3.6-1.9,4.9c-1.2,1.3-3.5,2-6.7,2h-5.9v9.3L1751,1042.4L1751,1042.4z M1754,1030.3h5.9
			c2,0,3.3-0.4,4.2-1.1c0.8-0.7,1.2-1.8,1.2-3.1c0-1-0.2-1.8-0.7-2.5s-1.1-1.1-1.9-1.4c-0.5-0.1-1.5-0.2-2.8-0.2h-5.9L1754,1030.3
			L1754,1030.3z"/>
		<path class="st2" d="M1638.7,1084.4v-22.9h16.6v2.7h-13.5v7h12.7v2.7h-12.7v7.8h14.1v2.7L1638.7,1084.4L1638.7,1084.4z"/>
		<path class="st2" d="M1657.7,1084.4l8.9-11.9l-7.8-11h3.6l4.2,5.9c0.9,1.2,1.5,2.2,1.8,2.8c0.5-0.8,1.1-1.7,1.8-2.6l4.6-6.1h3.3
			l-8,10.8l8.7,12.1h-3.8l-5.8-8.2c-0.3-0.5-0.7-1-1-1.5c-0.5,0.8-0.9,1.4-1.1,1.7l-5.8,8L1657.7,1084.4L1657.7,1084.4z"/>
		<path class="st2" d="M1681.4,1084.4v-22.9h8.6c1.5,0,2.7,0.1,3.5,0.2c1.1,0.2,2.1,0.5,2.8,1.1c0.8,0.5,1.4,1.3,1.8,2.2
			c0.5,0.9,0.7,2,0.7,3.1c0,1.9-0.6,3.6-1.9,4.9c-1.2,1.3-3.5,2-6.7,2h-5.9v9.3h-2.9V1084.4z M1684.4,1072.3h5.9
			c2,0,3.3-0.4,4.2-1.1c0.8-0.7,1.2-1.8,1.2-3.1c0-1-0.2-1.8-0.7-2.5s-1.1-1.1-1.9-1.4c-0.5-0.1-1.5-0.2-2.8-0.2h-5.9L1684.4,1072.3
			L1684.4,1072.3z"/>
		<path class="st2" d="M1701.8,1073.2c0-3.8,1-6.8,3.1-8.9c2-2.2,4.7-3.2,7.9-3.2c2.1,0,4,0.5,5.7,1.5s3,2.4,3.9,4.2
			s1.3,3.9,1.3,6.1c0,2.3-0.5,4.4-1.4,6.2s-2.3,3.2-4,4.2s-3.6,1.4-5.6,1.4c-2.2,0-4.1-0.5-5.8-1.6c-1.7-1-3-2.5-3.9-4.3
			S1701.8,1075.2,1701.8,1073.2z M1704.9,1073.3c0,2.8,0.7,4.9,2.2,6.5s3.3,2.4,5.6,2.4c2.3,0,4.2-0.8,5.6-2.4
			c1.5-1.6,2.2-3.9,2.2-6.8c0-1.9-0.3-3.5-0.9-4.9s-1.6-2.5-2.8-3.2c-1.2-0.8-2.6-1.1-4.1-1.1c-2.1,0-4,0.7-5.5,2.2
			S1704.9,1069.8,1704.9,1073.3z"/>
		<path class="st2" d="M1726.6,1077l2.9-0.2c0.1,1.1,0.5,2.1,0.9,2.8c0.5,0.7,1.3,1.3,2.3,1.8s2.2,0.7,3.5,0.7
			c1.2,0,2.2-0.2,3.1-0.5s1.5-0.8,2-1.4c0.4-0.6,0.6-1.3,0.6-2s-0.2-1.3-0.6-1.9c-0.4-0.5-1.1-1-2.1-1.4c-0.6-0.2-2-0.6-4.1-1.1
			s-3.6-1-4.4-1.4c-1.1-0.6-1.9-1.3-2.4-2.1c-0.5-0.8-0.8-1.8-0.8-2.9c0-1.2,0.3-2.2,1-3.2s1.6-1.8,2.9-2.3s2.7-0.8,4.2-0.8
			c1.7,0,3.2,0.3,4.5,0.8s2.3,1.4,3,2.4c0.7,1.1,1.1,2.3,1.1,3.6l-2.9,0.2c-0.2-1.4-0.7-2.5-1.6-3.3c-0.9-0.7-2.2-1.1-4-1.1
			s-3.2,0.3-4,1s-1.3,1.5-1.3,2.4c0,0.8,0.3,1.5,0.9,2s2.1,1.1,4.6,1.6c2.5,0.6,4.2,1,5.1,1.5c1.3,0.6,2.3,1.4,3,2.3
			c0.6,0.9,1,2,1,3.3c0,1.2-0.3,2.4-1,3.4c-0.7,1.1-1.7,1.9-3,2.5s-2.8,0.9-4.4,0.9c-2.1,0-3.8-0.3-5.2-0.9
			c-1.4-0.6-2.5-1.5-3.3-2.7S1726.6,1078.5,1726.6,1077z"/>
		<path class="st2" d="M1764,1061.5h3v13.2c0,2.3-0.3,4.1-0.8,5.5s-1.5,2.5-2.8,3.3s-3.1,1.3-5.4,1.3c-2.1,0-3.9-0.4-5.3-1.1
			s-2.3-1.8-2.9-3.2c-0.6-1.4-0.9-3.3-0.9-5.7v-13.2h3v13.2c0,2,0.2,3.5,0.6,4.4s1,1.7,1.9,2.2s2,0.8,3.3,0.8c2.2,0,3.8-0.5,4.8-1.5
			c0.9-1,1.4-3,1.4-5.8v-13.4H1764z"/>
		<path class="st2" d="M1772.1,1084.4v-22.9h10.2c2,0,3.6,0.2,4.7,0.6s1.9,1.1,2.5,2.2c0.6,1,1,2.2,1,3.5c0,1.6-0.5,3-1.6,4.1
			s-2.7,1.8-4.9,2.1c0.8,0.4,1.4,0.8,1.8,1.1c0.9,0.8,1.7,1.8,2.5,3l4,6.2h-3.8l-3-4.8c-0.9-1.4-1.6-2.4-2.2-3.2
			c-0.6-0.7-1.1-1.2-1.5-1.5s-0.9-0.5-1.4-0.6c-0.3-0.1-0.9-0.1-1.7-0.1h-3.5v10.2h-3.1V1084.4z M1775.1,1071.6h6.5
			c1.4,0,2.5-0.1,3.2-0.4s1.4-0.7,1.8-1.4s0.6-1.3,0.6-2.1c0-1.1-0.4-2-1.2-2.7c-0.8-0.7-2-1-3.7-1h-7.2L1775.1,1071.6
			L1775.1,1071.6z"/>
		<path class="st2" d="M1795.2,1084.4v-22.9h16.6v2.7h-13.5v7h12.7v2.7h-12.7v7.8h14.1v2.7L1795.2,1084.4L1795.2,1084.4z"/>
	</g>
	<g>
		<path class="st2" d="M1062.9,1036.3l3,0.8c-0.6,2.5-1.8,4.4-3.4,5.7c-1.7,1.3-3.7,2-6.1,2c-2.5,0-4.5-0.5-6-1.5s-2.7-2.5-3.5-4.4
			s-1.2-4-1.2-6.1c0-2.4,0.5-4.5,1.4-6.2c0.9-1.8,2.2-3.1,3.9-4c1.7-0.9,3.5-1.4,5.6-1.4c2.3,0,4.2,0.6,5.8,1.8s2.7,2.8,3.3,4.9
			l-3,0.7c-0.5-1.7-1.3-2.9-2.3-3.6c-1-0.8-2.3-1.1-3.8-1.1c-1.8,0-3.2,0.4-4.4,1.3c-1.2,0.8-2,2-2.5,3.4s-0.7,2.9-0.7,4.4
			c0,1.9,0.3,3.6,0.9,5.1s1.5,2.5,2.6,3.3c1.2,0.7,2.5,1.1,3.9,1.1c1.7,0,3.1-0.5,4.3-1.5
			C1061.6,1039.7,1062.4,1038.3,1062.9,1036.3z"/>
		<path class="st2" d="M1069.7,1044.4v-22.9h3v9.4h11.9v-9.4h3v22.9h-3v-10.8h-11.9v10.8H1069.7z"/>
		<path class="st2" d="M1092.8,1044.4v-22.9h16.6v2.7h-13.5v7h12.7v2.7h-12.7v7.8h14.1v2.7L1092.8,1044.4L1092.8,1044.4z"/>
		<path class="st2" d="M1114,1044.4v-22.9h4.6l5.4,16.2c0.5,1.5,0.9,2.6,1.1,3.4c0.3-0.8,0.7-2.1,1.2-3.7l5.5-15.9h4.1v22.9h-2.9
			v-19.2l-6.7,19.2h-2.7l-6.6-19.5v19.5H1114z"/>
		<path class="st2" d="M1141.2,1044.4v-22.9h3v22.9H1141.2z"/>
		<path class="st2" d="M1166,1036.3l3,0.8c-0.6,2.5-1.8,4.4-3.4,5.7c-1.7,1.3-3.7,2-6.1,2c-2.5,0-4.5-0.5-6-1.5s-2.7-2.5-3.5-4.4
			s-1.2-4-1.2-6.1c0-2.4,0.5-4.5,1.4-6.2c0.9-1.8,2.2-3.1,3.9-4c1.7-0.9,3.5-1.4,5.6-1.4c2.3,0,4.2,0.6,5.8,1.8s2.7,2.8,3.3,4.9
			l-3,0.7c-0.5-1.7-1.3-2.9-2.3-3.6c-1-0.8-2.3-1.1-3.8-1.1c-1.8,0-3.2,0.4-4.4,1.3c-1.2,0.8-2,2-2.5,3.4s-0.7,2.9-0.7,4.4
			c0,1.9,0.3,3.6,0.9,5.1s1.5,2.5,2.6,3.3c1.2,0.7,2.5,1.1,3.9,1.1c1.7,0,3.1-0.5,4.3-1.5C1164.8,1039.7,1165.6,1038.3,1166,1036.3z
			"/>
		<path class="st2" d="M1170.2,1044.4l8.8-22.9h3.3l9.4,22.9h-3.5l-2.7-6.9h-9.6l-2.5,6.9H1170.2z M1176.8,1035h7.8l-2.4-6.3
			c-0.7-1.9-1.3-3.5-1.6-4.8c-0.3,1.5-0.7,2.9-1.2,4.4L1176.8,1035z"/>
		<path class="st2" d="M1194,1044.4v-22.9h3v20.2h11.3v2.7L1194,1044.4L1194,1044.4z"/>
		<path class="st2" d="M1013.1,1078.3l3,0.8c-0.6,2.5-1.8,4.4-3.4,5.7c-1.7,1.3-3.7,2-6.1,2c-2.5,0-4.5-0.5-6-1.5s-2.7-2.5-3.5-4.4
			s-1.2-4-1.2-6.1c0-2.4,0.5-4.5,1.4-6.2c0.9-1.8,2.2-3.1,3.9-4s3.5-1.4,5.6-1.4c2.3,0,4.2,0.6,5.8,1.8s2.7,2.8,3.3,4.9l-3,0.7
			c-0.5-1.7-1.3-2.9-2.3-3.6c-1-0.8-2.3-1.1-3.8-1.1c-1.8,0-3.2,0.4-4.4,1.3c-1.2,0.8-2,2-2.5,3.4s-0.7,2.9-0.7,4.4
			c0,1.9,0.3,3.6,0.9,5.1c0.6,1.5,1.5,2.5,2.6,3.3c1.2,0.7,2.5,1.1,3.9,1.1c1.7,0,3.1-0.5,4.3-1.5
			C1011.9,1081.7,1012.7,1080.3,1013.1,1078.3z"/>
		<path class="st2" d="M1018.9,1075.2c0-3.8,1-6.8,3.1-8.9c2-2.2,4.7-3.2,7.9-3.2c2.1,0,4,0.5,5.7,1.5s3,2.4,3.9,4.2
			s1.3,3.9,1.3,6.1c0,2.3-0.5,4.4-1.4,6.2s-2.3,3.2-4,4.2s-3.6,1.4-5.6,1.4c-2.2,0-4.1-0.5-5.8-1.6c-1.7-1-3-2.5-3.9-4.3
			S1018.9,1077.2,1018.9,1075.2z M1022.1,1075.3c0,2.8,0.7,4.9,2.2,6.5c1.5,1.6,3.3,2.4,5.6,2.4c2.3,0,4.2-0.8,5.6-2.4
			c1.5-1.6,2.2-3.9,2.2-6.8c0-1.9-0.3-3.5-0.9-4.9s-1.6-2.5-2.8-3.2c-1.2-0.8-2.6-1.1-4.1-1.1c-2.1,0-4,0.7-5.5,2.2
			S1022.1,1071.8,1022.1,1075.3z"/>
		<path class="st2" d="M1044.7,1086.4v-22.9h3.1l12,18v-18h2.9v22.9h-3.1l-12-18v18H1044.7z"/>
		<path class="st2" d="M1073.7,1086.4v-20.2h-7.5v-2.7h18.2v2.7h-7.6v20.2H1073.7z"/>
		<path class="st2" d="M1082.5,1086.4l8.8-22.9h3.3l9.4,22.9h-3.5l-2.7-6.9h-9.6l-2.5,6.9H1082.5z M1089.1,1077h7.8l-2.4-6.3
			c-0.7-1.9-1.3-3.5-1.6-4.8c-0.3,1.5-0.7,2.9-1.2,4.4L1089.1,1077z"/>
		<path class="st2" d="M1106.3,1086.4v-22.9h4.6l5.4,16.2c0.5,1.5,0.9,2.6,1.1,3.4c0.3-0.8,0.7-2.1,1.2-3.7l5.5-15.9h4.1v22.9h-2.9
			v-19.2l-6.7,19.2h-2.7l-6.6-19.5v19.5H1106.3z"/>
		<path class="st2" d="M1133.6,1086.4v-22.9h3v22.9H1133.6z"/>
		<path class="st2" d="M1141.9,1086.4v-22.9h3.1l12,18v-18h2.9v22.9h-3.1l-12-18v18H1141.9z"/>
		<path class="st2" d="M1162.5,1086.4l8.8-22.9h3.3l9.4,22.9h-3.5l-2.7-6.9h-9.6l-2.5,6.9H1162.5z M1169.1,1077h7.8l-2.4-6.3
			c-0.7-1.9-1.3-3.5-1.6-4.8c-0.3,1.5-0.7,2.9-1.2,4.4L1169.1,1077z"/>
		<path class="st2" d="M1189.8,1086.4v-20.2h-7.5v-2.7h18.2v2.7h-7.6v20.2H1189.8z"/>
		<path class="st2" d="M1204.1,1086.4v-22.9h3v22.9H1204.1z"/>
		<path class="st2" d="M1211.5,1075.2c0-3.8,1-6.8,3.1-8.9c2-2.2,4.7-3.2,7.9-3.2c2.1,0,4,0.5,5.7,1.5s3,2.4,3.9,4.2
			s1.3,3.9,1.3,6.1c0,2.3-0.5,4.4-1.4,6.2s-2.3,3.2-4,4.2s-3.6,1.4-5.6,1.4c-2.2,0-4.1-0.5-5.8-1.6c-1.7-1-3-2.5-3.9-4.3
			S1211.5,1077.2,1211.5,1075.2z M1214.6,1075.3c0,2.8,0.7,4.9,2.2,6.5s3.3,2.4,5.6,2.4c2.3,0,4.2-0.8,5.6-2.4
			c1.5-1.6,2.2-3.9,2.2-6.8c0-1.9-0.3-3.5-0.9-4.9s-1.6-2.5-2.8-3.2c-1.2-0.8-2.6-1.1-4.1-1.1c-2.1,0-4,0.7-5.5,2.2
			S1214.6,1071.8,1214.6,1075.3z"/>
		<path class="st2" d="M1237.3,1086.4v-22.9h3.1l12,18v-18h2.9v22.9h-3.1l-12-18v18H1237.3z"/>
	</g>
</g>
<g id="Ebene_2_1_" class="st4">
	<g class="st5">
		<g>
			<path class="st2" d="M1300.9,349.7v-22.3h-0.1l-7.4,22.3h-2.8l-7.4-22.3h-0.1v22.3h-2.6v-25.3h4.3l7.2,21.5h0.1l7.2-21.5h4.3
				v25.3H1300.9z"/>
			<path class="st2" d="M1309.8,349.7v-25.3h2.9v25.3H1309.8z"/>
			<path class="st2" d="M1332.1,331.3c0-2.8-1.7-4.9-4.6-4.9c-5.5,0-6.4,6-6.4,10.3c0,4.8,1.3,11,7.3,11c2.2,0,4.3-0.7,6-2.1v3
				c-2.4,1-4,1.5-6.7,1.5c-7.6,0-9.7-7.2-9.7-13.5s2.2-12.6,9.5-12.6c4.5,0,7.8,2.6,7.8,7.3L1332.1,331.3L1332.1,331.3z"/>
			<path class="st2" d="M1351,349.7l-1.2-5.8c-0.8-3.5-1.4-5.4-5.4-5.4h-2.6v11.3h-2.9v-25.3h6.3c4.1,0,8.1,1.6,8.1,6.4
				c0,3.7-1.8,5.5-5.1,6.3v0.1c3.3,0.9,3.8,2.6,4.4,5.6l1.5,6.9h-3.1V349.7z M1343.8,326.8h-2.1v9.3h1.6c3.4,0,7-0.8,7-5
				S1347.1,326.8,1343.8,326.8z"/>
			<path class="st2" d="M1366.3,350.1c-7.4,0-9-7.1-9-13.1c0-6.1,1.6-13,9-13s9,7,9,13S1373.7,350.1,1366.3,350.1z M1366.3,326.4
				c-5.4,0-5.9,6.6-5.9,10.6s0.6,10.7,5.9,10.7s5.9-6.8,5.9-10.7C1372.2,333,1371.6,326.4,1366.3,326.4z"/>
			<path class="st2" d="M1387,349.7h-6.7v-25.3h6.7c4,0,6.9,2.1,6.9,6.2c0,2.6-1.2,4.7-3.7,5.6v0.1c3.5,0.8,4.9,3,4.9,6.5
				C1395.1,347.8,1391.6,349.7,1387,349.7z M1386,326.8h-2.9v8.5h2.5c3,0,5.4-1,5.4-4.5C1391.1,327.5,1388.8,326.8,1386,326.8z
				 M1386.8,337.7h-3.6v9.6h3.3c3.1,0,5.8-1.1,5.8-4.8C1392.2,339.3,1389.8,337.7,1386.8,337.7z"/>
			<path class="st2" d="M1400.2,349.7v-25.3h2.9v25.3H1400.2z"/>
			<path class="st2" d="M1417.3,350.1c-7.4,0-9-7.1-9-13.1c0-6.1,1.6-13,9-13s9,7,9,13S1424.7,350.1,1417.3,350.1z M1417.3,326.4
				c-5.4,0-5.9,6.6-5.9,10.6s0.5,10.7,5.9,10.7c5.3,0,5.9-6.8,5.9-10.7C1423.2,333,1422.6,326.4,1417.3,326.4z"/>
			<path class="st2" d="M1431.3,349.7v-25.3h2.9v22.9h9.1v2.4H1431.3z"/>
			<path class="st2" d="M1454,350.1c-7.4,0-9-7.1-9-13.1c0-6.1,1.6-13,9-13s9,7,9,13S1461.4,350.1,1454,350.1z M1454,326.4
				c-5.4,0-5.9,6.6-5.9,10.6s0.6,10.7,5.9,10.7s5.9-6.8,5.9-10.7C1459.8,333,1459.3,326.4,1454,326.4z"/>
			<path class="st2" d="M1481.1,331.3c0-3-1.9-4.9-4.9-4.9c-5.3,0-6.3,5.6-6.3,9.8c0,4.6,0.7,11.5,6.8,11.5c1.4,0,3.6-0.4,4.7-1.4
				v-8.5h-5.8v-2.4h8.7v12.3c-1.9,1.6-5,2.4-7.3,2.4c-8.3,0-10.1-7-10.1-13.9c0-6.2,2.3-12.2,9.4-12.2c4.5,0,8.1,2.6,8.1,7.3
				L1481.1,331.3L1481.1,331.3z"/>
			<path class="st2" d="M1489.9,349.7v-25.3h2.9v25.3H1489.9z"/>
			<path class="st2" d="M1512.1,331.3c0-2.8-1.7-4.9-4.6-4.9c-5.5,0-6.4,6-6.4,10.3c0,4.8,1.3,11,7.3,11c2.2,0,4.3-0.7,6-2.1v3
				c-2.4,1-4,1.5-6.7,1.5c-7.6,0-9.7-7.2-9.7-13.5s2.2-12.6,9.5-12.6c4.5,0,7.8,2.6,7.8,7.3L1512.1,331.3L1512.1,331.3z"/>
			<path class="st2" d="M1533,349.7l-2.5-7.8h-9l-2.5,7.8h-2.9l8.1-25.3h3.5l8.2,25.3H1533z M1526,327L1526,327l-3.8,12.5h7.5
				L1526,327z"/>
			<path class="st2" d="M1539.3,349.7v-25.3h2.9v22.9h9.1v2.4H1539.3z"/>
			<path class="st2" d="M1305.2,382.6c0-2.8-1.7-4.9-4.6-4.9c-5.5,0-6.4,6-6.4,10.3c0,4.8,1.3,11,7.3,11c2.2,0,4.3-0.7,6-2.1v3
				c-2.4,1-4,1.5-6.7,1.5c-7.6,0-9.7-7.2-9.7-13.5s2.2-12.6,9.5-12.6c4.5,0,7.8,2.6,7.8,7.3L1305.2,382.6L1305.2,382.6z"/>
			<path class="st2" d="M1319.8,401.5c-7.4,0-9-7.1-9-13.1c0-6.1,1.6-13,9-13s9,7,9,13S1327.2,401.5,1319.8,401.5z M1319.8,377.7
				c-5.4,0-5.9,6.6-5.9,10.6s0.6,10.7,5.9,10.7s5.9-6.8,5.9-10.7C1325.7,384.4,1325.1,377.7,1319.8,377.7z"/>
			<path class="st2" d="M1347,401l-10.4-21.3h-0.1V401h-2.7v-25.3h3.7l10.4,21.4h0.1v-21.4h2.7V401H1347z"/>
			<path class="st2" d="M1362.7,378.1V401h-2.9v-22.9h-6.1v-2.4h15v2.4H1362.7z"/>
			<path class="st2" d="M1385.2,401l-2.5-7.8h-9l-2.5,7.8h-2.9l8.1-25.3h3.5l8.2,25.3H1385.2z M1378.2,378.3L1378.2,378.3l-3.8,12.5
				h7.5L1378.2,378.3z"/>
			<path class="st2" d="M1412,401v-22.3h-0.1l-7.4,22.3h-2.8l-7.4-22.3h-0.1V401h-2.6v-25.3h4.3l7.2,21.5h0.1l7.2-21.5h4.3V401H1412
				z"/>
			<path class="st2" d="M1420.9,401v-25.3h2.9V401H1420.9z"/>
			<path class="st2" d="M1443.4,401l-10.4-21.3h-0.1V401h-2.7v-25.3h3.7l10.4,21.4h0.1v-21.4h2.7V401H1443.4z"/>
			<path class="st2" d="M1467.4,401l-2.5-7.8h-9l-2.5,7.8h-2.9l8.1-25.3h3.5l8.2,25.3H1467.4z M1460.4,378.3L1460.4,378.3l-3.8,12.5
				h7.5L1460.4,378.3z"/>
			<path class="st2" d="M1478.9,378.1V401h-2.9v-22.9h-6.1v-2.4h15v2.4H1478.9z"/>
			<path class="st2" d="M1488.2,401v-25.3h2.9V401H1488.2z"/>
			<path class="st2" d="M1505.3,401.5c-7.4,0-9-7.1-9-13.1c0-6.1,1.6-13,9-13s9,7,9,13S1512.7,401.5,1505.3,401.5z M1505.3,377.7
				c-5.4,0-5.9,6.6-5.9,10.6s0.5,10.7,5.9,10.7c5.3,0,5.9-6.8,5.9-10.7C1511.1,384.4,1510.6,377.7,1505.3,377.7z"/>
			<path class="st2" d="M1532.5,401l-10.4-21.3h-0.1V401h-2.7v-25.3h3.7l10.4,21.4h0.1v-21.4h2.7V401H1532.5z"/>
		</g>
		<g>
			<path class="st2" d="M1383.9,1162.6c-1.7,0.6-3.5,0.7-5.3,0.7h-4.8V1138h5.7c8.1,0,10.4,5.3,10.4,12.6
				C1389.9,1155.4,1389,1160.9,1383.9,1162.6z M1382.5,1141c-1.3-0.5-2.7-0.5-4.1-0.5h-1.6v20.5h1.9c1.4,0,3-0.1,4.3-0.7
				c3.5-1.6,3.9-6.2,3.9-9.6C1386.8,1147.1,1386.4,1142.4,1382.5,1141z"/>
			<path class="st2" d="M1407.1,1163.3l-1.2-5.8c-0.8-3.5-1.4-5.4-5.4-5.4h-2.6v11.3h-2.9V1138h6.3c4.1,0,8.1,1.6,8.1,6.4
				c0,3.7-1.8,5.5-5.1,6.3v0.1c3.3,0.9,3.8,2.6,4.4,5.6l1.5,6.9H1407.1z M1399.9,1140.4h-2.1v9.3h1.6c3.4,0,7-0.8,7-5
				S1403.1,1140.4,1399.9,1140.4z"/>
			<path class="st2" d="M1430.3,1155.2c0,5.6-2.2,8.5-8.2,8.5c-5.5,0-7.7-3.4-7.7-8.5V1138h2.9v16.6c0,3.7,0.6,6.7,5,6.7
				c4.6,0,5.2-2.8,5.2-6.7V1138h2.9v17.2H1430.3z"/>
			<path class="st2" d="M1449.4,1144.9c0-3-1.9-4.9-4.9-4.9c-5.3,0-6.3,5.6-6.3,9.8c0,4.6,0.7,11.5,6.8,11.5c1.4,0,3.6-0.4,4.7-1.4
				v-8.5h-5.8v-2.4h8.7v12.3c-1.9,1.6-5,2.4-7.3,2.4c-8.3,0-10.1-7-10.1-13.9c0-6.2,2.3-12.2,9.4-12.2c4.5,0,8.1,2.6,8.1,7.3
				L1449.4,1144.9L1449.4,1144.9z"/>
			<path class="st2" d="M1290.5,1214.7v-25.3h2.9v25.3H1290.5z"/>
			<path class="st2" d="M1313,1214.7l-10.4-21.3h-0.1v21.3h-2.7v-25.3h3.7l10.4,21.4h0.1v-21.4h2.7v25.3H1313z"/>
			<path class="st2" d="M1335.9,1196.3c0-2.8-1.7-4.9-4.6-4.9c-5.5,0-6.4,6-6.4,10.3c0,4.8,1.3,11,7.3,11c2.2,0,4.3-0.7,6-2.1v3
				c-2.4,1-4,1.5-6.7,1.5c-7.6,0-9.7-7.2-9.7-13.5s2.2-12.6,9.5-12.6c4.5,0,7.8,2.6,7.8,7.3L1335.9,1196.3L1335.9,1196.3z"/>
			<path class="st2" d="M1350.4,1215.1c-7.4,0-9-7.1-9-13.1c0-6.1,1.6-13,9-13s9,7,9,13S1357.8,1215.1,1350.4,1215.1z
				 M1350.4,1191.4c-5.4,0-5.9,6.6-5.9,10.6s0.5,10.7,5.9,10.7c5.3,0,5.9-6.8,5.9-10.7C1356.3,1198,1355.7,1191.4,1350.4,1191.4z"/>
			<path class="st2" d="M1384.8,1214.7v-22.3h-0.1l-7.4,22.3h-2.8l-7.4-22.3h-0.1v22.3h-2.6v-25.3h4.3l7.2,21.5h0.1l7.2-21.5h4.3
				v25.3H1384.8z"/>
			<path class="st2" d="M1399.5,1203.4h-3v11.3h-2.9v-25.3h5.9c4.7,0,8,1.8,8,7C1407.5,1201.5,1404.1,1203.4,1399.5,1203.4z
				 M1398.9,1191.8h-2.4v9.2h3.1c3.2,0,5.1-1.3,5.1-4.6C1404.6,1192.5,1402.2,1191.8,1398.9,1191.8z"/>
			<path class="st2" d="M1424.6,1214.7l-2.5-7.8h-9l-2.5,7.8h-2.9l8.1-25.3h3.5l8.2,25.3H1424.6z M1417.6,1192L1417.6,1192
				l-3.8,12.5h7.5L1417.6,1192z"/>
			<path class="st2" d="M1436.1,1191.8v22.9h-2.9v-22.9h-6.1v-2.4h15v2.4H1436.1z"/>
			<path class="st2" d="M1445.4,1214.7v-25.3h2.9v25.3H1445.4z"/>
			<path class="st2" d="M1461.4,1214.7h-6.7v-25.3h6.7c4,0,6.9,2.1,6.9,6.2c0,2.6-1.2,4.7-3.7,5.6v0.1c3.5,0.8,4.9,3,4.9,6.5
				C1469.5,1212.8,1466,1214.7,1461.4,1214.7z M1460.4,1191.8h-2.9v8.5h2.5c3,0,5.4-1,5.4-4.5
				C1465.4,1192.6,1463.2,1191.8,1460.4,1191.8z M1461.2,1202.7h-3.6v9.6h3.3c3.1,0,5.8-1.1,5.8-4.8
				C1466.6,1204.3,1464.2,1202.7,1461.2,1202.7z"/>
			<path class="st2" d="M1474.6,1214.7v-25.3h2.9v25.3H1474.6z"/>
			<path class="st2" d="M1483.9,1214.7v-25.3h2.9v22.9h9.1v2.4H1483.9z"/>
			<path class="st2" d="M1499,1214.7v-25.3h2.9v25.3H1499z"/>
			<path class="st2" d="M1514.1,1191.8v22.9h-2.9v-22.9h-6.1v-2.4h15v2.4H1514.1z"/>
			<path class="st2" d="M1530.7,1203v11.7h-2.9V1203l-7.9-13.6h3.1l6.2,10.7l6.3-10.7h3.1L1530.7,1203z"/>
		</g>
		<g>
			<path class="st2" d="M1630.3,470.2h-3v11.3h-2.9v-25.3h5.9c4.7,0,8,1.8,8,7C1638.3,468.3,1634.9,470.2,1630.3,470.2z
				 M1629.7,458.6h-2.4v9.2h3.1c3.2,0,5.1-1.3,5.1-4.6C1635.5,459.3,1633,458.6,1629.7,458.6z"/>
			<path class="st2" d="M1655.5,481.5l-2.5-7.8h-9l-2.5,7.8h-2.9l8.1-25.3h3.5l8.2,25.3H1655.5z M1648.5,458.8L1648.5,458.8
				l-3.8,12.5h7.5L1648.5,458.8z"/>
			<path class="st2" d="M1674,481.5l-1.2-5.8c-0.8-3.5-1.4-5.4-5.4-5.4h-2.6v11.3h-2.9v-25.3h6.3c4.1,0,8.1,1.6,8.1,6.4
				c0,3.7-1.8,5.5-5.1,6.3v0.1c3.3,0.9,3.8,2.6,4.4,5.6l1.5,6.9h-3.1V481.5z M1666.8,458.6h-2.1v9.3h1.6c3.4,0,7-0.8,7-5
				C1673.3,458.7,1670,458.6,1666.8,458.6z"/>
			<path class="st2" d="M1687.3,458.6v22.9h-2.9v-22.9h-6.1v-2.4h15v2.4H1687.3z"/>
			<path class="st2" d="M1696.6,481.5v-25.3h2.9v25.3H1696.6z"/>
			<path class="st2" d="M1718.8,463.1c0-2.8-1.7-4.9-4.6-4.9c-5.5,0-6.4,6-6.4,10.3c0,4.8,1.3,11,7.3,11c2.2,0,4.3-0.7,6-2.1v3
				c-2.4,1-4,1.5-6.7,1.5c-7.6,0-9.7-7.2-9.7-13.5s2.2-12.6,9.5-12.6c4.5,0,7.8,2.6,7.8,7.3L1718.8,463.1L1718.8,463.1z"/>
			<path class="st2" d="M1741.4,473.4c0,5.6-2.2,8.5-8.2,8.5c-5.5,0-7.7-3.4-7.7-8.5v-17.2h2.9v16.6c0,3.7,0.6,6.7,5,6.7
				c4.6,0,5.2-2.8,5.2-6.7v-16.6h2.9v17.2H1741.4z"/>
			<path class="st2" d="M1747.4,481.5v-25.3h2.9v22.9h9.1v2.4H1747.4z"/>
			<path class="st2" d="M1776.4,481.5l-2.5-7.8h-9l-2.5,7.8h-2.9l8.1-25.3h3.5l8.2,25.3H1776.4z M1769.4,458.8L1769.4,458.8
				l-3.8,12.5h7.5L1769.4,458.8z"/>
			<path class="st2" d="M1787.8,458.6v22.9h-2.9v-22.9h-6v-2.4h15v2.4H1787.8z"/>
			<path class="st2" d="M1796.9,481.5v-25.3h12.2v2.4h-9.4v8.5h9v2.4h-9v9.7h9.7v2.4h-12.5V481.5z"/>
			<path class="st2" d="M1607.1,514.5c0-2.8-1.7-4.9-4.6-4.9c-5.5,0-6.4,6-6.4,10.3c0,4.8,1.3,11,7.3,11c2.2,0,4.3-0.7,6-2.1v3
				c-2.4,1-4,1.5-6.7,1.5c-7.6,0-9.7-7.2-9.7-13.5s2.2-12.6,9.5-12.6c4.5,0,7.8,2.6,7.8,7.3L1607.1,514.5L1607.1,514.5z"/>
			<path class="st2" d="M1621.6,533.3c-7.4,0-9-7.1-9-13.1c0-6.1,1.6-13,9-13s9,7,9,13S1629,533.3,1621.6,533.3z M1621.6,509.6
				c-5.4,0-5.9,6.6-5.9,10.6s0.5,10.7,5.9,10.7c5.3,0,5.9-6.8,5.9-10.7C1627.5,516.2,1626.9,509.6,1621.6,509.6z"/>
			<path class="st2" d="M1648.8,532.9l-10.4-21.3h-0.1v21.3h-2.7v-25.3h3.7l10.4,21.4h0.1v-21.4h2.7v25.3L1648.8,532.9L1648.8,532.9
				z"/>
			<path class="st2" d="M1664.5,510v22.9h-2.9V510h-6v-2.4h15v2.4H1664.5z"/>
			<path class="st2" d="M1687.1,532.9l-2.5-7.8h-9l-2.5,7.8h-2.9l8.1-25.3h3.5l8.2,25.3H1687.1z M1680,510.2L1680,510.2l-3.8,12.5
				h7.5L1680,510.2z"/>
			<path class="st2" d="M1713.8,532.9v-22.3h-0.1l-7.4,22.3h-2.8l-7.4-22.3h-0.1v22.3h-2.6v-25.3h4.3l7.2,21.5h0.1l7.2-21.5h4.3
				v25.3H1713.8z"/>
			<path class="st2" d="M1722.8,532.9v-25.3h2.9v25.3H1722.8z"/>
			<path class="st2" d="M1745.3,532.9l-10.4-21.3h-0.1v21.3h-2.7v-25.3h3.7l10.4,21.4h0.1v-21.4h2.7v25.3L1745.3,532.9L1745.3,532.9
				z"/>
			<path class="st2" d="M1769.3,532.9l-2.5-7.8h-9l-2.5,7.8h-2.9l8.1-25.3h3.5l8.2,25.3H1769.3z M1762.3,510.2L1762.3,510.2
				l-3.8,12.5h7.5L1762.3,510.2z"/>
			<path class="st2" d="M1780.7,510v22.9h-2.9V510h-6.1v-2.4h15v2.4H1780.7z"/>
			<path class="st2" d="M1790,532.9v-25.3h2.9v25.3H1790z"/>
			<path class="st2" d="M1807.1,533.3c-7.4,0-9-7.1-9-13.1c0-6.1,1.6-13,9-13s9,7,9,13S1814.5,533.3,1807.1,533.3z M1807.1,509.6
				c-5.4,0-5.9,6.6-5.9,10.6s0.5,10.7,5.9,10.7c5.3,0,5.9-6.8,5.9-10.7C1813,516.2,1812.4,509.6,1807.1,509.6z"/>
			<path class="st2" d="M1834.3,532.9l-10.4-21.3h-0.1v21.3h-2.7v-25.3h3.7l10.4,21.4h0.1v-21.4h2.7v25.3L1834.3,532.9L1834.3,532.9
				z"/>
		</g>
		<g>
			<path class="st2" d="M1062,1026.8c0-2.8-1.7-4.9-4.6-4.9c-5.5,0-6.4,6-6.4,10.3c0,4.8,1.3,11,7.3,11c2.2,0,4.3-0.7,6-2.1v3
				c-2.4,1-4,1.5-6.7,1.5c-7.6,0-9.7-7.2-9.7-13.5s2.2-12.6,9.5-12.6c4.5,0,7.8,2.6,7.8,7.3L1062,1026.8L1062,1026.8z"/>
			<path class="st2" d="M1082.1,1045.2v-12h-10.5v12h-2.9v-25.3h2.9v11h10.5v-11h2.9v25.3H1082.1z"/>
			<path class="st2" d="M1091.2,1045.2v-25.3h12.2v2.4h-9.4v8.5h8.9v2.4h-8.9v9.7h9.7v2.4h-12.5V1045.2z"/>
			<path class="st2" d="M1128.6,1045.2V1023h-0.1l-7.4,22.3h-2.8l-7.4-22.3h-0.1v22.3h-2.6V1020h4.3l7.2,21.5h0.1l7.2-21.5h4.3v25.3
				h-2.7V1045.2z"/>
			<path class="st2" d="M1137.6,1045.2v-25.3h2.9v25.3H1137.6z"/>
			<path class="st2" d="M1159.8,1026.8c0-2.8-1.7-4.9-4.6-4.9c-5.5,0-6.4,6-6.4,10.3c0,4.8,1.3,11,7.3,11c2.2,0,4.3-0.7,6-2.1v3
				c-2.4,1-4,1.5-6.7,1.5c-7.6,0-9.7-7.2-9.7-13.5s2.2-12.6,9.5-12.6c4.5,0,7.8,2.6,7.8,7.3L1159.8,1026.8L1159.8,1026.8z"/>
			<path class="st2" d="M1180.7,1045.2l-2.5-7.8h-9l-2.5,7.8h-2.9l8.1-25.3h3.5l8.2,25.3H1180.7z M1173.7,1022.6L1173.7,1022.6
				l-3.8,12.5h7.5L1173.7,1022.6z"/>
			<path class="st2" d="M1187,1045.2v-25.3h2.9v22.9h9.1v2.4H1187z"/>
			<path class="st2" d="M1013.4,1078.2c0-2.8-1.7-4.9-4.6-4.9c-5.5,0-6.4,6-6.4,10.3c0,4.8,1.3,11,7.3,11c2.2,0,4.3-0.7,6-2.1v3
				c-2.4,1-4,1.5-6.7,1.5c-7.6,0-9.7-7.2-9.7-13.5s2.2-12.6,9.5-12.6c4.5,0,7.8,2.6,7.8,7.3L1013.4,1078.2L1013.4,1078.2z"/>
			<path class="st2" d="M1027.9,1097c-7.4,0-9-7.1-9-13.1c0-6.1,1.6-13,9-13s9,7,9,13S1035.4,1097,1027.9,1097z M1027.9,1073.3
				c-5.4,0-5.9,6.6-5.9,10.6s0.5,10.7,5.9,10.7c5.3,0,5.9-6.8,5.9-10.7C1033.8,1079.9,1033.2,1073.3,1027.9,1073.3z"/>
			<path class="st2" d="M1055.1,1096.6l-10.4-21.3h-0.1v21.3h-2.7v-25.3h3.7l10.4,21.4h0.1v-21.4h2.7v25.3H1055.1z"/>
			<path class="st2" d="M1070.8,1073.7v22.9h-2.9v-22.9h-6.1v-2.4h15v2.4H1070.8z"/>
			<path class="st2" d="M1093.4,1096.6l-2.5-7.8h-9l-2.5,7.8h-2.9l8.1-25.3h3.5l8.2,25.3H1093.4z M1086.4,1073.9L1086.4,1073.9
				l-3.8,12.5h7.5L1086.4,1073.9z"/>
			<path class="st2" d="M1120.1,1096.6v-22.3h-0.1l-7.4,22.3h-2.8l-7.4-22.3h-0.1v22.3h-2.6v-25.3h4.3l7.2,21.5h0.1l7.2-21.5h4.3
				v25.3H1120.1z"/>
			<path class="st2" d="M1129.1,1096.6v-25.3h2.9v25.3H1129.1z"/>
			<path class="st2" d="M1151.6,1096.6l-10.4-21.3h-0.1v21.3h-2.7v-25.3h3.7l10.4,21.4h0.1v-21.4h2.7v25.3H1151.6z"/>
			<path class="st2" d="M1175.6,1096.6l-2.5-7.8h-9l-2.5,7.8h-2.9l8.1-25.3h3.5l8.2,25.3H1175.6z M1168.6,1073.9L1168.6,1073.9
				l-3.8,12.5h7.5L1168.6,1073.9z"/>
			<path class="st2" d="M1187,1073.7v22.9h-2.9v-22.9h-6.1v-2.4h15v2.4H1187z"/>
			<path class="st2" d="M1196.3,1096.6v-25.3h2.9v25.3H1196.3z"/>
			<path class="st2" d="M1213.4,1097c-7.4,0-9-7.1-9-13.1c0-6.1,1.6-13,9-13s9,7,9,13S1220.8,1097,1213.4,1097z M1213.4,1073.3
				c-5.4,0-5.9,6.6-5.9,10.6s0.6,10.7,5.9,10.7s5.9-6.8,5.9-10.7C1219.3,1079.9,1218.7,1073.3,1213.4,1073.3z"/>
			<path class="st2" d="M1240.6,1096.6l-10.4-21.3h-0.1v21.3h-2.7v-25.3h3.7l10.4,21.4h0.1v-21.4h2.7v25.3H1240.6z"/>
		</g>
		<g>
			<path class="st2" d="M1774.7,754.9c-2,0-3.9-0.3-5.8-0.8v-2.9c1.9,0.8,4,1.3,6.2,1.3c2.7,0,5.5-1.2,5.5-4.3
				c0-2.8-2.1-3.8-4.2-5.1l-2.2-1.2c-2.8-1.5-5.5-2.9-5.5-6.6c0-4.7,4-6.5,8.1-6.5c1.8,0,3.5,0.3,5.3,0.7v2.8
				c-1.7-0.7-3.7-1.1-5.5-1.1c-2.4,0-4.8,1.1-4.8,3.9c0,2.3,2.5,3.5,4.2,4.5l2.3,1.3c3,1.7,5.4,3.2,5.4,7
				C1783.6,753.1,1779.4,754.9,1774.7,754.9z"/>
			<path class="st2" d="M1801.3,754.5v-12h-10.5v12h-2.9v-25.3h2.9v11h10.5v-11h2.9v25.3H1801.3z"/>
			<path class="st2" d="M1824.4,754.5l-2.5-7.8h-9l-2.5,7.8h-2.9l8.1-25.3h3.5l8.2,25.3H1824.4z M1817.4,731.8L1817.4,731.8
				l-3.8,12.5h7.5L1817.4,731.8z"/>
			<path class="st2" d="M1842.9,754.5l-1.2-5.8c-0.8-3.5-1.4-5.4-5.4-5.4h-2.6v11.3h-2.9v-25.3h6.3c4.1,0,8.1,1.6,8.1,6.4
				c0,3.7-1.8,5.5-5.1,6.3v0.1c3.3,0.9,3.8,2.6,4.4,5.6l1.5,6.9L1842.9,754.5L1842.9,754.5z M1835.7,731.6h-2.1v9.3h1.6
				c3.4,0,7-0.8,7-5C1842.2,731.7,1839,731.6,1835.7,731.6z"/>
			<path class="st2" d="M1856.3,743.2h-3v11.3h-2.9v-25.3h5.9c4.7,0,8,1.8,8,7C1864.4,741.3,1861,743.2,1856.3,743.2z M1855.7,731.6
				h-2.4v9.2h3.1c3.2,0,5.1-1.3,5.1-4.6C1861.5,732.3,1859,731.6,1855.7,731.6z"/>
			<path class="st2" d="M1872.6,754.9c-2,0-3.9-0.3-5.8-0.8v-2.9c1.9,0.8,4,1.3,6.2,1.3c2.7,0,5.5-1.2,5.5-4.3
				c0-2.8-2.1-3.8-4.2-5.1l-2.2-1.2c-2.8-1.5-5.5-2.9-5.5-6.6c0-4.7,4-6.5,8.1-6.5c1.8,0,3.5,0.3,5.3,0.7v2.8
				c-1.7-0.7-3.7-1.1-5.5-1.1c-2.4,0-4.8,1.1-4.8,3.9c0,2.3,2.5,3.5,4.2,4.5l2.3,1.3c3,1.7,5.4,3.2,5.4,7
				C1881.5,753.1,1877.2,754.9,1872.6,754.9z"/>
			<path class="st2" d="M1775.5,805.9v-25.3h2.9v25.3H1775.5z"/>
			<path class="st2" d="M1798.1,805.9l-10.4-21.3h-0.1v21.3h-2.7v-25.3h3.7L1799,802h0.1v-21.4h2.7v25.3H1798.1z"/>
			<path class="st2" d="M1815,800.4c0,4.5-2.7,5.9-7,5.9c-1.1,0-2.1-0.2-3.2-0.4v-2.6c1,0.4,2.3,0.6,3.3,0.6c2.5,0,4-1.2,4-3.8
				v-19.5h2.9L1815,800.4L1815,800.4z"/>
			<path class="st2" d="M1836.6,797.7c0,5.6-2.2,8.5-8.2,8.5c-5.5,0-7.7-3.4-7.7-8.5v-17.2h2.9v16.6c0,3.7,0.6,6.7,5,6.7
				c4.6,0,5.2-2.8,5.2-6.7v-16.6h2.9v17.2H1836.6z"/>
			<path class="st2" d="M1854.8,805.9l-1.2-5.8c-0.8-3.5-1.4-5.4-5.4-5.4h-2.6V806h-2.9v-25.3h6.3c4.1,0,8.1,1.6,8.1,6.4
				c0,3.7-1.8,5.5-5.1,6.3v0.1c3.3,0.9,3.8,2.6,4.4,5.6l1.5,6.9L1854.8,805.9L1854.8,805.9z M1847.6,783h-2.1v9.3h1.6
				c3.4,0,7-0.8,7-5S1850.9,783,1847.6,783z"/>
			<path class="st2" d="M1869.8,794.2v11.7h-2.9v-11.7l-7.9-13.6h3.1l6.2,10.7l6.3-10.7h3.1L1869.8,794.2z"/>
		</g>
		<g>
			<path class="st2" d="M993.2,754.5l-2.5-7.8h-9l-2.5,7.8h-2.9l8.1-25.3h3.5l8.2,25.3H993.2z M986.2,731.8L986.2,731.8l-3.8,12.5
				h7.5L986.2,731.8z"/>
			<path class="st2" d="M999.7,754.5v-25.3h2.9v25.3H999.7z"/>
			<path class="st2" d="M1021.2,754.5l-1.2-5.8c-0.8-3.5-1.4-5.4-5.4-5.4h-2.6v11.3h-2.9v-25.3h6.3c4.1,0,8.1,1.6,8.1,6.4
				c0,3.7-1.8,5.5-5.1,6.3v0.1c3.3,0.9,3.8,2.6,4.4,5.6l1.5,6.9L1021.2,754.5L1021.2,754.5z M1014,731.6h-2.1v9.3h1.6
				c3.4,0,7-0.8,7-5C1020.5,731.7,1017.3,731.6,1014,731.6z"/>
			<path class="st2" d="M924.4,805.9v-25.3h12.2v2.4h-9.4v8.5h8.9v2.4h-8.9v9.7h9.7v2.4h-12.5V805.9z"/>
			<path class="st2" d="M961.9,805.9v-22.3h-0.1l-7.4,22.3h-2.8l-7.4-22.3H944v22.3h-2.6v-25.3h4.3l7.2,21.5h0.1l7.2-21.5h4.3v25.3
				H961.9z"/>
			<path class="st2" d="M977.4,805.9h-6.7v-25.3h6.7c4,0,6.9,2.1,6.9,6.2c0,2.6-1.2,4.7-3.7,5.6v0.1c3.5,0.8,4.9,3,4.9,6.5
				C985.4,804,981.9,805.9,977.4,805.9z M976.4,783h-2.9v8.5h2.5c3,0,5.4-1,5.4-4.5C981.4,783.7,979.1,783,976.4,783z M977.1,793.9
				h-3.6v9.6h3.3c3.1,0,5.8-1.1,5.8-4.8C982.6,795.5,980.2,793.9,977.1,793.9z"/>
			<path class="st2" d="M998.1,806.3c-7.4,0-9-7.1-9-13.1c0-6.1,1.6-13,9-13s9,7,9,13S1005.5,806.3,998.1,806.3z M998.1,782.6
				c-5.4,0-5.9,6.6-5.9,10.6s0.6,10.7,5.9,10.7c5.3,0,5.9-6.8,5.9-10.7C1004,789.2,1003.4,782.6,998.1,782.6z"/>
			<path class="st2" d="M1012.1,805.9v-25.3h2.9v22.9h9.1v2.4L1012.1,805.9L1012.1,805.9z"/>
			<path class="st2" d="M1027.2,805.9v-25.3h2.9v25.3H1027.2z"/>
			<path class="st2" d="M1041,806.3c-2,0-3.9-0.3-5.8-0.8v-2.9c1.9,0.8,4,1.3,6.2,1.3c2.7,0,5.5-1.2,5.5-4.3c0-2.8-2.1-3.8-4.2-5.1
				l-2.2-1.2c-2.8-1.5-5.5-2.9-5.5-6.6c0-4.7,4-6.5,8.1-6.5c1.8,0,3.5,0.3,5.3,0.7v2.8c-1.7-0.7-3.7-1.1-5.5-1.1
				c-2.4,0-4.8,1.1-4.8,3.9c0,2.3,2.5,3.5,4.2,4.5l2.3,1.3c3,1.7,5.4,3.2,5.4,7C1049.9,804.5,1045.6,806.3,1041,806.3z"/>
			<path class="st2" d="M1074.6,805.9v-22.3h-0.1l-7.4,22.3h-2.8l-7.4-22.3h-0.1v22.3h-2.6v-25.3h4.3l7.2,21.5h0.1l7.2-21.5h4.3
				v25.3H1074.6z"/>
		</g>
		<g>
			<path class="st2" d="M1684.3,1045.4c-1.7,0.6-3.5,0.7-5.3,0.7h-4.8v-25.3h5.7c8.1,0,10.4,5.3,10.4,12.6
				C1690.4,1038.1,1689.5,1043.6,1684.3,1045.4z M1682.9,1023.7c-1.3-0.5-2.7-0.5-4.1-0.5h-1.6v20.5h1.9c1.4,0,3-0.1,4.3-0.7
				c3.5-1.6,3.8-6.2,3.8-9.6C1687.2,1029.8,1686.9,1025.2,1682.9,1023.7z"/>
			<path class="st2" d="M1695.4,1046.1v-25.3h12.2v2.4h-9.4v8.5h9v2.4h-9v9.7h9.7v2.4L1695.4,1046.1L1695.4,1046.1z"/>
			<path class="st2" d="M1725.7,1046.1v-12h-10.5v12h-2.9v-25.3h2.9v11h10.5v-11h2.9v25.3L1725.7,1046.1L1725.7,1046.1z"/>
			<path class="st2" d="M1740.6,1034.8h-3v11.3h-2.9v-25.3h5.9c4.7,0,8,1.8,8,7C1748.7,1032.8,1745.2,1034.8,1740.6,1034.8z
				 M1740,1023.1h-2.4v9.2h3.1c3.2,0,5.1-1.3,5.1-4.6C1745.8,1023.9,1743.3,1023.1,1740,1023.1z"/>
			<path class="st2" d="M1637.6,1097.4v-25.3h12.2v2.4h-9.4v8.5h9v2.4h-9v9.7h9.7v2.4L1637.6,1097.4L1637.6,1097.4z"/>
			<path class="st2" d="M1667.4,1097.4l-6.4-10.6l-6.4,10.6h-3.1l8-13.3l-7.2-12h3.1l5.6,9.5l5.6-9.5h3.1l-7.2,12l8,13.3H1667.4z"/>
			<path class="st2" d="M1679.5,1086.1h-3v11.3h-2.9v-25.3h5.9c4.7,0,8,1.8,8,7C1687.5,1084.2,1684.1,1086.1,1679.5,1086.1z
				 M1678.9,1074.5h-2.4v9.2h3.1c3.2,0,5.1-1.3,5.1-4.6C1684.7,1075.2,1682.2,1074.5,1678.9,1074.5z"/>
			<path class="st2" d="M1699,1097.8c-7.4,0-9-7.1-9-13.1c0-6.1,1.6-13,9-13s9,7,9,13C1708,1090.8,1706.4,1097.8,1699,1097.8z
				 M1699,1074.1c-5.4,0-5.9,6.6-5.9,10.6s0.6,10.7,5.9,10.7s5.9-6.8,5.9-10.7C1704.9,1080.7,1704.3,1074.1,1699,1074.1z"/>
			<path class="st2" d="M1717.5,1097.8c-2,0-3.9-0.3-5.8-0.8v-2.9c1.9,0.8,4,1.3,6.2,1.3c2.7,0,5.5-1.2,5.5-4.3
				c0-2.8-2.1-3.8-4.2-5.1l-2.2-1.2c-2.8-1.5-5.5-2.9-5.5-6.6c0-4.7,4-6.5,8.1-6.5c1.8,0,3.5,0.3,5.3,0.7v2.8
				c-1.7-0.7-3.7-1.1-5.5-1.1c-2.4,0-4.8,1.1-4.8,3.9c0,2.3,2.5,3.5,4.2,4.5l2.3,1.3c3,1.7,5.4,3.2,5.4,7
				C1726.4,1096,1722.1,1097.8,1717.5,1097.8z"/>
			<path class="st2" d="M1746.4,1089.3c0,5.6-2.2,8.5-8.2,8.5c-5.5,0-7.7-3.4-7.7-8.5v-17.2h2.9v16.6c0,3.7,0.6,6.7,5,6.7
				c4.6,0,5.2-2.8,5.2-6.7v-16.6h2.9v17.2H1746.4z"/>
			<path class="st2" d="M1764.6,1097.4l-1.2-5.8c-0.8-3.5-1.4-5.4-5.4-5.4h-2.6v11.3h-2.9v-25.3h6.3c4.1,0,8.1,1.6,8.1,6.4
				c0,3.7-1.8,5.5-5.1,6.3v0.1c3.3,0.9,3.8,2.6,4.4,5.6l1.5,6.9L1764.6,1097.4L1764.6,1097.4z M1757.4,1074.5h-2.1v9.3h1.6
				c3.4,0,7-0.8,7-5C1763.9,1074.6,1760.7,1074.5,1757.4,1074.5z"/>
			<path class="st2" d="M1772.1,1097.4v-25.3h12.2v2.4h-9.4v8.5h8.9v2.4h-8.9v9.7h9.7v2.4L1772.1,1097.4L1772.1,1097.4z"/>
		</g>
		<g>
			<path class="st3" d="M1227.9,733.4h-7.2v27.1h-6.9v-60.8h14.1c11.4,0,19.3,4.2,19.3,16.8C1247.2,728.7,1239,733.4,1227.9,733.4z
				 M1226.4,705.4h-5.7v22.2h7.4c7.6,0,12.2-3.1,12.2-11C1240.3,707.2,1234.4,705.4,1226.4,705.4z"/>
			<path class="st3" d="M1285.4,760.5l-3-14c-1.8-8.5-3.3-13-13-13h-6.3v27h-6.9v-60.8h15.1c10,0,19.4,3.8,19.4,15.3
				c0,8.9-4.2,13.1-12.3,15.2v0.2c8,2.1,9.1,6.2,10.5,13.4l3.5,16.6L1285.4,760.5L1285.4,760.5z M1268.1,705.4h-5.1v22.3h3.8
				c8.2,0,16.9-1.8,16.9-12C1283.7,705.6,1275.9,705.4,1268.1,705.4z"/>
			<path class="st3" d="M1303.4,760.5v-60.8h29.4v5.7h-22.5v20.3h21.5v5.7h-21.5v23.2h23.3v5.7h-30.2V760.5z"/>
			<path class="st3" d="M1363.6,760.5h-8.6l-19.8-60.8h7l17.1,53.3h0.2l17.3-53.3h7L1363.6,760.5z"/>
			<path class="st3" d="M1389.9,760.5v-60.8h29.4v5.7h-22.5v20.3h21.5v5.7h-21.5v23.2h23.3v5.7h-30.2V760.5z"/>
			<path class="st3" d="M1462.4,760.5l-25-51.2h-0.2v51.2h-6.5v-60.8h8.8l25,51.3h0.2v-51.3h6.5v60.8H1462.4z"/>
			<path class="st3" d="M1500,705.4v55h-6.9v-55h-14.5v-5.7h35.9v5.7H1500z"/>
			<path class="st3" d="M1522.4,760.5v-60.8h6.9v60.8H1522.4z"/>
			<path class="st3" d="M1576.5,760.5l-25-51.2h-0.2v51.2h-6.5v-60.8h8.8l25,51.3h0.2v-51.3h6.5v60.8H1576.5z"/>
			<path class="st3" d="M1631.7,716.3c0-7.1-4.5-11.8-11.7-11.8c-12.7,0-15.2,13.4-15.2,23.6c0,11,1.8,27.7,16.3,27.7
				c3.4,0,8.5-1,11.2-3.3V732h-13.9v-5.7h20.8v29.5c-4.5,3.8-11.9,5.8-17.5,5.8c-19.8,0-24.3-16.9-24.3-33.4
				c0-14.8,5.6-29.3,22.6-29.3c10.7,0,19.5,6.2,19.5,17.5L1631.7,716.3L1631.7,716.3z"/>
			<path class="st3" d="M1350.7,870.6l-3-14c-1.8-8.5-3.3-13-13-13h-6.3v27h-6.9v-60.8h15.1c10,0,19.4,3.8,19.4,15.3
				c0,8.9-4.2,13.1-12.3,15.2v0.2c8,2.1,9.1,6.2,10.5,13.4l3.5,16.6L1350.7,870.6L1350.7,870.6z M1333.4,815.5h-5.1v22.3h3.8
				c8.2,0,16.9-1.8,16.9-12C1349,815.7,1341.3,815.5,1333.4,815.5z"/>
			<path class="st3" d="M1369.2,870.6v-60.8h6.9v60.8H1369.2z"/>
			<path class="st3" d="M1402.2,871.5c-4.8,0-9.4-0.8-14-1.8v-7c4.7,2,9.6,3.2,14.8,3.2c6.5,0,13.1-3,13.1-10.4
				c0-6.8-4.9-9.2-10.1-12.2l-5.4-3c-6.7-3.7-13.1-7-13.1-15.8c0-11.4,9.7-15.6,19.6-15.6c4.3,0,8.5,0.8,12.7,1.6v6.8
				c-4.1-1.7-8.8-2.6-13.3-2.6c-5.8,0-11.4,2.6-11.4,9.2c0,5.6,5.9,8.5,10.1,10.8l5.6,3.1c7.1,4.1,12.9,7.6,12.9,16.7
				C1423.6,867.2,1413.3,871.5,1402.2,871.5z"/>
			<path class="st3" d="M1464,870.6l-23.1-29.8h-0.2v29.8h-6.9v-60.8h6.9v27.6h0.2l21.3-27.6h8l-22.7,29.1l24.6,31.6h-8.1V870.6z"/>
			<path class="st3" d="M1490.3,871.5c-4.8,0-9.4-0.8-14-1.8v-7c4.7,2,9.6,3.2,14.8,3.2c6.5,0,13.1-3,13.1-10.4
				c0-6.8-4.9-9.2-10.1-12.2l-5.4-3c-6.7-3.7-13.1-7-13.1-15.8c0-11.4,9.7-15.6,19.5-15.6c4.3,0,8.5,0.8,12.7,1.6v6.8
				c-4.1-1.7-8.8-2.6-13.3-2.6c-5.8,0-11.4,2.6-11.4,9.2c0,5.6,5.9,8.5,10.1,10.8l5.6,3.1c7.1,4.1,12.9,7.6,12.9,16.7
				C1511.7,867.2,1501.4,871.5,1490.3,871.5z"/>
		</g>
		<g>
			<path class="st2" d="M1040.2,482.4v-22.3h-0.1l-7.4,22.3h-2.8l-7.4-22.3h-0.1v22.3h-2.6v-25.3h4.3l7.2,21.5h0.1l7.2-21.5h4.3
				v25.3H1040.2z"/>
			<path class="st2" d="M1049,482.4v-25.3h12.2v2.4h-9.4v8.5h8.9v2.4h-8.9v9.7h9.7v2.4H1049V482.4z"/>
			<path class="st2" d="M1076.1,481.7c-1.7,0.6-3.5,0.7-5.3,0.7h-4.8v-25.3h5.7c8.1,0,10.4,5.3,10.4,12.6
				C1082.1,474.5,1081.2,479.9,1076.1,481.7z M1074.6,460c-1.3-0.5-2.7-0.5-4.1-0.5h-1.6V480h1.9c1.4,0,3-0.1,4.3-0.7
				c3.5-1.6,3.9-6.2,3.9-9.6C1078.9,466.1,1078.6,461.5,1074.6,460z"/>
			<path class="st2" d="M1087.2,482.4v-25.3h2.9v25.3H1087.2z"/>
			<path class="st2" d="M1109.5,464c0-2.8-1.7-4.9-4.6-4.9c-5.5,0-6.4,6-6.4,10.3c0,4.8,1.3,11,7.3,11c2.2,0,4.3-0.7,6-2.1v3
				c-2.4,1-4,1.5-6.7,1.5c-7.6,0-9.7-7.2-9.7-13.5s2.2-12.6,9.5-12.6c4.5,0,7.8,2.6,7.8,7.3L1109.5,464L1109.5,464z"/>
			<path class="st2" d="M1130.4,482.4l-2.5-7.8h-9l-2.5,7.8h-2.9l8.1-25.3h3.5l8.2,25.3H1130.4z M1123.3,459.7L1123.3,459.7
				l-3.8,12.5h7.5L1123.3,459.7z"/>
			<path class="st2" d="M1141.8,459.5v22.9h-2.9v-22.9h-6.1v-2.4h15v2.4H1141.8z"/>
			<path class="st2" d="M1151.1,482.4v-25.3h2.9v25.3H1151.1z"/>
			<path class="st2" d="M1168.2,482.8c-7.4,0-9-7.1-9-13.1c0-6.1,1.6-13,9-13s9,7,9,13C1177.2,475.7,1175.6,482.8,1168.2,482.8z
				 M1168.2,459.1c-5.4,0-5.9,6.6-5.9,10.6s0.5,10.7,5.9,10.7c5.3,0,5.9-6.8,5.9-10.7C1174.1,465.7,1173.5,459.1,1168.2,459.1z"/>
			<path class="st2" d="M1195.4,482.4l-10.4-21.3h-0.1v21.3h-2.7v-25.3h3.7l10.4,21.4h0.1v-21.4h2.7v25.3H1195.4z"/>
			<path class="st2" d="M1063.6,526.4v-25.3h12.2v2.4h-9.4v8.5h8.9v2.4h-8.9v9.7h9.7v2.4h-12.5V526.4z"/>
			<path class="st2" d="M1092.8,526.4l-1.2-5.8c-0.8-3.5-1.4-5.4-5.4-5.4h-2.6v11.3h-2.9v-25.3h6.3c4.1,0,8.1,1.6,8.1,6.4
				c0,3.7-1.8,5.5-5.1,6.3v0.1c3.3,0.9,3.8,2.6,4.4,5.6l1.5,6.9L1092.8,526.4L1092.8,526.4z M1085.6,503.5h-2.1v9.3h1.6
				c3.4,0,7-0.8,7-5S1088.9,503.5,1085.6,503.5z"/>
			<path class="st2" d="M1112.5,526.4l-1.2-5.8c-0.8-3.5-1.4-5.4-5.4-5.4h-2.6v11.3h-2.9v-25.3h6.3c4.1,0,8.1,1.6,8.1,6.4
				c0,3.7-1.8,5.5-5.1,6.3v0.1c3.3,0.9,3.8,2.6,4.4,5.6l1.5,6.9L1112.5,526.4L1112.5,526.4z M1105.3,503.5h-2.1v9.3h1.6
				c3.4,0,7-0.8,7-5S1108.6,503.5,1105.3,503.5z"/>
			<path class="st2" d="M1127.8,526.8c-7.4,0-9-7.1-9-13.1c0-6.1,1.6-13,9-13s9,7,9,13S1135.2,526.8,1127.8,526.8z M1127.8,503.1
				c-5.4,0-5.9,6.6-5.9,10.6s0.5,10.7,5.9,10.7c5.3,0,5.9-6.8,5.9-10.7C1133.7,509.7,1133.1,503.1,1127.8,503.1z"/>
			<path class="st2" d="M1153.9,526.4l-1.2-5.8c-0.8-3.5-1.4-5.4-5.4-5.4h-2.6v11.3h-2.9v-25.3h6.3c4.1,0,8.1,1.6,8.1,6.4
				c0,3.7-1.8,5.5-5.1,6.3v0.1c3.3,0.9,3.8,2.6,4.4,5.6l1.5,6.9L1153.9,526.4L1153.9,526.4z M1146.8,503.5h-2.1v9.3h1.6
				c3.4,0,7-0.8,7-5S1150,503.5,1146.8,503.5z"/>
		</g>
	</g>
</g>
</svg>
