<?xml version="1.0" encoding="UTF-8"?>
<svg width="914px" height="318px" viewBox="0 0 914 318" version="1.1" xmlns="http://www.w3.org/2000/svg" xmlns:xlink="http://www.w3.org/1999/xlink">
    <!-- Generator: Sketch 53.2 (72643) - https://sketchapp.com -->
    <title>Group 3</title>
    <desc>Created with Sketch.</desc>
    <g id="7.-Product-Comparison" stroke="none" stroke-width="1" fill="none" fill-rule="evenodd">
        <g id="3" transform="translate(-55.000000, -274.000000)">
            <g id="Group-3" transform="translate(55.000000, 274.000000)">
                <g id="Group-2" transform="translate(-0.000000, 0.000000)">
                    <rect id="Rectangle-4" fill="#40C7A1" x="-5.68434189e-14" y="0" width="914" height="28"></rect>
                    <path d="M410.925653,19 L407.343622,8.97851562 L409.537957,8.97851562 L412.07409,16.3955078 L414.528192,8.97851562 L416.674676,8.97851562 L413.085809,19 L410.925653,19 Z M418.356317,13.9550781 L416.613153,13.640625 C416.809117,12.9387986 417.146353,12.4192725 417.624872,12.0820312 C418.10339,11.74479 418.81432,11.5761719 419.757684,11.5761719 C420.614459,11.5761719 421.252474,11.6775706 421.671747,11.8803711 C422.091019,12.0831716 422.386101,12.340656 422.557,12.652832 C422.7279,12.9650081 422.813348,13.5380818 422.813348,14.3720703 L422.79284,16.6142578 C422.79284,17.2522818 422.823602,17.7228175 422.885125,18.0258789 C422.946649,18.3289403 423.06172,18.6536441 423.23034,19 L421.32995,19 C421.279819,18.8723952 421.218296,18.6832695 421.145379,18.4326172 C421.113478,18.3186843 421.090692,18.2434898 421.07702,18.2070312 C420.748893,18.5260433 420.397985,18.7652987 420.024286,18.9248047 C419.650586,19.0843107 419.251827,19.1640625 418.827997,19.1640625 C418.080597,19.1640625 417.491573,18.961265 417.060907,18.5556641 C416.63024,18.1500631 416.414911,17.6373729 416.414911,17.0175781 C416.414911,16.6074198 416.512891,16.2417008 416.708856,15.9204102 C416.90482,15.5991195 417.179394,15.3530282 417.532586,15.1821289 C417.885778,15.0112296 418.39505,14.8619798 419.060418,14.734375 C419.958209,14.5657544 420.580273,14.4085294 420.926629,14.2626953 L420.926629,14.0712891 C420.926629,13.7021466 420.835484,13.4389656 420.653192,13.2817383 C420.470899,13.1245109 420.126827,13.0458984 419.620965,13.0458984 C419.279167,13.0458984 419.012568,13.1131178 418.821161,13.2475586 C418.629753,13.3819994 418.474807,13.6178369 418.356317,13.9550781 Z M420.926629,15.5136719 C420.680534,15.5957035 420.29089,15.6936843 419.757684,15.8076172 C419.224478,15.92155 418.875849,16.0332026 418.711786,16.1425781 C418.461133,16.3203134 418.335809,16.5458971 418.335809,16.8193359 C418.335809,17.0882175 418.436068,17.320637 418.63659,17.5166016 C418.837112,17.7125661 419.092318,17.8105469 419.402215,17.8105469 C419.748571,17.8105469 420.078971,17.6966157 420.393426,17.46875 C420.625849,17.2955721 420.778517,17.0836601 420.851434,16.8330078 C420.901564,16.6689445 420.926629,16.3567731 420.926629,15.8964844 L420.926629,15.5136719 Z M424.030145,16.9287109 L425.957879,16.6347656 C426.039911,17.0084654 426.20625,17.292154 426.456903,17.4858398 C426.707555,17.6795257 427.058463,17.7763672 427.509637,17.7763672 C428.006384,17.7763672 428.380079,17.6852223 428.630731,17.5029297 C428.799352,17.3753249 428.883661,17.2044282 428.883661,16.9902344 C428.883661,16.8444003 428.838088,16.7236333 428.746942,16.6279297 C428.651238,16.5367834 428.437048,16.4524743 428.104364,16.375 C426.554877,16.0332014 425.57279,15.7210301 425.158075,15.4384766 C424.583853,15.0465475 424.296747,14.5019566 424.296747,13.8046875 C424.296747,13.1757781 424.545116,12.6471376 425.041864,12.21875 C425.538611,11.7903624 426.308786,11.5761719 427.352411,11.5761719 C428.345905,11.5761719 429.084179,11.7379541 429.567254,12.0615234 C430.05033,12.3850928 430.383009,12.8636036 430.565301,13.4970703 L428.753778,13.8320312 C428.676303,13.5494778 428.529332,13.3330086 428.31286,13.1826172 C428.096387,13.0322258 427.787634,12.9570312 427.38659,12.9570312 C426.880728,12.9570312 426.518427,13.0276686 426.299676,13.1689453 C426.153842,13.2692062 426.080926,13.3990877 426.080926,13.5585938 C426.080926,13.6953132 426.144728,13.811523 426.272332,13.9072266 C426.44551,14.0348314 427.043649,14.2148426 428.066766,14.4472656 C429.089883,14.6796887 429.804231,14.9645165 430.209832,15.3017578 C430.610876,15.6435564 430.811395,16.1197886 430.811395,16.7304688 C430.811395,17.3958367 430.533403,17.967771 429.977411,18.4462891 C429.421418,18.9248071 428.598835,19.1640625 427.509637,19.1640625 C426.5207,19.1640625 425.737993,18.9635437 425.161493,18.5625 C424.584992,18.1614563 424.20788,17.6168654 424.030145,16.9287109 Z M432.0487,15.2675781 C432.0487,14.6295541 432.205925,14.0120473 432.520379,13.4150391 C432.834834,12.8180309 433.280305,12.3623063 433.856805,12.0478516 C434.433305,11.7333969 435.077016,11.5761719 435.787957,11.5761719 C436.88627,11.5761719 437.786326,11.9327764 438.488153,12.6459961 C439.189979,13.3592158 439.540887,14.2604112 439.540887,15.3496094 C439.540887,16.4479222 439.186561,17.3582321 438.477899,18.0805664 C437.769236,18.8029007 436.877156,19.1640625 435.801629,19.1640625 C435.136261,19.1640625 434.501665,19.0136734 433.897821,18.7128906 C433.293977,18.4121079 432.834834,17.9711943 432.520379,17.3901367 C432.205925,16.8090791 432.0487,16.1015667 432.0487,15.2675781 Z M434.01745,15.3701172 C434.01745,16.0901729 434.188346,16.6415996 434.530145,17.0244141 C434.871944,17.4072285 435.293489,17.5986328 435.794793,17.5986328 C436.296098,17.5986328 436.716504,17.4072285 437.056024,17.0244141 C437.395544,16.6415996 437.565301,16.0856156 437.565301,15.3564453 C437.565301,14.6455043 437.395544,14.0986347 437.056024,13.7158203 C436.716504,13.3330059 436.296098,13.1416016 435.794793,13.1416016 C435.293489,13.1416016 434.871944,13.3330059 434.530145,13.7158203 C434.188346,14.0986347 434.01745,14.6500615 434.01745,15.3701172 Z M440.203973,11.7402344 L441.270379,11.7402344 L441.270379,11.1933594 C441.270379,10.5826792 441.33532,10.1269546 441.465204,9.82617188 C441.595087,9.52538912 441.834342,9.28043714 442.182977,9.09130859 C442.531612,8.90218004 442.972525,8.80761719 443.505731,8.80761719 C444.052609,8.80761719 444.588085,8.88964762 445.112176,9.05371094 L444.852411,10.3935547 C444.54707,10.3206377 444.253128,10.2841797 443.970575,10.2841797 C443.692578,10.2841797 443.493199,10.3491204 443.37243,10.4790039 C443.251661,10.6088874 443.191278,10.8583966 443.191278,11.2275391 L443.191278,11.7402344 L444.626825,11.7402344 L444.626825,13.2509766 L443.191278,13.2509766 L443.191278,19 L441.270379,19 L441.270379,13.2509766 L440.203973,13.2509766 L440.203973,11.7402344 Z M445.706903,10.7558594 L445.706903,8.97851562 L447.627801,8.97851562 L447.627801,10.7558594 L445.706903,10.7558594 Z M445.706903,19 L445.706903,11.7402344 L447.627801,11.7402344 L447.627801,19 L445.706903,19 Z M448.6737,19 L451.291864,15.2607422 L448.783075,11.7402344 L451.127801,11.7402344 L452.412957,13.7363281 L453.766473,11.7402344 L456.022332,11.7402344 L453.561395,15.1787109 L456.247918,19 L453.88952,19 L452.412957,16.7509766 L450.922723,19 L448.6737,19 Z M460.07409,6.6953125 C460.71537,6.6953125 461.330598,6.85562991 461.919793,7.17626953 C462.508989,7.49690916 462.972038,7.95670273 463.308954,8.55566406 C463.645869,9.15462539 463.814325,9.78124673 463.814325,10.4355469 C463.814325,11.0865918 463.649124,11.7075166 463.318719,12.2983398 C462.988314,12.8891631 462.527706,13.3497705 461.936883,13.6801758 C461.34606,14.0105811 460.725135,14.1757812 460.07409,14.1757812 C459.423045,14.1757812 458.802121,14.0105811 458.211297,13.6801758 C457.620474,13.3497705 457.159867,12.8891631 456.829461,12.2983398 C456.499056,11.7075166 456.333856,11.0865918 456.333856,10.4355469 C456.333856,9.78124673 456.502311,9.15462539 456.839227,8.55566406 C457.176143,7.95670273 457.639191,7.49690916 458.228387,7.17626953 C458.817583,6.85562991 459.432811,6.6953125 460.07409,6.6953125 Z M460.078973,7.42773438 C459.564648,7.42773438 459.071488,7.55631382 458.599481,7.81347656 C458.127473,8.07063931 457.755569,8.44010176 457.483758,8.921875 C457.211947,9.40364824 457.076043,9.90820049 457.076043,10.4355469 C457.076043,10.959638 457.208692,11.4593075 457.473993,11.9345703 C457.739293,12.4098331 458.10957,12.7809231 458.584832,13.0478516 C459.060095,13.31478 459.558137,13.4482422 460.078973,13.4482422 C460.603064,13.4482422 461.10192,13.31478 461.575555,13.0478516 C462.04919,12.7809231 462.419467,12.4098331 462.686395,11.9345703 C462.953323,11.4593075 463.086786,10.959638 463.086786,10.4355469 C463.086786,9.90820049 462.950882,9.40364824 462.679071,8.921875 C462.407259,8.44010176 462.034542,8.07063931 461.560907,7.81347656 C461.087271,7.55631382 460.593299,7.42773438 460.078973,7.42773438 Z M460.53745,10.7008807 C460.655767,10.7459981 460.747081,10.7950855 460.811395,10.8481445 C460.876499,10.9018557 460.966017,11.00358 461.07995,11.1533203 C461.109247,11.192383 461.206902,11.3535142 461.372918,11.6367188 L461.841668,12.4375 L460.845575,12.4375 L460.513543,11.7929688 C460.288933,11.3600239 460.103388,11.0874029 459.956903,10.9750977 C459.810418,10.8627924 459.624873,10.8066406 459.400262,10.8066406 L459.190301,10.8066406 L459.190301,12.4375 L458.384637,12.4375 L458.384637,8.46777344 L459.190301,8.46777344 C459.945513,8.46777344 460.368686,8.47102861 460.459832,8.47753906 C460.726761,8.50032563 460.934278,8.55322224 461.082391,8.63623047 C461.230504,8.7192387 461.3542,8.84619055 461.453485,9.01708984 C461.552769,9.18798914 461.602411,9.37760313 461.602411,9.5859375 C461.602411,9.87239727 461.508824,10.1173492 461.321649,10.3208008 C461.134475,10.5242507 460.871622,10.6503883 460.533083,10.6992176 L460.53745,10.7008807 Z M459.190301,10.1816406 L459.51745,10.1816406 C459.982947,10.1816406 460.271844,10.1637372 460.384149,10.1279297 C460.496454,10.0921222 460.585158,10.0294601 460.650262,9.93994141 C460.715367,9.85042273 460.747918,9.74869849 460.747918,9.63476562 C460.747918,9.52408799 460.71618,9.42561892 460.652704,9.33935547 C460.589227,9.25309202 460.498896,9.19124368 460.381707,9.15380859 C460.264519,9.11637351 459.976436,9.09765625 459.51745,9.09765625 L459.190301,9.09765625 L459.190301,10.1816406 Z M468.141473,15.7392578 L470.110223,15.5478516 C470.228713,16.2086622 470.469108,16.6940089 470.831414,17.0039062 C471.193721,17.3138036 471.682486,17.46875 472.297723,17.46875 C472.949419,17.46875 473.440462,17.3308933 473.770868,17.0551758 C474.101273,16.7794583 474.266473,16.4570331 474.266473,16.0878906 C474.266473,15.8509103 474.196975,15.6492521 474.057977,15.4829102 C473.918979,15.3165682 473.676306,15.1718756 473.32995,15.0488281 C473.092969,14.9667965 472.552936,14.8209646 471.709832,14.6113281 C470.625192,14.3424466 469.864132,14.0120462 469.426629,13.6201172 C468.811392,13.0686821 468.503778,12.3964883 468.503778,11.6035156 C468.503778,11.0930964 468.64847,10.6157249 468.93786,10.1713867 C469.227249,9.72704856 469.644237,9.38867304 470.188836,9.15625 C470.733435,8.92382696 471.390818,8.80761719 472.161004,8.80761719 C473.418823,8.80761719 474.365591,9.08333058 475.001336,9.63476562 C475.637082,10.1862007 475.9709,10.9221959 476.002801,11.8427734 L473.979364,11.9316406 C473.892775,11.4166641 473.707067,11.0463878 473.422235,10.8208008 C473.137403,10.5952137 472.710161,10.4824219 472.140497,10.4824219 C471.552603,10.4824219 471.092321,10.6031889 470.759637,10.8447266 C470.545443,10.9996753 470.438348,11.20703 470.438348,11.4667969 C470.438348,11.7037772 470.538607,11.9065747 470.739129,12.0751953 C470.994339,12.2893891 471.614124,12.5126942 472.598504,12.7451172 C473.582884,12.9775402 474.310904,13.217935 474.782586,13.4663086 C475.254268,13.7146822 475.623405,14.0541971 475.890008,14.4848633 C476.156611,14.9155295 476.289911,15.447588 476.289911,16.0810547 C476.289911,16.6552763 476.130407,17.1930313 475.811395,17.6943359 C475.492383,18.1956405 475.041216,18.5681954 474.457879,18.8120117 C473.874543,19.055828 473.147662,19.1777344 472.277215,19.1777344 C471.010282,19.1777344 470.03731,18.8849313 469.35827,18.2993164 C468.67923,17.7137015 468.273635,16.8603572 468.141473,15.7392578 Z M479.413934,13.9550781 L477.67077,13.640625 C477.866734,12.9387986 478.203971,12.4192725 478.682489,12.0820312 C479.161007,11.74479 479.871937,11.5761719 480.815301,11.5761719 C481.672076,11.5761719 482.310091,11.6775706 482.729364,11.8803711 C483.148637,12.0831716 483.443718,12.340656 483.614618,12.652832 C483.785517,12.9650081 483.870965,13.5380818 483.870965,14.3720703 L483.850457,16.6142578 C483.850457,17.2522818 483.881219,17.7228175 483.942743,18.0258789 C484.004266,18.3289403 484.119337,18.6536441 484.287957,19 L482.387567,19 C482.337436,18.8723952 482.275914,18.6832695 482.202997,18.4326172 C482.171095,18.3186843 482.148309,18.2434898 482.134637,18.2070312 C481.80651,18.5260433 481.455603,18.7652987 481.081903,18.9248047 C480.708203,19.0843107 480.309444,19.1640625 479.885614,19.1640625 C479.138214,19.1640625 478.54919,18.961265 478.118524,18.5556641 C477.687858,18.1500631 477.472528,17.6373729 477.472528,17.0175781 C477.472528,16.6074198 477.570509,16.2417008 477.766473,15.9204102 C477.962438,15.5991195 478.237012,15.3530282 478.590204,15.1821289 C478.943395,15.0112296 479.452668,14.8619798 480.118036,14.734375 C481.015827,14.5657544 481.637891,14.4085294 481.984247,14.2626953 L481.984247,14.0712891 C481.984247,13.7021466 481.893102,13.4389656 481.710809,13.2817383 C481.528516,13.1245109 481.184444,13.0458984 480.678582,13.0458984 C480.336784,13.0458984 480.070185,13.1131178 479.878778,13.2475586 C479.687371,13.3819994 479.532424,13.6178369 479.413934,13.9550781 Z M481.984247,15.5136719 C481.738152,15.5957035 481.348507,15.6936843 480.815301,15.8076172 C480.282095,15.92155 479.933466,16.0332026 479.769403,16.1425781 C479.51875,16.3203134 479.393426,16.5458971 479.393426,16.8193359 C479.393426,17.0882175 479.493686,17.320637 479.694207,17.5166016 C479.894729,17.7125661 480.149935,17.8105469 480.459832,17.8105469 C480.806188,17.8105469 481.136589,17.6966157 481.451043,17.46875 C481.683466,17.2955721 481.836134,17.0836601 481.909051,16.8330078 C481.959182,16.6689445 481.984247,16.3567731 481.984247,15.8964844 L481.984247,15.5136719 Z M484.9237,11.7402344 L485.990106,11.7402344 L485.990106,11.1933594 C485.990106,10.5826792 486.055047,10.1269546 486.18493,9.82617188 C486.314814,9.52538912 486.554069,9.28043714 486.902704,9.09130859 C487.251338,8.90218004 487.692252,8.80761719 488.225457,8.80761719 C488.772335,8.80761719 489.307812,8.88964762 489.831903,9.05371094 L489.572137,10.3935547 C489.266797,10.3206377 488.972855,10.2841797 488.690301,10.2841797 C488.412305,10.2841797 488.212925,10.3491204 488.092157,10.4790039 C487.971388,10.6088874 487.911004,10.8583966 487.911004,11.2275391 L487.911004,11.7402344 L489.346551,11.7402344 L489.346551,13.2509766 L487.911004,13.2509766 L487.911004,19 L485.990106,19 L485.990106,13.2509766 L484.9237,13.2509766 L484.9237,11.7402344 Z M494.630731,16.6894531 L496.544793,17.0107422 C496.298698,17.7125686 495.910193,18.2469057 495.379266,18.6137695 C494.848339,18.9806333 494.18412,19.1640625 493.38659,19.1640625 C492.124214,19.1640625 491.189979,18.7516317 490.583856,17.9267578 C490.105338,17.2659472 489.866082,16.4319712 489.866082,15.4248047 C489.866082,14.2216737 490.180532,13.279463 490.809442,12.5981445 C491.438351,11.916826 492.233591,11.5761719 493.195184,11.5761719 C494.275268,11.5761719 495.127473,11.9327764 495.751825,12.6459961 C496.376177,13.3592158 496.674676,14.4518156 496.647332,15.9238281 L491.834832,15.9238281 C491.848504,16.4934924 492.003451,16.9366846 492.299676,17.253418 C492.595902,17.5701513 492.965039,17.7285156 493.407098,17.7285156 C493.707881,17.7285156 493.960808,17.6464852 494.165887,17.4824219 C494.370966,17.3183586 494.525913,17.0540383 494.630731,16.6894531 Z M494.740106,14.7480469 C494.726434,14.1920545 494.582881,13.7693699 494.309442,13.4799805 C494.036003,13.190591 493.703324,13.0458984 493.311395,13.0458984 C492.892122,13.0458984 492.545771,13.1985662 492.272332,13.5039062 C491.998894,13.8092463 491.864455,14.2239557 491.869012,14.7480469 L494.740106,14.7480469 Z M501.541864,11.7402344 L501.541864,13.2714844 L500.229364,13.2714844 L500.229364,16.1972656 C500.229364,16.7897165 500.241896,17.1349279 500.266961,17.2329102 C500.292027,17.3308924 500.348992,17.4117835 500.43786,17.4755859 C500.526727,17.5393883 500.634962,17.5712891 500.762567,17.5712891 C500.940302,17.5712891 501.197786,17.5097662 501.535028,17.3867188 L501.69909,18.8769531 C501.252473,19.0683603 500.746619,19.1640625 500.181512,19.1640625 C499.835156,19.1640625 499.522985,19.1059576 499.244989,18.9897461 C498.966993,18.8735346 498.763056,18.7231455 498.633172,18.5385742 C498.503289,18.354003 498.413283,18.1044938 498.363153,17.7900391 C498.322137,17.5667307 498.301629,17.1155633 498.301629,16.4365234 L498.301629,13.2714844 L497.419793,13.2714844 L497.419793,11.7402344 L498.301629,11.7402344 L498.301629,10.2978516 L500.229364,9.17675781 L500.229364,11.7402344 L501.541864,11.7402344 Z M501.965692,11.7402344 L504.009637,11.7402344 L505.745965,16.8945312 L507.441278,11.7402344 L509.430536,11.7402344 L506.867059,18.7265625 L506.409051,19.9912109 C506.240431,20.4150412 506.079788,20.7386057 505.927118,20.9619141 C505.774448,21.1852225 505.598994,21.366373 505.40075,21.5053711 C505.202507,21.6443692 504.958695,21.7526038 504.669305,21.8300781 C504.379916,21.9075525 504.052933,21.9462891 503.688348,21.9462891 C503.319206,21.9462891 502.956905,21.9075525 502.601434,21.8300781 L502.430536,20.3261719 C502.731318,20.385417 503.002474,20.4150391 503.244012,20.4150391 C503.690629,20.4150391 504.021029,20.2840182 504.235223,20.0219727 C504.449417,19.7599271 504.613478,19.4261088 504.727411,19.0205078 L501.965692,11.7402344 Z" id="Vasofix®Safety" fill="#FFFFFF" fill-rule="nonzero"></path>
                    <polygon id="Rectangle-9" fill="#FFFFFF" points="0 29 227 29 227 57 0 57"></polygon>
                    <polygon id="Rectangle-9-Copy-16" fill="#FFFFFF" points="0 145 227 145 227 173 0 173"></polygon>
                    <polygon id="Rectangle-9-Copy-8" fill="#FFFFFF" points="0 87 227 87 227 115 0 115"></polygon>
                    <polygon id="Rectangle-9-Copy-17" fill="#FFFFFF" points="0 203 227 203 227 231 0 231"></polygon>
                    <polygon id="Rectangle-9-Copy-4" fill="#FFFFFF" points="0 58 227 58 227 86 0 86"></polygon>
                    <polygon id="Rectangle-9-Copy-18" fill="#FFFFFF" points="0 174 227 174 227 202 0 202"></polygon>
                    <polygon id="Rectangle-9-Copy-9" fill="#FFFFFF" points="0 116 227 116 227 144 0 144"></polygon>
                    <polygon id="Rectangle-9-Copy-19" fill="#FFFFFF" points="0 232 227 232 227 260 0 260"></polygon>
                    <polygon id="Rectangle-9-Copy-32" fill="#FFFFFF" points="0 261 227 261 227 289 0 289"></polygon>
                    <polygon id="Rectangle-9-Copy-36" fill="#FFFFFF" points="0 290 227 290 227 318 0 318"></polygon>
                    <polygon id="Rectangle-9-Copy" fill="#FFFFFF" points="228 29 456 29 456 57 228 57"></polygon>
                    <polygon id="Rectangle-9-Copy-20" fill="#FFFFFF" points="228 145 456 145 456 173 228 173"></polygon>
                    <polygon id="Rectangle-9-Copy-10" fill="#FFFFFF" points="228 87 456 87 456 115 228 115"></polygon>
                    <polygon id="Rectangle-9-Copy-21" fill="#FFFFFF" points="228 203 456 203 456 231 228 231"></polygon>
                    <polygon id="Rectangle-9-Copy-5" fill="#FFFFFF" points="228 58 456 58 456 86 228 86"></polygon>
                    <polygon id="Rectangle-9-Copy-22" fill="#FFFFFF" points="228 174 456 174 456 202 228 202"></polygon>
                    <polygon id="Rectangle-9-Copy-11" fill="#FFFFFF" points="228 116 456 116 456 144 228 144"></polygon>
                    <polygon id="Rectangle-9-Copy-23" fill="#FFFFFF" points="228 232 456 232 456 260 228 260"></polygon>
                    <polygon id="Rectangle-9-Copy-33" fill="#FFFFFF" points="228 261 456 261 456 289 228 289"></polygon>
                    <polygon id="Rectangle-9-Copy-37" fill="#FFFFFF" points="228 290 456 290 456 318 228 318"></polygon>
                    <polygon id="Rectangle-9-Copy-2" fill="#FFFFFF" points="457 29 685 29 685 57 457 57"></polygon>
                    <polygon id="Rectangle-9-Copy-24" fill="#FFFFFF" points="457 145 685 145 685 173 457 173"></polygon>
                    <polygon id="Rectangle-9-Copy-12" fill="#FFFFFF" points="457 87 685 87 685 115 457 115"></polygon>
                    <polygon id="Rectangle-9-Copy-25" fill="#FFFFFF" points="457 203 685 203 685 231 457 231"></polygon>
                    <polygon id="Rectangle-9-Copy-6" fill="#FFFFFF" points="457 58 685 58 685 86 457 86"></polygon>
                    <polygon id="Rectangle-9-Copy-26" fill="#FFFFFF" points="457 174 685 174 685 202 457 202"></polygon>
                    <polygon id="Rectangle-9-Copy-13" fill="#FFFFFF" points="457 116 685 116 685 144 457 144"></polygon>
                    <polygon id="Rectangle-9-Copy-27" fill="#FFFFFF" points="457 232 685 232 685 260 457 260"></polygon>
                    <polygon id="Rectangle-9-Copy-34" fill="#FFFFFF" points="457 261 685 261 685 289 457 289"></polygon>
                    <polygon id="Rectangle-9-Copy-38" fill="#FFFFFF" points="457 290 685 290 685 318 457 318"></polygon>
                    <polygon id="Rectangle-9-Copy-3" fill="#FFFFFF" points="686 29 914 29 914 57 686 57"></polygon>
                    <polygon id="Rectangle-9-Copy-28" fill="#FFFFFF" points="686 145 914 145 914 173 686 173"></polygon>
                    <polygon id="Rectangle-9-Copy-14" fill="#FFFFFF" points="686 87 914 87 914 115 686 115"></polygon>
                    <polygon id="Rectangle-9-Copy-29" fill="#FFFFFF" points="686 203 914 203 914 231 686 231"></polygon>
                    <polygon id="Rectangle-9-Copy-7" fill="#FFFFFF" points="686 58 914 58 914 86 686 86"></polygon>
                    <polygon id="Rectangle-9-Copy-30" fill="#FFFFFF" points="686 174 914 174 914 202 686 202"></polygon>
                    <polygon id="Rectangle-9-Copy-15" fill="#FFFFFF" points="686 116 914 116 914 144 686 144"></polygon>
                    <polygon id="Rectangle-9-Copy-31" fill="#FFFFFF" points="686 232 914 232 914 260 686 260"></polygon>
                    <polygon id="Rectangle-9-Copy-35" fill="#FFFFFF" points="686 261 914 261 914 289 686 289"></polygon>
                    <polygon id="Rectangle-9-Copy-39" fill="#FFFFFF" points="686 290 914 290 914 318 686 318"></polygon>
                    <text id="Gauge-Size" font-family="Arial-BoldMT, Arial" font-size="14" font-weight="bold" fill="#373737">
                        <tspan x="76.267818" y="48">Gauge Size</tspan>
                    </text>
                    <text id="20" font-family="Arial-BoldMT, Arial" font-size="14" font-weight="bold" fill="#373737">
                        <tspan x="113.71606" y="164">20</tspan>
                    </text>
                    <text id="22" font-family="Arial-BoldMT, Arial" font-size="14" font-weight="bold" fill="#373737">
                        <tspan x="113.71606" y="106">22</tspan>
                    </text>
                    <text id="18" font-family="Arial-BoldMT, Arial" font-size="14" font-weight="bold" fill="#373737">
                        <tspan x="113.71606" y="222">18</tspan>
                    </text>
                    <text id="24" font-family="Arial-BoldMT, Arial" font-size="14" font-weight="bold" fill="#373737">
                        <tspan x="113.71606" y="77">24</tspan>
                    </text>
                    <text id="18" font-family="Arial-BoldMT, Arial" font-size="14" font-weight="bold" fill="#373737">
                        <tspan x="113.71606" y="193">18</tspan>
                    </text>
                    <text id="20" font-family="Arial-BoldMT, Arial" font-size="14" font-weight="bold" fill="#373737">
                        <tspan x="113.71606" y="135">20</tspan>
                    </text>
                    <text id="17" font-family="Arial-BoldMT, Arial" font-size="14" font-weight="bold" fill="#373737">
                        <tspan x="113.71606" y="251">17</tspan>
                    </text>
                    <text id="16" font-family="Arial-BoldMT, Arial" font-size="14" font-weight="bold" fill="#373737">
                        <tspan x="113.71606" y="280">16</tspan>
                    </text>
                    <text id="14" font-family="Arial-BoldMT, Arial" font-size="14" font-weight="bold" fill="#373737">
                        <tspan x="113.71606" y="309">14</tspan>
                    </text>
                    <text id="19" font-family="Arial-BoldMT, Arial" font-size="14" font-weight="bold" fill="#373737">
                        <tspan x="334.213867" y="76">19</tspan>
                    </text>
                    <text id="33" font-family="Arial-BoldMT, Arial" font-size="14" font-weight="bold" fill="#373737">
                        <tspan x="334.213867" y="192">33</tspan>
                    </text>
                    <text id="25" font-family="Arial-BoldMT, Arial" font-size="14" font-weight="bold" fill="#373737">
                        <tspan x="334.213867" y="134">25</tspan>
                    </text>
                    <text id="45" font-family="Arial-BoldMT, Arial" font-size="14" font-weight="bold" fill="#373737">
                        <tspan x="334.213867" y="250">45</tspan>
                    </text>
                    <text id="25" font-family="Arial-BoldMT, Arial" font-size="14" font-weight="bold" fill="#373737">
                        <tspan x="334.213867" y="105">25</tspan>
                    </text>
                    <text id="45" font-family="Arial-BoldMT, Arial" font-size="14" font-weight="bold" fill="#373737">
                        <tspan x="334.213867" y="221">45</tspan>
                    </text>
                    <text id="33" font-family="Arial-BoldMT, Arial" font-size="14" font-weight="bold" fill="#373737">
                        <tspan x="334.213867" y="163">33</tspan>
                    </text>
                    <text id="50" font-family="Arial-BoldMT, Arial" font-size="14" font-weight="bold" fill="#373737">
                        <tspan x="334.213867" y="279">50</tspan>
                    </text>
                    <text id="50" font-family="Arial-BoldMT, Arial" font-size="14" font-weight="bold" fill="#373737">
                        <tspan x="334.213867" y="308">50</tspan>
                    </text>
                    <text id="Catheter-Length-(mm)-Copy-9" font-family="Arial-BoldMT, Arial" font-size="14" font-weight="bold" fill="#373737">
                        <tspan x="269.275879" y="48">Catheter Length (mm)</tspan>
                    </text>
                    <text id="Catheter-Length-(inc" font-family="Arial-BoldMT, Arial" font-size="14" font-weight="bold" fill="#373737">
                        <tspan x="496.334473" y="48">Catheter Length (inch)</tspan>
                    </text>
                    <text id="1-¼" font-family="Arial-BoldMT, Arial" font-size="14" font-weight="bold" fill="#373737">
                        <tspan x="559.324219" y="164">1 ¼</tspan>
                    </text>
                    <text id="1" font-family="Arial-BoldMT, Arial" font-size="14" font-weight="bold" fill="#373737">
                        <tspan x="567.106934" y="106">1</tspan>
                    </text>
                    <text id="1-¾" font-family="Arial-BoldMT, Arial" font-size="14" font-weight="bold" fill="#373737">
                        <tspan x="559.324219" y="222">1 ¾</tspan>
                    </text>
                    <text id="¾" font-family="Arial-BoldMT, Arial" font-size="14" font-weight="bold" fill="#373737">
                        <tspan x="565.162109" y="77">¾</tspan>
                    </text>
                    <text id="1-¼" font-family="Arial-BoldMT, Arial" font-size="14" font-weight="bold" fill="#373737">
                        <tspan x="559.324219" y="193">1 ¼</tspan>
                    </text>
                    <text id="1" font-family="Arial-BoldMT, Arial" font-size="14" font-weight="bold" fill="#373737">
                        <tspan x="567.106934" y="135">1</tspan>
                    </text>
                    <text id="1-¾" font-family="Arial-BoldMT, Arial" font-size="14" font-weight="bold" fill="#373737">
                        <tspan x="559.324219" y="251">1 ¾</tspan>
                    </text>
                    <text id="2" font-family="Arial-BoldMT, Arial" font-size="14" font-weight="bold" fill="#373737">
                        <tspan x="567.106934" y="280">2</tspan>
                    </text>
                    <text id="2" font-family="Arial-BoldMT, Arial" font-size="14" font-weight="bold" fill="#373737">
                        <tspan x="567.106934" y="309">2</tspan>
                    </text>
                    <text id="Catheter-Material" font-family="Arial-BoldMT, Arial" font-size="14" font-weight="bold" fill="#373737">
                        <tspan x="743.203613" y="48">Catheter Material</tspan>
                    </text>
                    <text id="FEP-/-PUR" font-family="Arial-BoldMT, Arial" font-size="14" font-weight="bold" fill="#373737">
                        <tspan x="765.898926" y="164">FEP / PUR</tspan>
                    </text>
                    <text id="FEP-/-PUR" font-family="Arial-BoldMT, Arial" font-size="14" font-weight="bold" fill="#373737">
                        <tspan x="765.898926" y="106">FEP / PUR</tspan>
                    </text>
                    <text id="FEP-/-PUR" font-family="Arial-BoldMT, Arial" font-size="14" font-weight="bold" fill="#373737">
                        <tspan x="765.898926" y="222">FEP / PUR</tspan>
                    </text>
                    <text id="PUR" font-family="Arial-BoldMT, Arial" font-size="14" font-weight="bold" fill="#373737">
                        <tspan x="785.220703" y="77">PUR</tspan>
                    </text>
                    <text id="FEP-/-PUR" font-family="Arial-BoldMT, Arial" font-size="14" font-weight="bold" fill="#373737">
                        <tspan x="765.898926" y="193">FEP / PUR</tspan>
                    </text>
                    <text id="PUR" font-family="Arial-BoldMT, Arial" font-size="14" font-weight="bold" fill="#373737">
                        <tspan x="785.220703" y="135">PUR</tspan>
                    </text>
                    <text id="FEP-/-PUR" font-family="Arial-BoldMT, Arial" font-size="14" font-weight="bold" fill="#373737">
                        <tspan x="765.898926" y="251">FEP / PUR</tspan>
                    </text>
                    <text id="FEP-/-PUR" font-family="Arial-BoldMT, Arial" font-size="14" font-weight="bold" fill="#373737">
                        <tspan x="765.898926" y="280">FEP / PUR</tspan>
                    </text>
                    <text id="FEP-/-PUR" font-family="Arial-BoldMT, Arial" font-size="14" font-weight="bold" fill="#373737">
                        <tspan x="765.898926" y="309">FEP / PUR</tspan>
                    </text>
                </g>
                <rect id="Rectangle" fill="#FEFB01" x="85" y="64" width="16" height="16"></rect>
                <rect id="Rectangle-Copy-5" fill="#018000" x="85" y="180" width="16" height="16"></rect>
                <rect id="Rectangle-Copy-3" fill="#FF98CD" x="85" y="122" width="16" height="16"></rect>
                <rect id="Rectangle-Copy-6" stroke="#E6E6E6" fill="#FFFFFF" x="85.5" y="238.5" width="15" height="15"></rect>
                <rect id="Rectangle-Copy-2" fill="#0170C0" x="85" y="93" width="16" height="16"></rect>
                <rect id="Rectangle-Copy-7" fill="#018000" x="85" y="209" width="16" height="16"></rect>
                <rect id="Rectangle-Copy-4" fill="#FF98CD" x="85" y="151" width="16" height="16"></rect>
                <rect id="Rectangle-Copy-8" fill="#7F7F7F" x="85" y="267" width="16" height="16"></rect>
                <rect id="Rectangle-Copy-9" fill="#ED7D31" x="85" y="296" width="16" height="16"></rect>
            </g>
        </g>
    </g>
</svg>