<?xml version="1.0" encoding="UTF-8"?>
<svg width="912px" height="468px" viewBox="0 0 912 468" version="1.1" xmlns="http://www.w3.org/2000/svg" xmlns:xlink="http://www.w3.org/1999/xlink">
    <!-- Generator: Sketch 54.1 (76490) - https://sketchapp.com -->
    <title>Tabelle01</title>
    <desc>Created with Sketch.</desc>
    <g id="Tabelle01" stroke="none" stroke-width="1" fill="none" fill-rule="evenodd">
        <g id="Group">
            <polygon id="Rectangle" fill-opacity="0.75" fill="#00B482" points="300 0 601 0 601 468 300 468"></polygon>
            <text id="Fully-automated" font-family="ArialMT, Arial" font-size="18" font-weight="normal" fill="#FFFFFF">
                <tspan x="312" y="69">Fully automated</tspan>
            </text>
            <text id="Closed-system,-coded" font-family="ArialMT, Arial" font-size="18" font-weight="normal" fill="#FFFFFF">
                <tspan x="312" y="242">Closed system, coded connection</tspan>
            </text>
            <text id="Possible" font-family="ArialMT, Arial" font-size="18" font-weight="normal" fill="#FFFFFF">
                <tspan x="312" y="291">Possible</tspan>
            </text>
            <text id="Return-of-ECOCart,-d" font-family="ArialMT, Arial" font-size="18" font-weight="normal" fill="#FFFFFF">
                <tspan x="312" y="348">Return of ECOCart,</tspan>
                <tspan x="312" y="368">disposable cart available</tspan>
            </text>
            <text id="2-ECOCarts-per-EU-pa" font-family="ArialMT, Arial" font-size="18" font-weight="normal" fill="#FFFFFF">
                <tspan x="312" y="411">2 ECOCarts per EU pallet space  </tspan>
            </text>
            <text id="No" font-family="ArialMT, Arial" font-size="18" font-weight="normal" fill="#FFFFFF">
                <tspan x="312" y="454">No</tspan>
            </text>
            <text id="2-4-min.-to-prepare," font-family="ArialMT, Arial" font-size="18" font-weight="normal" fill="#FFFFFF">
                <tspan x="312" y="112">2-4 min. to prepare, produce and </tspan>
                <tspan x="312" y="132">decant 1 batch</tspan>
            </text>
            <text id="Semi-automated-(barc" font-family="ArialMT, Arial" font-size="18" font-weight="normal" fill="#373737">
                <tspan x="620" y="69">Semi-automated (barcode scanner)</tspan>
            </text>
            <text id="Closed-system" font-family="ArialMT, Arial" font-size="18" font-weight="normal" fill="#373737">
                <tspan x="620" y="242">Closed system</tspan>
            </text>
            <text id="Possible" font-family="ArialMT, Arial" font-size="18" font-weight="normal" fill="#373737">
                <tspan x="620" y="291">Possible</tspan>
            </text>
            <text id="Return-of-Diamix-car" font-family="ArialMT, Arial" font-size="18" font-weight="normal" fill="#373737">
                <tspan x="620" y="358">Return of Diamix-cart (reuse)</tspan>
            </text>
            <path d="M629.061523,409.479492 L629.061523,411 L620.544922,411 C620.533203,410.619139 620.594726,410.252931 620.729492,409.901367 C620.94629,409.321286 621.293455,408.750003 621.770996,408.1875 C622.248538,407.624997 622.938472,406.974613 623.84082,406.236328 C625.241218,405.087885 626.187498,404.178226 626.679688,403.507324 C627.171877,402.836422 627.417969,402.202151 627.417969,401.604492 C627.417969,400.977536 627.19385,400.448733 626.745605,400.018066 C626.297361,399.5874 625.712894,399.37207 624.992188,399.37207 C624.230465,399.37207 623.621096,399.600584 623.164063,400.057617 C622.707029,400.514651 622.475586,401.147457 622.469727,401.956055 L620.84375,401.789062 C620.955079,400.576166 621.37402,399.651859 622.100586,399.016113 C622.827152,398.380368 623.802728,398.0625 625.027344,398.0625 C626.263678,398.0625 627.242184,398.40527 627.962891,399.09082 C628.683597,399.776371 629.043945,400.625971 629.043945,401.639648 C629.043945,402.155276 628.938478,402.662107 628.727539,403.160156 C628.516601,403.658206 628.166506,404.182614 627.677246,404.733398 C627.187986,405.284182 626.375006,406.040034 625.238281,407.000977 C624.289058,407.797856 623.679689,408.338377 623.410156,408.622559 C623.140624,408.90674 622.91797,409.192381 622.742188,409.479492 L629.061523,409.479492 Z M642.289063,407.581055 L643.844727,407.783203 C643.674804,408.855474 643.23975,409.694821 642.539551,410.30127 C641.839352,410.907718 640.979497,411.210938 639.959961,411.210938 C638.682611,411.210938 637.655766,410.793461 636.879395,409.958496 C636.103023,409.123531 635.714844,407.926766 635.714844,406.368164 C635.714844,405.360347 635.881834,404.478519 636.21582,403.722656 C636.549806,402.966793 637.058102,402.399904 637.740723,402.021973 C638.423343,401.644041 639.166012,401.455078 639.96875,401.455078 C640.982427,401.455078 641.81152,401.711423 642.456055,402.224121 C643.100589,402.736819 643.513671,403.464839 643.695313,404.408203 L642.157227,404.645508 C642.010741,404.018552 641.751467,403.546877 641.379395,403.230469 C641.007322,402.914061 640.55762,402.755859 640.030273,402.755859 C639.233394,402.755859 638.58594,403.041501 638.087891,403.612793 C637.589841,404.184085 637.34082,405.087884 637.34082,406.324219 C637.34082,407.578131 637.581052,408.489255 638.061523,409.057617 C638.541995,409.625979 639.168941,409.910156 639.942383,409.910156 C640.56348,409.910156 641.082029,409.719728 641.498047,409.338867 C641.914065,408.958006 642.177734,408.372074 642.289063,407.581055 Z M651.289063,409.848633 C650.703122,410.346682 650.139163,410.698241 649.597168,410.90332 C649.055173,411.108399 648.473636,411.210938 647.852539,411.210938 C646.827143,411.210938 646.039065,410.960452 645.488281,410.459473 C644.937497,409.958494 644.662109,409.318363 644.662109,408.539062 C644.662109,408.082029 644.766112,407.664553 644.974121,407.286621 C645.18213,406.90869 645.454588,406.60547 645.791504,406.376953 C646.12842,406.148436 646.50781,405.975587 646.929688,405.858398 C647.240236,405.776367 647.708981,405.697266 648.335938,405.621094 C649.613288,405.468749 650.553708,405.28711 651.157227,405.076172 C651.163086,404.859374 651.166016,404.72168 651.166016,404.663086 C651.166016,404.018551 651.016603,403.564454 650.717773,403.300781 C650.313475,402.943358 649.712895,402.764648 648.916016,402.764648 C648.171871,402.764648 647.62256,402.895018 647.268066,403.155762 C646.913572,403.416505 646.651368,403.877926 646.481445,404.540039 L644.93457,404.329102 C645.075196,403.666989 645.306639,403.132326 645.628906,402.725098 C645.951173,402.317869 646.416989,402.004396 647.026367,401.784668 C647.635745,401.56494 648.341793,401.455078 649.144531,401.455078 C649.94141,401.455078 650.588865,401.548827 651.086914,401.736328 C651.584963,401.923829 651.951171,402.159667 652.185547,402.443848 C652.419923,402.728029 652.583984,403.086912 652.677734,403.520508 C652.730469,403.79004 652.756836,404.276364 652.756836,404.979492 L652.756836,407.088867 C652.756836,408.559578 652.790527,409.489744 652.85791,409.879395 C652.925293,410.269045 653.058593,410.642576 653.257813,411 L651.605469,411 C651.441405,410.671873 651.335938,410.288088 651.289063,409.848633 Z M651.157227,406.31543 C650.583005,406.549806 649.721685,406.749023 648.573242,406.913086 C647.922848,407.006836 647.462892,407.112304 647.193359,407.229492 C646.923827,407.34668 646.715821,407.518065 646.569336,407.743652 C646.422851,407.969239 646.349609,408.219725 646.349609,408.495117 C646.349609,408.916994 646.509276,409.268553 646.828613,409.549805 C647.147951,409.831056 647.615231,409.97168 648.230469,409.97168 C648.839847,409.97168 649.381834,409.83838 649.856445,409.571777 C650.331057,409.305174 650.679686,408.940432 650.902344,408.477539 C651.072266,408.120115 651.157227,407.592777 651.157227,406.895508 L651.157227,406.31543 Z M655.191406,411 L655.191406,401.666016 L656.615234,401.666016 L656.615234,403.081055 C656.978517,402.418942 657.313963,401.982423 657.621582,401.771484 C657.929201,401.560546 658.267576,401.455078 658.636719,401.455078 C659.169925,401.455078 659.711911,401.624998 660.262695,401.964844 L659.717773,403.432617 C659.331053,403.2041 658.944338,403.089844 658.557617,403.089844 C658.211912,403.089844 657.901369,403.193847 657.625977,403.401855 C657.350585,403.609864 657.154297,403.898436 657.037109,404.267578 C656.861327,404.830081 656.773438,405.445309 656.773438,406.113281 L656.773438,411 L655.191406,411 Z M664.657227,409.584961 L664.885742,410.982422 C664.440427,411.076172 664.041994,411.123047 663.69043,411.123047 C663.116208,411.123047 662.6709,411.032227 662.354492,410.850586 C662.038084,410.668944 661.81543,410.430177 661.686523,410.134277 C661.557617,409.838377 661.493164,409.215825 661.493164,408.266602 L661.493164,402.896484 L660.333008,402.896484 L660.333008,401.666016 L661.493164,401.666016 L661.493164,399.354492 L663.066406,398.405273 L663.066406,401.666016 L664.657227,401.666016 L664.657227,402.896484 L663.066406,402.896484 L663.066406,408.354492 C663.066406,408.805666 663.094238,409.095702 663.149902,409.224609 C663.205567,409.353516 663.296386,409.456054 663.422363,409.532227 C663.54834,409.608399 663.728514,409.646484 663.962891,409.646484 C664.138673,409.646484 664.370116,409.625977 664.657227,409.584961 Z M666.186523,411 L666.186523,401.666016 L667.610352,401.666016 L667.610352,403.081055 C667.973635,402.418942 668.30908,401.982423 668.616699,401.771484 C668.924318,401.560546 669.262693,401.455078 669.631836,401.455078 C670.165042,401.455078 670.707028,401.624998 671.257813,401.964844 L670.712891,403.432617 C670.32617,403.2041 669.939455,403.089844 669.552734,403.089844 C669.20703,403.089844 668.896486,403.193847 668.621094,403.401855 C668.345702,403.609864 668.149415,403.898436 668.032227,404.267578 C667.856444,404.830081 667.768555,405.445309 667.768555,406.113281 L667.768555,411 L666.186523,411 Z M672.207031,399.93457 L672.207031,398.115234 L673.789063,398.115234 L673.789063,399.93457 L672.207031,399.93457 Z M672.207031,411 L672.207031,401.666016 L673.789063,401.666016 L673.789063,411 L672.207031,411 Z M682.25293,411 L682.25293,409.822266 C681.66113,410.748052 680.791021,411.210938 679.642578,411.210938 C678.898434,411.210938 678.214359,411.005861 677.590332,410.595703 C676.966305,410.185545 676.482912,409.612797 676.140137,408.877441 C675.797362,408.142086 675.625977,407.29688 675.625977,406.341797 C675.625977,405.410152 675.781248,404.564945 676.091797,403.806152 C676.402345,403.047359 676.868161,402.465822 677.489258,402.061523 C678.110355,401.657225 678.804684,401.455078 679.572266,401.455078 C680.134768,401.455078 680.63574,401.573729 681.075195,401.811035 C681.514651,402.048341 681.872069,402.35742 682.147461,402.738281 L682.147461,398.115234 L683.720703,398.115234 L683.720703,411 L682.25293,411 Z M677.251953,406.341797 C677.251953,407.537115 677.503904,408.430661 678.007813,409.022461 C678.511721,409.614261 679.106442,409.910156 679.791992,409.910156 C680.483402,409.910156 681.070798,409.627444 681.554199,409.062012 C682.0376,408.496579 682.279297,407.633795 682.279297,406.473633 C682.279297,405.196283 682.033206,404.258792 681.541016,403.661133 C681.048826,403.063474 680.442386,402.764648 679.72168,402.764648 C679.018551,402.764648 678.431155,403.051755 677.959473,403.625977 C677.487791,404.200198 677.251953,405.105463 677.251953,406.341797 Z M685.917969,411.773438 L687.456055,412.001953 C687.520508,412.476565 687.699217,412.822265 687.992188,413.039062 C688.384768,413.332033 688.920895,413.478516 689.600586,413.478516 C690.333011,413.478516 690.898436,413.332033 691.296875,413.039062 C691.695314,412.746092 691.964843,412.33594 692.105469,411.808594 C692.1875,411.486327 692.225586,410.809575 692.219727,409.77832 C691.528317,410.592778 690.666997,411 689.635742,411 C688.352533,411 687.359379,410.537114 686.65625,409.611328 C685.953121,408.685542 685.601563,407.575202 685.601563,406.280273 C685.601563,405.389644 685.762694,404.567875 686.084961,403.814941 C686.407228,403.062008 686.874509,402.480471 687.486816,402.070312 C688.099124,401.660154 688.818355,401.455078 689.644531,401.455078 C690.746099,401.455078 691.654293,401.900386 692.369141,402.791016 L692.369141,401.666016 L693.828125,401.666016 L693.828125,409.734375 C693.828125,411.187507 693.680177,412.217282 693.384277,412.82373 C693.088377,413.430179 692.619632,413.909178 691.978027,414.260742 C691.336423,414.612306 690.54688,414.788086 689.609375,414.788086 C688.496088,414.788086 687.596683,414.5376 686.911133,414.036621 C686.225583,413.535642 685.894531,412.781255 685.917969,411.773438 Z M687.227539,406.166016 C687.227539,407.390631 687.470701,408.284177 687.957031,408.84668 C688.443362,409.409183 689.052731,409.69043 689.785156,409.69043 C690.511722,409.69043 691.121091,409.410647 691.613281,408.851074 C692.105471,408.291501 692.351563,407.414068 692.351563,406.21875 C692.351563,405.076166 692.098147,404.214847 691.591309,403.634766 C691.08447,403.054685 690.473636,402.764648 689.758789,402.764648 C689.055661,402.764648 688.45801,403.05029 687.96582,403.621582 C687.47363,404.192874 687.227539,405.04101 687.227539,406.166016 Z M702.608398,407.994141 L704.243164,408.196289 C703.98535,409.151372 703.507816,409.892575 702.810547,410.419922 C702.113278,410.947268 701.222662,411.210938 700.138672,411.210938 C698.773431,411.210938 697.690922,410.790532 696.891113,409.949707 C696.091305,409.108883 695.691406,407.929695 695.691406,406.412109 C695.691406,404.841789 696.095699,403.623051 696.904297,402.755859 C697.712895,401.888668 698.761712,401.455078 700.050781,401.455078 C701.298834,401.455078 702.318355,401.879879 703.109375,402.729492 C703.900395,403.579106 704.295898,404.774406 704.295898,406.31543 C704.295898,406.40918 704.292969,406.549804 704.287109,406.737305 L697.326172,406.737305 C697.384766,407.7627 697.674802,408.547849 698.196289,409.092773 C698.717776,409.637698 699.36816,409.910156 700.147461,409.910156 C700.727542,409.910156 701.222654,409.757814 701.632813,409.453125 C702.042971,409.148436 702.368163,408.662113 702.608398,407.994141 Z M697.414063,405.436523 L702.625977,405.436523 C702.555664,404.651363 702.356447,404.062502 702.02832,403.669922 C701.524412,403.060544 700.871098,402.755859 700.068359,402.755859 C699.341793,402.755859 698.73096,402.999021 698.23584,403.485352 C697.74072,403.971682 697.466797,404.622066 697.414063,405.436523 Z M705.59668,408.213867 L707.161133,407.967773 C707.249024,408.59473 707.49365,409.075194 707.89502,409.40918 C708.296389,409.743166 708.857418,409.910156 709.578125,409.910156 C710.304691,409.910156 710.843748,409.762209 711.195313,409.466309 C711.546877,409.170409 711.722656,408.823244 711.722656,408.424805 C711.722656,408.067381 711.567384,407.786134 711.256836,407.581055 C711.040038,407.440429 710.500981,407.26172 709.639648,407.044922 C708.479486,406.751952 707.675295,406.498536 707.227051,406.284668 C706.778806,406.0708 706.438966,405.774904 706.20752,405.396973 C705.976073,405.019041 705.860352,404.601565 705.860352,404.144531 C705.860352,403.728514 705.955565,403.343263 706.145996,402.98877 C706.336427,402.634276 706.595701,402.339845 706.923828,402.105469 C707.169923,401.923827 707.505369,401.77002 707.930176,401.644043 C708.354983,401.518066 708.810544,401.455078 709.296875,401.455078 C710.029301,401.455078 710.672361,401.560546 711.226074,401.771484 C711.779788,401.982423 712.188475,402.268065 712.452148,402.628418 C712.715822,402.988771 712.89746,403.4707 712.99707,404.074219 L711.450195,404.285156 C711.379882,403.804685 711.176271,403.429689 710.839355,403.160156 C710.50244,402.890624 710.02637,402.755859 709.411133,402.755859 C708.684567,402.755859 708.166017,402.875975 707.855469,403.116211 C707.54492,403.356447 707.389648,403.637694 707.389648,403.959961 C707.389648,404.16504 707.454101,404.349609 707.583008,404.513672 C707.711915,404.683595 707.914061,404.824218 708.189453,404.935547 C708.347657,404.994141 708.813473,405.128905 709.586914,405.339844 C710.70606,405.638673 711.486814,405.8833 711.929199,406.07373 C712.371584,406.264161 712.718749,406.541014 712.970703,406.904297 C713.222658,407.26758 713.348633,407.718747 713.348633,408.257812 C713.348633,408.785159 713.194826,409.281736 712.887207,409.747559 C712.579588,410.213381 712.135745,410.573729 711.555664,410.828613 C710.975583,411.083497 710.31934,411.210938 709.586914,411.210938 C708.374017,411.210938 707.44971,410.958987 706.813965,410.455078 C706.178219,409.951169 705.772462,409.204107 705.59668,408.213867 Z M720.230469,414.577148 L720.230469,401.666016 L721.671875,401.666016 L721.671875,402.878906 C722.01172,402.404295 722.395506,402.048341 722.823242,401.811035 C723.250979,401.573729 723.769528,401.455078 724.378906,401.455078 C725.175785,401.455078 725.878903,401.660154 726.488281,402.070312 C727.097659,402.480471 727.557616,403.059078 727.868164,403.806152 C728.178712,404.553226 728.333984,405.372066 728.333984,406.262695 C728.333984,407.217778 728.162599,408.077633 727.819824,408.842285 C727.477049,409.606937 726.979007,410.192869 726.325684,410.600098 C725.67236,411.007326 724.985355,411.210938 724.264648,411.210938 C723.737302,411.210938 723.264162,411.09961 722.845215,410.876953 C722.426267,410.654296 722.082033,410.373049 721.8125,410.033203 L721.8125,414.577148 L720.230469,414.577148 Z M721.663086,406.385742 C721.663086,407.58692 721.906248,408.474607 722.392578,409.048828 C722.878909,409.62305 723.46777,409.910156 724.15918,409.910156 C724.862308,409.910156 725.464353,409.612796 725.965332,409.018066 C726.466311,408.423337 726.716797,407.501959 726.716797,406.253906 C726.716797,405.064447 726.47217,404.173831 725.98291,403.582031 C725.49365,402.990231 724.909183,402.694336 724.229492,402.694336 C723.555661,402.694336 722.959475,403.009274 722.440918,403.63916 C721.922361,404.269046 721.663086,405.184564 721.663086,406.385742 Z M736.630859,407.994141 L738.265625,408.196289 C738.007811,409.151372 737.530277,409.892575 736.833008,410.419922 C736.135739,410.947268 735.245123,411.210938 734.161133,411.210938 C732.795892,411.210938 731.713383,410.790532 730.913574,409.949707 C730.113766,409.108883 729.713867,407.929695 729.713867,406.412109 C729.713867,404.841789 730.11816,403.623051 730.926758,402.755859 C731.735356,401.888668 732.784173,401.455078 734.073242,401.455078 C735.321295,401.455078 736.340816,401.879879 737.131836,402.729492 C737.922856,403.579106 738.318359,404.774406 738.318359,406.31543 C738.318359,406.40918 738.31543,406.549804 738.30957,406.737305 L731.348633,406.737305 C731.407227,407.7627 731.697263,408.547849 732.21875,409.092773 C732.740237,409.637698 733.390621,409.910156 734.169922,409.910156 C734.750003,409.910156 735.245115,409.757814 735.655273,409.453125 C736.065432,409.148436 736.390624,408.662113 736.630859,407.994141 Z M731.436523,405.436523 L736.648438,405.436523 C736.578125,404.651363 736.378908,404.062502 736.050781,403.669922 C735.546872,403.060544 734.893559,402.755859 734.09082,402.755859 C733.364254,402.755859 732.75342,402.999021 732.258301,403.485352 C731.763181,403.971682 731.489258,404.622066 731.436523,405.436523 Z M740.234375,411 L740.234375,401.666016 L741.658203,401.666016 L741.658203,403.081055 C742.021486,402.418942 742.356932,401.982423 742.664551,401.771484 C742.97217,401.560546 743.310545,401.455078 743.679688,401.455078 C744.212893,401.455078 744.75488,401.624998 745.305664,401.964844 L744.760742,403.432617 C744.374022,403.2041 743.987307,403.089844 743.600586,403.089844 C743.254881,403.089844 742.944337,403.193847 742.668945,403.401855 C742.393553,403.609864 742.197266,403.898436 742.080078,404.267578 C741.904296,404.830081 741.816406,405.445309 741.816406,406.113281 L741.816406,411 L740.234375,411 Z M751.484375,411 L751.484375,398.115234 L760.800781,398.115234 L760.800781,399.635742 L753.189453,399.635742 L753.189453,403.582031 L760.317383,403.582031 L760.317383,405.09375 L753.189453,405.09375 L753.189453,409.479492 L761.099609,409.479492 L761.099609,411 L751.484375,411 Z M771.910156,398.115234 L773.615234,398.115234 L773.615234,405.55957 C773.615234,406.854499 773.468751,407.882809 773.175781,408.644531 C772.882811,409.406254 772.354008,410.025877 771.589355,410.503418 C770.824703,410.980959 769.821295,411.219727 768.579102,411.219727 C767.372064,411.219727 766.384769,411.011721 765.617188,410.595703 C764.849606,410.179685 764.301759,409.577641 763.973633,408.789551 C763.645506,408.001461 763.481445,406.924812 763.481445,405.55957 L763.481445,398.115234 L765.186523,398.115234 L765.186523,405.550781 C765.186523,406.669927 765.290526,407.494626 765.498535,408.024902 C765.706544,408.555178 766.063962,408.963866 766.570801,409.250977 C767.077639,409.538087 767.697262,409.681641 768.429688,409.681641 C769.6836,409.681641 770.577146,409.397464 771.110352,408.829102 C771.643557,408.260739 771.910156,407.167977 771.910156,405.550781 L771.910156,398.115234 Z M781.25293,414.577148 L781.25293,401.666016 L782.694336,401.666016 L782.694336,402.878906 C783.034181,402.404295 783.417967,402.048341 783.845703,401.811035 C784.27344,401.573729 784.791989,401.455078 785.401367,401.455078 C786.198246,401.455078 786.901364,401.660154 787.510742,402.070312 C788.12012,402.480471 788.580077,403.059078 788.890625,403.806152 C789.201173,404.553226 789.356445,405.372066 789.356445,406.262695 C789.356445,407.217778 789.18506,408.077633 788.842285,408.842285 C788.49951,409.606937 788.001468,410.192869 787.348145,410.600098 C786.694821,411.007326 786.007816,411.210938 785.287109,411.210938 C784.759763,411.210938 784.286623,411.09961 783.867676,410.876953 C783.448728,410.654296 783.104494,410.373049 782.834961,410.033203 L782.834961,414.577148 L781.25293,414.577148 Z M782.685547,406.385742 C782.685547,407.58692 782.928709,408.474607 783.415039,409.048828 C783.90137,409.62305 784.490231,409.910156 785.181641,409.910156 C785.884769,409.910156 786.486814,409.612796 786.987793,409.018066 C787.488772,408.423337 787.739258,407.501959 787.739258,406.253906 C787.739258,405.064447 787.494631,404.173831 787.005371,403.582031 C786.516111,402.990231 785.931644,402.694336 785.251953,402.694336 C784.578122,402.694336 783.981936,403.009274 783.463379,403.63916 C782.944822,404.269046 782.685547,405.184564 782.685547,406.385742 Z M797.354492,409.848633 C796.768552,410.346682 796.204593,410.698241 795.662598,410.90332 C795.120603,411.108399 794.539066,411.210938 793.917969,411.210938 C792.892573,411.210938 792.104495,410.960452 791.553711,410.459473 C791.002927,409.958494 790.727539,409.318363 790.727539,408.539062 C790.727539,408.082029 790.831542,407.664553 791.039551,407.286621 C791.24756,406.90869 791.520018,406.60547 791.856934,406.376953 C792.193849,406.148436 792.57324,405.975587 792.995117,405.858398 C793.305666,405.776367 793.774411,405.697266 794.401367,405.621094 C795.678717,405.468749 796.619138,405.28711 797.222656,405.076172 C797.228516,404.859374 797.231445,404.72168 797.231445,404.663086 C797.231445,404.018551 797.082033,403.564454 796.783203,403.300781 C796.378904,402.943358 795.778324,402.764648 794.981445,402.764648 C794.237301,402.764648 793.68799,402.895018 793.333496,403.155762 C792.979002,403.416505 792.716798,403.877926 792.546875,404.540039 L791,404.329102 C791.140626,403.666989 791.372069,403.132326 791.694336,402.725098 C792.016603,402.317869 792.482419,402.004396 793.091797,401.784668 C793.701175,401.56494 794.407223,401.455078 795.209961,401.455078 C796.00684,401.455078 796.654294,401.548827 797.152344,401.736328 C797.650393,401.923829 798.0166,402.159667 798.250977,402.443848 C798.485353,402.728029 798.649414,403.086912 798.743164,403.520508 C798.795899,403.79004 798.822266,404.276364 798.822266,404.979492 L798.822266,407.088867 C798.822266,408.559578 798.855957,409.489744 798.92334,409.879395 C798.990723,410.269045 799.124022,410.642576 799.323242,411 L797.670898,411 C797.506835,410.671873 797.401367,410.288088 797.354492,409.848633 Z M797.222656,406.31543 C796.648435,406.549806 795.787115,406.749023 794.638672,406.913086 C793.988278,407.006836 793.528322,407.112304 793.258789,407.229492 C792.989256,407.34668 792.781251,407.518065 792.634766,407.743652 C792.488281,407.969239 792.415039,408.219725 792.415039,408.495117 C792.415039,408.916994 792.574705,409.268553 792.894043,409.549805 C793.213381,409.831056 793.680661,409.97168 794.295898,409.97168 C794.905276,409.97168 795.447263,409.83838 795.921875,409.571777 C796.396487,409.305174 796.745116,408.940432 796.967773,408.477539 C797.137696,408.120115 797.222656,407.592777 797.222656,406.895508 L797.222656,406.31543 Z M801.239258,411 L801.239258,398.115234 L802.821289,398.115234 L802.821289,411 L801.239258,411 Z M805.238281,411 L805.238281,398.115234 L806.820313,398.115234 L806.820313,411 L805.238281,411 Z M815.662109,407.994141 L817.296875,408.196289 C817.039061,409.151372 816.561527,409.892575 815.864258,410.419922 C815.166989,410.947268 814.276373,411.210938 813.192383,411.210938 C811.827142,411.210938 810.744633,410.790532 809.944824,409.949707 C809.145016,409.108883 808.745117,407.929695 808.745117,406.412109 C808.745117,404.841789 809.14941,403.623051 809.958008,402.755859 C810.766606,401.888668 811.815423,401.455078 813.104492,401.455078 C814.352545,401.455078 815.372066,401.879879 816.163086,402.729492 C816.954106,403.579106 817.349609,404.774406 817.349609,406.31543 C817.349609,406.40918 817.34668,406.549804 817.34082,406.737305 L810.379883,406.737305 C810.438477,407.7627 810.728513,408.547849 811.25,409.092773 C811.771487,409.637698 812.421871,409.910156 813.201172,409.910156 C813.781253,409.910156 814.276365,409.757814 814.686523,409.453125 C815.096682,409.148436 815.421874,408.662113 815.662109,407.994141 Z M810.467773,405.436523 L815.679688,405.436523 C815.609375,404.651363 815.410158,404.062502 815.082031,403.669922 C814.578122,403.060544 813.924809,402.755859 813.12207,402.755859 C812.395504,402.755859 811.78467,402.999021 811.289551,403.485352 C810.794431,403.971682 810.520508,404.622066 810.467773,405.436523 Z M822.737305,409.584961 L822.96582,410.982422 C822.520506,411.076172 822.122072,411.123047 821.770508,411.123047 C821.196286,411.123047 820.750978,411.032227 820.43457,410.850586 C820.118162,410.668944 819.895508,410.430177 819.766602,410.134277 C819.637695,409.838377 819.573242,409.215825 819.573242,408.266602 L819.573242,402.896484 L818.413086,402.896484 L818.413086,401.666016 L819.573242,401.666016 L819.573242,399.354492 L821.146484,398.405273 L821.146484,401.666016 L822.737305,401.666016 L822.737305,402.896484 L821.146484,402.896484 L821.146484,408.354492 C821.146484,408.805666 821.174316,409.095702 821.22998,409.224609 C821.285645,409.353516 821.376464,409.456054 821.502441,409.532227 C821.628419,409.608399 821.808593,409.646484 822.042969,409.646484 C822.218751,409.646484 822.450194,409.625977 822.737305,409.584961 Z M828.652344,408.213867 L830.216797,407.967773 C830.304688,408.59473 830.549314,409.075194 830.950684,409.40918 C831.352053,409.743166 831.913082,409.910156 832.633789,409.910156 C833.360355,409.910156 833.899412,409.762209 834.250977,409.466309 C834.602541,409.170409 834.77832,408.823244 834.77832,408.424805 C834.77832,408.067381 834.623048,407.786134 834.3125,407.581055 C834.095702,407.440429 833.556645,407.26172 832.695313,407.044922 C831.53515,406.751952 830.730959,406.498536 830.282715,406.284668 C829.83447,406.0708 829.49463,405.774904 829.263184,405.396973 C829.031737,405.019041 828.916016,404.601565 828.916016,404.144531 C828.916016,403.728514 829.01123,403.343263 829.20166,402.98877 C829.392091,402.634276 829.651366,402.339845 829.979492,402.105469 C830.225587,401.923827 830.561033,401.77002 830.98584,401.644043 C831.410647,401.518066 831.866209,401.455078 832.352539,401.455078 C833.084965,401.455078 833.728025,401.560546 834.281738,401.771484 C834.835452,401.982423 835.244139,402.268065 835.507813,402.628418 C835.771486,402.988771 835.953125,403.4707 836.052734,404.074219 L834.505859,404.285156 C834.435547,403.804685 834.231935,403.429689 833.89502,403.160156 C833.558104,402.890624 833.082034,402.755859 832.466797,402.755859 C831.740231,402.755859 831.221681,402.875975 830.911133,403.116211 C830.600584,403.356447 830.445313,403.637694 830.445313,403.959961 C830.445313,404.16504 830.509765,404.349609 830.638672,404.513672 C830.767579,404.683595 830.969725,404.824218 831.245117,404.935547 C831.403321,404.994141 831.869137,405.128905 832.642578,405.339844 C833.761724,405.638673 834.542478,405.8833 834.984863,406.07373 C835.427248,406.264161 835.774413,406.541014 836.026367,406.904297 C836.278322,407.26758 836.404297,407.718747 836.404297,408.257812 C836.404297,408.785159 836.25049,409.281736 835.942871,409.747559 C835.635252,410.213381 835.191409,410.573729 834.611328,410.828613 C834.031247,411.083497 833.375004,411.210938 832.642578,411.210938 C831.429681,411.210938 830.505374,410.958987 829.869629,410.455078 C829.233884,409.951169 828.828126,409.204107 828.652344,408.213867 Z M838.285156,414.577148 L838.285156,401.666016 L839.726563,401.666016 L839.726563,402.878906 C840.066408,402.404295 840.450193,402.048341 840.87793,401.811035 C841.305666,401.573729 841.824216,401.455078 842.433594,401.455078 C843.230473,401.455078 843.933591,401.660154 844.542969,402.070312 C845.152347,402.480471 845.612303,403.059078 845.922852,403.806152 C846.2334,404.553226 846.388672,405.372066 846.388672,406.262695 C846.388672,407.217778 846.217287,408.077633 845.874512,408.842285 C845.531737,409.606937 845.033695,410.192869 844.380371,410.600098 C843.727048,411.007326 843.040043,411.210938 842.319336,411.210938 C841.79199,411.210938 841.31885,411.09961 840.899902,410.876953 C840.480955,410.654296 840.13672,410.373049 839.867188,410.033203 L839.867188,414.577148 L838.285156,414.577148 Z M839.717773,406.385742 C839.717773,407.58692 839.960935,408.474607 840.447266,409.048828 C840.933596,409.62305 841.522457,409.910156 842.213867,409.910156 C842.916996,409.910156 843.51904,409.612796 844.02002,409.018066 C844.520999,408.423337 844.771484,407.501959 844.771484,406.253906 C844.771484,405.064447 844.526858,404.173831 844.037598,403.582031 C843.548337,402.990231 842.963871,402.694336 842.28418,402.694336 C841.610348,402.694336 841.014163,403.009274 840.495605,403.63916 C839.977048,404.269046 839.717773,405.184564 839.717773,406.385742 Z M854.386719,409.848633 C853.800778,410.346682 853.236819,410.698241 852.694824,410.90332 C852.152829,411.108399 851.571292,411.210938 850.950195,411.210938 C849.9248,411.210938 849.136722,410.960452 848.585938,410.459473 C848.035153,409.958494 847.759766,409.318363 847.759766,408.539062 C847.759766,408.082029 847.863768,407.664553 848.071777,407.286621 C848.279786,406.90869 848.552244,406.60547 848.88916,406.376953 C849.226076,406.148436 849.605467,405.975587 850.027344,405.858398 C850.337892,405.776367 850.806637,405.697266 851.433594,405.621094 C852.710944,405.468749 853.651364,405.28711 854.254883,405.076172 C854.260742,404.859374 854.263672,404.72168 854.263672,404.663086 C854.263672,404.018551 854.114259,403.564454 853.81543,403.300781 C853.411131,402.943358 852.810551,402.764648 852.013672,402.764648 C851.269528,402.764648 850.720217,402.895018 850.365723,403.155762 C850.011229,403.416505 849.749024,403.877926 849.579102,404.540039 L848.032227,404.329102 C848.172852,403.666989 848.404295,403.132326 848.726563,402.725098 C849.04883,402.317869 849.514645,402.004396 850.124023,401.784668 C850.733401,401.56494 851.439449,401.455078 852.242188,401.455078 C853.039066,401.455078 853.686521,401.548827 854.18457,401.736328 C854.68262,401.923829 855.048827,402.159667 855.283203,402.443848 C855.517579,402.728029 855.68164,403.086912 855.775391,403.520508 C855.828125,403.79004 855.854492,404.276364 855.854492,404.979492 L855.854492,407.088867 C855.854492,408.559578 855.888183,409.489744 855.955566,409.879395 C856.02295,410.269045 856.156249,410.642576 856.355469,411 L854.703125,411 C854.539062,410.671873 854.433594,410.288088 854.386719,409.848633 Z M854.254883,406.31543 C853.680661,406.549806 852.819342,406.749023 851.670898,406.913086 C851.020505,407.006836 850.560548,407.112304 850.291016,407.229492 C850.021483,407.34668 849.813477,407.518065 849.666992,407.743652 C849.520507,407.969239 849.447266,408.219725 849.447266,408.495117 C849.447266,408.916994 849.606932,409.268553 849.92627,409.549805 C850.245607,409.831056 850.712888,409.97168 851.328125,409.97168 C851.937503,409.97168 852.47949,409.83838 852.954102,409.571777 C853.428713,409.305174 853.777343,408.940432 854,408.477539 C854.169923,408.120115 854.254883,407.592777 854.254883,406.895508 L854.254883,406.31543 Z M864.397461,407.581055 L865.953125,407.783203 C865.783202,408.855474 865.348148,409.694821 864.647949,410.30127 C863.94775,410.907718 863.087896,411.210938 862.068359,411.210938 C860.791009,411.210938 859.764164,410.793461 858.987793,409.958496 C858.211422,409.123531 857.823242,407.926766 857.823242,406.368164 C857.823242,405.360347 857.990233,404.478519 858.324219,403.722656 C858.658205,402.966793 859.1665,402.399904 859.849121,402.021973 C860.531742,401.644041 861.27441,401.455078 862.077148,401.455078 C863.090825,401.455078 863.919919,401.711423 864.564453,402.224121 C865.208988,402.736819 865.622069,403.464839 865.803711,404.408203 L864.265625,404.645508 C864.11914,404.018552 863.859865,403.546877 863.487793,403.230469 C863.115721,402.914061 862.666018,402.755859 862.138672,402.755859 C861.341793,402.755859 860.694338,403.041501 860.196289,403.612793 C859.69824,404.184085 859.449219,405.087884 859.449219,406.324219 C859.449219,407.578131 859.689451,408.489255 860.169922,409.057617 C860.650393,409.625979 861.27734,409.910156 862.050781,409.910156 C862.671878,409.910156 863.190428,409.719728 863.606445,409.338867 C864.022463,408.958006 864.286132,408.372074 864.397461,407.581055 Z M873.696289,407.994141 L875.331055,408.196289 C875.073241,409.151372 874.595707,409.892575 873.898438,410.419922 C873.201168,410.947268 872.310552,411.210938 871.226563,411.210938 C869.861321,411.210938 868.778813,410.790532 867.979004,409.949707 C867.179195,409.108883 866.779297,407.929695 866.779297,406.412109 C866.779297,404.841789 867.18359,403.623051 867.992188,402.755859 C868.800785,401.888668 869.849603,401.455078 871.138672,401.455078 C872.386725,401.455078 873.406246,401.879879 874.197266,402.729492 C874.988285,403.579106 875.383789,404.774406 875.383789,406.31543 C875.383789,406.40918 875.380859,406.549804 875.375,406.737305 L868.414063,406.737305 C868.472657,407.7627 868.762693,408.547849 869.28418,409.092773 C869.805667,409.637698 870.456051,409.910156 871.235352,409.910156 C871.815433,409.910156 872.310545,409.757814 872.720703,409.453125 C873.130861,409.148436 873.456053,408.662113 873.696289,407.994141 Z M868.501953,405.436523 L873.713867,405.436523 C873.643554,404.651363 873.444338,404.062502 873.116211,403.669922 C872.612302,403.060544 871.958988,402.755859 871.15625,402.755859 C870.429684,402.755859 869.81885,402.999021 869.32373,403.485352 C868.828611,403.971682 868.554688,404.622066 868.501953,405.436523 Z M881.34668,404 L880.116211,404 L880.116211,396.15918 C879.819985,396.441733 879.43148,396.724282 878.950684,397.006836 C878.469887,397.289389 878.038088,397.501301 877.655273,397.642578 L877.655273,396.453125 C878.343428,396.129556 878.944984,395.737633 879.459961,395.277344 C879.974937,394.817055 880.339517,394.370445 880.553711,393.9375 L881.34668,393.9375 L881.34668,404 Z" id="2cartridgesperEUpalletspace1" fill="#373737" fill-rule="nonzero"></path>
            <text id="No" font-family="ArialMT, Arial" font-size="18" font-weight="normal" fill="#373737">
                <tspan x="620" y="454">No</tspan>
            </text>
            <text id="5-10-min.-to-prepare" font-family="ArialMT, Arial" font-size="18" font-weight="normal" fill="#373737">
                <tspan x="620" y="112">5-10 min. to prepare, produce and </tspan>
                <tspan x="620" y="132">decant 1 batch</tspan>
                <tspan x="738.089844" y="132" font-size="14">1</tspan>
            </text>
            <text id="350-kg-/-750-liter" font-family="ArialMT, Arial" font-size="18" font-weight="normal" fill="#373737">
                <tspan x="620" y="189">350 kg / 750 liter</tspan>
            </text>
            <text id="Granumix-plus" font-family="Arial-BoldMT, Arial" font-size="18" font-weight="bold" fill="#373737">
                <tspan x="620" y="26">Granumix plus</tspan>
            </text>
            <text id="ECOMix-Revolution" font-family="Arial-BoldMT, Arial" font-size="18" font-weight="bold" fill="#FFFFFF">
                <tspan x="312" y="26">ECOMix Revolution</tspan>
            </text>
            <text id="220-kg-/-800-liter-1" font-family="ArialMT, Arial" font-size="18" font-weight="normal" fill="#FFFFFF">
                <tspan x="312" y="179">220 kg / 800 liter 1+34</tspan>
                <tspan x="312" y="199">220 kg / 622 liter 1+44</tspan>
            </text>
            <text id="Product-handling" font-family="ArialMT, Arial" font-size="18" font-weight="normal" fill="#373737">
                <tspan x="1" y="69">Product handling</tspan>
            </text>
            <text id="Hygiene-of-system" font-family="ArialMT, Arial" font-size="18" font-weight="normal" fill="#373737">
                <tspan x="1" y="242">Hygiene of system</tspan>
            </text>
            <text id="Online-capabilities" font-family="ArialMT, Arial" font-size="18" font-weight="normal" fill="#373737">
                <tspan x="1" y="285">Online capabilities REMOTE </tspan>
                <tspan x="1" y="305">access</tspan>
            </text>
            <text id="Environmental-protec" font-family="ArialMT, Arial" font-size="18" font-weight="normal" fill="#373737">
                <tspan x="1" y="358">Environmental protection</tspan>
            </text>
            <text id="Space-requirements" font-family="ArialMT, Arial" font-size="18" font-weight="normal" fill="#373737">
                <tspan x="1" y="411">Space requirements</tspan>
            </text>
            <text id="Recommendation-for-l" font-family="ArialMT, Arial" font-size="18" font-weight="normal" fill="#373737">
                <tspan x="1" y="454">Recommendation for lab analysis</tspan>
            </text>
            <text id="Handling-workload" font-family="ArialMT, Arial" font-size="18" font-weight="normal" fill="#373737">
                <tspan x="0" y="122">Handling workload</tspan>
            </text>
            <text id="Weight" font-family="ArialMT, Arial" font-size="18" font-weight="normal" fill="#373737">
                <tspan x="1" y="189">Weight</tspan>
            </text>
            <path d="M0.5,84.5 L911.59275,84.5" id="Line" stroke="#FFFFFF" stroke-linecap="square"></path>
            <path d="M0.5,151.5 L911.59275,151.5" id="Line" stroke="#FFFFFF" stroke-linecap="square"></path>
            <path d="M0.5,214.5 L911.59275,214.5" id="Line-Copy" stroke="#FFFFFF" stroke-linecap="square"></path>
            <path d="M0.5,257.5 L911.59275,257.5" id="Line-Copy-2" stroke="#FFFFFF" stroke-linecap="square"></path>
            <path d="M0.5,320.5 L911.59275,320.5" id="Line-Copy-3" stroke="#FFFFFF" stroke-linecap="square"></path>
            <path d="M0.5,383.5 L911.59275,383.5" id="Line-Copy-4" stroke="#FFFFFF" stroke-linecap="square"></path>
            <path d="M0.5,426.5 L911.59275,426.5" id="Line-Copy-5" stroke="#FFFFFF" stroke-linecap="square"></path>
            <path d="M0.5,41.5 L911.59275,41.5" id="Line" stroke="#FFFFFF" stroke-linecap="square"></path>
        </g>
    </g>
</svg>