<?xml version="1.0" encoding="UTF-8"?>
<svg width="912px" height="488px" viewBox="0 0 912 488" version="1.1" xmlns="http://www.w3.org/2000/svg" xmlns:xlink="http://www.w3.org/1999/xlink">
    <!-- Generator: Sketch 54.1 (76490) - https://sketchapp.com -->
    <title>Tabelle05</title>
    <desc>Created with Sketch.</desc>
    <g id="Tabelle05" stroke="none" stroke-width="1" fill="none" fill-rule="evenodd">
        <g id="Group">
            <polygon id="Rectangle" fill-opacity="0.75" fill="#00B482" points="300 0 601 0 601 488 300 488"></polygon>
            <text id="Fully-automated" font-family="ArialMT, Arial" font-size="18" font-weight="normal" fill="#FFFFFF">
                <tspan x="312" y="69">Fully automated</tspan>
            </text>
            <text id="Closed-system,-coded" font-family="ArialMT, Arial" font-size="18" font-weight="normal" fill="#FFFFFF">
                <tspan x="312" y="262">Closed system, coded connection</tspan>
            </text>
            <text id="Possible" font-family="ArialMT, Arial" font-size="18" font-weight="normal" fill="#FFFFFF">
                <tspan x="312" y="315">Possible</tspan>
            </text>
            <text id="Return-of-ECOCart,-d" font-family="ArialMT, Arial" font-size="18" font-weight="normal" fill="#FFFFFF">
                <tspan x="312" y="368">Return of ECOCart,</tspan>
                <tspan x="312" y="388">disposable cart available</tspan>
            </text>
            <text id="2-ECOCarts-per-EU-pa" font-family="ArialMT, Arial" font-size="18" font-weight="normal" fill="#FFFFFF">
                <tspan x="312" y="431">2 ECOCarts per EU pallet space  </tspan>
            </text>
            <text id="No" font-family="ArialMT, Arial" font-size="18" font-weight="normal" fill="#FFFFFF">
                <tspan x="312" y="474">No</tspan>
            </text>
            <text id="2-4-min.-to-prepare," font-family="ArialMT, Arial" font-size="18" font-weight="normal" fill="#FFFFFF">
                <tspan x="312" y="124">2-4 min. to prepare, produce and </tspan>
                <tspan x="312" y="144">decant 1 batch</tspan>
            </text>
            <text id="Manual" font-family="ArialMT, Arial" font-size="18" font-weight="normal" fill="#373737">
                <tspan x="620" y="69">Manual</tspan>
            </text>
            <text id="Closed-system" font-family="ArialMT, Arial" font-size="18" font-weight="normal" fill="#373737">
                <tspan x="620" y="262">Closed system</tspan>
            </text>
            <text id="–" font-family="ArialMT, Arial" font-size="18" font-weight="normal" fill="#373737">
                <tspan x="620" y="315">–</tspan>
            </text>
            <text id="Empty-bag-in-box-con" font-family="ArialMT, Arial" font-size="18" font-weight="normal" fill="#373737">
                <tspan x="620" y="368">Empty bag-in-box container </tspan>
                <tspan x="620" y="388">disposal  / reuse steel container</tspan>
            </text>
            <text id="200-1,000-liter-per" font-family="ArialMT, Arial" font-size="18" font-weight="normal" fill="#373737">
                <tspan x="619" y="429">200-1,000 liter per EU pallet space</tspan>
                <tspan x="896.163086" y="429" font-size="14">1</tspan>
            </text>
            <text id="No" font-family="ArialMT, Arial" font-size="18" font-weight="normal" fill="#373737">
                <tspan x="620" y="474">No</tspan>
            </text>
            <path d="M620.74707,108.625 L622.408203,108.484375 C622.531251,109.292973 622.816892,109.900877 623.265137,110.308105 C623.713381,110.715334 624.253903,110.918945 624.886719,110.918945 C625.648441,110.918945 626.292966,110.631839 626.820312,110.057617 C627.347659,109.483396 627.611328,108.721684 627.611328,107.772461 C627.611328,106.870113 627.357913,106.158206 626.851074,105.636719 C626.344236,105.115232 625.680668,104.854492 624.860352,104.854492 C624.350583,104.854492 623.890627,104.970214 623.480469,105.20166 C623.07031,105.433107 622.748048,105.733397 622.513672,106.102539 L621.02832,105.90918 L622.276367,99.2910156 L628.683594,99.2910156 L628.683594,100.802734 L623.541992,100.802734 L622.847656,104.265625 C623.621098,103.72656 624.432613,103.457031 625.282227,103.457031 C626.407232,103.457031 627.356441,103.846676 628.129883,104.625977 C628.903324,105.405277 629.290039,106.40722 629.290039,107.631836 C629.290039,108.797857 628.950199,109.80566 628.270508,110.655273 C627.444332,111.698247 626.316413,112.219727 624.886719,112.219727 C623.714838,112.219727 622.758304,111.891605 622.01709,111.235352 C621.275875,110.579098 620.85254,109.70899 620.74707,108.625 Z M630.582031,108.132812 L630.582031,106.541992 L635.442383,106.541992 L635.442383,108.132812 L630.582031,108.132812 Z M642.710938,112 L641.128906,112 L641.128906,101.918945 C640.748045,102.282228 640.248538,102.645506 639.630371,103.008789 C639.012204,103.372072 638.457034,103.64453 637.964844,103.826172 L637.964844,102.296875 C638.849614,101.880857 639.623044,101.376956 640.285156,100.785156 C640.947269,100.193356 641.416014,99.6191434 641.691406,99.0625 L642.710938,99.0625 L642.710938,112 Z M646.762695,105.645508 C646.762695,104.122063 646.919432,102.896001 647.23291,101.967285 C647.546388,101.03857 648.012204,100.322268 648.630371,99.8183594 C649.248538,99.3144506 650.026363,99.0625 650.963867,99.0625 C651.655277,99.0625 652.261716,99.2016588 652.783203,99.4799805 C653.30469,99.7583022 653.73535,100.159665 654.075195,100.684082 C654.415041,101.208499 654.68164,101.847164 654.875,102.600098 C655.06836,103.353031 655.165039,104.368158 655.165039,105.645508 C655.165039,107.157234 655.009767,108.377437 654.699219,109.306152 C654.38867,110.234868 653.924319,110.952634 653.306152,111.459473 C652.687985,111.966311 651.907231,112.219727 650.963867,112.219727 C649.721673,112.219727 648.746097,111.774419 648.037109,110.883789 C647.187496,109.811518 646.762695,108.065442 646.762695,105.645508 Z M648.388672,105.645508 C648.388672,107.760753 648.636228,109.168454 649.131348,109.868652 C649.626467,110.568851 650.237301,110.918945 650.963867,110.918945 C651.690433,110.918945 652.301267,110.567386 652.796387,109.864258 C653.291506,109.161129 653.539062,107.754893 653.539062,105.645508 C653.539062,103.524403 653.291506,102.115238 652.796387,101.417969 C652.301267,100.7207 651.684574,100.37207 650.946289,100.37207 C650.219723,100.37207 649.639651,100.679684 649.206055,101.294922 C648.66113,102.080082 648.388672,103.530263 648.388672,105.645508 Z M662.213867,112 L662.213867,102.666016 L663.628906,102.666016 L663.628906,103.975586 C663.921876,103.518552 664.311521,103.15088 664.797852,102.872559 C665.284182,102.594237 665.837888,102.455078 666.458984,102.455078 C667.150394,102.455078 667.717283,102.598631 668.159668,102.885742 C668.602053,103.172853 668.914062,103.574216 669.095703,104.089844 C669.833988,102.999995 670.794916,102.455078 671.978516,102.455078 C672.904302,102.455078 673.616208,102.711423 674.114258,103.224121 C674.612307,103.736819 674.861328,104.526362 674.861328,105.592773 L674.861328,112 L673.288086,112 L673.288086,106.120117 C673.288086,105.487302 673.236817,105.03174 673.134277,104.753418 C673.031738,104.475096 672.845704,104.250977 672.576172,104.081055 C672.306639,103.911132 671.990236,103.826172 671.626953,103.826172 C670.9707,103.826172 670.425783,104.044431 669.992188,104.480957 C669.558592,104.917483 669.341797,105.616206 669.341797,106.577148 L669.341797,112 L667.759766,112 L667.759766,105.935547 C667.759766,105.232418 667.630861,104.70508 667.373047,104.353516 C667.115233,104.001951 666.693362,103.826172 666.107422,103.826172 C665.662107,103.826172 665.25049,103.943358 664.872559,104.177734 C664.494627,104.412111 664.220704,104.754881 664.050781,105.206055 C663.880859,105.657229 663.795898,106.307613 663.795898,107.157227 L663.795898,112 L662.213867,112 Z M677.216797,100.93457 L677.216797,99.1152344 L678.798828,99.1152344 L678.798828,100.93457 L677.216797,100.93457 Z M677.216797,112 L677.216797,102.666016 L678.798828,102.666016 L678.798828,112 L677.216797,112 Z M681.207031,112 L681.207031,102.666016 L682.630859,102.666016 L682.630859,103.993164 C683.31641,102.967768 684.306634,102.455078 685.601562,102.455078 C686.164065,102.455078 686.68115,102.556151 687.152832,102.758301 C687.624514,102.96045 687.977538,103.225584 688.211914,103.553711 C688.44629,103.881838 688.610351,104.271482 688.704102,104.722656 C688.762696,105.015626 688.791992,105.528317 688.791992,106.260742 L688.791992,112 L687.209961,112 L687.209961,106.322266 C687.209961,105.677731 687.148438,105.195802 687.025391,104.876465 C686.902343,104.557127 686.684084,104.302247 686.370605,104.111816 C686.057127,103.921386 685.689455,103.826172 685.267578,103.826172 C684.593747,103.826172 684.012209,104.040037 683.522949,104.467773 C683.033689,104.89551 682.789062,105.707025 682.789062,106.902344 L682.789062,112 L681.207031,112 Z M691.666016,112 L691.666016,110.198242 L693.467773,110.198242 L693.467773,112 L691.666016,112 Z M704.673828,110.584961 L704.902344,111.982422 C704.457029,112.076172 704.058596,112.123047 703.707031,112.123047 C703.13281,112.123047 702.687502,112.032227 702.371094,111.850586 C702.054686,111.668944 701.832032,111.430177 701.703125,111.134277 C701.574218,110.838377 701.509766,110.215825 701.509766,109.266602 L701.509766,103.896484 L700.349609,103.896484 L700.349609,102.666016 L701.509766,102.666016 L701.509766,100.354492 L703.083008,99.4052734 L703.083008,102.666016 L704.673828,102.666016 L704.673828,103.896484 L703.083008,103.896484 L703.083008,109.354492 C703.083008,109.805666 703.11084,110.095702 703.166504,110.224609 C703.222168,110.353516 703.312988,110.456054 703.438965,110.532227 C703.564942,110.608399 703.745116,110.646484 703.979492,110.646484 C704.155274,110.646484 704.386717,110.625977 704.673828,110.584961 Z M705.631836,107.333008 C705.631836,105.604484 706.1123,104.324223 707.073242,103.492188 C707.875981,102.800778 708.854486,102.455078 710.008789,102.455078 C711.291999,102.455078 712.340816,102.875484 713.155273,103.716309 C713.969731,104.557133 714.376953,105.718743 714.376953,107.201172 C714.376953,108.40235 714.196779,109.347165 713.836426,110.035645 C713.476072,110.724125 712.951664,111.258787 712.263184,111.639648 C711.574704,112.02051 710.823246,112.210938 710.008789,112.210938 C708.702142,112.210938 707.646,111.791996 706.840332,110.954102 C706.034664,110.116207 705.631836,108.909188 705.631836,107.333008 Z M707.257812,107.333008 C707.257812,108.528326 707.518552,109.423337 708.040039,110.018066 C708.561526,110.612796 709.217769,110.910156 710.008789,110.910156 C710.793949,110.910156 711.447263,110.611331 711.96875,110.013672 C712.490237,109.416013 712.750977,108.504889 712.750977,107.280273 C712.750977,106.125971 712.488772,105.251468 711.964355,104.656738 C711.439939,104.062009 710.78809,103.764648 710.008789,103.764648 C709.217769,103.764648 708.561526,104.060544 708.040039,104.652344 C707.518552,105.244144 707.257812,106.137689 707.257812,107.333008 Z M727.323242,108.581055 L728.878906,108.783203 C728.708984,109.855474 728.273929,110.694821 727.57373,111.30127 C726.873532,111.907718 726.013677,112.210938 724.994141,112.210938 C723.71679,112.210938 722.689945,111.793461 721.913574,110.958496 C721.137203,110.123531 720.749023,108.926766 720.749023,107.368164 C720.749023,106.360347 720.916014,105.478519 721.25,104.722656 C721.583986,103.966793 722.092282,103.399904 722.774902,103.021973 C723.457523,102.644041 724.200191,102.455078 725.00293,102.455078 C726.016607,102.455078 726.8457,102.711423 727.490234,103.224121 C728.134769,103.736819 728.547851,104.464839 728.729492,105.408203 L727.191406,105.645508 C727.044921,105.018552 726.785646,104.546877 726.413574,104.230469 C726.041502,103.914061 725.5918,103.755859 725.064453,103.755859 C724.267574,103.755859 723.62012,104.041501 723.12207,104.612793 C722.624021,105.184085 722.375,106.087884 722.375,107.324219 C722.375,108.578131 722.615232,109.489255 723.095703,110.057617 C723.576174,110.625979 724.203121,110.910156 724.976562,110.910156 C725.597659,110.910156 726.116209,110.719728 726.532227,110.338867 C726.948244,109.958006 727.211914,109.372074 727.323242,108.581055 Z M730.232422,112 L730.232422,99.1152344 L731.814453,99.1152344 L731.814453,103.738281 C732.552738,102.882808 733.484369,102.455078 734.609375,102.455078 C735.300785,102.455078 735.901365,102.591307 736.411133,102.86377 C736.920901,103.136232 737.285643,103.512693 737.505371,103.993164 C737.725099,104.473635 737.834961,105.170894 737.834961,106.084961 L737.834961,112 L736.25293,112 L736.25293,106.084961 C736.25293,105.293941 736.081545,104.718264 735.73877,104.35791 C735.395994,103.997557 734.911136,103.817383 734.28418,103.817383 C733.815427,103.817383 733.374514,103.938964 732.961426,104.182129 C732.548338,104.425294 732.253907,104.754881 732.078125,105.170898 C731.902343,105.586916 731.814453,106.161129 731.814453,106.893555 L731.814453,112 L730.232422,112 Z M746.632812,108.994141 L748.267578,109.196289 C748.009764,110.151372 747.53223,110.892575 746.834961,111.419922 C746.137692,111.947268 745.247076,112.210938 744.163086,112.210938 C742.797845,112.210938 741.715336,111.790532 740.915527,110.949707 C740.115719,110.108883 739.71582,108.929695 739.71582,107.412109 C739.71582,105.841789 740.120113,104.623051 740.928711,103.755859 C741.737309,102.888668 742.786126,102.455078 744.075195,102.455078 C745.323248,102.455078 746.342769,102.879879 747.133789,103.729492 C747.924809,104.579106 748.320312,105.774406 748.320312,107.31543 C748.320312,107.40918 748.317383,107.549804 748.311523,107.737305 L741.350586,107.737305 C741.40918,108.7627 741.699216,109.547849 742.220703,110.092773 C742.74219,110.637698 743.392574,110.910156 744.171875,110.910156 C744.751956,110.910156 745.247068,110.757814 745.657227,110.453125 C746.067385,110.148436 746.392577,109.662113 746.632812,108.994141 Z M741.438477,106.436523 L746.650391,106.436523 C746.580078,105.651363 746.380861,105.062502 746.052734,104.669922 C745.548826,104.060544 744.895512,103.755859 744.092773,103.755859 C743.366207,103.755859 742.755374,103.999021 742.260254,104.485352 C741.765134,104.971682 741.491211,105.622066 741.438477,106.436523 Z M756.344727,108.581055 L757.900391,108.783203 C757.730468,109.855474 757.295414,110.694821 756.595215,111.30127 C755.895016,111.907718 755.035161,112.210938 754.015625,112.210938 C752.738275,112.210938 751.71143,111.793461 750.935059,110.958496 C750.158688,110.123531 749.770508,108.926766 749.770508,107.368164 C749.770508,106.360347 749.937498,105.478519 750.271484,104.722656 C750.60547,103.966793 751.113766,103.399904 751.796387,103.021973 C752.479007,102.644041 753.221676,102.455078 754.024414,102.455078 C755.038091,102.455078 755.867184,102.711423 756.511719,103.224121 C757.156253,103.736819 757.569335,104.464839 757.750977,105.408203 L756.212891,105.645508 C756.066406,105.018552 755.807131,104.546877 755.435059,104.230469 C755.062986,103.914061 754.613284,103.755859 754.085938,103.755859 C753.289059,103.755859 752.641604,104.041501 752.143555,104.612793 C751.645505,105.184085 751.396484,106.087884 751.396484,107.324219 C751.396484,108.578131 751.636716,109.489255 752.117188,110.057617 C752.597659,110.625979 753.224606,110.910156 753.998047,110.910156 C754.619144,110.910156 755.137693,110.719728 755.553711,110.338867 C755.969729,109.958006 756.233398,109.372074 756.344727,108.581055 Z M759.262695,112 L759.262695,99.1152344 L760.844727,99.1152344 L760.844727,106.462891 L764.588867,102.666016 L766.636719,102.666016 L763.068359,106.128906 L766.99707,112 L765.045898,112 L761.960938,107.227539 L760.844727,108.299805 L760.844727,112 L759.262695,112 Z M768.666992,112 L768.666992,110.198242 L770.46875,110.198242 L770.46875,112 C770.46875,112.662113 770.351564,113.196775 770.117188,113.604004 C769.882811,114.011233 769.510745,114.326171 769.000977,114.548828 L768.561523,113.87207 C768.895509,113.725585 769.141601,113.510255 769.299805,113.226074 C769.458009,112.941893 769.545898,112.533206 769.563477,112 L768.666992,112 Z M784.311523,112 L784.311523,110.822266 C783.719724,111.748052 782.849615,112.210938 781.701172,112.210938 C780.957028,112.210938 780.272952,112.005861 779.648926,111.595703 C779.024899,111.185545 778.541506,110.612797 778.19873,109.877441 C777.855955,109.142086 777.68457,108.29688 777.68457,107.341797 C777.68457,106.410152 777.839842,105.564945 778.150391,104.806152 C778.460939,104.047359 778.926755,103.465822 779.547852,103.061523 C780.168948,102.657225 780.863277,102.455078 781.630859,102.455078 C782.193362,102.455078 782.694334,102.573729 783.133789,102.811035 C783.573244,103.048341 783.930663,103.35742 784.206055,103.738281 L784.206055,99.1152344 L785.779297,99.1152344 L785.779297,112 L784.311523,112 Z M779.310547,107.341797 C779.310547,108.537115 779.562497,109.430661 780.066406,110.022461 C780.570315,110.614261 781.165036,110.910156 781.850586,110.910156 C782.541996,110.910156 783.129392,110.627444 783.612793,110.062012 C784.096194,109.496579 784.337891,108.633795 784.337891,107.473633 C784.337891,106.196283 784.091799,105.258792 783.599609,104.661133 C783.107419,104.063474 782.50098,103.764648 781.780273,103.764648 C781.077145,103.764648 780.489748,104.051755 780.018066,104.625977 C779.546384,105.200198 779.310547,106.105463 779.310547,107.341797 Z M787.677734,107.333008 C787.677734,105.604484 788.158198,104.324223 789.119141,103.492188 C789.921879,102.800778 790.900385,102.455078 792.054688,102.455078 C793.337897,102.455078 794.386715,102.875484 795.201172,103.716309 C796.015629,104.557133 796.422852,105.718743 796.422852,107.201172 C796.422852,108.40235 796.242678,109.347165 795.882324,110.035645 C795.521971,110.724125 794.997562,111.258787 794.309082,111.639648 C793.620602,112.02051 792.869145,112.210938 792.054688,112.210938 C790.74804,112.210938 789.691899,111.791996 788.88623,110.954102 C788.080562,110.116207 787.677734,108.909188 787.677734,107.333008 Z M789.303711,107.333008 C789.303711,108.528326 789.564451,109.423337 790.085938,110.018066 C790.607424,110.612796 791.263668,110.910156 792.054688,110.910156 C792.839848,110.910156 793.493161,110.611331 794.014648,110.013672 C794.536135,109.416013 794.796875,108.504889 794.796875,107.280273 C794.796875,106.125971 794.534671,105.251468 794.010254,104.656738 C793.485837,104.062009 792.833988,103.764648 792.054688,103.764648 C791.263668,103.764648 790.607424,104.060544 790.085938,104.652344 C789.564451,105.244144 789.303711,106.137689 789.303711,107.333008 Z M804.368164,108.581055 L805.923828,108.783203 C805.753905,109.855474 805.318851,110.694821 804.618652,111.30127 C803.918454,111.907718 803.058599,112.210938 802.039062,112.210938 C800.761712,112.210938 799.734867,111.793461 798.958496,110.958496 C798.182125,110.123531 797.793945,108.926766 797.793945,107.368164 C797.793945,106.360347 797.960936,105.478519 798.294922,104.722656 C798.628908,103.966793 799.137204,103.399904 799.819824,103.021973 C800.502445,102.644041 801.245113,102.455078 802.047852,102.455078 C803.061529,102.455078 803.890622,102.711423 804.535156,103.224121 C805.179691,103.736819 805.592773,104.464839 805.774414,105.408203 L804.236328,105.645508 C804.089843,105.018552 803.830568,104.546877 803.458496,104.230469 C803.086424,103.914061 802.636721,103.755859 802.109375,103.755859 C801.312496,103.755859 800.665042,104.041501 800.166992,104.612793 C799.668943,105.184085 799.419922,106.087884 799.419922,107.324219 C799.419922,108.578131 799.660154,109.489255 800.140625,110.057617 C800.621096,110.625979 801.248043,110.910156 802.021484,110.910156 C802.642581,110.910156 803.161131,110.719728 803.577148,110.338867 C803.993166,109.958006 804.256835,109.372074 804.368164,108.581055 Z M813.394531,112 L813.394531,110.628906 C812.667965,111.683599 811.68067,112.210938 810.432617,112.210938 C809.881833,112.210938 809.367678,112.10547 808.890137,111.894531 C808.412595,111.683593 808.058107,111.418459 807.82666,111.099121 C807.595214,110.779784 807.432618,110.388674 807.338867,109.925781 C807.274414,109.615233 807.242188,109.12305 807.242188,108.449219 L807.242188,102.666016 L808.824219,102.666016 L808.824219,107.842773 C808.824219,108.668949 808.856445,109.225585 808.920898,109.512695 C809.020508,109.928713 809.231444,110.25537 809.553711,110.492676 C809.875978,110.729982 810.274412,110.848633 810.749023,110.848633 C811.223635,110.848633 811.668943,110.727052 812.084961,110.483887 C812.500979,110.240721 812.795409,109.90967 812.968262,109.490723 C813.141114,109.071775 813.227539,108.463871 813.227539,107.666992 L813.227539,102.666016 L814.80957,102.666016 L814.80957,112 L813.394531,112 Z M817.288086,112 L817.288086,102.666016 L818.703125,102.666016 L818.703125,103.975586 C818.996095,103.518552 819.38574,103.15088 819.87207,102.872559 C820.358401,102.594237 820.912106,102.455078 821.533203,102.455078 C822.224613,102.455078 822.791502,102.598631 823.233887,102.885742 C823.676272,103.172853 823.98828,103.574216 824.169922,104.089844 C824.908207,102.999995 825.869135,102.455078 827.052734,102.455078 C827.97852,102.455078 828.690427,102.711423 829.188477,103.224121 C829.686526,103.736819 829.935547,104.526362 829.935547,105.592773 L829.935547,112 L828.362305,112 L828.362305,106.120117 C828.362305,105.487302 828.311036,105.03174 828.208496,104.753418 C828.105957,104.475096 827.919923,104.250977 827.650391,104.081055 C827.380858,103.911132 827.064455,103.826172 826.701172,103.826172 C826.044919,103.826172 825.500002,104.044431 825.066406,104.480957 C824.63281,104.917483 824.416016,105.616206 824.416016,106.577148 L824.416016,112 L822.833984,112 L822.833984,105.935547 C822.833984,105.232418 822.705079,104.70508 822.447266,104.353516 C822.189452,104.001951 821.767581,103.826172 821.181641,103.826172 C820.736326,103.826172 820.324709,103.943358 819.946777,104.177734 C819.568846,104.412111 819.294923,104.754881 819.125,105.206055 C818.955077,105.657229 818.870117,106.307613 818.870117,107.157227 L818.870117,112 L817.288086,112 Z M838.671875,108.994141 L840.306641,109.196289 C840.048827,110.151372 839.571293,110.892575 838.874023,111.419922 C838.176754,111.947268 837.286138,112.210938 836.202148,112.210938 C834.836907,112.210938 833.754399,111.790532 832.95459,110.949707 C832.154781,110.108883 831.754883,108.929695 831.754883,107.412109 C831.754883,105.841789 832.159176,104.623051 832.967773,103.755859 C833.776371,102.888668 834.825189,102.455078 836.114258,102.455078 C837.362311,102.455078 838.381832,102.879879 839.172852,103.729492 C839.963871,104.579106 840.359375,105.774406 840.359375,107.31543 C840.359375,107.40918 840.356445,107.549804 840.350586,107.737305 L833.389648,107.737305 C833.448242,108.7627 833.738279,109.547849 834.259766,110.092773 C834.781253,110.637698 835.431637,110.910156 836.210938,110.910156 C836.791019,110.910156 837.286131,110.757814 837.696289,110.453125 C838.106447,110.148436 838.431639,109.662113 838.671875,108.994141 Z M833.477539,106.436523 L838.689453,106.436523 C838.61914,105.651363 838.419924,105.062502 838.091797,104.669922 C837.587888,104.060544 836.934574,103.755859 836.131836,103.755859 C835.40527,103.755859 834.794436,103.999021 834.299316,104.485352 C833.804197,104.971682 833.530274,105.622066 833.477539,106.436523 Z M842.292969,112 L842.292969,102.666016 L843.716797,102.666016 L843.716797,103.993164 C844.402347,102.967768 845.392572,102.455078 846.6875,102.455078 C847.250003,102.455078 847.767087,102.556151 848.23877,102.758301 C848.710452,102.96045 849.063475,103.225584 849.297852,103.553711 C849.532228,103.881838 849.696289,104.271482 849.790039,104.722656 C849.848633,105.015626 849.87793,105.528317 849.87793,106.260742 L849.87793,112 L848.295898,112 L848.295898,106.322266 C848.295898,105.677731 848.234376,105.195802 848.111328,104.876465 C847.988281,104.557127 847.770021,104.302247 847.456543,104.111816 C847.143065,103.921386 846.775393,103.826172 846.353516,103.826172 C845.679684,103.826172 845.098147,104.040037 844.608887,104.467773 C844.119626,104.89551 843.875,105.707025 843.875,106.902344 L843.875,112 L842.292969,112 Z M855.757812,110.584961 L855.986328,111.982422 C855.541013,112.076172 855.14258,112.123047 854.791016,112.123047 C854.216794,112.123047 853.771486,112.032227 853.455078,111.850586 C853.13867,111.668944 852.916016,111.430177 852.787109,111.134277 C852.658202,110.838377 852.59375,110.215825 852.59375,109.266602 L852.59375,103.896484 L851.433594,103.896484 L851.433594,102.666016 L852.59375,102.666016 L852.59375,100.354492 L854.166992,99.4052734 L854.166992,102.666016 L855.757812,102.666016 L855.757812,103.896484 L854.166992,103.896484 L854.166992,109.354492 C854.166992,109.805666 854.194824,110.095702 854.250488,110.224609 C854.306153,110.353516 854.396972,110.456054 854.522949,110.532227 C854.648926,110.608399 854.8291,110.646484 855.063477,110.646484 C855.239259,110.646484 855.470702,110.625977 855.757812,110.584961 Z M868.396484,110.848633 C867.810544,111.346682 867.246585,111.698241 866.70459,111.90332 C866.162595,112.108399 865.581058,112.210938 864.959961,112.210938 C863.934565,112.210938 863.146487,111.960452 862.595703,111.459473 C862.044919,110.958494 861.769531,110.318363 861.769531,109.539062 C861.769531,109.082029 861.873534,108.664553 862.081543,108.286621 C862.289552,107.90869 862.56201,107.60547 862.898926,107.376953 C863.235842,107.148436 863.615232,106.975587 864.037109,106.858398 C864.347658,106.776367 864.816403,106.697266 865.443359,106.621094 C866.72071,106.468749 867.66113,106.28711 868.264648,106.076172 C868.270508,105.859374 868.273438,105.72168 868.273438,105.663086 C868.273438,105.018551 868.124025,104.564454 867.825195,104.300781 C867.420896,103.943358 866.820316,103.764648 866.023438,103.764648 C865.279293,103.764648 864.729982,103.895018 864.375488,104.155762 C864.020994,104.416505 863.75879,104.877926 863.588867,105.540039 L862.041992,105.329102 C862.182618,104.666989 862.414061,104.132326 862.736328,103.725098 C863.058595,103.317869 863.524411,103.004396 864.133789,102.784668 C864.743167,102.56494 865.449215,102.455078 866.251953,102.455078 C867.048832,102.455078 867.696287,102.548827 868.194336,102.736328 C868.692385,102.923829 869.058593,103.159667 869.292969,103.443848 C869.527345,103.728029 869.691406,104.086912 869.785156,104.520508 C869.837891,104.79004 869.864258,105.276364 869.864258,105.979492 L869.864258,108.088867 C869.864258,109.559578 869.897949,110.489744 869.965332,110.879395 C870.032715,111.269045 870.166015,111.642576 870.365234,112 L868.712891,112 C868.548827,111.671873 868.44336,111.288088 868.396484,110.848633 Z M868.264648,107.31543 C867.690427,107.549806 866.829107,107.749023 865.680664,107.913086 C865.03027,108.006836 864.570314,108.112304 864.300781,108.229492 C864.031249,108.34668 863.823243,108.518065 863.676758,108.743652 C863.530273,108.969239 863.457031,109.219725 863.457031,109.495117 C863.457031,109.916994 863.616698,110.268553 863.936035,110.549805 C864.255373,110.831056 864.722653,110.97168 865.337891,110.97168 C865.947269,110.97168 866.489255,110.83838 866.963867,110.571777 C867.438479,110.305174 867.787108,109.940432 868.009766,109.477539 C868.179688,109.120115 868.264648,108.592777 868.264648,107.895508 L868.264648,107.31543 Z M872.316406,112 L872.316406,102.666016 L873.740234,102.666016 L873.740234,103.993164 C874.425785,102.967768 875.416009,102.455078 876.710938,102.455078 C877.27344,102.455078 877.790525,102.556151 878.262207,102.758301 C878.733889,102.96045 879.086913,103.225584 879.321289,103.553711 C879.555665,103.881838 879.719726,104.271482 879.813477,104.722656 C879.872071,105.015626 879.901367,105.528317 879.901367,106.260742 L879.901367,112 L878.319336,112 L878.319336,106.322266 C878.319336,105.677731 878.257813,105.195802 878.134766,104.876465 C878.011718,104.557127 877.793459,104.302247 877.47998,104.111816 C877.166502,103.921386 876.79883,103.826172 876.376953,103.826172 C875.703122,103.826172 875.121584,104.040037 874.632324,104.467773 C874.143064,104.89551 873.898438,105.707025 873.898438,106.902344 L873.898438,112 L872.316406,112 Z M888.382812,112 L888.382812,110.822266 C887.791013,111.748052 886.920904,112.210938 885.772461,112.210938 C885.028317,112.210938 884.344241,112.005861 883.720215,111.595703 C883.096188,111.185545 882.612795,110.612797 882.27002,109.877441 C881.927244,109.142086 881.755859,108.29688 881.755859,107.341797 C881.755859,106.410152 881.911131,105.564945 882.22168,104.806152 C882.532228,104.047359 882.998044,103.465822 883.619141,103.061523 C884.240237,102.657225 884.934566,102.455078 885.702148,102.455078 C886.264651,102.455078 886.765623,102.573729 887.205078,102.811035 C887.644533,103.048341 888.001952,103.35742 888.277344,103.738281 L888.277344,99.1152344 L889.850586,99.1152344 L889.850586,112 L888.382812,112 Z M883.381836,107.341797 C883.381836,108.537115 883.633787,109.430661 884.137695,110.022461 C884.641604,110.614261 885.236325,110.910156 885.921875,110.910156 C886.613285,110.910156 887.200681,110.627444 887.684082,110.062012 C888.167483,109.496579 888.40918,108.633795 888.40918,107.473633 C888.40918,106.196283 888.163088,105.258792 887.670898,104.661133 C887.178708,104.063474 886.572269,103.764648 885.851562,103.764648 C885.148434,103.764648 884.561038,104.051755 884.089355,104.625977 C883.617673,105.200198 883.381836,106.105463 883.381836,107.341797 Z M627.277344,132.581055 L628.833008,132.783203 C628.663085,133.855474 628.228031,134.694821 627.527832,135.30127 C626.827633,135.907718 625.967779,136.210938 624.948242,136.210938 C623.670892,136.210938 622.644047,135.793461 621.867676,134.958496 C621.091305,134.123531 620.703125,132.926766 620.703125,131.368164 C620.703125,130.360347 620.870116,129.478519 621.204102,128.722656 C621.538088,127.966793 622.046383,127.399904 622.729004,127.021973 C623.411625,126.644041 624.154293,126.455078 624.957031,126.455078 C625.970708,126.455078 626.799801,126.711423 627.444336,127.224121 C628.08887,127.736819 628.501952,128.464839 628.683594,129.408203 L627.145508,129.645508 C626.999023,129.018552 626.739748,128.546877 626.367676,128.230469 C625.995604,127.914061 625.545901,127.755859 625.018555,127.755859 C624.221676,127.755859 623.574221,128.041501 623.076172,128.612793 C622.578123,129.184085 622.329102,130.087884 622.329102,131.324219 C622.329102,132.578131 622.569334,133.489255 623.049805,134.057617 C623.530276,134.625979 624.157223,134.910156 624.930664,134.910156 C625.551761,134.910156 626.07031,134.719728 626.486328,134.338867 C626.902346,133.958006 627.166015,133.372074 627.277344,132.581055 Z M629.597656,131.333008 C629.597656,129.604484 630.07812,128.324223 631.039062,127.492188 C631.841801,126.800778 632.820307,126.455078 633.974609,126.455078 C635.257819,126.455078 636.306637,126.875484 637.121094,127.716309 C637.935551,128.557133 638.342773,129.718743 638.342773,131.201172 C638.342773,132.40235 638.162599,133.347165 637.802246,134.035645 C637.441893,134.724125 636.917484,135.258787 636.229004,135.639648 C635.540524,136.02051 634.789067,136.210938 633.974609,136.210938 C632.667962,136.210938 631.61182,135.791996 630.806152,134.954102 C630.000484,134.116207 629.597656,132.909188 629.597656,131.333008 Z M631.223633,131.333008 C631.223633,132.528326 631.484372,133.423337 632.005859,134.018066 C632.527346,134.612796 633.18359,134.910156 633.974609,134.910156 C634.75977,134.910156 635.413083,134.611331 635.93457,134.013672 C636.456057,133.416013 636.716797,132.504889 636.716797,131.280273 C636.716797,130.125971 636.454592,129.251468 635.930176,128.656738 C635.405759,128.062009 634.75391,127.764648 633.974609,127.764648 C633.18359,127.764648 632.527346,128.060544 632.005859,128.652344 C631.484372,129.244144 631.223633,130.137689 631.223633,131.333008 Z M640.197266,136 L640.197266,126.666016 L641.621094,126.666016 L641.621094,127.993164 C642.306644,126.967768 643.296869,126.455078 644.591797,126.455078 C645.1543,126.455078 645.671384,126.556151 646.143066,126.758301 C646.614748,126.96045 646.967772,127.225584 647.202148,127.553711 C647.436525,127.881838 647.600585,128.271482 647.694336,128.722656 C647.75293,129.015626 647.782227,129.528317 647.782227,130.260742 L647.782227,136 L646.200195,136 L646.200195,130.322266 C646.200195,129.677731 646.138672,129.195802 646.015625,128.876465 C645.892578,128.557127 645.674318,128.302247 645.36084,128.111816 C645.047362,127.921386 644.67969,127.826172 644.257812,127.826172 C643.583981,127.826172 643.002444,128.040037 642.513184,128.467773 C642.023923,128.89551 641.779297,129.707025 641.779297,130.902344 L641.779297,136 L640.197266,136 Z M650.208008,136 L650.208008,126.666016 L651.631836,126.666016 L651.631836,127.993164 C652.317386,126.967768 653.307611,126.455078 654.602539,126.455078 C655.165042,126.455078 655.682127,126.556151 656.153809,126.758301 C656.625491,126.96045 656.978514,127.225584 657.212891,127.553711 C657.447267,127.881838 657.611328,128.271482 657.705078,128.722656 C657.763672,129.015626 657.792969,129.528317 657.792969,130.260742 L657.792969,136 L656.210938,136 L656.210938,130.322266 C656.210938,129.677731 656.149415,129.195802 656.026367,128.876465 C655.90332,128.557127 655.68506,128.302247 655.371582,128.111816 C655.058104,127.921386 654.690432,127.826172 654.268555,127.826172 C653.594723,127.826172 653.013186,128.040037 652.523926,128.467773 C652.034666,128.89551 651.790039,129.707025 651.790039,130.902344 L651.790039,136 L650.208008,136 Z M666.608398,132.994141 L668.243164,133.196289 C667.98535,134.151372 667.507816,134.892575 666.810547,135.419922 C666.113278,135.947268 665.222662,136.210938 664.138672,136.210938 C662.773431,136.210938 661.690922,135.790532 660.891113,134.949707 C660.091305,134.108883 659.691406,132.929695 659.691406,131.412109 C659.691406,129.841789 660.095699,128.623051 660.904297,127.755859 C661.712895,126.888668 662.761712,126.455078 664.050781,126.455078 C665.298834,126.455078 666.318355,126.879879 667.109375,127.729492 C667.900395,128.579106 668.295898,129.774406 668.295898,131.31543 C668.295898,131.40918 668.292969,131.549804 668.287109,131.737305 L661.326172,131.737305 C661.384766,132.7627 661.674802,133.547849 662.196289,134.092773 C662.717776,134.637698 663.36816,134.910156 664.147461,134.910156 C664.727542,134.910156 665.222654,134.757814 665.632812,134.453125 C666.042971,134.148436 666.368163,133.662113 666.608398,132.994141 Z M661.414062,130.436523 L666.625977,130.436523 C666.555664,129.651363 666.356447,129.062502 666.02832,128.669922 C665.524412,128.060544 664.871098,127.755859 664.068359,127.755859 C663.341793,127.755859 662.73096,127.999021 662.23584,128.485352 C661.74072,128.971682 661.466797,129.622066 661.414062,130.436523 Z M676.320312,132.581055 L677.875977,132.783203 C677.706054,133.855474 677.271,134.694821 676.570801,135.30127 C675.870602,135.907718 675.010747,136.210938 673.991211,136.210938 C672.713861,136.210938 671.687016,135.793461 670.910645,134.958496 C670.134273,134.123531 669.746094,132.926766 669.746094,131.368164 C669.746094,130.360347 669.913084,129.478519 670.24707,128.722656 C670.581056,127.966793 671.089352,127.399904 671.771973,127.021973 C672.454593,126.644041 673.197262,126.455078 674,126.455078 C675.013677,126.455078 675.84277,126.711423 676.487305,127.224121 C677.131839,127.736819 677.544921,128.464839 677.726562,129.408203 L676.188477,129.645508 C676.041991,129.018552 675.782717,128.546877 675.410645,128.230469 C675.038572,127.914061 674.58887,127.755859 674.061523,127.755859 C673.264644,127.755859 672.61719,128.041501 672.119141,128.612793 C671.621091,129.184085 671.37207,130.087884 671.37207,131.324219 C671.37207,132.578131 671.612302,133.489255 672.092773,134.057617 C672.573245,134.625979 673.200191,134.910156 673.973633,134.910156 C674.59473,134.910156 675.113279,134.719728 675.529297,134.338867 C675.945315,133.958006 676.208984,133.372074 676.320312,132.581055 Z M682.683594,134.584961 L682.912109,135.982422 C682.466795,136.076172 682.068361,136.123047 681.716797,136.123047 C681.142575,136.123047 680.697267,136.032227 680.380859,135.850586 C680.064452,135.668944 679.841798,135.430177 679.712891,135.134277 C679.583984,134.838377 679.519531,134.215825 679.519531,133.266602 L679.519531,127.896484 L678.359375,127.896484 L678.359375,126.666016 L679.519531,126.666016 L679.519531,124.354492 L681.092773,123.405273 L681.092773,126.666016 L682.683594,126.666016 L682.683594,127.896484 L681.092773,127.896484 L681.092773,133.354492 C681.092773,133.805666 681.120605,134.095702 681.17627,134.224609 C681.231934,134.353516 681.322753,134.456054 681.44873,134.532227 C681.574708,134.608399 681.754882,134.646484 681.989258,134.646484 C682.16504,134.646484 682.396483,134.625977 682.683594,134.584961 Z M694.750977,136 L693.168945,136 L693.168945,125.918945 C692.788084,126.282228 692.288577,126.645506 691.67041,127.008789 C691.052243,127.372072 690.497073,127.64453 690.004883,127.826172 L690.004883,126.296875 C690.889653,125.880857 691.663083,125.376956 692.325195,124.785156 C692.987308,124.193356 693.456053,123.619143 693.731445,123.0625 L694.750977,123.0625 L694.750977,136 Z M710.333984,132.581055 L711.889648,132.783203 C711.719726,133.855474 711.284671,134.694821 710.584473,135.30127 C709.884274,135.907718 709.024419,136.210938 708.004883,136.210938 C706.727533,136.210938 705.700687,135.793461 704.924316,134.958496 C704.147945,134.123531 703.759766,132.926766 703.759766,131.368164 C703.759766,130.360347 703.926756,129.478519 704.260742,128.722656 C704.594728,127.966793 705.103024,127.399904 705.785645,127.021973 C706.468265,126.644041 707.210933,126.455078 708.013672,126.455078 C709.027349,126.455078 709.856442,126.711423 710.500977,127.224121 C711.145511,127.736819 711.558593,128.464839 711.740234,129.408203 L710.202148,129.645508 C710.055663,129.018552 709.796389,128.546877 709.424316,128.230469 C709.052244,127.914061 708.602542,127.755859 708.075195,127.755859 C707.278316,127.755859 706.630862,128.041501 706.132812,128.612793 C705.634763,129.184085 705.385742,130.087884 705.385742,131.324219 C705.385742,132.578131 705.625974,133.489255 706.106445,134.057617 C706.586916,134.625979 707.213863,134.910156 707.987305,134.910156 C708.608402,134.910156 709.126951,134.719728 709.542969,134.338867 C709.958986,133.958006 710.222656,133.372074 710.333984,132.581055 Z M712.654297,131.333008 C712.654297,129.604484 713.134761,128.324223 714.095703,127.492188 C714.898442,126.800778 715.876947,126.455078 717.03125,126.455078 C718.31446,126.455078 719.363277,126.875484 720.177734,127.716309 C720.992192,128.557133 721.399414,129.718743 721.399414,131.201172 C721.399414,132.40235 721.21924,133.347165 720.858887,134.035645 C720.498533,134.724125 719.974125,135.258787 719.285645,135.639648 C718.597165,136.02051 717.845707,136.210938 717.03125,136.210938 C715.724603,136.210938 714.668461,135.791996 713.862793,134.954102 C713.057125,134.116207 712.654297,132.909188 712.654297,131.333008 Z M714.280273,131.333008 C714.280273,132.528326 714.541013,133.423337 715.0625,134.018066 C715.583987,134.612796 716.24023,134.910156 717.03125,134.910156 C717.81641,134.910156 718.469724,134.611331 718.991211,134.013672 C719.512698,133.416013 719.773438,132.504889 719.773438,131.280273 C719.773438,130.125971 719.511233,129.251468 718.986816,128.656738 C718.4624,128.062009 717.810551,127.764648 717.03125,127.764648 C716.24023,127.764648 715.583987,128.060544 715.0625,128.652344 C714.541013,129.244144 714.280273,130.137689 714.280273,131.333008 Z M723.253906,136 L723.253906,126.666016 L724.677734,126.666016 L724.677734,127.993164 C725.363285,126.967768 726.353509,126.455078 727.648438,126.455078 C728.21094,126.455078 728.728025,126.556151 729.199707,126.758301 C729.671389,126.96045 730.024413,127.225584 730.258789,127.553711 C730.493165,127.881838 730.657226,128.271482 730.750977,128.722656 C730.809571,129.015626 730.838867,129.528317 730.838867,130.260742 L730.838867,136 L729.256836,136 L729.256836,130.322266 C729.256836,129.677731 729.195313,129.195802 729.072266,128.876465 C728.949218,128.557127 728.730959,128.302247 728.41748,128.111816 C728.104002,127.921386 727.73633,127.826172 727.314453,127.826172 C726.640622,127.826172 726.059084,128.040037 725.569824,128.467773 C725.080564,128.89551 724.835938,129.707025 724.835938,130.902344 L724.835938,136 L723.253906,136 Z M736.71875,134.584961 L736.947266,135.982422 C736.501951,136.076172 736.103517,136.123047 735.751953,136.123047 C735.177732,136.123047 734.732423,136.032227 734.416016,135.850586 C734.099608,135.668944 733.876954,135.430177 733.748047,135.134277 C733.61914,134.838377 733.554688,134.215825 733.554688,133.266602 L733.554688,127.896484 L732.394531,127.896484 L732.394531,126.666016 L733.554688,126.666016 L733.554688,124.354492 L735.12793,123.405273 L735.12793,126.666016 L736.71875,126.666016 L736.71875,127.896484 L735.12793,127.896484 L735.12793,133.354492 C735.12793,133.805666 735.155761,134.095702 735.211426,134.224609 C735.26709,134.353516 735.35791,134.456054 735.483887,134.532227 C735.609864,134.608399 735.790038,134.646484 736.024414,134.646484 C736.200196,134.646484 736.431639,134.625977 736.71875,134.584961 Z M744.356445,134.848633 C743.770505,135.346682 743.206546,135.698241 742.664551,135.90332 C742.122556,136.108399 741.541019,136.210938 740.919922,136.210938 C739.894526,136.210938 739.106448,135.960452 738.555664,135.459473 C738.00488,134.958494 737.729492,134.318363 737.729492,133.539062 C737.729492,133.082029 737.833495,132.664553 738.041504,132.286621 C738.249513,131.90869 738.521971,131.60547 738.858887,131.376953 C739.195802,131.148436 739.575193,130.975587 739.99707,130.858398 C740.307619,130.776367 740.776364,130.697266 741.40332,130.621094 C742.68067,130.468749 743.621091,130.28711 744.224609,130.076172 C744.230469,129.859374 744.233398,129.72168 744.233398,129.663086 C744.233398,129.018551 744.083986,128.564454 743.785156,128.300781 C743.380857,127.943358 742.780277,127.764648 741.983398,127.764648 C741.239254,127.764648 740.689943,127.895018 740.335449,128.155762 C739.980955,128.416505 739.718751,128.877926 739.548828,129.540039 L738.001953,129.329102 C738.142579,128.666989 738.374022,128.132326 738.696289,127.725098 C739.018556,127.317869 739.484372,127.004396 740.09375,126.784668 C740.703128,126.56494 741.409176,126.455078 742.211914,126.455078 C743.008793,126.455078 743.656248,126.548827 744.154297,126.736328 C744.652346,126.923829 745.018554,127.159667 745.25293,127.443848 C745.487306,127.728029 745.651367,128.086912 745.745117,128.520508 C745.797852,128.79004 745.824219,129.276364 745.824219,129.979492 L745.824219,132.088867 C745.824219,133.559578 745.85791,134.489744 745.925293,134.879395 C745.992676,135.269045 746.125976,135.642576 746.325195,136 L744.672852,136 C744.508788,135.671873 744.403321,135.288088 744.356445,134.848633 Z M744.224609,131.31543 C743.650388,131.549806 742.789068,131.749023 741.640625,131.913086 C740.990231,132.006836 740.530275,132.112304 740.260742,132.229492 C739.99121,132.34668 739.783204,132.518065 739.636719,132.743652 C739.490234,132.969239 739.416992,133.219725 739.416992,133.495117 C739.416992,133.916994 739.576659,134.268553 739.895996,134.549805 C740.215334,134.831056 740.682614,134.97168 741.297852,134.97168 C741.90723,134.97168 742.449216,134.83838 742.923828,134.571777 C743.39844,134.305174 743.747069,133.940432 743.969727,133.477539 C744.139649,133.120115 744.224609,132.592777 744.224609,131.895508 L744.224609,131.31543 Z M748.285156,124.93457 L748.285156,123.115234 L749.867188,123.115234 L749.867188,124.93457 L748.285156,124.93457 Z M748.285156,136 L748.285156,126.666016 L749.867188,126.666016 L749.867188,136 L748.285156,136 Z M752.275391,136 L752.275391,126.666016 L753.699219,126.666016 L753.699219,127.993164 C754.384769,126.967768 755.374994,126.455078 756.669922,126.455078 C757.232425,126.455078 757.749509,126.556151 758.221191,126.758301 C758.692873,126.96045 759.045897,127.225584 759.280273,127.553711 C759.51465,127.881838 759.67871,128.271482 759.772461,128.722656 C759.831055,129.015626 759.860352,129.528317 759.860352,130.260742 L759.860352,136 L758.27832,136 L758.27832,130.322266 C758.27832,129.677731 758.216797,129.195802 758.09375,128.876465 C757.970703,128.557127 757.752443,128.302247 757.438965,128.111816 C757.125487,127.921386 756.757815,127.826172 756.335938,127.826172 C755.662106,127.826172 755.080569,128.040037 754.591309,128.467773 C754.102048,128.89551 753.857422,129.707025 753.857422,130.902344 L753.857422,136 L752.275391,136 Z M768.675781,132.994141 L770.310547,133.196289 C770.052733,134.151372 769.575199,134.892575 768.87793,135.419922 C768.180661,135.947268 767.290044,136.210938 766.206055,136.210938 C764.840813,136.210938 763.758305,135.790532 762.958496,134.949707 C762.158687,134.108883 761.758789,132.929695 761.758789,131.412109 C761.758789,129.841789 762.163082,128.623051 762.97168,127.755859 C763.780277,126.888668 764.829095,126.455078 766.118164,126.455078 C767.366217,126.455078 768.385738,126.879879 769.176758,127.729492 C769.967777,128.579106 770.363281,129.774406 770.363281,131.31543 C770.363281,131.40918 770.360352,131.549804 770.354492,131.737305 L763.393555,131.737305 C763.452149,132.7627 763.742185,133.547849 764.263672,134.092773 C764.785159,134.637698 765.435543,134.910156 766.214844,134.910156 C766.794925,134.910156 767.290037,134.757814 767.700195,134.453125 C768.110354,134.148436 768.435546,133.662113 768.675781,132.994141 Z M763.481445,130.436523 L768.693359,130.436523 C768.623047,129.651363 768.42383,129.062502 768.095703,128.669922 C767.591794,128.060544 766.938481,127.755859 766.135742,127.755859 C765.409176,127.755859 764.798342,127.999021 764.303223,128.485352 C763.808103,128.971682 763.53418,129.622066 763.481445,130.436523 Z M772.279297,136 L772.279297,126.666016 L773.703125,126.666016 L773.703125,128.081055 C774.066408,127.418942 774.401854,126.982423 774.709473,126.771484 C775.017091,126.560546 775.355467,126.455078 775.724609,126.455078 C776.257815,126.455078 776.799802,126.624998 777.350586,126.964844 L776.805664,128.432617 C776.418943,128.2041 776.032228,128.089844 775.645508,128.089844 C775.299803,128.089844 774.989259,128.193847 774.713867,128.401855 C774.438475,128.609864 774.242188,128.898436 774.125,129.267578 C773.949218,129.830081 773.861328,130.445309 773.861328,131.113281 L773.861328,136 L772.279297,136 Z M786.746094,134.584961 L786.974609,135.982422 C786.529295,136.076172 786.130861,136.123047 785.779297,136.123047 C785.205075,136.123047 784.759767,136.032227 784.443359,135.850586 C784.126952,135.668944 783.904298,135.430177 783.775391,135.134277 C783.646484,134.838377 783.582031,134.215825 783.582031,133.266602 L783.582031,127.896484 L782.421875,127.896484 L782.421875,126.666016 L783.582031,126.666016 L783.582031,124.354492 L785.155273,123.405273 L785.155273,126.666016 L786.746094,126.666016 L786.746094,127.896484 L785.155273,127.896484 L785.155273,133.354492 C785.155273,133.805666 785.183105,134.095702 785.23877,134.224609 C785.294434,134.353516 785.385253,134.456054 785.51123,134.532227 C785.637208,134.608399 785.817382,134.646484 786.051758,134.646484 C786.22754,134.646484 786.458983,134.625977 786.746094,134.584961 Z M787.704102,131.333008 C787.704102,129.604484 788.184566,128.324223 789.145508,127.492188 C789.948246,126.800778 790.926752,126.455078 792.081055,126.455078 C793.364264,126.455078 794.413082,126.875484 795.227539,127.716309 C796.041996,128.557133 796.449219,129.718743 796.449219,131.201172 C796.449219,132.40235 796.269045,133.347165 795.908691,134.035645 C795.548338,134.724125 795.023929,135.258787 794.335449,135.639648 C793.646969,136.02051 792.895512,136.210938 792.081055,136.210938 C790.774408,136.210938 789.718266,135.791996 788.912598,134.954102 C788.10693,134.116207 787.704102,132.909188 787.704102,131.333008 Z M789.330078,131.333008 C789.330078,132.528326 789.590818,133.423337 790.112305,134.018066 C790.633792,134.612796 791.290035,134.910156 792.081055,134.910156 C792.866215,134.910156 793.519529,134.611331 794.041016,134.013672 C794.562503,133.416013 794.823242,132.504889 794.823242,131.280273 C794.823242,130.125971 794.561038,129.251468 794.036621,128.656738 C793.512204,128.062009 792.860355,127.764648 792.081055,127.764648 C791.290035,127.764648 790.633792,128.060544 790.112305,128.652344 C789.590818,129.244144 789.330078,130.137689 789.330078,131.333008 Z M812.700195,131.482422 L814.405273,131.913086 C814.04785,133.313484 813.40479,134.381344 812.476074,135.116699 C811.547359,135.852054 810.412116,136.219727 809.070312,136.219727 C807.681634,136.219727 806.55225,135.937015 805.682129,135.371582 C804.812007,134.80615 804.149905,133.98731 803.695801,132.915039 C803.241697,131.842768 803.014648,130.691412 803.014648,129.460938 C803.014648,128.119134 803.270994,126.948735 803.783691,125.949707 C804.296389,124.950679 805.025874,124.191897 805.972168,123.67334 C806.918462,123.154783 807.959955,122.895508 809.09668,122.895508 C810.385749,122.895508 811.469722,123.22363 812.348633,123.879883 C813.227543,124.536136 813.839842,125.458978 814.185547,126.648438 L812.506836,127.043945 C812.208006,126.106441 811.774417,125.42383 811.206055,124.996094 C810.637692,124.568357 809.922856,124.354492 809.061523,124.354492 C808.071284,124.354492 807.243656,124.591795 806.578613,125.066406 C805.913571,125.541018 805.44629,126.178219 805.176758,126.978027 C804.907225,127.777836 804.772461,128.602535 804.772461,129.452148 C804.772461,130.547857 804.932127,131.50439 805.251465,132.321777 C805.570802,133.139164 806.067379,133.749998 806.741211,134.154297 C807.415042,134.558596 808.144527,134.760742 808.929688,134.760742 C809.88477,134.760742 810.693356,134.485354 811.355469,133.93457 C812.017581,133.383786 812.465819,132.566412 812.700195,131.482422 Z M825.699219,131.482422 L827.404297,131.913086 C827.046873,133.313484 826.403813,134.381344 825.475098,135.116699 C824.546382,135.852054 823.41114,136.219727 822.069336,136.219727 C820.680657,136.219727 819.551274,135.937015 818.681152,135.371582 C817.811031,134.80615 817.148928,133.98731 816.694824,132.915039 C816.24072,131.842768 816.013672,130.691412 816.013672,129.460938 C816.013672,128.119134 816.270017,126.948735 816.782715,125.949707 C817.295413,124.950679 818.024898,124.191897 818.971191,123.67334 C819.917485,123.154783 820.958979,122.895508 822.095703,122.895508 C823.384772,122.895508 824.468746,123.22363 825.347656,123.879883 C826.226567,124.536136 826.838865,125.458978 827.18457,126.648438 L825.505859,127.043945 C825.20703,126.106441 824.77344,125.42383 824.205078,124.996094 C823.636716,124.568357 822.921879,124.354492 822.060547,124.354492 C821.070308,124.354492 820.242679,124.591795 819.577637,125.066406 C818.912594,125.541018 818.445314,126.178219 818.175781,126.978027 C817.906249,127.777836 817.771484,128.602535 817.771484,129.452148 C817.771484,130.547857 817.931151,131.50439 818.250488,132.321777 C818.569826,133.139164 819.066403,133.749998 819.740234,134.154297 C820.414066,134.558596 821.143551,134.760742 821.928711,134.760742 C822.883794,134.760742 823.69238,134.485354 824.354492,133.93457 C825.016605,133.383786 825.464843,132.566412 825.699219,131.482422 Z M828.924805,131.860352 L830.533203,131.719727 C830.609375,132.364261 830.78662,132.893064 831.064941,133.306152 C831.343263,133.71924 831.775388,134.053221 832.361328,134.308105 C832.947269,134.56299 833.606442,134.69043 834.338867,134.69043 C834.989261,134.69043 835.563474,134.593751 836.061523,134.400391 C836.559573,134.20703 836.930175,133.941896 837.17334,133.60498 C837.416505,133.268065 837.538086,132.900393 837.538086,132.501953 C837.538086,132.097654 837.4209,131.74463 837.186523,131.442871 C836.952147,131.141112 836.565432,130.887696 836.026367,130.682617 C835.680662,130.547851 834.916022,130.33838 833.732422,130.054199 C832.548822,129.770018 831.719729,129.501954 831.245117,129.25 C830.62988,128.927733 830.171388,128.527834 829.869629,128.050293 C829.56787,127.572752 829.416992,127.038089 829.416992,126.446289 C829.416992,125.795895 829.601561,125.187991 829.970703,124.622559 C830.339846,124.057126 830.878903,123.627931 831.587891,123.334961 C832.296879,123.041991 833.084957,122.895508 833.952148,122.895508 C834.907231,122.895508 835.749508,123.049315 836.479004,123.356934 C837.2085,123.664552 837.769529,124.117185 838.162109,124.714844 C838.554689,125.312503 838.765625,125.989254 838.794922,126.745117 L837.160156,126.868164 C837.072265,126.053707 836.774905,125.438479 836.268066,125.022461 C835.761228,124.606443 835.0127,124.398438 834.022461,124.398438 C832.991206,124.398438 832.239748,124.5874 831.768066,124.965332 C831.296384,125.343264 831.060547,125.798825 831.060547,126.332031 C831.060547,126.794924 831.227537,127.17578 831.561523,127.474609 C831.88965,127.773439 832.746575,128.079588 834.132324,128.393066 C835.518073,128.706545 836.468747,128.980468 836.984375,129.214844 C837.734379,129.560549 838.288084,129.998533 838.645508,130.528809 C839.002931,131.059085 839.181641,131.669918 839.181641,132.361328 C839.181641,133.046878 838.985354,133.692868 838.592773,134.299316 C838.200193,134.905765 837.636234,135.37744 836.900879,135.714355 C836.165524,136.051271 835.337895,136.219727 834.417969,136.219727 C833.251947,136.219727 832.274906,136.049806 831.486816,135.709961 C830.698727,135.370115 830.080569,134.85889 829.632324,134.17627 C829.18408,133.493649 828.948242,132.721684 828.924805,131.860352 Z M845.337891,129 L844.107422,129 L844.107422,121.15918 C843.811196,121.441733 843.422691,121.724282 842.941895,122.006836 C842.461098,122.289389 842.029299,122.501301 841.646484,122.642578 L841.646484,121.453125 C842.334639,121.129556 842.936195,120.737633 843.451172,120.277344 C843.966148,119.817055 844.330728,119.370445 844.544922,118.9375 L845.337891,118.9375 L845.337891,129 Z" id="5-10min.tocheck,documentandconnect1containertoCCS1" fill="#373737" fill-rule="nonzero"></path>
            <text id="800-liter-container" font-family="ArialMT, Arial" font-size="18" font-weight="normal" fill="#373737">
                <tspan x="620" y="209">800-liter container about 1,000 kg </tspan>
            </text>
            <text id="Liquid-Acid-Concentr" font-family="Arial-BoldMT, Arial" font-size="18" font-weight="bold" fill="#373737">
                <tspan x="620" y="16">Liquid Acid Concentrate </tspan>
                <tspan x="620" y="36">Container</tspan>
            </text>
            <text id="ECOMix-Revolution" font-family="Arial-BoldMT, Arial" font-size="18" font-weight="bold" fill="#FFFFFF">
                <tspan x="312" y="26">ECOMix Revolution</tspan>
            </text>
            <text id="220-kg-/-800-liter-1" font-family="ArialMT, Arial" font-size="18" font-weight="normal" fill="#FFFFFF">
                <tspan x="312" y="199">220 kg / 800 liter 1+34</tspan>
                <tspan x="312" y="219">220 kg / 622 liter 1+44</tspan>
            </text>
            <text id="Product-handling" font-family="ArialMT, Arial" font-size="18" font-weight="normal" fill="#373737">
                <tspan x="1" y="69">Product handling</tspan>
            </text>
            <text id="Hygiene-of-system" font-family="ArialMT, Arial" font-size="18" font-weight="normal" fill="#373737">
                <tspan x="1" y="262">Hygiene of system</tspan>
            </text>
            <text id="Online-capabilities" font-family="ArialMT, Arial" font-size="18" font-weight="normal" fill="#373737">
                <tspan x="1" y="305">Online capabilities REMOTE </tspan>
                <tspan x="1" y="325">access</tspan>
            </text>
            <text id="Environmental-protec" font-family="ArialMT, Arial" font-size="18" font-weight="normal" fill="#373737">
                <tspan x="1" y="378">Environmental protection</tspan>
            </text>
            <text id="Space-requirements" font-family="ArialMT, Arial" font-size="18" font-weight="normal" fill="#373737">
                <tspan x="1" y="431">Space requirements</tspan>
            </text>
            <text id="Recommendation-for-l" font-family="ArialMT, Arial" font-size="18" font-weight="normal" fill="#373737">
                <tspan x="1" y="474">Recommendation for lab analysis</tspan>
            </text>
            <text id="Handling-workload" font-family="ArialMT, Arial" font-size="18" font-weight="normal" fill="#373737">
                <tspan x="0" y="134">Handling workload</tspan>
            </text>
            <text id="Weight" font-family="ArialMT, Arial" font-size="18" font-weight="normal" fill="#373737">
                <tspan x="1" y="209">Weight</tspan>
            </text>
            <path d="M0.5,84.5 L911.59275,84.5" id="Line" stroke="#FFFFFF" stroke-linecap="square"></path>
            <path d="M0.5,171.5 L911.59275,171.5" id="Line" stroke="#FFFFFF" stroke-linecap="square"></path>
            <path d="M0.5,234.5 L911.59275,234.5" id="Line-Copy" stroke="#FFFFFF" stroke-linecap="square"></path>
            <path d="M0.5,277.5 L911.59275,277.5" id="Line-Copy-2" stroke="#FFFFFF" stroke-linecap="square"></path>
            <path d="M0.5,340.5 L911.59275,340.5" id="Line-Copy-3" stroke="#FFFFFF" stroke-linecap="square"></path>
            <path d="M0.5,403.5 L911.59275,403.5" id="Line-Copy-4" stroke="#FFFFFF" stroke-linecap="square"></path>
            <path d="M0.5,446.5 L911.59275,446.5" id="Line-Copy-5" stroke="#FFFFFF" stroke-linecap="square"></path>
            <path d="M0.5,41.5 L911.59275,41.5" id="Line" stroke="#FFFFFF" stroke-linecap="square"></path>
        </g>
    </g>
</svg>