<?xml version="1.0" encoding="UTF-8"?>
<svg width="912px" height="468px" viewBox="0 0 912 468" version="1.1" xmlns="http://www.w3.org/2000/svg" xmlns:xlink="http://www.w3.org/1999/xlink">
    <!-- Generator: Sketch 54.1 (76490) - https://sketchapp.com -->
    <title>Tabelle02</title>
    <desc>Created with Sketch.</desc>
    <g id="Tabelle02" stroke="none" stroke-width="1" fill="none" fill-rule="evenodd">
        <g id="Group">
            <polygon id="Rectangle" fill-opacity="0.75" fill="#00B482" points="300 0 601 0 601 468 300 468"></polygon>
            <text id="Fully-automated" font-family="ArialMT, Arial" font-size="18" font-weight="normal" fill="#FFFFFF">
                <tspan x="312" y="69">Fully automated</tspan>
            </text>
            <text id="Closed-system,-coded" font-family="ArialMT, Arial" font-size="18" font-weight="normal" fill="#FFFFFF">
                <tspan x="312" y="242">Closed system, coded connection</tspan>
            </text>
            <text id="Possible" font-family="ArialMT, Arial" font-size="18" font-weight="normal" fill="#FFFFFF">
                <tspan x="312" y="295">Possible</tspan>
            </text>
            <text id="Return-of-ECOCart,-d" font-family="ArialMT, Arial" font-size="18" font-weight="normal" fill="#FFFFFF">
                <tspan x="312" y="348">Return of ECOCart,</tspan>
                <tspan x="312" y="368">disposable cart available</tspan>
            </text>
            <text id="2-ECOCarts-per-EU-pa" font-family="ArialMT, Arial" font-size="18" font-weight="normal" fill="#FFFFFF">
                <tspan x="312" y="411">2 ECOCarts per EU pallet space  </tspan>
            </text>
            <text id="No" font-family="ArialMT, Arial" font-size="18" font-weight="normal" fill="#FFFFFF">
                <tspan x="312" y="454">No</tspan>
            </text>
            <text id="2-4-min.-to-prepare," font-family="ArialMT, Arial" font-size="18" font-weight="normal" fill="#FFFFFF">
                <tspan x="312" y="112">2-4 min. to prepare, produce and </tspan>
                <tspan x="312" y="132">decant 1 batch</tspan>
            </text>
            <text id="Semi-automated-(bags" font-family="ArialMT, Arial" font-size="18" font-weight="normal" fill="#373737">
                <tspan x="620" y="69">Semi-automated (bags)</tspan>
            </text>
            <text id="Open-bags-filled-in" font-family="ArialMT, Arial" font-size="18" font-weight="normal" fill="#373737">
                <tspan x="620" y="242">Open bags filled in open mixer</tspan>
            </text>
            <text id="Not-possible" font-family="ArialMT, Arial" font-size="18" font-weight="normal" fill="#373737">
                <tspan x="620" y="295">Not possible</tspan>
            </text>
            <text id="Empty-bag-disposal" font-family="ArialMT, Arial" font-size="18" font-weight="normal" fill="#373737">
                <tspan x="620" y="358">Empty bag disposal</tspan>
            </text>
            <text id="Unknown" font-family="ArialMT, Arial" font-size="18" font-weight="normal" fill="#373737">
                <tspan x="620" y="411">Unknown</tspan>
            </text>
            <text id="Unknown" font-family="ArialMT, Arial" font-size="18" font-weight="normal" fill="#373737">
                <tspan x="620" y="454">Unknown</tspan>
            </text>
            <path d="M620.755859,108.598633 L622.337891,108.387695 C622.519532,109.284184 622.828611,109.930174 623.265137,110.325684 C623.701662,110.721193 624.233395,110.918945 624.860352,110.918945 C625.604496,110.918945 626.232908,110.661135 626.745605,110.145508 C627.258303,109.62988 627.514648,108.991215 627.514648,108.229492 C627.514648,107.502926 627.277346,106.903811 626.802734,106.432129 C626.328123,105.960447 625.724613,105.724609 624.992188,105.724609 C624.693358,105.724609 624.321291,105.783203 623.875977,105.900391 L624.051758,104.511719 C624.157227,104.523438 624.242187,104.529297 624.306641,104.529297 C624.980472,104.529297 625.586911,104.353517 626.125977,104.001953 C626.665042,103.650389 626.93457,103.108402 626.93457,102.375977 C626.93457,101.795896 626.738283,101.315432 626.345703,100.93457 C625.953123,100.553709 625.446292,100.363281 624.825195,100.363281 C624.209958,100.363281 623.697268,100.556639 623.287109,100.943359 C622.876951,101.33008 622.613282,101.910152 622.496094,102.683594 L620.914062,102.402344 C621.107423,101.341792 621.546872,100.520022 622.232422,99.9370117 C622.917972,99.354001 623.770503,99.0625 624.790039,99.0625 C625.493168,99.0625 626.140622,99.2133774 626.732422,99.5151367 C627.324222,99.816896 627.776854,100.228513 628.090332,100.75 C628.40381,101.271487 628.560547,101.825192 628.560547,102.411133 C628.560547,102.967776 628.411134,103.474607 628.112305,103.931641 C627.813475,104.388674 627.371097,104.751952 626.785156,105.021484 C627.546879,105.197267 628.13867,105.562009 628.560547,106.115723 C628.982424,106.669436 629.193359,107.362301 629.193359,108.194336 C629.193359,109.319342 628.783207,110.272945 627.962891,111.055176 C627.142574,111.837406 626.105475,112.228516 624.851562,112.228516 C623.720697,112.228516 622.781742,111.891605 622.034668,111.217773 C621.287594,110.543942 620.861329,109.670904 620.755859,108.598633 Z M630.757812,105.645508 C630.757812,104.122063 630.914549,102.896001 631.228027,101.967285 C631.541505,101.03857 632.007321,100.322268 632.625488,99.8183594 C633.243655,99.3144506 634.02148,99.0625 634.958984,99.0625 C635.650394,99.0625 636.256833,99.2016588 636.77832,99.4799805 C637.299807,99.7583022 637.730467,100.159665 638.070312,100.684082 C638.410158,101.208499 638.676757,101.847164 638.870117,102.600098 C639.063478,103.353031 639.160156,104.368158 639.160156,105.645508 C639.160156,107.157234 639.004884,108.377437 638.694336,109.306152 C638.383788,110.234868 637.919437,110.952634 637.30127,111.459473 C636.683102,111.966311 635.902348,112.219727 634.958984,112.219727 C633.716791,112.219727 632.741214,111.774419 632.032227,110.883789 C631.182613,109.811518 630.757812,108.065442 630.757812,105.645508 Z M632.383789,105.645508 C632.383789,107.760753 632.631345,109.168454 633.126465,109.868652 C633.621585,110.568851 634.232418,110.918945 634.958984,110.918945 C635.685551,110.918945 636.296384,110.567386 636.791504,109.864258 C637.286624,109.161129 637.53418,107.754893 637.53418,105.645508 C637.53418,103.524403 637.286624,102.115238 636.791504,101.417969 C636.296384,100.7207 635.679691,100.37207 634.941406,100.37207 C634.21484,100.37207 633.634768,100.679684 633.201172,101.294922 C632.656247,102.080082 632.383789,103.530263 632.383789,105.645508 Z M640.592773,108.132812 L640.592773,106.541992 L645.453125,106.541992 L645.453125,108.132812 L640.592773,108.132812 Z M651.833984,112 L651.833984,108.915039 L646.244141,108.915039 L646.244141,107.464844 L652.124023,99.1152344 L653.416016,99.1152344 L653.416016,107.464844 L655.15625,107.464844 L655.15625,108.915039 L653.416016,108.915039 L653.416016,112 L651.833984,112 Z M651.833984,107.464844 L651.833984,101.655273 L647.799805,107.464844 L651.833984,107.464844 Z M656.773438,105.645508 C656.773438,104.122063 656.930174,102.896001 657.243652,101.967285 C657.55713,101.03857 658.022946,100.322268 658.641113,99.8183594 C659.25928,99.3144506 660.037105,99.0625 660.974609,99.0625 C661.666019,99.0625 662.272458,99.2016588 662.793945,99.4799805 C663.315432,99.7583022 663.746092,100.159665 664.085938,100.684082 C664.425783,101.208499 664.692382,101.847164 664.885742,102.600098 C665.079103,103.353031 665.175781,104.368158 665.175781,105.645508 C665.175781,107.157234 665.020509,108.377437 664.709961,109.306152 C664.399413,110.234868 663.935062,110.952634 663.316895,111.459473 C662.698727,111.966311 661.917973,112.219727 660.974609,112.219727 C659.732416,112.219727 658.756839,111.774419 658.047852,110.883789 C657.198238,109.811518 656.773438,108.065442 656.773438,105.645508 Z M658.399414,105.645508 C658.399414,107.760753 658.64697,109.168454 659.14209,109.868652 C659.63721,110.568851 660.248043,110.918945 660.974609,110.918945 C661.701176,110.918945 662.312009,110.567386 662.807129,109.864258 C663.302249,109.161129 663.549805,107.754893 663.549805,105.645508 C663.549805,103.524403 663.302249,102.115238 662.807129,101.417969 C662.312009,100.7207 661.695316,100.37207 660.957031,100.37207 C660.230465,100.37207 659.650393,100.679684 659.216797,101.294922 C658.671872,102.080082 658.399414,103.530263 658.399414,105.645508 Z M672.224609,112 L672.224609,102.666016 L673.639648,102.666016 L673.639648,103.975586 C673.932619,103.518552 674.322263,103.15088 674.808594,102.872559 C675.294924,102.594237 675.84863,102.455078 676.469727,102.455078 C677.161136,102.455078 677.728025,102.598631 678.17041,102.885742 C678.612795,103.172853 678.924804,103.574216 679.106445,104.089844 C679.84473,102.999995 680.805658,102.455078 681.989258,102.455078 C682.915044,102.455078 683.626951,102.711423 684.125,103.224121 C684.623049,103.736819 684.87207,104.526362 684.87207,105.592773 L684.87207,112 L683.298828,112 L683.298828,106.120117 C683.298828,105.487302 683.247559,105.03174 683.14502,104.753418 C683.04248,104.475096 682.856447,104.250977 682.586914,104.081055 C682.317381,103.911132 682.000978,103.826172 681.637695,103.826172 C680.981442,103.826172 680.436526,104.044431 680.00293,104.480957 C679.569334,104.917483 679.352539,105.616206 679.352539,106.577148 L679.352539,112 L677.770508,112 L677.770508,105.935547 C677.770508,105.232418 677.641603,104.70508 677.383789,104.353516 C677.125975,104.001951 676.704104,103.826172 676.118164,103.826172 C675.672849,103.826172 675.261232,103.943358 674.883301,104.177734 C674.505369,104.412111 674.231446,104.754881 674.061523,105.206055 C673.891601,105.657229 673.806641,106.307613 673.806641,107.157227 L673.806641,112 L672.224609,112 Z M687.227539,100.93457 L687.227539,99.1152344 L688.80957,99.1152344 L688.80957,100.93457 L687.227539,100.93457 Z M687.227539,112 L687.227539,102.666016 L688.80957,102.666016 L688.80957,112 L687.227539,112 Z M691.217773,112 L691.217773,102.666016 L692.641602,102.666016 L692.641602,103.993164 C693.327152,102.967768 694.317376,102.455078 695.612305,102.455078 C696.174808,102.455078 696.691892,102.556151 697.163574,102.758301 C697.635256,102.96045 697.98828,103.225584 698.222656,103.553711 C698.457032,103.881838 698.621093,104.271482 698.714844,104.722656 C698.773438,105.015626 698.802734,105.528317 698.802734,106.260742 L698.802734,112 L697.220703,112 L697.220703,106.322266 C697.220703,105.677731 697.15918,105.195802 697.036133,104.876465 C696.913085,104.557127 696.694826,104.302247 696.381348,104.111816 C696.06787,103.921386 695.700197,103.826172 695.27832,103.826172 C694.604489,103.826172 694.022952,104.040037 693.533691,104.467773 C693.044431,104.89551 692.799805,105.707025 692.799805,106.902344 L692.799805,112 L691.217773,112 Z M701.676758,112 L701.676758,110.198242 L703.478516,110.198242 L703.478516,112 L701.676758,112 Z M711.608398,112 L711.608398,103.896484 L710.210938,103.896484 L710.210938,102.666016 L711.608398,102.666016 L711.608398,101.672852 C711.608398,101.045895 711.664062,100.58008 711.775391,100.275391 C711.927735,99.8652323 712.195799,99.5327161 712.57959,99.277832 C712.963381,99.0229479 713.500973,98.8955078 714.192383,98.8955078 C714.637698,98.8955078 715.12988,98.9482417 715.668945,99.0537109 L715.431641,100.433594 C715.103514,100.375 714.79297,100.345703 714.5,100.345703 C714.019529,100.345703 713.679688,100.448241 713.480469,100.65332 C713.281249,100.858399 713.181641,101.242185 713.181641,101.804688 L713.181641,102.666016 L715.000977,102.666016 L715.000977,103.896484 L713.181641,103.896484 L713.181641,112 L711.608398,112 Z M715.642578,107.333008 C715.642578,105.604484 716.123042,104.324223 717.083984,103.492188 C717.886723,102.800778 718.865229,102.455078 720.019531,102.455078 C721.302741,102.455078 722.351558,102.875484 723.166016,103.716309 C723.980473,104.557133 724.387695,105.718743 724.387695,107.201172 C724.387695,108.40235 724.207521,109.347165 723.847168,110.035645 C723.486815,110.724125 722.962406,111.258787 722.273926,111.639648 C721.585446,112.02051 720.833988,112.210938 720.019531,112.210938 C718.712884,112.210938 717.656742,111.791996 716.851074,110.954102 C716.045406,110.116207 715.642578,108.909188 715.642578,107.333008 Z M717.268555,107.333008 C717.268555,108.528326 717.529294,109.423337 718.050781,110.018066 C718.572268,110.612796 719.228512,110.910156 720.019531,110.910156 C720.804691,110.910156 721.458005,110.611331 721.979492,110.013672 C722.500979,109.416013 722.761719,108.504889 722.761719,107.280273 C722.761719,106.125971 722.499514,105.251468 721.975098,104.656738 C721.450681,104.062009 720.798832,103.764648 720.019531,103.764648 C719.228512,103.764648 718.572268,104.060544 718.050781,104.652344 C717.529294,105.244144 717.268555,106.137689 717.268555,107.333008 Z M726.224609,112 L726.224609,102.666016 L727.648438,102.666016 L727.648438,104.081055 C728.011721,103.418942 728.347166,102.982423 728.654785,102.771484 C728.962404,102.560546 729.300779,102.455078 729.669922,102.455078 C730.203128,102.455078 730.745114,102.624998 731.295898,102.964844 L730.750977,104.432617 C730.364256,104.2041 729.977541,104.089844 729.59082,104.089844 C729.245115,104.089844 728.934572,104.193847 728.65918,104.401855 C728.383788,104.609864 728.187501,104.898436 728.070312,105.267578 C727.89453,105.830081 727.806641,106.445309 727.806641,107.113281 L727.806641,112 L726.224609,112 Z M742.756836,112 L741.174805,112 L741.174805,101.918945 C740.793943,102.282228 740.294437,102.645506 739.67627,103.008789 C739.058102,103.372072 738.502932,103.64453 738.010742,103.826172 L738.010742,102.296875 C738.895512,101.880857 739.668942,101.376956 740.331055,100.785156 C740.993167,100.193356 741.461913,99.6191434 741.737305,99.0625 L742.756836,99.0625 L742.756836,112 Z M753.708008,112 L752.240234,112 L752.240234,99.1152344 L753.822266,99.1152344 L753.822266,103.711914 C754.490238,102.874019 755.342768,102.455078 756.379883,102.455078 C756.954104,102.455078 757.497556,102.5708 758.010254,102.802246 C758.522952,103.033693 758.944823,103.358885 759.275879,103.777832 C759.606935,104.196779 759.86621,104.702145 760.053711,105.293945 C760.241212,105.885745 760.334961,106.518551 760.334961,107.192383 C760.334961,108.792 759.939457,110.028316 759.148438,110.901367 C758.357418,111.774418 757.408209,112.210938 756.300781,112.210938 C755.199213,112.210938 754.334964,111.750981 753.708008,110.831055 L753.708008,112 Z M753.69043,107.262695 C753.69043,108.381842 753.842772,109.190427 754.147461,109.688477 C754.64551,110.502934 755.319332,110.910156 756.168945,110.910156 C756.860355,110.910156 757.458005,110.609866 757.961914,110.009277 C758.465823,109.408688 758.717773,108.513678 758.717773,107.324219 C758.717773,106.105463 758.476077,105.206058 757.992676,104.625977 C757.509275,104.045896 756.924808,103.755859 756.239258,103.755859 C755.547848,103.755859 754.950198,104.056149 754.446289,104.656738 C753.94238,105.257327 753.69043,106.125971 753.69043,107.262695 Z M768.350586,110.848633 C767.764646,111.346682 767.200686,111.698241 766.658691,111.90332 C766.116697,112.108399 765.535159,112.210938 764.914062,112.210938 C763.888667,112.210938 763.100589,111.960452 762.549805,111.459473 C761.999021,110.958494 761.723633,110.318363 761.723633,109.539062 C761.723633,109.082029 761.827636,108.664553 762.035645,108.286621 C762.243653,107.90869 762.516112,107.60547 762.853027,107.376953 C763.189943,107.148436 763.569334,106.975587 763.991211,106.858398 C764.301759,106.776367 764.770505,106.697266 765.397461,106.621094 C766.674811,106.468749 767.615231,106.28711 768.21875,106.076172 C768.224609,105.859374 768.227539,105.72168 768.227539,105.663086 C768.227539,105.018551 768.078126,104.564454 767.779297,104.300781 C767.374998,103.943358 766.774418,103.764648 765.977539,103.764648 C765.233395,103.764648 764.684084,103.895018 764.32959,104.155762 C763.975096,104.416505 763.712891,104.877926 763.542969,105.540039 L761.996094,105.329102 C762.136719,104.666989 762.368162,104.132326 762.69043,103.725098 C763.012697,103.317869 763.478513,103.004396 764.087891,102.784668 C764.697269,102.56494 765.403316,102.455078 766.206055,102.455078 C767.002934,102.455078 767.650388,102.548827 768.148438,102.736328 C768.646487,102.923829 769.012694,103.159667 769.24707,103.443848 C769.481446,103.728029 769.645507,104.086912 769.739258,104.520508 C769.791992,104.79004 769.818359,105.276364 769.818359,105.979492 L769.818359,108.088867 C769.818359,109.559578 769.85205,110.489744 769.919434,110.879395 C769.986817,111.269045 770.120116,111.642576 770.319336,112 L768.666992,112 C768.502929,111.671873 768.397461,111.288088 768.350586,110.848633 Z M768.21875,107.31543 C767.644528,107.549806 766.783209,107.749023 765.634766,107.913086 C764.984372,108.006836 764.524415,108.112304 764.254883,108.229492 C763.98535,108.34668 763.777344,108.518065 763.630859,108.743652 C763.484374,108.969239 763.411133,109.219725 763.411133,109.495117 C763.411133,109.916994 763.570799,110.268553 763.890137,110.549805 C764.209474,110.831056 764.676755,110.97168 765.291992,110.97168 C765.90137,110.97168 766.443357,110.83838 766.917969,110.571777 C767.39258,110.305174 767.74121,109.940432 767.963867,109.477539 C768.13379,109.120115 768.21875,108.592777 768.21875,107.895508 L768.21875,107.31543 Z M775.724609,110.584961 L775.953125,111.982422 C775.50781,112.076172 775.109377,112.123047 774.757812,112.123047 C774.183591,112.123047 773.738283,112.032227 773.421875,111.850586 C773.105467,111.668944 772.882813,111.430177 772.753906,111.134277 C772.624999,110.838377 772.560547,110.215825 772.560547,109.266602 L772.560547,103.896484 L771.400391,103.896484 L771.400391,102.666016 L772.560547,102.666016 L772.560547,100.354492 L774.133789,99.4052734 L774.133789,102.666016 L775.724609,102.666016 L775.724609,103.896484 L774.133789,103.896484 L774.133789,109.354492 C774.133789,109.805666 774.161621,110.095702 774.217285,110.224609 C774.272949,110.353516 774.363769,110.456054 774.489746,110.532227 C774.615723,110.608399 774.795897,110.646484 775.030273,110.646484 C775.206056,110.646484 775.437499,110.625977 775.724609,110.584961 Z M783.362305,108.581055 L784.917969,108.783203 C784.748046,109.855474 784.312992,110.694821 783.612793,111.30127 C782.912594,111.907718 782.052739,112.210938 781.033203,112.210938 C779.755853,112.210938 778.729008,111.793461 777.952637,110.958496 C777.176266,110.123531 776.788086,108.926766 776.788086,107.368164 C776.788086,106.360347 776.955076,105.478519 777.289062,104.722656 C777.623049,103.966793 778.131344,103.399904 778.813965,103.021973 C779.496585,102.644041 780.239254,102.455078 781.041992,102.455078 C782.055669,102.455078 782.884762,102.711423 783.529297,103.224121 C784.173831,103.736819 784.586913,104.464839 784.768555,105.408203 L783.230469,105.645508 C783.083984,105.018552 782.824709,104.546877 782.452637,104.230469 C782.080565,103.914061 781.630862,103.755859 781.103516,103.755859 C780.306637,103.755859 779.659182,104.041501 779.161133,104.612793 C778.663083,105.184085 778.414062,106.087884 778.414062,107.324219 C778.414062,108.578131 778.654294,109.489255 779.134766,110.057617 C779.615237,110.625979 780.242184,110.910156 781.015625,110.910156 C781.636722,110.910156 782.155271,110.719728 782.571289,110.338867 C782.987307,109.958006 783.250976,109.372074 783.362305,108.581055 Z M786.271484,112 L786.271484,99.1152344 L787.853516,99.1152344 L787.853516,103.738281 C788.591801,102.882808 789.523432,102.455078 790.648438,102.455078 C791.339847,102.455078 791.940427,102.591307 792.450195,102.86377 C792.959963,103.136232 793.324706,103.512693 793.544434,103.993164 C793.764161,104.473635 793.874023,105.170894 793.874023,106.084961 L793.874023,112 L792.291992,112 L792.291992,106.084961 C792.291992,105.293941 792.120607,104.718264 791.777832,104.35791 C791.435057,103.997557 790.950198,103.817383 790.323242,103.817383 C789.85449,103.817383 789.413576,103.938964 789.000488,104.182129 C788.5874,104.425294 788.29297,104.754881 788.117188,105.170898 C787.941405,105.586916 787.853516,106.161129 787.853516,106.893555 L787.853516,112 L786.271484,112 Z M796.695312,112 L796.695312,110.198242 L798.49707,110.198242 L798.49707,112 C798.49707,112.662113 798.379884,113.196775 798.145508,113.604004 C797.911132,114.011233 797.539065,114.326171 797.029297,114.548828 L796.589844,113.87207 C796.92383,113.725585 797.169921,113.510255 797.328125,113.226074 C797.486329,112.941893 797.574219,112.533206 797.591797,112 L796.695312,112 Z M806.662109,112 L806.662109,103.896484 L805.264648,103.896484 L805.264648,102.666016 L806.662109,102.666016 L806.662109,101.672852 C806.662109,101.045895 806.717773,100.58008 806.829102,100.275391 C806.981446,99.8652323 807.24951,99.5327161 807.633301,99.277832 C808.017092,99.0229479 808.554684,98.8955078 809.246094,98.8955078 C809.691408,98.8955078 810.183591,98.9482417 810.722656,99.0537109 L810.485352,100.433594 C810.157225,100.375 809.846681,100.345703 809.553711,100.345703 C809.07324,100.345703 808.733399,100.448241 808.53418,100.65332 C808.33496,100.858399 808.235352,101.242185 808.235352,101.804688 L808.235352,102.666016 L810.054688,102.666016 L810.054688,103.896484 L808.235352,103.896484 L808.235352,112 L806.662109,112 Z M811.267578,112 L811.267578,102.666016 L812.691406,102.666016 L812.691406,104.081055 C813.054689,103.418942 813.390135,102.982423 813.697754,102.771484 C814.005373,102.560546 814.343748,102.455078 814.712891,102.455078 C815.246096,102.455078 815.788083,102.624998 816.338867,102.964844 L815.793945,104.432617 C815.407225,104.2041 815.02051,104.089844 814.633789,104.089844 C814.288084,104.089844 813.97754,104.193847 813.702148,104.401855 C813.426756,104.609864 813.230469,104.898436 813.113281,105.267578 C812.937499,105.830081 812.849609,106.445309 812.849609,107.113281 L812.849609,112 L811.267578,112 Z M816.69043,107.333008 C816.69043,105.604484 817.170894,104.324223 818.131836,103.492188 C818.934574,102.800778 819.91308,102.455078 821.067383,102.455078 C822.350592,102.455078 823.39941,102.875484 824.213867,103.716309 C825.028324,104.557133 825.435547,105.718743 825.435547,107.201172 C825.435547,108.40235 825.255373,109.347165 824.89502,110.035645 C824.534666,110.724125 824.010257,111.258787 823.321777,111.639648 C822.633297,112.02051 821.88184,112.210938 821.067383,112.210938 C819.760736,112.210938 818.704594,111.791996 817.898926,110.954102 C817.093258,110.116207 816.69043,108.909188 816.69043,107.333008 Z M818.316406,107.333008 C818.316406,108.528326 818.577146,109.423337 819.098633,110.018066 C819.62012,110.612796 820.276363,110.910156 821.067383,110.910156 C821.852543,110.910156 822.505857,110.611331 823.027344,110.013672 C823.548831,109.416013 823.80957,108.504889 823.80957,107.280273 C823.80957,106.125971 823.547366,105.251468 823.022949,104.656738 C822.498533,104.062009 821.846684,103.764648 821.067383,103.764648 C820.276363,103.764648 819.62012,104.060544 819.098633,104.652344 C818.577146,105.244144 818.316406,106.137689 818.316406,107.333008 Z M827.290039,112 L827.290039,102.666016 L828.705078,102.666016 L828.705078,103.975586 C828.998048,103.518552 829.387693,103.15088 829.874023,102.872559 C830.360354,102.594237 830.914059,102.455078 831.535156,102.455078 C832.226566,102.455078 832.793455,102.598631 833.23584,102.885742 C833.678225,103.172853 833.990233,103.574216 834.171875,104.089844 C834.91016,102.999995 835.871088,102.455078 837.054688,102.455078 C837.980473,102.455078 838.69238,102.711423 839.19043,103.224121 C839.688479,103.736819 839.9375,104.526362 839.9375,105.592773 L839.9375,112 L838.364258,112 L838.364258,106.120117 C838.364258,105.487302 838.312989,105.03174 838.210449,104.753418 C838.10791,104.475096 837.921876,104.250977 837.652344,104.081055 C837.382811,103.911132 837.066408,103.826172 836.703125,103.826172 C836.046872,103.826172 835.501955,104.044431 835.068359,104.480957 C834.634763,104.917483 834.417969,105.616206 834.417969,106.577148 L834.417969,112 L832.835938,112 L832.835938,105.935547 C832.835938,105.232418 832.707033,104.70508 832.449219,104.353516 C832.191405,104.001951 831.769534,103.826172 831.183594,103.826172 C830.738279,103.826172 830.326662,103.943358 829.94873,104.177734 C829.570799,104.412111 829.296876,104.754881 829.126953,105.206055 C828.95703,105.657229 828.87207,106.307613 828.87207,107.157227 L828.87207,112 L827.290039,112 Z M621.186523,139.577148 L621.186523,126.666016 L622.62793,126.666016 L622.62793,127.878906 C622.967775,127.404295 623.35156,127.048341 623.779297,126.811035 C624.207033,126.573729 624.725583,126.455078 625.334961,126.455078 C626.13184,126.455078 626.834958,126.660154 627.444336,127.070312 C628.053714,127.480471 628.51367,128.059078 628.824219,128.806152 C629.134767,129.553226 629.290039,130.372066 629.290039,131.262695 C629.290039,132.217778 629.118654,133.077633 628.775879,133.842285 C628.433104,134.606937 627.935062,135.192869 627.281738,135.600098 C626.628415,136.007326 625.94141,136.210938 625.220703,136.210938 C624.693357,136.210938 624.220217,136.09961 623.80127,135.876953 C623.382322,135.654296 623.038087,135.373049 622.768555,135.033203 L622.768555,139.577148 L621.186523,139.577148 Z M622.619141,131.385742 C622.619141,132.58692 622.862302,133.474607 623.348633,134.048828 C623.834963,134.62305 624.423825,134.910156 625.115234,134.910156 C625.818363,134.910156 626.420408,134.612796 626.921387,134.018066 C627.422366,133.423337 627.672852,132.501959 627.672852,131.253906 C627.672852,130.064447 627.428225,129.173831 626.938965,128.582031 C626.449705,127.990231 625.865238,127.694336 625.185547,127.694336 C624.511715,127.694336 623.91553,128.009274 623.396973,128.63916 C622.878415,129.269046 622.619141,130.184564 622.619141,131.385742 Z M631.179688,136 L631.179688,126.666016 L632.603516,126.666016 L632.603516,128.081055 C632.966799,127.418942 633.302245,126.982423 633.609863,126.771484 C633.917482,126.560546 634.255858,126.455078 634.625,126.455078 C635.158206,126.455078 635.700193,126.624998 636.250977,126.964844 L635.706055,128.432617 C635.319334,128.2041 634.932619,128.089844 634.545898,128.089844 C634.200194,128.089844 633.88965,128.193847 633.614258,128.401855 C633.338866,128.609864 633.142579,128.898436 633.025391,129.267578 C632.849608,129.830081 632.761719,130.445309 632.761719,131.113281 L632.761719,136 L631.179688,136 Z M643.581055,132.994141 L645.21582,133.196289 C644.958007,134.151372 644.480472,134.892575 643.783203,135.419922 C643.085934,135.947268 642.195318,136.210938 641.111328,136.210938 C639.746087,136.210938 638.663578,135.790532 637.86377,134.949707 C637.063961,134.108883 636.664062,132.929695 636.664062,131.412109 C636.664062,129.841789 637.068355,128.623051 637.876953,127.755859 C638.685551,126.888668 639.734369,126.455078 641.023438,126.455078 C642.271491,126.455078 643.291012,126.879879 644.082031,127.729492 C644.873051,128.579106 645.268555,129.774406 645.268555,131.31543 C645.268555,131.40918 645.265625,131.549804 645.259766,131.737305 L638.298828,131.737305 C638.357422,132.7627 638.647458,133.547849 639.168945,134.092773 C639.690432,134.637698 640.340816,134.910156 641.120117,134.910156 C641.700198,134.910156 642.19531,134.757814 642.605469,134.453125 C643.015627,134.148436 643.340819,133.662113 643.581055,132.994141 Z M638.386719,130.436523 L643.598633,130.436523 C643.52832,129.651363 643.329103,129.062502 643.000977,128.669922 C642.497068,128.060544 641.843754,127.755859 641.041016,127.755859 C640.314449,127.755859 639.703616,127.999021 639.208496,128.485352 C638.713376,128.971682 638.439453,129.622066 638.386719,130.436523 Z M647.202148,139.577148 L647.202148,126.666016 L648.643555,126.666016 L648.643555,127.878906 C648.9834,127.404295 649.367185,127.048341 649.794922,126.811035 C650.222658,126.573729 650.741208,126.455078 651.350586,126.455078 C652.147465,126.455078 652.850583,126.660154 653.459961,127.070312 C654.069339,127.480471 654.529295,128.059078 654.839844,128.806152 C655.150392,129.553226 655.305664,130.372066 655.305664,131.262695 C655.305664,132.217778 655.134279,133.077633 654.791504,133.842285 C654.448729,134.606937 653.950687,135.192869 653.297363,135.600098 C652.64404,136.007326 651.957035,136.210938 651.236328,136.210938 C650.708982,136.210938 650.235842,136.09961 649.816895,135.876953 C649.397947,135.654296 649.053712,135.373049 648.78418,135.033203 L648.78418,139.577148 L647.202148,139.577148 Z M648.634766,131.385742 C648.634766,132.58692 648.877927,133.474607 649.364258,134.048828 C649.850588,134.62305 650.43945,134.910156 651.130859,134.910156 C651.833988,134.910156 652.436033,134.612796 652.937012,134.018066 C653.437991,133.423337 653.688477,132.501959 653.688477,131.253906 C653.688477,130.064447 653.44385,129.173831 652.95459,128.582031 C652.46533,127.990231 651.880863,127.694336 651.201172,127.694336 C650.52734,127.694336 649.931155,128.009274 649.412598,128.63916 C648.89404,129.269046 648.634766,130.184564 648.634766,131.385742 Z M663.303711,134.848633 C662.717771,135.346682 662.153811,135.698241 661.611816,135.90332 C661.069822,136.108399 660.488284,136.210938 659.867188,136.210938 C658.841792,136.210938 658.053714,135.960452 657.50293,135.459473 C656.952146,134.958494 656.676758,134.318363 656.676758,133.539062 C656.676758,133.082029 656.780761,132.664553 656.98877,132.286621 C657.196778,131.90869 657.469237,131.60547 657.806152,131.376953 C658.143068,131.148436 658.522459,130.975587 658.944336,130.858398 C659.254884,130.776367 659.72363,130.697266 660.350586,130.621094 C661.627936,130.468749 662.568356,130.28711 663.171875,130.076172 C663.177734,129.859374 663.180664,129.72168 663.180664,129.663086 C663.180664,129.018551 663.031251,128.564454 662.732422,128.300781 C662.328123,127.943358 661.727543,127.764648 660.930664,127.764648 C660.18652,127.764648 659.637209,127.895018 659.282715,128.155762 C658.928221,128.416505 658.666016,128.877926 658.496094,129.540039 L656.949219,129.329102 C657.089844,128.666989 657.321287,128.132326 657.643555,127.725098 C657.965822,127.317869 658.431638,127.004396 659.041016,126.784668 C659.650394,126.56494 660.356441,126.455078 661.15918,126.455078 C661.956059,126.455078 662.603513,126.548827 663.101562,126.736328 C663.599612,126.923829 663.965819,127.159667 664.200195,127.443848 C664.434571,127.728029 664.598632,128.086912 664.692383,128.520508 C664.745117,128.79004 664.771484,129.276364 664.771484,129.979492 L664.771484,132.088867 C664.771484,133.559578 664.805175,134.489744 664.872559,134.879395 C664.939942,135.269045 665.073241,135.642576 665.272461,136 L663.620117,136 C663.456054,135.671873 663.350586,135.288088 663.303711,134.848633 Z M663.171875,131.31543 C662.597653,131.549806 661.736334,131.749023 660.587891,131.913086 C659.937497,132.006836 659.47754,132.112304 659.208008,132.229492 C658.938475,132.34668 658.730469,132.518065 658.583984,132.743652 C658.437499,132.969239 658.364258,133.219725 658.364258,133.495117 C658.364258,133.916994 658.523924,134.268553 658.843262,134.549805 C659.162599,134.831056 659.62988,134.97168 660.245117,134.97168 C660.854495,134.97168 661.396482,134.83838 661.871094,134.571777 C662.345705,134.305174 662.694335,133.940432 662.916992,133.477539 C663.086915,133.120115 663.171875,132.592777 663.171875,131.895508 L663.171875,131.31543 Z M667.206055,136 L667.206055,126.666016 L668.629883,126.666016 L668.629883,128.081055 C668.993166,127.418942 669.328612,126.982423 669.63623,126.771484 C669.943849,126.560546 670.282225,126.455078 670.651367,126.455078 C671.184573,126.455078 671.72656,126.624998 672.277344,126.964844 L671.732422,128.432617 C671.345701,128.2041 670.958986,128.089844 670.572266,128.089844 C670.226561,128.089844 669.916017,128.193847 669.640625,128.401855 C669.365233,128.609864 669.168946,128.898436 669.051758,129.267578 C668.875976,129.830081 668.788086,130.445309 668.788086,131.113281 L668.788086,136 L667.206055,136 Z M679.308594,134.848633 C678.722653,135.346682 678.158694,135.698241 677.616699,135.90332 C677.074704,136.108399 676.493167,136.210938 675.87207,136.210938 C674.846675,136.210938 674.058597,135.960452 673.507812,135.459473 C672.957028,134.958494 672.681641,134.318363 672.681641,133.539062 C672.681641,133.082029 672.785643,132.664553 672.993652,132.286621 C673.201661,131.90869 673.474119,131.60547 673.811035,131.376953 C674.147951,131.148436 674.527342,130.975587 674.949219,130.858398 C675.259767,130.776367 675.728512,130.697266 676.355469,130.621094 C677.632819,130.468749 678.573239,130.28711 679.176758,130.076172 C679.182617,129.859374 679.185547,129.72168 679.185547,129.663086 C679.185547,129.018551 679.036134,128.564454 678.737305,128.300781 C678.333006,127.943358 677.732426,127.764648 676.935547,127.764648 C676.191403,127.764648 675.642092,127.895018 675.287598,128.155762 C674.933104,128.416505 674.670899,128.877926 674.500977,129.540039 L672.954102,129.329102 C673.094727,128.666989 673.32617,128.132326 673.648438,127.725098 C673.970705,127.317869 674.43652,127.004396 675.045898,126.784668 C675.655276,126.56494 676.361324,126.455078 677.164062,126.455078 C677.960941,126.455078 678.608396,126.548827 679.106445,126.736328 C679.604495,126.923829 679.970702,127.159667 680.205078,127.443848 C680.439454,127.728029 680.603515,128.086912 680.697266,128.520508 C680.75,128.79004 680.776367,129.276364 680.776367,129.979492 L680.776367,132.088867 C680.776367,133.559578 680.810058,134.489744 680.877441,134.879395 C680.944825,135.269045 681.078124,135.642576 681.277344,136 L679.625,136 C679.460937,135.671873 679.355469,135.288088 679.308594,134.848633 Z M679.176758,131.31543 C678.602536,131.549806 677.741217,131.749023 676.592773,131.913086 C675.94238,132.006836 675.482423,132.112304 675.212891,132.229492 C674.943358,132.34668 674.735352,132.518065 674.588867,132.743652 C674.442382,132.969239 674.369141,133.219725 674.369141,133.495117 C674.369141,133.916994 674.528807,134.268553 674.848145,134.549805 C675.167482,134.831056 675.634763,134.97168 676.25,134.97168 C676.859378,134.97168 677.401365,134.83838 677.875977,134.571777 C678.350588,134.305174 678.699218,133.940432 678.921875,133.477539 C679.091798,133.120115 679.176758,132.592777 679.176758,131.895508 L679.176758,131.31543 Z M686.682617,134.584961 L686.911133,135.982422 C686.465818,136.076172 686.067385,136.123047 685.71582,136.123047 C685.141599,136.123047 684.696291,136.032227 684.379883,135.850586 C684.063475,135.668944 683.840821,135.430177 683.711914,135.134277 C683.583007,134.838377 683.518555,134.215825 683.518555,133.266602 L683.518555,127.896484 L682.358398,127.896484 L682.358398,126.666016 L683.518555,126.666016 L683.518555,124.354492 L685.091797,123.405273 L685.091797,126.666016 L686.682617,126.666016 L686.682617,127.896484 L685.091797,127.896484 L685.091797,133.354492 C685.091797,133.805666 685.119629,134.095702 685.175293,134.224609 C685.230957,134.353516 685.321777,134.456054 685.447754,134.532227 C685.573731,134.608399 685.753905,134.646484 685.988281,134.646484 C686.164063,134.646484 686.395506,134.625977 686.682617,134.584961 Z M688.238281,124.93457 L688.238281,123.115234 L689.820312,123.115234 L689.820312,124.93457 L688.238281,124.93457 Z M688.238281,136 L688.238281,126.666016 L689.820312,126.666016 L689.820312,136 L688.238281,136 Z M691.639648,131.333008 C691.639648,129.604484 692.120112,128.324223 693.081055,127.492188 C693.883793,126.800778 694.862299,126.455078 696.016602,126.455078 C697.299811,126.455078 698.348629,126.875484 699.163086,127.716309 C699.977543,128.557133 700.384766,129.718743 700.384766,131.201172 C700.384766,132.40235 700.204592,133.347165 699.844238,134.035645 C699.483885,134.724125 698.959476,135.258787 698.270996,135.639648 C697.582516,136.02051 696.831059,136.210938 696.016602,136.210938 C694.709954,136.210938 693.653813,135.791996 692.848145,134.954102 C692.042476,134.116207 691.639648,132.909188 691.639648,131.333008 Z M693.265625,131.333008 C693.265625,132.528326 693.526365,133.423337 694.047852,134.018066 C694.569339,134.612796 695.225582,134.910156 696.016602,134.910156 C696.801762,134.910156 697.455076,134.611331 697.976562,134.013672 C698.498049,133.416013 698.758789,132.504889 698.758789,131.280273 C698.758789,130.125971 698.496585,129.251468 697.972168,128.656738 C697.447751,128.062009 696.795902,127.764648 696.016602,127.764648 C695.225582,127.764648 694.569339,128.060544 694.047852,128.652344 C693.526365,129.244144 693.265625,130.137689 693.265625,131.333008 Z M702.239258,136 L702.239258,126.666016 L703.663086,126.666016 L703.663086,127.993164 C704.348636,126.967768 705.338861,126.455078 706.633789,126.455078 C707.196292,126.455078 707.713377,126.556151 708.185059,126.758301 C708.656741,126.96045 709.009764,127.225584 709.244141,127.553711 C709.478517,127.881838 709.642578,128.271482 709.736328,128.722656 C709.794922,129.015626 709.824219,129.528317 709.824219,130.260742 L709.824219,136 L708.242188,136 L708.242188,130.322266 C708.242188,129.677731 708.180665,129.195802 708.057617,128.876465 C707.93457,128.557127 707.71631,128.302247 707.402832,128.111816 C707.089354,127.921386 706.721682,127.826172 706.299805,127.826172 C705.625973,127.826172 705.044436,128.040037 704.555176,128.467773 C704.065916,128.89551 703.821289,129.707025 703.821289,130.902344 L703.821289,136 L702.239258,136 Z M720.705078,134.584961 L720.933594,135.982422 C720.488279,136.076172 720.089846,136.123047 719.738281,136.123047 C719.16406,136.123047 718.718752,136.032227 718.402344,135.850586 C718.085936,135.668944 717.863282,135.430177 717.734375,135.134277 C717.605468,134.838377 717.541016,134.215825 717.541016,133.266602 L717.541016,127.896484 L716.380859,127.896484 L716.380859,126.666016 L717.541016,126.666016 L717.541016,124.354492 L719.114258,123.405273 L719.114258,126.666016 L720.705078,126.666016 L720.705078,127.896484 L719.114258,127.896484 L719.114258,133.354492 C719.114258,133.805666 719.14209,134.095702 719.197754,134.224609 C719.253418,134.353516 719.344238,134.456054 719.470215,134.532227 C719.596192,134.608399 719.776366,134.646484 720.010742,134.646484 C720.186524,134.646484 720.417967,134.625977 720.705078,134.584961 Z M721.663086,131.333008 C721.663086,129.604484 722.14355,128.324223 723.104492,127.492188 C723.907231,126.800778 724.885736,126.455078 726.040039,126.455078 C727.323249,126.455078 728.372066,126.875484 729.186523,127.716309 C730.000981,128.557133 730.408203,129.718743 730.408203,131.201172 C730.408203,132.40235 730.228029,133.347165 729.867676,134.035645 C729.507322,134.724125 728.982914,135.258787 728.294434,135.639648 C727.605954,136.02051 726.854496,136.210938 726.040039,136.210938 C724.733392,136.210938 723.67725,135.791996 722.871582,134.954102 C722.065914,134.116207 721.663086,132.909188 721.663086,131.333008 Z M723.289062,131.333008 C723.289062,132.528326 723.549802,133.423337 724.071289,134.018066 C724.592776,134.612796 725.249019,134.910156 726.040039,134.910156 C726.825199,134.910156 727.478513,134.611331 728,134.013672 C728.521487,133.416013 728.782227,132.504889 728.782227,131.280273 C728.782227,130.125971 728.520022,129.251468 727.995605,128.656738 C727.471189,128.062009 726.81934,127.764648 726.040039,127.764648 C725.249019,127.764648 724.592776,128.060544 724.071289,128.652344 C723.549802,129.244144 723.289062,130.137689 723.289062,131.333008 Z M737.263672,139.577148 L737.263672,126.666016 L738.705078,126.666016 L738.705078,127.878906 C739.044924,127.404295 739.428709,127.048341 739.856445,126.811035 C740.284182,126.573729 740.802731,126.455078 741.412109,126.455078 C742.208988,126.455078 742.912106,126.660154 743.521484,127.070312 C744.130862,127.480471 744.590819,128.059078 744.901367,128.806152 C745.211916,129.553226 745.367188,130.372066 745.367188,131.262695 C745.367188,132.217778 745.195802,133.077633 744.853027,133.842285 C744.510252,134.606937 744.01221,135.192869 743.358887,135.600098 C742.705563,136.007326 742.018558,136.210938 741.297852,136.210938 C740.770505,136.210938 740.297365,136.09961 739.878418,135.876953 C739.459471,135.654296 739.115236,135.373049 738.845703,135.033203 L738.845703,139.577148 L737.263672,139.577148 Z M738.696289,131.385742 C738.696289,132.58692 738.939451,133.474607 739.425781,134.048828 C739.912112,134.62305 740.500973,134.910156 741.192383,134.910156 C741.895511,134.910156 742.497556,134.612796 742.998535,134.018066 C743.499514,133.423337 743.75,132.501959 743.75,131.253906 C743.75,130.064447 743.505374,129.173831 743.016113,128.582031 C742.526853,127.990231 741.942386,127.694336 741.262695,127.694336 C740.588864,127.694336 739.992678,128.009274 739.474121,128.63916 C738.955564,129.269046 738.696289,130.184564 738.696289,131.385742 Z M747.256836,136 L747.256836,126.666016 L748.680664,126.666016 L748.680664,128.081055 C749.043947,127.418942 749.379393,126.982423 749.687012,126.771484 C749.99463,126.560546 750.333006,126.455078 750.702148,126.455078 C751.235354,126.455078 751.777341,126.624998 752.328125,126.964844 L751.783203,128.432617 C751.396482,128.2041 751.009768,128.089844 750.623047,128.089844 C750.277342,128.089844 749.966798,128.193847 749.691406,128.401855 C749.416014,128.609864 749.219727,128.898436 749.102539,129.267578 C748.926757,129.830081 748.838867,130.445309 748.838867,131.113281 L748.838867,136 L747.256836,136 Z M752.679688,131.333008 C752.679688,129.604484 753.160151,128.324223 754.121094,127.492188 C754.923832,126.800778 755.902338,126.455078 757.056641,126.455078 C758.33985,126.455078 759.388668,126.875484 760.203125,127.716309 C761.017582,128.557133 761.424805,129.718743 761.424805,131.201172 C761.424805,132.40235 761.244631,133.347165 760.884277,134.035645 C760.523924,134.724125 759.999515,135.258787 759.311035,135.639648 C758.622555,136.02051 757.871098,136.210938 757.056641,136.210938 C755.749993,136.210938 754.693852,135.791996 753.888184,134.954102 C753.082516,134.116207 752.679688,132.909188 752.679688,131.333008 Z M754.305664,131.333008 C754.305664,132.528326 754.566404,133.423337 755.087891,134.018066 C755.609378,134.612796 756.265621,134.910156 757.056641,134.910156 C757.841801,134.910156 758.495115,134.611331 759.016602,134.013672 C759.538089,133.416013 759.798828,132.504889 759.798828,131.280273 C759.798828,130.125971 759.536624,129.251468 759.012207,128.656738 C758.48779,128.062009 757.835941,127.764648 757.056641,127.764648 C756.265621,127.764648 755.609378,128.060544 755.087891,128.652344 C754.566404,129.244144 754.305664,130.137689 754.305664,131.333008 Z M769.334961,136 L769.334961,134.822266 C768.743161,135.748052 767.873053,136.210938 766.724609,136.210938 C765.980465,136.210938 765.29639,136.005861 764.672363,135.595703 C764.048337,135.185545 763.564943,134.612797 763.222168,133.877441 C762.879393,133.142086 762.708008,132.29688 762.708008,131.341797 C762.708008,130.410152 762.86328,129.564945 763.173828,128.806152 C763.484377,128.047359 763.950192,127.465822 764.571289,127.061523 C765.192386,126.657225 765.886715,126.455078 766.654297,126.455078 C767.2168,126.455078 767.717771,126.573729 768.157227,126.811035 C768.596682,127.048341 768.9541,127.35742 769.229492,127.738281 L769.229492,123.115234 L770.802734,123.115234 L770.802734,136 L769.334961,136 Z M764.333984,131.341797 C764.333984,132.537115 764.585935,133.430661 765.089844,134.022461 C765.593753,134.614261 766.188473,134.910156 766.874023,134.910156 C767.565433,134.910156 768.15283,134.627444 768.63623,134.062012 C769.119631,133.496579 769.361328,132.633795 769.361328,131.473633 C769.361328,130.196283 769.115237,129.258792 768.623047,128.661133 C768.130857,128.063474 767.524418,127.764648 766.803711,127.764648 C766.100582,127.764648 765.513186,128.051755 765.041504,128.625977 C764.569822,129.200198 764.333984,130.105463 764.333984,131.341797 Z M779.407227,136 L779.407227,134.628906 C778.68066,135.683599 777.693366,136.210938 776.445312,136.210938 C775.894528,136.210938 775.380373,136.10547 774.902832,135.894531 C774.425291,135.683593 774.070802,135.418459 773.839355,135.099121 C773.607909,134.779784 773.445313,134.388674 773.351562,133.925781 C773.287109,133.615233 773.254883,133.12305 773.254883,132.449219 L773.254883,126.666016 L774.836914,126.666016 L774.836914,131.842773 C774.836914,132.668949 774.86914,133.225585 774.933594,133.512695 C775.033204,133.928713 775.244139,134.25537 775.566406,134.492676 C775.888673,134.729982 776.287107,134.848633 776.761719,134.848633 C777.23633,134.848633 777.681639,134.727052 778.097656,134.483887 C778.513674,134.240721 778.808105,133.90967 778.980957,133.490723 C779.153809,133.071775 779.240234,132.463871 779.240234,131.666992 L779.240234,126.666016 L780.822266,126.666016 L780.822266,136 L779.407227,136 Z M789.391602,132.581055 L790.947266,132.783203 C790.777343,133.855474 790.342289,134.694821 789.64209,135.30127 C788.941891,135.907718 788.082036,136.210938 787.0625,136.210938 C785.78515,136.210938 784.758305,135.793461 783.981934,134.958496 C783.205563,134.123531 782.817383,132.926766 782.817383,131.368164 C782.817383,130.360347 782.984373,129.478519 783.318359,128.722656 C783.652345,127.966793 784.160641,127.399904 784.843262,127.021973 C785.525882,126.644041 786.268551,126.455078 787.071289,126.455078 C788.084966,126.455078 788.914059,126.711423 789.558594,127.224121 C790.203128,127.736819 790.61621,128.464839 790.797852,129.408203 L789.259766,129.645508 C789.113281,129.018552 788.854006,128.546877 788.481934,128.230469 C788.109861,127.914061 787.660159,127.755859 787.132812,127.755859 C786.335934,127.755859 785.688479,128.041501 785.19043,128.612793 C784.69238,129.184085 784.443359,130.087884 784.443359,131.324219 C784.443359,132.578131 784.683591,133.489255 785.164062,134.057617 C785.644534,134.625979 786.271481,134.910156 787.044922,134.910156 C787.666019,134.910156 788.184568,134.719728 788.600586,134.338867 C789.016604,133.958006 789.280273,133.372074 789.391602,132.581055 Z M795.754883,134.584961 L795.983398,135.982422 C795.538084,136.076172 795.13965,136.123047 794.788086,136.123047 C794.213864,136.123047 793.768556,136.032227 793.452148,135.850586 C793.135741,135.668944 792.913087,135.430177 792.78418,135.134277 C792.655273,134.838377 792.59082,134.215825 792.59082,133.266602 L792.59082,127.896484 L791.430664,127.896484 L791.430664,126.666016 L792.59082,126.666016 L792.59082,124.354492 L794.164062,123.405273 L794.164062,126.666016 L795.754883,126.666016 L795.754883,127.896484 L794.164062,127.896484 L794.164062,133.354492 C794.164062,133.805666 794.191894,134.095702 794.247559,134.224609 C794.303223,134.353516 794.394042,134.456054 794.52002,134.532227 C794.645997,134.608399 794.826171,134.646484 795.060547,134.646484 C795.236329,134.646484 795.467772,134.625977 795.754883,134.584961 Z M797.310547,124.93457 L797.310547,123.115234 L798.892578,123.115234 L798.892578,124.93457 L797.310547,124.93457 Z M797.310547,136 L797.310547,126.666016 L798.892578,126.666016 L798.892578,136 L797.310547,136 Z M800.711914,131.333008 C800.711914,129.604484 801.192378,128.324223 802.15332,127.492188 C802.956059,126.800778 803.934565,126.455078 805.088867,126.455078 C806.372077,126.455078 807.420894,126.875484 808.235352,127.716309 C809.049809,128.557133 809.457031,129.718743 809.457031,131.201172 C809.457031,132.40235 809.276857,133.347165 808.916504,134.035645 C808.556151,134.724125 808.031742,135.258787 807.343262,135.639648 C806.654782,136.02051 805.903324,136.210938 805.088867,136.210938 C803.78222,136.210938 802.726078,135.791996 801.92041,134.954102 C801.114742,134.116207 800.711914,132.909188 800.711914,131.333008 Z M802.337891,131.333008 C802.337891,132.528326 802.59863,133.423337 803.120117,134.018066 C803.641604,134.612796 804.297848,134.910156 805.088867,134.910156 C805.874027,134.910156 806.527341,134.611331 807.048828,134.013672 C807.570315,133.416013 807.831055,132.504889 807.831055,131.280273 C807.831055,130.125971 807.56885,129.251468 807.044434,128.656738 C806.520017,128.062009 805.868168,127.764648 805.088867,127.764648 C804.297848,127.764648 803.641604,128.060544 803.120117,128.652344 C802.59863,129.244144 802.337891,130.137689 802.337891,131.333008 Z M811.311523,136 L811.311523,126.666016 L812.735352,126.666016 L812.735352,127.993164 C813.420902,126.967768 814.411126,126.455078 815.706055,126.455078 C816.268558,126.455078 816.785642,126.556151 817.257324,126.758301 C817.729006,126.96045 818.08203,127.225584 818.316406,127.553711 C818.550782,127.881838 818.714843,128.271482 818.808594,128.722656 C818.867188,129.015626 818.896484,129.528317 818.896484,130.260742 L818.896484,136 L817.314453,136 L817.314453,130.322266 C817.314453,129.677731 817.25293,129.195802 817.129883,128.876465 C817.006835,128.557127 816.788576,128.302247 816.475098,128.111816 C816.16162,127.921386 815.793947,127.826172 815.37207,127.826172 C814.698239,127.826172 814.116702,128.040037 813.627441,128.467773 C813.138181,128.89551 812.893555,129.707025 812.893555,130.902344 L812.893555,136 L811.311523,136 Z M830.352539,129 L829.12207,129 L829.12207,121.15918 C828.825845,121.441733 828.43734,121.724282 827.956543,122.006836 C827.475746,122.289389 827.043947,122.501301 826.661133,122.642578 L826.661133,121.453125 C827.349287,121.129556 827.950844,120.737633 828.46582,120.277344 C828.980797,119.817055 829.345377,119.370445 829.55957,118.9375 L830.352539,118.9375 L830.352539,129 Z" id="30-40min.for1batch,frompreparationtoproduction1" fill="#373737" fill-rule="nonzero"></path>
            <text id="145-kg-in-bags-(in-c" font-family="ArialMT, Arial" font-size="18" font-weight="normal" fill="#373737">
                <tspan x="620" y="179">145 kg in bags (in carton) for 500 </tspan>
                <tspan x="620" y="199">liter; 1+34</tspan>
            </text>
            <text id="Granuflo" font-family="Arial-BoldMT, Arial" font-size="18" font-weight="bold" fill="#373737">
                <tspan x="620" y="26">Granuflo</tspan>
            </text>
            <text id="ECOMix-Revolution" font-family="Arial-BoldMT, Arial" font-size="18" font-weight="bold" fill="#FFFFFF">
                <tspan x="312" y="26">ECOMix Revolution</tspan>
            </text>
            <text id="220-kg-/-800-liter-1" font-family="ArialMT, Arial" font-size="18" font-weight="normal" fill="#FFFFFF">
                <tspan x="312" y="179">220 kg / 800 liter 1+34</tspan>
                <tspan x="312" y="199">220 kg / 622 liter 1+44</tspan>
            </text>
            <text id="Product-handling" font-family="ArialMT, Arial" font-size="18" font-weight="normal" fill="#373737">
                <tspan x="1" y="69">Product handling</tspan>
            </text>
            <text id="Hygiene-of-system" font-family="ArialMT, Arial" font-size="18" font-weight="normal" fill="#373737">
                <tspan x="1" y="242">Hygiene of system</tspan>
            </text>
            <text id="Online-capabilities" font-family="ArialMT, Arial" font-size="18" font-weight="normal" fill="#373737">
                <tspan x="1" y="285">Online capabilities REMOTE </tspan>
                <tspan x="1" y="305">access</tspan>
            </text>
            <text id="Environmental-protec" font-family="ArialMT, Arial" font-size="18" font-weight="normal" fill="#373737">
                <tspan x="1" y="358">Environmental protection</tspan>
            </text>
            <text id="Space-requirements" font-family="ArialMT, Arial" font-size="18" font-weight="normal" fill="#373737">
                <tspan x="1" y="411">Space requirements</tspan>
            </text>
            <text id="Recommendation-for-l" font-family="ArialMT, Arial" font-size="18" font-weight="normal" fill="#373737">
                <tspan x="1" y="454">Recommendation for lab analysis</tspan>
            </text>
            <text id="Handling-workload" font-family="ArialMT, Arial" font-size="18" font-weight="normal" fill="#373737">
                <tspan x="0" y="122">Handling workload</tspan>
            </text>
            <text id="Weight" font-family="ArialMT, Arial" font-size="18" font-weight="normal" fill="#373737">
                <tspan x="1" y="185">Weight</tspan>
            </text>
            <path d="M0.5,84.5 L911.59275,84.5" id="Line" stroke="#FFFFFF" stroke-linecap="square"></path>
            <path d="M0.5,151.5 L911.59275,151.5" id="Line" stroke="#FFFFFF" stroke-linecap="square"></path>
            <path d="M0.5,214.5 L911.59275,214.5" id="Line-Copy" stroke="#FFFFFF" stroke-linecap="square"></path>
            <path d="M0.5,257.5 L911.59275,257.5" id="Line-Copy-2" stroke="#FFFFFF" stroke-linecap="square"></path>
            <path d="M0.5,320.5 L911.59275,320.5" id="Line-Copy-3" stroke="#FFFFFF" stroke-linecap="square"></path>
            <path d="M0.5,383.5 L911.59275,383.5" id="Line-Copy-4" stroke="#FFFFFF" stroke-linecap="square"></path>
            <path d="M0.5,426.5 L911.59275,426.5" id="Line-Copy-5" stroke="#FFFFFF" stroke-linecap="square"></path>
            <path d="M0.5,41.5 L911.59275,41.5" id="Line" stroke="#FFFFFF" stroke-linecap="square"></path>
        </g>
    </g>
</svg>