<?xml version="1.0" encoding="UTF-8"?>
<svg width="24px" height="32px" viewBox="0 0 24 32" version="1.1" xmlns="http://www.w3.org/2000/svg" xmlns:xlink="http://www.w3.org/1999/xlink">
    <!-- Generator: Sketch 50.2 (55047) - http://www.bohemiancoding.com/sketch -->
    <title>icons/other/hand</title>
    <desc>Created with Sketch.</desc>
    <defs></defs>
    <g id="icons/other/hand" stroke="none" stroke-width="1" fill="none" fill-rule="evenodd">
        <g id="Group">
            <path d="M2.27890909,31.3521 C0.621818182,29.3801 -0.174545455,27.1591 0.0316363636,25.0931 L0.0436363636,24.9991 L0.0174545455,9.8991 C0.00436363636,8.2491 1.38218182,6.8461 3.11672727,6.7161 L3.12,6.0571 C3.11345455,4.2651 4.65381818,2.7451 6.55418182,2.6781 C6.55418182,2.6781 6.71127273,2.6751 6.72654545,2.6761 C7.00363636,1.5351 7.91672727,0.5941 9.09927273,0.2141 L9.09381818,0.0731 L11.1425455,0.0001 L11.1490909,0.1441 C12.3730909,0.4501 13.3363636,1.3671 13.6429091,2.5241 C13.6636364,2.5231 13.8370909,2.5181 13.8370909,2.5181 C15.7341818,2.5181 17.2876364,3.9811 17.3007273,5.7791 L17.2963636,14.0821 C17.8090909,13.7081 18.4276364,13.4471 19.1312727,13.3091 C19.5076364,13.2361 19.9025455,13.2001 20.3083636,13.2001 C20.7098182,13.2001 21.1276364,13.2351 21.552,13.3071 C21.8061818,13.3501 21.9992727,13.3951 22.1192727,13.4281 L23.796,13.8901 L22.7476364,17.4411 L21.4058182,22.0221 C20.9629091,23.5441 20.5789091,24.8641 20.28,25.9171 C19.8414545,27.4551 19.0985455,28.7791 18.0741818,29.8521 C17.4916364,30.4611 16.836,30.9721 16.1258182,31.3711 C15.6403636,31.6401 15.2890909,31.7761 15.0785455,31.8431 L14.8385455,31.9191 L14.1621818,31.9531 L4.116,31.9901 L2.82654545,32.0001 L2.27890909,31.3521 Z" id="Fill-1" fill="#FFFFFF"></path>
            <path d="M2.27890909,31.352 C0.621818182,29.38 -0.174545455,27.159 0.0316363636,25.093 L0.0436363636,24.999 L0.0174545454,9.899 C0.00436363636,8.249 1.38218182,6.846 3.11672727,6.716 L3.12,6.057 C3.11345455,4.265 4.65381818,2.745 6.55418182,2.678 C6.55418182,2.678 6.71127273,2.675 6.72654545,2.676 C7.00363636,1.535 7.91672727,0.594 9.09927273,0.214 L9.09381818,0.073 L11.1425455,0 L11.1490909,0.144 C12.3730909,0.45 13.3363636,1.367 13.6429091,2.524 C13.6636364,2.523 13.8370909,2.518 13.8370909,2.518 C15.7341818,2.518 17.2876364,3.981 17.3007273,5.779 L17.2963636,14.082 C17.8090909,13.708 18.4276364,13.447 19.1312727,13.309 C19.5076364,13.236 19.9025455,13.2 20.3083636,13.2 C20.7098182,13.2 21.1276364,13.235 21.552,13.307 C21.8061818,13.35 21.9992727,13.395 22.1192727,13.428 L23.796,13.89 L22.7476364,17.441 L21.4058182,22.022 C20.9629091,23.544 20.5789091,24.864 20.28,25.917 C19.8414545,27.455 19.0985455,28.779 18.0741818,29.852 C17.4916364,30.461 16.836,30.972 16.1258182,31.371 C15.6403636,31.64 15.2890909,31.776 15.0785455,31.843 L14.8385455,31.919 L14.1621818,31.953 L4.116,31.99 L2.82654545,32 L2.27890909,31.352 Z M2.59418182,9.8911 L2.62036364,25.1581 C2.60836364,25.2241 2.604,25.2551 2.59854545,25.3081 C2.556,25.7351 2.58654545,26.3011 2.75345455,26.9621 C2.976,27.8511 3.408,28.7521 4.09636364,29.6401 L14.0618182,29.6051 L14.3203636,29.5921 C14.424,29.5501 14.5810909,29.4781 14.7774545,29.3681 C15.2345455,29.1121 15.696,28.7641 16.1301818,28.3091 C16.86,27.5451 17.4327273,26.5631 17.7861818,25.3261 C18.0872727,24.2691 18.4701818,22.9451 18.9163636,21.4151 C18.9349091,21.3481 18.9349091,21.3481 18.9556364,21.2811 C19.3701818,19.8581 19.8141818,18.3421 20.2581818,16.8311 C20.3923636,16.3771 20.5189091,15.9521 20.6323636,15.5621 C20.3018182,15.5371 19.9734545,15.5481 19.6690909,15.6071 C19.1432727,15.7091 18.7581818,15.9431 18.5116364,16.3521 C18.2825455,16.7351 17.9956364,17.2331 17.6650909,17.8201 C17.6170909,17.9051 17.6170909,17.9051 17.5712727,17.9891 C17.2614545,18.5401 16.9363636,19.1311 16.6156364,19.7231 C16.5021818,19.9301 16.3974545,20.1221 16.3047273,20.2941 C16.2501818,20.3981 16.2087273,20.4711 16.1890909,20.5101 L14.7141818,23.2581 L14.7152727,20.2021 L14.7229091,5.7881 C14.7196364,5.2481 14.2974545,4.8521 13.8065455,4.8691 C13.2796364,4.8871 12.8138182,5.3531 12.816,5.9341 L12.7385455,7.7031 L12.672,15.7641 L11.1207273,15.7561 L11.1665455,3.3021 C11.1643636,2.7701 10.7236364,2.3661 10.2185455,2.3841 C9.68945455,2.4031 9.21272727,2.8711 9.216,3.4251 L9.132,15.7831 L7.58072727,15.7771 L7.61127273,5.9481 C7.60690909,5.4151 7.15963636,5.0081 6.65236364,5.0251 C6.13963636,5.0431 5.69454545,5.4981 5.69672727,6.0641 L5.67490909,9.6221 C5.68036364,9.6771 5.68254545,9.7331 5.68363636,9.7891 L5.63781818,15.7631 L4.08654545,15.7541 L4.12254545,9.6861 C4.06581818,9.3211 3.72109091,9.0431 3.35127273,9.0561 C2.94763636,9.0711 2.59090909,9.4361 2.59418182,9.8911 Z" id="Fill-1" fill="#5186AA"></path>
        </g>
    </g>
</svg>