<?xml version="1.0" encoding="UTF-8"?>
<svg width="25px" height="30px" viewBox="0 0 25 30" version="1.1" xmlns="http://www.w3.org/2000/svg" xmlns:xlink="http://www.w3.org/1999/xlink">
    <!-- Generator: Sketch 50.2 (55047) - http://www.bohemiancoding.com/sketch -->
    <title>Icons/other/security</title>
    <desc>Created with Sketch.</desc>
    <defs></defs>
    <g id="Icons/other/security" stroke="none" stroke-width="1" fill="none" fill-rule="evenodd">
        <g id="security-on">
            <g id="icons/other/shield">
                <g id="shield">
                    <path d="M22.8002857,0 L1.20023971,0 C0.875027022,0 0,0.911335947 0,1.24988884 L0,16.2496494 C0,17.3695624 0.209234171,18.4794878 0.628030877,19.579836 C1.04663056,20.6801157 1.56544725,21.6567817 2.1842839,22.5096285 C2.80312056,23.3626805 3.54049698,24.1928158 4.39674152,25.0000342 C5.25311742,25.8076631 6.04368896,26.4776544 6.76858751,27.0118552 C7.49348606,27.5456455 8.2497763,28.0503622 9.03726122,28.5251161 C9.56225116,28.8417555 10.549776,29.3333835 11.9998358,30 C13.4499394,29.3334291 14.437508,28.8418011 14.9625418,28.5251161 C15.749567,28.0503622 16.5061199,27.5456455 17.2308871,27.0118552 C17.956114,26.477586 18.7465542,25.8075947 19.6030615,25.0000342 C20.4588463,24.1928158 21.1964854,23.3626121 21.8152564,22.5096285 C22.4339617,21.6567817 22.952647,20.6801157 23.3720348,19.579836 C23.7909628,18.4794878 24,17.3695624 24,16.2496494 L24,1.24988884 C23.9999343,0.911130722 23.1252357,0 22.8002857,0 Z" id="Path" fill="#FFFFFF"></path>
                    <path d="M23.6443807,0.371046853 C23.4065788,0.123613876 23.1252357,0 22.8002857,0 L1.20023971,0 C0.875027022,0 0.593749572,0.123613876 0.35621034,0.371046853 C0.118802453,0.618343013 0,0.911335947 0,1.24988884 L0,16.2496494 C0,17.3695624 0.209234171,18.4794878 0.628030877,19.579836 C1.04663056,20.6801157 1.56544725,21.6567817 2.1842839,22.5096285 C2.80312056,23.3626805 3.54049698,24.1928158 4.39674152,25.0000342 C5.25311742,25.8076631 6.04368896,26.4776544 6.76858751,27.0118552 C7.49348606,27.5456455 8.2497763,28.0503622 9.03726122,28.5251161 C9.56225116,28.8417555 10.549776,29.3333835 11.9998358,30 C13.4499394,29.3334291 14.437508,28.8418011 14.9625418,28.5251161 C15.749567,28.0503622 16.5061199,27.5456455 17.2308871,27.0118552 C17.956114,26.477586 18.7465542,25.8075947 19.6030615,25.0000342 C20.4588463,24.1928158 21.1964854,23.3626121 21.8152564,22.5096285 C22.4339617,21.6567817 22.952647,20.6801157 23.3720348,19.579836 C23.7909628,18.4794878 24,17.3695624 24,16.2496494 L24,1.24988884 C23.9999343,0.911130722 23.8812632,0.618411421 23.6443807,0.371046853 Z M21.6447754,16.2496494 C21.6447754,18.5413289 19.2259481,21.3876503 16.5464983,23.7834473 C15.4746704,24.7467736 13.3566994,26.3452429 11.9999015,27.1655273 L11.9999015,2.39257812 L21.6447754,2.39257812 L21.6447754,16.2496494 Z" id="Shape" fill="#00B482" fill-rule="nonzero"></path>
                </g>
            </g>
        </g>
    </g>
</svg>