<?xml version="1.0" encoding="UTF-8"?>
<svg width="16px" height="17px" viewBox="0 0 16 17" version="1.1" xmlns="http://www.w3.org/2000/svg" xmlns:xlink="http://www.w3.org/1999/xlink">
    <!-- Generator: Sketch 49.1 (51147) - http://www.bohemiancoding.com/sketch -->
    <title>thumb</title>
    <desc>Created with Sketch.</desc>
    <defs></defs>
    <g id="thumb" stroke="none" stroke-width="1" fill="none" fill-rule="evenodd">
        <g id="icons/other/thumbs-up" fill="#00B482" fill-rule="nonzero">
            <path d="M15.9729127,12.3898974 C15.8848788,11.9954306 15.7023471,11.649817 15.5068873,11.4710933 C15.9833782,10.9400803 16,10.2788934 16,9.88078536 C16,9.14040161 15.7041939,8.55173583 15.0827241,8.20278447 C15.308965,7.36590808 15.0528665,6.73900937 14.5880723,6.50566711 C13.8333205,6.12667559 12.9326664,6.24198126 11.9144286,6.4701651 C11.0928819,6.65435074 10.1088111,6.84551539 9.31558292,6.71473449 C8.75228934,6.62188309 8.62854944,6.4810888 8.60115429,6.42495315 C8.51158138,6.23955377 8.7799923,5.77347613 9.03947672,5.32287372 C9.45840708,4.59553771 9.9798384,3.55687639 9.9798384,2.46936189 C9.9798384,0.923659081 9.01916122,0 8.09049634,0 C7.50934975,0 6.92327818,0.391735832 6.92327818,1.26623829 C6.92327818,2.74488175 6.18945748,3.60087461 3.7583686,5.99741187 C2.73889958,7.00239179 2.32735668,7.75582329 2.05494421,8.25406515 C1.67602924,8.94832664 1.23432089,9.11521642 0.325355906,9.1167336 C0.319507503,9.11643017 0.314274721,9.11309237 0.307810696,9.11309237 C0.137899192,9.11309237 0,9.24903168 0,9.41652834 L0,15.4852477 C0,15.6481928 0.131435167,15.7792771 0.294882647,15.7862561 L0.294882647,15.7941455 C2.30488649,15.7941455 3.18491728,15.962249 4.20407849,16.3327443 C5.38207003,16.7611959 6.73643709,17 10.0789534,17 C12.8350904,17 14.7204309,16.5405979 15.2744902,15.5526104 C15.6063101,14.9621241 15.2172374,14.5782776 15.1442863,14.3258188 C15.7085033,13.5857385 16.1080416,12.9982865 15.9729127,12.3898974" id="Page-1"></path>
        </g>
    </g>
</svg>