<?xml version="1.0" encoding="UTF-8"?>
<svg width="40px" height="37px" viewBox="0 0 40 37" version="1.1" xmlns="http://www.w3.org/2000/svg" xmlns:xlink="http://www.w3.org/1999/xlink">
    <!-- Generator: Sketch 48.2 (47327) - http://www.bohemiancoding.com/sketch -->
    <title>icons/white/check-big</title>
    <desc>Created with Sketch.</desc>
    <defs></defs>
    <g id="y.Symbols" stroke="none" stroke-width="1" fill="none" fill-rule="evenodd">
        <g id="icons/white/check-big" fill="#FFFFFF" fill-rule="nonzero">
            <path d="M36.4285714,0 C35.3864286,0 34.4728571,0.466057692 33.8214286,1.17688462 L13.0864286,23.6586538 L6.09642857,16.69625 C5.44357143,16.0587115 4.55785714,15.6538462 3.57142857,15.6538462 C1.59857143,15.6538462 0,17.2462692 0,19.2115385 C0,19.97075 0.242857143,20.6716154 0.65,21.2486731 L10.645,35.4822885 C11.2957143,36.3966154 12.3614286,37 13.5714286,37 C14.73,37 15.7492857,36.4421538 16.4014286,35.5904423 L39.27,5.71365385 C39.7171429,5.10742308 40,4.36884615 40,3.55769231 C40,1.59242308 38.4014286,0 36.4285714,0 Z" id="Page-1"></path>
        </g>
    </g>
</svg>