<?xml version="1.0" encoding="UTF-8"?>
<svg width="30px" height="30px" viewBox="0 0 30 30" version="1.1" xmlns="http://www.w3.org/2000/svg" xmlns:xlink="http://www.w3.org/1999/xlink">
    <!-- Generator: Sketch 48.2 (47327) - http://www.bohemiancoding.com/sketch -->
    <title>icons/white/close-big</title>
    <desc>Created with Sketch.</desc>
    <defs></defs>
    <g id="y.Symbols" stroke="none" stroke-width="1" fill="none" fill-rule="evenodd">
        <g id="icons/white/close-big" fill="#FFFFFF">
            <path d="M29.7812908,28.7246329 L16.0556572,14.9994774 L29.7812908,1.27432195 C30.0729031,0.983765046 30.0729031,0.510303622 29.7812908,0.218701552 C29.4896786,-0.0729005174 29.0172459,-0.0729005174 28.7256337,0.218701552 L15,13.943857 L1.27436634,0.218701552 C0.982754115,-0.0729005174 0.510321401,-0.0729005174 0.218709172,0.218701552 C-0.0729030572,0.510303622 -0.0729030572,0.982719877 0.218709172,1.27432195 L13.9443428,14.9994774 L0.218709172,28.7246329 C-0.0729030572,29.016235 -0.0729030572,29.4886512 0.218709172,29.7812984 C0.510321401,30.0729005 0.982754115,30.0729005 1.27436634,29.7812984 L15,16.0550978 L28.7256337,29.7812984 C29.0182911,30.0729005 29.4896786,30.0729005 29.7812908,29.7812984 C30.0729031,29.4886512 30.0729031,29.016235 29.7812908,28.7246329" id="Fill-1"></path>
        </g>
    </g>
</svg>