<?xml version="1.0" encoding="UTF-8"?>
<svg width="79px" height="54px" viewBox="0 0 79 54" version="1.1" xmlns="http://www.w3.org/2000/svg" xmlns:xlink="http://www.w3.org/1999/xlink">
    <!-- Generator: Sketch 48.2 (47327) - http://www.bohemiancoding.com/sketch -->
    <title>icons/white/hospital</title>
    <desc>Created with Sketch.</desc>
    <defs></defs>
    <g id="y.Symbols" stroke="none" stroke-width="1" fill="none" fill-rule="evenodd">
        <g id="icons/white/hospital" fill="#FFFFFF" fill-rule="nonzero">
            <path d="M74.5795778,48.2420268 C74.6723665,47.9647354 74.7250304,47.6673988 74.7250304,47.3583692 L74.7250304,14.9044143 C74.7250304,13.365948 73.4761441,12.1189718 71.9363526,12.1189718 L56.4155547,12.1189718 L56.4155547,46.6626349 C56.4155547,47.2172178 56.3152426,47.7475794 56.1380244,48.2420268 L54.3173589,48.2420268 C54.4101476,47.9647354 54.4628115,47.6673988 54.4628115,47.3583692 L54.4628115,2.78544251 C54.4628115,1.24697621 53.2139252,0 51.6741336,0 L27.3241945,0 C25.7844029,0 24.5363526,1.24697621 24.5363526,2.78544251 L24.5363526,47.3583692 C24.5363526,47.6673988 24.5890165,47.9647354 24.6818052,48.2420268 L22.8619756,48.2420268 C22.6847574,47.7475794 22.5844453,47.2172178 22.5844453,46.6626349 L22.5844453,12.1189718 L7.43563833,12.1189718 C5.89584678,12.1189718 4.64779641,13.365948 4.64779641,14.9044143 L4.64779641,47.3583692 C4.64779641,47.6673988 4.70046029,47.9647354 4.7924131,48.2420268 L0,48.2420268 L0,54 L79,54 L79,48.2420268 L74.5795778,48.2420268 Z M13.0113222,36.8647261 L9.0147188,36.8647261 L9.0147188,32.8723977 L13.0113222,32.8723977 L13.0113222,36.8647261 Z M13.0113222,29.8547654 L9.0147188,29.8547654 L9.0147188,25.8616018 L13.0113222,25.8616018 L13.0113222,29.8547654 Z M13.0113222,23.0761592 L9.0147188,23.0761592 L9.0147188,19.0829956 L13.0113222,19.0829956 L13.0113222,23.0761592 Z M19.239035,36.8647261 L15.2424316,36.8647261 L15.2424316,32.8723977 L19.239035,32.8723977 L19.239035,36.8647261 Z M19.239035,29.8547654 L15.2424316,29.8547654 L15.2424316,25.8616018 L19.239035,25.8616018 L19.239035,29.8547654 Z M19.239035,23.0761592 L15.2424316,23.0761592 L15.2424316,19.0829956 L19.239035,19.0829956 L19.239035,23.0761592 Z M45.7038887,48.0557738 L33.9698746,48.0557738 L33.9698746,33.4294862 L45.7038887,33.4294862 L45.7038887,48.0557738 Z M39.499582,20.8929069 C34.0718586,20.8929069 29.6714989,16.4963343 29.6714989,11.0732824 C29.6714989,5.64939524 34.0726946,1.25282272 39.499582,1.25282272 C44.9281414,1.25282272 49.3285011,5.64939524 49.3285011,11.0732824 C49.3285011,16.4971695 44.9281414,20.8929069 39.499582,20.8929069 Z M64.8727051,36.8647261 L60.8769377,36.8647261 L60.8769377,32.8723977 L64.8727051,32.8723977 L64.8727051,36.8647261 Z M64.8727051,29.8547654 L60.8769377,29.8547654 L60.8769377,25.8616018 L64.8727051,25.8616018 L64.8727051,29.8547654 Z M64.8727051,23.0761592 L60.8769377,23.0761592 L60.8769377,19.0829956 L64.8727051,19.0829956 L64.8727051,23.0761592 Z M71.099582,36.8647261 L67.1038146,36.8647261 L67.1038146,32.8723977 L71.099582,32.8723977 L71.099582,36.8647261 Z M71.099582,29.8547654 L67.1038146,29.8547654 L67.1038146,25.8616018 L71.099582,25.8616018 L71.099582,29.8547654 Z M71.099582,23.0761592 L67.1038146,23.0761592 L67.1038146,19.0829956 L71.099582,19.0829956 L71.099582,23.0761592 Z M41.9388392,8.6361246 L45.7030527,8.6361246 L45.7030527,13.5104402 L41.9388392,13.5104402 L41.9388392,17.2730844 L37.0603249,17.2730844 L37.0603249,13.5104402 L33.2961113,13.5104402 L33.2961113,8.6361246 L37.0603249,8.6361246 L37.0603249,4.8751508 L41.9388392,4.8751508 L41.9388392,8.6361246 Z" id="Shape"></path>
        </g>
    </g>
</svg>