<svg xmlns="http://www.w3.org/2000/svg" width="18" height="6" viewBox="0 0 18 6">
  <path fill="#FEFEFE" d="M8.10587681,12 L8.10201895,3.27892715 C8.10201895,2.98726329 8.0374641,2.73172047 7.91118351,2.51041175 C7.78438853,2.2893726 7.62544473,2.11334996 7.43640962,1.97883954 C7.29418321,1.87910237 7.07994342,1.78340859 6.7898324,1.69229732 C6.50023576,1.60064694 6.23687256,1.54215244 6,1.51735292 L6,0.560415122 L11.9956278,0 L12,11.9997304 L8.10587681,12 Z M12,-3.50014937 C12,-2.11967497 10.8805569,-1 9.49940249,-1 C8.11914436,-1 7,-2.11967497 7,-3.50014937 C7,-4.88122125 8.11914436,-6 9.49940249,-6 C10.8805569,-6 12,-4.88122125 12,-3.50014937 Z" transform="rotate(-90 9 3)"/>
</svg>
