<?xml version="1.0" encoding="UTF-8"?>
<svg width="77px" height="53px" viewBox="0 0 77 53" version="1.1" xmlns="http://www.w3.org/2000/svg" xmlns:xlink="http://www.w3.org/1999/xlink">
    <!-- Generator: Sketch 48.2 (47327) - http://www.bohemiancoding.com/sketch -->
    <title>icons/white/facts</title>
    <desc>Created with Sketch.</desc>
    <defs></defs>
    <g id="y.Symbols" stroke="none" stroke-width="1" fill="none" fill-rule="evenodd">
        <g id="icons/white/facts" fill="#FFFFFF" fill-rule="nonzero">
            <path d="M75.7166667,50.4146341 L75.7166667,0 L60.3166667,0 L60.3166667,50.4146341 L56.4666667,50.4146341 L56.4666667,10.3414634 L41.0666667,10.3414634 L41.0666667,50.4146341 L37.2166667,50.4146341 L37.2166667,20.6829268 L21.8166667,20.6829268 L21.8166667,50.4146341 L17.9666667,50.4146341 L17.9666667,32.3170732 L2.56666667,32.3170732 L2.56666667,50.4146341 L1.28333333,50.4146341 C0.574933333,50.4146341 0,50.9924634 0,51.7073171 C0,52.4221707 0.574933333,53 1.28333333,53 L2.56666667,53 L17.9666667,53 L21.8166667,53 L37.2166667,53 L41.0666667,53 L56.4666667,53 L60.3166667,53 L75.7166667,53 C76.4250667,53 77,52.4221707 77,51.7073171 C77,50.9924634 76.4250667,50.4146341 75.7166667,50.4146341 Z" id="Shape"></path>
        </g>
    </g>
</svg>